<svg xmlns="http://www.w3.org/2000/svg" width="95.83" height="84.945"><path d="M372.195 205.659c-2.007.86-4.1 1.85-6.28 2.97a78.068 78.068 0 0 0-6.561 3.796c-2.194 1.411-4.425 3.125-6.69 5.14a81.18 81.18 0 0 0-6.221 6.136 50.241 50.241 0 0 0-5.158 6.788 53.161 53.161 0 0 0-4.07 7.747 46.085 46.085 0 0 0-2.627 8.155 47.879 47.879 0 0 0-1.076 8.213c-.119 2.756.035 5.599.462 8.53a42.07 42.07 0 0 0 2.08 8.355c.96 2.638 2.168 5.291 3.624 7.96a76.111 76.111 0 0 0 4.95 7.867 60.746 60.746 0 0 0 6.063 7.22 73.71 73.71 0 0 0 7.055 6.307 50.298 50.298 0 0 0 8.052 5.166c2.86 1.474 5.774 2.538 8.74 3.19 2.966.654 6.08 1.047 9.341 1.182 3.261.134 6.654.012 10.177-.366a55.687 55.687 0 0 0 10.537-2.193c3.5-1.084 5.823-1.87 6.966-2.358a59.744 59.744 0 0 0 3.113-1.426c.932-.463 2.208-1.143 3.828-2.04 1.62-.898 4.007-2.322 7.16-4.274 3.154-1.951 6.256-4.214 9.305-6.79a112.501 112.501 0 0 0 8.618-8.076 100.5 100.5 0 0 0 7.449-8.687 69.165 69.165 0 0 0 5.918-9.147 67.42 67.42 0 0 0 4.23-9.555 49.795 49.795 0 0 0 2.393-9.87c.45-3.327.622-6.455.516-9.385a32.192 32.192 0 0 0-1.468-8.543 43.064 43.064 0 0 0-3.456-8.012c-1.433-2.575-3.14-4.853-5.121-6.835a71.522 71.522 0 0 0-6.478-5.718 51.196 51.196 0 0 0-7.563-4.902 66.673 66.673 0 0 0-8.363-3.734c-2.87-1.052-5.965-1.917-9.287-2.597-3.322-.68-6.833-1.071-10.533-1.173-3.7-.103-7.465.1-11.295.607-3.83.508-7.684 1.223-11.562 2.147-3.878.924-7.758 2.231-11.641 3.921a69.283 69.283 0 0 0-11.235 6.204c-3.608 2.445-7.104 5.284-10.488 8.518a86.883 86.883 0 0 0-9.468 10.698c-4.32 5.755-8.566 13.087-12.74 21.996" style="fill:none;stroke:#fff;stroke-width:1.03937;stroke-linecap:round;stroke-linejoin:round;stroke-miterlimit:10;stroke-dasharray:none;stroke-opacity:1" transform="matrix(.72727 0 0 .72727 -242.089 -141.203)"/><path d="M400.98 251.78c-.38.16-.648.05-.808-.33-.114-.267-.165-.59-.153-.966.01-.377.08-.624.206-.74.126-.116.343-.19.65-.222.307-.03.544.036.71.202.168.166.3.369.4.609.098.24.156.517.173.83a2.64 2.64 0 0 1-.12.94 1.875 1.875 0 0 1-.433.766 1.36 1.36 0 0 1-.636.385c-.234.06-.49.09-.772.09a1.424 1.424 0 0 1-.749-.202c-.219-.133-.434-.38-.644-.74-.21-.36-.331-.683-.363-.967a3.291 3.291 0 0 1-.002-.78c.03-.236.151-.46.363-.674a2.501 2.501 0 0 1 1.433-.727c.241-.03.448-.03.62 0 .172.031.304.148.396.35.09.201.141.42.15.655.01.235-.047.538-.169.91-.122.371-.272.642-.45.812a.95.95 0 0 1-.591.28.948.948 0 0 1-.618-.17 1.223 1.223 0 0 1-.433-.491 1.5 1.5 0 0 1-.154-.571.68.68 0 0 1 .169-.492c.121-.142.275-.266.46-.371.186-.105.36-.17.52-.197.161-.027.3-.025.415.004.116.03.21.198.283.505.074.308.1.52.078.634-.021.115-.18.219-.478.31-.297.093-.534.12-.711.083-.177-.038-.265-.216-.264-.534.001-.318.068-.535.2-.65.13-.114.216-.05.256.19l.068.404c.005.028.009.035.013.021l.119-.38" style="fill:none;stroke:#fff;stroke-width:1.03937;stroke-linecap:round;stroke-linejoin:round;stroke-miterlimit:10;stroke-dasharray:none;stroke-opacity:1" transform="matrix(.72727 0 0 .72727 -242.089 -141.203)"/><path d="M400.512 249.318c-.126-.12-.214-.366-.264-.737a16.75 16.75 0 0 1-.088-.866 26.89 26.89 0 0 1-.063-1.125c-.015-.412-.023-1.59-.025-3.534-.002-1.944.004-3.146.016-3.608.013-.462.02-1.298.021-2.507.001-1.21 0-2.364-.007-3.463a50.93 50.93 0 0 0-.045-2.255c-.024-.406-.09-.961-.199-1.667a20.871 20.871 0 0 1-.208-1.727c-.03-.445-.046-2.574-.05-6.385-.002-3.81-.007-5.85-.012-6.12-.005-.269-.031-.715-.076-1.34a32.706 32.706 0 0 1-.08-1.922 11.93 11.93 0 0 1 .083-1.697c.063-.473.122-1.099.175-1.876.054-.776.1-1.437.14-1.982.039-.544.062-1.165.07-1.863.008-.697.012-1.359.012-1.986 0-.626.012-1.066.038-1.32.025-.255.039-.672.04-1.251 0-.58-.028-1.08-.085-1.5-.058-.42-.09-.945-.098-1.573a28.19 28.19 0 0 1-.003-1.103l.01-.187M400.03 251.915a.597.597 0 0 1 .206.288c.026.078.075.118.148.121.072.003.131-.04.176-.129.045-.089.101-.15.167-.184l.107-.056c.005-.003.006-.002.003.002l-.064.086a.688.688 0 0 1-.1.113c-.028.023-.03.034-.006.033.023 0 .08 0 .173-.003.092 0 .156-.02.19-.055a.328.328 0 0 0 .075-.175.68.68 0 0 1 .042-.162l.023-.046c.002-.004 0 .004-.005.024l-.063.235a1.458 1.458 0 0 0-.06.451v.006l.003-.03.023-.25c.013-.139.02-.225.024-.257.003-.033 0-.041-.01-.024l-.092.156a1.802 1.802 0 0 1-.215.285c-.092.103-.167.165-.226.185-.059.02-.105-.015-.139-.104-.033-.09-.072-.13-.115-.12a.267.267 0 0 0-.133.095c-.063.074.031.096.283.068M400.553 253.417v-.458.483c0 .299.023.63.07.996.048.366.103.88.166 1.54.063.662.114 1.226.153 1.694.04.468.099 1.104.178 1.907.079.804.134 1.455.164 1.955s.054.993.072 1.478c.017.485.03.923.036 1.314.007.391.015.737.027 1.037.011.3.05.953.118 1.957a97.81 97.81 0 0 1 .152 2.935c.035.952.078 1.757.128 2.415.05.658.092 1.175.125 1.553.033.377.07 1.104.113 2.18.042 1.077.074 1.8.096 2.167.022.368.042.919.061 1.653.02.734.03 1.625.03 2.672 0 1.047.006 1.744.016 2.091.01.347.036.8.08 1.362.044.56.073.966.086 1.217.013.251.02.517.021.798.001.28.03.854.084 1.72.054.865.085 1.541.092 2.026.007.486.017.83.028 1.033.01.203.038.493.082.87.045.377.084 1.113.12 2.21a102.9 102.9 0 0 0 .086 2.208c.022.376.034 1.654.035 3.834.001 2.18.01 3.457.027 3.83.017.373.026.75.026 1.13 0 .38-.074.561-.226.542M398.063 250.26l.296.296h0l-.027-.028-.681-.706a27.6 27.6 0 0 0-1.202-1.178 26.01 26.01 0 0 1-1.128-1.102 30.039 30.039 0 0 1-.816-.867c-.162-.183-.47-.498-.925-.945a52.367 52.367 0 0 1-1.151-1.162 8.73 8.73 0 0 0-.699-.678 12.242 12.242 0 0 0-.673-.495 9.556 9.556 0 0 1-1.009-.835c-.377-.35-.646-.598-.809-.744a21.695 21.695 0 0 0-.672-.571 27.43 27.43 0 0 1-.977-.849c-.365-.331-.804-.69-1.318-1.076a29.845 29.845 0 0 1-1.047-.811 11.617 11.617 0 0 1-.575-.518c-.198-.19-.46-.454-.79-.793a32.637 32.637 0 0 0-.7-.708 9.811 9.811 0 0 1-.625-.697 22.729 22.729 0 0 0-1.078-1.18c-.442-.455-.824-.82-1.148-1.097a136.26 136.26 0 0 0-.959-.81 41.915 41.915 0 0 1-1.24-1.093 63.843 63.843 0 0 1-1.033-.954 20.77 20.77 0 0 1-.77-.799 19.118 19.118 0 0 0-.767-.794 19.733 19.733 0 0 0-.865-.752l-1.214-1.014c-.408-.341-.817-.67-1.226-.989a19.084 19.084 0 0 1-1.276-1.093c-.442-.41-1.084-1.026-1.928-1.845-.843-.82-1.357-1.305-1.542-1.458-.184-.153-.45-.35-.798-.592a7.064 7.064 0 0 1-.778-.604c-.17-.16-.404-.433-.704-.818a9.503 9.503 0 0 0-.623-.75 6.254 6.254 0 0 0-.579-.48c-.27-.204-.555-.44-.857-.706a9.076 9.076 0 0 0-.757-.614 5.938 5.938 0 0 1-.628-.514c-.214-.2-.42-.37-.615-.512a8.765 8.765 0 0 0-.541-.366 5.767 5.767 0 0 1-.637-.48 7.566 7.566 0 0 1-.72-.69 9.593 9.593 0 0 1-.605-.719c-.012-.015-.01-.016.007-.004l.376.286" style="fill:none;stroke:#fff;stroke-width:1.03937;stroke-linecap:round;stroke-linejoin:round;stroke-miterlimit:10;stroke-dasharray:none;stroke-opacity:1" transform="matrix(.72727 0 0 .72727 -242.089 -141.203)"/><path d="M425.125 253.219c.001.152-.008.204-.027.154l-.106-.266c-.057-.142-.109-.43-.157-.865-.047-.434-.084-.96-.11-1.578a60.664 60.664 0 0 1-.049-1.881 46.145 46.145 0 0 1 .016-1.847 9.437 9.437 0 0 1 .141-1.49c.077-.4.182-.743.314-1.033a2.26 2.26 0 0 1 .47-.697 1.52 1.52 0 0 1 .626-.369c.235-.07.483-.092.741-.064.26.028.523.142.792.341.268.2.537.457.807.773.27.317.529.703.777 1.159.247.456.459.977.633 1.561s.313 1.193.416 1.825c.103.633.174 1.263.213 1.89.06.964.075 1.774.046 2.431" style="fill:none;stroke:#7ec636;stroke-width:1.03937;stroke-linecap:round;stroke-linejoin:round;stroke-miterlimit:10;stroke-dasharray:none;stroke-opacity:1" transform="matrix(.72727 0 0 .72727 -243.392 -141.203)"/><path d="M425.83 249.115c.768-.203 1.68-.385 2.736-.546" style="fill:none;stroke:#7ec636;stroke-width:1.03937;stroke-linecap:round;stroke-linejoin:round;stroke-miterlimit:10;stroke-dasharray:none;stroke-opacity:1" transform="matrix(.72727 0 0 .72727 -243.392 -141.203)"/><path d="M403.403 206.107c.042-.148.301-.49.778-1.027l.894-1.007c.12-.136.474-.482 1.064-1.038.867-.817 1.993-1.827 3.378-3.03M402.641 215.227c-.044-.035-.039-.091.017-.168.055-.077.27-.27.648-.581.377-.311.648-.539.814-.684.167-.145.527-.496 1.082-1.053a43.293 43.293 0 0 1 1.922-1.802 92.403 92.403 0 0 0 2.365-2.181c.85-.81 1.713-1.584 2.587-2.321.874-.738 1.727-1.438 2.56-2.101a51.948 51.948 0 0 1 2.374-1.79 107.771 107.771 0 0 0 3.964-2.968M404.187 224.183c.038-.168.184-.403.438-.706.255-.302.84-.841 1.755-1.616a52.653 52.653 0 0 0 2.113-1.864 56.022 56.022 0 0 1 2.15-1.9c.94-.8 1.851-1.607 2.735-2.422a518.08 518.08 0 0 1 2.741-2.51c.944-.86 2.374-2.079 4.288-3.657 1.914-1.579 3.295-2.684 4.142-3.315 1.267-.942 2.6-1.904 4-2.885M404.035 233.223c-.27.218-.38.318-.334.298l.25-.106c.132-.057.365-.218.697-.482.332-.265.754-.64 1.265-1.128a67.789 67.789 0 0 1 1.753-1.606c.658-.583 1.4-1.261 2.225-2.033a72.558 72.558 0 0 1 2.63-2.338c.93-.787 1.884-1.616 2.865-2.487l3.219-2.86a107.787 107.787 0 0 1 3.175-2.727 78.373 78.373 0 0 0 1.987-1.67c.373-.33 1.09-.91 2.152-1.734a135.301 135.301 0 0 1 3.105-2.346 53.667 53.667 0 0 1 2.766-1.91c.836-.534 1.608-1.033 2.316-1.496 1.05-.688 2.278-1.34 3.684-1.954M405.487 241.119c-.18.18-.28.297-.3.353-.014.04.034.044.144.012.11-.031.265-.115.469-.25.203-.136.504-.385.902-.748.399-.363.854-.82 1.365-1.37.511-.55 1.129-1.175 1.854-1.876.725-.7 1.548-1.51 2.47-2.43a132.886 132.886 0 0 1 6.504-6.056c1.26-1.099 2.574-2.201 3.94-3.307a140.117 140.117 0 0 1 3.573-2.808c1.015-.766 1.733-1.31 2.156-1.628.422-.32 1.227-.914 2.414-1.785 1.188-.87 2.363-1.717 3.527-2.539 1.164-.821 1.924-1.34 2.28-1.554a18.9 18.9 0 0 1 1.502-.787c.938-.45 2.468-1.103 4.589-1.958M407.612 250.107l-.16.053c-.005.002-.005.002 0 .002l.092-.003c.056-.002.198-.085.425-.25.227-.164.464-.358.71-.581.248-.223.594-.559 1.04-1.006a65.4 65.4 0 0 0 1.523-1.588 44.31 44.31 0 0 1 1.855-1.871c.666-.636 1.392-1.335 2.175-2.098a158.71 158.71 0 0 1 2.614-2.484c.96-.893 1.927-1.763 2.9-2.609.975-.846 1.992-1.723 3.052-2.631 1.06-.908 2.145-1.834 3.254-2.778a66.94 66.94 0 0 1 2.624-2.148c.64-.488 1.242-.964 1.804-1.43.562-.464 1.448-1.19 2.659-2.175 1.21-.985 2.389-1.926 3.535-2.823 1.146-.897 2.25-1.727 3.315-2.491a61.034 61.034 0 0 1 2.98-2.02c1.346-.851 3.383-2.013 6.11-3.488M406.436 263.395c.163-.26.55-.67 1.162-1.233.379-.347.665-.613.86-.798.193-.184.391-.362.592-.535.2-.173.531-.465.99-.878.46-.413.952-.882 1.476-1.405a24.004 24.004 0 0 1 1.634-1.489c.829-.688 1.947-1.632 3.355-2.833M435.63 241.57l-.122.081c-.011.007.006.001.049-.017l.286-.122c.148-.062.362-.194.641-.395a17.115 17.115 0 0 0 2.181-1.908c.414-.425.851-.86 1.313-1.306.462-.446.961-.92 1.496-1.421a235.2 235.2 0 0 1 1.665-1.544 23.14 23.14 0 0 1 1.767-1.47 36.3 36.3 0 0 0 1.803-1.449 64.817 64.817 0 0 1 1.818-1.498c.612-.486 1.195-.96 1.749-1.418l1.652-1.368a21.908 21.908 0 0 1 1.551-1.18c.487-.334.935-.626 1.344-.878.599-.368 1.453-.774 2.561-1.219M409.352 277.105c.266-.151.566-.36.9-.625a26.82 26.82 0 0 0 1.001-.856c.45-.397.862-.761 1.24-1.091.377-.33.85-.718 1.415-1.165a47.926 47.926 0 0 0 1.935-1.626c.724-.637 1.486-1.298 2.286-1.982.8-.685 1.679-1.453 2.637-2.306a81.14 81.14 0 0 1 1.938-1.692c.334-.275.925-.769 1.772-1.481.846-.713 1.842-1.522 2.987-2.428a282.456 282.456 0 0 0 3.125-2.506 66.296 66.296 0 0 1 1.923-1.53c.344-.255 1.651-1.3 3.923-3.139a440.492 440.492 0 0 0 5.176-4.236 217.685 217.685 0 0 0 6.661-5.804 85.734 85.734 0 0 1 2.694-2.36 247.837 247.837 0 0 1 5.039-4.059M410.34 285.807c.342-.264.756-.532 1.24-.803.318-.178.746-.42 1.284-.727a17.666 17.666 0 0 0 1.782-1.185 147.26 147.26 0 0 1 2.175-1.585c.8-.573 1.672-1.23 2.615-1.968.944-.738 1.927-1.496 2.949-2.272a222.328 222.328 0 0 0 3.313-2.571c1.186-.938 2.396-1.88 3.628-2.826a194.446 194.446 0 0 1 3.733-2.798 904.315 904.315 0 0 0 3.798-2.79 346.4 346.4 0 0 0 3.863-2.896 193.95 193.95 0 0 1 3.892-2.885 70.134 70.134 0 0 1 3.712-2.514c1.733-1.09 4.086-2.423 7.06-4.002M409.262 295.31c.042-.095.2-.235.473-.42.273-.186.8-.5 1.58-.942l2.085-1.181c.61-.345 1.291-.739 2.045-1.18.753-.44 1.526-.926 2.318-1.455a74.842 74.842 0 0 1 2.655-1.687c.978-.595 2.02-1.255 3.128-1.978a63.287 63.287 0 0 1 3.321-2.027c1.107-.629 2.22-1.282 3.34-1.958 1.652-.997 3.717-2.126 6.194-3.387" style="fill:none;stroke:#507500;stroke-width:1.03937;stroke-linecap:round;stroke-linejoin:round;stroke-miterlimit:10;stroke-dasharray:none;stroke-opacity:1" transform="matrix(.72727 0 0 .72727 -242.089 -141.203)"/><path d="M360.554 257.286a4.25 4.25 0 0 0-.058.896c.01.176.066.563.167 1.161a62.249 62.249 0 0 1 .53 3.995c.104 1.054.285 2.201.542 3.441M360.963 258.552a2.362 2.362 0 0 1-.195-1.277c.033-.314.137-.59.311-.825.175-.237.378-.41.61-.519.23-.11.46-.16.688-.151.229.008.432.108.612.298s.319.429.417.714c.099.285.17.57.213.856a7.416 7.416 0 0 1 .08 1.43.928.928 0 0 1-.075.358c-.042.084.087.12.389.106.301-.013.596.006.885.058a3.054 3.054 0 0 1 1.728 1.017c.254.292.446.624.575.995.13.371.206.775.23 1.212.022.437-.077.884-.299 1.342-.221.458-.548.88-.979 1.268a5.45 5.45 0 0 1-1.431.932c-.757.338-1.526.183-2.308-.464" style="fill:none;stroke:#f59a23;stroke-width:1.03937;stroke-linecap:round;stroke-linejoin:round;stroke-miterlimit:10;stroke-dasharray:none;stroke-opacity:1" transform="matrix(.72727 0 0 .72727 -242.436 -139.552)"/><path d="M396.987 304.742a9.168 9.168 0 0 1-.237-1.566 89.008 89.008 0 0 0-.16-1.965c-.068-.754-.147-1.582-.236-2.485a177.06 177.06 0 0 0-.324-3.009 247.398 247.398 0 0 1-.382-3.54 65.797 65.797 0 0 1-.273-3.892 112.608 112.608 0 0 1-.091-4.213l-.016-4.473a258.505 258.505 0 0 0-.059-4.662 3587.96 3587.96 0 0 1-.098-4.746 324.79 324.79 0 0 1-.06-4.419 57.188 57.188 0 0 1 .08-3.658c.061-1.06.16-2.069.293-3.026.202-1.444.489-2.8.86-4.07M387.486 306.16c-.096.078-.185.042-.267-.11-.06-.109-.11-.397-.155-.864a58.816 58.816 0 0 1-.136-1.855c-.047-.77-.109-1.666-.185-2.69a108.59 108.59 0 0 1-.28-7.092c-.01-1.313-.015-5.384-.016-12.212 0-6.828.01-11.06.034-12.697.024-1.638.058-3.19.103-4.656.045-1.466.096-2.924.153-4.374.083-2.113.334-5.285.751-9.515M378.805 305.344c-.143-.029-.257-.141-.34-.338a2.508 2.508 0 0 1-.173-.63c-.031-.223-.06-.74-.087-1.553-.027-.812-.051-1.705-.073-2.681a234.603 234.603 0 0 0-.252-6.796c-.065-1.306-.14-2.707-.222-4.202-.083-1.496-.155-3.05-.216-4.665-.06-1.614-.104-3.293-.129-5.038-.025-1.744-.043-3.56-.055-5.446-.011-1.886-.027-3.77-.047-5.652-.02-1.881-.044-3.808-.07-5.779a781.747 781.747 0 0 1-.058-5.857c-.011-1.933-.01-3.719.003-5.357a92.19 92.19 0 0 1 .143-4.574c.082-1.41.165-2.566.25-3.468.13-1.386.297-2.543.503-3.472M368.571 301.555a8.588 8.588 0 0 1-.167-.918c-.024-.19-.056-.782-.098-1.775-.041-.992-.121-2.364-.24-4.116a196.21 196.21 0 0 1-.25-4.265 179.9 179.9 0 0 1-.166-7.312c-.004-1.84.113-4.628.352-8.365M367.915 248.416c-.199.087-.35.027-.452-.182-.072-.147-.115-.45-.13-.91-.013-.458-.011-.988.008-1.588.019-.6.044-1.203.075-1.81.03-.607.05-1.262.057-1.965a70.992 70.992 0 0 0-.088-4.464c-.04-.801-.073-1.582-.1-2.342-.041-1.113-.03-2.594.033-4.442M357.593 296.047c-.123-.441-.19-1.018-.203-1.73a43.104 43.104 0 0 1 .007-1.624c.013-.622.037-1.29.073-2.004.036-.715.06-1.49.073-2.326.013-.836.012-1.719 0-2.65-.014-.93-.031-1.883-.051-2.86a142.38 142.38 0 0 1 .016-5.441M356.961 254.272c-.027-.313-.044-.83-.051-1.551-.008-.72-.004-1.305.01-1.751.014-.447.044-1.077.088-1.892s.09-1.689.138-2.62c.048-.933.098-1.947.15-3.044.051-1.097.12-2.735.206-4.914a437.2 437.2 0 0 1 .214-4.92 89.11 89.11 0 0 1 .221-3.203c.09-1.033.186-2.022.286-2.967.148-1.4.343-2.981.585-4.74M349.686 284.644c-.17-.096-.3-.29-.393-.584-.092-.294-.16-.81-.204-1.55-.045-.738-.087-1.54-.126-2.402-.039-.863-.147-2.475-.325-4.837a319.531 319.531 0 0 1-.387-5.677c-.08-1.423-.14-2.933-.176-4.53a232.994 232.994 0 0 1-.062-4.875c-.004-1.653.004-3.273.023-4.86.018-1.588.055-3.164.11-4.73.054-1.567.115-3.075.182-4.525.067-1.45.132-2.807.196-4.07.064-1.262.147-2.387.248-3.373.153-1.482.444-2.895.872-4.24M341.777 268.015c-.094-.271-.177-.726-.25-1.365a45.689 45.689 0 0 1-.188-2.309c-.055-.9-.156-2.287-.305-4.16a212.7 212.7 0 0 1-.33-4.683c-.102-1.805-.015-5.054.262-9.745" style="fill:none;stroke:#a35c00;stroke-width:1.03937;stroke-linecap:round;stroke-linejoin:round;stroke-miterlimit:10;stroke-dasharray:none;stroke-opacity:1" transform="matrix(.72727 0 0 .72727 -242.089 -141.203)"/><path d="M388.498 217.792c.145-.093.218-.195.22-.307a.556.556 0 0 0-.068-.255.92.92 0 0 0-.257-.288 1.278 1.278 0 0 0-.512-.224 2.53 2.53 0 0 0-.807-.027 2.408 2.408 0 0 0-.968.328 3.21 3.21 0 0 0-.875.754c-.26.316-.479.692-.658 1.128-.18.436-.298.96-.356 1.571a6.8 6.8 0 0 0 .054 1.765 4.18 4.18 0 0 0 .54 1.504c.267.438.613.747 1.038.927.424.181.885.222 1.381.123.497-.098.989-.338 1.476-.72.721-.562 1.505-1.288 2.351-2.175" style="fill:none;stroke:#007aff;stroke-width:1.03937;stroke-linecap:round;stroke-linejoin:round;stroke-miterlimit:10;stroke-dasharray:none;stroke-opacity:1" transform="matrix(.72727 0 0 .72727 -242.089 -141.203)"/><path d="M395.49 243.724c-.108.02-.176.034-.203.04-.02.003.008-.033.08-.108.073-.076.22-.23.443-.46.321-.333.975-.783 1.96-1.349M391.169 238.068c-.223.129-.35.203-.385.222-.023.014-.03.014-.022 0l.08-.124c.043-.07.163-.206.359-.412.195-.205.461-.49.798-.855.337-.366.744-.763 1.222-1.194.7-.631 1.666-1.44 2.894-2.424M386.082 233.213c.138-.2.342-.44.614-.72.271-.281.616-.593 1.034-.936l1.487-1.216a46.816 46.816 0 0 1 1.872-1.45c.99-.728 2.384-1.631 4.184-2.709M377.007 227.824c.148-.197.354-.424.618-.679.382-.369 1.092-1.067 2.128-2.095M395.346 216.322c.026-.068.127-.182.303-.342.25-.229 1.064-.92 2.442-2.072M371.996 220.686c.128-.14.301-.3.52-.476a28.672 28.672 0 0 0 1.847-1.633c.446-.422.981-.889 1.607-1.399a158.79 158.79 0 0 0 2.045-1.698 29.324 29.324 0 0 1 2.44-1.838c.888-.603 1.85-1.229 2.884-1.877a36.212 36.212 0 0 1 3.094-1.741 108.528 108.528 0 0 1 4.272-2.024 26.75 26.75 0 0 1 1.493-.616c.354-.134 1.258-.435 2.71-.904M368.745 214.386c-.227.116-.315.09-.264-.08.036-.123.19-.31.46-.562.269-.252.593-.556.97-.912a89.09 89.09 0 0 0 1.395-1.348 19.419 19.419 0 0 1 1.933-1.648c.737-.556 1.534-1.14 2.393-1.754a27.493 27.493 0 0 1 2.73-1.714c.962-.529 1.978-1.084 3.05-1.664a39.406 39.406 0 0 1 3.275-1.584 70.493 70.493 0 0 1 3.014-1.216c.896-.335 1.534-.57 1.914-.703.542-.191 2.573-.605 6.092-1.242" style="fill:none;stroke:#03468f;stroke-width:1.03937;stroke-linecap:round;stroke-linejoin:round;stroke-miterlimit:10;stroke-dasharray:none;stroke-opacity:1" transform="matrix(.72727 0 0 .72727 -242.089 -141.203)"/></svg>