<svg xmlns="http://www.w3.org/2000/svg" width="143.289" height="60.104"><path d="M503.928 309.083c-.365-.035-.909-.005-1.63.089-.722.093-1.785.305-3.188.637a155.27 155.27 0 0 1-3.336.76c-.821.174-1.665.358-2.53.552-.866.193-2.209.533-4.029 1.02-1.82.485-3.197.886-4.128 1.203-.932.317-1.794.686-2.585 1.108-.792.421-1.564.895-2.318 1.422-.754.526-1.58 1.097-2.477 1.712-.897.616-1.789 1.24-2.676 1.876a32.661 32.661 0 0 0-2.443 1.924 97.912 97.912 0 0 0-2.234 2.011 118.58 118.58 0 0 0-2.266 2.16c-.765.748-1.518 1.495-2.258 2.239-.741.744-1.82 1.918-3.238 3.522-1.418 1.604-2.53 2.799-3.337 3.583l-2.391 2.323a31.66 31.66 0 0 0-2.187 2.344 39.689 39.689 0 0 0-1.944 2.518 39.483 39.483 0 0 1-2.062 2.647c-.75.884-1.513 1.764-2.29 2.64a78.41 78.41 0 0 0-4.166 5.098 63.654 63.654 0 0 1-1.93 2.445c-.661.797-1.884 2.013-3.668 3.649a2402.086 2402.086 0 0 1-3.963 3.625 23.136 23.136 0 0 1-2.635 2.085c-.9.607-1.812 1.198-2.738 1.77a93.17 93.17 0 0 1-2.73 1.628c-.892.511-1.817.985-2.772 1.42-.956.435-2.087.82-3.392 1.152a36.832 36.832 0 0 1-8.17 1.146c-1.452.042-2.686.05-3.7.024-1.014-.025-2.343-.116-3.986-.273-1.643-.156-3.108-.38-4.394-.67a44.846 44.846 0 0 1-3.938-1.088 58.854 58.854 0 0 1-4.124-1.517 45.084 45.084 0 0 1-4.017-1.87c-1.269-.672-2.551-1.352-3.847-2.042a28.834 28.834 0 0 1-3.448-2.132 26.954 26.954 0 0 1-2.769-2.31 103.733 103.733 0 0 1-2.506-2.489 83.41 83.41 0 0 1-2.44-2.615 34.303 34.303 0 0 1-2.198-2.721c-.668-.921-1.378-1.904-2.13-2.948a119.006 119.006 0 0 0-2.394-3.208 116.63 116.63 0 0 1-2.456-3.3 68.74 68.74 0 0 1-2.26-3.352 46.75 46.75 0 0 0-2.303-3.32 75.547 75.547 0 0 0-2.676-3.315 79.335 79.335 0 0 1-2.7-3.341 51.87 51.87 0 0 0-2.667-3.219 56.593 56.593 0 0 0-3.12-3.194 121.384 121.384 0 0 1-3.205-3.154 47.55 47.55 0 0 0-3.108-2.909 70.565 70.565 0 0 0-3.31-2.66l-3.198-2.418a47.897 47.897 0 0 0-6.317-4.012 68.015 68.015 0 0 0-3.086-1.533 48.408 48.408 0 0 0-3.093-1.31c-1.043-.4-1.977-.72-2.8-.962a15.39 15.39 0 0 0-2.17-.492c-.913-.127-2.075-.144-3.484-.051" style="fill:none;stroke:#007aff;stroke-width:6.63806;stroke-linecap:round;stroke-linejoin:round;stroke-miterlimit:10;stroke-dasharray:none;stroke-opacity:1" transform="matrix(.72727 0 0 .72727 -225.618 -217.898)"/><path d="M313.593 372.74c.372.035.923.005 1.656-.09.732-.095 1.81-.31 3.234-.647a159.94 159.94 0 0 1 3.387-.77c.833-.177 1.689-.364 2.567-.56.879-.197 2.242-.542 4.09-1.035 1.847-.493 3.244-.9 4.19-1.222a17.62 17.62 0 0 0 2.623-1.124 22.94 22.94 0 0 0 2.352-1.442 371.03 371.03 0 0 1 2.514-1.738 162.24 162.24 0 0 0 2.716-1.904c.9-.644 1.726-1.295 2.48-1.953a100.12 100.12 0 0 0 2.267-2.04c.757-.703 1.524-1.434 2.3-2.193.776-.759 1.54-1.516 2.293-2.271.751-.756 1.847-1.947 3.286-3.575 1.439-1.628 2.568-2.84 3.386-3.636l2.428-2.358c.799-.775 1.539-1.568 2.22-2.378.68-.81 1.337-1.662 1.972-2.556a39.942 39.942 0 0 1 2.093-2.686c.76-.897 1.536-1.79 2.325-2.68a79.54 79.54 0 0 0 4.228-5.173 64.995 64.995 0 0 1 1.959-2.482c.671-.809 1.912-2.043 3.723-3.702 1.811-1.66 3.152-2.886 4.022-3.68a23.509 23.509 0 0 1 2.675-2.115 82.307 82.307 0 0 1 2.779-1.797 94.147 94.147 0 0 1 2.77-1.651c.906-.52 1.844-1 2.814-1.441.97-.442 2.117-.831 3.442-1.169a38.948 38.948 0 0 1 4.034-.802 37.232 37.232 0 0 1 4.258-.36 71.32 71.32 0 0 1 3.756-.025c1.029.026 2.377.118 4.045.277 1.668.16 3.154.386 4.46.682 1.304.295 2.636.663 3.996 1.104 1.36.441 2.755.954 4.185 1.539 1.43.585 2.79 1.218 4.077 1.9 1.287.68 2.589 1.371 3.904 2.071a29.26 29.26 0 0 1 3.5 2.164 27.343 27.343 0 0 1 2.809 2.345c.856.821 1.704 1.663 2.544 2.526.84.863 1.666 1.748 2.476 2.654.81.907 1.554 1.828 2.231 2.763.678.934 1.398 1.932 2.16 2.992a121.43 121.43 0 0 0 2.43 3.255 118.72 118.72 0 0 1 2.493 3.349 70.042 70.042 0 0 1 2.293 3.403 47.625 47.625 0 0 0 2.337 3.368c.836 1.1 1.74 2.222 2.716 3.366a80.28 80.28 0 0 1 2.74 3.392 52.9 52.9 0 0 0 2.707 3.266 57.474 57.474 0 0 0 3.166 3.242 123.964 123.964 0 0 1 3.253 3.202 48.255 48.255 0 0 0 3.154 2.951 71.287 71.287 0 0 0 3.358 2.701l3.246 2.454a45.674 45.674 0 0 0 3.179 2.196 48.628 48.628 0 0 0 3.232 1.876 69.52 69.52 0 0 0 3.131 1.555c1.035.482 2.081.925 3.14 1.33 1.058.407 2.006.732 2.842.978.837.245 1.57.411 2.201.499" style="fill:none;stroke:#007aff;stroke-width:6.73701;stroke-linecap:round;stroke-linejoin:round;stroke-miterlimit:10;stroke-dasharray:none;stroke-opacity:1" transform="matrix(.72727 0 0 .72727 -225.618 -217.898)"/><path d="M316.353 332.669c.055.203.019.345-.107.427-.089.057-.183-.064-.285-.364a5.42 5.42 0 0 1-.227-1.025c-.05-.383-.083-.83-.097-1.337a35.48 35.48 0 0 1-.01-1.473c.007-.473.057-.931.149-1.373.091-.443.207-.88.346-1.31.14-.432.294-.848.464-1.25.17-.403.356-.772.557-1.106a5.65 5.65 0 0 1 .676-.91 3.2 3.2 0 0 1 .8-.645 3.06 3.06 0 0 1 .866-.328c.295-.06.59-.095.887-.1.296-.007.579.068.849.223.27.156.542.357.816.603.275.246.55.57.827.972.276.402.535.867.775 1.395.24.527.44 1.084.6 1.67.161.586.264 1.171.308 1.755.044.583.068 1.116.073 1.599.007.717-.207 1.28-.64 1.69" style="fill:none;stroke:#ff21b3;stroke-width:2.59842;stroke-linecap:round;stroke-linejoin:round;stroke-miterlimit:10;stroke-dasharray:none;stroke-opacity:1" transform="matrix(.72727 0 0 .72727 -225.618 -217.898)"/><path d="M315.982 328.471c.982.097 1.973.14 2.974.127.978-.013 2.23-.156 3.753-.43" style="fill:none;stroke:#ff21b3;stroke-width:2.59842;stroke-linecap:round;stroke-linejoin:round;stroke-miterlimit:10;stroke-dasharray:none;stroke-opacity:1" transform="matrix(.72727 0 0 .72727 -225.618 -217.898)"/><path d="m321.254 344.87.094 8.897M315.612 344.322c.614-.039 1.762-.324 3.445-.855 1.683-.531 2.857-.858 3.522-.98a17.106 17.106 0 0 1 1.802-.243c.79-.058 1.77-.079 2.937-.06" style="fill:none;stroke:#007aff;stroke-width:2.59842;stroke-linecap:round;stroke-linejoin:round;stroke-miterlimit:10;stroke-dasharray:none;stroke-opacity:1" transform="matrix(.72727 0 0 .72727 -225.618 -217.898)"/><path d="M410.296 319.518c-.675-.414-1.175-.625-1.5-.632a2.072 2.072 0 0 0-.772.156c-.29.11-.591.337-.906.68-.315.342-.603.834-.865 1.477-.26.642-.46 1.344-.596 2.108a13.826 13.826 0 0 0-.226 2.144c-.014.666.09 1.267.31 1.802.219.535.533.99.94 1.367.408.377.919.589 1.532.635.612.045 1.23-.15 1.853-.588.914-.643 1.753-1.664 2.515-3.065" style="fill:none;stroke:#7ec636;stroke-width:2.59842;stroke-linecap:round;stroke-linejoin:round;stroke-miterlimit:10;stroke-dasharray:none;stroke-opacity:1" transform="matrix(.72727 0 0 .72727 -225.618 -217.898)"/><path d="M411.665 344.187c.051-.526 0-1-.157-1.421a3.466 3.466 0 0 0-.307-.657 1.371 1.371 0 0 0-.355-.377c-.138-.098-.446-.144-.923-.138-.478.006-.887.12-1.227.344-.34.224-.688.522-1.043.894-.355.371-.689.783-1.001 1.235a11.96 11.96 0 0 0-.845 1.42 8.416 8.416 0 0 0-.608 1.606 8.961 8.961 0 0 0-.282 1.913c-.033.701-.014 1.4.057 2.096.07.696.242 1.309.516 1.838.273.53.602.964.987 1.303.385.34.818.595 1.299.767.48.172.975.271 1.482.298.508.027.977-.054 1.407-.245.43-.19.808-.458 1.135-.8.327-.343.562-.72.705-1.131.144-.411.227-.803.25-1.174.023-.37-.029-.695-.154-.973a2.137 2.137 0 0 0-.552-.734 3.348 3.348 0 0 0-.787-.514 6.127 6.127 0 0 0-.81-.315 4.526 4.526 0 0 0-.987-.158l-.633-.043h-.016.017c.023 0 .24.004.655.014.413.009.9 0 1.46-.026.823-.04 1.825-.212 3.006-.517M499.66 320.933c.062-.752.052-1.273-.03-1.564a1.523 1.523 0 0 0-.27-.539c-.126-.158-.314-.277-.565-.356a3.572 3.572 0 0 0-.885-.146c-.34-.017-.7.065-1.083.247s-.755.498-1.116.949c-.362.45-.694 1.043-.996 1.78a17.95 17.95 0 0 0-.79 2.428 25.438 25.438 0 0 0-.507 2.493 16.19 16.19 0 0 0-.19 1.949c-.012.52.06 1.128.218 1.824.157.695.38 1.266.672 1.713.29.447.63.784 1.02 1.013.388.228.818.35 1.288.364.47.015.923-.148 1.358-.487.435-.34.802-.739 1.101-1.195.3-.457.538-.897.715-1.32.177-.422.285-.779.322-1.07a1.808 1.808 0 0 0-.036-.743c-.062-.205-.206-.387-.433-.545a2.308 2.308 0 0 0-.762-.345c-.28-.071-.668-.12-1.163-.148l-.572-.043.051-.005 1.108-.03c.59-.016 1.145-.043 1.662-.08.753-.054 1.786-.468 3.1-1.242" style="fill:none;stroke:#ffd300;stroke-width:2.59842;stroke-linecap:round;stroke-linejoin:round;stroke-miterlimit:10;stroke-dasharray:none;stroke-opacity:1" transform="matrix(.72727 0 0 .72727 -225.618 -217.898)"/><path d="M499.13 347.1c.039-.156-.085-.284-.37-.383a3.055 3.055 0 0 0-.868-.171c-.294-.014-.663.02-1.106.101-.443.082-.9.288-1.369.618s-.934.838-1.395 1.524c-.46.687-.83 1.516-1.105 2.486-.276.971-.427 1.882-.455 2.734-.028.85.164 1.526.575 2.026.412.5 1.033.848 1.866 1.046.832.198 1.717.307 2.657.327 1.373.029 2.982-.48 4.827-1.528" style="fill:none;stroke:#7ec636;stroke-width:2.59842;stroke-linecap:round;stroke-linejoin:round;stroke-miterlimit:10;stroke-dasharray:none;stroke-opacity:1" transform="matrix(.72727 0 0 .72727 -225.618 -217.898)"/></svg>