<svg xmlns="http://www.w3.org/2000/svg" width="250.305" height="38.004"><path d="M115.815 449.806c.558.46 1.516.974 2.874 1.54 1.359.567 2.398 1.014 3.12 1.34.72.327 2.643 1.155 5.767 2.486 3.123 1.33 5.81 2.48 8.063 3.446a313.04 313.04 0 0 0 5.523 2.322c1.431.581 2.496 1.022 3.194 1.322.698.301 2.187.91 4.467 1.828s3.798 1.543 4.553 1.876c.755.333 1.823.846 3.205 1.54 2.025 1.017 4.805 2.272 8.34 3.766M117.852 496.306a22.816 22.816 0 0 0 2.623-1.541 39.025 39.025 0 0 1 2.538-1.591c.845-.485 1.78-.996 2.805-1.534 1.026-.538 2.53-1.277 4.514-2.217 1.983-.94 3.894-1.914 5.73-2.921a321.023 321.023 0 0 1 4.324-2.337 124.42 124.42 0 0 1 2.872-1.472c.87-.43 1.634-.825 2.294-1.186.66-.362 1.598-.815 2.816-1.36 1.217-.544 3.119-1.352 5.703-2.424a439.061 439.061 0 0 0 5.043-2.114c.777-.337 1.864-.733 3.262-1.186 1.398-.454 2.397-.813 2.996-1.077M114.9 451.717c-.09-.344.006-.394.288-.148.21.182.487.61.83 1.284a26.39 26.39 0 0 1 1.017 2.288c.335.851.58 1.505.734 1.962.154.456.318 1.106.494 1.948.176.842.396 2.294.66 4.356.262 2.062.43 3.539.503 4.43.072.893.193 2.116.364 3.67.171 1.554.282 2.907.334 4.059.051 1.152.054 2.144.01 2.975-.044.832-.055 1.465-.033 1.897a11.7 11.7 0 0 1-.011 1.35c-.03.467-.172 1.469-.424 3.006-.253 1.537-.484 2.756-.693 3.656-.303 1.304-.698 3.62-1.185 6.95" style="fill:none;stroke:#d20000;stroke-width:3.025;stroke-linecap:round;stroke-linejoin:round;stroke-miterlimit:10;stroke-dasharray:none;stroke-opacity:1" transform="matrix(.72727 0 0 .72727 -82.44 -324.046)"/><path d="M245.106 491.05c.874-.139 2.97-.773 6.288-1.904 3.318-1.13 5.926-2.025 7.823-2.684 1.898-.659 3.807-1.35 5.727-2.072a134.76 134.76 0 0 1 5.784-2.026 467.39 467.39 0 0 1 5.503-1.754c1.733-.54 3.477-1.09 5.232-1.653 2.595-.83 5.466-2.078 8.613-3.742M291.108 472.222c-.634-.187-1.442-.508-2.425-.964-.982-.456-2.048-.938-3.198-1.448a377.13 377.13 0 0 1-4.022-1.816c-1.532-.7-3.217-1.532-5.056-2.495a523.012 523.012 0 0 0-5.579-2.877 203.083 203.083 0 0 0-5.586-2.734 116.83 116.83 0 0 0-5.227-2.313c-1.64-.675-3.17-1.28-4.59-1.817a370.898 370.898 0 0 0-4.195-1.558c-2.047-.746-4.205-1.688-6.473-2.826M243.526 487.463c.16-.744.382-1.523.662-2.336.186-.538.385-1.15.596-1.836.21-.685.507-1.786.887-3.303.38-1.516.638-3.15.773-4.9.135-1.75.146-3.511.035-5.285a71.349 71.349 0 0 0-.537-5.327c-.362-2.61-.688-6.005-.978-10.186" style="fill:none;stroke:#7ec636;stroke-width:2.94399;stroke-linecap:round;stroke-linejoin:round;stroke-miterlimit:10;stroke-dasharray:none;stroke-opacity:1" transform="matrix(.72727 0 0 .72727 -82.44 -324.046)"/><path d="M188.556 470.366c-.199.163-.252.282-.158.359.067.055.47.088 1.208.1.739.01 1.43.007 2.072-.011.642-.019 1.26-.047 1.851-.084a281.158 281.158 0 0 1 6.17-.293c1.132-.04 2.281-.067 3.45-.08 1.696-.017 4.46-.039 8.29-.065" style="fill:none;stroke:#fcfcfc;stroke-width:3.14115;stroke-linecap:round;stroke-linejoin:round;stroke-miterlimit:10;stroke-dasharray:none;stroke-opacity:1" transform="matrix(.72727 0 0 .72727 -82.44 -324.046)"/><path d="M200.708 460.606c.011.49.059 1.06.141 1.711.083.65.16 1.55.233 2.697.072 1.148.122 2.481.15 4 .039 2.201.125 5.941.258 11.22" style="fill:none;stroke:#fcfcfc;stroke-width:3.14115;stroke-linecap:round;stroke-linejoin:round;stroke-miterlimit:10;stroke-dasharray:none;stroke-opacity:1" transform="matrix(.72727 0 0 .72727 -82.44 -324.046)"/><path d="M307.312 451.622c11.97-.097 19.643-.035 23.017.184 3.444.224 7.92.591 13.427 1.103M340.459 443.894c.236-.072.845.052 1.826.371.59.192 1.447.509 2.57.95 1.125.443 2.34 1.011 3.646 1.707 1.913 1.02 4.276 2.636 7.089 4.85M355.854 454.078a64.74 64.74 0 0 1-3.107 2c-.627.375-1.555.86-2.785 1.457-1.789.867-4.626 2.152-8.51 3.856" style="fill:none;stroke:#fcfcfc;stroke-width:1.8189;stroke-linecap:round;stroke-linejoin:round;stroke-miterlimit:10;stroke-dasharray:none;stroke-opacity:1" transform="matrix(.72727 0 0 .72727 -73.872 -309.673)"/><path d="M114.9 451.717c-.09-.344.006-.394.288-.148.21.182.487.61.83 1.284a26.39 26.39 0 0 1 1.017 2.288c.335.851.58 1.505.734 1.962.154.456.318 1.106.494 1.948.176.842.396 2.294.66 4.356.262 2.062.43 3.539.503 4.43.072.893.193 2.116.364 3.67.171 1.554.282 2.907.334 4.059.051 1.152.054 2.144.01 2.975-.044.832-.055 1.465-.033 1.897a11.7 11.7 0 0 1-.011 1.35c-.03.467-.172 1.469-.424 3.006-.253 1.537-.484 2.756-.693 3.656-.303 1.304-.698 3.62-1.185 6.95" style="fill:none;stroke:#d20000;stroke-width:3.025;stroke-linecap:round;stroke-linejoin:round;stroke-miterlimit:10;stroke-dasharray:none;stroke-opacity:1" transform="matrix(.72727 0 0 .72727 125.875 -327.188)"/><path d="M393.43 471.385c.963-.153 3.273-.852 6.929-2.099 3.656-1.246 6.53-2.232 8.62-2.959 2.091-.726 4.195-1.488 6.311-2.284 2.117-.796 4.241-1.541 6.373-2.234a514.02 514.02 0 0 1 6.064-1.934c1.91-.595 3.833-1.202 5.766-1.822 2.86-.915 6.023-2.29 9.49-4.125" style="fill:none;stroke:#ffd300;stroke-width:3.24427;stroke-linecap:round;stroke-linejoin:round;stroke-miterlimit:10;stroke-dasharray:none;stroke-opacity:1" transform="matrix(.72727 0 0 .72727 -73.872 -309.673)"/><path d="M444.121 450.63c-.699-.206-1.59-.56-2.672-1.062a225.854 225.854 0 0 0-3.525-1.596 411.578 411.578 0 0 1-4.433-2 117.854 117.854 0 0 1-5.572-2.748 576.746 576.746 0 0 0-6.148-3.17 223.684 223.684 0 0 0-6.157-3.012 128.848 128.848 0 0 0-5.76-2.548 188.726 188.726 0 0 0-5.059-2.003 411.023 411.023 0 0 0-4.622-1.715c-2.257-.822-4.635-1.86-7.135-3.114" style="fill:none;stroke:#7ec636;stroke-width:3.24427;stroke-linecap:round;stroke-linejoin:round;stroke-miterlimit:10;stroke-dasharray:none;stroke-opacity:1" transform="matrix(.72727 0 0 .72727 -73.872 -309.673)"/><path d="M197.341 348.738v-.16 1.115c0 .675-.015 1.723-.046 3.145-.03 1.421-.05 2.477-.056 3.168a8.463 8.463 0 0 0 .474 2.926M200.231 358.376c.05.791.001 1.635-.147 2.532M205.258 351.3c-.028-.161-.146-.36-.353-.597-.134-.152-.25-.252-.35-.299a.833.833 0 0 0-.323-.077c-.115-.005-.238.044-.369.144-.13.1-.275.268-.433.503-.158.236-.302.53-.433.885a5.675 5.675 0 0 0-.287 1.175c-.06.428-.087.894-.078 1.398.01.503.087.998.236 1.485.149.486.353.91.613 1.27s.554.618.881.774c.328.157.68.19 1.059.1.378-.09.744-.363 1.098-.817a5.63 5.63 0 0 0 .85-1.57 6.726 6.726 0 0 0 .388-1.633c.046-.495.016-.938-.09-1.328-.106-.39-.25-.71-.434-.96a2.697 2.697 0 0 0-.991-.845M209.28 358.104l-.37 1.759M214.01 352.958a.41.41 0 0 1-.24-.212 1.647 1.647 0 0 1-.151-.48 4.65 4.65 0 0 1-.065-.776c-.004-.31 0-.56.014-.753a1.94 1.94 0 0 1 .337-.97.827.827 0 0 1 .26-.236.404.404 0 0 1 .278-.045c.094.018.192.108.293.268.101.16.202.368.302.624.1.256.185.54.252.854.068.313.113.644.134.992a5.3 5.3 0 0 1-.036 1.034 4.608 4.608 0 0 1-.276 1.053c-.139.36-.302.711-.488 1.054-.187.342-.38.646-.58.91-.201.265-.391.463-.57.596-.18.132-.329.21-.447.232-.118.022-.195-.013-.23-.106a1.289 1.289 0 0 1-.053-.435c.001-.197.05-.387.146-.57.096-.183.206-.312.331-.387.125-.075.241-.085.35-.03.108.053.214.206.316.456.102.25.211.498.326.743.116.245.251.445.407.599.156.154.326.253.508.297.183.044.375.06.576.045.201-.014.391-.08.57-.196.255-.167.77-.795 1.545-1.884M322.868 347.874l-.027-.177v.094l-.002 1.583a101.563 101.563 0 0 1-.062 4.071c-.03.847.001 2.037.092 3.567M325.043 356.76l-.177 1.632M331.38 352.191c-.08.078-.162.073-.245-.014-.059-.062-.105-.175-.14-.34-.034-.164-.053-.468-.057-.912-.004-.443.03-.749.103-.918.072-.169.143-.307.213-.415a1.49 1.49 0 0 1 .28-.316.727.727 0 0 1 .345-.183c.112-.02.22.003.32.068.102.065.187.216.255.453.067.237.112.563.133.98.022.417.022.859 0 1.328a6.665 6.665 0 0 1-.23 1.434 12.53 12.53 0 0 1-.513 1.497c-.21.509-.415.964-.618 1.365-.203.4-.406.717-.61.95-.202.232-.39.383-.565.454a.788.788 0 0 1-.487.052c-.15-.037-.281-.138-.392-.304a1.886 1.886 0 0 1-.25-.547 2.357 2.357 0 0 1-.09-.552c-.005-.169.013-.293.057-.372.043-.08.137-.104.28-.073.143.03.313.144.509.338.196.194.423.392.682.594a4.3 4.3 0 0 0 .846.513c.305.14.597.242.877.304s.535.096.764.103c.334.009.666-.146.997-.464M335.457 357.415l.143 1.807M341.818 351.873c.164-.186.254-.371.27-.556.01-.126.008-.231-.007-.316a.596.596 0 0 0-.108-.247 1.063 1.063 0 0 0-.226-.225.982.982 0 0 0-.333-.159 1.403 1.403 0 0 0-.428-.045c-.156.006-.319.071-.488.197-.17.125-.33.297-.48.516a3.63 3.63 0 0 0-.401.792 7.69 7.69 0 0 0-.293.985c-.079.348-.132.747-.16 1.2-.026.452-.022.94.014 1.465.035.524.13 1 .282 1.427.153.427.337.762.553 1.005.217.243.472.401.767.474.295.072.615.07.96-.01.346-.08.683-.271 1.01-.576.327-.306.615-.699.864-1.18.25-.48.432-.985.548-1.512a8.9 8.9 0 0 0 .205-1.446 5.354 5.354 0 0 0-.08-1.252 2.59 2.59 0 0 0-.432-1.046c-.214-.3-.454-.512-.72-.637a1.984 1.984 0 0 0-.79-.201c-.376-.012-.777.254-1.203.798M483.716 345.94c-.058.218-.094.547-.107.985-.014.44-.02 1.151-.02 2.137 0 1.452-.093 3.238-.276 5.358M486.388 355.42a21.937 21.937 0 0 1-.183 3.231M492.82 346.452c.024 3.298-.004 5.72-.087 7.266M495.252 353.923c.114.28.173.586.176.916.003.315-.11 1.183-.343 2.604M501.442 349.847c-.164-.01-.274-.138-.33-.384a2.868 2.868 0 0 1-.057-.974 2.22 2.22 0 0 1 .14-.546c.073-.194.164-.385.272-.572.108-.187.225-.329.351-.425.126-.096.248-.136.365-.12.118.014.228.109.332.283.103.174.2.383.292.625.091.243.17.5.237.774.067.273.109.606.126.997.017.392-.013.847-.088 1.366a7.894 7.894 0 0 1-1.094 2.945c-.264.42-.534.796-.809 1.126-.275.33-.541.578-.799.745-.258.167-.498.266-.72.297-.222.03-.41-.01-.562-.122-.152-.112-.262-.286-.33-.523a3.072 3.072 0 0 1-.12-.706 2.9 2.9 0 0 1 .01-.53c.019-.12.065-.185.139-.197.074-.012.252.223.533.706.282.482.547.872.794 1.17.247.298.53.565.847.802.317.236.662.397 1.034.483.373.085.75.096 1.132.033a2.53 2.53 0 0 0 1.062-.443 4.19 4.19 0 0 0 .804-.726c.31-.373.518-.846.625-1.417" style="fill:none;stroke:#fcfcfc;stroke-width:1.03937;stroke-linecap:round;stroke-linejoin:round;stroke-miterlimit:10;stroke-dasharray:none;stroke-opacity:1" transform="matrix(.72727 0 0 .72727 -133.771 -237.519)"/></svg>