<svg xmlns="http://www.w3.org/2000/svg" width="250.305" height="38.004"><path d="M115.815 449.806c.558.46 1.516.974 2.874 1.54 1.359.567 2.398 1.014 3.12 1.34.72.327 2.643 1.155 5.767 2.486 3.123 1.33 5.81 2.48 8.063 3.446a313.04 313.04 0 0 0 5.523 2.322c1.431.581 2.496 1.022 3.194 1.322.698.301 2.187.91 4.467 1.828s3.798 1.543 4.553 1.876c.755.333 1.823.846 3.205 1.54 2.025 1.017 4.805 2.272 8.34 3.766M117.852 496.306a22.816 22.816 0 0 0 2.623-1.541 39.025 39.025 0 0 1 2.538-1.591c.845-.485 1.78-.996 2.805-1.534 1.026-.538 2.53-1.277 4.514-2.217 1.983-.94 3.894-1.914 5.73-2.921a321.023 321.023 0 0 1 4.324-2.337 124.42 124.42 0 0 1 2.872-1.472c.87-.43 1.634-.825 2.294-1.186.66-.362 1.598-.815 2.816-1.36 1.217-.544 3.119-1.352 5.703-2.424a439.061 439.061 0 0 0 5.043-2.114c.777-.337 1.864-.733 3.262-1.186 1.398-.454 2.397-.813 2.996-1.077M114.9 451.717c-.09-.344.006-.394.288-.148.21.182.487.61.83 1.284a26.39 26.39 0 0 1 1.017 2.288c.335.851.58 1.505.734 1.962.154.456.318 1.106.494 1.948.176.842.396 2.294.66 4.356.262 2.062.43 3.539.503 4.43.072.893.193 2.116.364 3.67.171 1.554.282 2.907.334 4.059.051 1.152.054 2.144.01 2.975-.044.832-.055 1.465-.033 1.897a11.7 11.7 0 0 1-.011 1.35c-.03.467-.172 1.469-.424 3.006-.253 1.537-.484 2.756-.693 3.656-.303 1.304-.698 3.62-1.185 6.95" style="fill:none;stroke:#d20000;stroke-width:3.025;stroke-linecap:round;stroke-linejoin:round;stroke-miterlimit:10;stroke-dasharray:none;stroke-opacity:1" transform="matrix(.72727 0 0 .72727 -82.44 -324.046)"/><path d="M245.106 491.05c.874-.139 2.97-.773 6.288-1.904 3.318-1.13 5.926-2.025 7.823-2.684 1.898-.659 3.807-1.35 5.727-2.072a134.76 134.76 0 0 1 5.784-2.026 467.39 467.39 0 0 1 5.503-1.754c1.733-.54 3.477-1.09 5.232-1.653 2.595-.83 5.466-2.078 8.613-3.742M291.108 472.222c-.634-.187-1.442-.508-2.425-.964-.982-.456-2.048-.938-3.198-1.448a377.13 377.13 0 0 1-4.022-1.816c-1.532-.7-3.217-1.532-5.056-2.495a523.012 523.012 0 0 0-5.579-2.877 203.083 203.083 0 0 0-5.586-2.734 116.83 116.83 0 0 0-5.227-2.313c-1.64-.675-3.17-1.28-4.59-1.817a370.898 370.898 0 0 0-4.195-1.558c-2.047-.746-4.205-1.688-6.473-2.826M243.526 487.463c.16-.744.382-1.523.662-2.336.186-.538.385-1.15.596-1.836.21-.685.507-1.786.887-3.303.38-1.516.638-3.15.773-4.9.135-1.75.146-3.511.035-5.285a71.349 71.349 0 0 0-.537-5.327c-.362-2.61-.688-6.005-.978-10.186" style="fill:none;stroke:#7ec636;stroke-width:2.94399;stroke-linecap:round;stroke-linejoin:round;stroke-miterlimit:10;stroke-dasharray:none;stroke-opacity:1" transform="matrix(.72727 0 0 .72727 -82.44 -324.046)"/><path d="M188.556 470.366c-.199.163-.252.282-.158.359.067.055.47.088 1.208.1.739.01 1.43.007 2.072-.011.642-.019 1.26-.047 1.851-.084a281.158 281.158 0 0 1 6.17-.293c1.132-.04 2.281-.067 3.45-.08 1.696-.017 4.46-.039 8.29-.065" style="fill:none;stroke:#fcfcfc;stroke-width:3.14115;stroke-linecap:round;stroke-linejoin:round;stroke-miterlimit:10;stroke-dasharray:none;stroke-opacity:1" transform="matrix(.72727 0 0 .72727 -82.44 -324.046)"/><path d="M200.708 460.606c.011.49.059 1.06.141 1.711.083.65.16 1.55.233 2.697.072 1.148.122 2.481.15 4 .039 2.201.125 5.941.258 11.22" style="fill:none;stroke:#fcfcfc;stroke-width:3.14115;stroke-linecap:round;stroke-linejoin:round;stroke-miterlimit:10;stroke-dasharray:none;stroke-opacity:1" transform="matrix(.72727 0 0 .72727 -82.44 -324.046)"/><path d="M307.312 451.622c11.97-.097 19.643-.035 23.017.184 3.444.224 7.92.591 13.427 1.103M340.459 443.894c.236-.072.845.052 1.826.371.59.192 1.447.509 2.57.95 1.125.443 2.34 1.011 3.646 1.707 1.913 1.02 4.276 2.636 7.089 4.85M355.854 454.078a64.74 64.74 0 0 1-3.107 2c-.627.375-1.555.86-2.785 1.457-1.789.867-4.626 2.152-8.51 3.856" style="fill:none;stroke:#fcfcfc;stroke-width:1.8189;stroke-linecap:round;stroke-linejoin:round;stroke-miterlimit:10;stroke-dasharray:none;stroke-opacity:1" transform="matrix(.72727 0 0 .72727 -73.872 -309.673)"/><path d="M114.9 451.717c-.09-.344.006-.394.288-.148.21.182.487.61.83 1.284a26.39 26.39 0 0 1 1.017 2.288c.335.851.58 1.505.734 1.962.154.456.318 1.106.494 1.948.176.842.396 2.294.66 4.356.262 2.062.43 3.539.503 4.43.072.893.193 2.116.364 3.67.171 1.554.282 2.907.334 4.059.051 1.152.054 2.144.01 2.975-.044.832-.055 1.465-.033 1.897a11.7 11.7 0 0 1-.011 1.35c-.03.467-.172 1.469-.424 3.006-.253 1.537-.484 2.756-.693 3.656-.303 1.304-.698 3.62-1.185 6.95" style="fill:none;stroke:#d20000;stroke-width:3.025;stroke-linecap:round;stroke-linejoin:round;stroke-miterlimit:10;stroke-dasharray:none;stroke-opacity:1" transform="matrix(.72727 0 0 .72727 125.875 -327.188)"/><path d="M393.43 471.385c.963-.153 3.273-.852 6.929-2.099 3.656-1.246 6.53-2.232 8.62-2.959 2.091-.726 4.195-1.488 6.311-2.284 2.117-.796 4.241-1.541 6.373-2.234a514.02 514.02 0 0 1 6.064-1.934c1.91-.595 3.833-1.202 5.766-1.822 2.86-.915 6.023-2.29 9.49-4.125" style="fill:none;stroke:#ffd300;stroke-width:3.24427;stroke-linecap:round;stroke-linejoin:round;stroke-miterlimit:10;stroke-dasharray:none;stroke-opacity:1" transform="matrix(.72727 0 0 .72727 -73.872 -309.673)"/><path d="M444.121 450.63c-.699-.206-1.59-.56-2.672-1.062a225.854 225.854 0 0 0-3.525-1.596 411.578 411.578 0 0 1-4.433-2 117.854 117.854 0 0 1-5.572-2.748 576.746 576.746 0 0 0-6.148-3.17 223.684 223.684 0 0 0-6.157-3.012 128.848 128.848 0 0 0-5.76-2.548 188.726 188.726 0 0 0-5.059-2.003 411.023 411.023 0 0 0-4.622-1.715c-2.257-.822-4.635-1.86-7.135-3.114" style="fill:none;stroke:#7ec636;stroke-width:3.24427;stroke-linecap:round;stroke-linejoin:round;stroke-miterlimit:10;stroke-dasharray:none;stroke-opacity:1" transform="matrix(.72727 0 0 .72727 -73.872 -309.673)"/></svg>