<svg xmlns="http://www.w3.org/2000/svg" width="95.83" height="84.963"><path d="M372.195 205.659c-2.007.86-4.1 1.85-6.28 2.97a78.068 78.068 0 0 0-6.561 3.796c-2.194 1.411-4.425 3.125-6.69 5.14a81.18 81.18 0 0 0-6.221 6.136 50.241 50.241 0 0 0-5.158 6.788 53.161 53.161 0 0 0-4.07 7.747 46.085 46.085 0 0 0-2.627 8.155 47.879 47.879 0 0 0-1.076 8.213c-.119 2.756.035 5.599.462 8.53a42.07 42.07 0 0 0 2.08 8.355c.96 2.638 2.168 5.291 3.624 7.96a76.111 76.111 0 0 0 4.95 7.867 60.746 60.746 0 0 0 6.063 7.22 73.71 73.71 0 0 0 7.055 6.307 50.298 50.298 0 0 0 8.052 5.166c2.86 1.474 5.774 2.538 8.74 3.19 2.966.654 6.08 1.047 9.341 1.182 3.261.134 6.654.012 10.177-.366a55.687 55.687 0 0 0 10.537-2.193c3.5-1.084 5.823-1.87 6.966-2.358a59.744 59.744 0 0 0 3.113-1.426c.932-.463 2.208-1.143 3.828-2.04 1.62-.898 4.007-2.322 7.16-4.274 3.154-1.951 6.256-4.214 9.305-6.79a112.501 112.501 0 0 0 8.618-8.076 100.5 100.5 0 0 0 7.449-8.687 69.165 69.165 0 0 0 5.918-9.147 67.42 67.42 0 0 0 4.23-9.555 49.795 49.795 0 0 0 2.393-9.87c.45-3.327.622-6.455.516-9.385a32.192 32.192 0 0 0-1.468-8.543 43.064 43.064 0 0 0-3.456-8.012c-1.433-2.575-3.14-4.853-5.121-6.835a71.522 71.522 0 0 0-6.478-5.718 51.196 51.196 0 0 0-7.563-4.902 66.673 66.673 0 0 0-8.363-3.734c-2.87-1.052-5.965-1.917-9.287-2.597-3.322-.68-6.833-1.071-10.533-1.173-3.7-.103-7.465.1-11.295.607-3.83.508-7.684 1.223-11.562 2.147-3.878.924-7.758 2.231-11.641 3.921a69.283 69.283 0 0 0-11.235 6.204c-3.608 2.445-7.104 5.284-10.488 8.518a86.883 86.883 0 0 0-9.468 10.698c-4.32 5.755-8.566 13.087-12.74 21.996" style="fill:none;stroke:#000;stroke-width:1.03937;stroke-linecap:round;stroke-linejoin:round;stroke-miterlimit:10;stroke-dasharray:none;stroke-opacity:1" transform="matrix(.72727 0 0 .72727 -242.089 -141.185)"/><path d="M372.63 266.481c-.324-.022-.542-.157-.654-.403a1.464 1.464 0 0 1-.12-.589c-.003-.223.033-.396.109-.52s.168-.237.277-.338a.688.688 0 0 1 .338-.186.399.399 0 0 1 .336.095c.107.086.19.221.252.406.06.186.101.382.12.59.02.207.021.384.003.53-.017.146-.099.293-.246.44a.812.812 0 0 1-.487.25 1.02 1.02 0 0 1-.566-.116 1.45 1.45 0 0 1-.52-.435 1.435 1.435 0 0 1-.278-.592 2.71 2.71 0 0 1-.056-.551.566.566 0 0 1 .154-.403c.1-.105.22-.178.355-.22.136-.04.289-.064.458-.068.17-.005.326.015.47.058.145.043.274.12.39.233.115.112.2.236.256.373.056.137.09.284.102.443a.883.883 0 0 1-.077.44.71.71 0 0 1-.281.318.913.913 0 0 1-.357.135c-.113.014-.2-.019-.262-.1-.062-.08-.096-.207-.102-.378a1.082 1.082 0 0 1 .065-.443c.05-.124.105-.205.167-.243.061-.038.115.035.162.217.047.183.07.315.072.398 0 .083 0 .131.002.145" style="fill:none;stroke:#000;stroke-width:1.03937;stroke-linecap:round;stroke-linejoin:round;stroke-miterlimit:10;stroke-dasharray:none;stroke-opacity:1" transform="matrix(.72727 0 0 .72727 -222.88 -152.144)"/><path d="m371.848 264.376.014.252c0 .004-.001 0-.004-.013l-.083-.376a21.802 21.802 0 0 0-.281-1.074c-.135-.48-.309-1.073-.52-1.78-.213-.706-.424-1.4-.634-2.08-.21-.68-.36-1.178-.45-1.495-.09-.318-.293-.992-.612-2.024a64.296 64.296 0 0 1-.947-3.439 72.625 72.625 0 0 1-.877-4.051c-.27-1.441-.542-2.923-.814-4.446-.271-1.523-.552-3.086-.842-4.691a586.57 586.57 0 0 0-.921-4.972 765.95 765.95 0 0 0-.985-5.098c-.332-1.689-.65-3.385-.956-5.09-.304-1.703-.599-3.379-.883-5.025a304.104 304.104 0 0 1-.788-4.771M373.17 264.334a5.592 5.592 0 0 0-.285.779 2.853 2.853 0 0 0-.088.433l-.011.14c0 .006 0 .002.003-.01l.062-.295c.038-.185.097-.58.175-1.185.078-.605.148-1.254.211-1.947.064-.692.16-1.758.288-3.197.129-1.438.24-2.723.334-3.854.093-1.13.16-1.978.201-2.543.041-.566.144-1.677.31-3.333.166-1.657.361-3.45.585-5.377.224-1.927.481-3.914.77-5.96.29-2.047.592-4.123.907-6.228.314-2.106.612-4.031.893-5.776.282-1.746.563-3.538.844-5.377.281-1.84.567-3.663.858-5.47.291-1.807.599-3.613.923-5.417" style="fill:none;stroke:#000;stroke-width:1.03937;stroke-linecap:round;stroke-linejoin:round;stroke-miterlimit:10;stroke-dasharray:none;stroke-opacity:1" transform="matrix(.72727 0 0 .72727 -222.88 -152.144)"/><path d="M372.15 321.127c.47-.232.93-.5 1.381-.802.451-.303.928-.646 1.431-1.029a52.864 52.864 0 0 1 1.618-1.181 27.738 27.738 0 0 1 1.924-1.23 97.316 97.316 0 0 1 2.233-1.267c.78-.43 1.598-.858 2.453-1.284a86.598 86.598 0 0 1 2.793-1.325c1.007-.457 2.022-.937 3.046-1.437 1.023-.501 2.033-.982 3.03-1.444a72.295 72.295 0 0 1 2.853-1.25c1.33-.547 3.002-1.262 5.016-2.144" style="fill:none;stroke:#7ec636;stroke-width:1.2854;stroke-linecap:round;stroke-linejoin:round;stroke-miterlimit:10;stroke-dasharray:none;stroke-opacity:1" transform="matrix(.72727 0 0 .72727 -222.88 -152.144)"/><path d="M349.551 319.471c.326-.097.821-.326 1.488-.687.42-.227 1.173-.62 2.262-1.18a114.286 114.286 0 0 0 2.638-1.39c.67-.367 1.392-.785 2.164-1.255.771-.469 1.642-.993 2.61-1.573.97-.58 2-1.17 3.092-1.767a88.725 88.725 0 0 1 3.397-1.763 89.768 89.768 0 0 0 3.61-1.884 146.123 146.123 0 0 0 3.774-2.153 82.632 82.632 0 0 1 3.807-2.115 98.249 98.249 0 0 1 3.81-1.88 97.127 97.127 0 0 0 3.946-1.957 354.669 354.669 0 0 0 4.01-2.131 107.257 107.257 0 0 1 3.974-2.042 4640.35 4640.35 0 0 0 3.82-1.862c1.224-.598 2.44-1.216 3.648-1.854a320.683 320.683 0 0 1 3.603-1.873 80.028 80.028 0 0 1 3.485-1.683c1.129-.51 2.224-.962 3.286-1.354a183.967 183.967 0 0 1 5.794-2.008" style="fill:none;stroke:#7ec636;stroke-width:1.09463;stroke-linecap:round;stroke-linejoin:round;stroke-miterlimit:10;stroke-dasharray:none;stroke-opacity:1" transform="matrix(.72727 0 0 .72727 -222.88 -152.144)"/><path d="M328.426 303.695c-.459.178-.84.338-1.146.48a3.319 3.319 0 0 0-.38.195l-.087.063c-.013.01-.003.012.028.008l.217-.025c.113-.013.366-.117.758-.312.392-.196.86-.462 1.405-.799a82.312 82.312 0 0 0 2.052-1.322c.823-.545 1.706-1.128 2.648-1.747.943-.62 2-1.243 3.17-1.87a89.005 89.005 0 0 0 3.707-2.106 111.19 111.19 0 0 1 3.913-2.235 159.022 159.022 0 0 1 3.982-2.096 81.618 81.618 0 0 0 4.094-2.236 116.739 116.739 0 0 1 4.128-2.297c1.369-.726 2.845-1.537 4.429-2.432a121.239 121.239 0 0 1 4.921-2.631c1.698-.86 3.432-1.7 5.204-2.524 1.773-.823 3.557-1.66 5.355-2.51 1.797-.851 3.6-1.66 5.409-2.43a117.37 117.37 0 0 0 5.3-2.405 114.85 114.85 0 0 1 5.138-2.338c1.7-.723 3.33-1.425 4.887-2.105a212.34 212.34 0 0 0 4.419-1.986 134.43 134.43 0 0 1 3.958-1.765 143.823 143.823 0 0 0 3.55-1.565c1.115-.51 2.23-1.043 3.348-1.6a143.676 143.676 0 0 1 3.29-1.587 49.024 49.024 0 0 1 3.201-1.362c1.059-.406 2.04-.78 2.942-1.12.903-.343 1.773-.668 2.61-.976 1.224-.451 3.006-1.034 5.348-1.748M320.698 294.742l-.344-.062c-.02-.003-.007-.011.036-.023l.426-.113c.241-.064.553-.186.936-.367.383-.18 1.034-.553 1.951-1.117a93.086 93.086 0 0 0 2.405-1.524 52.733 52.733 0 0 0 2.237-1.568 46.918 46.918 0 0 1 2.645-1.802 67.804 67.804 0 0 1 3.025-1.81c1.06-.6 2.14-1.224 3.24-1.876 1.1-.652 2.187-1.32 3.26-2.003a103.9 103.9 0 0 1 3.295-2.014c1.125-.66 2.246-1.334 3.364-2.025a72.883 72.883 0 0 1 3.297-1.92 45.463 45.463 0 0 1 3.282-1.63c1.109-.494 2.138-.97 3.089-1.429.95-.458 1.815-.887 2.593-1.288.778-.402 1.482-.77 2.113-1.107.925-.493 2.217-1.062 3.876-1.707M383.332 259.596a3.412 3.412 0 0 0-.559.398c-.117.102-.152.149-.106.14l.343-.072c.183-.038.47-.187.86-.447.39-.259.858-.598 1.403-1.016a55.13 55.13 0 0 1 1.954-1.424c.759-.531 1.696-1.106 2.811-1.723a219.245 219.245 0 0 0 3.388-1.915 80.23 80.23 0 0 1 3.735-2.016 197.731 197.731 0 0 1 4.052-2.001 61.03 61.03 0 0 0 3.922-2.057c1.26-.721 2.553-1.425 3.879-2.11 1.326-.684 2.676-1.35 4.051-1.993a253.96 253.96 0 0 0 3.842-1.837 141.09 141.09 0 0 1 3.33-1.579c1.033-.472 1.967-.885 2.8-1.24.835-.353 1.614-.688 2.339-1.004 1.068-.466 2.382-.939 3.941-1.42M315.285 283.973l-.367.168c-.007.003-.006.003.006 0l.283-.086c.178-.054.465-.2.86-.436.396-.237.877-.55 1.444-.94.566-.389 1.222-.853 1.968-1.393s1.58-1.09 2.505-1.649c.925-.559 1.872-1.14 2.84-1.745.97-.604 1.976-1.23 3.019-1.876 1.043-.646 2.665-1.56 4.865-2.743 2.2-1.183 3.899-2.13 5.094-2.841a133.074 133.074 0 0 1 3.636-2.086 447.52 447.52 0 0 1 3.671-2.008c1.22-.66 2.41-1.294 3.569-1.903a57.843 57.843 0 0 1 3.165-1.552c.95-.427 1.777-.775 2.479-1.043 1.034-.396 2.288-.91 3.762-1.542M382.238 247.872a9.71 9.71 0 0 0-1.66.9l-.116.088c-.006.004 0 .002.016-.006l.333-.168c.206-.103.514-.293.925-.568.41-.276.907-.624 1.491-1.045.585-.42 1.277-.875 2.078-1.364.8-.488 1.671-.978 2.611-1.467.94-.49 1.931-1.02 2.973-1.59 1.042-.571 2.087-1.165 3.138-1.781a48.366 48.366 0 0 1 3.194-1.719c1.08-.529 2.122-1.038 3.128-1.527a51.431 51.431 0 0 0 2.878-1.51c.912-.517 1.777-1.019 2.594-1.505.817-.487 1.863-1.042 3.137-1.666a235.405 235.405 0 0 0 2.818-1.396c.93-.472 1.726-.826 2.385-1.062M312.832 273.548c-.206-.031-.267-.113-.185-.246.06-.095.346-.294.859-.596a96.21 96.21 0 0 1 1.636-.94c.578-.325 1.2-.689 1.865-1.092a51.575 51.575 0 0 0 2.106-1.35 42.681 42.681 0 0 1 2.373-1.483c.844-.492 2.223-1.336 4.137-2.531 1.914-1.196 3.412-2.092 4.495-2.69a184.115 184.115 0 0 1 3.376-1.817 66.526 66.526 0 0 0 3.541-2.004 87.234 87.234 0 0 1 3.501-2.016c1.141-.622 2.272-1.23 3.392-1.824a99.908 99.908 0 0 0 3.227-1.786 65.554 65.554 0 0 1 2.92-1.6c.916-.469 1.734-.842 2.455-1.12l1.86-.716c.78-.3 1.566-.524 2.358-.672M382.503 237.427c.825-.57 1.69-1.176 2.596-1.818.6-.426 1.271-.897 2.014-1.413a49.332 49.332 0 0 1 2.485-1.611c.914-.557 1.93-1.192 3.05-1.904a88.417 88.417 0 0 1 3.645-2.191 79.544 79.544 0 0 1 3.938-2.106 89.773 89.773 0 0 0 3.5-1.832c1.515-.841 3.183-1.773 5.005-2.796M314.263 259.194l-.138-.014c-.006 0 .005-.005.034-.014l.333-.1a7.39 7.39 0 0 0 .71-.264c.28-.118.639-.312 1.076-.582.437-.27.928-.607 1.472-1.01.544-.404 1.176-.865 1.897-1.384.72-.52 1.496-1.087 2.327-1.705.831-.617 1.718-1.279 2.661-1.985a32.865 32.865 0 0 1 3.211-2.103c1.198-.695 2.446-1.421 3.743-2.18a83.271 83.271 0 0 1 4.11-2.243c1.442-.737 2.93-1.47 4.462-2.2 1.533-.73 3.008-1.466 4.425-2.205a88.123 88.123 0 0 1 3.838-1.9 36.627 36.627 0 0 1 2.974-1.238c1.233-.44 2.896-.95 4.988-1.532M382.125 226.973c-.231.04-.363.013-.395-.084-.022-.068.68-.6 2.107-1.596l3.177-2.22c.69-.483 1.415-.945 2.172-1.386.757-.44 1.897-1.033 3.422-1.777 2.497-1.219 4.184-1.99 5.06-2.314M328.644 240.529c.17-.286.491-.625.963-1.018s1.069-.787 1.789-1.183c.72-.395 1.425-.792 2.115-1.191.69-.399 1.413-.85 2.171-1.352a62.21 62.21 0 0 1 2.581-1.612 70.931 70.931 0 0 1 3.203-1.783 562.666 562.666 0 0 0 3.338-1.768c1.052-.563 1.814-.974 2.285-1.234.471-.26 1.376-.708 2.714-1.342 1.95-.925 4.82-2.352 8.61-4.283" style="fill:none;stroke:#7ec636;stroke-width:1.03937;stroke-linecap:round;stroke-linejoin:round;stroke-miterlimit:10;stroke-dasharray:none;stroke-opacity:1" transform="matrix(.72727 0 0 .72727 -222.88 -152.144)"/><path d="M371.552 264.412v.137-2.996c0-1.81-.011-3.013-.033-3.61a58.97 58.97 0 0 0-.092-1.802c-.04-.603-.125-1.595-.255-2.977-.129-1.382-.221-2.377-.276-2.985-.054-.609-.106-1.247-.155-1.915a84.203 84.203 0 0 0-.177-2.071c-.07-.713-.145-1.43-.226-2.152a47.666 47.666 0 0 1-.2-2.265 84.13 84.13 0 0 1-.127-3.099c-.034-1.279-.077-2.186-.127-2.723-.05-.536-.125-1.23-.222-2.082a27.89 27.89 0 0 1-.174-2.088c-.019-.54-.03-1.29-.032-2.25a79.737 79.737 0 0 0-.02-1.976 7.142 7.142 0 0 0-.098-1.002c-.055-.31-.109-.645-.162-1.004a13.996 13.996 0 0 1-.121-1.165 41.345 41.345 0 0 1-.062-1.246c-.014-.413-.032-.8-.055-1.158-.023-.359-.072-.85-.148-1.476-.075-.625-.131-1.107-.168-1.446a15.38 15.38 0 0 1-.077-.946 14.486 14.486 0 0 1-.008-.998c.01-.373.074-.867.195-1.482.12-.614.198-1.035.23-1.262.033-.227.054-.75.063-1.571.01-.821.006-1.304-.01-1.449-.025-.214-.115-.367-.27-.46" style="fill:none;stroke:#000;stroke-width:1.03937;stroke-linecap:round;stroke-linejoin:round;stroke-miterlimit:10;stroke-dasharray:none;stroke-opacity:1" transform="matrix(.72727 0 0 .72727 -222.88 -152.144)"/><path d="m372.5 255.173.443-.221M372.536 249.955c-.043-.06-.137-.079-.284-.054l-.157.027c-.005 0 .003-.002.025-.01l1.227-.393M371.727 244.733h-.072c-.003 0 .002-.003.017-.009l.168-.07a5.69 5.69 0 0 1 .462-.156l1.437-.438M371.737 239.901c.1-.09.22-.169.36-.235.2-.094.78-.332 1.74-.712M371.55 233.587l-.127.032c-.003 0 .005-.003.023-.011l.432-.186c.27-.117.521-.218.752-.306.333-.126.968-.356 1.905-.689M371.008 228.157c-.055-.073-.014-.164.123-.275.137-.11.29-.217.46-.32a10.064 10.064 0 0 1 1.568-.764c.358-.14.864-.319 1.519-.536 1.125-.375 1.785-.632 1.98-.77M371.052 222.727c.019-.086.088-.168.209-.245.12-.077.237-.143.349-.197.112-.054.32-.138.622-.253.302-.115.871-.3 1.707-.553a60.032 60.032 0 0 0 1.788-.563c.523-.18 1.175-.46 1.954-.843M371.471 215.941c-.355.002-.501-.015-.44-.052l.331-.198c.177-.106.447-.23.811-.37.365-.14.786-.296 1.263-.466.478-.17 1.011-.353 1.6-.55.858-.286 2.125-.665 3.801-1.138" style="fill:none;stroke:#03468f;stroke-width:1.03937;stroke-linecap:round;stroke-linejoin:round;stroke-miterlimit:10;stroke-dasharray:none;stroke-opacity:1" transform="matrix(.72727 0 0 .72727 -222.88 -152.144)"/><path d="m369.56 250.815-.19.166M368.518 245.34l.341-.221M367.544 241.171c.032-.18.37-.472 1.017-.876M366.284 235.222c.268-.209.58-.424.937-.645M365.83 229.681c.02-.087.08-.169.185-.246.15-.11.546-.277 1.19-.5M364.635 223.853l-.074.011h.003l.078-.005c.07-.005.764-.364 2.08-1.078M363.075 217.185c.376-.263 1.287-.756 2.731-1.48" style="fill:none;stroke:#a35c00;stroke-width:1.03937;stroke-linecap:round;stroke-linejoin:round;stroke-miterlimit:10;stroke-dasharray:none;stroke-opacity:1" transform="matrix(.72727 0 0 .72727 -222.88 -152.144)"/><path d="m337.31 312.87-.643.421c-.02.013-.022.017-.008.012l.238-.078c.145-.048.354-.156.625-.326s.663-.439 1.173-.807c.51-.368 1.124-.78 1.84-1.237a50.096 50.096 0 0 0 2.475-1.704 260.23 260.23 0 0 1 3.095-2.213 47.635 47.635 0 0 1 3.46-2.224 372.65 372.65 0 0 0 3.736-2.208 77.328 77.328 0 0 1 4.156-2.31c1.456-.755 3.781-1.968 6.974-3.64 3.193-1.672 5.683-2.934 7.47-3.786 1.788-.853 3.57-1.72 5.344-2.605a97.571 97.571 0 0 1 5.378-2.478 123.21 123.21 0 0 0 5.436-2.466 112.008 112.008 0 0 1 5.353-2.418 514.076 514.076 0 0 0 5.34-2.276 384.518 384.518 0 0 1 5.41-2.294 68.152 68.152 0 0 1 5.207-1.929c2.426-.781 6.372-1.989 11.839-3.622" style="fill:none;stroke:#7ec636;stroke-width:1.03937;stroke-linecap:round;stroke-linejoin:round;stroke-miterlimit:10;stroke-dasharray:none;stroke-opacity:1" transform="matrix(.72727 0 0 .72727 -222.88 -152.144)"/></svg>