<svg xmlns="http://www.w3.org/2000/svg" width="150.256" height="60.104"><path d="M498.233 342.57c-.365-.034-.909-.005-1.63.089-.722.093-1.785.306-3.188.638a155.27 155.27 0 0 1-3.336.759c-.821.174-1.665.358-2.53.552-.866.193-2.209.533-4.029 1.02-1.82.485-3.197.887-4.129 1.203a17.37 17.37 0 0 0-2.585 1.108c-.79.421-1.563.895-2.317 1.422-.754.526-1.58 1.097-2.477 1.712-.897.616-1.789 1.241-2.676 1.876a32.661 32.661 0 0 0-2.444 1.925 98.126 98.126 0 0 0-2.233 2.01c-.746.693-1.502 1.413-2.266 2.16-.765.749-1.518 1.495-2.258 2.24-.741.743-1.82 1.917-3.238 3.521-1.418 1.604-2.53 2.799-3.337 3.583l-2.391 2.323a31.684 31.684 0 0 0-2.188 2.344 39.697 39.697 0 0 0-1.943 2.518 39.483 39.483 0 0 1-2.062 2.647 152.07 152.07 0 0 1-2.29 2.64 78.422 78.422 0 0 0-4.166 5.098 63.735 63.735 0 0 1-1.93 2.446c-.661.797-1.884 2.013-3.668 3.648a2402.086 2402.086 0 0 1-3.963 3.626 23.147 23.147 0 0 1-2.635 2.084 81.83 81.83 0 0 1-2.738 1.771 93.17 93.17 0 0 1-2.73 1.627c-.892.512-1.817.985-2.773 1.42-.955.436-2.086.82-3.39 1.152a36.832 36.832 0 0 1-8.17 1.146 70.01 70.01 0 0 1-3.701.025c-1.014-.026-2.343-.117-3.986-.273-1.644-.157-3.108-.38-4.394-.672a44.81 44.81 0 0 1-3.938-1.087 58.854 58.854 0 0 1-4.124-1.516 45.113 45.113 0 0 1-4.017-1.872c-1.269-.67-2.551-1.351-3.847-2.041a28.834 28.834 0 0 1-3.448-2.132 26.954 26.954 0 0 1-2.769-2.31 103.367 103.367 0 0 1-2.507-2.488 83.41 83.41 0 0 1-2.439-2.616 34.302 34.302 0 0 1-2.199-2.721c-.667-.921-1.377-1.904-2.129-2.948a118.424 118.424 0 0 0-2.394-3.208 116.774 116.774 0 0 1-2.456-3.3 68.596 68.596 0 0 1-2.26-3.352 46.83 46.83 0 0 0-2.303-3.319 75.545 75.545 0 0 0-2.676-3.316 79.333 79.333 0 0 1-2.7-3.341 51.9 51.9 0 0 0-2.667-3.218 56.559 56.559 0 0 0-3.12-3.195 121.695 121.695 0 0 1-3.206-3.154 47.497 47.497 0 0 0-3.107-2.908 70.384 70.384 0 0 0-3.31-2.661l-3.198-2.417a44.844 44.844 0 0 0-3.132-2.164 47.97 47.97 0 0 0-3.185-1.849 68.011 68.011 0 0 0-3.086-1.532 48.328 48.328 0 0 0-3.093-1.31 36.95 36.95 0 0 0-2.8-.963 15.358 15.358 0 0 0-2.17-.492c-.913-.127-2.075-.144-3.484-.05" style="fill:none;stroke:#007aff;stroke-width:6.63806;stroke-linecap:round;stroke-linejoin:round;stroke-miterlimit:10;stroke-dasharray:none;stroke-opacity:1" transform="matrix(.72727 0 0 .72727 -217.155 -242.252)"/><path d="M307.898 406.227c.371.035.923.005 1.656-.09.732-.095 1.81-.31 3.234-.647s2.553-.593 3.386-.77c.834-.177 1.69-.364 2.568-.56.879-.197 2.241-.541 4.09-1.035 1.847-.493 3.244-.9 4.19-1.221a17.61 17.61 0 0 0 2.623-1.124 22.94 22.94 0 0 0 2.352-1.443c.765-.534 1.603-1.114 2.514-1.738.91-.625 1.816-1.26 2.716-1.904.9-.644 1.726-1.295 2.48-1.953a99.873 99.873 0 0 0 2.267-2.04c.757-.703 1.524-1.433 2.3-2.193.776-.759 1.54-1.516 2.293-2.27.751-.757 1.847-1.948 3.285-3.576 1.44-1.628 2.569-2.84 3.387-3.636l2.428-2.357c.799-.776 1.539-1.569 2.22-2.379.68-.81 1.337-1.662 1.972-2.555a40.023 40.023 0 0 1 2.093-2.687c.76-.897 1.535-1.79 2.325-2.68a79.761 79.761 0 0 0 4.228-5.173 64.991 64.991 0 0 1 1.959-2.482c.671-.808 1.912-2.042 3.723-3.702 1.811-1.66 3.152-2.886 4.022-3.68a23.509 23.509 0 0 1 2.674-2.115 82.465 82.465 0 0 1 2.78-1.797 94.589 94.589 0 0 1 2.77-1.65c.906-.52 1.844-1 2.814-1.442.97-.442 2.117-.831 3.442-1.169a38.974 38.974 0 0 1 4.034-.802 37.232 37.232 0 0 1 4.258-.36 71.324 71.324 0 0 1 3.756-.025c1.029.026 2.377.118 4.045.278 1.668.159 3.154.386 4.46.68 1.304.296 2.637.664 3.996 1.105 1.36.441 2.755.954 4.185 1.54 1.43.584 2.79 1.217 4.077 1.898 1.287.682 2.589 1.372 3.904 2.073 1.316.7 2.482 1.421 3.5 2.163a27.347 27.347 0 0 1 2.809 2.345c.856.821 1.704 1.663 2.544 2.526.84.863 1.666 1.748 2.476 2.655.81.906 1.554 1.827 2.231 2.762.678.934 1.398 1.932 2.16 2.992.764 1.06 1.574 2.145 2.43 3.255.857 1.11 1.688 2.226 2.493 3.35a70.158 70.158 0 0 1 2.293 3.402 47.604 47.604 0 0 0 2.337 3.368c.836 1.1 1.74 2.222 2.716 3.366a80.345 80.345 0 0 1 2.74 3.392 52.9 52.9 0 0 0 2.706 3.266 57.474 57.474 0 0 0 3.167 3.242 124.12 124.12 0 0 1 3.253 3.202 48.255 48.255 0 0 0 3.154 2.952 71.35 71.35 0 0 0 3.358 2.7l3.246 2.454a48.54 48.54 0 0 0 6.41 4.072 69.522 69.522 0 0 0 3.132 1.556 48.87 48.87 0 0 0 3.14 1.33c1.058.406 2.006.732 2.842.977.837.245 1.57.412 2.201.5" style="fill:none;stroke:#007aff;stroke-width:6.73701;stroke-linecap:round;stroke-linejoin:round;stroke-miterlimit:10;stroke-dasharray:none;stroke-opacity:1" transform="matrix(.72727 0 0 .72727 -217.155 -242.252)"/><path d="M267.054 398.085a9.073 9.073 0 0 0 1.564.302c.48.047 2.186-.032 5.12-.237M283.9 393.046c.197-.315.207-.603.03-.864a.838.838 0 0 0-.514-.35 3.763 3.763 0 0 0-.81-.089c-.32-.005-.665.075-1.036.24a3.94 3.94 0 0 0-1.083.745c-.351.331-.698.783-1.039 1.357-.34.574-.633 1.29-.877 2.15a13.93 13.93 0 0 0-.479 2.544c-.075.836-.056 1.6.057 2.294a4.31 4.31 0 0 0 .828 1.916 4.707 4.707 0 0 0 1.562 1.356 5.01 5.01 0 0 0 1.96.567 4.517 4.517 0 0 0 2.002-.271 5.667 5.667 0 0 0 1.73-1.048c.526-.46.954-.988 1.286-1.583.332-.596.567-1.29.704-2.08.138-.792.188-1.685.148-2.68-.04-.996-.2-1.892-.481-2.69-.281-.797-.616-1.344-1.003-1.64-.552-.424-1.41-.184-2.574.718M292.574 404.439h-.104M298.285 391.737c-.542 2.278-.88 3.897-1.012 4.859-.091.663-.155 1.25-.19 1.76-.037.509-.047 1.029-.033 1.559.015.53.062.839.142.927.08.089.373.148.88.178.73.043 2.189-.24 4.376-.848" style="fill:none;stroke:#ff21b3;stroke-width:2.59842;stroke-linecap:round;stroke-linejoin:round;stroke-miterlimit:10;stroke-dasharray:none;stroke-opacity:1" transform="matrix(.72727 0 0 .72727 -193.276 -261.756)"/><path d="M301.342 396.68c-.077.525-.11 1.18-.097 1.966.008.51.026 1.083.054 1.718.04.913.112 3.098.217 6.558" style="fill:none;stroke:#ff21b3;stroke-width:2.59842;stroke-linecap:round;stroke-linejoin:round;stroke-miterlimit:10;stroke-dasharray:none;stroke-opacity:1" transform="matrix(.72727 0 0 .72727 -193.276 -261.756)"/><path d="M360.735 390.686v-.192l.009.082.162 1.598c.102 1.006.179 1.993.23 2.96.05.968.082 1.958.095 2.971.02 1.495.086 3.295.2 5.4M367.066 402.2l.062-.261M378.586 391.487c-.39-.2-1.057-.365-2-.494-.597-.081-1.033-.124-1.308-.127a1.473 1.473 0 0 0-.728.166c-.21.114-.374.294-.492.541-.117.247-.2.6-.246 1.061-.047.46-.073.98-.077 1.557a12.553 12.553 0 0 0 .302 2.896c.085.347.169.612.253.792.084.18.176.148.274-.095.1-.244.228-.49.385-.739.158-.248.35-.45.575-.606.225-.156.458-.25.698-.283.24-.032.495.015.763.143.269.128.547.364.834.707.288.344.55.742.789 1.194.238.452.426.888.562 1.309.137.42.23.813.278 1.177.049.364.001.73-.141 1.1-.143.369-.427.715-.852 1.038a3.53 3.53 0 0 1-1.431.652c-.53.11-1.04.106-1.53-.014-.705-.172-1.086-.66-1.143-1.466" style="fill:none;stroke:#7ec636;stroke-width:2.59842;stroke-linecap:round;stroke-linejoin:round;stroke-miterlimit:10;stroke-dasharray:none;stroke-opacity:1" transform="matrix(.72727 0 0 .72727 -193.276 -261.756)"/><path d="M453.697 395.78c.037-.402.016-.737-.063-1.004a1.446 1.446 0 0 0-.257-.497 2.518 2.518 0 0 0-.445-.428 2.23 2.23 0 0 0-.62-.33 3.291 3.291 0 0 0-.795-.164c-.295-.027-.618.024-.97.152s-.715.403-1.089.826c-.374.422-.719.943-1.036 1.56-.316.62-.547 1.373-.692 2.264-.144.89-.216 1.825-.214 2.804a9.06 9.06 0 0 0 .395 2.713c.26.83.614 1.504 1.059 2.023.445.518.947.852 1.507 1.001.56.15 1.134.143 1.722-.018.588-.16 1.142-.483 1.663-.97.52-.485.937-1.119 1.25-1.9.313-.782.512-1.683.597-2.704.084-1.02.07-1.974-.045-2.86-.115-.886-.34-1.643-.673-2.273-.334-.629-.683-1.132-1.047-1.509-.526-.545-1.195-.664-2.007-.357M457.808 405.253l-.233-.112M468.34 395.349a4.93 4.93 0 0 0-.407-1.405 1.72 1.72 0 0 0-.502-.637 1.458 1.458 0 0 0-.717-.286c-.273-.034-.586.009-.937.129-.352.12-.71.355-1.077.708a8.272 8.272 0 0 0-1.047 1.246 11.814 11.814 0 0 0-.967 1.72c-.312.666-.554 1.443-.725 2.33a13.81 13.81 0 0 0-.257 2.602c0 .846.148 1.578.445 2.194.298.616.706 1.085 1.225 1.409a3.897 3.897 0 0 0 1.73.573c.635.058 1.285-.062 1.95-.361a5.973 5.973 0 0 0 1.778-1.226c.52-.518.955-1.16 1.302-1.927.348-.766.592-1.58.731-2.443.14-.862.203-1.62.19-2.272-.012-.653-.154-1.2-.424-1.639a2.31 2.31 0 0 0-1.087-.947c-.658-.278-1.576-.181-2.753.29" style="fill:none;stroke:#ffd300;stroke-width:2.59842;stroke-linecap:round;stroke-linejoin:round;stroke-miterlimit:10;stroke-dasharray:none;stroke-opacity:1" transform="matrix(.72727 0 0 .72727 -193.276 -261.756)"/></svg>