<svg xmlns="http://www.w3.org/2000/svg" width="95.393" height="118.36"><path d="M364.264 456.786a3.355 3.355 0 0 0-.066-.684 14.4 14.4 0 0 0-.325-1.329 65.573 65.573 0 0 1-.38-1.389c-.087-.342-.18-.693-.277-1.054-.097-.36-.264-.919-.5-1.676a29.175 29.175 0 0 0-.58-1.714 7.302 7.302 0 0 0-.513-1.068 9.54 9.54 0 0 0-.639-.949c-.235-.307-.49-.644-.764-1.01a67.9 67.9 0 0 0-.837-1.092 13.756 13.756 0 0 0-.853-.994c-.286-.3-.58-.601-.885-.903-.305-.301-.621-.606-.95-.914a97.662 97.662 0 0 0-.981-.91c-.326-.298-.84-.73-1.54-1.298a29.405 29.405 0 0 1-1.565-1.34l-1.02-.963c-.336-.318-.677-.61-1.025-.878a16.76 16.76 0 0 0-1.093-.772c-.382-.248-.765-.52-1.15-.82-.386-.3-.77-.605-1.152-.916a32.98 32.98 0 0 0-2.218-1.66 26.799 26.799 0 0 1-1.063-.768c-.347-.264-.88-.757-1.6-1.478-.719-.72-1.25-1.254-1.595-1.601a9.73 9.73 0 0 1-.924-1.07 39.132 39.132 0 0 1-1.527-2.238 14.109 14.109 0 0 1-.646-1.142 8.543 8.543 0 0 1-.545-1.405 15.5 15.5 0 0 1-.628-3.415c-.044-.61-.07-1.13-.077-1.556-.007-.427.007-.987.044-1.681.037-.694.104-1.314.204-1.86.099-.546.228-1.104.386-1.675.16-.572.347-1.159.564-1.761.218-.603.456-1.178.715-1.723l.79-1.655a11.344 11.344 0 0 1 1.757-2.693c.325-.369.659-.735 1.001-1.099.343-.363.695-.72 1.056-1.072.362-.352.73-.676 1.106-.973.375-.298.775-.614 1.201-.949.426-.334.861-.689 1.306-1.064.445-.374.893-.738 1.344-1.091.45-.354.907-.69 1.37-1.01.461-.32.913-.663 1.354-1.029.44-.365.89-.76 1.346-1.184.457-.424.909-.823 1.357-1.195.448-.373.883-.766 1.305-1.18.423-.413.852-.869 1.288-1.369.436-.5.859-.967 1.27-1.404.41-.436.798-.89 1.166-1.359.368-.47.722-.949 1.06-1.439l.96-1.388a20.206 20.206 0 0 0 1.574-2.728c.211-.446.408-.888.589-1.325.181-.437.346-.878.496-1.324.15-.446.267-.844.354-1.195.087-.351.143-.658.168-.921.037-.387.024-.875-.04-1.466" style="fill:none;stroke:#007aff;stroke-width:2.79389;stroke-linecap:round;stroke-linejoin:round;stroke-miterlimit:10;stroke-dasharray:none;stroke-opacity:1" transform="matrix(.72727 0 0 .72727 -221.681 -272.709)"/><path d="M334.092 377.887c-.008.157.014.388.067.695.053.306.163.756.33 1.348.167.593.295 1.063.385 1.41.089.348.183.705.281 1.07.098.366.268.933.508 1.701s.437 1.349.589 1.74c.152.393.325.754.52 1.084.194.33.41.65.648.963.239.312.497.654.776 1.026s.562.74.85 1.108c.286.367.575.703.865 1.008.29.305.59.61.898.917.31.306.63.615.963.928.333.313.665.62.996.923.332.303.852.742 1.563 1.318.71.576 1.24 1.029 1.589 1.36l1.035.978c.34.322.687.619 1.04.89.353.272.723.533 1.11.784.387.251.776.529 1.167.832.39.304.78.614 1.168.93a33.589 33.589 0 0 0 2.251 1.685c.367.252.727.512 1.079.78s.893.768 1.623 1.5a950 950 0 0 1 1.62 1.625c.349.352.661.714.937 1.086a39.93 39.93 0 0 1 1.55 2.272c.233.372.452.758.655 1.158.203.4.388.876.553 1.427a15.643 15.643 0 0 1 .637 3.466c.045.619.07 1.145.078 1.578.007.434-.007 1.002-.044 1.707a15.033 15.033 0 0 1-.207 1.887c-.1.554-.232 1.12-.393 1.7-.161.58-.352 1.176-.572 1.788-.22.612-.463 1.194-.726 1.748l-.801 1.679a11.509 11.509 0 0 1-1.783 2.734c-.33.374-.67.746-1.017 1.115-.348.368-.705.731-1.072 1.088-.367.357-.74.686-1.122.988-.38.301-.787.622-1.22.962-.432.34-.873.7-1.325 1.08-.451.38-.906.749-1.364 1.108-.457.358-.92.7-1.39 1.025-.468.324-.927.672-1.374 1.043-.448.37-.903.771-1.367 1.202-.463.43-.922.835-1.377 1.213a22.24 22.24 0 0 0-1.325 1.196c-.429.42-.864.883-1.307 1.39-.442.507-.872.982-1.288 1.425a20.3 20.3 0 0 0-1.185 1.38c-.373.476-.732.962-1.075 1.46l-.974 1.408a20.469 20.469 0 0 0-1.598 2.769c-.215.453-.414.901-.598 1.345-.184.443-.352.891-.503 1.344-.152.452-.272.856-.36 1.212a6.57 6.57 0 0 0-.17.935" style="fill:none;stroke:#007aff;stroke-width:2.83554;stroke-linecap:round;stroke-linejoin:round;stroke-miterlimit:10;stroke-dasharray:none;stroke-opacity:1" transform="matrix(.72727 0 0 .72727 -221.681 -272.709)"/><path d="M365.224 535.68a3.355 3.355 0 0 0-.066-.684 14.44 14.44 0 0 0-.326-1.33 66.057 66.057 0 0 1-.379-1.389c-.088-.342-.18-.693-.277-1.054-.097-.36-.264-.919-.5-1.676a29.3 29.3 0 0 0-.58-1.714 7.323 7.323 0 0 0-.513-1.067 9.534 9.534 0 0 0-.64-.95c-.234-.307-.489-.644-.764-1.01-.275-.367-.553-.73-.836-1.092a13.758 13.758 0 0 0-.853-.993c-.286-.301-.581-.602-.886-.904-.304-.3-.62-.606-.949-.914a98.848 98.848 0 0 0-.981-.91c-.327-.298-.84-.73-1.54-1.298a29.423 29.423 0 0 1-1.566-1.34l-1.02-.963c-.335-.318-.677-.61-1.024-.878a16.723 16.723 0 0 0-1.094-.772c-.381-.247-.764-.52-1.15-.82-.385-.3-.769-.605-1.15-.916a33.027 33.027 0 0 0-2.22-1.66 26.765 26.765 0 0 1-1.062-.768c-.347-.264-.88-.756-1.6-1.477-.72-.721-1.251-1.255-1.595-1.602a9.74 9.74 0 0 1-.924-1.07 39.056 39.056 0 0 1-1.527-2.238 14.144 14.144 0 0 1-.646-1.142 8.554 8.554 0 0 1-.545-1.405 15.477 15.477 0 0 1-.628-3.415 29.44 29.44 0 0 1-.077-1.556c-.007-.427.007-.987.044-1.68a14.86 14.86 0 0 1 .203-1.86c.1-.546.229-1.105.387-1.676.159-.571.347-1.158.564-1.761.217-.603.456-1.177.715-1.723l.79-1.654a11.356 11.356 0 0 1 1.757-2.693c.325-.37.658-.736 1.001-1.1.343-.363.695-.72 1.056-1.072.362-.352.73-.676 1.105-.973l1.202-.948c.426-.335.861-.69 1.306-1.064a49.06 49.06 0 0 1 1.343-1.092c.451-.354.908-.69 1.37-1.01.462-.32.913-.663 1.354-1.028.441-.366.89-.76 1.347-1.185.456-.424.909-.822 1.357-1.195.448-.373.883-.766 1.305-1.18.423-.412.852-.869 1.288-1.368.436-.5.859-.968 1.269-1.405.41-.436.8-.89 1.167-1.358.368-.47.721-.95 1.06-1.44l.959-1.388a20.118 20.118 0 0 0 1.574-2.728c.212-.446.409-.888.59-1.325.18-.437.346-.878.495-1.324.15-.446.268-.844.355-1.195.087-.351.143-.658.168-.92.037-.387.023-.876-.041-1.467" style="fill:none;stroke:#007aff;stroke-width:2.79389;stroke-linecap:round;stroke-linejoin:round;stroke-miterlimit:10;stroke-dasharray:none;stroke-opacity:1" transform="matrix(.72727 0 0 .72727 -221.681 -272.709)"/><path d="M335.052 456.78c-.008.157.014.389.067.695.053.306.163.756.33 1.349.167.592.295 1.062.384 1.41.09.347.183.704.282 1.07.098.365.267.932.508 1.7.24.769.437 1.349.589 1.74.152.393.325.754.52 1.084.193.33.41.65.648.963.238.312.497.654.776 1.026s.562.741.849 1.108c.287.367.575.703.865 1.008.29.305.59.61.899.917.309.306.63.615.963.928.333.313.665.62.996.923.331.303.852.742 1.562 1.318.71.576 1.24 1.03 1.59 1.36l1.035.978c.34.322.687.619 1.04.89.352.272.722.533 1.11.784.387.251.776.529 1.166.833.391.303.78.613 1.169.93a33.46 33.46 0 0 0 2.25 1.685c.368.251.727.511 1.08.779.352.268.893.768 1.623 1.5l1.62 1.625c.348.352.66.714.936 1.087.276.372.545.751.806 1.136.261.385.51.764.744 1.136.234.371.453.757.656 1.157s.388.876.553 1.427a15.665 15.665 0 0 1 .637 3.466c.044.62.07 1.145.078 1.579.008.433-.007 1.001-.045 1.706a15.029 15.029 0 0 1-.206 1.887c-.101.554-.232 1.12-.393 1.7-.161.58-.352 1.176-.572 1.788a19.3 19.3 0 0 1-.726 1.748 811.6 811.6 0 0 1-.802 1.68 11.507 11.507 0 0 1-1.783 2.733c-.33.374-.669.746-1.016 1.115-.348.368-.706.731-1.072 1.088-.367.357-.741.686-1.122.988l-1.22.962c-.432.34-.874.7-1.325 1.08-.451.38-.906.749-1.364 1.108-.458.358-.921.7-1.39 1.025-.469.325-.927.672-1.374 1.043-.448.371-.903.772-1.367 1.202-.464.43-.923.835-1.377 1.213a22.24 22.24 0 0 0-1.325 1.196c-.43.42-.865.883-1.307 1.39-.443.507-.872.982-1.288 1.425-.417.443-.812.903-1.185 1.38-.374.476-.732.962-1.076 1.46l-.973 1.408a20.379 20.379 0 0 0-1.598 2.769c-.215.453-.414.901-.598 1.345-.184.443-.352.891-.504 1.344-.151.452-.271.856-.36 1.213a6.59 6.59 0 0 0-.17.934" style="fill:none;stroke:#007aff;stroke-width:2.83554;stroke-linecap:round;stroke-linejoin:round;stroke-miterlimit:10;stroke-dasharray:none;stroke-opacity:1" transform="matrix(.72727 0 0 .72727 -221.681 -272.709)"/><path d="M176.86 318.82c.18-.505.318-1.151.418-1.939.064-.513.114-1.057.148-1.633.034-.577.053-2.293.057-5.15.004-2.855-.049-4.892-.157-6.11a41.026 41.026 0 0 0-.517-3.757l-.662-3.602a25.754 25.754 0 0 1-.391-3.38 22.02 22.02 0 0 1 .07-3.265c.102-1.037.313-1.958.631-2.766.468-1.184 1.31-2.57 2.526-4.16" style="fill:none;stroke:#fcfcfc;stroke-width:1.03937;stroke-linecap:round;stroke-linejoin:round;stroke-miterlimit:10;stroke-dasharray:none;stroke-opacity:1" transform="matrix(.72727 0 0 .72727 -125.27 -157.425)"/><path d="M172.766 306.272c.422-.267.908-.724 1.458-1.37a42.378 42.378 0 0 0 1.76-2.235c.903-1.219 2.561-3.307 4.975-6.264M193.513 283.398c-.181.044-.39.185-.624.424-.235.239-.532.592-.89 1.06-.357.467-.766 1.108-1.227 1.922a16 16 0 0 0-1.208 2.738c-.344 1.012-.673 2.625-.989 4.84a41.65 41.65 0 0 0-.398 6.772c.049 2.299.298 4.467.748 6.504.659 2.988 2.47 6.11 5.435 9.366" style="fill:none;stroke:#fcfcfc;stroke-width:1.03937;stroke-linecap:round;stroke-linejoin:round;stroke-miterlimit:10;stroke-dasharray:none;stroke-opacity:1" transform="matrix(.72727 0 0 .72727 -125.27 -157.425)"/><path d="M373.764 442.51c.193.284.528.87 1.002 1.758.475.889.9 1.86 1.273 2.914.373 1.053.679 2.107.916 3.163.238 1.056.442 2.714.614 4.975.172 2.261.178 4.371.02 6.33-.16 1.96-.412 3.763-.76 5.412-.524 2.49-1.168 4.795-1.931 6.917M388.601 454.008c.141.151.716.2 1.725.145 1.63-.089 2.76-.167 3.392-.236M388.72 460.105c.13.163.331.29.605.38.275.091.676.179 1.205.264.764.123 2.104.094 4.017-.086" style="fill:none;stroke:#fcfcfc;stroke-width:1.01146;stroke-linecap:round;stroke-linejoin:round;stroke-miterlimit:10;stroke-dasharray:none;stroke-opacity:1" transform="matrix(.72727 0 0 .72727 -221.681 -273.446)"/><path d="M343.435 377.926a7.616 7.616 0 0 0-.052 1.324c.017.536.038 1.266.062 2.191.037 1.409.11 2.657.217 3.745M346.563 383.822l-.063.168M351.618 378.94c-.3-.157-.564-.24-.792-.248a.887.887 0 0 0-.434.094 1.713 1.713 0 0 0-.398.286c-.13.123-.286.355-.465.695a3.47 3.47 0 0 0-.359 1.058c-.06.364-.072.769-.035 1.214.036.445.154.858.354 1.239.2.38.449.668.746.862.298.194.611.283.94.268.327-.015.628-.17.902-.465.274-.295.495-.677.663-1.144.168-.468.284-.935.348-1.402.064-.468.09-.877.079-1.226-.011-.35-.076-.64-.193-.872-.17-.336-.542-.59-1.114-.762M341.08 417.587c.464-.03.86-.09 1.186-.18.324-.088.788-.189 1.39-.303M348.352 414.755c.08-.202.016-.369-.191-.501a1.474 1.474 0 0 0-.391-.187 1.432 1.432 0 0 0-.41-.043c-.156.003-.33.073-.52.21-.191.137-.377.33-.556.581a5.3 5.3 0 0 0-.488.84 3.716 3.716 0 0 0-.303 1.01c-.058.365-.056.768.004 1.208.06.44.213.848.458 1.223.245.375.53.68.853.912.323.233.656.37 1 .412.342.041.682-.023 1.018-.193.337-.17.627-.434.87-.793.244-.358.41-.749.496-1.173.086-.424.124-.82.113-1.188-.012-.367-.086-.668-.225-.902-.2-.34-.591-.562-1.171-.667M351.83 419.47l-.09.266M353.648 413.788c.05.512.065 1.122.047 1.829-.012.462-.014.801-.006 1.017.007.216.035.385.083.506a.522.522 0 0 0 .234.273c.108.06.308.091.6.092.427 0 .923-.147 1.486-.444" style="fill:none;stroke:#7ec636;stroke-width:1.02807;stroke-linecap:round;stroke-linejoin:round;stroke-miterlimit:10;stroke-dasharray:none;stroke-opacity:1" transform="matrix(.72727 0 0 .72727 -221.681 -272.709)"/><path d="M355.605 415.79c.11.366.19.869.242 1.509.033.412.06.845.082 1.297.033.67-.006 1.442-.115 2.318M344.94 453.954c-.227-.23-.397-.381-.51-.455a1.89 1.89 0 0 0-.292-.151 1.5 1.5 0 0 0-.401-.103 2.493 2.493 0 0 0-.49-.009c-.175.013-.361.08-.558.2-.197.12-.387.293-.57.518-.183.225-.338.521-.463.89-.126.368-.2.807-.225 1.316-.024.51.001 1.01.077 1.5.076.491.24.969.496 1.434.256.465.567.861.934 1.188.367.327.735.537 1.103.628.368.092.722.083 1.06-.029.34-.11.659-.33.958-.657.299-.327.53-.692.69-1.096.162-.405.255-.849.28-1.334a7.629 7.629 0 0 0-.062-1.448c-.066-.48-.207-.871-.422-1.172-.216-.302-.46-.507-.731-.617-.395-.159-.862-.091-1.402.202M349.197 459.659l.011.233c0 .004 0 .002-.003-.004l-.129-.403M353.406 455.668c-.173.036-.36-.035-.562-.215-.135-.12-.33-.42-.584-.903-.254-.482-.486-.9-.696-1.256-.21-.355-.433-.723-.67-1.102a15.31 15.31 0 0 0-.582-.876c-.15-.204-.259-.332-.324-.383-.066-.05-.1-.015-.1.107-.001.122.08.354.243.696.162.341.378.692.647 1.051.269.36.54.648.813.866.273.217.552.372.838.464.286.092.574.142.864.148.29.006.578-.034.863-.118.284-.085.54-.188.769-.309.228-.12.417-.246.566-.379a.85.85 0 0 0 .28-.43c.037-.154.045-.296.024-.424-.022-.13-.09-.206-.204-.23-.114-.025-.259.043-.435.204-.176.161-.352.379-.527.653-.175.274-.322.634-.44 1.08a9.845 9.845 0 0 0-.26 1.56 29.562 29.562 0 0 0-.116 1.719c-.03.81.048 1.856.232 3.137M341.076 497.175c.549.031 1.225.02 2.03-.034M348.483 493.776c-.033-.17-.153-.296-.362-.378-.141-.055-.34-.078-.594-.07a2.36 2.36 0 0 0-.618.09c-.157.05-.326.176-.507.379-.181.202-.35.469-.506.8-.157.33-.28.7-.372 1.106-.09.406-.137.85-.137 1.33-.001.481.076.952.23 1.412.154.46.372.826.654 1.1.281.272.598.453.949.542.351.088.707.127 1.067.115.361-.011.703-.1 1.026-.266a2.2 2.2 0 0 0 .828-.768c.229-.346.4-.75.512-1.214.112-.463.177-.9.193-1.31.017-.41-.011-.74-.084-.99a1.12 1.12 0 0 0-.382-.589c-.263-.205-.786-.392-1.57-.562M353.033 499.51l-.172.171M356.295 493.632c.108-.264.022-.409-.26-.433-.202-.018-.41.043-.624.182-.215.14-.405.299-.572.478a1.93 1.93 0 0 0-.377.576c-.085.205-.13.42-.134.641-.005.222.032.43.11.622.077.192.212.34.404.443.192.103.412.155.658.155.355 0 .88-.318 1.576-.955" style="fill:none;stroke:#7ec636;stroke-width:1.02807;stroke-linecap:round;stroke-linejoin:round;stroke-miterlimit:10;stroke-dasharray:none;stroke-opacity:1" transform="matrix(.72727 0 0 .72727 -221.681 -272.709)"/><path d="M357.47 493.734c-.08-.163-.162-.235-.247-.216-.06.013-.108.095-.145.244-.036.15-.066.528-.09 1.133-.022.606-.06 1.502-.112 2.687a65.234 65.234 0 0 0-.078 2.535c0 .763.065 1.475.194 2.138M341.442 532.463c.598.01 1.212.047 1.843.111M348.256 529.643c.125-.074.176-.19.155-.346a.441.441 0 0 0-.122-.261.938.938 0 0 0-.26-.175 1.27 1.27 0 0 0-.35-.108 1.54 1.54 0 0 0-.411-.006c-.147.016-.299.1-.455.252-.156.152-.303.37-.442.653a5.32 5.32 0 0 0-.505 2.053c-.018.389 0 .776.055 1.16.055.386.164.757.328 1.112.164.356.367.643.609.861.242.218.501.347.777.387.275.04.562-.027.861-.2.3-.173.584-.426.854-.758s.468-.695.594-1.09a4.145 4.145 0 0 0 .003-2.495c-.132-.418-.276-.74-.433-.964-.156-.224-.31-.368-.459-.434-.217-.096-.463-.083-.738.04M352.02 534.245c.009.1.007.14-.005.123a387.41 387.41 0 0 1-.124-.167M354.37 527.746c.041.306.035.673-.02 1.1-.053.426-.079.814-.075 1.163.003.35.02.595.05.736a.7.7 0 0 0 .19.357.642.642 0 0 0 .347.181c.134.024.28.032.435.024.156-.008.323-.037.501-.086.257-.07.78-.201 1.568-.394" style="fill:none;stroke:#7ec636;stroke-width:1.02807;stroke-linecap:round;stroke-linejoin:round;stroke-miterlimit:10;stroke-dasharray:none;stroke-opacity:1" transform="matrix(.72727 0 0 .72727 -221.681 -272.709)"/><path d="M356.438 529.805c-.04.454-.045 1.116-.014 1.986.028.806.1 2.062.215 3.767" style="fill:none;stroke:#7ec636;stroke-width:1.02807;stroke-linecap:round;stroke-linejoin:round;stroke-miterlimit:10;stroke-dasharray:none;stroke-opacity:1" transform="matrix(.72727 0 0 .72727 -221.681 -272.709)"/><path d="M434.109 458.166a3.347 3.347 0 0 0-.065-.681c-.052-.3-.16-.74-.323-1.322a64.132 64.132 0 0 1-.375-1.382c-.087-.34-.179-.69-.275-1.048a47.204 47.204 0 0 0-.496-1.667 29.061 29.061 0 0 0-.576-1.706 7.266 7.266 0 0 0-.508-1.062 9.465 9.465 0 0 0-.635-.944c-.233-.306-.486-.642-.759-1.006-.273-.365-.55-.727-.83-1.087-.282-.36-.564-.689-.848-.988a40.95 40.95 0 0 0-.88-.9c-.302-.3-.617-.603-.943-.91a96.707 96.707 0 0 0-.975-.905 37.041 37.041 0 0 0-1.53-1.293 29.246 29.246 0 0 1-1.556-1.333l-1.013-.96a13.273 13.273 0 0 0-1.018-.873 16.558 16.558 0 0 0-1.087-.77 16.53 16.53 0 0 1-1.143-.816 63.322 63.322 0 0 1-1.144-.912 32.95 32.95 0 0 0-2.204-1.653 26.75 26.75 0 0 1-1.057-.765c-.344-.262-.874-.752-1.589-1.47s-1.243-1.25-1.585-1.595a9.669 9.669 0 0 1-.918-1.065 38.714 38.714 0 0 1-1.516-2.227c-.23-.365-.443-.743-.642-1.136a8.496 8.496 0 0 1-.54-1.398 15.415 15.415 0 0 1-.621-3.397 29.422 29.422 0 0 1-.076-1.547 25.06 25.06 0 0 1 .045-1.671 14.8 14.8 0 0 1 .205-1.85c.099-.542.228-1.098.386-1.665.158-.568.346-1.152.562-1.751.217-.6.454-1.17.713-1.713l.787-1.644a11.295 11.295 0 0 1 1.75-2.677c.323-.367.655-.73.996-1.092.342-.36.692-.716 1.052-1.065.36-.35.726-.672 1.1-.967.373-.295.772-.61 1.196-.942a50.16 50.16 0 0 0 1.3-1.057c.442-.372.888-.733 1.336-1.084.45-.351.904-.686 1.363-1.004.46-.317.91-.658 1.348-1.02a31.67 31.67 0 0 0 1.34-1.177c.455-.422.905-.817 1.35-1.188.447-.37.88-.76 1.3-1.171.42-.41.848-.864 1.282-1.36.434-.497.855-.962 1.263-1.396.409-.433.796-.884 1.163-1.35.366-.466.718-.943 1.055-1.43l.955-1.38a20.046 20.046 0 0 0 1.568-2.712c.211-.443.407-.882.587-1.316.18-.435.346-.873.495-1.317.149-.443.267-.839.353-1.188.087-.349.143-.654.168-.915.038-.385.024-.87-.039-1.458" style="fill:none;stroke:#007aff;stroke-width:2.77844;stroke-linecap:round;stroke-linejoin:round;stroke-miterlimit:10;stroke-dasharray:none;stroke-opacity:1" transform="matrix(.72727 0 0 .72727 -221.975 -274.472)"/><path d="M404.178 379.674a3.41 3.41 0 0 0 .066.691c.053.305.162.752.327 1.342.166.59.293 1.057.381 1.402.089.346.182.7.28 1.064.096.364.264.928.503 1.692.238.765.433 1.342.584 1.732.15.39.322.749.515 1.077.193.329.408.648.645.959.236.31.493.65.77 1.02s.558.738.843 1.103c.286.365.572.7.86 1.004a49.761 49.761 0 0 0 1.85 1.836c.33.311.66.618.99.92.329.3.846.738 1.552 1.311a29.687 29.687 0 0 1 1.58 1.353c.346.33.689.654 1.027.975.339.32.683.616 1.034.886.35.27.718.531 1.103.781.384.25.771.526 1.16.829.388.302.775.61 1.16.925a33.296 33.296 0 0 0 2.238 1.678c.364.251.722.51 1.072.776.35.267.887.765 1.613 1.493l1.608 1.618c.347.35.658.71.931 1.082.274.37.54.748.8 1.13.26.384.506.76.739 1.13.233.37.45.755.652 1.153.201.398.384.87.548 1.419a15.576 15.576 0 0 1 .63 3.447c.044.616.07 1.14.076 1.57.007.431-.008.997-.046 1.697-.037.7-.106 1.326-.207 1.877-.1.55-.231 1.114-.392 1.69-.161.576-.351 1.169-.571 1.777a19.17 19.17 0 0 1-.723 1.738l-.8 1.669a11.455 11.455 0 0 1-1.776 2.717c-.327.372-.665.741-1.011 1.108-.346.366-.702.726-1.067 1.08-.365.356-.737.683-1.116.982l-1.214.956c-.43.337-.87.695-1.32 1.072-.448.378-.9.745-1.356 1.1-.456.357-.917.697-1.384 1.02-.466.322-.922.667-1.368 1.035-.445.369-.898.767-1.36 1.194-.461.428-.918.83-1.37 1.205a22.153 22.153 0 0 0-2.62 2.57c-.44.504-.868.976-1.283 1.416-.414.44-.807.897-1.18 1.37a29.83 29.83 0 0 0-1.07 1.451l-.97 1.4a20.284 20.284 0 0 0-1.591 2.752c-.215.45-.413.896-.597 1.337-.183.44-.35.886-.502 1.336-.15.45-.27.852-.359 1.206a6.537 6.537 0 0 0-.17.929" style="fill:none;stroke:#007aff;stroke-width:2.81985;stroke-linecap:round;stroke-linejoin:round;stroke-miterlimit:10;stroke-dasharray:none;stroke-opacity:1" transform="matrix(.72727 0 0 .72727 -221.975 -274.472)"/><path d="M434.989 536.623a3.346 3.346 0 0 0-.065-.68c-.052-.3-.16-.741-.323-1.322a64.728 64.728 0 0 1-.375-1.382c-.087-.34-.179-.69-.275-1.049a47.214 47.214 0 0 0-.496-1.667 29.018 29.018 0 0 0-.576-1.705 7.27 7.27 0 0 0-.508-1.062 9.455 9.455 0 0 0-.635-.944 147.87 147.87 0 0 1-.76-1.006c-.272-.365-.55-.727-.83-1.087-.281-.36-.564-.69-.847-.989-.284-.299-.578-.599-.88-.899-.303-.3-.617-.603-.943-.91a96.707 96.707 0 0 0-.975-.905 37.18 37.18 0 0 0-1.53-1.293 29.302 29.302 0 0 1-1.556-1.333l-1.013-.96a13.254 13.254 0 0 0-1.018-.874 16.688 16.688 0 0 0-1.087-.769c-.38-.246-.76-.518-1.143-.816a64.556 64.556 0 0 1-1.144-.912 32.737 32.737 0 0 0-2.204-1.653c-.36-.247-.712-.502-1.057-.765-.344-.263-.874-.753-1.589-1.47a989.34 989.34 0 0 1-1.585-1.595 9.701 9.701 0 0 1-.918-1.066c-.27-.365-.532-.736-.788-1.114a39.211 39.211 0 0 1-.728-1.113 14.02 14.02 0 0 1-.642-1.135 8.492 8.492 0 0 1-.54-1.398 15.39 15.39 0 0 1-.621-3.397 29.296 29.296 0 0 1-.076-1.547 25.12 25.12 0 0 1 .045-1.672c.037-.69.105-1.306.205-1.849.099-.543.228-1.098.386-1.666.158-.568.346-1.151.562-1.75.217-.6.454-1.17.713-1.713.259-.542.52-1.09.787-1.645a11.282 11.282 0 0 1 1.75-2.677c.323-.366.655-.73.996-1.091a35.04 35.04 0 0 1 1.052-1.066c.36-.35.726-.671 1.1-.967.373-.295.772-.609 1.195-.941.424-.333.858-.685 1.3-1.057.443-.372.889-.734 1.337-1.085.45-.35.904-.685 1.363-1.003.46-.318.91-.658 1.348-1.021.439-.363.886-.755 1.34-1.177.455-.421.905-.817 1.35-1.187.447-.37.88-.76 1.3-1.171.42-.41.848-.864 1.282-1.36.434-.497.855-.962 1.263-1.396.409-.434.796-.884 1.163-1.35.366-.467.718-.944 1.055-1.43l.955-1.38a20.048 20.048 0 0 0 1.568-2.712c.211-.443.407-.882.587-1.317.18-.434.346-.873.495-1.316.149-.443.267-.84.353-1.188.087-.349.143-.654.168-.916.037-.384.024-.87-.04-1.458" style="fill:none;stroke:#007aff;stroke-width:2.77844;stroke-linecap:round;stroke-linejoin:round;stroke-miterlimit:10;stroke-dasharray:none;stroke-opacity:1" transform="matrix(.72727 0 0 .72727 -221.975 -274.472)"/><path d="M405.058 458.132a3.41 3.41 0 0 0 .066.69c.053.305.162.753.327 1.342.166.59.293 1.057.381 1.403.089.345.182.7.28 1.064.096.364.264.928.503 1.692.238.764.433 1.341.583 1.731.151.39.323.75.516 1.078a9.6 9.6 0 0 0 .645.958c.236.31.493.651.77 1.021.277.37.558.738.843 1.103.286.365.572.7.86 1.003.288.304.586.608.893.913.307.304.626.612.957.924.33.311.66.617.99.919.329.301.846.738 1.552 1.312a29.689 29.689 0 0 1 1.58 1.353l1.027.974c.339.32.683.616 1.034.887.35.27.718.53 1.103.78.384.25.771.527 1.16.83.388.302.775.61 1.16.925a33.296 33.296 0 0 0 2.237 1.678c.365.25.723.51 1.073.776.35.267.887.764 1.612 1.493.726.728 1.262 1.268 1.61 1.618.346.35.657.71.93 1.081.274.371.54.748.8 1.131.26.384.506.76.739 1.13.233.37.45.754.652 1.152.201.398.384.871.548 1.42a15.553 15.553 0 0 1 .63 3.448c.044.615.069 1.138.076 1.569.007.43-.008.996-.046 1.696-.037.7-.106 1.326-.207 1.877-.1.551-.231 1.115-.392 1.69-.161.577-.351 1.17-.571 1.778-.22.608-.461 1.187-.724 1.738l-.798 1.669a11.446 11.446 0 0 1-1.776 2.717 43.99 43.99 0 0 1-1.012 1.107c-.346.367-.702.727-1.067 1.081-.365.355-.737.682-1.116.982l-1.214.955c-.43.338-.87.695-1.32 1.073-.449.377-.901.744-1.357 1.1-.455.357-.916.696-1.383 1.019-.466.322-.922.668-1.368 1.036-.445.368-.899.766-1.36 1.194-.461.427-.918.83-1.37 1.205a22.223 22.223 0 0 0-2.62 2.57c-.441.503-.869.975-1.283 1.415-.414.44-.808.897-1.18 1.37-.371.474-.728.958-1.07 1.452l-.97 1.4a20.329 20.329 0 0 0-1.591 2.752c-.215.45-.414.896-.597 1.337-.183.44-.35.886-.502 1.335-.15.45-.27.852-.359 1.206a6.558 6.558 0 0 0-.17.93" style="fill:none;stroke:#007aff;stroke-width:2.81985;stroke-linecap:round;stroke-linejoin:round;stroke-miterlimit:10;stroke-dasharray:none;stroke-opacity:1" transform="matrix(.72727 0 0 .72727 -221.975 -274.472)"/><path d="M413.47 379.722c-.052.344-.07.783-.054 1.316.017.533.037 1.26.06 2.18.035 1.4.106 2.642.212 3.723M416.575 385.588l-.063.167M421.607 380.739c-.299-.158-.561-.24-.788-.248a.883.883 0 0 0-.432.093 1.701 1.701 0 0 0-.396.284c-.13.122-.285.352-.463.69a3.453 3.453 0 0 0-.358 1.052 4.96 4.96 0 0 0-.036 1.207c.036.443.153.854.351 1.233.198.379.445.665.741.858.296.193.607.282.934.267.326-.014.625-.168.898-.462.273-.293.493-.672.66-1.137.168-.465.284-.93.348-1.394.063-.465.09-.871.08-1.219-.012-.348-.075-.637-.192-.867-.169-.334-.538-.587-1.107-.76M414.894 455.33c-.226-.228-.395-.38-.507-.453-.077-.05-.174-.1-.29-.15a1.486 1.486 0 0 0-.399-.103 2.442 2.442 0 0 0-.487-.009c-.174.013-.359.08-.555.2-.196.119-.385.29-.567.513-.183.223-.337.518-.462.884a4.78 4.78 0 0 0-.224 1.31c-.025.506 0 1.003.075 1.491.074.488.238.964.492 1.427.254.462.563.857.928 1.182.364.326.73.534 1.096.626a1.87 1.87 0 0 0 1.055-.028c.337-.11.654-.328.952-.652.298-.325.527-.689.688-1.09.16-.402.253-.844.279-1.326a7.661 7.661 0 0 0-.06-1.44c-.066-.478-.205-.867-.42-1.167-.213-.3-.455-.504-.725-.613-.393-.159-.857-.092-1.395.199M419.123 461.008l.01.232c0 .004 0 .002-.003-.004l-.127-.401M423.312 457.043c-.172.036-.358-.036-.559-.214-.134-.12-.328-.42-.58-.899-.252-.48-.482-.896-.69-1.25-.209-.353-.43-.719-.667-1.096a15.262 15.262 0 0 0-.577-.872c-.15-.203-.257-.33-.322-.381-.065-.05-.099-.015-.1.106 0 .122.08.353.241.692.162.34.376.689.643 1.046.267.358.536.645.808.862.27.217.548.371.833.463.284.092.57.141.86.147.288.006.574-.032.857-.116.283-.085.538-.186.765-.306.227-.12.415-.245.564-.377a.844.844 0 0 0 .278-.427c.038-.153.046-.294.024-.422-.021-.128-.089-.205-.202-.23-.113-.024-.257.044-.433.204-.175.16-.35.376-.525.648-.174.273-.32.63-.437 1.074-.118.444-.205.96-.262 1.55-.057.591-.095 1.16-.116 1.71-.03.807.046 1.847.228 3.12M411.342 533.402c.594.01 1.205.048 1.832.112M418.12 530.604c.125-.074.176-.189.155-.345a.438.438 0 0 0-.121-.259.938.938 0 0 0-.258-.175 1.265 1.265 0 0 0-.349-.107 1.515 1.515 0 0 0-.408-.006c-.147.016-.297.1-.453.25-.155.151-.302.368-.44.65a5.012 5.012 0 0 0-.343.942c-.09.347-.144.713-.162 1.099-.017.386.001.77.055 1.154.054.383.162.752.324 1.105.163.354.365.64.605.857.241.217.498.346.772.385.274.04.56-.026.858-.198.297-.171.58-.422.85-.752a3.29 3.29 0 0 0 .59-1.083 4.126 4.126 0 0 0 .006-2.481c-.13-.417-.273-.737-.43-.96-.155-.223-.307-.367-.455-.432-.216-.096-.461-.083-.734.04M421.86 535.184c.008.099.006.14-.006.122l-.123-.166M424.202 528.723a4.27 4.27 0 0 1-.02 1.093c-.054.425-.08.81-.076 1.157.003.348.019.592.049.733.03.14.093.26.19.355a.64.64 0 0 0 .343.18c.134.024.278.032.433.024.156-.008.322-.036.499-.084.255-.07.775-.2 1.559-.391" style="fill:none;stroke:#7ec636;stroke-width:1.02239;stroke-linecap:round;stroke-linejoin:round;stroke-miterlimit:10;stroke-dasharray:none;stroke-opacity:1" transform="matrix(.72727 0 0 .72727 -221.975 -274.472)"/><path d="M426.257 530.772c-.04.452-.045 1.11-.016 1.975.027.802.097 2.05.21 3.747" style="fill:none;stroke:#7ec636;stroke-width:1.02239;stroke-linecap:round;stroke-linejoin:round;stroke-miterlimit:10;stroke-dasharray:none;stroke-opacity:1" transform="matrix(.72727 0 0 .72727 -221.975 -274.472)"/><path d="M410.942 418.826c1.096.03 1.96.095 2.593.193M417.91 415.772c-.036-.12-.156-.231-.36-.335a1.36 1.36 0 0 0-.41-.133 2.376 2.376 0 0 0-.413-.027c-.136.003-.275.074-.418.211-.143.137-.281.351-.415.641-.133.29-.25.653-.353 1.088a9.16 9.16 0 0 0-.21 1.387 8.8 8.8 0 0 0 .018 1.52c.05.524.147.93.289 1.22.142.29.252.475.329.557.077.083.215.166.413.25.199.084.481.097.849.039.367-.058.703-.239 1.007-.542.305-.304.557-.676.756-1.116.2-.44.343-.882.429-1.327.086-.444.126-.908.12-1.391a4.336 4.336 0 0 0-.21-1.323c-.132-.399-.305-.702-.517-.911-.309-.303-.704-.39-1.185-.258M421.031 420.825c-.144.234-.216.406-.215.516M423.212 417.34c-.238-.017-.374-.176-.408-.477-.034-.301-.036-.527-.005-.678a1.91 1.91 0 0 1 .154-.451c.072-.15.153-.292.243-.427s.182-.253.277-.355a.907.907 0 0 1 .279-.215.4.4 0 0 1 .265-.032c.085.02.165.142.24.365.074.223.161.66.26 1.31.1.65.161 1.118.182 1.402.021.285.005.564-.048.837-.053.274-.14.554-.259.839-.12.285-.268.577-.447.874-.178.298-.37.564-.575.8-.205.234-.39.392-.553.473-.163.08-.282.103-.356.068-.075-.036-.107-.143-.098-.32.009-.178.069-.358.18-.539.11-.181.236-.321.38-.42.142-.1.263-.154.36-.162.099-.01.214.091.345.3.132.208.253.42.364.632.11.214.249.384.414.51.166.127.355.202.568.225.213.023.44.003.678-.06.343-.092.797-.528 1.36-1.31M412.02 498.337c.031.095.226.14.585.138a32.82 32.82 0 0 0 2.121-.107M418.202 493.2c-.018.246.011.706.088 1.38.047.415.097.996.15 1.741.08 1.114.25 2.254.511 3.422M421.299 499.095l-.05.3M425.532 492.786c-.284.105-.68.104-1.187 0a5.324 5.324 0 0 0-.889-.117c-.262-.009-.423.024-.483.098-.06.074-.081.246-.065.517.016.27.137.75.364 1.438.227.687.372 1.079.434 1.173.062.095.14.065.236-.09.096-.156.212-.282.348-.38a.971.971 0 0 1 .423-.179c.145-.021.296-.009.453.04.157.047.312.154.466.322.154.167.3.396.437.686.138.29.237.612.298.965.06.354.074.599.039.734-.035.136-.123.283-.264.44-.14.159-.309.293-.506.405a2.54 2.54 0 0 1-.723.26c-.416.089-.863.007-1.341-.249" style="fill:none;stroke:#ff21b3;stroke-width:1.02239;stroke-linecap:round;stroke-linejoin:round;stroke-miterlimit:10;stroke-dasharray:none;stroke-opacity:1" transform="matrix(.72727 0 0 .72727 -221.975 -274.472)"/></svg>