<svg xmlns="http://www.w3.org/2000/svg" width="128.915" height="117.548"><path d="M353.991 462.496a3.257 3.257 0 0 0-.07-.668 14.075 14.075 0 0 0-.328-1.296c-.165-.57-.292-1.021-.38-1.355a96.221 96.221 0 0 0-.28-1.027 46.539 46.539 0 0 0-.501-1.634 28.594 28.594 0 0 0-.58-1.67 7.148 7.148 0 0 0-.508-1.04c-.19-.316-.4-.623-.632-.922a146.44 146.44 0 0 1-.754-.982c-.272-.356-.547-.71-.826-1.06-.279-.351-.56-.673-.84-.964a40.125 40.125 0 0 0-.873-.876c-.3-.292-.61-.588-.934-.887a96.713 96.713 0 0 0-.965-.88 36.528 36.528 0 0 0-1.514-1.258 28.778 28.778 0 0 1-1.54-1.296l-1.004-.935a13.02 13.02 0 0 0-1.007-.85c-.342-.258-.7-.507-1.075-.746a16.234 16.234 0 0 1-1.13-.792 62.77 62.77 0 0 1-1.131-.886 32.316 32.316 0 0 0-2.18-1.606c-.355-.24-.703-.487-1.044-.742-.34-.255-.866-.732-1.574-1.432-.708-.699-1.232-1.216-1.57-1.552a9.492 9.492 0 0 1-.911-1.04c-.268-.356-.53-.719-.784-1.088a38.409 38.409 0 0 1-.725-1.087 13.825 13.825 0 0 1-.64-1.11 8.355 8.355 0 0 1-.543-1.369 15.149 15.149 0 0 1-.64-3.332 28.913 28.913 0 0 1-.086-1.519c-.01-.417 0-.964.03-1.643.03-.678.092-1.284.185-1.818s.215-1.08.365-1.64c.151-.56.33-1.134.538-1.725.208-.59.436-1.153.686-1.688.25-.535.502-1.076.759-1.622a11.073 11.073 0 0 1 1.696-2.645 42.5 42.5 0 0 1 .97-1.081c.332-.358.674-.71 1.024-1.056.35-.346.708-.666 1.072-.96l1.167-.934c.414-.33.837-.68 1.268-1.05.432-.37.867-.728 1.305-1.077.438-.348.881-.68 1.33-.997.45-.316.888-.654 1.316-1.015.428-.36.863-.749 1.306-1.167.443-.418.882-.81 1.317-1.178.435-.367.857-.755 1.267-1.161.41-.407.825-.857 1.247-1.348.423-.491.832-.952 1.23-1.381.397-.43.774-.876 1.13-1.337.356-.461.698-.933 1.025-1.414l.927-1.363a19.754 19.754 0 0 0 1.518-2.677c.203-.438.391-.871.565-1.3.174-.428.332-.86.474-1.297.143-.437.256-.827.338-1.17.082-.344.134-.644.157-.901.033-.378.016-.855-.051-1.432" style="fill:none;stroke:#007aff;stroke-width:2.72976;stroke-linecap:round;stroke-linejoin:round;stroke-miterlimit:10;stroke-dasharray:none;stroke-opacity:1" transform="matrix(.72727 0 0 .72727 -218.808 -276.903)"/><path d="M323.92 385.636c-.007.154.017.38.071.678.054.3.165.738.333 1.316.167.577.296 1.036.386 1.374.09.34.184.687.283 1.043.098.357.268.91.509 1.658.24.75.437 1.314.588 1.696.152.382.324.734.516 1.055.192.32.406.633.64.936.236.303.491.635.767.996.275.362.554.72.837 1.077.284.356.568.682.854.978.285.296.58.592.884.889.305.297.62.596.948.9.328.303.655.6.98.894.326.293.838.719 1.537 1.276.698.557 1.219.996 1.563 1.316l1.018.948c.335.312.676.6 1.023.863.347.262.71.515 1.09.757.38.243.762.51 1.147.804.384.294.767.594 1.148.9a32.759 32.759 0 0 0 2.212 1.63c.36.243.714.494 1.06.753.346.26.878.743 1.597 1.453.72.71 1.25 1.235 1.594 1.576.344.341.652.693.924 1.055s.537.73.796 1.104c.258.374.503.742.735 1.104.232.361.448.737.65 1.126a8.5 8.5 0 0 1 .551 1.39 15.297 15.297 0 0 1 .648 3.382c.048.604.078 1.118.088 1.54.01.424 0 .98-.03 1.668-.031.688-.094 1.304-.188 1.846a18.65 18.65 0 0 1-.371 1.664 24.648 24.648 0 0 1-.546 1.75c-.21.6-.443 1.171-.696 1.714l-.77 1.647a11.24 11.24 0 0 1-1.722 2.684c-.32.368-.648.734-.985 1.097-.337.363-.684.72-1.04 1.071a14.27 14.27 0 0 1-1.088.974l-1.184.949c-.42.335-.849.69-1.287 1.065a48.5 48.5 0 0 1-1.324 1.092c-.445.354-.895.692-1.35 1.012-.456.321-.9.664-1.335 1.03-.435.366-.877.76-1.327 1.185-.45.424-.895.822-1.336 1.195-.441.373-.87.766-1.286 1.179a23.63 23.63 0 0 0-1.266 1.367c-.428.5-.844.967-1.248 1.403-.403.436-.786.888-1.147 1.356-.361.468-.708.946-1.04 1.435l-.94 1.383a19.958 19.958 0 0 0-1.54 2.717c-.208.445-.399.884-.575 1.319a20.13 20.13 0 0 0-.482 1.316c-.145.444-.259.84-.343 1.188a6.45 6.45 0 0 0-.16.914" style="fill:none;stroke:#007aff;stroke-width:2.77045;stroke-linecap:round;stroke-linejoin:round;stroke-miterlimit:10;stroke-dasharray:none;stroke-opacity:1" transform="matrix(.72727 0 0 .72727 -218.808 -276.903)"/><path d="M355.52 539.568a3.251 3.251 0 0 0-.07-.667 14.075 14.075 0 0 0-.327-1.296c-.165-.57-.292-1.021-.38-1.355a98.031 98.031 0 0 0-.28-1.028 46.158 46.158 0 0 0-.501-1.633 28.51 28.51 0 0 0-.58-1.671 7.138 7.138 0 0 0-.508-1.039c-.19-.316-.4-.624-.632-.923a143.6 143.6 0 0 1-.754-.981c-.272-.356-.547-.71-.826-1.06-.28-.352-.56-.673-.84-.965a40.35 40.35 0 0 0-.873-.876 48.81 48.81 0 0 0-.934-.886 95.62 95.62 0 0 0-.966-.881 36.528 36.528 0 0 0-1.513-1.257 28.728 28.728 0 0 1-1.54-1.297l-1.004-.934c-.33-.308-.666-.59-1.008-.85-.341-.259-.7-.507-1.074-.746a16.177 16.177 0 0 1-1.13-.792c-.378-.29-.755-.585-1.131-.887a32.444 32.444 0 0 0-2.18-1.605c-.355-.24-.703-.487-1.044-.743-.341-.255-.866-.732-1.574-1.43l-1.571-1.554a9.521 9.521 0 0 1-.91-1.039c-.269-.357-.53-.72-.784-1.088a38.34 38.34 0 0 1-.725-1.087 13.764 13.764 0 0 1-.64-1.11 8.344 8.344 0 0 1-.543-1.369 15.123 15.123 0 0 1-.64-3.332 28.805 28.805 0 0 1-.086-1.52c-.01-.416 0-.964.03-1.642.03-.678.092-1.284.185-1.818s.215-1.081.365-1.64c.151-.56.33-1.134.538-1.725.208-.59.436-1.154.686-1.689.249-.535.502-1.075.759-1.622a11.1 11.1 0 0 1 1.696-2.645c.315-.363.638-.723.97-1.08.332-.358.674-.71 1.024-1.056.35-.347.708-.666 1.072-.96l1.167-.935c.414-.33.836-.68 1.268-1.05.432-.369.867-.727 1.305-1.076.438-.349.881-.681 1.33-.997.449-.316.888-.655 1.316-1.015.428-.36.863-.75 1.306-1.167.443-.418.882-.81 1.317-1.178.435-.368.857-.755 1.267-1.162.41-.407.825-.856 1.247-1.347.422-.492.832-.952 1.23-1.382.397-.43.774-.875 1.13-1.336.356-.462.697-.933 1.025-1.414l.926-1.364a19.755 19.755 0 0 0 1.518-2.677c.203-.438.392-.87.566-1.299.173-.428.331-.86.474-1.297.143-.437.255-.827.338-1.17.082-.344.134-.644.157-.901.033-.378.016-.856-.051-1.433" style="fill:none;stroke:#007aff;stroke-width:2.72976;stroke-linecap:round;stroke-linejoin:round;stroke-miterlimit:10;stroke-dasharray:none;stroke-opacity:1" transform="matrix(.72727 0 0 .72727 -218.808 -276.903)"/><path d="M325.45 462.709c-.007.153.017.38.07.678.055.3.166.738.333 1.315.168.578.297 1.036.387 1.375.09.339.184.687.283 1.043.098.357.268.91.509 1.658.24.749.437 1.314.588 1.696.151.382.323.733.516 1.054.192.321.406.633.64.937.236.303.491.635.766.996.276.361.555.72.838 1.076.284.357.568.683.854.979.285.296.58.592.884.889.305.296.62.596.948.9.328.302.655.6.98.894.326.293.838.718 1.537 1.276.698.557 1.219.996 1.563 1.316l1.018.948c.335.312.676.6 1.023.862.347.263.71.516 1.09.758.38.242.762.51 1.147.804.384.294.767.594 1.148.9a32.76 32.76 0 0 0 2.212 1.63c.36.243.714.494 1.06.753.346.259.878.743 1.597 1.453l1.594 1.575c.344.342.652.693.924 1.055s.537.73.796 1.105c.258.374.503.742.735 1.103.232.362.448.737.65 1.127.201.389.385.852.55 1.39a15.3 15.3 0 0 1 .648 3.382c.05.603.078 1.117.089 1.54.01.424 0 .98-.03 1.668-.031.688-.094 1.303-.188 1.845a18.685 18.685 0 0 1-.371 1.665 24.702 24.702 0 0 1-.546 1.75c-.211.6-.443 1.17-.696 1.714l-.77 1.646a11.242 11.242 0 0 1-1.722 2.684c-.32.369-.648.734-.985 1.097-.337.363-.684.72-1.04 1.072-.355.351-.718.676-1.088.973l-1.184.95c-.42.334-.849.69-1.287 1.064-.438.375-.88.74-1.324 1.093-.445.354-.895.691-1.35 1.012-.456.32-.901.664-1.335 1.03-.435.365-.877.76-1.327 1.184-.45.424-.895.823-1.336 1.196a21.756 21.756 0 0 0-2.552 2.546c-.429.499-.844.966-1.248 1.402-.403.436-.786.888-1.147 1.357-.362.468-.708.946-1.04 1.435l-.94 1.383a19.957 19.957 0 0 0-1.54 2.717 28.69 28.69 0 0 0-.575 1.318c-.177.435-.337.874-.482 1.317-.145.443-.26.84-.343 1.188a6.42 6.42 0 0 0-.16.914" style="fill:none;stroke:#007aff;stroke-width:2.77045;stroke-linecap:round;stroke-linejoin:round;stroke-miterlimit:10;stroke-dasharray:none;stroke-opacity:1" transform="matrix(.72727 0 0 .72727 -218.808 -276.903)"/><path d="M404.273 462.476a3.324 3.324 0 0 0-.07-.678c-.054-.3-.164-.738-.33-1.316a64.295 64.295 0 0 1-.385-1.376c-.09-.34-.184-.687-.282-1.044a47.25 47.25 0 0 0-.507-1.66c-.24-.749-.435-1.314-.586-1.696a7.255 7.255 0 0 0-.515-1.056 9.46 9.46 0 0 0-.64-.937c-.235-.304-.49-.637-.764-.998-.275-.362-.554-.721-.837-1.078a13.677 13.677 0 0 0-.852-.98c-.285-.296-.58-.593-.884-.89-.304-.298-.62-.598-.947-.902a97.449 97.449 0 0 0-.98-.896c-.325-.294-.836-.72-1.534-1.278a29.222 29.222 0 0 1-1.562-1.319l-1.017-.95a13.217 13.217 0 0 0-1.022-.864c-.347-.263-.71-.516-1.09-.76-.38-.242-.762-.511-1.146-.805a63.93 63.93 0 0 1-1.147-.902 32.709 32.709 0 0 0-2.21-1.633c-.361-.244-.714-.496-1.06-.755-.346-.26-.878-.745-1.596-1.456-.718-.71-1.249-1.237-1.593-1.579a9.66 9.66 0 0 1-.922-1.056 34.127 34.127 0 0 1-.795-1.106 38.916 38.916 0 0 1-.734-1.105 14 14 0 0 1-.648-1.127 8.468 8.468 0 0 1-.55-1.391 15.398 15.398 0 0 1-.644-3.384 29.347 29.347 0 0 1-.085-1.542c-.01-.424 0-.98.033-1.668.032-.689.095-1.304.19-1.846s.22-1.097.373-1.664c.154-.568.337-1.151.549-1.75.212-.6.444-1.171.698-1.714l.773-1.646a11.238 11.238 0 0 1 1.726-2.683c.32-.368.65-.733.987-1.096.338-.362.685-.719 1.041-1.07.356-.351.72-.675 1.09-.972l1.186-.948c.42-.335.85-.69 1.289-1.064.439-.374.88-.738 1.326-1.091.445-.353.896-.69 1.352-1.01.456-.32.902-.664 1.337-1.029.435-.365.878-.76 1.329-1.183.45-.423.896-.821 1.338-1.194.442-.373.872-.765 1.288-1.178.416-.412.84-.868 1.268-1.366.43-.498.846-.965 1.25-1.4.405-.436.788-.888 1.15-1.356.362-.468.71-.946 1.043-1.434l.942-1.383a20.009 20.009 0 0 0 1.545-2.716c.207-.444.4-.883.576-1.318.177-.434.338-.873.484-1.316.145-.443.26-.84.344-1.188a6.43 6.43 0 0 0 .161-.914c.035-.384.018-.868-.05-1.454" style="fill:none;stroke:#007aff;stroke-width:2.77143;stroke-linecap:round;stroke-linejoin:round;stroke-miterlimit:10;stroke-dasharray:none;stroke-opacity:1" transform="matrix(.72727 0 0 .72727 -219.493 -277.76)"/><path d="M373.855 384.4c-.007.155.017.385.071.688.055.304.167.749.336 1.336.17.587.3 1.052.39 1.396.09.344.186.697.286 1.06.1.362.271.923.515 1.684.243.76.441 1.334.594 1.722.154.388.328.745.522 1.071.195.327.412.644.65.952.238.308.497.646.776 1.013.279.367.562.731.849 1.094.287.362.575.693.865.994.29.301.588.603.897.904.308.302.628.606.96.915.333.308.664.611.995.91.33.298.85.73 1.557 1.297a29.574 29.574 0 0 1 1.585 1.338l1.033.965c.34.317.685.61 1.037.877.352.267.72.524 1.106.77.385.247.773.52 1.163.819.39.299.777.603 1.164.914a33.398 33.398 0 0 0 2.244 1.658c.365.248.724.503 1.075.767.35.263.89.756 1.619 1.477a940.13 940.13 0 0 1 1.616 1.602c.349.347.661.705.937 1.073.275.368.544.742.806 1.122.262.38.51.754.745 1.122.235.367.454.748.658 1.144.204.395.39.866.557 1.411a15.556 15.556 0 0 1 .653 3.434c.048.615.077 1.137.088 1.566.01.43-.001.994-.034 1.693a14.933 14.933 0 0 1-.193 1.873c-.097.55-.223 1.114-.38 1.69a25.001 25.001 0 0 1-.556 1.776 19.128 19.128 0 0 1-.71 1.739c-.257.55-.519 1.107-.784 1.67a11.426 11.426 0 0 1-1.752 2.722 43.61 43.61 0 0 1-1.001 1.113c-.343.368-.695.73-1.057 1.086-.361.356-.73.685-1.106.987l-1.204.962c-.427.34-.863.7-1.308 1.08-.445.379-.894.748-1.346 1.107-.452.358-.91.7-1.372 1.025-.464.325-.916.673-1.357 1.043-.442.371-.891.771-1.349 1.201-.457.43-.91.834-1.358 1.212a22.08 22.08 0 0 0-1.307 1.195c-.423.419-.852.88-1.288 1.387-.436.505-.859.98-1.269 1.421-.41.442-.8.9-1.167 1.375s-.72.96-1.057 1.456l-.958 1.403a20.265 20.265 0 0 0-1.568 2.756c-.21.451-.405.897-.584 1.338-.18.441-.344.886-.491 1.336-.148.45-.264.852-.35 1.206-.085.353-.14.663-.163.927" style="fill:none;stroke:#007aff;stroke-width:2.81274;stroke-linecap:round;stroke-linejoin:round;stroke-miterlimit:10;stroke-dasharray:none;stroke-opacity:1" transform="matrix(.72727 0 0 .72727 -219.493 -277.76)"/><path d="M405.714 540.727a3.33 3.33 0 0 0-.07-.678 14.311 14.311 0 0 0-.331-1.316 64.787 64.787 0 0 1-.385-1.376c-.089-.339-.183-.687-.281-1.044-.099-.357-.268-.91-.508-1.659-.24-.75-.435-1.315-.586-1.697a7.255 7.255 0 0 0-.514-1.056 9.46 9.46 0 0 0-.64-.937c-.235-.304-.49-.636-.765-.998a67.006 67.006 0 0 0-.836-1.078 13.652 13.652 0 0 0-.853-.98c-.285-.296-.58-.593-.884-.89-.303-.297-.619-.598-.947-.901a96.366 96.366 0 0 0-.979-.896 36.95 36.95 0 0 0-1.535-1.279 29.164 29.164 0 0 1-1.562-1.319l-1.017-.95c-.335-.312-.675-.6-1.022-.864-.346-.263-.71-.516-1.09-.76-.38-.242-.761-.51-1.145-.805a63.227 63.227 0 0 1-1.148-.902 33.07 33.07 0 0 0-2.21-1.633c-.36-.244-.714-.495-1.06-.755-.345-.26-.877-.745-1.595-1.455-.719-.711-1.25-1.237-1.593-1.58a9.68 9.68 0 0 1-.923-1.056 34.134 34.134 0 0 1-.794-1.105 38.837 38.837 0 0 1-.734-1.105 13.999 13.999 0 0 1-.649-1.128 8.487 8.487 0 0 1-.549-1.39 15.352 15.352 0 0 1-.644-3.384 29.36 29.36 0 0 1-.086-1.543c-.01-.423.001-.98.033-1.668s.096-1.304.19-1.846c.096-.542.22-1.096.374-1.664.154-.568.337-1.151.548-1.75.212-.6.445-1.17.699-1.714l.773-1.646a11.262 11.262 0 0 1 1.726-2.683c.32-.367.649-.733.987-1.095.337-.363.684-.72 1.04-1.07.357-.352.72-.676 1.09-.973l1.187-.948c.42-.335.85-.69 1.289-1.063.438-.375.88-.738 1.326-1.092.445-.353.896-.69 1.352-1.01.456-.32.902-.663 1.337-1.028.435-.366.878-.76 1.328-1.184.45-.423.897-.821 1.339-1.194.442-.372.871-.765 1.287-1.177.417-.413.84-.868 1.27-1.367.428-.498.845-.965 1.25-1.4.404-.436.787-.888 1.149-1.355.362-.468.71-.946 1.042-1.435l.943-1.382a19.961 19.961 0 0 0 1.545-2.716c.207-.444.4-.884.576-1.318.177-.435.338-.874.483-1.317.146-.443.26-.839.345-1.187a6.43 6.43 0 0 0 .16-.915c.035-.383.018-.868-.049-1.454" style="fill:none;stroke:#007aff;stroke-width:2.77143;stroke-linecap:round;stroke-linejoin:round;stroke-miterlimit:10;stroke-dasharray:none;stroke-opacity:1" transform="matrix(.72727 0 0 .72727 -219.493 -277.76)"/><path d="M375.296 462.65c-.007.156.017.386.071.69.054.303.166.748.336 1.335.169.587.3 1.053.39 1.396.09.344.186.698.286 1.06.1.362.27.924.514 1.684.244.76.442 1.335.595 1.722.153.389.327.746.522 1.072.195.326.411.643.65.951.238.308.496.646.775 1.013.28.367.562.732.85 1.094.286.362.575.694.864.995a49.581 49.581 0 0 0 1.858 1.818c.333.308.664.611.994.91.33.298.85.73 1.558 1.297a29.632 29.632 0 0 1 1.585 1.339l1.032.964c.34.317.686.61 1.037.877.352.267.72.524 1.106.77.386.247.773.52 1.163.819.39.299.778.604 1.165.915a33.173 33.173 0 0 0 2.243 1.658 27.2 27.2 0 0 1 1.075.766c.35.264.89.756 1.62 1.477l1.616 1.603c.348.347.66.704.936 1.072.276.368.545.742.806 1.122.262.38.51.755.745 1.122.235.367.454.749.658 1.144.204.396.39.866.558 1.412a15.534 15.534 0 0 1 .653 3.434c.048.614.077 1.136.087 1.566.01.43-.001.993-.034 1.692a14.896 14.896 0 0 1-.193 1.874 18.92 18.92 0 0 1-.379 1.689 25.037 25.037 0 0 1-.557 1.776 19.157 19.157 0 0 1-.709 1.739l-.784 1.67a11.421 11.421 0 0 1-1.752 2.722 43.61 43.61 0 0 1-1.002 1.113c-.343.368-.695.73-1.056 1.086-.362.357-.73.686-1.107.987-.376.302-.777.622-1.204.962-.426.34-.862.7-1.308 1.08-.445.38-.894.748-1.345 1.107-.452.359-.91.7-1.373 1.025-.463.325-.915.673-1.357 1.044-.442.37-.891.77-1.348 1.2-.457.43-.91.834-1.359 1.212a22.08 22.08 0 0 0-2.594 2.582c-.436.506-.86.98-1.27 1.422-.41.441-.799.9-1.166 1.375-.368.475-.72.96-1.058 1.455l-.957 1.403a20.31 20.31 0 0 0-1.568 2.756c-.21.451-.405.897-.585 1.338-.18.441-.343.887-.49 1.336-.148.45-.265.852-.35 1.206-.086.354-.14.663-.164.928" style="fill:none;stroke:#007aff;stroke-width:2.81274;stroke-linecap:round;stroke-linejoin:round;stroke-miterlimit:10;stroke-dasharray:none;stroke-opacity:1" transform="matrix(.72727 0 0 .72727 -219.493 -277.76)"/><path d="M334.758 386.067c-.048.339-.061.77-.04 1.294.02.523.046 1.237.076 2.14.047 1.376.127 2.595.24 3.657M337.859 391.805l-.06.163M342.761 386.997c-.294-.152-.553-.231-.776-.237a.863.863 0 0 0-.423.095c-.13.067-.26.161-.387.282-.127.122-.277.35-.449.683a3.39 3.39 0 0 0-.343 1.036 4.867 4.867 0 0 0-.025 1.187c.039.434.157.837.355 1.207.198.371.444.65.736.837.292.187.599.272.92.255.32-.017.612-.17.878-.461.265-.29.478-.665.64-1.123.16-.458.27-.916.328-1.373.059-.457.082-.856.068-1.198-.014-.342-.078-.625-.195-.85-.169-.327-.534-.573-1.094-.737M335.142 461.844c-.223-.222-.39-.37-.501-.441a1.86 1.86 0 0 0-.286-.145 1.46 1.46 0 0 0-.393-.098 2.417 2.417 0 0 0-.479-.005c-.17.015-.352.081-.543.2-.192.12-.376.29-.554.51-.177.221-.325.512-.445.873-.12.36-.19.79-.21 1.288-.02.498.01.986.087 1.465.077.479.242.945.495 1.397.253.453.56.837.922 1.154.36.317.721.519 1.082.606.36.086.706.074 1.036-.037.33-.11.64-.327.93-.649.29-.322.512-.68.666-1.077a4.06 4.06 0 0 0 .263-1.304 7.507 7.507 0 0 0-.07-1.415c-.07-.469-.21-.85-.422-1.142-.213-.293-.453-.492-.719-.597-.387-.152-.843-.083-1.368.208M339.345 467.386l.012.228c0 .004 0 .002-.003-.004l-.128-.393M343.427 463.455c-.169.037-.352-.032-.55-.205-.134-.117-.326-.41-.578-.878a29.458 29.458 0 0 0-.689-1.223 46.585 46.585 0 0 0-.664-1.07 14.918 14.918 0 0 0-.575-.852c-.148-.2-.255-.323-.32-.372-.064-.05-.096-.015-.096.105s.08.345.242.678c.162.332.375.673.64 1.022a4.6 4.6 0 0 0 .801.84c.269.21.543.36.823.447.28.088.562.134.845.138.284.004.565-.037.842-.122.277-.085.527-.187.75-.307.222-.12.405-.244.55-.375a.83.83 0 0 0 .27-.422c.035-.15.042-.289.02-.415-.022-.126-.09-.2-.2-.223-.112-.023-.253.044-.424.203a3.18 3.18 0 0 0-.51.642c-.17.269-.31.622-.421 1.058a9.609 9.609 0 0 0-.244 1.526c-.051.58-.084 1.14-.1 1.68-.023.793.06 1.814.25 3.064M330.45 424.824c.282-.065.79-.116 1.524-.154M337.15 422.023c-.088.005-.18-.045-.274-.15a3.058 3.058 0 0 0-.262-.26.971.971 0 0 0-.305-.172 1.522 1.522 0 0 0-.963.01c-.182.06-.35.185-.503.375-.154.19-.28.459-.377.808a5.733 5.733 0 0 0-.19 1.184c-.028.44-.016.886.034 1.337.051.451.172.873.364 1.266.192.392.425.71.7.953.274.242.564.378.869.408.304.03.594-.083.868-.338.274-.254.493-.587.657-.997.164-.41.268-.838.31-1.281a6.92 6.92 0 0 0 .005-1.32c-.04-.435-.15-.804-.33-1.107-.178-.303-.366-.51-.565-.619-.285-.157-.615-.08-.989.231M340.703 426.374c-.07.163-.18.13-.328-.099M344.603 420.95c-.084-.06-.248-.098-.49-.115a11.32 11.32 0 0 0-1.004.021c-.516.026-.785.129-.806.31-.022.182-.002.379.057.59.06.212.152.486.277.822.125.337.206.547.243.63.036.085.182.106.437.065.254-.041.465-.06.631-.055a.954.954 0 0 1 .512.19 2.645 2.645 0 0 1 .841.968c.085.18.137.366.159.56.021.193-.026.397-.142.611-.116.214-.288.42-.515.617-.228.198-.48.34-.756.43-.276.09-.516.137-.72.143-.29.009-.469-.173-.538-.544M336.887 500.765c.092-.213.045-.48-.139-.8-.123-.214-.245-.364-.366-.452a1.023 1.023 0 0 0-.423-.175 1.447 1.447 0 0 0-.524.008c-.187.035-.368.13-.543.286-.175.157-.33.368-.462.634a3.712 3.712 0 0 0-.303.89c-.07.327-.1.675-.094 1.044.007.37.054.735.14 1.096.086.361.197.661.332.9.136.237.35.463.641.677.292.214.566.338.82.371.255.034.505-.012.748-.136.244-.124.454-.342.631-.651.177-.31.31-.689.398-1.137.089-.448.132-.863.13-1.245 0-.381-.069-.698-.204-.95-.135-.251-.289-.433-.46-.547a.962.962 0 0 0-.827-.123M340.524 503.939l-.19-.312M343.293 500.43a.864.864 0 0 1-.422-.429c-.05-.121-.087-.312-.11-.572a2.46 2.46 0 0 1-.002-.575.813.813 0 0 1 .154-.349c.082-.109.173-.197.274-.265a.92.92 0 0 1 .311-.139.326.326 0 0 1 .296.081c.091.078.175.227.251.448.076.222.143.476.2.764.058.289.104.559.137.81.034.253.057.518.07.796a4.4 4.4 0 0 1-.078.963 7.099 7.099 0 0 1-.26 1.025c-.107.32-.206.547-.297.683-.09.136-.196.208-.317.215-.12.007-.222-.069-.303-.229a2.235 2.235 0 0 1-.183-.508 4.01 4.01 0 0 1-.086-.627c-.016-.239-.01-.391.021-.457.03-.066.133.09.309.467.175.377.352.663.529.859.177.195.363.337.557.423.195.087.39.132.586.135a.7.7 0 0 0 .504-.19c.14-.13.24-.298.301-.502.061-.204.092-.397.093-.578a.848.848 0 0 0-.26-.652M332.595 536.761c.584.005 1.185.037 1.802.095M339.232 533.955c.121-.074.17-.187.148-.34a.431.431 0 0 0-.12-.253.92.92 0 0 0-.256-.17 1.242 1.242 0 0 0-.343-.102 1.505 1.505 0 0 0-.401-.003c-.144.017-.292.1-.443.25-.151.149-.293.363-.427.641a4.922 4.922 0 0 0-.329.929c-.086.34-.135.701-.15 1.08-.013.38.008.758.064 1.134.056.376.165.737.328 1.083s.363.625.602.837c.238.211.492.335.761.372.27.036.55-.031.84-.202.292-.171.568-.42.83-.747a3.23 3.23 0 0 0 .571-1.069 4.05 4.05 0 0 0-.015-2.437c-.132-.409-.276-.721-.43-.94-.155-.217-.306-.357-.452-.42-.214-.092-.454-.077-.721.045M342.943 538.423c.01.097.008.137-.004.12a72.592 72.592 0 0 0-.122-.162M345.19 532.056c.043.298.04.656-.01 1.074-.05.417-.071.796-.066 1.137.006.341.025.58.055.72.031.137.094.253.19.346a.628.628 0 0 0 .339.175c.131.022.273.03.425.02.153-.01.316-.039.49-.088.25-.07.759-.203 1.528-.397" style="fill:none;stroke:#ff21b3;stroke-width:1.00447;stroke-linecap:round;stroke-linejoin:round;stroke-miterlimit:10;stroke-dasharray:none;stroke-opacity:1" transform="matrix(.72727 0 0 .72727 -218.808 -276.903)"/><path d="M347.226 534.051c-.035.444-.034 1.09.001 1.94.034.788.113 2.015.239 3.68" style="fill:none;stroke:#ff21b3;stroke-width:1.00447;stroke-linecap:round;stroke-linejoin:round;stroke-miterlimit:10;stroke-dasharray:none;stroke-opacity:1" transform="matrix(.72727 0 0 .72727 -218.808 -276.903)"/><path d="M473.258 463.52a3.27 3.27 0 0 0-.078-.666c-.056-.294-.17-.724-.342-1.291a63.904 63.904 0 0 1-.396-1.35c-.092-.332-.189-.673-.29-1.023a46.39 46.39 0 0 0-.52-1.626 28.474 28.474 0 0 0-.6-1.663 7.124 7.124 0 0 0-.519-1.032 9.303 9.303 0 0 0-.642-.914c-.235-.295-.49-.62-.765-.972a65.105 65.105 0 0 0-.837-1.05 13.426 13.426 0 0 0-.851-.953 40.099 40.099 0 0 0-.882-.865c-.302-.288-.617-.58-.943-.875a97.338 97.338 0 0 0-.975-.869 36.414 36.414 0 0 0-1.527-1.238 28.773 28.773 0 0 1-1.554-1.278l-1.013-.922a13.034 13.034 0 0 0-1.016-.837 16.323 16.323 0 0 0-1.082-.733 16.213 16.213 0 0 1-1.138-.779 62.665 62.665 0 0 1-1.141-.872 32.266 32.266 0 0 0-2.196-1.579 26.094 26.094 0 0 1-1.052-.73c-.344-.25-.873-.72-1.59-1.411l-1.587-1.533a9.504 9.504 0 0 1-.921-1.028 38.219 38.219 0 0 1-1.532-2.156c-.233-.353-.45-.72-.653-1.101a8.345 8.345 0 0 1-.558-1.361 15.138 15.138 0 0 1-.677-3.321c-.055-.595-.09-1.101-.105-1.518-.015-.416-.011-.963.011-1.641.023-.678.077-1.284.164-1.82.087-.534.202-1.081.346-1.642.144-.56.317-1.137.517-1.73.2-.592.423-1.157.666-1.694l.74-1.63a11.056 11.056 0 0 1 1.664-2.662c.31-.366.629-.73.956-1.09.328-.362.665-.717 1.01-1.067.347-.35.7-.674 1.061-.971.36-.297.746-.613 1.155-.948.41-.335.828-.69 1.255-1.063.427-.374.857-.738 1.29-1.09.434-.354.873-.692 1.318-1.013.445-.32.88-.664 1.303-1.029.423-.364.854-.758 1.292-1.18.437-.423.871-.82 1.301-1.193.43-.372.848-.764 1.253-1.175.404-.411.814-.865 1.23-1.361.416-.496.82-.96 1.213-1.394.392-.434.763-.884 1.113-1.349.35-.465.686-.94 1.008-1.424.32-.485.624-.942.91-1.373a19.708 19.708 0 0 0 1.485-2.692c.198-.44.382-.875.55-1.305.169-.43.322-.863.459-1.301.138-.438.245-.83.324-1.173.078-.344.127-.645.146-.902.03-.378.006-.855-.067-1.43" style="fill:none;stroke:#007aff;stroke-width:2.72738;stroke-linecap:round;stroke-linejoin:round;stroke-miterlimit:10;stroke-dasharray:none;stroke-opacity:1" transform="matrix(.72727 0 0 .72727 -218.026 -277.395)"/><path d="M442.325 387.081c-.005.153.022.379.08.677.057.298.173.734.347 1.31.174.575.308 1.031.401 1.369.094.337.192.683.295 1.039.103.355.28.905.528 1.65.25.745.452 1.308.607 1.688.156.38.332.729.528 1.047.196.318.413.628.651.928.239.3.498.629.777.987.279.357.562.712.85 1.065.287.353.574.675.863.968.289.292.587.585.894.878.308.292.627.588.958.887.33.3.66.594.99.883.328.289.845.708 1.549 1.257.704.548 1.23.98 1.577 1.296l1.028.936c.339.308.682.591 1.032.85.35.258.715.506 1.098.744.382.238.767.501 1.155.79.387.29.773.584 1.157.885a32.702 32.702 0 0 0 2.23 1.603c.362.239.718.486 1.067.74.348.255.886.733 1.612 1.434.727.7 1.264 1.219 1.611 1.555.348.337.66.685.936 1.043a39.29 39.29 0 0 1 1.555 2.188c.235.36.456.732.662 1.118.205.387.394.848.566 1.382a15.284 15.284 0 0 1 .687 3.371c.055.604.09 1.117.106 1.54.015.422.012.978-.011 1.666a14.69 14.69 0 0 1-.167 1.845 18.666 18.666 0 0 1-.351 1.668 24.675 24.675 0 0 1-.525 1.755 18.813 18.813 0 0 1-.676 1.72c-.246.545-.496 1.096-.75 1.654a11.226 11.226 0 0 1-1.69 2.701c-.314.372-.638.741-.97 1.108-.333.366-.675.727-1.026 1.082-.351.355-.71.684-1.076.985-.366.302-.757.622-1.173.962-.415.34-.84.7-1.273 1.079-.433.38-.87.748-1.31 1.107-.44.359-.886.7-1.338 1.027-.451.326-.892.674-1.321 1.044-.43.37-.867.77-1.312 1.199-.444.428-.885.832-1.321 1.21-.437.377-.86.775-1.27 1.192-.411.418-.828.878-1.25 1.381-.422.503-.833.975-1.23 1.415-.399.44-.775.896-1.131 1.368a29.36 29.36 0 0 0-1.022 1.446l-.924 1.393a19.994 19.994 0 0 0-1.507 2.732c-.202.447-.388.888-.56 1.324-.17.437-.326.877-.465 1.321-.14.445-.25.842-.329 1.191a6.42 6.42 0 0 0-.148.915" style="fill:none;stroke:#007aff;stroke-width:2.76804;stroke-linecap:round;stroke-linejoin:round;stroke-miterlimit:10;stroke-dasharray:none;stroke-opacity:1" transform="matrix(.72727 0 0 .72727 -218.026 -277.395)"/><path d="M475.679 540.503a3.27 3.27 0 0 0-.078-.667c-.056-.293-.17-.724-.342-1.29a63.75 63.75 0 0 1-.396-1.35c-.093-.332-.19-.673-.29-1.023a46.31 46.31 0 0 0-.521-1.626 28.527 28.527 0 0 0-.599-1.663 7.145 7.145 0 0 0-.52-1.032 9.305 9.305 0 0 0-.641-.914c-.235-.296-.49-.62-.765-.972a66.125 66.125 0 0 0-.838-1.05 13.4 13.4 0 0 0-.85-.953 40.099 40.099 0 0 0-.882-.865c-.303-.289-.617-.58-.943-.875a95.025 95.025 0 0 0-.976-.87 36.216 36.216 0 0 0-1.526-1.238 28.724 28.724 0 0 1-1.554-1.277l-1.013-.922a13.016 13.016 0 0 0-1.017-.837 16.346 16.346 0 0 0-1.082-.734 16.191 16.191 0 0 1-1.138-.778 63.115 63.115 0 0 1-1.14-.872 32.177 32.177 0 0 0-2.197-1.58 26.023 26.023 0 0 1-1.051-.729c-.344-.25-.874-.721-1.59-1.411-.715-.69-1.245-1.202-1.587-1.534a9.514 9.514 0 0 1-.922-1.027 33.723 33.723 0 0 1-.795-1.078 38.357 38.357 0 0 1-.737-1.078c-.232-.353-.45-.72-.652-1.101a8.342 8.342 0 0 1-.559-1.362 15.13 15.13 0 0 1-.677-3.321c-.054-.595-.089-1.1-.104-1.517-.015-.416-.012-.964.01-1.642.023-.677.078-1.284.165-1.818.086-.535.201-1.083.346-1.643.144-.56.316-1.137.517-1.73.2-.592.422-1.157.665-1.694.243-.538.49-1.08.74-1.63a11.092 11.092 0 0 1 1.664-2.662c.31-.366.63-.73.957-1.09a34.29 34.29 0 0 1 1.01-1.068c.346-.35.7-.673 1.06-.97l1.156-.948c.409-.335.827-.69 1.254-1.063.427-.374.857-.738 1.291-1.091.434-.354.873-.69 1.318-1.012.445-.32.879-.664 1.302-1.029a31.07 31.07 0 0 0 1.292-1.181c.438-.423.872-.82 1.302-1.192.43-.373.848-.764 1.252-1.176.404-.41.815-.864 1.23-1.36.417-.496.82-.96 1.213-1.395.392-.433.764-.883 1.114-1.348.35-.465.686-.94 1.007-1.425l.91-1.372a19.753 19.753 0 0 0 1.485-2.692c.199-.44.382-.875.55-1.305.17-.43.322-.864.46-1.302.137-.438.245-.829.323-1.173.078-.344.127-.644.147-.901.029-.378.006-.855-.068-1.43" style="fill:none;stroke:#007aff;stroke-width:2.72738;stroke-linecap:round;stroke-linejoin:round;stroke-miterlimit:10;stroke-dasharray:none;stroke-opacity:1" transform="matrix(.72727 0 0 .72727 -218.026 -277.395)"/><path d="M444.746 464.064c-.005.153.021.378.079.676.057.298.173.735.348 1.31.174.576.307 1.032.401 1.37.094.337.192.683.295 1.038.103.355.279.906.528 1.65.25.746.452 1.308.607 1.688.156.38.332.73.528 1.048.195.318.412.627.651.928.238.3.497.629.776.986.28.358.563.713.85 1.066.287.352.575.675.864.968a48.523 48.523 0 0 0 1.852 1.765c.33.299.66.593.989.883.329.289.846.708 1.55 1.256.704.55 1.23.981 1.576 1.297l1.029.936c.338.308.682.59 1.032.85.35.258.715.506 1.098.744.382.237.767.5 1.154.79.388.289.773.584 1.158.885a32.608 32.608 0 0 0 2.229 1.603c.363.239.719.486 1.067.74.349.255.887.733 1.613 1.433.726.7 1.263 1.22 1.61 1.556.348.337.66.685.936 1.043.276.359.545.724.808 1.095.262.37.511.735.747 1.094.236.358.457.73.662 1.117.206.387.395.847.567 1.382a15.285 15.285 0 0 1 .687 3.371c.055.604.09 1.117.106 1.54.015.422.011.977-.012 1.665a14.69 14.69 0 0 1-.166 1.846 18.606 18.606 0 0 1-.352 1.667 24.558 24.558 0 0 1-.524 1.756 18.842 18.842 0 0 1-.676 1.72l-.75 1.653a11.247 11.247 0 0 1-1.69 2.701c-.315.373-.638.742-.97 1.108-.334.367-.675.728-1.027 1.083-.35.355-.71.683-1.076.985l-1.172.962c-.416.34-.84.7-1.273 1.079-.434.38-.87.748-1.31 1.107-.44.358-.886.7-1.338 1.026-.451.326-.892.674-1.322 1.044-.43.37-.867.77-1.311 1.2a33.08 33.08 0 0 1-1.322 1.21 21.767 21.767 0 0 0-2.52 2.573c-.422.503-.832.975-1.23 1.415-.398.44-.775.896-1.13 1.368-.356.472-.697.954-1.023 1.446l-.924 1.393a19.972 19.972 0 0 0-1.507 2.732c-.201.446-.387.888-.558 1.324-.172.436-.327.877-.466 1.321-.14.445-.25.841-.329 1.19-.08.35-.129.655-.149.916" style="fill:none;stroke:#007aff;stroke-width:2.76804;stroke-linecap:round;stroke-linejoin:round;stroke-miterlimit:10;stroke-dasharray:none;stroke-opacity:1" transform="matrix(.72727 0 0 .72727 -218.026 -277.395)"/><path d="m379.806 388.725 2.14.05M386.687 385.94c.043-.302-.032-.489-.227-.562-.137-.05-.336-.067-.599-.05a1.592 1.592 0 0 0-.656.169 1.905 1.905 0 0 0-.535.471c-.182.22-.338.5-.467.84a3.57 3.57 0 0 0-.215 1.16c-.013.431.027.876.122 1.335.095.458.257.882.485 1.272.229.39.486.693.773.91.287.217.575.332.863.346.289.014.538-.134.747-.445.209-.31.356-.69.44-1.14.085-.448.138-.934.16-1.457a32.78 32.78 0 0 0 .029-1.444c-.002-.44-.013-.783-.035-1.028-.03-.342-.157-.49-.381-.444M389.173 390.226l-.141.007M391.407 386.47c-.117-.15-.173-.357-.166-.618.004-.174.052-.309.145-.403a.975.975 0 0 1 .294-.212c.102-.046.24-.076.415-.089a.534.534 0 0 1 .44.16c.12.121.209.284.268.49.06.207.098.432.115.675.017.244.018.458.002.642a1.34 1.34 0 0 1-.094.428.676.676 0 0 1-.143.218l-.089.08c-.01.01-.012.01-.009.001l.033-.072c.018-.04.083-.081.194-.123.112-.043.24-.067.385-.072a.796.796 0 0 1 .427.11c.14.077.27.176.391.295.121.118.213.267.277.446.063.179.105.373.126.581.021.208-.03.425-.156.65a1.936 1.936 0 0 1-.52.592 2.283 2.283 0 0 1-.762.381c-.422.123-.87.11-1.343-.039M381.498 423.803c.46-.034.851-.096 1.175-.186.32-.09.78-.192 1.377-.31M388.693 420.949c.078-.201.013-.366-.193-.496a1.464 1.464 0 0 0-.389-.183 1.426 1.426 0 0 0-.406-.04c-.155.004-.327.075-.515.211a2.47 2.47 0 0 0-.548.58c-.177.25-.337.528-.479.835a3.69 3.69 0 0 0-.294 1.005 4.12 4.12 0 0 0 .011 1.198c.063.436.217.84.463 1.21.245.371.529.671.851.9.322.23.653.363.994.402a1.74 1.74 0 0 0 1.01-.198 2.31 2.31 0 0 0 .858-.791c.24-.357.401-.746.484-1.167.083-.422.118-.814.104-1.179-.013-.365-.089-.662-.228-.893-.201-.336-.59-.554-1.166-.655M392.172 425.604l-.088.265M393.94 419.957c.052.507.072 1.112.058 1.813a18.23 18.23 0 0 0 0 1.01c.01.213.038.38.086.5.049.121.127.21.234.27.107.06.306.088.595.087.424 0 .915-.15 1.472-.449" style="fill:none;stroke:#ffd300;stroke-width:1.01981;stroke-linecap:round;stroke-linejoin:round;stroke-miterlimit:10;stroke-dasharray:none;stroke-opacity:1" transform="matrix(.72727 0 0 .72727 -219.493 -277.76)"/><path d="M395.894 421.93c.11.362.194.86.25 1.495.035.41.064.838.089 1.287.036.663.003 1.43-.1 2.3M386.088 462.16c.083-.107.113-.248.09-.422-.021-.174-.072-.293-.152-.356a1.17 1.17 0 0 0-.301-.166 1.708 1.708 0 0 0-.432-.098 2.255 2.255 0 0 0-.529.007c-.185.023-.365.116-.54.28-.176.164-.352.4-.53.705-.178.306-.315.689-.41 1.148-.096.46-.143.943-.14 1.45.003.508.074.993.213 1.456.139.463.33.847.576 1.153.244.305.506.522.784.651.279.13.572.193.88.192.309-.002.61-.11.907-.327.296-.216.56-.502.79-.858a4.1 4.1 0 0 0 .521-1.239c.119-.47.178-.944.177-1.42 0-.476-.063-.88-.189-1.215-.184-.488-.532-.798-1.043-.929M391.26 466.798c.06.232.12.465.178.697M396.347 461.723c-.082-.142-.224-.252-.426-.33a1.571 1.571 0 0 0-.52-.119 1.13 1.13 0 0 0-.463.103 1.326 1.326 0 0 0-.474.376 1.82 1.82 0 0 0-.347.714c-.08.297-.121.659-.125 1.087-.004.428.036.86.12 1.298.083.437.23.805.437 1.103.208.3.455.518.741.656s.582.217.886.238c.304.02.583-.014.838-.102.254-.089.472-.269.654-.54.182-.272.322-.634.42-1.085.098-.452.152-.944.163-1.477.011-.533-.01-1.037-.063-1.512-.053-.475-.162-.842-.327-1.1-.233-.364-.707-.333-1.42.095" style="fill:none;stroke:#ffd300;stroke-width:1.01981;stroke-linecap:round;stroke-linejoin:round;stroke-miterlimit:10;stroke-dasharray:none;stroke-opacity:1" transform="matrix(.72727 0 0 .72727 -219.493 -277.76)"/><path d="M176.86 318.82c.18-.505.318-1.151.418-1.939.064-.513.114-1.057.148-1.633.034-.577.053-2.293.057-5.15.004-2.855-.049-4.892-.157-6.11a41.026 41.026 0 0 0-.517-3.757l-.662-3.602a25.754 25.754 0 0 1-.391-3.38 22.02 22.02 0 0 1 .07-3.265c.102-1.037.313-1.958.631-2.766.468-1.184 1.31-2.57 2.526-4.16" style="fill:none;stroke:#fcfcfc;stroke-width:1.03937;stroke-linecap:round;stroke-linejoin:round;stroke-miterlimit:10;stroke-dasharray:none;stroke-opacity:1" transform="matrix(.72727 0 0 .72727 -125.27 -157.434)"/><path d="M172.766 306.272c.422-.267.908-.724 1.458-1.37a42.378 42.378 0 0 0 1.76-2.235c.903-1.219 2.561-3.307 4.975-6.264M192.889 283.822c-.235.239-.532.592-.89 1.06-.357.467-.766 1.108-1.227 1.922a16 16 0 0 0-1.208 2.738c-.344 1.012-.673 2.625-.989 4.84a41.65 41.65 0 0 0-.398 6.772c.049 2.299.298 4.467.748 6.504.659 2.988 2.47 6.11 5.435 9.366" style="fill:none;stroke:#fcfcfc;stroke-width:1.03937;stroke-linecap:round;stroke-linejoin:round;stroke-miterlimit:10;stroke-dasharray:none;stroke-opacity:1" transform="matrix(.72727 0 0 .72727 -125.27 -157.434)"/><path d="M249.105 314.521c.409.218.75.808 1.021 1.77.177.625.3 1.342.367 2.152.1 1.172-.156 3.206-.765 6.103" style="fill:none;stroke:#fcfcfc;stroke-width:1.03937;stroke-linecap:round;stroke-linejoin:round;stroke-miterlimit:10;stroke-dasharray:none;stroke-opacity:1" transform="matrix(.72727 0 0 .72727 -135.07 -157.187)"/><path d="M427.104 449.724c.206.289.563.886 1.073 1.791.51.906.969 1.898 1.377 2.976a28.485 28.485 0 0 1 1.016 3.242c.268 1.084.516 2.79.743 5.117.228 2.328.281 4.504.161 6.528-.12 2.024-.34 3.89-.662 5.598-.486 2.58-1.098 4.971-1.838 7.176M442.661 461.251c.15.153.743.19 1.783.111 1.678-.128 2.842-.234 3.492-.318M442.92 467.537c.137.165.347.292.633.379.285.087.7.168 1.247.244.792.11 2.172.05 4.142-.178" style="fill:none;stroke:#fcfcfc;stroke-width:1.04334;stroke-linecap:round;stroke-linejoin:round;stroke-miterlimit:10;stroke-dasharray:none;stroke-opacity:1" transform="matrix(.72727 0 0 .72727 -228.725 -276.686)"/><path d="M381.856 502.054a16.79 16.79 0 0 0 2.013-.046M389.181 498.637c-.033-.169-.153-.293-.36-.372-.142-.054-.338-.076-.59-.066-.253.01-.457.04-.613.092-.156.05-.323.177-.5.379a3.316 3.316 0 0 0-.498.797c-.153.33-.274.696-.361 1.099-.088.404-.131.844-.129 1.321.002.477.081.943.237 1.399.156.455.375.817.656 1.086.28.27.596.447.945.532.348.086.702.122 1.06.108a2.369 2.369 0 0 0 1.015-.27 2.18 2.18 0 0 0 .816-.767c.225-.345.392-.747.5-1.207.11-.46.17-.894.184-1.301.014-.408-.016-.735-.09-.982a1.112 1.112 0 0 0-.382-.581c-.262-.202-.782-.385-1.56-.548M393.73 504.297l-.169.17M396.93 498.445c.105-.262.018-.405-.26-.427-.201-.017-.408.045-.62.185-.211.139-.4.298-.563.476-.164.179-.288.37-.37.574a1.74 1.74 0 0 0-.13.637c-.003.22.035.426.113.616a.85.85 0 0 0 .404.438c.191.1.409.15.654.15.351-.003.87-.322 1.557-.958" style="fill:none;stroke:#ffd300;stroke-width:1.01981;stroke-linecap:round;stroke-linejoin:round;stroke-miterlimit:10;stroke-dasharray:none;stroke-opacity:1" transform="matrix(.72727 0 0 .72727 -219.493 -277.76)"/><path d="M398.096 498.54c-.08-.162-.163-.233-.247-.213-.06.013-.106.094-.142.243-.035.149-.062.523-.081 1.124-.02.602-.051 1.49-.096 2.666a64.817 64.817 0 0 0-.062 2.515c.005.757.074 1.463.206 2.12M388.28 534.632a.403.403 0 0 0 .22-.362.466.466 0 0 0-.07-.267.667.667 0 0 0-.202-.19 1.137 1.137 0 0 0-.31-.132 1.479 1.479 0 0 0-.429-.041c-.168.005-.354.066-.56.184a2.012 2.012 0 0 0-.58.53 5.056 5.056 0 0 0-.518.855c-.163.333-.309.697-.436 1.091a4.992 4.992 0 0 0-.229 1.26c-.025.445-.014.845.032 1.2.047.354.097.599.15.735.053.136.166.325.34.567.172.242.456.466.85.67.393.206.787.31 1.182.312.394.002.778-.092 1.154-.283.375-.19.728-.431 1.059-.724.33-.292.615-.612.853-.96.238-.347.409-.7.512-1.056.104-.358.154-.688.151-.993a1.592 1.592 0 0 0-.258-.854 2.855 2.855 0 0 0-.664-.718 4.39 4.39 0 0 0-.876-.531 5.785 5.785 0 0 0-1.395-.443" style="fill:none;stroke:#ffd300;stroke-width:1.01981;stroke-linecap:round;stroke-linejoin:round;stroke-miterlimit:10;stroke-dasharray:none;stroke-opacity:1" transform="matrix(.72727 0 0 .72727 -219.493 -277.76)"/><path d="M388.28 534.632a.403.403 0 0 0 .22-.362.466.466 0 0 0-.07-.267.667.667 0 0 0-.202-.19 1.137 1.137 0 0 0-.31-.132 1.479 1.479 0 0 0-.429-.041c-.168.005-.354.066-.56.184a2.012 2.012 0 0 0-.58.53 5.056 5.056 0 0 0-.518.855c-.163.333-.309.697-.436 1.091a4.992 4.992 0 0 0-.229 1.26c-.025.445-.014.845.032 1.2.047.354.097.599.15.735.053.136.166.325.34.567.172.242.456.466.85.67.393.206.787.31 1.182.312.394.002.778-.092 1.154-.283.375-.19.728-.431 1.059-.724.33-.292.615-.612.853-.96.238-.347.409-.7.512-1.056.104-.358.154-.688.151-.993a1.592 1.592 0 0 0-.258-.854 2.855 2.855 0 0 0-.664-.718 4.39 4.39 0 0 0-.876-.531 5.785 5.785 0 0 0-1.395-.443M393.758 539.498l-.1.202M393.758 539.498l-.1.202M396.123 533.764c.019.36.058.745.117 1.157.06.413.126.784.2 1.113.106.473.355 1.69.747 3.653" style="fill:none;stroke:#ffd300;stroke-width:1.01981;stroke-linecap:round;stroke-linejoin:round;stroke-miterlimit:10;stroke-dasharray:none;stroke-opacity:1" transform="matrix(.72727 0 0 .72727 -219.493 -277.76)"/><path d="M396.123 533.764c.019.36.058.745.117 1.157.06.413.126.784.2 1.113.106.473.355 1.69.747 3.653" style="fill:none;stroke:#ffd300;stroke-width:1.01981;stroke-linecap:round;stroke-linejoin:round;stroke-miterlimit:10;stroke-dasharray:none;stroke-opacity:1" transform="matrix(.72727 0 0 .72727 -219.493 -277.76)"/><path d="M451.445 386.943c-.044.34-.052.77-.026 1.293.027.523.06 1.235.102 2.138.063 1.374.157 2.59.282 3.65M454.61 392.64l-.06.164M459.451 387.78c-.296-.15-.555-.225-.777-.228a.865.865 0 0 0-.422.1c-.13.068-.258.164-.383.286-.126.123-.273.352-.441.688a3.387 3.387 0 0 0-.33 1.038 4.86 4.86 0 0 0-.012 1.186c.044.434.167.835.369 1.203.202.368.45.644.744.827.295.184.602.265.922.244.32-.02.61-.178.872-.471s.47-.67.626-1.13c.155-.459.26-.917.313-1.374.053-.458.071-.857.054-1.198-.018-.342-.086-.624-.205-.848-.172-.324-.54-.565-1.102-.722" style="fill:none;stroke:#ff21b3;stroke-width:1.0036;stroke-linecap:round;stroke-linejoin:round;stroke-miterlimit:10;stroke-dasharray:none;stroke-opacity:1" transform="matrix(.72727 0 0 .72727 -218.026 -277.395)"/><path d="M449.894 425.697a5.992 5.992 0 0 0 1.153-.198c.314-.092.765-.2 1.352-.322M456.937 422.796c.074-.198.008-.36-.196-.485a1.438 1.438 0 0 0-.385-.175 1.398 1.398 0 0 0-.4-.034c-.153.006-.321.077-.505.214-.184.138-.36.33-.532.578a5.18 5.18 0 0 0-.46.828 3.63 3.63 0 0 0-.277.992c-.049.358-.04.751.027 1.18.067.428.224.823.47 1.184.247.362.53.653.85.875.32.22.647.349.983.383.336.034.666-.036.991-.208.325-.172.604-.436.835-.79.231-.354.385-.74.46-1.155.077-.415.106-.802.089-1.161-.018-.359-.097-.65-.236-.876-.203-.328-.588-.537-1.156-.63M460.42 427.333l-.083.261M462.087 421.753c.058.499.085 1.093.081 1.784-.003.451.002.782.013.993.011.21.042.374.091.492a.51.51 0 0 0 .233.262c.107.057.302.083.587.078.418-.007.898-.16 1.443-.46" style="fill:none;stroke:#ffd300;stroke-width:1.0036;stroke-linecap:round;stroke-linejoin:round;stroke-miterlimit:10;stroke-dasharray:none;stroke-opacity:1" transform="matrix(.72727 0 0 .72727 -218.026 -277.395)"/><path d="M464.035 423.67c.114.355.202.844.265 1.468.04.402.075.823.105 1.265.044.652.021 1.407-.069 2.264" style="fill:none;stroke:#ffd300;stroke-width:1.0036;stroke-linecap:round;stroke-linejoin:round;stroke-miterlimit:10;stroke-dasharray:none;stroke-opacity:1" transform="matrix(.72727 0 0 .72727 -218.026 -277.395)"/><path d="M454.343 461.12c-.225-.22-.394-.366-.506-.436a1.847 1.847 0 0 0-.287-.142 1.46 1.46 0 0 0-.394-.092 2.388 2.388 0 0 0-.478 0c-.17.017-.35.086-.54.207-.19.121-.373.293-.547.516-.175.222-.32.515-.436.876-.115.362-.18.792-.194 1.29-.014.498.02.985.103 1.463.083.477.254.94.512 1.39.258.449.57.83.933 1.142.365.312.727.51 1.089.592.36.083.706.067 1.034-.048.329-.115.636-.335.922-.66.286-.324.504-.685.653-1.083a4.06 4.06 0 0 0 .248-1.306 7.49 7.49 0 0 0-.088-1.413c-.073-.467-.218-.846-.434-1.136-.216-.29-.457-.486-.725-.588-.388-.148-.843-.073-1.364.223M458.607 466.607c.01.146.014.222.014.228 0 .004 0 .002-.002-.004l-.134-.392M462.64 462.633c-.169.038-.353-.028-.554-.2-.134-.114-.33-.404-.586-.87a29.55 29.55 0 0 0-.703-1.213 47.25 47.25 0 0 0-.675-1.062c-.24-.366-.434-.647-.585-.844-.15-.197-.258-.32-.323-.369-.065-.048-.097-.012-.096.107.001.12.085.344.25.674.166.33.383.669.652 1.014.27.346.54.622.81.83.27.207.546.353.827.438.28.084.562.127.846.127.284 0 .564-.043.84-.131.275-.089.524-.194.744-.315.221-.122.403-.25.546-.381a.828.828 0 0 0 .265-.425c.033-.151.039-.29.015-.415s-.091-.199-.203-.22c-.111-.023-.252.047-.42.207-.17.16-.337.376-.503.647-.166.27-.302.625-.408 1.063a9.6 9.6 0 0 0-.226 1.527c-.044.58-.07 1.14-.08 1.68-.014.792.081 1.81.285 3.058" style="fill:none;stroke:#ff21b3;stroke-width:1.0036;stroke-linecap:round;stroke-linejoin:round;stroke-miterlimit:10;stroke-dasharray:none;stroke-opacity:1" transform="matrix(.72727 0 0 .72727 -218.026 -277.395)"/><path d="M451.386 503.376c.536.02 1.196-.004 1.981-.071M458.55 499.92c-.034-.166-.154-.287-.359-.362-.14-.052-.333-.07-.581-.057a2.297 2.297 0 0 0-.601.098c-.153.052-.316.178-.489.38a3.263 3.263 0 0 0-.479.79 5.15 5.15 0 0 0-.341 1.086 5.985 5.985 0 0 0-.11 1.302c.009.47.093.927.252 1.373.159.446.379.8.659 1.06.28.262.592.432.936.512.344.08.692.111 1.044.093.352-.018.684-.111.996-.279.313-.168.577-.423.794-.765a3.72 3.72 0 0 0 .476-1.195c.101-.454.156-.881.165-1.282.009-.401-.026-.723-.102-.965a1.093 1.093 0 0 0-.383-.567c-.26-.196-.775-.369-1.542-.519M463.1 505.43l-.164.17M466.173 499.632c.1-.26.014-.4-.261-.418-.198-.013-.4.05-.607.19-.206.14-.39.299-.548.476a1.883 1.883 0 0 0-.358.57c-.079.202-.118.411-.119.628 0 .217.04.419.12.605.078.186.213.328.402.425.19.097.405.143.645.139.347-.006.854-.327 1.521-.962" style="fill:none;stroke:#ffd300;stroke-width:1.0036;stroke-linecap:round;stroke-linejoin:round;stroke-miterlimit:10;stroke-dasharray:none;stroke-opacity:1" transform="matrix(.72727 0 0 .72727 -218.026 -277.395)"/><path d="M467.322 499.71c-.08-.159-.163-.227-.246-.207-.058.014-.103.094-.136.241-.033.147-.055.516-.066 1.108a495.99 495.99 0 0 1-.06 2.624 63.637 63.637 0 0 0-.028 2.476c.014.744.09 1.439.23 2.083" style="fill:none;stroke:#ffd300;stroke-width:1.0036;stroke-linecap:round;stroke-linejoin:round;stroke-miterlimit:10;stroke-dasharray:none;stroke-opacity:1" transform="matrix(.72727 0 0 .72727 -218.026 -277.395)"/><path d="M452.407 537.811c.583-.002 1.183.023 1.8.074M459.005 534.93c.12-.074.168-.188.144-.34a.43.43 0 0 0-.124-.253.915.915 0 0 0-.257-.166 1.244 1.244 0 0 0-.344-.099 1.492 1.492 0 0 0-.4.002c-.144.02-.29.104-.44.255-.15.15-.29.366-.42.646s-.235.59-.317.932a5.196 5.196 0 0 0-.137 1.081c-.01.38.016.757.076 1.132.06.375.174.734.34 1.078.168.344.371.62.612.829.24.209.495.33.765.363.27.033.549-.037.837-.212.289-.174.562-.426.82-.755a3.23 3.23 0 0 0 .558-1.075 4.052 4.052 0 0 0-.044-2.435c-.136-.406-.283-.717-.44-.933-.157-.216-.31-.354-.456-.415-.215-.09-.454-.072-.72.053M462.765 539.351c.01.097.01.137-.003.12l-.125-.16M464.935 532.964c.047.298.048.655.002 1.073a8.49 8.49 0 0 0-.052 1.137c.01.34.03.58.063.718a.682.682 0 0 0 .193.345c.096.092.21.148.341.17.132.02.273.026.425.015a2.33 2.33 0 0 0 .488-.093c.249-.074.756-.212 1.523-.415" style="fill:none;stroke:#ff21b3;stroke-width:1.0036;stroke-linecap:round;stroke-linejoin:round;stroke-miterlimit:10;stroke-dasharray:none;stroke-opacity:1" transform="matrix(.72727 0 0 .72727 -218.026 -277.395)"/><path d="M466.993 534.934c-.03.444-.022 1.09.024 1.939.042.786.136 2.01.28 3.673" style="fill:none;stroke:#ff21b3;stroke-width:1.0036;stroke-linecap:round;stroke-linejoin:round;stroke-miterlimit:10;stroke-dasharray:none;stroke-opacity:1" transform="matrix(.72727 0 0 .72727 -218.026 -277.395)"/></svg>