<svg xmlns="http://www.w3.org/2000/svg" width="146.634" height="244.911"><path d="M233.243 151.474c.637.08 1.234.215 1.793.407.374.128.856.31 1.445.545.59.234 1.27.528 2.041.88a20.97 20.97 0 0 1 2.536 1.409c.92.587 1.885 1.423 2.897 2.508 1.012 1.086 2.1 2.31 3.266 3.674a133.262 133.262 0 0 1 3.6 4.411 65.387 65.387 0 0 1 3.403 4.761 43.79 43.79 0 0 1 2.846 5.14c1.261 2.677 2.85 6.496 4.767 11.458M255.766 193.138l-.282-.77c-.015-.04.04.002.16.125l1.276 1.286a20.533 20.533 0 0 0 2.378 2.052 31.279 31.279 0 0 0 2.78 1.827c.997.584 1.906.963 2.727 1.136.821.174 1.54.116 2.158-.172.885-.413 1.588-2.005 2.11-4.776M153.92 292.896c.068.384-.173.575-.723.572a8.392 8.392 0 0 1-1.828-.235 42.089 42.089 0 0 1-2.539-.693c-1.024-.308-2.273-.752-3.746-1.333-1.473-.582-3.11-1.23-4.912-1.947a164.441 164.441 0 0 1-5.452-2.287 56.256 56.256 0 0 1-5.45-2.77 84.59 84.59 0 0 1-5.244-3.285 28.172 28.172 0 0 1-4.672-3.98 42.67 42.67 0 0 1-3.8-4.615c-1.116-1.575-1.825-2.62-2.128-3.138a25.213 25.213 0 0 1-.786-1.44c-.319-.637-.977-2.003-1.974-4.096M103.938 263.665c-.034.372-.192.426-.475.163-.282-.263-.56-.663-.836-1.198-.275-.535-.541-1.239-.798-2.112a14.314 14.314 0 0 1-.515-2.611c-.087-.868-.074-1.644.04-2.329.114-.685.433-1.165.957-1.44.523-.275 1.213-.34 2.07-.19 1.236.213 3.735.696 7.497 1.448" style="fill:none;stroke:#ffd300;stroke-width:1.03937;stroke-linecap:round;stroke-linejoin:round;stroke-miterlimit:10;stroke-dasharray:none;stroke-opacity:1" transform="matrix(.72727 0 0 .72727 -73.264 -109.785)"/><path d="M372.195 205.659c-2.007.86-4.1 1.85-6.28 2.97a78.068 78.068 0 0 0-6.561 3.796c-2.194 1.411-4.425 3.125-6.69 5.14a81.18 81.18 0 0 0-6.221 6.136 50.241 50.241 0 0 0-5.158 6.788 53.161 53.161 0 0 0-4.07 7.747 46.085 46.085 0 0 0-2.627 8.155 47.879 47.879 0 0 0-1.076 8.213c-.119 2.756.035 5.599.462 8.53a42.07 42.07 0 0 0 2.08 8.355c.96 2.638 2.168 5.291 3.624 7.96a76.111 76.111 0 0 0 4.95 7.867 60.746 60.746 0 0 0 6.063 7.22 73.71 73.71 0 0 0 7.055 6.307 50.298 50.298 0 0 0 8.052 5.166c2.86 1.474 5.774 2.538 8.74 3.19 2.966.654 6.08 1.047 9.341 1.182 3.261.134 6.654.012 10.177-.366a55.687 55.687 0 0 0 10.537-2.193c3.5-1.084 5.823-1.87 6.966-2.358a59.744 59.744 0 0 0 3.113-1.426c.932-.463 2.208-1.143 3.828-2.04 1.62-.898 4.007-2.322 7.16-4.274 3.154-1.951 6.256-4.214 9.305-6.79a112.501 112.501 0 0 0 8.618-8.076 100.5 100.5 0 0 0 7.449-8.687 69.165 69.165 0 0 0 5.918-9.147 67.42 67.42 0 0 0 4.23-9.555 49.795 49.795 0 0 0 2.393-9.87c.45-3.327.622-6.455.516-9.385a32.192 32.192 0 0 0-1.468-8.543 43.064 43.064 0 0 0-3.456-8.012c-1.433-2.575-3.14-4.853-5.121-6.835a71.522 71.522 0 0 0-6.478-5.718 51.196 51.196 0 0 0-7.563-4.902 66.673 66.673 0 0 0-8.363-3.734c-2.87-1.052-5.965-1.917-9.287-2.597-3.322-.68-6.833-1.071-10.533-1.173-3.7-.103-7.465.1-11.295.607-3.83.508-7.684 1.223-11.562 2.147-3.878.924-7.758 2.231-11.641 3.921a69.283 69.283 0 0 0-11.235 6.204c-3.608 2.445-7.104 5.284-10.488 8.518a86.883 86.883 0 0 0-9.468 10.698c-4.32 5.755-8.566 13.087-12.74 21.996" style="fill:none;stroke:#fff;stroke-width:1.03937;stroke-linecap:round;stroke-linejoin:round;stroke-miterlimit:10;stroke-dasharray:none;stroke-opacity:1" transform="matrix(.72727 0 0 .72727 -232.193 -133.067)"/><path d="M400.98 251.78c-.38.16-.648.05-.808-.33-.114-.267-.165-.59-.153-.966.01-.377.08-.624.206-.74.126-.116.343-.19.65-.222.307-.03.544.036.71.202.168.166.3.369.4.609.098.24.156.517.173.83a2.64 2.64 0 0 1-.12.94 1.875 1.875 0 0 1-.433.766 1.36 1.36 0 0 1-.636.385c-.234.06-.49.09-.772.09a1.424 1.424 0 0 1-.749-.202c-.219-.133-.434-.38-.644-.74-.21-.36-.331-.683-.363-.967a3.291 3.291 0 0 1-.002-.78c.03-.236.151-.46.363-.674a2.501 2.501 0 0 1 1.433-.727c.241-.03.448-.03.62 0 .172.031.304.148.396.35.09.201.141.42.15.655.01.235-.047.538-.169.91-.122.371-.272.642-.45.812a.95.95 0 0 1-.591.28.948.948 0 0 1-.618-.17 1.223 1.223 0 0 1-.433-.491 1.5 1.5 0 0 1-.154-.571.68.68 0 0 1 .169-.492c.121-.142.275-.266.46-.371.186-.105.36-.17.52-.197.161-.027.3-.025.415.004.116.03.21.198.283.505.074.308.1.52.078.634-.021.115-.18.219-.478.31-.297.093-.534.12-.711.083-.177-.038-.265-.216-.264-.534.001-.318.068-.535.2-.65.13-.114.216-.05.256.19l.068.404c.005.028.009.035.013.021l.119-.38" style="fill:none;stroke:#fff;stroke-width:1.03937;stroke-linecap:round;stroke-linejoin:round;stroke-miterlimit:10;stroke-dasharray:none;stroke-opacity:1" transform="matrix(.72727 0 0 .72727 -232.193 -133.067)"/><path d="M400.512 249.318c-.126-.12-.214-.366-.264-.737a16.75 16.75 0 0 1-.088-.866 26.89 26.89 0 0 1-.063-1.125c-.015-.412-.023-1.59-.025-3.534-.002-1.944.004-3.146.016-3.608.013-.462.02-1.298.021-2.507.001-1.21 0-2.364-.007-3.463a50.93 50.93 0 0 0-.045-2.255c-.024-.406-.09-.961-.199-1.667a20.871 20.871 0 0 1-.208-1.727c-.03-.445-.046-2.574-.05-6.385-.002-3.81-.007-5.85-.012-6.12-.005-.269-.031-.715-.076-1.34a32.706 32.706 0 0 1-.08-1.922 11.93 11.93 0 0 1 .083-1.697c.063-.473.122-1.099.175-1.876.054-.776.1-1.437.14-1.982.039-.544.062-1.165.07-1.863.008-.697.012-1.359.012-1.986 0-.626.012-1.066.038-1.32.025-.255.039-.672.04-1.251 0-.58-.028-1.08-.085-1.5-.058-.42-.09-.945-.098-1.573a28.19 28.19 0 0 1-.003-1.103l.01-.187M400.03 251.915a.597.597 0 0 1 .206.288c.026.078.075.118.148.121.072.003.131-.04.176-.129.045-.089.101-.15.167-.184l.107-.056c.005-.003.006-.002.003.002l-.064.086a.688.688 0 0 1-.1.113c-.028.023-.03.034-.006.033.023 0 .08 0 .173-.003.092 0 .156-.02.19-.055a.328.328 0 0 0 .075-.175.68.68 0 0 1 .042-.162l.023-.046c.002-.004 0 .004-.005.024l-.063.235a1.458 1.458 0 0 0-.06.451v.006l.003-.03.023-.25c.013-.139.02-.225.024-.257.003-.033 0-.041-.01-.024l-.092.156a1.802 1.802 0 0 1-.215.285c-.092.103-.167.165-.226.185-.059.02-.105-.015-.139-.104-.033-.09-.072-.13-.115-.12a.267.267 0 0 0-.133.095c-.063.074.031.096.283.068M400.553 253.417v-.458.483c0 .299.023.63.07.996.048.366.103.88.166 1.54.063.662.114 1.226.153 1.694.04.468.099 1.104.178 1.907.079.804.134 1.455.164 1.955s.054.993.072 1.478c.017.485.03.923.036 1.314.007.391.015.737.027 1.037.011.3.05.953.118 1.957a97.81 97.81 0 0 1 .152 2.935c.035.952.078 1.757.128 2.415.05.658.092 1.175.125 1.553.033.377.07 1.104.113 2.18.042 1.077.074 1.8.096 2.167.022.368.042.919.061 1.653.02.734.03 1.625.03 2.672 0 1.047.006 1.744.016 2.091.01.347.036.8.08 1.362.044.56.073.966.086 1.217.013.251.02.517.021.798.001.28.03.854.084 1.72.054.865.085 1.541.092 2.026.007.486.017.83.028 1.033.01.203.038.493.082.87.045.377.084 1.113.12 2.21a102.9 102.9 0 0 0 .086 2.208c.022.376.034 1.654.035 3.834.001 2.18.01 3.457.027 3.83.017.373.026.75.026 1.13 0 .38-.074.561-.226.542M398.063 250.26l.296.296h0l-.027-.028-.681-.706a27.6 27.6 0 0 0-1.202-1.178 26.01 26.01 0 0 1-1.128-1.102 30.039 30.039 0 0 1-.816-.867c-.162-.183-.47-.498-.925-.945a52.367 52.367 0 0 1-1.151-1.162 8.73 8.73 0 0 0-.699-.678 12.242 12.242 0 0 0-.673-.495 9.556 9.556 0 0 1-1.009-.835c-.377-.35-.646-.598-.809-.744a21.695 21.695 0 0 0-.672-.571 27.43 27.43 0 0 1-.977-.849c-.365-.331-.804-.69-1.318-1.076a29.845 29.845 0 0 1-1.047-.811 11.617 11.617 0 0 1-.575-.518c-.198-.19-.46-.454-.79-.793a32.637 32.637 0 0 0-.7-.708 9.811 9.811 0 0 1-.625-.697 22.729 22.729 0 0 0-1.078-1.18c-.442-.455-.824-.82-1.148-1.097a136.26 136.26 0 0 0-.959-.81 41.915 41.915 0 0 1-1.24-1.093 63.843 63.843 0 0 1-1.033-.954 20.77 20.77 0 0 1-.77-.799 19.118 19.118 0 0 0-.767-.794 19.733 19.733 0 0 0-.865-.752l-1.214-1.014c-.408-.341-.817-.67-1.226-.989a19.084 19.084 0 0 1-1.276-1.093c-.442-.41-1.084-1.026-1.928-1.845-.843-.82-1.357-1.305-1.542-1.458-.184-.153-.45-.35-.798-.592a7.064 7.064 0 0 1-.778-.604c-.17-.16-.404-.433-.704-.818a9.503 9.503 0 0 0-.623-.75 6.254 6.254 0 0 0-.579-.48c-.27-.204-.555-.44-.857-.706a9.076 9.076 0 0 0-.757-.614 5.938 5.938 0 0 1-.628-.514c-.214-.2-.42-.37-.615-.512a8.765 8.765 0 0 0-.541-.366 5.767 5.767 0 0 1-.637-.48 7.566 7.566 0 0 1-.72-.69 9.593 9.593 0 0 1-.605-.719c-.012-.015-.01-.016.007-.004l.376.286" style="fill:none;stroke:#fff;stroke-width:1.03937;stroke-linecap:round;stroke-linejoin:round;stroke-miterlimit:10;stroke-dasharray:none;stroke-opacity:1" transform="matrix(.72727 0 0 .72727 -232.193 -133.067)"/><path d="M425.125 253.219c.001.152-.008.204-.027.154l-.106-.266c-.057-.142-.109-.43-.157-.865-.047-.434-.084-.96-.11-1.578a60.664 60.664 0 0 1-.049-1.881 46.145 46.145 0 0 1 .016-1.847 9.437 9.437 0 0 1 .141-1.49c.077-.4.182-.743.314-1.033a2.26 2.26 0 0 1 .47-.697 1.52 1.52 0 0 1 .626-.369c.235-.07.483-.092.741-.064.26.028.523.142.792.341.268.2.537.457.807.773.27.317.529.703.777 1.159.247.456.459.977.633 1.561s.313 1.193.416 1.825c.103.633.174 1.263.213 1.89.06.964.075 1.774.046 2.431" style="fill:none;stroke:#7ec636;stroke-width:1.03937;stroke-linecap:round;stroke-linejoin:round;stroke-miterlimit:10;stroke-dasharray:none;stroke-opacity:1" transform="matrix(.72727 0 0 .72727 -233.496 -133.067)"/><path d="M425.83 249.115c.768-.203 1.68-.385 2.736-.546" style="fill:none;stroke:#7ec636;stroke-width:1.03937;stroke-linecap:round;stroke-linejoin:round;stroke-miterlimit:10;stroke-dasharray:none;stroke-opacity:1" transform="matrix(.72727 0 0 .72727 -233.496 -133.067)"/><path d="M403.403 206.107c.042-.148.301-.49.778-1.027l.894-1.007c.12-.136.474-.482 1.064-1.038.867-.817 1.993-1.827 3.378-3.03M402.641 215.227c-.044-.035-.039-.091.017-.168.055-.077.27-.27.648-.581.377-.311.648-.539.814-.684.167-.145.527-.496 1.082-1.053a43.293 43.293 0 0 1 1.922-1.802 92.403 92.403 0 0 0 2.365-2.181c.85-.81 1.713-1.584 2.587-2.321.874-.738 1.727-1.438 2.56-2.101a51.948 51.948 0 0 1 2.374-1.79 107.771 107.771 0 0 0 3.964-2.968M404.187 224.183c.038-.168.184-.403.438-.706.255-.302.84-.841 1.755-1.616a52.653 52.653 0 0 0 2.113-1.864 56.022 56.022 0 0 1 2.15-1.9c.94-.8 1.851-1.607 2.735-2.422a518.08 518.08 0 0 1 2.741-2.51c.944-.86 2.374-2.079 4.288-3.657 1.914-1.579 3.295-2.684 4.142-3.315 1.267-.942 2.6-1.904 4-2.885M404.035 233.223c-.27.218-.38.318-.334.298l.25-.106c.132-.057.365-.218.697-.482.332-.265.754-.64 1.265-1.128a67.789 67.789 0 0 1 1.753-1.606c.658-.583 1.4-1.261 2.225-2.033a72.558 72.558 0 0 1 2.63-2.338c.93-.787 1.884-1.616 2.865-2.487l3.219-2.86a107.787 107.787 0 0 1 3.175-2.727 78.373 78.373 0 0 0 1.987-1.67c.373-.33 1.09-.91 2.152-1.734a135.301 135.301 0 0 1 3.105-2.346 53.667 53.667 0 0 1 2.766-1.91c.836-.534 1.608-1.033 2.316-1.496 1.05-.688 2.278-1.34 3.684-1.954M405.487 241.119c-.18.18-.28.297-.3.353-.014.04.034.044.144.012.11-.031.265-.115.469-.25.203-.136.504-.385.902-.748.399-.363.854-.82 1.365-1.37.511-.55 1.129-1.175 1.854-1.876.725-.7 1.548-1.51 2.47-2.43a132.886 132.886 0 0 1 6.504-6.056c1.26-1.099 2.574-2.201 3.94-3.307a140.117 140.117 0 0 1 3.573-2.808c1.015-.766 1.733-1.31 2.156-1.628.422-.32 1.227-.914 2.414-1.785 1.188-.87 2.363-1.717 3.527-2.539 1.164-.821 1.924-1.34 2.28-1.554a18.9 18.9 0 0 1 1.502-.787c.938-.45 2.468-1.103 4.589-1.958M407.612 250.107l-.16.053c-.005.002-.005.002 0 .002l.092-.003c.056-.002.198-.085.425-.25.227-.164.464-.358.71-.581.248-.223.594-.559 1.04-1.006a65.4 65.4 0 0 0 1.523-1.588 44.31 44.31 0 0 1 1.855-1.871c.666-.636 1.392-1.335 2.175-2.098a158.71 158.71 0 0 1 2.614-2.484c.96-.893 1.927-1.763 2.9-2.609.975-.846 1.992-1.723 3.052-2.631 1.06-.908 2.145-1.834 3.254-2.778a66.94 66.94 0 0 1 2.624-2.148c.64-.488 1.242-.964 1.804-1.43.562-.464 1.448-1.19 2.659-2.175 1.21-.985 2.389-1.926 3.535-2.823 1.146-.897 2.25-1.727 3.315-2.491a61.034 61.034 0 0 1 2.98-2.02c1.346-.851 3.383-2.013 6.11-3.488M406.436 263.395c.163-.26.55-.67 1.162-1.233.379-.347.665-.613.86-.798.193-.184.391-.362.592-.535.2-.173.531-.465.99-.878.46-.413.952-.882 1.476-1.405a24.004 24.004 0 0 1 1.634-1.489c.829-.688 1.947-1.632 3.355-2.833M435.63 241.57l-.122.081c-.011.007.006.001.049-.017l.286-.122c.148-.062.362-.194.641-.395a17.115 17.115 0 0 0 2.181-1.908c.414-.425.851-.86 1.313-1.306.462-.446.961-.92 1.496-1.421a235.2 235.2 0 0 1 1.665-1.544 23.14 23.14 0 0 1 1.767-1.47 36.3 36.3 0 0 0 1.803-1.449 64.817 64.817 0 0 1 1.818-1.498c.612-.486 1.195-.96 1.749-1.418l1.652-1.368a21.908 21.908 0 0 1 1.551-1.18c.487-.334.935-.626 1.344-.878.599-.368 1.453-.774 2.561-1.219M409.352 277.105c.266-.151.566-.36.9-.625a26.82 26.82 0 0 0 1.001-.856c.45-.397.862-.761 1.24-1.091.377-.33.85-.718 1.415-1.165a47.926 47.926 0 0 0 1.935-1.626c.724-.637 1.486-1.298 2.286-1.982.8-.685 1.679-1.453 2.637-2.306a81.14 81.14 0 0 1 1.938-1.692c.334-.275.925-.769 1.772-1.481.846-.713 1.842-1.522 2.987-2.428a282.456 282.456 0 0 0 3.125-2.506 66.296 66.296 0 0 1 1.923-1.53c.344-.255 1.651-1.3 3.923-3.139a440.492 440.492 0 0 0 5.176-4.236 217.685 217.685 0 0 0 6.661-5.804 85.734 85.734 0 0 1 2.694-2.36 247.837 247.837 0 0 1 5.039-4.059M410.34 285.807c.342-.264.756-.532 1.24-.803.318-.178.746-.42 1.284-.727a17.666 17.666 0 0 0 1.782-1.185 147.26 147.26 0 0 1 2.175-1.585c.8-.573 1.672-1.23 2.615-1.968.944-.738 1.927-1.496 2.949-2.272a222.328 222.328 0 0 0 3.313-2.571c1.186-.938 2.396-1.88 3.628-2.826a194.446 194.446 0 0 1 3.733-2.798 904.315 904.315 0 0 0 3.798-2.79 346.4 346.4 0 0 0 3.863-2.896 193.95 193.95 0 0 1 3.892-2.885 70.134 70.134 0 0 1 3.712-2.514c1.733-1.09 4.086-2.423 7.06-4.002M409.262 295.31c.042-.095.2-.235.473-.42.273-.186.8-.5 1.58-.942l2.085-1.181c.61-.345 1.291-.739 2.045-1.18.753-.44 1.526-.926 2.318-1.455a74.842 74.842 0 0 1 2.655-1.687c.978-.595 2.02-1.255 3.128-1.978a63.287 63.287 0 0 1 3.321-2.027c1.107-.629 2.22-1.282 3.34-1.958 1.652-.997 3.717-2.126 6.194-3.387" style="fill:none;stroke:#507500;stroke-width:1.03937;stroke-linecap:round;stroke-linejoin:round;stroke-miterlimit:10;stroke-dasharray:none;stroke-opacity:1" transform="matrix(.72727 0 0 .72727 -232.193 -133.067)"/><path d="M360.554 257.286a4.25 4.25 0 0 0-.058.896c.01.176.066.563.167 1.161a62.249 62.249 0 0 1 .53 3.995c.104 1.054.285 2.201.542 3.441M360.963 258.552a2.362 2.362 0 0 1-.195-1.277c.033-.314.137-.59.311-.825.175-.237.378-.41.61-.519.23-.11.46-.16.688-.151.229.008.432.108.612.298s.319.429.417.714c.099.285.17.57.213.856a7.416 7.416 0 0 1 .08 1.43.928.928 0 0 1-.075.358c-.042.084.087.12.389.106.301-.013.596.006.885.058a3.054 3.054 0 0 1 1.728 1.017c.254.292.446.624.575.995.13.371.206.775.23 1.212.022.437-.077.884-.299 1.342-.221.458-.548.88-.979 1.268a5.45 5.45 0 0 1-1.431.932c-.757.338-1.526.183-2.308-.464" style="fill:none;stroke:#f59a23;stroke-width:1.03937;stroke-linecap:round;stroke-linejoin:round;stroke-miterlimit:10;stroke-dasharray:none;stroke-opacity:1" transform="matrix(.72727 0 0 .72727 -232.54 -131.417)"/><path d="M396.987 304.742a9.168 9.168 0 0 1-.237-1.566 89.008 89.008 0 0 0-.16-1.965c-.068-.754-.147-1.582-.236-2.485a177.06 177.06 0 0 0-.324-3.009 247.398 247.398 0 0 1-.382-3.54 65.797 65.797 0 0 1-.273-3.892 112.608 112.608 0 0 1-.091-4.213l-.016-4.473a258.505 258.505 0 0 0-.059-4.662 3587.96 3587.96 0 0 1-.098-4.746 324.79 324.79 0 0 1-.06-4.419 57.188 57.188 0 0 1 .08-3.658c.061-1.06.16-2.069.293-3.026.202-1.444.489-2.8.86-4.07M387.486 306.16c-.096.078-.185.042-.267-.11-.06-.109-.11-.397-.155-.864a58.816 58.816 0 0 1-.136-1.855c-.047-.77-.109-1.666-.185-2.69a108.59 108.59 0 0 1-.28-7.092c-.01-1.313-.015-5.384-.016-12.212 0-6.828.01-11.06.034-12.697.024-1.638.058-3.19.103-4.656.045-1.466.096-2.924.153-4.374.083-2.113.334-5.285.751-9.515M378.805 305.344c-.143-.029-.257-.141-.34-.338a2.508 2.508 0 0 1-.173-.63c-.031-.223-.06-.74-.087-1.553-.027-.812-.051-1.705-.073-2.681a234.603 234.603 0 0 0-.252-6.796c-.065-1.306-.14-2.707-.222-4.202-.083-1.496-.155-3.05-.216-4.665-.06-1.614-.104-3.293-.129-5.038-.025-1.744-.043-3.56-.055-5.446-.011-1.886-.027-3.77-.047-5.652-.02-1.881-.044-3.808-.07-5.779a781.747 781.747 0 0 1-.058-5.857c-.011-1.933-.01-3.719.003-5.357a92.19 92.19 0 0 1 .143-4.574c.082-1.41.165-2.566.25-3.468.13-1.386.297-2.543.503-3.472M368.571 301.555a8.588 8.588 0 0 1-.167-.918c-.024-.19-.056-.782-.098-1.775-.041-.992-.121-2.364-.24-4.116a196.21 196.21 0 0 1-.25-4.265 179.9 179.9 0 0 1-.166-7.312c-.004-1.84.113-4.628.352-8.365M367.915 248.416c-.199.087-.35.027-.452-.182-.072-.147-.115-.45-.13-.91-.013-.458-.011-.988.008-1.588.019-.6.044-1.203.075-1.81.03-.607.05-1.262.057-1.965a70.992 70.992 0 0 0-.088-4.464c-.04-.801-.073-1.582-.1-2.342-.041-1.113-.03-2.594.033-4.442M357.593 296.047c-.123-.441-.19-1.018-.203-1.73a43.104 43.104 0 0 1 .007-1.624c.013-.622.037-1.29.073-2.004.036-.715.06-1.49.073-2.326.013-.836.012-1.719 0-2.65-.014-.93-.031-1.883-.051-2.86a142.38 142.38 0 0 1 .016-5.441M356.961 254.272c-.027-.313-.044-.83-.051-1.551-.008-.72-.004-1.305.01-1.751.014-.447.044-1.077.088-1.892s.09-1.689.138-2.62c.048-.933.098-1.947.15-3.044.051-1.097.12-2.735.206-4.914a437.2 437.2 0 0 1 .214-4.92 89.11 89.11 0 0 1 .221-3.203c.09-1.033.186-2.022.286-2.967.148-1.4.343-2.981.585-4.74M349.686 284.644c-.17-.096-.3-.29-.393-.584-.092-.294-.16-.81-.204-1.55-.045-.738-.087-1.54-.126-2.402-.039-.863-.147-2.475-.325-4.837a319.531 319.531 0 0 1-.387-5.677c-.08-1.423-.14-2.933-.176-4.53a232.994 232.994 0 0 1-.062-4.875c-.004-1.653.004-3.273.023-4.86.018-1.588.055-3.164.11-4.73.054-1.567.115-3.075.182-4.525.067-1.45.132-2.807.196-4.07.064-1.262.147-2.387.248-3.373.153-1.482.444-2.895.872-4.24M341.777 268.015c-.094-.271-.177-.726-.25-1.365a45.689 45.689 0 0 1-.188-2.309c-.055-.9-.156-2.287-.305-4.16a212.7 212.7 0 0 1-.33-4.683c-.102-1.805-.015-5.054.262-9.745" style="fill:none;stroke:#a35c00;stroke-width:1.03937;stroke-linecap:round;stroke-linejoin:round;stroke-miterlimit:10;stroke-dasharray:none;stroke-opacity:1" transform="matrix(.72727 0 0 .72727 -232.193 -133.067)"/><path d="M388.498 217.792c.145-.093.218-.195.22-.307a.556.556 0 0 0-.068-.255.92.92 0 0 0-.257-.288 1.278 1.278 0 0 0-.512-.224 2.53 2.53 0 0 0-.807-.027 2.408 2.408 0 0 0-.968.328 3.21 3.21 0 0 0-.875.754c-.26.316-.479.692-.658 1.128-.18.436-.298.96-.356 1.571a6.8 6.8 0 0 0 .054 1.765 4.18 4.18 0 0 0 .54 1.504c.267.438.613.747 1.038.927.424.181.885.222 1.381.123.497-.098.989-.338 1.476-.72.721-.562 1.505-1.288 2.351-2.175" style="fill:none;stroke:#007aff;stroke-width:1.03937;stroke-linecap:round;stroke-linejoin:round;stroke-miterlimit:10;stroke-dasharray:none;stroke-opacity:1" transform="matrix(.72727 0 0 .72727 -232.193 -133.067)"/><path d="M395.49 243.724c-.108.02-.176.034-.203.04-.02.003.008-.033.08-.108.073-.076.22-.23.443-.46.321-.333.975-.783 1.96-1.349M391.169 238.068c-.223.129-.35.203-.385.222-.023.014-.03.014-.022 0l.08-.124c.043-.07.163-.206.359-.412.195-.205.461-.49.798-.855.337-.366.744-.763 1.222-1.194.7-.631 1.666-1.44 2.894-2.424M386.082 233.213c.138-.2.342-.44.614-.72.271-.281.616-.593 1.034-.936l1.487-1.216a46.816 46.816 0 0 1 1.872-1.45c.99-.728 2.384-1.631 4.184-2.709M377.007 227.824c.148-.197.354-.424.618-.679.382-.369 1.092-1.067 2.128-2.095M395.346 216.322c.026-.068.127-.182.303-.342.25-.229 1.064-.92 2.442-2.072M371.996 220.686c.128-.14.301-.3.52-.476a28.672 28.672 0 0 0 1.847-1.633c.446-.422.981-.889 1.607-1.399a158.79 158.79 0 0 0 2.045-1.698 29.324 29.324 0 0 1 2.44-1.838c.888-.603 1.85-1.229 2.884-1.877a36.212 36.212 0 0 1 3.094-1.741 108.528 108.528 0 0 1 4.272-2.024 26.75 26.75 0 0 1 1.493-.616c.354-.134 1.258-.435 2.71-.904M368.745 214.386c-.227.116-.315.09-.264-.08.036-.123.19-.31.46-.562.269-.252.593-.556.97-.912a89.09 89.09 0 0 0 1.395-1.348 19.419 19.419 0 0 1 1.933-1.648c.737-.556 1.534-1.14 2.393-1.754a27.493 27.493 0 0 1 2.73-1.714c.962-.529 1.978-1.084 3.05-1.664a39.406 39.406 0 0 1 3.275-1.584 70.493 70.493 0 0 1 3.014-1.216c.896-.335 1.534-.57 1.914-.703.542-.191 2.573-.605 6.092-1.242" style="fill:none;stroke:#03468f;stroke-width:1.03937;stroke-linecap:round;stroke-linejoin:round;stroke-miterlimit:10;stroke-dasharray:none;stroke-opacity:1" transform="matrix(.72727 0 0 .72727 -232.193 -133.067)"/><path d="M377.104 662.44a104.167 104.167 0 0 0 4.895 5.31 81.207 81.207 0 0 0 5.803 5.335c2.082 1.74 4.474 3.422 7.177 5.046a84.386 84.386 0 0 0 8.02 4.27 52.239 52.239 0 0 0 8.336 3.015 55.286 55.286 0 0 0 8.952 1.635 47.92 47.92 0 0 0 8.91.08 49.794 49.794 0 0 0 8.484-1.481c2.772-.737 5.546-1.771 8.324-3.104a43.746 43.746 0 0 0 7.646-4.656c2.32-1.772 4.58-3.794 6.776-6.065a79.145 79.145 0 0 0 6.273-7.355 63.186 63.186 0 0 0 5.285-8.257 76.652 76.652 0 0 0 4.072-8.958 52.304 52.304 0 0 0 2.63-9.594c.576-3.296.727-6.518.455-9.665-.272-3.146-.847-6.359-1.725-9.637-.878-3.278-2.051-6.607-3.52-9.987a57.918 57.918 0 0 0-5.445-9.777c-2.161-3.139-3.661-5.2-4.5-6.183a62.134 62.134 0 0 0-2.382-2.647c-.748-.782-1.82-1.837-3.212-3.167-1.393-1.33-3.547-3.257-6.462-5.781-2.915-2.525-6.124-4.901-9.625-7.13a116.998 116.998 0 0 0-10.69-6.047 104.507 104.507 0 0 0-10.932-4.699c-3.664-1.328-7.302-2.34-10.914-3.037a70.111 70.111 0 0 0-10.796-1.235 51.78 51.78 0 0 0-10.539.687c-3.44.585-6.599 1.385-9.473 2.4a33.466 33.466 0 0 0-8.025 4.106 44.764 44.764 0 0 0-6.88 5.916c-2.11 2.22-3.842 4.621-5.194 7.203a74.365 74.365 0 0 0-3.666 8.202 53.227 53.227 0 0 0-2.52 9.028 69.332 69.332 0 0 0-1.112 9.458c-.154 3.174-.053 6.515.303 10.023s1.057 7.114 2.103 10.818a73.755 73.755 0 0 0 4.106 11.022 119.71 119.71 0 0 0 5.717 10.81c2.12 3.562 4.621 7.008 7.503 10.337a72.052 72.052 0 0 0 9.642 9.227c3.546 2.822 7.448 5.41 11.707 7.768a90.352 90.352 0 0 0 13.555 6.077c7.052 2.502 15.646 4.443 25.783 5.821" style="fill:none;stroke:#fff;stroke-width:1.08079;stroke-linecap:round;stroke-linejoin:round;stroke-miterlimit:10;stroke-dasharray:none;stroke-opacity:1" transform="matrix(.72727 0 0 .72727 -234.442 -255.535)"/><path d="M413.952 619.564c.275.326.25.628-.077.904-.231.195-.535.346-.913.452-.377.106-.643.114-.798.025-.154-.09-.295-.282-.421-.577s-.133-.55-.02-.768c.112-.217.272-.412.48-.584.208-.172.465-.316.77-.43.306-.116.63-.173.97-.173.342 0 .64.063.894.192.255.129.448.3.58.512.133.213.242.46.328.738.086.279.097.548.033.807-.065.258-.243.548-.535.868-.293.32-.575.54-.847.66s-.53.2-.773.244c-.244.044-.504-.007-.782-.15a2.597 2.597 0 0 1-1.166-1.197 2.203 2.203 0 0 1-.191-.616c-.023-.18.051-.348.223-.5.172-.154.374-.272.604-.354.23-.082.55-.12.955-.114.407.006.722.07.946.194.224.124.378.29.462.5.084.21.092.432.022.667-.07.234-.188.428-.353.581a1.56 1.56 0 0 1-.519.33.706.706 0 0 1-.54-.014c-.18-.077-.35-.191-.511-.343a1.668 1.668 0 0 1-.357-.455 1.056 1.056 0 0 1-.125-.412c-.006-.124.132-.27.414-.438.283-.168.485-.26.605-.274.121-.015.273.111.457.378s.284.493.302.68c.018.188-.132.33-.448.428-.316.097-.552.099-.706.004-.155-.095-.118-.2.108-.315l.38-.192c.027-.013.032-.02.017-.02h-.414" style="fill:none;stroke:#fff;stroke-width:1.08079;stroke-linecap:round;stroke-linejoin:round;stroke-miterlimit:10;stroke-dasharray:none;stroke-opacity:1" transform="matrix(.72727 0 0 .72727 -234.442 -255.535)"/><path d="M411.653 620.792c-.08.162-.298.326-.65.49-.227.105-.505.224-.832.356a27.96 27.96 0 0 1-1.097.411c-.404.143-1.57.517-3.5 1.122-1.928.604-3.124.972-3.586 1.103-.463.13-1.294.383-2.495.757a527.85 527.85 0 0 0-3.434 1.08c-1.089.348-1.83.596-2.225.745-.395.15-.926.387-1.592.714-.666.327-1.216.575-1.65.742-.433.168-2.54.844-6.322 2.03a1054.82 1054.82 0 0 0-6.07 1.911 31.31 31.31 0 0 0-1.306.491c-.606.238-1.234.463-1.883.675-.65.212-1.22.36-1.71.445-.49.084-1.129.22-1.916.407l-2.01.477c-.553.13-1.177.3-1.872.508-.694.209-1.352.41-1.974.605-.622.194-1.063.318-1.323.371-.26.054-.678.17-1.254.35a11.66 11.66 0 0 0-1.462.548c-.4.188-.91.383-1.53.585-.622.202-.986.318-1.095.345l-.188.048M414.38 620.465a.621.621 0 0 1 .222-.294c.069-.05.094-.112.074-.184-.02-.073-.08-.118-.183-.136a.419.419 0 0 1-.235-.108l-.088-.09c-.004-.003-.004-.004.001-.003l.105.037a.71.71 0 0 1 .143.064c.031.02.043.02.036-.004l-.057-.17c-.03-.092-.068-.149-.114-.173a.34.34 0 0 0-.196-.019.738.738 0 0 1-.174.01 1.793 1.793 0 0 1-.054-.01l.026-.002.252-.01c.147-.006.259-.02.335-.042l.133-.038.006-.002-.03.006-.257.055-.263.056c-.033.007-.04.013-.02.018l.184.042c.102.023.218.065.349.125.13.059.215.115.253.167.039.052.019.108-.06.17-.08.06-.107.111-.083.151.024.04.069.074.136.103.092.04.085-.061-.02-.302M415.708 619.48c-.292.09-.443.138-.454.142h-.004l.015-.004.468-.147c.296-.092.618-.219.967-.379.348-.16.84-.374 1.477-.642.637-.267 1.182-.493 1.634-.677.452-.184 1.064-.44 1.837-.768a57.37 57.37 0 0 1 1.89-.77 71.889 71.889 0 0 1 2.738-.973c.385-.127.725-.243 1.02-.348.294-.104.93-.346 1.906-.724.976-.378 1.93-.732 2.865-1.062.934-.33 1.72-.621 2.357-.875.638-.254 1.139-.456 1.503-.606.364-.15 1.074-.413 2.13-.789 1.055-.376 1.762-.632 2.12-.767.358-.136.899-.327 1.621-.573.723-.247 1.604-.533 2.643-.859 1.04-.325 1.73-.547 2.071-.664a29.24 29.24 0 0 0 1.326-.502c.543-.218.937-.372 1.182-.463.245-.09.507-.18.785-.269.278-.088.839-.294 1.681-.616a47.246 47.246 0 0 1 1.983-.72c.48-.158.818-.274 1.017-.348.198-.074.477-.191.837-.352.36-.16 1.079-.429 2.156-.804 1.077-.375 1.799-.632 2.165-.77.367-.139 1.632-.547 3.795-1.225 2.164-.677 3.428-1.082 3.793-1.214.365-.133.736-.258 1.114-.377.377-.118.58-.1.607.056M413.348 622.93l.201-.385v-.002l-.02.036-.488.895c-.31.567-.576 1.086-.797 1.558-.222.472-.47.96-.743 1.462-.274.502-.477.861-.608 1.079-.131.217-.349.62-.651 1.21-.303.59-.568 1.092-.797 1.504-.228.412-.38.713-.456.904-.075.19-.17.463-.282.821a9.957 9.957 0 0 1-.516 1.26c-.23.483-.393.828-.487 1.034-.094.207-.214.489-.358.845-.145.356-.325.767-.54 1.232a19.557 19.557 0 0 0-.66 1.642c-.223.629-.383 1.06-.48 1.291-.096.232-.208.476-.335.731a33.37 33.37 0 0 1-.543 1.03c-.234.431-.396.736-.485.915-.09.179-.255.457-.498.836-.243.38-.522.858-.837 1.437a17.908 17.908 0 0 0-.732 1.479c-.173.407-.342.808-.506 1.203-.164.395-.398.918-.701 1.57a66.344 66.344 0 0 1-.626 1.321c-.114.23-.299.567-.554 1.012-.256.445-.439.781-.55 1.008-.112.226-.271.59-.479 1.092l-.63 1.52a45.96 45.96 0 0 0-.6 1.522c-.19.505-.419 1.04-.69 1.606-.27.566-.681 1.394-1.233 2.486-.551 1.09-.874 1.752-.969 1.982-.094.23-.207.556-.34.976-.132.421-.252.74-.358.96-.107.218-.304.535-.593.952-.289.416-.472.7-.551.85a6.49 6.49 0 0 0-.297.724c-.12.332-.265.688-.435 1.07-.171.382-.296.696-.375.942a6.159 6.159 0 0 1-.315.782 6.937 6.937 0 0 0-.317.77c-.08.238-.146.455-.196.65a5.99 5.99 0 0 1-.28.782c-.135.324-.289.634-.461.929-.172.295-.3.501-.383.62l-.142.203c-.012.016-.014.014-.006-.005l.167-.463" style="fill:none;stroke:#fff;stroke-width:1.08079;stroke-linecap:round;stroke-linejoin:round;stroke-miterlimit:10;stroke-dasharray:none;stroke-opacity:1" transform="matrix(.72727 0 0 .72727 -234.442 -255.535)"/><path d="M408.445 596.93c.151-.047.205-.054.162-.02l-.231.188c-.124.1-.394.241-.81.424-.416.182-.927.381-1.533.599a62.94 62.94 0 0 1-1.851.631c-.63.204-1.242.39-1.838.558a9.814 9.814 0 0 1-1.524.322c-.42.047-.793.05-1.121.008a2.357 2.357 0 0 1-.838-.25 1.584 1.584 0 0 1-.56-.506 1.924 1.924 0 0 1-.294-.717c-.052-.265-.021-.563.093-.891.115-.329.287-.676.517-1.042.23-.365.533-.742.91-1.13a8.466 8.466 0 0 1 1.352-1.112c.526-.354 1.087-.68 1.683-.98a19.865 19.865 0 0 1 1.81-.797 24.445 24.445 0 0 1 2.398-.8" style="fill:none;stroke:#7ec636;stroke-width:1.08079;stroke-linecap:round;stroke-linejoin:round;stroke-miterlimit:10;stroke-dasharray:none;stroke-opacity:1" transform="matrix(.72727 0 0 .72727 -234.442 -255.535)"/><path d="M404.154 597.505c-.44-.7-.904-1.55-1.391-2.547" style="fill:none;stroke:#7ec636;stroke-width:1.08079;stroke-linecap:round;stroke-linejoin:round;stroke-miterlimit:10;stroke-dasharray:none;stroke-opacity:1" transform="matrix(.72727 0 0 .72727 -234.442 -255.535)"/><path d="M367.869 631.325c-.16.005-.581-.146-1.261-.453l-1.277-.575c-.172-.076-.625-.32-1.36-.734a120.256 120.256 0 0 1-4.056-2.413M377.156 629.253c-.02.055-.078.067-.171.035-.094-.03-.353-.185-.778-.462a44.624 44.624 0 0 0-.932-.597c-.195-.12-.656-.369-1.38-.747a45.169 45.169 0 0 1-2.385-1.348 95.898 95.898 0 0 0-2.899-1.67 60.381 60.381 0 0 1-3.106-1.848 120.8 120.8 0 0 1-2.878-1.89 53.92 53.92 0 0 1-2.513-1.801 111.98 111.98 0 0 0-4.176-3.014M385.566 624.94c-.178.015-.457-.057-.836-.216-.38-.158-1.096-.572-2.149-1.24a54.817 54.817 0 0 0-2.505-1.519 58.264 58.264 0 0 1-2.553-1.544 93.355 93.355 0 0 0-3.252-1.963 550.058 550.058 0 0 1-3.343-1.942c-1.145-.671-2.798-1.712-4.959-3.122-2.16-1.41-3.685-2.438-4.574-3.083a177.956 177.956 0 0 1-4.104-3.075M394.585 622.288c.3.199.434.278.4.238l-.183-.214c-.098-.115-.33-.296-.695-.543-.366-.248-.87-.55-1.511-.906a70.786 70.786 0 0 1-2.138-1.242c-.784-.472-1.686-.998-2.708-1.577a75.547 75.547 0 0 1-3.137-1.886 174.136 174.136 0 0 0-3.357-2.071l-3.837-2.308c-1.39-.835-2.62-1.603-3.69-2.305a81.432 81.432 0 0 0-2.274-1.455c-.445-.267-1.242-.8-2.39-1.598a141.083 141.083 0 0 1-3.29-2.354 55.991 55.991 0 0 1-2.754-2.153c-.79-.664-1.524-1.276-2.204-1.834-1.009-.83-2.036-1.846-3.082-3.05M401.972 618.397c.234.123.382.186.444.188.043.002.032-.047-.033-.146-.065-.099-.197-.228-.394-.388-.198-.16-.539-.381-1.023-.664a24.83 24.83 0 0 0-1.782-.93 52.355 52.355 0 0 1-2.437-1.257 236.81 236.81 0 0 0-3.178-1.698 138.145 138.145 0 0 1-8.028-4.577 143.026 143.026 0 0 1-4.505-2.886 145.56 145.56 0 0 1-3.895-2.674c-1.075-.77-1.837-1.314-2.285-1.634-.448-.32-1.288-.935-2.52-1.843a252.556 252.556 0 0 1-3.614-2.713c-1.176-.9-1.926-1.494-2.25-1.78a19.671 19.671 0 0 1-1.246-1.247c-.739-.792-1.861-2.108-3.368-3.948M410.234 613.5a59.235 59.235 0 0 0 .104.142l-.032-.09c-.019-.055-.145-.17-.38-.344-.233-.175-.5-.35-.797-.526a30.92 30.92 0 0 0-1.32-.72 68.167 68.167 0 0 0-2.049-1.018 46.093 46.093 0 0 1-2.433-1.26 295.53 295.53 0 0 0-2.757-1.509c-1-.54-2.092-1.149-3.276-1.824a118.931 118.931 0 0 1-3.489-2.07 607.276 607.276 0 0 1-3.558-2.212c-1.23-.77-2.485-1.56-3.766-2.367a69.774 69.774 0 0 1-2.946-1.94 59.853 59.853 0 0 0-1.978-1.346 489.35 489.35 0 0 1-2.984-1.964 247.944 247.944 0 0 1-3.899-2.633 104.052 104.052 0 0 1-3.5-2.517 63.3 63.3 0 0 1-2.93-2.331c-1.262-1.073-3.047-2.734-5.357-4.984M423.787 610.546c-.308-.082-.836-.339-1.584-.772-.463-.267-.815-.47-1.059-.605a16.668 16.668 0 0 1-.715-.422 69.853 69.853 0 0 0-1.18-.71 40.55 40.55 0 0 0-1.85-1.03 25.005 25.005 0 0 1-1.986-1.16c-.939-.609-2.223-1.426-3.852-2.45M393.069 588.34l.119.096c.01.008 0-.006-.032-.043l-.21-.247c-.108-.127-.305-.298-.591-.513a17.803 17.803 0 0 0-2.57-1.573 59.09 59.09 0 0 1-1.704-.898c-.586-.32-1.21-.669-1.874-1.044a243.98 243.98 0 0 1-2.049-1.173 24.094 24.094 0 0 1-2.008-1.298 37.774 37.774 0 0 0-1.996-1.34 67.695 67.695 0 0 1-2.05-1.34c-.674-.457-1.324-.89-1.951-1.296l-1.87-1.216c-.62-.403-1.17-.794-1.652-1.173a33.48 33.48 0 0 1-1.289-1.061c-.55-.48-1.219-1.202-2.004-2.165M436.49 603.399a7.587 7.587 0 0 0-.9-.7c-.24-.164-.626-.406-1.16-.728-.534-.322-1.023-.62-1.468-.892-.444-.272-.976-.62-1.595-1.043a49.954 49.954 0 0 0-2.214-1.416c-.857-.521-1.749-1.072-2.676-1.654a185.652 185.652 0 0 0-3.107-1.902 85.09 85.09 0 0 1-2.28-1.399c-.377-.246-1.05-.68-2.02-1.299a135.13 135.13 0 0 1-3.336-2.212 295.968 295.968 0 0 0-3.457-2.324 69.159 69.159 0 0 1-2.115-1.434c-.359-.262-1.803-1.235-4.332-2.92a457.05 457.05 0 0 0-5.81-3.823 226.726 226.726 0 0 0-7.827-4.81 89.226 89.226 0 0 1-3.178-1.943 258.103 258.103 0 0 1-5.591-3.742M444.82 599.72a10.644 10.644 0 0 1-1.181-.982l-1.12-1.05a18.4 18.4 0 0 0-1.73-1.401 151.62 151.62 0 0 1-2.247-1.666 81.248 81.248 0 0 0-2.764-1.986 273.098 273.098 0 0 1-3.17-2.221 230.159 230.159 0 0 0-3.58-2.491 349.94 349.94 0 0 1-3.93-2.724 201.99 201.99 0 0 1-3.935-2.838 945.878 945.878 0 0 0-3.947-2.904 358.578 358.578 0 0 0-4.073-2.936 201.745 201.745 0 0 1-4.07-2.968 72.92 72.92 0 0 1-3.647-2.904c-1.618-1.382-3.672-3.304-6.162-5.766M454.586 597.842c-.107-.013-.295-.127-.564-.34-.269-.214-.744-.64-1.425-1.276l-1.819-1.703a177.017 177.017 0 0 0-1.804-1.664 47.907 47.907 0 0 0-2.164-1.849 78.093 78.093 0 0 1-2.498-2.112 122.575 122.575 0 0 0-2.933-2.491 65.687 65.687 0 0 1-3.043-2.668c-.967-.903-1.96-1.805-2.979-2.707-1.502-1.33-3.263-3.03-5.282-5.097" style="fill:none;stroke:#507500;stroke-width:1.08079;stroke-linecap:round;stroke-linejoin:round;stroke-miterlimit:10;stroke-dasharray:none;stroke-opacity:1" transform="matrix(.72727 0 0 .72727 -234.442 -255.535)"/><path d="M434.356 657.749c.35-.051.653-.125.907-.22.172-.065.539-.24 1.1-.526a64.056 64.056 0 0 1 3.801-1.764 34.556 34.556 0 0 0 3.247-1.607M435.486 656.95c-.323.297-.725.493-1.207.59a1.72 1.72 0 0 1-.916-.053 1.685 1.685 0 0 1-.704-.443 1.531 1.531 0 0 1-.364-.638c-.062-.228-.027-.462.107-.699.133-.237.327-.45.579-.636.253-.186.514-.345.784-.477a7.752 7.752 0 0 1 1.395-.523.971.971 0 0 1 .378-.036c.096.016.09-.124-.016-.419a4.15 4.15 0 0 1-.217-.896 3.176 3.176 0 0 1 .473-2.03c.212-.343.482-.637.81-.88a4.53 4.53 0 0 1 1.132-.604c.426-.158.901-.198 1.424-.12.523.078 1.044.27 1.562.578.519.307.975.685 1.37 1.132.569.646.654 1.457.255 2.434" style="fill:none;stroke:#f59a23;stroke-width:1.08079;stroke-linecap:round;stroke-linejoin:round;stroke-miterlimit:10;stroke-dasharray:none;stroke-opacity:1" transform="matrix(.72727 0 0 .72727 -234.442 -255.535)"/><path d="M467.755 607.099c-.447.27-.94.51-1.481.72-.54.21-1.174.467-1.9.769-.728.302-1.525.637-2.394 1.005-.868.367-1.83.786-2.885 1.255a253.49 253.49 0 0 1-3.395 1.476 68.308 68.308 0 0 1-3.779 1.48c-1.311.47-2.695.935-4.153 1.396-1.457.462-2.935.93-4.434 1.403a268.87 268.87 0 0 0-4.61 1.505c-1.574.53-3.133 1.052-4.68 1.57-1.545.517-3 .994-4.367 1.43a59.64 59.64 0 0 1-3.655 1.056 39.202 39.202 0 0 1-3.095.647c-1.495.248-2.93.384-4.305.409M472.109 616.089c.108.07.1.17-.026.299-.09.092-.36.233-.81.421-.449.189-1.049.426-1.798.711-.75.285-1.62.625-2.613 1.018a113.06 113.06 0 0 1-6.952 2.477c-1.3.417-5.339 1.685-12.115 3.804-6.777 2.119-10.981 3.42-12.613 3.905-1.633.484-3.183.932-4.653 1.342-1.469.41-2.932.812-4.389 1.205-2.123.573-5.348 1.308-9.677 2.206M473.992 624.958c.016.15-.06.298-.23.442-.168.143-.359.265-.571.367-.212.1-.717.29-1.515.569-.797.278-1.677.58-2.638.903a242.27 242.27 0 0 0-6.668 2.358c-1.275.47-2.643.978-4.101 1.524-1.459.546-2.98 1.1-4.563 1.661a224.571 224.571 0 0 1-4.96 1.69c-1.724.567-3.52 1.148-5.388 1.745-1.869.596-3.734 1.196-5.595 1.8-1.861.603-3.766 1.224-5.714 1.862-1.948.638-3.88 1.263-5.795 1.874a395.681 395.681 0 0 1-5.319 1.659c-1.63.495-3.158.92-4.583 1.276-1.425.357-2.598.633-3.52.829-1.415.301-2.616.493-3.602.577M473.406 636.29a8.949 8.949 0 0 1-.86.451c-.181.082-.758.298-1.73.647-.973.35-2.31.854-4.011 1.515-1.702.66-3.087 1.185-4.156 1.572a186.08 186.08 0 0 1-7.205 2.433c-1.825.575-4.629 1.323-8.412 2.245M420.868 653.424c.149.17.135.339-.04.505-.123.117-.41.254-.862.41a27 27 0 0 1-1.58.486c-.6.168-1.207.33-1.82.487-.61.158-1.267.342-1.967.552a76.425 76.425 0 0 0-4.403 1.474 187.7 187.7 0 0 1-2.293.826c-1.093.385-2.566.833-4.42 1.344M471.345 648.894c-.4.26-.952.505-1.654.738-.456.151-.994.317-1.615.497-.62.18-1.291.364-2.012.55-.72.185-1.497.402-2.33.649-.834.247-1.71.52-2.63.823-.918.301-1.86.614-2.824.937a148.01 148.01 0 0 1-5.404 1.672M430.078 662.48c-.302.123-.81.3-1.523.532-.713.231-1.294.409-1.741.533-.448.124-1.083.29-1.905.5a764.11 764.11 0 0 0-5.711 1.471c-1.105.289-2.752.728-4.942 1.32-2.189.59-3.839 1.028-4.95 1.313a92.585 92.585 0 0 1-3.247.774c-1.053.23-2.064.442-3.033.636a158.75 158.75 0 0 1-4.887.89M462.48 660.279c-.043.199-.195.39-.458.572-.263.182-.755.41-1.474.683-.72.273-1.502.563-2.347.87-.844.306-2.41.914-4.7 1.823a332.867 332.867 0 0 1-5.514 2.145 142.539 142.539 0 0 1-4.441 1.58c-1.574.532-3.18 1.057-4.82 1.573-1.64.516-3.25 1.012-4.83 1.485-1.582.474-3.158.927-4.73 1.359-1.57.431-3.087.839-4.547 1.222-1.46.383-2.826.74-4.1 1.067a68.188 68.188 0 0 1-3.425.8 21.816 21.816 0 0 1-4.478.45M448.428 673.287c-.24.178-.665.401-1.277.67-.612.27-1.356.572-2.233.905-.877.333-2.222.864-4.035 1.593a220.6 220.6 0 0 1-4.545 1.78c-1.76.66-5.012 1.582-9.754 2.762" style="fill:none;stroke:#a35c00;stroke-width:1.08079;stroke-linecap:round;stroke-linejoin:round;stroke-miterlimit:10;stroke-dasharray:none;stroke-opacity:1" transform="matrix(.72727 0 0 .72727 -234.442 -255.535)"/><path d="M384.09 642.494c-.138-.115-.262-.155-.374-.122a.575.575 0 0 0-.232.146.957.957 0 0 0-.205.344c-.06.155-.082.348-.064.578.017.23.092.5.223.81.132.31.341.596.627.859.285.262.625.474 1.02.634.393.16.835.26 1.323.303.488.043 1.044-.002 1.67-.134a7.075 7.075 0 0 0 1.735-.6 4.348 4.348 0 0 0 1.324-1.004c.352-.4.551-.84.599-1.317.048-.478-.055-.947-.307-1.41-.252-.461-.642-.875-1.172-1.241-.782-.541-1.745-1.094-2.889-1.658" style="fill:none;stroke:#007aff;stroke-width:1.08079;stroke-linecap:round;stroke-linejoin:round;stroke-miterlimit:10;stroke-dasharray:none;stroke-opacity:1" transform="matrix(.72727 0 0 .72727 -234.442 -255.535)"/><path d="m407.658 627.511.102.19c.01.017-.034.002-.132-.047l-.593-.297c-.43-.215-1.08-.724-1.947-1.527M403.385 633.554l.34.313c.02.019.023.026.006.022l-.148-.04a3.88 3.88 0 0 1-.52-.229c-.264-.13-.63-.306-1.097-.527a19.3 19.3 0 0 1-1.563-.843c-.844-.5-1.945-1.206-3.304-2.12M400.144 640.11a6.311 6.311 0 0 1-.905-.387c-.363-.182-.78-.428-1.25-.737l-1.668-1.097a48.645 48.645 0 0 1-2.019-1.41c-1.03-.755-2.359-1.86-3.987-3.311M397.61 650.787a6.111 6.111 0 0 1-.865-.402c-.485-.265-1.398-.752-2.74-1.463M380.506 636.154c-.075-.005-.22-.07-.433-.195-.305-.177-1.243-.77-2.814-1.78M392.08 657.975a4.86 4.86 0 0 1-.634-.37 30.282 30.282 0 0 0-.862-.551c-.33-.205-.774-.463-1.332-.774a29.958 29.958 0 0 1-1.886-1.161c-.7-.463-1.473-.964-2.32-1.503a30.475 30.475 0 0 1-2.58-1.85 98.658 98.658 0 0 1-2.758-2.281 37.678 37.678 0 0 1-2.688-2.532 113.228 113.228 0 0 1-3.334-3.612 27.373 27.373 0 0 1-1.075-1.29c-.242-.31-.822-1.114-1.738-2.41M386.836 663.156c.185.189.187.285.003.287-.134.002-.368-.092-.702-.282-.333-.19-.735-.416-1.205-.68-.47-.266-1.06-.588-1.771-.967-.711-.38-1.456-.849-2.236-1.407a121.6 121.6 0 0 1-2.482-1.831 28.596 28.596 0 0 1-2.548-2.178 518.74 518.74 0 0 1-2.598-2.51 40.953 40.953 0 0 1-2.588-2.76 73.361 73.361 0 0 1-2.142-2.614c-.61-.785-1.04-1.346-1.291-1.682-.358-.479-1.399-2.366-3.122-5.661" style="fill:none;stroke:#03468f;stroke-width:1.08079;stroke-linecap:round;stroke-linejoin:round;stroke-miterlimit:10;stroke-dasharray:none;stroke-opacity:1" transform="matrix(.72727 0 0 .72727 -234.442 -255.535)"/><path d="M538.541 515.496c-.728.244-2.248.347-4.56.31-2.312-.039-4.379-.143-6.2-.315-2.657-.25-6.425-.971-11.301-2.163M509.583 520.666c-.036.298-.313.339-.83.124a6.86 6.86 0 0 1-1.538-.91c-.509-.39-1.092-.914-1.749-1.572a10.488 10.488 0 0 1-1.624-2.064 6.89 6.89 0 0 1-.855-2.186c-.145-.739-.15-1.328-.016-1.766.134-.44.739-1.05 1.814-1.833 1.559-1.136 4.324-2.826 8.294-5.072" style="fill:none;stroke:#ffd300;stroke-width:1.69833;stroke-linecap:round;stroke-linejoin:round;stroke-miterlimit:10;stroke-dasharray:none;stroke-opacity:1" transform="matrix(.72727 0 0 .72727 -245.65 -172.128)"/><path d="m391.394 420.45-.635.265M410.966 418.986l-.235-.093M433.728 416.952l-1.16.07" style="fill:none;stroke:#fcfcfc;stroke-width:2.59842;stroke-linecap:round;stroke-linejoin:round;stroke-miterlimit:10;stroke-dasharray:none;stroke-opacity:1" transform="matrix(.72727 0 0 .72727 -240.262 -179.003)"/></svg>