<svg xmlns="http://www.w3.org/2000/svg" width="143.289" height="60.104"><path d="M498.233 342.57c-.365-.034-.909-.005-1.63.089-.722.093-1.785.306-3.188.638a155.27 155.27 0 0 1-3.336.759c-.821.174-1.665.358-2.53.552-.866.193-2.209.533-4.029 1.02-1.82.485-3.197.887-4.129 1.203a17.37 17.37 0 0 0-2.585 1.108c-.79.421-1.563.895-2.317 1.422-.754.526-1.58 1.097-2.477 1.712-.897.616-1.789 1.241-2.676 1.876a32.661 32.661 0 0 0-2.444 1.925 98.126 98.126 0 0 0-2.233 2.01c-.746.693-1.502 1.413-2.266 2.16-.765.749-1.518 1.495-2.258 2.24-.741.743-1.82 1.917-3.238 3.521-1.418 1.604-2.53 2.799-3.337 3.583l-2.391 2.323a31.684 31.684 0 0 0-2.188 2.344 39.697 39.697 0 0 0-1.943 2.518 39.483 39.483 0 0 1-2.062 2.647 152.07 152.07 0 0 1-2.29 2.64 78.422 78.422 0 0 0-4.166 5.098 63.735 63.735 0 0 1-1.93 2.446c-.661.797-1.884 2.013-3.668 3.648a2402.086 2402.086 0 0 1-3.963 3.626 23.147 23.147 0 0 1-2.635 2.084 81.83 81.83 0 0 1-2.738 1.771 93.17 93.17 0 0 1-2.73 1.627c-.892.512-1.817.985-2.773 1.42-.955.436-2.086.82-3.39 1.152a36.832 36.832 0 0 1-8.17 1.146 70.01 70.01 0 0 1-3.701.025c-1.014-.026-2.343-.117-3.986-.273-1.644-.157-3.108-.38-4.394-.672a44.81 44.81 0 0 1-3.938-1.087 58.854 58.854 0 0 1-4.124-1.516 45.113 45.113 0 0 1-4.017-1.872c-1.269-.67-2.551-1.351-3.847-2.041a28.834 28.834 0 0 1-3.448-2.132 26.954 26.954 0 0 1-2.769-2.31 103.367 103.367 0 0 1-2.507-2.488 83.41 83.41 0 0 1-2.439-2.616 34.302 34.302 0 0 1-2.199-2.721c-.667-.921-1.377-1.904-2.129-2.948a118.424 118.424 0 0 0-2.394-3.208 116.774 116.774 0 0 1-2.456-3.3 68.596 68.596 0 0 1-2.26-3.352 46.83 46.83 0 0 0-2.303-3.319 75.545 75.545 0 0 0-2.676-3.316 79.333 79.333 0 0 1-2.7-3.341 51.9 51.9 0 0 0-2.667-3.218 56.559 56.559 0 0 0-3.12-3.195 121.695 121.695 0 0 1-3.206-3.154 47.497 47.497 0 0 0-3.107-2.908 70.384 70.384 0 0 0-3.31-2.661l-3.198-2.417a44.844 44.844 0 0 0-3.132-2.164 47.97 47.97 0 0 0-3.185-1.849 68.011 68.011 0 0 0-3.086-1.532 48.328 48.328 0 0 0-3.093-1.31 36.95 36.95 0 0 0-2.8-.963 15.358 15.358 0 0 0-2.17-.492c-.913-.127-2.075-.144-3.484-.05" style="fill:none;stroke:#007aff;stroke-width:6.63806;stroke-linecap:round;stroke-linejoin:round;stroke-miterlimit:10;stroke-dasharray:none;stroke-opacity:1" transform="matrix(.72727 0 0 .72727 -221.476 -242.252)"/><path d="M307.898 406.227c.371.035.923.005 1.656-.09.732-.095 1.81-.31 3.234-.647s2.553-.593 3.386-.77c.834-.177 1.69-.364 2.568-.56.879-.197 2.241-.541 4.09-1.035 1.847-.493 3.244-.9 4.19-1.221a17.61 17.61 0 0 0 2.623-1.124 22.94 22.94 0 0 0 2.352-1.443c.765-.534 1.603-1.114 2.514-1.738.91-.625 1.816-1.26 2.716-1.904.9-.644 1.726-1.295 2.48-1.953a99.873 99.873 0 0 0 2.267-2.04c.757-.703 1.524-1.433 2.3-2.193.776-.759 1.54-1.516 2.293-2.27.751-.757 1.847-1.948 3.285-3.576 1.44-1.628 2.569-2.84 3.387-3.636l2.428-2.357c.799-.776 1.539-1.569 2.22-2.379.68-.81 1.337-1.662 1.972-2.555a40.023 40.023 0 0 1 2.093-2.687c.76-.897 1.535-1.79 2.325-2.68a79.761 79.761 0 0 0 4.228-5.173 64.991 64.991 0 0 1 1.959-2.482c.671-.808 1.912-2.042 3.723-3.702 1.811-1.66 3.152-2.886 4.022-3.68a23.509 23.509 0 0 1 2.674-2.115 82.465 82.465 0 0 1 2.78-1.797 94.589 94.589 0 0 1 2.77-1.65c.906-.52 1.844-1 2.814-1.442.97-.442 2.117-.831 3.442-1.169a38.974 38.974 0 0 1 4.034-.802 37.232 37.232 0 0 1 4.258-.36 71.324 71.324 0 0 1 3.756-.025c1.029.026 2.377.118 4.045.278 1.668.159 3.154.386 4.46.68 1.304.296 2.637.664 3.996 1.105 1.36.441 2.755.954 4.185 1.54 1.43.584 2.79 1.217 4.077 1.898 1.287.682 2.589 1.372 3.904 2.073 1.316.7 2.482 1.421 3.5 2.163a27.347 27.347 0 0 1 2.809 2.345c.856.821 1.704 1.663 2.544 2.526.84.863 1.666 1.748 2.476 2.655.81.906 1.554 1.827 2.231 2.762.678.934 1.398 1.932 2.16 2.992.764 1.06 1.574 2.145 2.43 3.255.857 1.11 1.688 2.226 2.493 3.35a70.158 70.158 0 0 1 2.293 3.402 47.604 47.604 0 0 0 2.337 3.368c.836 1.1 1.74 2.222 2.716 3.366a80.345 80.345 0 0 1 2.74 3.392 52.9 52.9 0 0 0 2.706 3.266 57.474 57.474 0 0 0 3.167 3.242 124.12 124.12 0 0 1 3.253 3.202 48.255 48.255 0 0 0 3.154 2.952 71.35 71.35 0 0 0 3.358 2.7l3.246 2.454a48.54 48.54 0 0 0 6.41 4.072 69.522 69.522 0 0 0 3.132 1.556 48.87 48.87 0 0 0 3.14 1.33c1.058.406 2.006.732 2.842.977.837.245 1.57.412 2.201.5" style="fill:none;stroke:#007aff;stroke-width:6.73701;stroke-linecap:round;stroke-linejoin:round;stroke-miterlimit:10;stroke-dasharray:none;stroke-opacity:1" transform="matrix(.72727 0 0 .72727 -221.476 -242.252)"/><path d="M308.697 364.72c-.09.63-.142 1.824-.155 3.586-.019 2.562.02 6.585.119 12.069M331.298 367.807c-.372-.481-.65-.778-.835-.89a1.834 1.834 0 0 0-.52-.193 3.482 3.482 0 0 0-.732-.085 2.98 2.98 0 0 0-.832.107 2.152 2.152 0 0 0-.842.473c-.276.239-.522.568-.737.986-.215.418-.376.999-.484 1.742a20.66 20.66 0 0 0-.19 2.547c-.02.955.077 1.81.288 2.564.212.754.526 1.354.942 1.798.416.444.82.752 1.212.923.392.171.946.262 1.66.271a3.912 3.912 0 0 0 1.949-.46 5.994 5.994 0 0 0 1.594-1.265c.477-.527.89-1.173 1.238-1.935.348-.763.59-1.568.728-2.415s.204-1.642.2-2.386c-.004-.743-.182-1.383-.533-1.918a2.74 2.74 0 0 0-1.401-1.114c-.583-.208-1.237-.262-1.963-.164-1.074.146-2.195.518-3.362 1.115" style="fill:none;stroke:#ff21b3;stroke-width:2.59842;stroke-linecap:round;stroke-linejoin:round;stroke-miterlimit:10;stroke-dasharray:none;stroke-opacity:1" transform="matrix(.72727 0 0 .72727 -221.476 -242.252)"/><path d="m381.756 367.143.088 11.353M393.584 367.143c.011 1.622.005 2.935-.019 3.939-.016.684-.083 1.79-.202 3.317-.206 2.65-.209 4.167-.009 4.553M405.483 367.687c-.024 3.424-.132 7.25-.323 11.48" style="fill:none;stroke:#7ec636;stroke-width:2.59842;stroke-linecap:round;stroke-linejoin:round;stroke-miterlimit:10;stroke-dasharray:none;stroke-opacity:1" transform="matrix(.72727 0 0 .72727 -219.757 -241.315)"/><path d="M427.255 368.639c-.268-.532-.522-.898-.764-1.098a1.492 1.492 0 0 0-.645-.292 4.617 4.617 0 0 0-.899-.095 4.571 4.571 0 0 0-1.039.106 3.367 3.367 0 0 0-1.013.396c-.318.187-.622.47-.912.849-.29.378-.568.91-.837 1.598-.269.688-.468 1.486-.598 2.393-.13.907-.166 1.766-.11 2.576.055.81.27 1.533.644 2.17.374.638.862 1.18 1.464 1.63a4.264 4.264 0 0 0 1.929.829c.685.104 1.37-.023 2.054-.38.685-.356 1.31-.874 1.874-1.552.564-.677.981-1.504 1.251-2.478.27-.974.436-1.93.497-2.866.061-.936-.016-1.72-.231-2.353-.216-.633-.514-1.105-.894-1.417-.564-.461-1.247-.858-2.051-1.19" style="fill:none;stroke:#7ec636;stroke-width:2.59842;stroke-linecap:round;stroke-linejoin:round;stroke-miterlimit:10;stroke-dasharray:none;stroke-opacity:1" transform="matrix(.72727 0 0 .72727 -223.352 -241.002)"/><path d="M479.91 370.39c.236-.256.378-.727.425-1.413.031-.444-.026-.707-.17-.79-.146-.08-.35-.143-.612-.186a6.434 6.434 0 0 0-.946-.07 4.561 4.561 0 0 0-1.25.185c-.463.128-.928.382-1.393.764-.466.381-.893.916-1.282 1.604-.39.688-.685 1.503-.887 2.445a13.15 13.15 0 0 0-.294 2.849c.006.957.18 1.868.524 2.735.343.866.771 1.578 1.285 2.134.514.557 1.061.936 1.642 1.138a4.05 4.05 0 0 0 1.703.23c.554-.05 1.085-.299 1.594-.748.508-.45.968-1.085 1.38-1.908.411-.823.731-1.708.96-2.655.228-.947.367-1.874.416-2.781.05-.908-.005-1.72-.164-2.434-.158-.715-.43-1.284-.814-1.707a3.205 3.205 0 0 0-1.378-.903c-.782-.261-1.824-.354-3.125-.278M492.842 369.177c.09.875.158 1.642.204 2.298.03.444.051 1.323.064 2.636a469.324 469.324 0 0 1 .006 7.633 20.536 20.536 0 0 1-.254 2.968" style="fill:none;stroke:#ffd300;stroke-width:2.59842;stroke-linecap:round;stroke-linejoin:round;stroke-miterlimit:10;stroke-dasharray:none;stroke-opacity:1" transform="matrix(.72727 0 0 .72727 -221.476 -242.252)"/></svg>