<svg xmlns="http://www.w3.org/2000/svg" width="64.976" height="74.266"><path d="M247.142 325.916c.038-.762.037-2.038-.005-3.828-.026-1.119-.04-3.01-.04-5.673-.002-2.663.018-5.024.06-7.082.042-2.058.071-3.604.089-4.636.017-1.032.031-2.063.042-3.09.012-1.03.041-2.568.089-4.616.047-2.049.09-3.67.128-4.864.038-1.194.08-2.427.13-3.7.048-1.273.092-2.55.132-3.832.04-1.281.081-2.558.125-3.83.044-1.272.088-2.513.132-3.725.044-1.21.086-2.424.126-3.64.04-1.216.066-2.461.08-3.737.013-1.276.02-2.54.021-3.79.001-1.252-.008-2.472-.027-3.662-.02-1.19-.033-2.356-.04-3.5-.007-1.143-.01-2.207-.011-3.192 0-.985.007-1.936.022-2.855.015-.92.038-1.78.069-2.584l.09-2.4c.042-1.183.113-2.48.214-3.892M245.236 242.97c-.086.067-.131.026-.138-.124-.006-.15.008-.37.043-.664.035-.294.121-.61.26-.947.137-.337.315-.652.533-.944.217-.292.469-.55.754-.773.286-.224.592-.38.919-.466.327-.088.614-.118.86-.092.245.027.552.205.92.537.368.33.69.731.965 1.202.404.689.934 1.658 1.592 2.91M248.152 326.156c.294-.044.845-.035 1.655.028.81.062 1.587.095 2.332.098.745.003 1.548-.014 2.408-.054.86-.039 1.781-.09 2.762-.154.981-.063 2.02-.111 3.119-.143a97.47 97.47 0 0 1 3.432-.037c1.19.007 2.413.031 3.67.072 1.258.04 2.537.065 3.836.074 1.3.009 2.571.009 3.815 0a71.84 71.84 0 0 0 3.821-.135c1.304-.08 2.655-.146 4.054-.2 1.4-.052 2.785-.086 4.158-.1 1.374-.016 3.483-.024 6.327-.026 2.845-.002 4.931-.005 6.259-.01 1.327-.005 2.639-.028 3.935-.068 1.295-.04 2.575-.085 3.838-.133 1.264-.05 2.513-.089 3.749-.12 1.235-.03 2.84-.046 4.815-.05a158.42 158.42 0 0 0 4.115-.042c.768-.024 1.522-.055 2.26-.093a54.79 54.79 0 0 1 2.136-.069c.686-.008 1.32-.012 1.9-.013.582 0 1.074.026 1.475.08.401.055.706.114.915.18M330.049 321.255c.402.16.75.32 1.046.478.2.106.398.227.598.361.199.135.39.291.574.469.184.178.355.36.513.547.158.188.289.375.394.562.104.188.173.399.207.633.033.234.023.486-.03.757a2.976 2.976 0 0 1-.344.873 5.592 5.592 0 0 1-1.394 1.622 8.062 8.062 0 0 1-.823.574c-.392.236-.882.568-1.47.995" style="fill:none;stroke:#fff;stroke-width:1.03937;stroke-linecap:round;stroke-linejoin:round;stroke-miterlimit:10;stroke-dasharray:none;stroke-opacity:1" transform="matrix(.72727 0 0 .72727 -177.874 -173.404)"/><path d="M258.782 333.405c-.155.32-.26.831-.317 1.532-.037.448-.063.98-.079 1.596-.023.905-.076 2.07-.158 3.494" style="fill:none;stroke:#7ec636;stroke-width:1.03937;stroke-linecap:round;stroke-linejoin:round;stroke-miterlimit:10;stroke-dasharray:none;stroke-opacity:1" transform="matrix(.72727 0 0 .72727 -177.874 -173.404)"/><path d="M278.92 335.044a.578.578 0 0 1-.229-.31 1.335 1.335 0 0 1-.072-.411 2.89 2.89 0 0 1 .029-.436 1.56 1.56 0 0 1 .153-.475 3.49 3.49 0 0 1 .278-.466c.103-.147.217-.262.342-.347a.873.873 0 0 1 .374-.152.67.67 0 0 1 .37.056c.122.054.225.172.311.352s.145.406.176.676c.031.271.029.585-.009.944-.037.358-.11.749-.218 1.173-.108.424-.25.856-.427 1.295-.176.44-.377.824-.604 1.151-.228.327-.446.568-.655.723-.21.154-.393.243-.55.267-.156.024-.268-.024-.336-.143a.96.96 0 0 1-.106-.465c-.003-.19.033-.38.108-.57.074-.189.156-.323.246-.403.09-.08.191-.1.305-.06.114.04.24.164.377.373.138.209.294.432.469.671.175.24.387.458.635.657.249.198.527.351.835.458a2.5 2.5 0 0 0 .948.137c.464-.022 1.201-.513 2.21-1.472" style="fill:none;stroke:#007aff;stroke-width:1.03937;stroke-linecap:round;stroke-linejoin:round;stroke-miterlimit:10;stroke-dasharray:none;stroke-opacity:1" transform="matrix(.72727 0 0 .72727 -177.874 -173.404)"/><path d="M299.283 333.781c-.136-.017-.239-.098-.308-.244a1.316 1.316 0 0 1-.116-.521 2.501 2.501 0 0 1 .308-1.29c.117-.22.248-.398.391-.538.143-.14.274-.223.393-.25.12-.027.217.023.294.152.076.128.127.32.152.577.026.257.042.589.05.995.008.407.023.68.046.821.023.14.175.214.456.219.281.005.52.038.717.098.198.061.398.16.602.297a1.6 1.6 0 0 1 .499.546c.129.227.206.516.231.866.025.35-.035.756-.18 1.218a3.95 3.95 0 0 1-.592 1.194c-.25.334-.483.556-.7.668-.311.16-.624.075-.939-.257" style="fill:none;stroke:#ff21b3;stroke-width:1.03937;stroke-linecap:round;stroke-linejoin:round;stroke-miterlimit:10;stroke-dasharray:none;stroke-opacity:1" transform="matrix(.72727 0 0 .72727 -177.874 -173.404)"/><path d="M319.606 329.919a5.212 5.212 0 0 0-.254.727 6.318 6.318 0 0 0-.153.923c-.047.42-.076.759-.087 1.015-.01.257-.016.5-.017.73-.001.231.03.428.095.59a.705.705 0 0 0 .29.36c.128.077.284.121.468.134.183.012.4.01.649-.006.364-.024.865-.093 1.5-.205M322.259 333.155c-.04.363-.06.928-.065 1.693a64.164 64.164 0 0 0 .056 3.232" style="fill:none;stroke:#ffd300;stroke-width:1.03937;stroke-linecap:round;stroke-linejoin:round;stroke-miterlimit:10;stroke-dasharray:none;stroke-opacity:1" transform="matrix(.72727 0 0 .72727 -177.874 -173.404)"/><path d="M314.525 318.308a6.384 6.384 0 0 1-.527-.919c-.098-.21-.22-.523-.364-.938-.145-.415-.29-.86-.435-1.335a63.349 63.349 0 0 1-.659-2.43 62.754 62.754 0 0 1-.7-2.989 100.15 100.15 0 0 1-.508-2.683 62.25 62.25 0 0 1-.43-2.82 74.473 74.473 0 0 1-.317-2.93c-.09-1.014-.172-2.123-.247-3.328a90.763 90.763 0 0 1-.15-4.08c-.024-1.515-.019-3.146.018-4.894.037-1.748.126-3.52.27-5.317.143-1.796.337-3.633.583-5.509.245-1.876.552-3.668.922-5.378.37-1.709.625-2.821.767-3.336.141-.515.418-1.304.828-2.367a59.38 59.38 0 0 1 1.541-3.585c.617-1.328 1.03-2.19 1.24-2.589.3-.568 1.647-2.77 4.044-6.608M320.739 318.603c-.062.015-.122-.124-.178-.417-.056-.293-.121-.58-.196-.858a40.614 40.614 0 0 0-.273-.97 57.796 57.796 0 0 1-.374-1.348c-.142-.53-.287-1.093-.437-1.69-.15-.598-.292-1.251-.428-1.96-.136-.71-.253-1.472-.35-2.284a95.078 95.078 0 0 1-.238-2.197 94.042 94.042 0 0 1-.204-2.716c-.074-1.158-.136-2.269-.184-3.332-.048-1.063-.09-2.116-.126-3.16a209.435 209.435 0 0 1-.12-6.817c-.001-1.226.019-2.493.062-3.801a76.908 76.908 0 0 1 .678-7.884c.18-1.306.304-2.171.37-2.598a44.71 44.71 0 0 1 .366-1.934 66.86 66.86 0 0 1 .717-3.058 47.908 47.908 0 0 1 1.007-3.413c.37-1.099.773-2.06 1.21-2.885a30.91 30.91 0 0 1 1.35-2.308 14.93 14.93 0 0 1 2.553-2.969" style="fill:none;stroke:#000;stroke-width:1.03937;stroke-linecap:round;stroke-linejoin:round;stroke-miterlimit:10;stroke-dasharray:none;stroke-opacity:1" transform="matrix(.72727 0 0 .72727 -176.202 -170.298)"/><path d="M321.71 254.701c-.002.122.052.255.16.4.11.146.299.355.569.626.27.272.61.64 1.02 1.103.6.675 1.458 1.678 2.575 3.007" style="fill:none;stroke:#ffd300;stroke-width:1.03937;stroke-linecap:round;stroke-linejoin:round;stroke-miterlimit:10;stroke-dasharray:none;stroke-opacity:1" transform="matrix(.72727 0 0 .72727 -176.202 -170.298)"/><path d="M294.588 321.424c-.061.02-.144-.067-.248-.265a7.057 7.057 0 0 1-.315-.698c-.105-.269-.249-.654-.43-1.156a79.07 79.07 0 0 0-.645-1.717c-.25-.643-.523-1.376-.823-2.2a83.166 83.166 0 0 1-.886-2.573 32.326 32.326 0 0 1-.789-2.894 59.094 59.094 0 0 1-1.139-7.044 45.716 45.716 0 0 1-.224-3.785 28.11 28.11 0 0 1 .174-3.668c.138-1.205.327-2.378.566-3.52.24-1.14.514-2.232.822-3.275.452-1.527 1.182-3.554 2.192-6.081M299.875 320.143a1.902 1.902 0 0 1-.424-.706c-.108-.296-.22-.69-.336-1.182a46.686 46.686 0 0 1-.361-1.701 34.51 34.51 0 0 1-.345-2.165c-.103-.801-.206-1.623-.308-2.466-.102-.842-.201-1.713-.299-2.613a93.24 93.24 0 0 1-.266-2.904 74.748 74.748 0 0 1-.175-3.339 75.228 75.228 0 0 1-.03-3.532 34.931 34.931 0 0 1 .743-6.608c.314-1.474.83-3.256 1.548-5.346" style="fill:none;stroke:#000;stroke-width:1.03937;stroke-linecap:round;stroke-linejoin:round;stroke-miterlimit:10;stroke-dasharray:none;stroke-opacity:1" transform="matrix(.72727 0 0 .72727 -177.874 -172.927)"/><path d="M293.12 283.07a84.897 84.897 0 0 1 2.518 2.079 17.557 17.557 0 0 0 3.739 2.431" style="fill:none;stroke:#ff21b3;stroke-width:1.03937;stroke-linecap:round;stroke-linejoin:round;stroke-miterlimit:10;stroke-dasharray:none;stroke-opacity:1" transform="matrix(.72727 0 0 .72727 -177.874 -172.927)"/><path d="M274.125 321.175a7.353 7.353 0 0 1-.556-1.104c-.17-.413-.489-1.203-.957-2.37-.469-1.166-.82-2.16-1.054-2.982a79.059 79.059 0 0 1-.752-2.88 44.712 44.712 0 0 1-.677-3.323 32.834 32.834 0 0 1-.375-3.17c-.097-1.48-.05-3.11.142-4.886M279.216 320.789c-.187-.392-.362-.914-.525-1.568a92.986 92.986 0 0 1-.35-1.47 44.794 44.794 0 0 1-.75-4.354 36.29 36.29 0 0 1-.218-2.535 31.743 31.743 0 0 1 .084-4.203" style="fill:none;stroke:#000;stroke-width:1.03937;stroke-linecap:round;stroke-linejoin:round;stroke-miterlimit:10;stroke-dasharray:none;stroke-opacity:1" transform="matrix(.72727 0 0 .72727 -177.874 -173.404)"/><path d="M271.18 300.398c-.055.145.035.427.27.846.15.266.403.582.758.948.51.526 1.87 1.651 4.082 3.376" style="fill:none;stroke:#007aff;stroke-width:1.03937;stroke-linecap:round;stroke-linejoin:round;stroke-miterlimit:10;stroke-dasharray:none;stroke-opacity:1" transform="matrix(.72727 0 0 .72727 -177.874 -173.404)"/><path d="M255.222 321.262c-.087-.008-.172-.06-.255-.156-.083-.097-.168-.27-.254-.519a6.462 6.462 0 0 1-.235-.986c-.07-.408-.12-.856-.148-1.341-.029-.486-.04-.985-.033-1.495.009-.746.23-1.759.663-3.04M257.998 321.075a3.02 3.02 0 0 1-.568-1.306c-.093-.5-.147-.858-.162-1.074a9.028 9.028 0 0 1-.004-.861c.018-.527.202-1.072.552-1.636" style="fill:none;stroke:#000;stroke-width:1.03937;stroke-linecap:round;stroke-linejoin:round;stroke-miterlimit:10;stroke-dasharray:none;stroke-opacity:1" transform="matrix(.72727 0 0 .72727 -177.874 -173.404)"/><path d="m256.27 313.562-.34-.164c-.014-.007.006.01.062.05l.686.496c.587.424 1.363 1.097 2.327 2.018" style="fill:none;stroke:#7ec636;stroke-width:1.03937;stroke-linecap:round;stroke-linejoin:round;stroke-miterlimit:10;stroke-dasharray:none;stroke-opacity:1" transform="matrix(.72727 0 0 .72727 -177.874 -173.404)"/></svg>