<svg xmlns="http://www.w3.org/2000/svg" width="230.13" height="188.87"><path d="M443.276 70.72c-.11.215-.277.675-.5 1.382-.137.43-.361 1.055-.674 1.875-.313.82-.611 1.633-.896 2.437a45.78 45.78 0 0 1-1.069 2.706c-.428 1-.846 1.952-1.252 2.857a444.334 444.334 0 0 0-1.802 4.063" style="fill:none;stroke:#007aff;stroke-width:1.8189;stroke-linecap:round;stroke-linejoin:round;stroke-miterlimit:10;stroke-dasharray:none;stroke-opacity:1" transform="matrix(.72727 0 0 .72727 -222.176 -32.126)"/><path d="M436.778 86.503c.416.012.936-.012 1.559-.07a25.41 25.41 0 0 1 1.799-.106c.577-.013 1.264-.02 2.061-.022a332.65 332.65 0 0 0 2.614-.015c.945-.01 1.961-.035 3.049-.077 1.088-.042 2.22-.068 3.395-.077 1.729-.014 3.91-.033 6.544-.059" style="fill:none;stroke:#f59a23;stroke-width:1.8189;stroke-linecap:round;stroke-linejoin:round;stroke-miterlimit:10;stroke-dasharray:none;stroke-opacity:1" transform="matrix(.72727 0 0 .72727 -222.176 -32.126)"/><path d="M457.839 85.359c.104.14.222.216.354.228.09.008.113-.008.07-.048l-.321-.298c-.172-.159-.6-.528-1.285-1.108a27.697 27.697 0 0 1-1.839-1.695 68.768 68.768 0 0 0-1.846-1.798c-.689-.649-1.42-1.344-2.192-2.084a89.142 89.142 0 0 1-2.227-2.21c-.712-.731-1.34-1.375-1.885-1.931a64.878 64.878 0 0 1-2.658-2.907" style="fill:none;stroke:#ff9797;stroke-width:1.8189;stroke-linecap:round;stroke-linejoin:round;stroke-miterlimit:10;stroke-dasharray:none;stroke-opacity:1" transform="matrix(.72727 0 0 .72727 -222.176 -32.126)"/><path d="M492.347 97.246c-.146-.154-.478-.428-.997-.821-.316-.24-.768-.61-1.356-1.11a96.25 96.25 0 0 0-1.754-1.46 40.233 40.233 0 0 1-1.926-1.681 154.282 154.282 0 0 1-1.998-1.878c-.945-.906-1.89-1.802-2.835-2.689" style="fill:none;stroke:#fcfcfc;stroke-width:1.59873;stroke-linecap:round;stroke-linejoin:round;stroke-miterlimit:10;stroke-dasharray:none;stroke-opacity:1" transform="matrix(.72727 0 0 .72727 -222.176 -32.126)"/><path d="M481.187 87.219c-.132.341-.265.778-.4 1.311-.135.533-.282 1.04-.442 1.522-.159.481-.355 1.052-.589 1.713-.234.66-.486 1.384-.756 2.17-.271.785-.549 1.634-.834 2.547a95.884 95.884 0 0 1-.935 2.835c-.498 1.436-1.124 3.248-1.878 5.437" style="fill:none;stroke:#fdff85;stroke-width:1.59873;stroke-linecap:round;stroke-linejoin:round;stroke-miterlimit:10;stroke-dasharray:none;stroke-opacity:1" transform="matrix(.72727 0 0 .72727 -222.176 -32.126)"/><path d="M475.936 104.998c-.146.045-.244.12-.293.226-.033.072-.027.097.019.073l.341-.179c.183-.095.614-.341 1.296-.737.681-.397 1.33-.738 1.945-1.025a60.54 60.54 0 0 0 2.033-1c.74-.379 1.53-.78 2.371-1.202.841-.422 1.67-.82 2.486-1.194.815-.374 1.533-.705 2.154-.992.92-.426 1.982-.875 3.19-1.346" style="fill:none;stroke:#007355;stroke-width:1.59873;stroke-linecap:round;stroke-linejoin:round;stroke-miterlimit:10;stroke-dasharray:none;stroke-opacity:1" transform="matrix(.72727 0 0 .72727 -222.176 -32.126)"/><path d="M439.41 118.717c.165.157.538.432 1.118.825.353.239.86.61 1.519 1.115.66.504 1.315.993 1.967 1.467a43.32 43.32 0 0 1 2.166 1.697c.79.657 1.542 1.291 2.253 1.903 1.067.919 2.133 1.828 3.198 2.727" style="fill:none;stroke:#007355;stroke-width:1.71973;stroke-linecap:round;stroke-linejoin:round;stroke-miterlimit:10;stroke-dasharray:none;stroke-opacity:1" transform="matrix(.72727 0 0 .72727 -222.176 -32.126)"/><path d="M451.969 128.851c.122-.374.24-.851.355-1.431.115-.58.244-1.134.388-1.66.143-.526.322-1.15.535-1.874.213-.723.443-1.514.689-2.373.246-.86.496-1.787.75-2.785.254-.997.535-2.03.843-3.097.453-1.571 1.022-3.554 1.707-5.948" style="fill:none;stroke:#b1ff00;stroke-width:1.71973;stroke-linecap:round;stroke-linejoin:round;stroke-miterlimit:10;stroke-dasharray:none;stroke-opacity:1" transform="matrix(.72727 0 0 .72727 -222.176 -32.126)"/><path d="M456.596 109.454c.155-.057.255-.144.302-.26.031-.08.023-.105-.024-.077l-.357.212c-.19.112-.64.401-1.35.866-.71.464-1.386.868-2.03 1.211-.645.343-1.354.74-2.128 1.19-.773.45-1.6.925-2.479 1.426a84.32 84.32 0 0 1-2.6 1.425 710.9 710.9 0 0 0-2.258 1.189 61.35 61.35 0 0 1-3.35 1.627" style="fill:none;stroke:#ff9797;stroke-width:1.71973;stroke-linecap:round;stroke-linejoin:round;stroke-miterlimit:10;stroke-dasharray:none;stroke-opacity:1" transform="matrix(.72727 0 0 .72727 -222.176 -32.126)"/><path d="M340.684 182.378a73.834 73.834 0 0 0-4.14 4.624 65.097 65.097 0 0 0-3.986 5.41 70.043 70.043 0 0 0-3.566 5.991 51.583 51.583 0 0 0-2.805 6.289c-.796 2.162-1.306 3.638-1.528 4.426-.222.788-.4 1.495-.53 2.12-.132.626-.33 2.522-.597 5.688-.267 3.166-.32 6.03-.16 8.593.159 2.563.566 5.066 1.222 7.509.656 2.443 1.487 4.72 2.493 6.832a45.41 45.41 0 0 0 3.604 6.21 48.052 48.052 0 0 0 4.702 5.795 56.44 56.44 0 0 0 5.506 5.096 48.584 48.584 0 0 0 6.228 4.27 52.104 52.104 0 0 0 7.107 3.404 39.753 39.753 0 0 0 7.838 2.17c2.708.46 5.502.706 8.381.736 2.88.03 5.825-.203 8.837-.698a71.105 71.105 0 0 0 8.82-2.026 98.036 98.036 0 0 0 8.568-3.002 81.992 81.992 0 0 0 8.591-4.072 95.828 95.828 0 0 0 8.465-5.203 78.316 78.316 0 0 0 8.115-6.437 90.327 90.327 0 0 0 7.523-7.659c2.366-2.712 3.862-4.453 4.487-5.22a37.59 37.59 0 0 0 1.661-2.187c.482-.69 1.64-2.757 3.47-6.2 1.831-3.442 3.095-6.387 3.79-8.833.697-2.447 1.117-4.836 1.262-7.168.145-2.332-.015-4.716-.48-7.152-.465-2.437-1.228-4.878-2.291-7.325a37.215 37.215 0 0 0-3.925-6.914 39.722 39.722 0 0 0-5.352-6.028 58.069 58.069 0 0 0-6.667-5.272 62.968 62.968 0 0 0-7.632-4.451 94.042 94.042 0 0 0-8.458-3.65 81.47 81.47 0 0 0-9.415-2.89 59.26 59.26 0 0 0-9.962-1.552 64.367 64.367 0 0 0-10.243.123c-3.48.314-6.972.916-10.476 1.804a115.352 115.352 0 0 0-9.904 2.968c-4.506 1.585-11 5.185-19.484 10.8" style="fill:none;stroke:#fcfcfc;stroke-width:1.03937;stroke-linecap:round;stroke-linejoin:round;stroke-miterlimit:10;stroke-dasharray:none;stroke-opacity:1" transform="matrix(.72727 0 0 .72727 -166.02 -118.498)"/><path d="M442.776 72.102c-.137.43-.361 1.055-.674 1.875-.312.82-.611 1.633-.896 2.437a45.78 45.78 0 0 1-1.069 2.706c-.428 1-.846 1.952-1.252 2.857a444.334 444.334 0 0 0-1.802 4.063" style="fill:none;stroke:#007aff;stroke-width:1.8189;stroke-linecap:round;stroke-linejoin:round;stroke-miterlimit:10;stroke-dasharray:none;stroke-opacity:1" transform="matrix(.72727 0 0 .72727 -149.381 78.076)"/><path d="M436.778 86.503c.416.012.936-.012 1.559-.07a25.41 25.41 0 0 1 1.799-.106c.577-.013 1.264-.02 2.061-.022a332.65 332.65 0 0 0 2.614-.015c.945-.01 1.961-.035 3.049-.077 1.088-.042 2.22-.068 3.395-.077 1.729-.014 3.91-.033 6.544-.059" style="fill:none;stroke:#f59a23;stroke-width:1.8189;stroke-linecap:round;stroke-linejoin:round;stroke-miterlimit:10;stroke-dasharray:none;stroke-opacity:1" transform="matrix(.72727 0 0 .72727 -149.381 78.076)"/><path d="M457.839 85.359c.104.14.222.216.354.228.09.008.113-.008.07-.048l-.321-.298c-.172-.159-.6-.528-1.285-1.108a27.697 27.697 0 0 1-1.839-1.695 68.768 68.768 0 0 0-1.846-1.798c-.689-.649-1.42-1.344-2.192-2.084a89.142 89.142 0 0 1-2.227-2.21c-.712-.731-1.34-1.375-1.885-1.931a64.878 64.878 0 0 1-2.658-2.907" style="fill:none;stroke:#ff9797;stroke-width:1.8189;stroke-linecap:round;stroke-linejoin:round;stroke-miterlimit:10;stroke-dasharray:none;stroke-opacity:1" transform="matrix(.72727 0 0 .72727 -149.381 78.076)"/><path d="M492.347 97.246c-.146-.154-.478-.428-.997-.821-.316-.24-.768-.61-1.356-1.11a96.25 96.25 0 0 0-1.754-1.46 40.233 40.233 0 0 1-1.926-1.681 154.282 154.282 0 0 1-1.998-1.878c-.945-.906-1.89-1.802-2.835-2.689" style="fill:none;stroke:#fcfcfc;stroke-width:1.59873;stroke-linecap:round;stroke-linejoin:round;stroke-miterlimit:10;stroke-dasharray:none;stroke-opacity:1" transform="matrix(.72727 0 0 .72727 -149.381 78.076)"/><path d="M481.187 87.219c-.132.341-.265.778-.4 1.311-.135.533-.282 1.04-.442 1.522-.159.481-.355 1.052-.589 1.713-.234.66-.486 1.384-.756 2.17-.271.785-.549 1.634-.834 2.547a95.884 95.884 0 0 1-.935 2.835c-.498 1.436-1.124 3.248-1.878 5.437" style="fill:none;stroke:#fdff85;stroke-width:1.59873;stroke-linecap:round;stroke-linejoin:round;stroke-miterlimit:10;stroke-dasharray:none;stroke-opacity:1" transform="matrix(.72727 0 0 .72727 -149.381 78.076)"/><path d="M475.936 104.998c-.146.045-.244.12-.293.226-.033.072-.027.097.019.073l.341-.179c.183-.095.614-.341 1.296-.737.681-.397 1.33-.738 1.945-1.025a60.54 60.54 0 0 0 2.033-1c.74-.379 1.53-.78 2.371-1.202.841-.422 1.67-.82 2.486-1.194.815-.374 1.533-.705 2.154-.992.92-.426 1.982-.875 3.19-1.346" style="fill:none;stroke:#007355;stroke-width:1.59873;stroke-linecap:round;stroke-linejoin:round;stroke-miterlimit:10;stroke-dasharray:none;stroke-opacity:1" transform="matrix(.72727 0 0 .72727 -149.381 78.076)"/><path d="M439.41 118.717c.165.157.538.432 1.118.825.353.239.86.61 1.519 1.115.66.504 1.315.993 1.967 1.467a43.32 43.32 0 0 1 2.166 1.697c.79.657 1.542 1.291 2.253 1.903 1.067.919 2.133 1.828 3.198 2.727" style="fill:none;stroke:#007355;stroke-width:1.71973;stroke-linecap:round;stroke-linejoin:round;stroke-miterlimit:10;stroke-dasharray:none;stroke-opacity:1" transform="matrix(.72727 0 0 .72727 -149.381 78.076)"/><path d="M451.969 128.851c.122-.374.24-.851.355-1.431.115-.58.244-1.134.388-1.66.143-.526.322-1.15.535-1.874.213-.723.443-1.514.689-2.373.246-.86.496-1.787.75-2.785.254-.997.535-2.03.843-3.097.453-1.571 1.022-3.554 1.707-5.948" style="fill:none;stroke:#b1ff00;stroke-width:1.71973;stroke-linecap:round;stroke-linejoin:round;stroke-miterlimit:10;stroke-dasharray:none;stroke-opacity:1" transform="matrix(.72727 0 0 .72727 -149.381 78.076)"/><path d="M456.596 109.454c.155-.057.255-.144.302-.26.031-.08.023-.105-.024-.077l-.357.212c-.19.112-.64.401-1.35.866-.71.464-1.386.868-2.03 1.211-.645.343-1.354.74-2.128 1.19-.773.45-1.6.925-2.479 1.426a84.32 84.32 0 0 1-2.6 1.425 710.9 710.9 0 0 0-2.258 1.189 61.35 61.35 0 0 1-3.35 1.627" style="fill:none;stroke:#ff9797;stroke-width:1.71973;stroke-linecap:round;stroke-linejoin:round;stroke-miterlimit:10;stroke-dasharray:none;stroke-opacity:1" transform="matrix(.72727 0 0 .72727 -149.381 78.076)"/><path d="M340.684 182.378a73.834 73.834 0 0 0-4.14 4.624 65.097 65.097 0 0 0-3.986 5.41 70.043 70.043 0 0 0-3.566 5.991 51.583 51.583 0 0 0-2.805 6.289c-.796 2.162-1.306 3.638-1.528 4.426-.222.788-.4 1.495-.53 2.12-.132.626-.33 2.522-.597 5.688-.267 3.166-.32 6.03-.16 8.593.159 2.563.566 5.066 1.222 7.509.656 2.443 1.487 4.72 2.493 6.832a45.41 45.41 0 0 0 3.604 6.21 48.052 48.052 0 0 0 4.702 5.795 56.44 56.44 0 0 0 5.506 5.096 48.584 48.584 0 0 0 6.228 4.27 52.104 52.104 0 0 0 7.107 3.404 39.753 39.753 0 0 0 7.838 2.17c2.708.46 5.502.706 8.381.736 2.88.03 5.825-.203 8.837-.698a71.105 71.105 0 0 0 8.82-2.026 98.036 98.036 0 0 0 8.568-3.002 81.992 81.992 0 0 0 8.591-4.072 95.828 95.828 0 0 0 8.465-5.203 78.316 78.316 0 0 0 8.115-6.437 90.327 90.327 0 0 0 7.523-7.659c2.366-2.712 3.862-4.453 4.487-5.22a37.59 37.59 0 0 0 1.661-2.187c.482-.69 1.64-2.757 3.47-6.2 1.831-3.442 3.095-6.387 3.79-8.833.697-2.447 1.117-4.836 1.262-7.168.145-2.332-.015-4.716-.48-7.152-.465-2.437-1.228-4.878-2.291-7.325a37.215 37.215 0 0 0-3.925-6.914 39.722 39.722 0 0 0-5.352-6.028 58.069 58.069 0 0 0-6.667-5.272 62.968 62.968 0 0 0-7.632-4.451 94.042 94.042 0 0 0-8.458-3.65 81.47 81.47 0 0 0-9.415-2.89 59.26 59.26 0 0 0-9.962-1.552 64.367 64.367 0 0 0-10.243.123c-3.48.314-6.972.916-10.476 1.804a115.352 115.352 0 0 0-9.904 2.968c-4.506 1.585-11 5.185-19.484 10.8" style="fill:none;stroke:#fcfcfc;stroke-width:1.03937;stroke-linecap:round;stroke-linejoin:round;stroke-miterlimit:10;stroke-dasharray:none;stroke-opacity:1" transform="matrix(.72727 0 0 .72727 -93.225 -8.296)"/><path d="M443.276 70.72c-.11.215-.277.675-.5 1.382-.137.43-.361 1.055-.674 1.875-.313.82-.611 1.633-.896 2.437a45.78 45.78 0 0 1-1.069 2.706c-.428 1-.846 1.952-1.252 2.857a444.334 444.334 0 0 0-1.802 4.063" style="fill:none;stroke:#007355;stroke-width:1.8189;stroke-linecap:round;stroke-linejoin:round;stroke-miterlimit:10;stroke-dasharray:none;stroke-opacity:1" transform="matrix(.72727 0 0 .72727 -290.892 80.287)"/><path d="M436.778 86.503c.416.012.936-.012 1.559-.07a25.41 25.41 0 0 1 1.799-.106c.577-.013 1.264-.02 2.061-.022a332.65 332.65 0 0 0 2.614-.015c.945-.01 1.961-.035 3.049-.077 1.088-.042 2.22-.068 3.395-.077 1.729-.014 3.91-.033 6.544-.059" style="fill:none;stroke:#f59a23;stroke-width:1.8189;stroke-linecap:round;stroke-linejoin:round;stroke-miterlimit:10;stroke-dasharray:none;stroke-opacity:1" transform="matrix(.72727 0 0 .72727 -290.892 80.287)"/><path d="M457.839 85.359c.104.14.222.216.354.228.09.008.113-.008.07-.048l-.321-.298c-.172-.159-.6-.528-1.285-1.108a27.697 27.697 0 0 1-1.839-1.695 68.768 68.768 0 0 0-1.846-1.798c-.689-.649-1.42-1.344-2.192-2.084a89.142 89.142 0 0 1-2.227-2.21c-.712-.731-1.34-1.375-1.885-1.931a64.878 64.878 0 0 1-2.658-2.907" style="fill:none;stroke:#ff9797;stroke-width:1.8189;stroke-linecap:round;stroke-linejoin:round;stroke-miterlimit:10;stroke-dasharray:none;stroke-opacity:1" transform="matrix(.72727 0 0 .72727 -290.892 80.287)"/><path d="M492.347 97.246c-.146-.154-.478-.428-.997-.821-.316-.24-.768-.61-1.356-1.11a96.25 96.25 0 0 0-1.754-1.46 40.233 40.233 0 0 1-1.926-1.681 154.282 154.282 0 0 1-1.998-1.878c-.945-.906-1.89-1.802-2.835-2.689" style="fill:none;stroke:#007aff;stroke-width:1.59873;stroke-linecap:round;stroke-linejoin:round;stroke-miterlimit:10;stroke-dasharray:none;stroke-opacity:1" transform="matrix(.72727 0 0 .72727 -290.892 80.287)"/><path d="M481.187 87.219c-.132.341-.265.778-.4 1.311-.135.533-.282 1.04-.442 1.522-.159.481-.355 1.052-.589 1.713-.234.66-.486 1.384-.756 2.17-.271.785-.549 1.634-.834 2.547a95.884 95.884 0 0 1-.935 2.835c-.498 1.436-1.124 3.248-1.878 5.437" style="fill:none;stroke:#ff9797;stroke-width:1.59873;stroke-linecap:round;stroke-linejoin:round;stroke-miterlimit:10;stroke-dasharray:none;stroke-opacity:1" transform="matrix(.72727 0 0 .72727 -290.892 80.287)"/><path d="M475.936 104.998c-.146.045-.244.12-.293.226-.033.072-.027.097.019.073l.341-.179c.183-.095.614-.341 1.296-.737.681-.397 1.33-.738 1.945-1.025a60.54 60.54 0 0 0 2.033-1c.74-.379 1.53-.78 2.371-1.202.841-.422 1.67-.82 2.486-1.194.815-.374 1.533-.705 2.154-.992.92-.426 1.982-.875 3.19-1.346" style="fill:none;stroke:#007355;stroke-width:1.59873;stroke-linecap:round;stroke-linejoin:round;stroke-miterlimit:10;stroke-dasharray:none;stroke-opacity:1" transform="matrix(.72727 0 0 .72727 -290.892 80.287)"/><path d="M439.41 118.717c.165.157.538.432 1.118.825.353.239.86.61 1.519 1.115.66.504 1.315.993 1.967 1.467a43.32 43.32 0 0 1 2.166 1.697c.79.657 1.542 1.291 2.253 1.903 1.067.919 2.133 1.828 3.198 2.727" style="fill:none;stroke:#007aff;stroke-width:1.71973;stroke-linecap:round;stroke-linejoin:round;stroke-miterlimit:10;stroke-dasharray:none;stroke-opacity:1" transform="matrix(.72727 0 0 .72727 -290.892 80.287)"/><path d="M451.969 128.851c.122-.374.24-.851.355-1.431.115-.58.244-1.134.388-1.66.143-.526.322-1.15.535-1.874.213-.723.443-1.514.689-2.373.246-.86.496-1.787.75-2.785.254-.997.535-2.03.843-3.097.453-1.571 1.022-3.554 1.707-5.948" style="fill:none;stroke:#b1ff00;stroke-width:1.71973;stroke-linecap:round;stroke-linejoin:round;stroke-miterlimit:10;stroke-dasharray:none;stroke-opacity:1" transform="matrix(.72727 0 0 .72727 -290.892 80.287)"/><path d="M456.596 109.454c.155-.057.255-.144.302-.26.031-.08.023-.105-.024-.077l-.357.212c-.19.112-.64.401-1.35.866-.71.464-1.386.868-2.03 1.211-.645.343-1.354.74-2.128 1.19-.773.45-1.6.925-2.479 1.426a84.32 84.32 0 0 1-2.6 1.425 710.9 710.9 0 0 0-2.258 1.189 61.35 61.35 0 0 1-3.35 1.627" style="fill:none;stroke:#ff9797;stroke-width:1.71973;stroke-linecap:round;stroke-linejoin:round;stroke-miterlimit:10;stroke-dasharray:none;stroke-opacity:1" transform="matrix(.72727 0 0 .72727 -290.892 80.287)"/><path d="M340.684 182.378a73.834 73.834 0 0 0-4.14 4.624 65.097 65.097 0 0 0-3.986 5.41 70.043 70.043 0 0 0-3.566 5.991 51.583 51.583 0 0 0-2.805 6.289c-.796 2.162-1.306 3.638-1.528 4.426-.222.788-.4 1.495-.53 2.12-.132.626-.33 2.522-.597 5.688-.267 3.166-.32 6.03-.16 8.593.159 2.563.566 5.066 1.222 7.509.656 2.443 1.487 4.72 2.493 6.832a45.41 45.41 0 0 0 3.604 6.21 48.052 48.052 0 0 0 4.702 5.795 56.44 56.44 0 0 0 5.506 5.096 48.584 48.584 0 0 0 6.228 4.27 52.104 52.104 0 0 0 7.107 3.404 39.753 39.753 0 0 0 7.838 2.17c2.708.46 5.502.706 8.381.736 2.88.03 5.825-.203 8.837-.698a71.105 71.105 0 0 0 8.82-2.026 98.036 98.036 0 0 0 8.568-3.002 81.992 81.992 0 0 0 8.591-4.072 95.828 95.828 0 0 0 8.465-5.203 78.316 78.316 0 0 0 8.115-6.437 90.327 90.327 0 0 0 7.523-7.659c2.366-2.712 3.862-4.453 4.487-5.22a37.59 37.59 0 0 0 1.661-2.187c.482-.69 1.64-2.757 3.47-6.2 1.831-3.442 3.095-6.387 3.79-8.833.697-2.447 1.117-4.836 1.262-7.168.145-2.332-.015-4.716-.48-7.152-.465-2.437-1.228-4.878-2.291-7.325a37.215 37.215 0 0 0-3.925-6.914 39.722 39.722 0 0 0-5.352-6.028 58.069 58.069 0 0 0-6.667-5.272 62.968 62.968 0 0 0-7.632-4.451 94.042 94.042 0 0 0-8.458-3.65 81.47 81.47 0 0 0-9.415-2.89 59.26 59.26 0 0 0-9.962-1.552 64.367 64.367 0 0 0-10.243.123c-3.48.314-6.972.916-10.476 1.804a115.352 115.352 0 0 0-9.904 2.968c-4.506 1.585-11 5.185-19.484 10.8" style="fill:none;stroke:#fcfcfc;stroke-width:1.03937;stroke-linecap:round;stroke-linejoin:round;stroke-miterlimit:10;stroke-dasharray:none;stroke-opacity:1" transform="matrix(.72727 0 0 .72727 -234.736 -6.085)"/><path d="M433.016 248.08c.254-.08.596-.017 1.025.189.428.205.915.578 1.46 1.117a48.835 48.835 0 0 1 1.819 1.914c.668.738 1.45 1.686 2.345 2.846a94.968 94.968 0 0 1 2.951 4.072 109.353 109.353 0 0 1 3.329 5.154 56.58 56.58 0 0 1 3.191 6.064 103.012 103.012 0 0 1 2.807 6.853c.89 2.408 1.747 4.686 2.57 6.834a186.404 186.404 0 0 1 3.57 10.249M451.01 296.615a39.967 39.967 0 0 0 1.923 1.975c.469.451.994.9 1.575 1.345a6.587 6.587 0 0 0 1.774.994 4.32 4.32 0 0 0 1.806.255c.604-.045 1.203-.29 1.797-.731.595-.443 1.193-1.062 1.796-1.859.88-1.162 2.203-2.836 3.97-5.021M403.78 374.163c.274.053.419.136.434.25.01.08-.204.195-.643.346-.438.15-1.122.305-2.05.464a149.257 149.257 0 0 1-8.365 1.156c-1.81.2-3.643.364-5.5.49-1.858.126-3.877.21-6.056.251-3.182.06-7.73-.138-13.642-.596M361.819 383.896l.267.027c.023.002-.026-.045-.145-.141l-.8-.646c-.415-.334-.87-.764-1.367-1.29a20.162 20.162 0 0 1-1.533-1.854 29.216 29.216 0 0 1-2.53-4.076 12.62 12.62 0 0 1-.667-1.55 6.17 6.17 0 0 1-.296-1.213c-.044-.36.007-.715.156-1.066.148-.35.511-.681 1.09-.992.577-.312 1.362-.626 2.354-.943.991-.317 2.008-.654 3.05-1.01a21.037 21.037 0 0 0 4.5-2.18M289.156 296.656l-.165.369c-.012.027-.018-.026-.018-.16l-.004-1c-.002-.533.101-1.31.311-2.328.21-1.02.511-2.395.905-4.126a84.114 84.114 0 0 1 1.562-5.789 75.035 75.035 0 0 1 2.328-6.513 79.192 79.192 0 0 1 3.178-6.8 45.365 45.365 0 0 1 4.065-6.427c2.23-2.932 4.868-5.697 7.913-8.294M307.584 249.314c-.38-.205-.295-.404.251-.596a15.803 15.803 0 0 1 1.897-.519 11.655 11.655 0 0 1 1.969-.267c.594-.024 1.127.034 1.597.173a3.9 3.9 0 0 1 1.22.588c.344.253.632.578.866.975.235.397.387.93.457 1.6s.019 1.471-.156 2.405a33.992 33.992 0 0 1-.73 3.04 61.337 61.337 0 0 0-1.221 5.16M460.643 347.389a3.512 3.512 0 0 1-.163-1.062c-.01-.416-.014-.81-.014-1.183 0-.372-.015-.597-.044-.675a.321.321 0 0 0-.119-.164.315.315 0 0 0-.15-.051c-.053-.003-.09.02-.11.07a.693.693 0 0 0-.032.255.943.943 0 0 0 .121.414c.08.155.184.292.311.41a.96.96 0 0 0 .43.235c.159.039.352.058.58.059.23 0 .436-.013.621-.04.186-.026.405-.082.659-.168.253-.085.451-.186.593-.3a.93.93 0 0 0 .294-.379c.054-.137.085-.26.094-.37a.552.552 0 0 0-.016-.232c-.018-.044-.052-.065-.1-.063-.05.002-.111.064-.186.188-.074.123-.156.3-.246.532-.09.231-.185.508-.284.829-.1.321-.203.652-.312.994-.11.34-.21.7-.3 1.08-.133.556-.196 1.282-.189 2.176M465.068 384.877c-.106-.033-.165-.133-.178-.3a4.052 4.052 0 0 1-.015-.416.952.952 0 0 1 .104-.375 1.6 1.6 0 0 1 .26-.386c.105-.117.227-.214.364-.292.137-.078.269-.128.395-.15a.696.696 0 0 1 .323.01c.09.029.151.09.187.187.035.095.056.204.063.327a2.31 2.31 0 0 1-.009.37 1.534 1.534 0 0 1-.193.613c-.047.079-.017.134.09.167s.222.08.344.138a4.6 4.6 0 0 1 .414.231c.154.096.294.206.419.332.125.125.22.263.285.412.066.149.106.305.12.469a.822.822 0 0 1-.123.489 1.743 1.743 0 0 1-.39.452c-.166.14-.34.247-.522.324a5.45 5.45 0 0 1-.94.288M499.716 360.604c.01-.058.02-.07.024-.036l.028.182c.015.097.023.368.023.813 0 .445 0 .835-.004 1.17-.005.488-.021 1.185-.05 2.09" style="fill:none;stroke:#ffd300;stroke-width:1.03937;stroke-linecap:round;stroke-linejoin:round;stroke-miterlimit:10;stroke-dasharray:none;stroke-opacity:1" transform="matrix(.72727 0 0 .72727 -161.87 -115.578)"/><path d="M456.281 274.523c.049.103.152.156.311.16a.704.704 0 0 0 .4-.092c.108-.067.232-.182.372-.344.14-.163.273-.359.4-.588.127-.229.245-.494.354-.795.109-.301.205-.641.289-1.02a17.393 17.393 0 0 0 .364-2.628c.03-.489.05-1.002.06-1.538.01-.536.012-1.052.006-1.548-.006-.495-.016-.99-.03-1.483-.014-.494-.022-.97-.023-1.428a7.679 7.679 0 0 1 .494-2.67c.228-.597.525-1.056.89-1.374" style="fill:none;stroke:#007aff;stroke-width:1.03937;stroke-linecap:round;stroke-linejoin:round;stroke-miterlimit:10;stroke-dasharray:none;stroke-opacity:1" transform="matrix(.72727 0 0 .72727 -184.218 -108.282)"/><path d="M456.656 268.425a7.96 7.96 0 0 0 .698-.592c.11-.108.309-.296.598-.562.289-.267.657-.56 1.104-.883a8.465 8.465 0 0 1 2.241-1.142M466.623 260.546c-.006-.086-.065-.134-.176-.144a.428.428 0 0 0-.185.014c-.045.016-.123.089-.233.216-.111.128-.248.323-.412.584-.163.261-.346.585-.548.973-.203.388-.405.896-.608 1.526-.203.629-.363 1.325-.48 2.088-.116.764-.173 1.51-.171 2.24.002 1.065.491 2.238 1.467 3.521M466.53 268.475a1.82 1.82 0 0 1 .13-.418c.046-.11.126-.255.24-.436.114-.18.272-.377.472-.591.294-.313.74-.64 1.336-.982" style="fill:none;stroke:#007aff;stroke-width:1.03937;stroke-linecap:round;stroke-linejoin:round;stroke-miterlimit:10;stroke-dasharray:none;stroke-opacity:1" transform="matrix(.72727 0 0 .72727 -184.218 -108.282)"/><path d="M466.802 265.742c.087.02.287.223.601.61.268.328.625.866 1.072 1.611M471.023 261.363c.167.086.33.23.49.435.16.205.277.37.354.496.077.126.172.36.286.705.114.344.193.787.237 1.33a8.471 8.471 0 0 1-.051 1.745 10.864 10.864 0 0 1-.433 1.926c-.31.977-.832 2.066-1.567 3.267" style="fill:none;stroke:#007aff;stroke-width:1.03937;stroke-linecap:round;stroke-linejoin:round;stroke-miterlimit:10;stroke-dasharray:none;stroke-opacity:1" transform="matrix(.72727 0 0 .72727 -184.218 -108.282)"/><path d="M391.224 370.543a1.016 1.016 0 0 0-.022-.206 4.353 4.353 0 0 0-.1-.4c-.051-.175-.09-.314-.117-.417a14.582 14.582 0 0 0-.418-1.336 2.207 2.207 0 0 0-.157-.32 2.865 2.865 0 0 0-.194-.285 43.714 43.714 0 0 1-.233-.303c-.083-.11-.168-.219-.254-.327a4.132 4.132 0 0 0-.259-.297 12.39 12.39 0 0 0-.556-.544 11.134 11.134 0 0 0-.764-.66 8.925 8.925 0 0 1-.474-.4l-.31-.289a4.038 4.038 0 0 0-.31-.262 5.032 5.032 0 0 0-.33-.23 4.963 4.963 0 0 1-.349-.245 19.22 19.22 0 0 1-.348-.274 9.88 9.88 0 0 0-.672-.495 8.049 8.049 0 0 1-.321-.23 5.517 5.517 0 0 1-.485-.441l-.484-.48a2.925 2.925 0 0 1-.28-.32 10.272 10.272 0 0 1-.465-.671 4.246 4.246 0 0 1-.197-.343 2.577 2.577 0 0 1-.167-.422 4.835 4.835 0 0 1-.196-1.027 8.869 8.869 0 0 1-.026-.469c-.003-.128 0-.297.01-.506a4.544 4.544 0 0 1 .17-1.066c.047-.172.103-.35.167-.532a5.71 5.71 0 0 1 .212-.52l.234-.5a3.424 3.424 0 0 1 .524-.815 13.166 13.166 0 0 1 .615-.658c.109-.106.219-.205.331-.295l.36-.288c.128-.102.258-.21.392-.323.133-.114.267-.225.402-.332.135-.107.272-.21.41-.307.14-.097.274-.201.406-.312.133-.111.267-.231.404-.36.136-.128.272-.25.406-.363a6.564 6.564 0 0 0 .776-.772c.13-.152.257-.294.38-.426.122-.132.238-.27.348-.412a8.91 8.91 0 0 0 .317-.435l.286-.42a5.677 5.677 0 0 0 .468-.825 8.59 8.59 0 0 0 .175-.4 6.106 6.106 0 0 0 .251-.76c.026-.107.042-.2.049-.279.01-.116.005-.263-.015-.441" style="fill:none;stroke:#007aff;stroke-width:.841565;stroke-linecap:round;stroke-linejoin:round;stroke-miterlimit:10;stroke-dasharray:none;stroke-opacity:1" transform="matrix(.72727 0 0 .72727 -161.87 -115.578)"/><path d="M381.976 346.839c-.002.047.005.117.022.209.017.092.05.227.102.406.052.178.091.32.119.424l.087.321a14.625 14.625 0 0 0 .337 1.034c.047.118.1.227.159.326s.125.195.197.289c.073.093.151.196.236.307.085.111.17.222.258.332.087.11.175.21.263.302a12.768 12.768 0 0 0 .564.552l.302.276c.1.09.258.222.473.394.215.172.376.307.482.406l.313.293c.104.096.209.185.315.266.107.081.22.159.336.234.117.075.235.157.353.248.119.09.237.183.354.278a10.049 10.049 0 0 0 .682.503c.11.075.22.152.326.232.107.08.27.23.492.449l.491.486c.106.105.2.214.285.326a10.537 10.537 0 0 1 .47.68c.072.112.139.228.2.348.063.12.12.263.17.429a4.946 4.946 0 0 1 .2 1.042c.014.187.023.345.026.476.003.13 0 .302-.01.514a4.589 4.589 0 0 1-.174 1.082 7.593 7.593 0 0 1-.168.54c-.066.184-.137.36-.216.527l-.238.508a3.472 3.472 0 0 1-.532.827 13.179 13.179 0 0 1-.624.667c-.11.109-.221.209-.336.3l-.365.292c-.13.104-.262.213-.397.328-.135.116-.271.228-.409.337a8.843 8.843 0 0 1-.416.311 5.99 5.99 0 0 0-.412.317c-.134.113-.27.235-.41.365-.138.13-.276.254-.412.368a6.694 6.694 0 0 0-.787.785c-.133.153-.26.297-.385.431a6.132 6.132 0 0 0-.355.418 9.06 9.06 0 0 0-.32.442l-.291.427a5.789 5.789 0 0 0-.476.837 8.793 8.793 0 0 0-.177.406 6.207 6.207 0 0 0-.255.772 1.98 1.98 0 0 0-.05.282" style="fill:none;stroke:#007aff;stroke-width:.85411;stroke-linecap:round;stroke-linejoin:round;stroke-miterlimit:10;stroke-dasharray:none;stroke-opacity:1" transform="matrix(.72727 0 0 .72727 -161.87 -115.578)"/><path d="M383.456 370.52c-.05.012-.07.018-.062.02l.046.007c.025.004.087.006.188.004a5.52 5.52 0 0 0 .494-.024c.088-.007.186-.016.295-.029l.343-.039c.12-.013.243-.024.37-.032.126-.008.25-.014.37-.018a688.445 688.445 0 0 1 1.07-.02c.123-.003.242-.008.359-.015.116-.007.282-.02.5-.037a134.28 134.28 0 0 1 .955-.073c.21-.015.367-.026.473-.032l.456-.027c.197-.011.339-.02.426-.027.087-.007.172-.012.254-.014.083-.003.138.006.166.025M383.946 369.307c.026.004.068 0 .123-.011.036-.007.081-.019.137-.034l.194-.057c.074-.023.153-.046.238-.07a4.325 4.325 0 0 1 .819-.147c.097-.009.2-.015.31-.02l.312-.01c.099-.003.25-.005.45-.009a35.33 35.33 0 0 1 .748-.003c.102.002.41 0 .927-.009.517-.007.828-.014.936-.02.107-.004.175-.008.204-.008.044-.001.073.008.087.026M385.09 367.71c-.032 0-.047.002-.043.004.003 0 .01.004.022.008a.41.41 0 0 0 .097.007 1.712 1.712 0 0 0 .34-.032l.206-.036c.077-.013.157-.025.24-.036a11.484 11.484 0 0 1 .655-.061 38.12 38.12 0 0 0 .65-.053c.085-.008.166-.016.245-.022a12.843 12.843 0 0 1 .487-.027 13.2 13.2 0 0 0 .375-.017c.162-.009.293-.015.392-.018.099-.004.194-.003.285 0M386.246 366.344c.002-.027.033-.047.091-.061.059-.014.116-.025.171-.032.056-.007.123-.015.2-.021.078-.008.21-.017.398-.029.29-.018.52-.012.688.02" style="fill:none;stroke:#ffd300;stroke-width:.631174;stroke-linecap:round;stroke-linejoin:round;stroke-miterlimit:10;stroke-dasharray:none;stroke-opacity:1" transform="matrix(.72727 0 0 .72727 -161.87 -115.578)"/><path d="M386.287 362.862a4.808 4.808 0 0 1-.055.002 2.605 2.605 0 0 1 .18-.048c.05-.012.113-.024.19-.038.078-.014.174-.033.288-.056.114-.023.237-.046.367-.069.196-.035.393-.062.593-.083M385.32 361.75c.095-.034.236-.082.425-.141a11.795 11.795 0 0 1 .485-.141 8.905 8.905 0 0 1 .546-.125 8.129 8.129 0 0 1 .562-.096l.358-.054a16.32 16.32 0 0 1 .437-.062c.04-.004.089-.007.149-.008a1.63 1.63 0 0 0 .39-.046M384.406 360.573c.065-.017.135-.04.21-.071a3.78 3.78 0 0 1 .688-.204c.096-.02.27-.05.525-.092a73.006 73.006 0 0 0 1.23-.207 18.326 18.326 0 0 1 1.11-.17c.21-.026.375-.05.493-.07a2.905 2.905 0 0 1 .563-.049M383.84 359.053c-.025-.016-.024-.028.004-.038.02-.007.12-.027.3-.06.18-.032.31-.056.39-.072a24.231 24.231 0 0 1 .858-.146 28.296 28.296 0 0 1 .624-.075c.101-.01.202-.021.301-.033a19.146 19.146 0 0 1 .595-.057 13.053 13.053 0 0 0 .57-.056c.097-.011.193-.023.288-.036a9.092 9.092 0 0 1 .652-.067l.3-.019.2-.005c.119 0 .252.019.398.058M383.667 357.615a.63.63 0 0 1 .188-.073c.082-.02.162-.043.24-.068a3.127 3.127 0 0 1 .382-.095c.064-.012.216-.033.456-.065a114.732 114.732 0 0 0 .812-.11c.107-.014.216-.026.328-.037.111-.01.226-.02.344-.032.117-.012.231-.022.34-.031l.32-.029c.102-.01.201-.018.296-.025.095-.007.238-.018.43-.03.192-.013.33-.024.416-.031l.24-.023c.074-.008.147-.017.22-.027a2.969 2.969 0 0 1 .315-.027c.026 0 .046.009.057.03M384.622 356.151c.064-.011.152-.031.26-.059a4.216 4.216 0 0 1 .405-.083c.069-.012.146-.023.232-.036a14.433 14.433 0 0 1 .53-.06 8.987 8.987 0 0 0 .566-.079l.315-.057c.105-.02.206-.036.304-.05.149-.022.285-.03.411-.023M385.702 354.718a2.48 2.48 0 0 1 .607-.145" style="fill:none;stroke:#7ec636;stroke-width:.631174;stroke-linecap:round;stroke-linejoin:round;stroke-miterlimit:10;stroke-dasharray:none;stroke-opacity:1" transform="matrix(.72727 0 0 .72727 -161.87 -115.578)"/><path d="M385.668 351.14a2.39 2.39 0 0 1-.032.002l.126-.052a7.29 7.29 0 0 1 .235-.09 2.8 2.8 0 0 1 .259-.08l.606-.162M384.735 350.116l-.022.007h.003l.035.003c.02 0 .06-.003.117-.012.057-.009.176-.04.357-.095a7.906 7.906 0 0 1 .837-.214c.136-.026.275-.052.418-.076.143-.023.29-.049.443-.075a17.91 17.91 0 0 1 .797-.122 6.73 6.73 0 0 0 .6-.111M383.868 349.113c.06-.001.12-.007.184-.018.064-.012.141-.03.232-.054a22.18 22.18 0 0 1 .713-.177c.135-.031.284-.063.445-.096l.49-.102a16.57 16.57 0 0 1 .995-.177c.167-.025.324-.05.472-.074l.416-.067c.19-.03.496-.054.92-.073M383.313 347.648a.41.41 0 0 1-.08-.004l-.014-.003.003-.001.046-.002c.028-.001.13-.018.308-.049l.79-.134c.349-.059.633-.108.852-.147a112.771 112.771 0 0 1 1.904-.324c.208-.032.403-.06.585-.086.183-.025.351-.045.506-.062.224-.023.55-.007.979.05" style="fill:none;stroke:#ff21b3;stroke-width:.631174;stroke-linecap:round;stroke-linejoin:round;stroke-miterlimit:10;stroke-dasharray:none;stroke-opacity:1" transform="matrix(.72727 0 0 .72727 -161.87 -115.578)"/><path d="m462.478 262.28.047 4.765M463.414 258.513c.008-.249-.04-.453-.148-.614a.905.905 0 0 0-.248-.258 1.156 1.156 0 0 0-.429-.143 2.378 2.378 0 0 0-.712.006c-.282.038-.609.186-.979.444s-.752.63-1.144 1.117a14.932 14.932 0 0 0-2.043 3.384 7.007 7.007 0 0 0-.53 2.116 7.815 7.815 0 0 0 .092 2.266 7.57 7.57 0 0 0 .715 2.066c.336.65.752 1.208 1.247 1.674.495.467 1.02.779 1.572.936.552.158 1.16.168 1.823.032.664-.137 1.326-.45 1.988-.938a10.799 10.799 0 0 0 1.805-1.686c.542-.635.976-1.3 1.301-1.995.326-.695.53-1.48.614-2.357a8.282 8.282 0 0 0-.118-2.484c-.162-.78-.42-1.455-.772-2.027-.353-.571-.907-1.137-1.663-1.696-.755-.56-1.41-.905-1.964-1.035-.814-.191-1.824-.15-3.031.123" style="fill:none;stroke:#ff21b3;stroke-width:1.03937;stroke-linecap:round;stroke-linejoin:round;stroke-miterlimit:10;stroke-dasharray:none;stroke-opacity:1" transform="matrix(.72727 0 0 .72727 -161.87 -115.578)"/><path d="M385.92 390.365c-.15-.055-.258-.18-.323-.378a4.044 4.044 0 0 1-.152-.608 4.825 4.825 0 0 1-.065-.62c-.008-.205.008-.4.05-.587a1.017 1.017 0 0 1 .645-.75.83.83 0 0 1 .455-.035c.153.031.295.161.425.39.13.23.226.539.285.926.06.387.095.805.105 1.254.01.45-.023.9-.1 1.35-.077.45-.193.897-.349 1.339-.155.441-.326.871-.512 1.29-.186.417-.378.76-.577 1.028-.2.267-.394.435-.584.503a.634.634 0 0 1-.53-.025c-.162-.085-.281-.245-.357-.48a2.472 2.472 0 0 1-.125-.676 4.767 4.767 0 0 1 .002-.504c.009-.119.036-.18.083-.183.046-.003.105.134.174.41.07.278.17.603.301.977.131.374.305.713.52 1.017.217.305.47.54.758.703.289.164.614.257.975.278.361.022.74-.05 1.135-.214a2.768 2.768 0 0 0 1.048-.775c.44-.514.79-1.38 1.049-2.598" style="fill:none;stroke:#ff21b3;stroke-width:1.03937;stroke-linecap:round;stroke-linejoin:round;stroke-miterlimit:10;stroke-dasharray:none;stroke-opacity:1" transform="matrix(.72727 0 0 .72727 -160.88 -111.494)"/><path d="M387.25 382.96c.072-.22.015-.403-.171-.547a1.17 1.17 0 0 0-.489-.21 4.04 4.04 0 0 0-.713-.068 5.588 5.588 0 0 0-1.07.11c-.433.078-.926.238-1.476.48a6.196 6.196 0 0 0-1.608 1.058 7.853 7.853 0 0 0-1.426 1.725c-.43.687-.803 1.515-1.119 2.483-.315.968-.51 2.029-.582 3.182a13.08 13.08 0 0 0 .274 3.542c.255 1.209.64 2.275 1.154 3.198a10.092 10.092 0 0 0 1.825 2.394 8.02 8.02 0 0 0 2.396 1.589 6.842 6.842 0 0 0 2.82.56c.985-.011 1.941-.295 2.87-.85.928-.555 1.738-1.298 2.43-2.23a9.43 9.43 0 0 0 1.517-3.092c.32-1.131.451-2.23.395-3.298a7.398 7.398 0 0 0-.875-3.098 10.477 10.477 0 0 0-2.058-2.703 40.077 40.077 0 0 0-2.329-2.069 17.162 17.162 0 0 0-3.404-2.162" style="fill:none;stroke:#ff21b3;stroke-width:1.03937;stroke-linecap:round;stroke-linejoin:round;stroke-miterlimit:10;stroke-dasharray:none;stroke-opacity:1" transform="matrix(.72727 0 0 .72727 -160.88 -111.494)"/><path d="M279.821 271.19c-.336.07-.581-.017-.735-.26-.108-.169-.168-.427-.182-.776a3.92 3.92 0 0 1 .129-1.114c.1-.395.244-.762.434-1.1.19-.34.395-.575.612-.706a.576.576 0 0 1 .643 0c.211.13.387.406.527.83.14.423.246.834.315 1.231.07.398.117.755.142 1.07.026.316.033.578.021.784-.011.207-.045.349-.102.425-.057.076-.106.12-.149.132-.042.013-.068-.015-.076-.083a.568.568 0 0 1 .055-.27c.046-.114.157-.199.332-.256.175-.058.4-.09.676-.096.276-.006.58.075.912.24.332.166.636.404.914.716.277.311.495.676.652 1.095.157.419.243.827.259 1.224.015.397-.082.797-.294 1.201a4.273 4.273 0 0 1-.853 1.116c-.358.34-.737.56-1.137.66-.594.147-1.007.092-1.24-.164" style="fill:none;stroke:#ff21b3;stroke-width:1.03937;stroke-linecap:round;stroke-linejoin:round;stroke-miterlimit:10;stroke-dasharray:none;stroke-opacity:1" transform="matrix(.72727 0 0 .72727 -165.336 -117.311)"/><path d="M282.654 263.064a2.193 2.193 0 0 0-.368-.906 2.05 2.05 0 0 0-.305-.355 1.398 1.398 0 0 0-.408-.204c-.191-.068-.462-.111-.812-.128-.35-.018-.631 0-.841.052-.21.052-.435.138-.674.257-.24.12-.481.27-.725.45-.244.182-.445.34-.601.474-.157.135-.51.48-1.06 1.038-.549.557-.886.903-1.01 1.037-.126.135-.261.294-.407.479a5.48 5.48 0 0 0-.388.553c-.112.185-.227.388-.343.609-.117.221-.271.582-.464 1.082-.193.5-.36.992-.502 1.477a9.451 9.451 0 0 0-.277 1.147 10.17 10.17 0 0 0-.123 1.647c-.002.32.002.613.012.88.01.268.043.547.099.837.056.29.12.562.19.816.069.255.146.499.231.732.086.233.188.484.307.751a20.778 20.778 0 0 0 .754 1.508c.129.234.273.47.432.71.16.24.591.677 1.295 1.31.703.633 1.185 1.039 1.444 1.217a6.924 6.924 0 0 0 1.37.745 6.866 6.866 0 0 0 1.446.438c.267.053.635.092 1.102.118.468.026.825.04 1.072.04a4.157 4.157 0 0 0 1.412-.233c.239-.083.451-.165.637-.246.186-.082.39-.191.61-.33.223-.137.418-.265.588-.385.17-.12.337-.262.502-.426a5.58 5.58 0 0 0 .479-.547c.154-.2.297-.426.427-.677.13-.25.247-.508.348-.774.1-.265.2-.561.297-.887.097-.327.213-.76.35-1.302.137-.541.232-.956.285-1.243a25.864 25.864 0 0 0 .263-1.863c.028-.27.047-.58.058-.93.012-.35-.044-1.05-.166-2.099-.123-1.05-.458-2.187-1.006-3.412-.548-1.226-1.18-2.31-1.9-3.255-.717-.943-1.18-1.515-1.386-1.715-.207-.2-.39-.35-.548-.448a2.66 2.66 0 0 0-1.002-.367 5.787 5.787 0 0 0-.776-.034c-.353.002-.676.05-.97.148a9.796 9.796 0 0 0-1.366.577" style="fill:none;stroke:#ff21b3;stroke-width:1.03937;stroke-linecap:round;stroke-linejoin:round;stroke-miterlimit:10;stroke-dasharray:none;stroke-opacity:1" transform="matrix(.72727 0 0 .72727 -165.336 -117.311)"/></svg>