<svg xmlns="http://www.w3.org/2000/svg" width="840.511" height="367.089"><path d="M1031.109 363.663c.393-2.465 1.369-6.475 2.929-12.031 1.56-5.556 2.908-10.102 4.045-13.637a547.335 547.335 0 0 0 3.03-9.71c.883-2.938 2.403-7.502 4.558-13.692 3.26-9.365 6.532-18.009 9.816-25.932M1050.312 369.911c4.331 1.993 10.252 4.161 17.764 6.504 4.844 1.511 9.149 2.768 12.914 3.771 3.766 1.003 9.908 2.712 18.427 5.127 13.795 3.91 23.285 6.67 28.471 8.277M1074.557 289.927c.353.714 1.077 1.281 2.172 1.701 1.094.42 3.244 1.055 6.45 1.905 3.206.85 5.557 1.457 7.053 1.822 1.497.366 4.532 1.197 9.107 2.496 4.576 1.298 10.619 3.287 18.13 5.968 7.511 2.681 14.819 4.988 21.924 6.919 7.106 1.931 12.858 3.442 17.258 4.531M1147.413 396.75c.705-2.065 1.42-4.605 2.146-7.618s1.741-6.68 3.045-11c1.303-4.32 2.997-9.155 5.081-14.508a236.117 236.117 0 0 1 7.022-16.175c2.598-5.432 4.331-8.997 5.199-10.698a381.607 381.607 0 0 0 3.456-6.921M1031.719 303.248c-3.024.217-8.528-.152-16.514-1.108a632.999 632.999 0 0 1-22.448-3.07M1039.214 294.684c-.528-.755-1.593-1.866-3.197-3.333-1.004-.918-2.39-2.15-4.158-3.698a204.852 204.852 0 0 1-3.68-3.273 571.641 571.641 0 0 0-3.57-3.26c-1.694-1.538-3.957-3.684-6.79-6.437-4.335-4.214-7.982-7.941-10.939-11.18M994.68 291.966l-.018.302v.002l-.003-.048c0-.037-.013-.369-.036-.997-.022-.628.133-1.794.466-3.498.333-1.704.884-3.77 1.653-6.197 1.137-3.588 2.647-7.753 4.53-12.496M1055.178 424.753c4.491-6.53 8.279-11.51 11.365-14.937 2.108-2.34 3.828-4.123 5.161-5.348 1.966-1.806 4.455-3.864 7.468-6.174M1093.211 401.024c4.151 11.73 6.696 19.887 7.635 24.473.991 4.838 1.725 9.108 2.203 12.81" style="fill:none;stroke:#f59a23;stroke-width:4.4276;stroke-linecap:round;stroke-linejoin:round;stroke-miterlimit:10;stroke-dasharray:none;stroke-opacity:1" transform="matrix(.72727 0 0 .72727 -46.036 -29.057)"/><path d="M65.378 542.621c2.775-8.283 5.046-14.713 6.812-19.29 1.208-3.13 2.291-5.945 3.25-8.445.957-2.5 2.425-6.244 4.403-11.234 1.977-4.989 4.239-10.544 6.783-16.664 2.545-6.12 4.21-10.09 4.995-11.908.786-1.818 2.205-5.258 4.258-10.318 2.054-5.06 4.647-11.2 7.78-18.42 3.131-7.218 6.621-14.78 10.469-22.682a869.968 869.968 0 0 1 11.748-23.25c3.985-7.597 7.99-14.703 12.015-21.318 6.838-11.236 10.896-18.27 12.174-21.101M157.326 352.965c4.11 3.728 7.47 6.883 10.08 9.467 1.773 1.756 3.843 3.952 6.209 6.59 2.365 2.637 6.08 7.103 11.144 13.397a13479.34 13479.34 0 0 0 11.011 13.674c3.89 4.822 6.14 7.84 6.747 9.057M206.385 406.68c-.19-4.37.834-8.848 3.069-13.436a739.001 739.001 0 0 1 3.809-7.723c1.051-2.095 2.746-5.337 5.083-9.728 2.337-4.39 4.9-9.442 7.69-15.153a1568.924 1568.924 0 0 1 9.549-19.186c3.578-7.08 7.417-14.77 11.516-23.073 4.1-8.303 11.124-21.885 21.072-40.745 9.947-18.861 17.792-33.428 23.534-43.7a1000.535 1000.535 0 0 1 17.631-30.292c6.012-9.923 11.874-19.041 17.585-27.353 8.69-12.649 16.864-23.657 24.522-33.026M357.69 142.778a17.214 17.214 0 0 0 2.563 2.328c.96.715 1.792 1.352 2.495 1.912.703.56 1.82 1.657 3.351 3.293 1.531 1.636 3.2 3.883 5.005 6.742 1.805 2.86 4.645 7.783 8.52 14.771s6.807 12.08 8.796 15.276c3.501 5.627 5.67 8.704 6.507 9.23M396.419 195.992c-1.563-.063-2.095-.877-1.598-2.444a32.057 32.057 0 0 1 1.353-3.495c.545-1.204 1.52-3.225 2.926-6.062 1.406-2.836 3.12-6.001 5.142-9.493 2.023-3.493 4.47-7.644 7.342-12.453a730.575 730.575 0 0 1 9.13-14.866c3.214-5.101 6.957-10.754 11.228-16.96a737.718 737.718 0 0 1 13.77-19.298 307.444 307.444 0 0 1 15.73-19.595c5.578-6.402 9.262-10.563 11.05-12.484 1.79-1.92 4.702-4.766 8.738-8.536 5.95-5.558 13.208-12.324 21.775-20.3M508.012 56.72c3.889 4.398 6.936 7.751 9.142 10.058a477.577 477.577 0 0 1 3.854 4.07c1.06 1.134 2.594 3.141 4.604 6.02 2.01 2.88 4.102 6.192 6.278 9.939 2.176 3.747 4.393 7.876 6.652 12.386 2.258 4.511 4.477 9.362 6.655 14.552 2.18 5.19 4.39 10.462 6.632 15.814a411.31 411.31 0 0 0 7.146 16.076 647.443 647.443 0 0 0 7.682 15.789c4.114 8.167 7.422 14.037 9.924 17.611M576.03 189.977c1.768-2.143 4.334-4.936 7.699-8.379a335.54 335.54 0 0 1 7.356-7.272 404.887 404.887 0 0 0 8.433-8.36 257.914 257.914 0 0 1 8.894-8.64c3.05-2.825 5.916-5.25 8.595-7.277l6.563-4.964M634.677 141.927c-.743.608-1.263 1.425-1.56 2.45-.2.687-.298 1.74-.296 3.159.002 1.418.353 3.372 1.054 5.861.7 2.489 1.63 5.518 2.789 9.086a339.347 339.347 0 0 1 3.586 11.846c1.232 4.328 2.317 9.173 3.255 14.534.939 5.36 1.734 11.352 2.386 17.973a597.89 597.89 0 0 1 1.666 20.822c.46 7.26.966 14.739 1.52 22.436a517.008 517.008 0 0 0 2.311 23.958 401.41 401.41 0 0 0 3.686 24.522 457.54 457.54 0 0 0 5.178 24.511c3.074 12.838 5.795 23.032 8.16 30.583M670.247 368.511c3.446-4.538 6.912-8.538 10.4-11.999a121.925 121.925 0 0 1 7.495-6.83 2472.76 2472.76 0 0 0 7.79-6.567c2.542-2.15 4.161-3.533 4.859-4.146 1.008-.886 2.766-2.675 5.275-5.367M715.153 331.358c-.918.585-1.48 2-1.69 4.247-.137 1.475-.073 3.31.192 5.506.265 2.195.876 4.725 1.833 7.591.956 2.866 1.994 6.21 3.113 10.029 1.119 3.82 1.849 6.371 2.19 7.656.342 1.284.855 3.548 1.54 6.791.686 3.243 1.424 7.408 2.214 12.496.791 5.089 1.563 10.64 2.315 16.656.752 6.015 1.49 12.296 2.217 18.843.726 6.547 1.451 13.25 2.175 20.109.723 6.859 1.422 13.873 2.097 21.041.674 7.17 1.348 14.481 2.023 21.935.675 7.455 1.461 14.306 2.36 20.554.9 6.248 2.024 12.089 3.375 17.524M744.976 525.308c11.447.692 21.482.541 30.105-.452 5.833-.672 10.597-1.273 14.293-1.804 3.697-.53 8.971-1.333 15.824-2.408s14.35-2.224 22.492-3.448a1228.09 1228.09 0 0 1 25.531-3.551 934.663 934.663 0 0 1 27.361-3.106c9.363-.927 19.446-1.812 30.25-2.655 10.804-.842 27.491-2.001 50.06-3.476 22.57-1.476 40.225-2.542 52.967-3.2a1533.627 1533.627 0 0 1 38.414-1.496c19.842-.525 36.278-.881 49.307-1.068" style="fill:none;stroke:#7ec636;stroke-width:4.15748;stroke-linecap:round;stroke-linejoin:round;stroke-miterlimit:10;stroke-dasharray:none;stroke-opacity:1" transform="matrix(.72727 0 0 .72727 -46.036 -29.057)"/><path d="M977.913 274.89a1753.38 1753.38 0 0 0-10.33-3.451c-1.01-.33-1.725-.568-2.146-.712M948.48 265.751c-.932.005-2.165-.247-3.7-.76-1.534-.511-3.133-1.041-4.799-1.59-1.665-.548-2.612-.917-2.842-1.106M918.9 255.767c-1.397 0-2.992-.213-4.784-.638-1.792-.425-3.015-.748-3.671-.97-.656-.22-1.15-.357-1.482-.408M893.023 248.409c-.737.005-2.102-.324-4.093-.985-1.992-.661-3.526-1.125-4.601-1.39-1.076-.265-1.793-.427-2.152-.488M865.614 239.423c-.949 0-2.04-.219-3.273-.656a37.957 37.957 0 0 1-3.43-1.397c-1.054-.494-1.805-.827-2.254-.997-.689-.262-1.274-.388-1.754-.376M835.341 228.973c.282.707.048.958-.7.753-.75-.205-2.331-.731-4.746-1.578-2.415-.847-3.97-1.375-4.664-1.584-.694-.208-1.1-.394-1.218-.556-.171-.235-.5-.608-.988-1.118M805.141 220.22a41.707 41.707 0 0 1-6.602-1.382c-2.179-.642-3.535-1.051-4.068-1.227-.533-.176-.937-.403-1.21-.682M775.947 211.925c-5.636-1.743-8.56-2.664-8.77-2.762l-.177-.083.012.005.035.017-.048-.023M751.399 204.49c-1.515-.319-3.3-.922-5.357-1.809a363.55 363.55 0 0 0-4.829-2.05c-1.161-.48-1.821-.769-1.979-.865-.213-.13-.197-.218.048-.262M725.521 196.75a30.346 30.346 0 0 1-5.357-1.225c-1.822-.587-3.062-1.006-3.72-1.257-.659-.252-1.125-.517-1.4-.796M694.847 187.963c-.73.45-2.514.255-5.35-.587-1.774-.528-3.207-1.086-4.297-1.676M666.965 181.298c-.904.3-1.799.432-2.685.396-.596-.024-1.439-.274-2.53-.748-1.09-.474-1.78-.813-2.066-1.016a2.683 2.683 0 0 1-.752-.86c-.337-.579-.638-.946-.904-1.101M645.919 177.081c-.55.304-1.18.435-1.889.393a2.733 2.733 0 0 1-1.833-.838c-.513-.517-.836-1.078-.97-1.684-.135-.606.129-.982.79-1.128.663-.146 1.222-.22 1.679-.224.456-.004 1.065.239 1.826.728.761.488 1.296 1.001 1.603 1.539.307.537.465.984.474 1.34.009.357-.066.715-.224 1.074-.158.36-.373.663-.646.908s-.86.396-1.763.452c-.902.056-1.62-.048-2.154-.313-.534-.265-1.167-.715-1.897-1.35-.731-.634-1.262-1.212-1.593-1.733-.33-.52-.488-1.05-.473-1.588.014-.537.225-.929.63-1.174.407-.245 1.014-.466 1.823-.662a11.187 11.187 0 0 1 2.594-.302c.921-.004 1.582.051 1.982.166.4.115.738.307 1.013.577.275.27.514.82.717 1.65.203.83.273 1.44.211 1.833-.062.392-.27.737-.627 1.035-.356.297-.956.512-1.798.644-.842.132-1.471.13-1.887-.009-.415-.138-.892-.482-1.431-1.031-.539-.55-.872-1.351-1-2.405-.126-1.054-.073-1.747.16-2.08.235-.333.535-.46.9-.382.366.078.604.285.716.623.166.503.348 1.029.547 1.578" style="fill:none;stroke:#a40066;stroke-width:4.15748;stroke-linecap:round;stroke-linejoin:round;stroke-miterlimit:10;stroke-dasharray:none;stroke-opacity:1" transform="matrix(.72727 0 0 .72727 -46.036 -29.057)"/><path d="M982.4 288.06c-.102 2.849-.156 5.973-.159 9.372l-.004 4.105v-.24l.001-.62-.002 1.833M984.122 318.498a39.676 39.676 0 0 0 .303 8.454l.428 2.939c.018.12.027.13.027.025l.002-.088.003.055c.003.116.045-.17.125-.86M986.999 343.74c-.131 4.884-.105 8.015.079 9.394l.154 1.159-.01-.068-.023-.18.062.47M990.06 370.137l-.127-.665c-.003-.016-.003.025 0 .122l.058 2.129c.036 1.32.184 2.911.444 4.771.26 1.86.414 2.883.465 3.07.07.258.205.107.406-.452M991.879 396.084c-.062 1.727-.035 3.791.081 6.194.076 1.569.115 3.046.119 4.432l.004 1.748v-.063l-.001-.202.001.557M992.577 425.668c-.084 7.01.046 10.545.39 10.605M996.89 450.524c-.127 2.195-.028 5.119.296 8.771.209 2.353.363 3.472.464 3.357.144-.167.33-.585.555-1.254M998.75 475.234c-.065 4.32-.081 7.254-.05 8.801.022 1.07.08 2.146.176 3.226.095 1.08.257 2.187.487 3.322.23 1.136.389 1.79.477 1.962.124.245.35.293.677.145M1000.959 504.982c.099-.939.523-1.618 1.272-2.036.513-.287.885-.424 1.117-.41.232.014.52.46.862 1.339.343.878.575 1.882.695 3.013.121 1.13.01 1.838-.341 2.124-.349.285-.891.458-1.627.517s-1.371.019-1.905-.12a3.629 3.629 0 0 1-1.472-.79 4.935 4.935 0 0 1-1.05-1.23c-.252-.432-.407-1.16-.465-2.183-.058-1.024-.005-1.782.158-2.274.164-.493.556-1.135 1.177-1.927.621-.791 1.222-1.304 1.803-1.538.581-.234 1.012-.345 1.292-.333.281.012.633.455 1.057 1.328.424.873.686 1.95.784 3.228.098 1.28.049 2.293-.147 3.04-.197.748-.439 1.258-.726 1.53-.287.271-.642.49-1.065.657a3.89 3.89 0 0 1-1.288.275 2.427 2.427 0 0 1-1.278-.317c-.415-.228-.762-.598-1.038-1.11-.277-.51-.467-1.402-.57-2.676-.102-1.273-.097-2.142.017-2.606.114-.464.4-.836.859-1.115.458-.279 1.094-.41 1.906-.396.813.015 1.419.188 1.818.518.4.331.723.712.971 1.143.248.43.409.888.483 1.37a4.38 4.38 0 0 1-.05 1.528c-.108.536-.353.948-.736 1.236-.547.41-1.239.293-2.077-.352" style="fill:none;stroke:#fcfcfc;stroke-width:4.15748;stroke-linecap:round;stroke-linejoin:round;stroke-miterlimit:10;stroke-dasharray:none;stroke-opacity:1" transform="matrix(.72727 0 0 .72727 -46.036 -29.057)"/><path d="M712.29 324.933c49.871 116.565-4.194 251.488-120.759 301.36-116.564 49.87-251.488-4.195-301.359-120.76-49.872-116.564 4.194-251.487 120.759-301.359 116.564-49.871 251.488 4.195 301.359 120.76Z" style="fill:none;stroke:#ff9797;stroke-width:4.15748;stroke-linecap:round;stroke-linejoin:round;stroke-miterlimit:10;stroke-dasharray:none;stroke-opacity:1" transform="matrix(.72727 0 0 .72727 307.474 -133.482)"/><path d="M634.217 300.49c27.203-63.581-2.287-137.176-65.868-164.378-63.581-27.203-137.175 2.288-164.378 65.868-27.203 63.581 2.288 137.175 65.869 164.378 63.58 27.203 137.175-2.288 164.377-65.868z" style="fill:#ff9797;fill-opacity:.1;fill-rule:nonzero;stroke:none" transform="matrix(1.33333 0 0 -1.33333 -20.12 503.486)"/></svg>