<svg xmlns="http://www.w3.org/2000/svg" width="121.153" height="131.653"><path d="M836.268 423.89c.748-2.221 2.278-5.782 4.59-10.683 2.31-4.902 4.268-8.9 5.872-11.996a503.694 503.694 0 0 0 4.321-8.517c1.277-2.583 3.396-6.572 6.358-11.968 4.48-8.161 8.859-15.655 13.136-22.479M853.073 432.672c3.7 2.521 8.844 5.453 15.433 8.795 4.25 2.155 8.04 3.99 11.37 5.506 3.33 1.517 8.75 4.057 16.26 7.623 12.164 5.774 20.52 9.81 25.072 12.108M888.005 362.396c.215.716.797 1.354 1.745 1.914.948.56 2.84 1.483 5.675 2.77a389.771 389.771 0 0 0 6.247 2.788c1.328.572 4.01 1.816 8.043 3.732 4.034 1.916 9.319 4.701 15.855 8.356 6.536 3.655 12.943 6.93 19.221 9.828 6.278 2.897 11.368 5.193 15.272 6.889M938.793 472.676c.975-1.802 2.034-4.041 3.176-6.718 1.143-2.677 2.655-5.913 4.536-9.71 1.881-3.796 4.204-8.01 6.97-12.64a221.533 221.533 0 0 1 9.026-13.882c3.253-4.623 5.414-7.655 6.483-9.094 1.63-2.193 3.056-4.15 4.28-5.87M846.261 368.045c-2.834-.271-7.873-1.472-15.118-3.604a594.161 594.161 0 0 1-20.306-6.346M854.537 361.284c-.37-.78-1.184-1.975-2.44-3.584a252.541 252.541 0 0 0-3.272-4.073 191.98 191.98 0 0 1-2.897-3.606 524.763 524.763 0 0 0-2.797-3.575c-1.329-1.688-3.09-4.029-5.283-7.02-3.356-4.579-6.151-8.599-8.384-12.06M813.726 351.818l-.064.277v.001l.004-.044.122-.93c.077-.584.403-1.64.977-3.165.575-1.526 1.407-3.353 2.499-5.48 1.612-3.145 3.66-6.766 6.143-10.864M849.02 484.212c5.177-5.347 9.462-9.366 12.854-12.057 2.317-1.839 4.188-3.221 5.613-4.147 2.103-1.366 4.729-2.883 7.879-4.552M887.939 468.175c2.013 11.508 3.096 19.46 3.25 23.852.162 4.635.176 8.703.04 12.204" style="fill:none;stroke:#f59a23;stroke-width:4.15748;stroke-linecap:round;stroke-linejoin:round;stroke-miterlimit:10;stroke-dasharray:none;stroke-opacity:1" transform="matrix(.72727 0 0 .72727 -588.188 -236.573)"/></svg>