<svg xmlns="http://www.w3.org/2000/svg" width="714.493" height="426.661"><path d="M836.268 423.89c.748-2.221 2.278-5.782 4.59-10.683 2.31-4.902 4.268-8.9 5.872-11.996a503.694 503.694 0 0 0 4.321-8.517c1.277-2.583 3.396-6.572 6.358-11.968 4.48-8.161 8.859-15.655 13.136-22.479M853.073 432.672c3.7 2.521 8.844 5.453 15.433 8.795 4.25 2.155 8.04 3.99 11.37 5.506 3.33 1.517 8.75 4.057 16.26 7.623 12.164 5.774 20.52 9.81 25.072 12.108M888.005 362.396c.215.716.797 1.354 1.745 1.914.948.56 2.84 1.483 5.675 2.77a389.771 389.771 0 0 0 6.247 2.788c1.328.572 4.01 1.816 8.043 3.732 4.034 1.916 9.319 4.701 15.855 8.356 6.536 3.655 12.943 6.93 19.221 9.828 6.278 2.897 11.368 5.193 15.272 6.889M938.793 472.676c.975-1.802 2.034-4.041 3.176-6.718 1.143-2.677 2.655-5.913 4.536-9.71 1.881-3.796 4.204-8.01 6.97-12.64a221.533 221.533 0 0 1 9.026-13.882c3.253-4.623 5.414-7.655 6.483-9.094 1.63-2.193 3.056-4.15 4.28-5.87M846.261 368.045c-2.834-.271-7.873-1.472-15.118-3.604a594.161 594.161 0 0 1-20.306-6.346M854.537 361.284c-.37-.78-1.184-1.975-2.44-3.584a252.541 252.541 0 0 0-3.272-4.073 191.98 191.98 0 0 1-2.897-3.606 524.763 524.763 0 0 0-2.797-3.575c-1.329-1.688-3.09-4.029-5.283-7.02-3.356-4.579-6.151-8.599-8.384-12.06M813.726 351.818l-.064.277v.001l.004-.044.122-.93c.077-.584.403-1.64.977-3.165.575-1.526 1.407-3.353 2.499-5.48 1.612-3.145 3.66-6.766 6.143-10.864M849.02 484.212c5.177-5.347 9.462-9.366 12.854-12.057 2.317-1.839 4.188-3.221 5.613-4.147 2.103-1.366 4.729-2.883 7.879-4.552M887.939 468.175c2.013 11.508 3.096 19.46 3.25 23.852.162 4.635.176 8.703.04 12.204" style="fill:none;stroke:#f59a23;stroke-width:4.15748;stroke-linecap:round;stroke-linejoin:round;stroke-miterlimit:10;stroke-dasharray:none;stroke-opacity:1" transform="matrix(.72727 0 0 .72727 5.153 58.436)"/><path d="M436.519 391.077c.018-8.95.007-15.727-.033-20.327-.027-3.154-.1-7.57-.217-13.249-.118-5.678-.265-13.902-.44-24.67-.176-10.768-.413-22.72-.71-35.857-.296-13.136-.62-26.854-.973-41.155a3677.17 3677.17 0 0 1-.795-41.333c-.177-13.256-.275-24.332-.293-33.227-.028-13.945-.547-24.592-1.557-31.94M488.844 156.996c13.4-6.638 25.893-12.448 37.476-17.43 7.79-3.35 16.838-7.307 27.142-11.868 10.304-4.562 21.385-9.15 33.242-13.768 11.858-4.616 20.015-7.806 24.472-9.568 4.458-1.763 11.65-4.648 21.577-8.657 9.926-4.009 22.135-8.71 36.624-14.105a1901.176 1901.176 0 0 1 45.064-16.114 6940.186 6940.186 0 0 1 46.991-15.97c15.774-5.3 31.303-9.98 46.585-14.043a1923.425 1923.425 0 0 1 43.967-11.16c14.03-3.376 27.6-6.083 40.71-8.12 13.111-2.036 26.23-3.816 39.356-5.34M473.402 398.03c5.412-4.405 11.58-8.297 18.506-11.676 4.597-2.243 9.924-4.825 15.98-7.745 6.058-2.92 12.734-6.059 20.03-9.416 7.297-3.357 15.561-7.097 24.793-11.22 9.231-4.123 19.454-8.818 30.668-14.084 11.214-5.266 18.777-8.756 22.689-10.468 3.911-1.713 10.592-4.77 20.044-9.171 9.45-4.402 21.282-9.494 35.494-15.277 14.212-5.782 29.647-11.796 46.305-18.04a2857.63 2857.63 0 0 1 51.12-18.601c17.422-6.156 35.796-12.178 55.122-18.066a1032.18 1032.18 0 0 1 58.132-15.883c19.429-4.7 34.894-8.542 46.395-11.525M942.962 31.449c-.604 1.069-.743 4.29-.418 9.665.194 3.208.43 7.61.706 13.208.277 5.598.464 14.031.563 25.3.099 11.27.06 24.285-.116 39.047-.176 14.762-.344 30.05-.504 45.862-.16 15.813-.283 30.864-.37 45.153-.087 14.289-.14 25.718-.157 34.287" style="fill:none;stroke:#fcfcfc;stroke-width:4.15748;stroke-linecap:round;stroke-linejoin:round;stroke-miterlimit:10;stroke-dasharray:none;stroke-opacity:1" transform="matrix(.72727 0 0 .72727 -37.315 66.493)"/><path d="M386.592 38.566c-.096-.6-.527-.98-1.294-1.136-.528-.108-1.283-.167-2.266-.178-.982-.01-2.138.019-3.468.087-1.329.069-2.804.281-4.425.637-1.621.355-3.432.83-5.432 1.424-2 .593-4.179 1.303-6.534 2.13-2.356.827-4.778 1.78-7.268 2.86a156.295 156.295 0 0 0-7.94 3.732 140.736 140.736 0 0 0-8.779 4.836c-3.049 1.815-5.642 3.556-7.78 5.222-2.137 1.667-4.87 4.06-8.196 7.176-3.327 3.117-6.295 6.052-8.903 8.805a65.383 65.383 0 0 0-7.127 9.005 71.522 71.522 0 0 0-5.522 9.997c-1.538 3.415-2.734 6.756-3.589 10.023-.854 3.267-1.345 6.69-1.474 10.271-.13 3.581.229 7.073 1.075 10.475.846 3.403 1.916 6.516 3.21 9.338 1.293 2.823 3.454 6.107 6.483 9.852 3.03 3.746 6.252 6.747 9.668 9.005 3.415 2.258 7.2 4.243 11.356 5.954 4.155 1.711 8.6 3.14 13.338 4.288a95.458 95.458 0 0 0 14.473 2.343 138.2 138.2 0 0 0 14.479.475c4.742-.099 9.58-.594 14.512-1.486 4.933-.892 9.925-2.137 14.976-3.736 5.05-1.6 9.871-3.327 14.463-5.181a105.842 105.842 0 0 0 13.289-6.476c4.267-2.463 8.38-5.444 12.341-8.944 3.961-3.5 7.614-7.225 10.96-11.173 3.344-3.949 6.45-8.293 9.318-13.033 2.867-4.74 5.35-9.45 7.448-14.13 2.097-4.68 3.727-9.252 4.889-13.717 1.161-4.464 1.882-8.65 2.163-12.555.28-3.905.087-7.657-.58-11.257-.667-3.599-1.849-6.81-3.546-9.631-1.697-2.822-3.94-5.488-6.73-7.998-2.79-2.51-5.964-4.868-9.52-7.072-3.556-2.204-7.44-4.137-11.653-5.797-4.213-1.66-8.82-3.075-13.82-4.242-5-1.167-10.306-2.029-15.916-2.585-5.61-.555-11.46-.664-17.553-.326-6.092.339-12.449 1.594-19.07 3.765-6.622 2.172-11.101 3.807-13.438 4.907-2.336 1.099-5.806 3.109-10.411 6.03-4.605 2.92-10.144 7.07-16.617 12.45-6.473 5.38-12.764 11.838-18.871 19.372-6.107 7.534-11.512 15.881-16.215 25.042-6.99 13.616-12.714 29.057-17.17 46.323" style="fill:none;stroke:#7ec636;stroke-width:4.15748;stroke-linecap:round;stroke-linejoin:round;stroke-miterlimit:10;stroke-dasharray:none;stroke-opacity:1" transform="matrix(.72727 0 0 .72727 -96.613 42.62)"/><path d="M814.04 424.464c.428.144.65.22.668.225a.501.501 0 0 0-.095-.049l-2.095-1.013a89.042 89.042 0 0 1-4.572-2.406c-1.728-.965-2.65-1.56-2.765-1.783-.169-.327-.47-.587-.906-.78M778.571 403.469l1.592 1.268c.174.139.179.169.015.09l-.873-.418c-.418-.2-2.017-1.103-4.797-2.708-2.78-1.606-4.464-2.552-5.05-2.837a36.538 36.538 0 0 0-.848-.408M744.647 383.495c-3.725-1.77-6.222-2.925-7.49-3.465-.878-.374-1.32-.584-1.325-.63a20.964 20.964 0 0 1-.006-.995M715.952 367.797c-.947.162-3.265-.671-6.954-2.501-2.216-1.1-3.682-1.84-4.397-2.22-.716-.38-1.166-.825-1.352-1.334M687.735 351.823c-1.183-.328-3.105-1.247-5.765-2.758-2.661-1.51-4.456-2.55-5.387-3.121l-1.395-.856M655.144 333.273c-2.895-1.464-5.158-2.72-6.79-3.766l-1.58-1.016.005.003.05.03-.122-.077M625.638 318.693c-2.025-.554-3.773-1.214-5.243-1.98a63.666 63.666 0 0 1-3.24-1.825c-1.167-.699-1.762-1.067-1.785-1.105a2.672 2.672 0 0 0-.315-.345M594.684 304.943c-.58.14-1.875-.297-3.888-1.315-1.233-.622-3.544-1.737-6.934-3.342-3.39-1.606-5.11-2.415-5.16-2.428-.072-.019-.165-.166-.28-.442M555.849 284.982c-1.441-.553-3.198-1.344-5.271-2.373-2.073-1.03-3.704-1.81-4.892-2.34-1.189-.53-1.816-.843-1.883-.938-.095-.135-.173-.579-.233-1.33M466.107 236.427c-1.737-.37-3.825-1.006-6.267-1.91-2.44-.903-4.259-1.601-5.454-2.094-1.195-.493-1.85-.809-1.966-.948-.165-.199-.593-.859-1.284-1.98M427.61 217.771c-.93-.09-2.26-.538-3.988-1.343a94.69 94.69 0 0 1-4.273-2.099l-2.038-1.08c-.24-.128-.353-.194-.34-.2.012-.007.03-.004.052.01.033.02.21.062.53.125M396.863 201.892c-.836-.05-2.116-.475-3.84-1.277a147.061 147.061 0 0 0-4.54-2.031c-1.302-.552-2.231-.94-2.786-1.16-.556-.222-.812-.448-.768-.678M364.77 188.655c-.618.334-2.091.074-4.419-.781-1.455-.535-2.593-.971-3.415-1.31-.822-.338-2.038-.913-3.647-1.725-1.61-.812-2.558-1.31-2.845-1.492l-.384-.244.005.004.026.018-.063-.04M330.117 175.248l1.1.607c.025.014.017.014-.024 0l-.925-.31c-.576-.192-1.914-.764-4.014-1.716-2.1-.952-3.97-1.85-5.608-2.696-1.637-.845-2.457-1.287-2.46-1.325-.002-.055.277.023.838.234M294.72 160.08c-1.018 0-1.99-.272-2.915-.817-.925-.545-1.578-1.06-1.958-1.544-.38-.485-.592-.952-.638-1.402-.045-.449.33-.747 1.124-.894.794-.148 1.52-.105 2.178.128a7.34 7.34 0 0 1 1.923 1.042c.623.462 1.174.948 1.653 1.458.478.51.97 1.215 1.477 2.115.507.9.767 1.471.78 1.713.013.242-.202.445-.644.609-.442.164-1.308.232-2.598.205-1.29-.027-2.225-.182-2.804-.466a6.74 6.74 0 0 1-1.48-.96c-.408-.356-.749-.906-1.022-1.648-.274-.742-.412-1.296-.414-1.66a2.141 2.141 0 0 1 .274-1.058c.186-.34.51-.642.972-.906.461-.263 1.326-.448 2.595-.554 1.269-.106 2.179-.044 2.73.185.55.229 1.065.633 1.541 1.214s.981 1.37 1.514 2.365a8.935 8.935 0 0 1 1.003 3.145c.136 1.101.102 1.864-.102 2.287-.204.424-.55.752-1.035.983a4.138 4.138 0 0 1-1.638.381 4.475 4.475 0 0 1-1.805-.313 4.718 4.718 0 0 1-1.608-1.046c-.476-.467-.986-1.189-1.531-2.166-.545-.977-.832-1.965-.859-2.962-.027-.997.113-1.668.422-2.014.308-.346.707-.6 1.199-.762.49-.161.98-.263 1.467-.303.486-.041.976-.016 1.468.074.491.09.937.347 1.336.77.4.424.723.96.971 1.61.248.65.409 1.331.483 2.044.074.714.079 1.362.015 1.947a2.82 2.82 0 0 1-.707 1.577 3.746 3.746 0 0 1-1.4 1.025 4.724 4.724 0 0 1-1.63.358c-.562.021-1.125-.117-1.69-.414s-1.122-.787-1.67-1.47a9.3 9.3 0 0 1-1.325-2.202c-.334-.786-.555-1.86-.664-3.223-.11-1.362-.07-2.298.12-2.81.19-.51.542-.94 1.058-1.29.515-.348 1.25-.578 2.205-.69.954-.112 1.729.006 2.324.354.596.347 1.178.9 1.746 1.657.569.757.999 1.59 1.291 2.498.292.909.475 1.77.548 2.583a8.154 8.154 0 0 1-.085 2.246c-.13.684-.469 1.282-1.018 1.794-.55.512-1.223.885-2.022 1.121a8.633 8.633 0 0 1-2.467.352 4.543 4.543 0 0 1-2.405-.697 8.575 8.575 0 0 1-2.013-1.707 12.336 12.336 0 0 1-1.49-2.122 7.83 7.83 0 0 1-.847-2.372 16.004 16.004 0 0 1-.257-2.644c-.015-.921.102-1.764.352-2.53.25-.764.598-1.382 1.045-1.853.446-.47 1.017-.776 1.713-.917a6.677 6.677 0 0 1 2.223-.055c.786.105 1.544.417 2.273.936a7.618 7.618 0 0 1 1.87 1.903c.515.75.857 1.556 1.023 2.419.167.862.236 1.698.21 2.506-.028.809-.254 1.52-.678 2.134-.423.615-.854 1.104-1.29 1.47a3.388 3.388 0 0 1-1.394.723c-.493.118-.794.015-.903-.309-.167-.5-.33-.9-.485-1.205M821.858 417.179c-3.454-4.486-5.461-7.055-6.021-7.708a6.813 6.813 0 0 1-.92-1.342c-.338-.666-.715-1.166-1.132-1.5M803.93 393.53c-1.51-1.971-3.324-4.532-5.442-7.682-1.374-2.042-2.262-3.32-2.664-3.834-.402-.514-.647-.84-.734-.98M787.489 365.76c-1.373-1.599-3.19-4.18-5.452-7.743-2.262-3.564-3.415-5.485-3.459-5.764M769.784 339.473c-.831-1.206-2.582-4.101-5.252-8.687-1.597-2.742-2.57-4.39-2.92-4.941l-.557-.878c-.021-.032-.001.013.059.134l.05.097-.033-.076c-.068-.15.098.039.5.565M751.5 312.04c-.116-.788-1.586-3.139-4.41-7.055a375.316 375.316 0 0 1-3.015-4.213c-.388-.56-.547-.775-.476-.644.096.18.039.118-.172-.186M734.894 285.68c-.637-.32-1.492-1.434-2.564-3.34a162.463 162.463 0 0 0-2.946-5.045c-.892-1.459-1.436-2.336-1.634-2.632a9.66 9.66 0 0 0-.278-.41l.01.02-.022-.032M720.105 259.98c-.78-.713-1.629-1.737-2.546-3.072-.917-1.336-2.2-3.132-3.85-5.388-1.648-2.256-2.616-3.612-2.902-4.068-.286-.456-.376-.714-.271-.776.153-.09.382-.19.686-.304M703.768 232.94c-.382-.354-1.41-2.248-3.086-5.684-.94-1.929-1.668-3.516-2.182-4.76l-.684-1.655.011.027.051.123-.137-.333M653.98 157.755c-.897-1.725-2.032-3.564-3.407-5.518-1.375-1.953-2.192-3.092-2.45-3.416a1.827 1.827 0 0 1-.403-1.132c-.015-.68-.08-1.162-.195-1.443M634.758 126.461c-.632-.18-1.242-.6-1.83-1.26-.589-.66-1.774-2.126-3.556-4.4-1.783-2.273-2.698-3.54-2.747-3.8-.08-.428-.095-.687-.043-.776M617.105 99.052a24.798 24.798 0 0 1-3.034-3.836 61.007 61.007 0 0 1-2.614-4.448 506.987 506.987 0 0 0-1.465-2.738c-.158-.288-.165-.48-.023-.575M599.236 72.091c-3.899-4.948-6.22-8.012-6.964-9.19-.519-.823-.747-1.238-.685-1.246.088-.01.287.128.596.416M581.562 46.626c-.92-1.04-2.04-2.531-3.364-4.475-1.323-1.943-2.19-3.167-2.602-3.672l-.523-.643.017.02.057.07-.15-.186M566.514 21.473c-.848-1.354-1.652-2.5-2.413-3.437a14.055 14.055 0 0 0-1.505-1.608 7.483 7.483 0 0 1-1.19-1.323M812.444 436.157c-2.033.203-3.878.271-5.535.204-1.117-.045-2.503-.17-4.159-.372-1.655-.204-2.654-.525-2.997-.965a40.203 40.203 0 0 1-1.241-1.662M779.294 430.315c-1.056.255-2.293.36-3.712.315a47.916 47.916 0 0 1-3.857-.264c-1.153-.13-1.83-.26-2.031-.39a2.646 2.646 0 0 1-.774-.774M749.03 424.38c-1.571-.301-3.51-.806-5.819-1.513-1.498-.459-2.44-.766-2.823-.922l-.451-.182.034.014.082.034-.22-.089M719.57 417.097c-1.08.154-2.91-.047-5.493-.603a85.726 85.726 0 0 1-4.139-.983c-1.14-.306-1.714-.495-1.72-.565-.01-.099.199-.276.622-.53M690.793 411.495c-2.17-.23-4.607-.693-7.311-1.388-2.704-.696-4.28-1.128-4.728-1.295-.648-.242-.948-.603-.899-1.082M661.049 403.822c-1.04 0-2.242-.156-3.603-.467a37.212 37.212 0 0 1-3.81-1.074c-1.178-.405-1.863-.624-2.055-.655a5.543 5.543 0 0 1-.27-.046M628.506 393.94c-2.77.193-5.424-.01-7.962-.604-1.702-.4-2.747-.686-3.136-.859-.59-.262-.915-.542-.975-.837M596.235 385.743c-2.048.08-3.768.035-5.16-.134-.945-.115-2.46-.42-4.545-.917a454.867 454.867 0 0 1-3.605-.866c-.432-.11-.483-.298-.155-.564M566.347 379.503c-1.624 0-3.864-.235-6.72-.705-2.855-.47-4.828-.824-5.92-1.062-1.09-.239-1.698-.4-1.82-.484a4.889 4.889 0 0 0-.81-.417M529.09 373.007c-.968-.075-2.319-.35-4.053-.827a75.444 75.444 0 0 1-4.595-1.404c-1.33-.46-2.001-.752-2.016-.878a1.133 1.133 0 0 0-.166-.488M494.543 363.136c-1.082.192-2.16.27-3.236.232-.718-.024-2.012-.202-3.88-.534-1.87-.332-3.383-.657-4.54-.977-1.157-.32-1.967-.578-2.43-.777-.463-.198-.766-.393-.91-.584M374.827 342.11c-2.15-.079-4.627-.576-7.43-1.493-2.802-.916-4.408-1.475-4.815-1.677a1.569 1.569 0 0 1-.825-.944M338.664 330.949c-1.706 0-3.793-.273-6.263-.818-2.47-.545-4.13-.892-4.982-1.04-.852-.146-1.281-.246-1.29-.298-.011-.075.007-.312.058-.714M307.91 323.546c-.846.112-1.863.062-3.053-.151-.778-.14-2.287-.525-4.528-1.156-2.242-.63-3.805-1.053-4.692-1.267-.887-.214-1.332-.356-1.336-.426a7.068 7.068 0 0 1-.005-.471M271.68 311.57c-1.24.05-2.369.024-3.39-.08-.686-.07-1.895-.348-3.626-.835-1.73-.488-2.75-.8-3.06-.938l-.463-.206M242.175 303.922c-1.35 0-2.86-.205-4.533-.615-1.673-.41-3.403-.855-5.19-1.337-1.788-.481-2.797-.859-3.027-1.132-.336-.4-.773-.95-1.31-1.65M203.84 291.867c-.821.413-3.156.11-7.004-.906-2.327-.614-3.664-.993-4.01-1.136-.346-.143-.52-.308-.524-.496a1.68 1.68 0 0 0-.237-.817M166.584 279.768c-1.768-.05-3.634-.33-5.598-.842-1.964-.513-4.358-1.198-7.183-2.055-2.825-.857-4.193-1.336-4.105-1.435.128-.145.37-.264.723-.357M125.922 266.393c-1.135.279-2.169.366-3.1.263-.63-.07-1.734-.363-3.314-.88s-2.782-.942-3.606-1.276a51.9 51.9 0 0 0-2.768-1.02l-1.507-.51h0M92.088 254.903c-1.366.155-2.771.078-4.215-.23a43.756 43.756 0 0 1-4.044-1.058c-1.253-.396-2.11-.703-2.573-.922l-.693-.328M60.411 243.373c-.39.504-1.086.748-2.086.73-1-.017-2.707-.44-5.119-1.266a330.456 330.456 0 0 0-4.393-1.487c-.517-.165-.88-.332-1.09-.5-.3-.241-.362-.576-.187-1.004M28.662 233.538c-.527.404-1.274.608-2.24.61-.966.004-1.79-.076-2.473-.24-.682-.164-1.933-.655-3.754-1.473-1.82-.818-3.44-1.51-4.862-2.076-1.42-.566-2.11-.873-2.069-.92.06-.067.338-.208.835-.423" style="fill:none;stroke:#a40066;stroke-width:4.15748;stroke-linecap:round;stroke-linejoin:round;stroke-miterlimit:10;stroke-dasharray:none;stroke-opacity:1" transform="matrix(.72727 0 0 .72727 -8.137 -9.474)"/><path d="M487.608 360.529c.298.14.56.35.782.631.223.281.384.53.481.745.098.215.183.51.255.887.073.376.113.675.12.897.009.221-.019.457-.081.707-.063.25-.213.473-.45.668-.238.194-.561.33-.97.406a6.982 6.982 0 0 1-1.366.106c-.502-.006-.942-.084-1.32-.234a3.363 3.363 0 0 1-.963-.566 3.342 3.342 0 0 1-.713-.898 5.918 5.918 0 0 1-.527-1.304 8.889 8.889 0 0 1-.266-1.151 6.485 6.485 0 0 1-.059-.752c-.004-.232.04-.53.132-.894.091-.364.291-.682.6-.952.307-.271.66-.477 1.059-.618a5.63 5.63 0 0 1 1.21-.285c.41-.05.816-.066 1.22-.05.403.017.787.104 1.153.262.366.159.716.383 1.05.675.334.291.65.675.947 1.151.298.477.514.877.649 1.202.135.324.255.655.36.992.105.337.206.824.302 1.461.095.638.12 1.226.072 1.764a3.007 3.007 0 0 1-.543 1.485 4.254 4.254 0 0 1-1.16 1.127c-.457.3-.918.487-1.383.56-.465.073-.91.02-1.331-.156a3.17 3.17 0 0 1-1.153-.856 8.188 8.188 0 0 1-.955-1.352c-.29-.508-.549-1.082-.777-1.721a11.23 11.23 0 0 1-.512-2.08c-.114-.748-.174-1.368-.18-1.859-.005-.49.12-1.002.375-1.533.255-.532.561-.899.92-1.1.357-.203.77-.321 1.239-.355.468-.034.953.047 1.454.242.501.196.98.446 1.433.748a6.638 6.638 0 0 1 2.194 2.448c.263.503.443 1.047.54 1.631.097.585.147.959.152 1.122.004.162-.033.415-.111.757s-.298.704-.66 1.085c-.362.381-.856.722-1.482 1.023a5.8 5.8 0 0 1-2 .55c-.707.065-1.345-.012-1.913-.233a4.037 4.037 0 0 1-1.49-1.002c-.424-.448-.77-1.002-1.04-1.663-.27-.662-.443-1.21-.52-1.646a8.22 8.22 0 0 1-.127-1.282c-.008-.42.044-.937.157-1.553.113-.616.21-1.011.292-1.187.081-.175.261-.378.54-.609.279-.23.652-.382 1.119-.455.467-.074.98-.025 1.537.146a6.44 6.44 0 0 1 1.697.834 8.102 8.102 0 0 1 1.53 1.327c.447.5.796 1.04 1.048 1.623.252.582.4 1.126.445 1.632.046.505.046.826.002.961-.043.136-.181.313-.413.532-.231.22-.575.414-1.03.585a3.64 3.64 0 0 1-1.382.24c-.464-.012-.869-.128-1.213-.349a2.465 2.465 0 0 1-.832-.907 4.402 4.402 0 0 1-.457-1.325 8.893 8.893 0 0 1-.153-1.451c-.01-.469.05-.861.177-1.177.128-.316.333-.515.614-.597.282-.082.65-.003 1.104.237.454.24.917.617 1.388 1.13a8.68 8.68 0 0 1 1.181 1.615c.316.563.525 1.056.627 1.48.102.425.115.776.04 1.053-.075.276-.3.489-.675.637-.375.147-.837.229-1.385.244a3.212 3.212 0 0 1-1.502-.305 3.153 3.153 0 0 1-1.12-.881c-.294-.37-.498-.8-.613-1.291a6.585 6.585 0 0 1-.176-1.46c-.003-.482.112-.868.345-1.157.234-.288.543-.458.927-.508.384-.05.802.05 1.253.3.45.251.865.577 1.242.978.378.4.67.809.879 1.225.208.416.33.783.366 1.101.035.319-.027.575-.187.77-.16.195-.418.34-.775.438a5.8 5.8 0 0 1-1.195.183 4.59 4.59 0 0 1-1.204-.078 1.697 1.697 0 0 1-.908-.498c-.241-.256-.424-.602-.549-1.038a5.465 5.465 0 0 1-.205-1.36c-.012-.469.073-.838.258-1.105.184-.267.49-.386.92-.355.43.031.892.218 1.39.562a8.33 8.33 0 0 1 1.341 1.15c.397.423.697.826.9 1.21.204.385.343.823.415 1.315.073.492.087.993.042 1.503-.045.51-.209.993-.49 1.449a2.936 2.936 0 0 1-1.082 1.048c-.439.244-.868.357-1.288.338-.42-.018-.814-.212-1.184-.582s-.686-.858-.95-1.462a7.64 7.64 0 0 1-.55-1.887 8.03 8.03 0 0 1-.084-1.86c.045-.585.198-1.085.458-1.498.26-.413.555-.676.885-.789.33-.112.7-.068 1.109.134.408.201.811.525 1.208.971.396.446.713.901.95 1.364.237.463.381.884.433 1.264.052.38.01.727-.124 1.041a1.66 1.66 0 0 1-.64.755c-.29.188-.599.298-.925.33a1.643 1.643 0 0 1-.977-.222c-.325-.18-.656-.465-.992-.853a89.815 89.815 0 0 1-1.18-1.38" style="fill:none;stroke:#000;stroke-width:4.15748;stroke-linecap:round;stroke-linejoin:round;stroke-miterlimit:10;stroke-dasharray:none;stroke-opacity:1" transform="matrix(.72727 0 0 .72727 -8.137 -9.474)"/><path d="M521.792 267.35c.062.142-.033.167-.284.076-.25-.09-.81-.38-1.68-.869a73.353 73.353 0 0 0-2.017-1.1 67.512 67.512 0 0 1-1.748-.946c-.692-.385-1.727-.996-3.105-1.833a388.588 388.588 0 0 1-2.93-1.79c-.574-.356-1.129-.708-1.664-1.053-.536-.346-.816-.531-.84-.557-.033-.036-.087-.177-.161-.422" style="fill:none;stroke:#a40066;stroke-width:4.15748;stroke-linecap:round;stroke-linejoin:round;stroke-miterlimit:10;stroke-dasharray:none;stroke-opacity:1" transform="matrix(.72727 0 0 .72727 -8.137 -9.474)"/><path d="M699.329 227.319c-.015.127-.095.194-.24.202-.146.008-.243-.078-.291-.26a2.257 2.257 0 0 1-.074-.569 2.68 2.68 0 0 1 .057-.574c.04-.185.121-.35.245-.497.124-.147.343-.304.655-.473.313-.168.617-.285.914-.35.297-.066.602-.1.917-.103.315-.003.565.028.752.094.186.066.398.214.635.443.237.23.4.41.49.544.09.132.163.285.221.457.058.173.09.452.099.84.008.387-.05.686-.17.897-.122.21-.31.452-.564.725-.255.272-.58.554-.977.845-.397.292-.723.501-.977.629a4.295 4.295 0 0 1-.743.295c-.241.07-.576.099-1.006.09-.43-.01-.738-.059-.926-.148-.188-.089-.455-.3-.803-.635-.347-.334-.596-.61-.746-.827a2.938 2.938 0 0 1-.348-.66c-.081-.221-.148-.575-.2-1.06a11.81 11.81 0 0 1-.079-1.05 2.216 2.216 0 0 1 .083-.62c.056-.197.233-.47.53-.82a4.25 4.25 0 0 1 .99-.863c.362-.226.64-.376.833-.451.193-.075.509-.147.947-.216a7.46 7.46 0 0 1 .979-.106c.214-.002.424.029.63.092.205.063.414.162.626.296.212.135.412.28.6.438.189.157.356.319.503.485.146.166.299.41.458.73.16.32.256.663.29 1.03.034.367.047.664.038.892-.01.228-.05.469-.123.722-.072.254-.167.51-.285.768-.118.257-.25.51-.397.758-.147.249-.304.481-.471.697a3.038 3.038 0 0 1-1.116.927c-.21.103-.57.21-1.08.322-.508.112-.991.179-1.448.202-.457.023-.788-.018-.993-.122a2.54 2.54 0 0 1-.588-.42 6.95 6.95 0 0 1-.611-.67 5.47 5.47 0 0 1-.625-.99 5.834 5.834 0 0 1-.394-.927c-.067-.23-.112-.555-.136-.975-.024-.42-.025-.692-.002-.816.022-.124.099-.244.228-.36.192-.173.431-.352.717-.539" style="fill:none;stroke:#000;stroke-width:4.15748;stroke-linecap:round;stroke-linejoin:round;stroke-miterlimit:10;stroke-dasharray:none;stroke-opacity:1" transform="matrix(.72727 0 0 .72727 -8.137 -9.474)"/><path d="M510.999 263.104c-.141.462-.266.614-.375.456-.078-.113-.137-.338-.176-.677a6.85 6.85 0 0 1-.038-1.067c.015-.373.063-.648.145-.825.083-.177.229-.376.439-.598a1.99 1.99 0 0 1 .696-.486c.253-.104.554-.17.902-.201.348-.03.639-.046.872-.047.233-.001.482.014.745.045.264.03.64.119 1.13.263.49.145.842.266 1.057.363.215.096.515.279.9.548.386.269.709.552.968.849.26.297.515.663.765 1.099.25.435.433.8.55 1.096.117.295.207.657.271 1.085.064.428.085.735.064.922-.021.186-.141.527-.36 1.02-.218.495-.41.856-.574 1.085-.164.229-.358.45-.583.665-.225.214-.572.476-1.041.785-.47.309-.88.555-1.232.738-.351.183-.636.299-.852.348-.217.049-.575.064-1.075.045-.5-.018-.894-.093-1.183-.223a7.525 7.525 0 0 1-.779-.403 6.727 6.727 0 0 1-.781-.566c-.292-.24-.54-.463-.746-.67-.206-.207-.488-.56-.846-1.058-.357-.498-.613-.893-.766-1.183a6.992 6.992 0 0 1-.384-.861 4.361 4.361 0 0 1-.219-.851 6.494 6.494 0 0 1-.07-.853 6.16 6.16 0 0 1 .03-.768c.024-.226.089-.434.194-.624.106-.19.228-.37.366-.54.139-.17.29-.32.457-.45.165-.129.45-.285.851-.467.402-.182.84-.316 1.317-.402.475-.085 1.06-.134 1.755-.147.694-.013 1.147.01 1.36.066.213.056.417.142.613.26.196.116.384.257.563.42.18.164.342.338.487.522.146.184.278.424.398.72.12.295.224.684.31 1.164.087.481.144.847.172 1.1.028.25.043.604.046 1.06.003.455-.011.785-.043.99a2.324 2.324 0 0 1-.197.627 2.914 2.914 0 0 1-.377.601 3.228 3.228 0 0 1-.612.563 4.46 4.46 0 0 1-.864.487 4.54 4.54 0 0 1-.902.292 5.16 5.16 0 0 1-1.053.076 3.953 3.953 0 0 1-1.248-.222c-.41-.142-.692-.265-.846-.369a1.862 1.862 0 0 1-.433-.422c-.136-.178-.288-.459-.458-.843a4.718 4.718 0 0 1-.35-1.193 7.352 7.352 0 0 1-.1-.992c-.002-.25.02-.479.067-.688.047-.21.177-.473.392-.79.214-.317.45-.6.705-.852.256-.251.536-.426.841-.524.305-.098.655-.14 1.048-.128.394.012.737.073 1.03.184.293.11.576.302.85.574.274.272.528.596.762.972.234.376.386.683.456.921.07.239.106.532.11.879.004.346-.026.626-.09.837a2.627 2.627 0 0 1-.249.577 1.913 1.913 0 0 1-.334.43c-.121.112-.331.201-.63.265a3.558 3.558 0 0 1-.976.063 1.765 1.765 0 0 1-.949-.34 3.221 3.221 0 0 1-.653-.608 5.944 5.944 0 0 1-.391-.562c-.104-.172-.183-.414-.238-.725a4.534 4.534 0 0 1-.083-.706c0-.16.024-.32.072-.479.05-.16.157-.342.322-.548.166-.206.394-.36.684-.46.29-.1.518-.152.687-.154a.979.979 0 0 1 .496.132c.161.09.284.239.367.445.083.206.127.462.131.768.004.307-.04.536-.133.688-.094.152-.275.262-.546.329-.27.067-.407.069-.412.006-.007-.092.03-.192.111-.3" style="fill:none;stroke:#7ec636;stroke-width:4.15748;stroke-linecap:round;stroke-linejoin:round;stroke-miterlimit:10;stroke-dasharray:none;stroke-opacity:1" transform="matrix(.72727 0 0 .72727 -8.137 -9.474)"/></svg>