<svg xmlns="http://www.w3.org/2000/svg" width="300.327" height="245.969"><path d="m354.419 430.559-1.126.642c-.118.067-.062-.172.168-.718l1.272-3.019c.618-1.467 1.314-3.325 2.09-5.575a175.21 175.21 0 0 0 2.392-7.558c.82-2.788 1.75-5.87 2.787-9.244a480.927 480.927 0 0 1 3.753-11.598c1.464-4.358 5.017-12.865 10.657-25.523 5.641-12.658 9.058-20.358 10.251-23.102 1.193-2.743 3.15-7.424 5.869-14.042 2.72-6.618 6.225-14.898 10.517-24.838 4.293-9.94 9.005-20.168 14.137-30.68a3736.202 3736.202 0 0 1 15.753-31.878 826.677 826.677 0 0 1 16.512-31.352 24864.286 24864.286 0 0 1 17.006-30.6 733.191 733.191 0 0 1 17.522-29.825 1198.3 1198.3 0 0 1 17.755-27.793c5.853-8.882 10.818-16.097 14.894-21.646M369.366 436.26c5.458-.104 10.002-.414 13.633-.93 2.466-.352 5.06-.716 7.781-1.093 2.722-.378 6.335-.818 10.84-1.322 4.506-.504 9.737-.981 15.694-1.432 5.956-.451 12.28-.962 18.972-1.531 6.692-.57 13.852-1.145 21.48-1.726 7.628-.582 15.781-1.135 24.46-1.659 8.677-.524 17.593-.998 26.747-1.422 9.155-.424 18.535-.81 28.141-1.158 9.606-.348 19.544-.669 29.813-.961a1519.75 1519.75 0 0 1 30.167-.566c9.843-.085 19.82-.132 29.932-.14 10.112-.008 20.158.125 30.139.401 9.98.276 19.722.552 29.225.827 9.503.275 18.687.474 27.553.596a398.657 398.657 0 0 0 39.503-1.397M532.598 117.838c7.977 9.017 14.91 16.669 20.801 22.955 3.991 4.26 7.483 8.288 10.477 12.086 2.994 3.798 8.013 9.984 15.059 18.557a1027.546 1027.546 0 0 1 20.859 26.251 695.052 695.052 0 0 0 21.152 26.19c7.241 8.533 14.936 17.122 23.083 25.768a800.85 800.85 0 0 1 23.276 25.77 4458.545 4458.545 0 0 1 21.853 25.498 1962.454 1962.454 0 0 0 21.342 24.683c7.029 7.992 13.2 15.602 18.513 22.832l14.289 19.447c4.213 5.733 7.937 10.65 11.171 14.748 3.235 4.099 5.732 7.395 7.494 9.89" style="fill:none;stroke:#7ec636;stroke-width:4.15748;stroke-linecap:round;stroke-linejoin:round;stroke-miterlimit:10;stroke-dasharray:none;stroke-opacity:1" transform="matrix(.72727 0 0 .72727 -255.343 -72.823)"/></svg>