<svg xmlns="http://www.w3.org/2000/svg" width="682.48" height="246.085"><path d="M108.617 513.02c-.25-.576-.396-1.855-.44-3.836a412.454 412.454 0 0 1-.088-6.409 857.747 857.747 0 0 1-.007-8.199c.01-3.175.068-6.638.172-10.39.104-3.75.169-8.11.194-13.074a491.555 491.555 0 0 0-.212-16.315c-.167-5.91-.44-12.119-.816-18.624-.377-6.505-.797-13.401-1.258-20.688a688.572 688.572 0 0 1-1.03-21.436c-.346-10.79-.546-19.775-.599-26.957M115.213 515.891c1.762.36 4.066.26 6.91-.295 1.847-.362 3.86-.823 6.039-1.383 2.178-.56 4.662-1.164 7.45-1.81a202.204 202.204 0 0 1 9-1.857c3.21-.592 6.647-1.162 10.311-1.709 3.664-.547 7.365-1.03 11.101-1.445 3.737-.416 7.714-.818 11.93-1.207 4.217-.39 8.542-.764 12.976-1.123 4.434-.359 8.976-.66 13.626-.902a419.25 419.25 0 0 1 14.135-.496c4.774-.088 9.567-.136 14.378-.145 4.81-.009 9.43.018 13.856.081 6.69.095 12.975.112 18.852.052M268.381 498.097a224.67 224.67 0 0 1-.708-4.932 135.586 135.586 0 0 1-.413-3.563c-.14-1.35-.295-3.011-.464-4.986a845.174 845.174 0 0 1-1.141-15.142c-.2-3.019-.389-6.307-.563-9.863-.175-3.557-.316-7.28-.425-11.172a466 466 0 0 1-.178-11.669c-.011-3.886-.003-7.985.023-12.296.026-4.311.066-8.797.12-13.457.054-4.66.084-7.756.09-9.29.004-1.533-.057-4.01-.187-7.429-.13-3.42-.393-7.145-.79-11.178a485.704 485.704 0 0 0-1.197-10.976c-.614-5.038-1.075-9.349-1.383-12.935M107.294 365.606h-.376c-.01 0 .018-.007.083-.022l1.293-.29c.797-.178 1.734-.399 2.81-.661a58.026 58.026 0 0 1 2.413-.549c.531-.103 1.82-.27 3.866-.498a137.62 137.62 0 0 1 6.791-.57c2.482-.153 5.249-.34 8.301-.562 3.052-.222 6.294-.536 9.724-.942 3.43-.406 7.04-.816 10.83-1.232 3.789-.415 7.742-.726 11.861-.934 4.119-.207 8.37-.34 12.756-.4 4.385-.059 8.842-.092 13.371-.098 4.53-.006 9.034.062 13.511.202 4.478.14 8.915.275 13.311.405 4.397.13 8.679.278 12.846.446 4.167.167 8.311.31 12.431.43 6.224.18 12.09.192 17.6.04M268.204 358.593c.387-.59 1.085-1.423 2.094-2.497a156.236 156.236 0 0 1 3.247-3.35 117.557 117.557 0 0 0 4.01-4.266 630.698 630.698 0 0 0 4.875-5.483c1.732-1.97 3.662-3.99 5.788-6.063a360.131 360.131 0 0 0 6.829-6.855 275.386 275.386 0 0 1 7.515-7.437 774.738 774.738 0 0 0 7.619-7.36c2.496-2.445 4.794-4.58 6.894-6.408a144.62 144.62 0 0 0 5.527-5.04 455.044 455.044 0 0 1 4.51-4.302 304.503 304.503 0 0 1 3.988-3.689 63.999 63.999 0 0 0 3.08-2.955c.814-.846 1.542-1.613 2.185-2.3.643-.688 1.03-1.053 1.163-1.096.194-.062.437-.031.73.094M273.234 505.124c-1.144.298-1.387.068-.731-.691.484-.56 1.186-1.276 2.107-2.149a190.1 190.1 0 0 0 3.296-3.214c1.276-1.271 2.75-2.715 4.422-4.332a108.35 108.35 0 0 1 5.748-5.137c2.16-1.809 4.435-3.82 6.825-6.033 2.39-2.214 4.933-4.511 7.628-6.892a318.377 318.377 0 0 0 8.321-7.632c2.853-2.707 5.586-5.276 8.2-7.707 2.614-2.43 5.202-4.847 7.765-7.25 2.563-2.403 4.911-4.47 7.045-6.203 2.134-1.732 4.054-3.29 5.76-4.67 1.706-1.382 3.216-2.599 4.528-3.65a101.915 101.915 0 0 1 4.227-3.2c1.507-1.083 2.62-1.9 3.338-2.45M355.558 427.091c-.853-1.208-1.36-2.791-1.522-4.75-.162-1.957-.254-4.414-.276-7.368-.021-2.954-.033-6.243-.036-9.868-.002-3.625-.01-7.87-.026-12.733a609.997 609.997 0 0 0-.293-16.28c-.18-5.99-.319-12.312-.416-18.969a886.265 886.265 0 0 1-.082-19.008c.042-6.017.098-11.325.169-15.923a935.856 935.856 0 0 0 .087-22.91c-.026-3.14-.086-5.878-.18-8.21-.093-2.334-.196-4.156-.308-5.469-.113-1.312-.232-2.246-.358-2.802-.126-.555-.097-.751.09-.587.186.164.25.234.195.211-.079-.032.415.52 1.483 1.655M105.425 360.84c.501.089 1.165-.142 1.991-.69.54-.358 1.305-.96 2.298-1.807a76.714 76.714 0 0 0 3.491-3.209 108.529 108.529 0 0 1 4.669-4.235c1.778-1.53 3.694-3.3 5.75-5.306a180.224 180.224 0 0 1 6.73-6.223c2.43-2.142 5.015-4.4 7.754-6.775a390.032 390.032 0 0 1 8.356-7.041 250.896 250.896 0 0 0 8.549-7.337 391.438 391.438 0 0 1 8.822-7.677 272.02 272.02 0 0 0 8.79-7.751 323.866 323.866 0 0 1 8.247-7.354c2.653-2.281 5.16-4.423 7.52-6.425 2.36-2.001 4.379-3.592 6.053-4.77 1.675-1.18 3.11-2.078 4.307-2.696 1.197-.617 2.254-1.067 3.17-1.35 1.385-.426 2.624-.53 3.717-.315M212.99 284.053c-.231-.054-.255-.217-.073-.488.183-.27 1.671-.65 4.466-1.137 2.796-.487 5.175-.885 7.138-1.193a348.26 348.26 0 0 1 6.364-.935c2.28-.315 4.685-.687 7.214-1.117 2.529-.43 6.63-1.18 12.303-2.254 5.673-1.073 10.018-1.81 13.036-2.213 3.018-.403 6.106-.676 9.263-.819a193.929 193.929 0 0 1 18.633.052c3.026.156 6.007.28 8.944.373 2.937.092 5.729.143 8.376.153 2.646.009 5.234.002 7.764-.022 2.53-.025 4.956-.083 7.277-.176 2.321-.094 4.485-.145 6.492-.154 2.006-.01 3.87.159 5.59.506 1.722.346 3.111.708 4.17 1.087" style="fill:none;stroke:#7ec636;stroke-width:2.46361;stroke-linecap:round;stroke-linejoin:round;stroke-miterlimit:10;stroke-dasharray:none;stroke-opacity:1" transform="matrix(.72727 0 0 .72727 -75.128 -141.243)"/><path d="M407.454 202.211c.406-.29.607-.655.601-1.093-.004-.3-.137-.59-.402-.87a9.997 9.997 0 0 0-1.016-.915 13.298 13.298 0 0 0-3.232-1.903 20.92 20.92 0 0 0-2.353-.815 23.961 23.961 0 0 0-2.856-.618 39.279 39.279 0 0 0-3.364-.372 74.698 74.698 0 0 0-4.013-.161c-1.469-.023-3-.028-4.593-.016a71.408 71.408 0 0 0-4.86.206c-1.647.125-3.372.29-5.174.495-1.802.205-3.694.447-5.677.728-1.983.28-3.995.607-6.038.98-2.043.374-4.123.773-6.24 1.197a222.21 222.21 0 0 0-6.387 1.377c-2.14.495-4.289 1.043-6.445 1.645-2.156.601-4.27 1.242-6.344 1.922-2.073.68-4.156 1.44-6.25 2.278a698.881 698.881 0 0 1-4.2 1.672c-.705.276-1.808.752-3.309 1.426-1.5.674-3.2 1.451-5.1 2.33-1.902.88-3.848 1.79-5.84 2.732a67.862 67.862 0 0 0-5.598 2.958 64.148 64.148 0 0 0-5.267 3.498 132.295 132.295 0 0 0-5.278 4.088 165.361 165.361 0 0 0-4.968 4.209 62.62 62.62 0 0 0-4.523 4.426 112.614 112.614 0 0 0-4.275 4.903c-1.4 1.7-2.553 3.151-3.462 4.352-.908 1.201-1.98 2.854-3.215 4.958-1.235 2.104-2.28 4.046-3.132 5.824a74.61 74.61 0 0 0-2.171 4.938 35.203 35.203 0 0 0-1.477 4.728c-.39 1.639-.7 3.29-.93 4.955a47.118 47.118 0 0 0-.424 4.974 155.197 155.197 0 0 0-.067 5.472c.008 1.996.123 4.01.344 6.04.221 2.03.527 3.94.919 5.727a50.833 50.833 0 0 0 1.458 5.281 77.952 77.952 0 0 0 1.97 5.235c.732 1.756 1.54 3.582 2.424 5.48a186.211 186.211 0 0 0 2.903 5.938c1.05 2.062 2.92 5.069 5.604 9.02 2.685 3.951 4.787 6.895 6.304 8.831 1.517 1.936 3.13 3.84 4.837 5.715 1.708 1.873 3.432 3.757 5.172 5.652a91.992 91.992 0 0 0 5.429 5.437 109.985 109.985 0 0 0 6.057 5.173 159.515 159.515 0 0 0 6.33 4.791 54.84 54.84 0 0 0 6.555 4.028 80.272 80.272 0 0 0 7.138 3.295 109.17 109.17 0 0 0 7.405 2.686c2.489.801 5.015 1.51 7.578 2.128a68.04 68.04 0 0 0 7.906 1.41c2.708.321 5.346.52 7.915.593 2.57.073 5.221.005 7.955-.207a63.67 63.67 0 0 0 8.333-1.217c2.821-.6 5.626-1.323 8.414-2.168 2.789-.845 5.65-1.812 8.584-2.901a97.102 97.102 0 0 0 8.721-3.737 88.005 88.005 0 0 0 8.512-4.754 257.533 257.533 0 0 0 8.039-5.29 144.74 144.74 0 0 0 7.743-5.711 108.632 108.632 0 0 0 7.446-6.436 230.667 230.667 0 0 0 6.94-6.858 97.552 97.552 0 0 0 6.432-7.335 128.994 128.994 0 0 0 5.682-7.732 110.412 110.412 0 0 0 4.886-7.897 90.226 90.226 0 0 0 4.082-8.226 90.997 90.997 0 0 0 3.093-8.091 69.335 69.335 0 0 0 2.045-7.786 77.51 77.51 0 0 0 1.153-7.596c.244-2.452.384-4.908.422-7.368.037-2.46-.045-4.86-.245-7.2s-.546-4.72-1.036-7.142a58.416 58.416 0 0 0-1.796-6.827 51.801 51.801 0 0 0-2.592-6.34 49.377 49.377 0 0 0-3.522-6.086 45.94 45.94 0 0 0-4.218-5.361 239.672 239.672 0 0 0-4.614-4.873 155.17 155.17 0 0 0-5.207-5.09 82.085 82.085 0 0 0-5.685-4.863 112.838 112.838 0 0 0-5.938-4.309 86.22 86.22 0 0 0-6.662-4.067 90.67 90.67 0 0 0-7.319-3.627 74.56 74.56 0 0 0-7.9-2.942 77.576 77.576 0 0 0-8.716-2.154 81.016 81.016 0 0 0-9.192-1.189c-3.098-.222-6.269-.33-9.512-.323-3.244.007-6.576.169-9.997.485-3.42.317-6.843.69-10.268 1.121-3.425.43-6.825.908-10.198 1.433-3.374.524-6.71 1.089-10.007 1.693a290.163 290.163 0 0 0-9.258 1.843c-4.382.953-8.271 1.715-11.667 2.287" style="fill:none;stroke:#d35000;stroke-width:2.46361;stroke-linecap:round;stroke-linejoin:round;stroke-miterlimit:10;stroke-dasharray:none;stroke-opacity:1" transform="matrix(.72727 0 0 .72727 -75.128 -141.243)"/><path d="M536.703 321.414c3.904-4.889 6.818-8.185 8.74-9.888 1.327-1.176 3.348-2.775 6.063-4.796 2.715-2.021 5.844-4.132 9.387-6.333a647.54 647.54 0 0 1 11.46-6.942 164.302 164.302 0 0 1 12.716-6.793 125.173 125.173 0 0 1 13.606-5.56c4.69-1.606 9.626-2.965 14.811-4.077a193.686 193.686 0 0 1 15.843-2.71 220.354 220.354 0 0 1 16.503-1.49c5.626-.298 11.357-.406 17.193-.32 5.837.084 11.624.585 17.361 1.5a223.829 223.829 0 0 1 16.754 3.32c8.459 2.02 15.103 3.755 19.932 5.202M681.831 322.693c.26.527.967.902 2.12 1.125.759.147 2.398.252 4.918.316 2.52.063 4.67.189 6.45.376 1.78.187 3.746.442 5.9.764 2.152.323 4.52.662 7.105 1.018 2.584.357 5.226.67 7.924.94 2.699.269 5.296.462 7.793.58 2.496.117 4.881.181 7.155.193 2.274.011 4.43-.052 6.469-.19 2.038-.139 3.892-.47 5.562-.992a13.778 13.778 0 0 0 4.495-2.364c1.327-1.053 2.522-2.55 3.585-4.49 1.063-1.939 1.912-4.329 2.55-7.17a61.184 61.184 0 0 0 1.296-8.902c.228-3.095.355-8.547.38-16.356.025-7.809.202-13.617.53-17.423.496-5.746 1.366-11.086 2.61-16.021" style="fill:none;stroke:#fcfcfc;stroke-width:4.15748;stroke-linecap:round;stroke-linejoin:round;stroke-miterlimit:10;stroke-dasharray:none;stroke-opacity:1" transform="matrix(.72727 0 0 .72727 -75.128 -141.243)"/><path d="M551.523 236.962v1.475l-.001.013-.022-.19-.297-3.03a85.427 85.427 0 0 1-.36-5.046 145.95 145.95 0 0 1-.094-5.052 211.149 211.149 0 0 0-.114-6.09c-.071-2.195-.22-4.127-.45-5.794-.23-1.667-.474-3.254-.734-4.76-.26-1.506-.347-2.436-.26-2.79.087-.354.39-.618.908-.792.518-.173 1.233-.339 2.143-.496.911-.156 2.074-.278 3.489-.363 1.415-.085 5.927-.133 13.537-.142 7.609-.01 11.651-.064 12.126-.162.474-.098.7 1.178.679 3.826-.022 2.649-.034 5.941-.037 9.879-.002 3.937.054 6.633.169 8.09a96.58 96.58 0 0 0 .403 4.078c.154 1.261.317 2.35.491 3.263.175.914.423 1.893.746 2.935.324 1.043.383 1.732.18 2.068-.205.336-.883.67-2.035 1-1.152.33-2.357.597-3.615.8-1.258.202-2.797.361-4.62.476-1.82.114-3.925.19-6.312.226-2.387.036-6.008.056-10.862.06-4.855.004-7.285-.019-7.29-.068-.009-.07.614-1.095 1.867-3.076" style="fill:none;stroke:#7ec636;stroke-width:4.15748;stroke-linecap:round;stroke-linejoin:round;stroke-miterlimit:10;stroke-dasharray:none;stroke-opacity:1" transform="matrix(.72727 0 0 .72727 -75.128 -141.243)"/><path d="M608.207 220.674c6.268 1.276 10.36 2.035 12.274 2.276 1.33.168 2.589.267 3.777.298l2.382.062c.4.01.486.098.257.262-.23.164-.304.204-.226.121.11-.117-.296.083-1.218.6" style="fill:none;stroke:#fcfcfc;stroke-width:4.15748;stroke-linecap:round;stroke-linejoin:round;stroke-miterlimit:10;stroke-dasharray:none;stroke-opacity:1" transform="matrix(.72727 0 0 .72727 -75.128 -141.243)"/><path d="M668.382 206.298c-.191-.598-.648-1.065-1.37-1.402a9.795 9.795 0 0 0-2.344-.742c-.843-.159-2.043-.243-3.603-.254-1.559-.011-2.893.262-4 .818-1.108.557-2.182 1.465-3.223 2.724-1.04 1.259-1.782 2.234-2.226 2.924a19.37 19.37 0 0 0-1.225 2.222 27.514 27.514 0 0 0-1.033 2.525c-.316.891-.57 1.835-.76 2.83-.19.997-.308 2.02-.355 3.072a43.964 43.964 0 0 0-.035 2.99c.022.943.196 1.902.521 2.879.325.976.726 1.966 1.201 2.97a19.01 19.01 0 0 0 1.655 2.84c.628.888 1.345 1.69 2.151 2.407a16.812 16.812 0 0 0 2.63 1.913c.947.558 2.022 1.045 3.225 1.46 1.204.415 2.454.654 3.752.717 1.297.063 2.246.025 2.846-.114.6-.139 1.197-.437 1.793-.894a14.656 14.656 0 0 0 1.747-1.591 13.391 13.391 0 0 0 1.57-2.043c.478-.757.902-1.59 1.273-2.5.37-.908.7-1.829.987-2.76.288-.932.563-2.264.825-3.995.262-1.732.409-3.47.441-5.212.032-1.742-.009-2.918-.123-3.529-.115-.61-.386-1.213-.813-1.807-.427-.595-.977-1.225-1.649-1.892a28.37 28.37 0 0 0-2.118-1.9c-.74-.6-1.7-1.277-2.88-2.03-1.179-.754-1.934-1.518-2.266-2.292-.494-1.154-.583-2.256-.268-3.308" style="fill:none;stroke:#d35000;stroke-width:4.15748;stroke-linecap:round;stroke-linejoin:round;stroke-miterlimit:10;stroke-dasharray:none;stroke-opacity:1" transform="matrix(.72727 0 0 .72727 -75.128 -141.243)"/><path d="M108.617 513.02c-.25-.576-.396-1.855-.44-3.836a412.454 412.454 0 0 1-.088-6.409 857.747 857.747 0 0 1-.007-8.199c.01-3.175.068-6.638.172-10.39.104-3.75.169-8.11.194-13.074a491.555 491.555 0 0 0-.212-16.315c-.167-5.91-.44-12.119-.816-18.624-.377-6.505-.797-13.401-1.258-20.688a688.572 688.572 0 0 1-1.03-21.436c-.346-10.79-.546-19.775-.599-26.957M115.213 515.891c1.762.36 4.066.26 6.91-.295 1.847-.362 3.86-.823 6.039-1.383 2.178-.56 4.662-1.164 7.45-1.81a202.204 202.204 0 0 1 9-1.857c3.21-.592 6.647-1.162 10.311-1.709 3.664-.547 7.365-1.03 11.101-1.445 3.737-.416 7.714-.818 11.93-1.207 4.217-.39 8.542-.764 12.976-1.123 4.434-.359 8.976-.66 13.626-.902a419.25 419.25 0 0 1 14.135-.496c4.774-.088 9.567-.136 14.378-.145 4.81-.009 9.43.018 13.856.081 6.69.095 12.975.112 18.852.052M268.381 498.097a224.67 224.67 0 0 1-.708-4.932 135.586 135.586 0 0 1-.413-3.563c-.14-1.35-.295-3.011-.464-4.986a845.174 845.174 0 0 1-1.141-15.142c-.2-3.019-.389-6.307-.563-9.863-.175-3.557-.316-7.28-.425-11.172a466 466 0 0 1-.178-11.669c-.011-3.886-.003-7.985.023-12.296.026-4.311.066-8.797.12-13.457.054-4.66.084-7.756.09-9.29.004-1.533-.057-4.01-.187-7.429-.13-3.42-.393-7.145-.79-11.178a485.704 485.704 0 0 0-1.197-10.976c-.614-5.038-1.075-9.349-1.383-12.935M107.294 365.606h-.376c-.01 0 .018-.007.083-.022l1.293-.29c.797-.178 1.734-.399 2.81-.661a58.026 58.026 0 0 1 2.413-.549c.531-.103 1.82-.27 3.866-.498a137.62 137.62 0 0 1 6.791-.57c2.482-.153 5.249-.34 8.301-.562 3.052-.222 6.294-.536 9.724-.942 3.43-.406 7.04-.816 10.83-1.232 3.789-.415 7.742-.726 11.861-.934 4.119-.207 8.37-.34 12.756-.4 4.385-.059 8.842-.092 13.371-.098 4.53-.006 9.034.062 13.511.202 4.478.14 8.915.275 13.311.405 4.397.13 8.679.278 12.846.446 4.167.167 8.311.31 12.431.43 6.224.18 12.09.192 17.6.04M268.204 358.593c.387-.59 1.085-1.423 2.094-2.497a156.236 156.236 0 0 1 3.247-3.35 117.557 117.557 0 0 0 4.01-4.266 630.698 630.698 0 0 0 4.875-5.483c1.732-1.97 3.662-3.99 5.788-6.063M273.234 505.124c-1.144.298-1.387.068-.731-.691.484-.56 1.186-1.276 2.107-2.149a190.1 190.1 0 0 0 3.296-3.214c1.276-1.271 2.75-2.715 4.422-4.332a108.35 108.35 0 0 1 5.748-5.137c2.16-1.809 4.435-3.82 6.825-6.033 2.39-2.214 4.933-4.511 7.628-6.892a318.377 318.377 0 0 0 8.321-7.632c2.853-2.707 5.586-5.276 8.2-7.707 2.614-2.43 5.202-4.847 7.765-7.25 2.563-2.403 4.911-4.47 7.045-6.203 2.134-1.732 4.054-3.29 5.76-4.67 1.706-1.382 3.216-2.599 4.528-3.65a101.915 101.915 0 0 1 4.227-3.2c1.507-1.083 2.62-1.9 3.338-2.45M355.558 427.091c-.853-1.208-1.36-2.791-1.522-4.75-.162-1.957-.254-4.414-.276-7.368-.021-2.954-.033-6.243-.036-9.868-.002-3.625-.01-7.87-.026-12.733a609.997 609.997 0 0 0-.293-16.28M105.425 360.84c.501.089 1.165-.142 1.991-.69.54-.358 1.305-.96 2.298-1.807a76.714 76.714 0 0 0 3.491-3.209 108.529 108.529 0 0 1 4.669-4.235c1.778-1.53 3.694-3.3 5.75-5.306a180.224 180.224 0 0 1 6.73-6.223c2.43-2.142 5.015-4.4 7.754-6.775a390.032 390.032 0 0 1 8.356-7.041 250.896 250.896 0 0 0 8.549-7.337 391.438 391.438 0 0 1 8.822-7.677 272.02 272.02 0 0 0 8.79-7.751 323.866 323.866 0 0 1 8.247-7.354c2.653-2.281 5.16-4.423 7.52-6.425 2.36-2.001 4.379-3.592 6.053-4.77 1.675-1.18 3.11-2.078 4.307-2.696 1.197-.617 2.254-1.067 3.17-1.35 1.385-.426 2.624-.53 3.717-.315M212.99 284.053c-.231-.054-.255-.217-.073-.488.183-.27 1.671-.65 4.466-1.137 2.796-.487 5.175-.885 7.138-1.193a348.26 348.26 0 0 1 6.364-.935c2.28-.315 4.685-.687 7.214-1.117 2.529-.43 6.63-1.18 12.303-2.254 5.673-1.073 10.018-1.81 13.036-2.213" style="fill:none;stroke:#7ec636;stroke-width:2.46361;stroke-linecap:round;stroke-linejoin:round;stroke-miterlimit:10;stroke-dasharray:none;stroke-opacity:1" transform="matrix(.72727 0 0 .72727 422.997 -130.16)"/><path d="M953.98 291.037c-.154 1.052-.245 1.936-.274 2.654-.02.488-.03 1.033-.03 1.636 0 .602.011 1.084.034 1.446.023.362.082.914.18 1.658a49.356 49.356 0 0 0 .793 4.49c.185.84.331 1.453.437 1.842.107.388.28.943.52 1.664.239.721.472 1.401.698 2.04.227.638.544 1.539.95 2.701.408 1.163.7 1.975.876 2.438.176.463.473 1.27.89 2.422.418 1.152.85 2.23 1.299 3.232a72.875 72.875 0 0 1 1.33 3.182c.438 1.119.724 1.841.858 2.168.134.327.445.946.933 1.859a73.71 73.71 0 0 1 1.014 1.94c.187.381.478.948.872 1.701.395.754.797 1.54 1.205 2.359.41.819.937 1.78 1.583 2.88a102.802 102.802 0 0 1 1.575 2.763c.403.74.724 1.311.963 1.713.24.401.479.779.72 1.132.24.354.649.877 1.226 1.57.578.692 1.022 1.229 1.334 1.61.311.38.764.997 1.356 1.85.593.854 1.177 1.67 1.752 2.446.575.778 1.01 1.347 1.304 1.708.295.361.876 1.036 1.745 2.023.869.988 1.738 1.945 2.609 2.872.87.926 1.766 1.886 2.687 2.879a80.06 80.06 0 0 0 2.207 2.306l2.125 2.104c.865.857 1.462 1.442 1.79 1.753.33.312.965.947 1.908 1.905a94.026 94.026 0 0 0 1.886 1.882c.314.298.95.834 1.909 1.61.958.776 1.78 1.453 2.466 2.03.687.578 1.358 1.159 2.015 1.742s1.3 1.124 1.928 1.623c.628.499 1.293.99 1.997 1.475.703.484 1.443.934 2.218 1.35.776.415 1.511.812 2.206 1.191a47.05 47.05 0 0 1 2.044 1.18 52.66 52.66 0 0 0 1.843 1.082c.561.312 1.164.658 1.81 1.037.646.38 1.147.664 1.505.854.357.19.856.44 1.496.749.64.31 1.278.603 1.915.882.636.28 1.269.529 1.897.748.629.219 1.58.505 2.853.86 1.272.353 2.112.58 2.519.679.408.1.812.203 1.213.312.402.108.851.2 1.349.274.497.074 1.048.183 1.653.326a91.31 91.31 0 0 0 1.65.376c.495.107.848.167 1.058.18.291.017.403-.102.336-.357M957.39 291.802c.075.35.305.724.691 1.12.386.398 1.271 1.135 2.656 2.212a152.352 152.352 0 0 1 4 3.22 189.577 189.577 0 0 1 3.676 3.14 239.171 239.171 0 0 1 2.51 2.224c.506.459 1.007.934 1.503 1.426.497.491 1.296 1.363 2.396 2.615a84.223 84.223 0 0 0 3.367 3.611c1.144 1.156 1.976 1.966 2.497 2.43.52.465 1.027.935 1.52 1.411a29.862 29.862 0 0 1 1.525 1.595 50.58 50.58 0 0 1 1.453 1.699 94.05 94.05 0 0 1 1.928 2.484c.84 1.11 1.483 1.929 1.93 2.457.446.528 1.249 1.39 2.408 2.586 1.159 1.196 2.07 2.2 2.732 3.014.662.812 1.462 1.775 2.4 2.89a115.21 115.21 0 0 1 2.708 3.339 348.414 348.414 0 0 0 2.61 3.305 66.019 66.019 0 0 0 2.194 2.628c.589.66 1.262 1.368 2.021 2.126a42.815 42.815 0 0 1 2.408 2.638 62.812 62.812 0 0 1 2.538 3.216 98.673 98.673 0 0 1 2.519 3.572 61.389 61.389 0 0 0 2.981 4.02c1.154 1.442 2.002 2.584 2.545 3.428a78.19 78.19 0 0 1 1.509 2.437c.463.782 1.119 1.946 1.97 3.495a756.934 756.934 0 0 1 3.038 5.598 270.63 270.63 0 0 0 3.251 5.886c.993 1.74 1.673 2.96 2.041 3.661.367.701.713 1.31 1.038 1.829.325.518.582.843.772.973.263.181.413.072.449-.326" style="fill:none;stroke:#7ec636;stroke-width:2.33858;stroke-linecap:round;stroke-linejoin:round;stroke-miterlimit:10;stroke-dasharray:none;stroke-opacity:1" transform="matrix(.72727 0 0 .72727 -75.128 -141.243)"/></svg>