<svg xmlns="http://www.w3.org/2000/svg" width="184.164" height="112.99"><path d="M11.296 6.35a.971.971 0 00-.066-.323.648.648 0 00-.175-.223 1.948 1.948 0 00-.336-.238 5.402 5.402 0 00-.44-.225 2.946 2.946 0 00-1.144-.26 2.31 2.31 0 00-.757.12 6.98 6.98 0 00-.903.359c-.322.152-.654.322-.997.51-.342.188-.687.403-1.034.644-.347.24-.687.502-1.02.783a19.37 19.37 0 00-.997.91c-.333.326-.646.668-.941 1.027-.295.36-.558.745-.79 1.156-.231.411-.43.83-.597 1.256a6.16 6.16 0 00-.354 1.31 7.931 7.931 0 00-.079 1.453c.016.521.103 1.053.26 1.594.158.542.38 1.14.668 1.795.287.655.63 1.289 1.027 1.902.397.614.823 1.206 1.277 1.776.454.57.926 1.08 1.416 1.53.49.449.997.823 1.522 1.122.526.299 1.07.527 1.63.684.562.157 1.018.248 1.369.273.35.024.933-.044 1.747-.203.814-.16 1.51-.388 2.088-.684a8.722 8.722 0 001.649-1.106c.52-.44 1.016-.953 1.486-1.536.47-.583.896-1.153 1.28-1.71a10.46 10.46 0 00.999-1.83c.282-.664.493-1.312.632-1.946.14-.634.216-1.288.23-1.962a8.639 8.639 0 00-.217-2.071 10.55 10.55 0 00-.62-1.93 7.472 7.472 0 00-.937-1.588 10.835 10.835 0 00-1.22-1.329 7.576 7.576 0 00-1.39-1.024 11.39 11.39 0 00-1.47-.705 7.513 7.513 0 00-1.492-.418 6.411 6.411 0 00-1.447-.086c-.685.04-1.47.245-2.354.616M10.617 38.262c.046-.08.019-.268-.081-.565a2.134 2.134 0 00-.187-.43c-.061-.1-.14-.203-.234-.308a3.126 3.126 0 00-.346-.325 8.899 8.899 0 00-.447-.34 2.285 2.285 0 00-2.108-.308c-.304.1-.62.259-.947.477a9.72 9.72 0 00-.869.646c-.25.211-.574.515-.968.912-.395.396-.74.807-1.038 1.231a11.876 11.876 0 00-1.391 2.64 5.98 5.98 0 00-.318 1.33c-.058.466-.085.93-.082 1.391.004.461.055.942.154 1.442.098.5.238.995.417 1.486.18.49.426.956.737 1.397.312.44.682.85 1.111 1.23.43.38.894.715 1.394 1.005.499.289 1.042.536 1.627.742.586.205 1.16.383 1.72.534.562.15 1.148.258 1.759.322.61.064 1.222.07 1.834.018a9.117 9.117 0 001.794-.336 8.746 8.746 0 001.659-.674 7.83 7.83 0 001.492-1.042 9.45 9.45 0 001.25-1.328c.36-.47.682-1.031.963-1.685.281-.654.506-1.312.674-1.975.168-.662.272-1.317.311-1.965a6.717 6.717 0 00-.125-1.831 9.286 9.286 0 00-.61-1.813 9.375 9.375 0 00-1.005-1.743 13.03 13.03 0 00-1.315-1.52 5.495 5.495 0 00-1.624-1.132 5.425 5.425 0 00-1.9-.466 9.888 9.888 0 00-2.032.081c-.68.097-1.35.239-2.01.424-.659.186-1.284.415-1.874.689-.591.273-1.125.546-1.602.818-.478.272-.835.497-1.071.674-.378.282-.605.508-.684.677M13.817 66.054c-.034-.074-.114-.158-.242-.253a1.18 1.18 0 00-.32-.158 2.08 2.08 0 00-.482-.094c-.189-.017-.399-.022-.63-.014-.231.008-.48.045-.75.111-.267.066-.563.15-.887.25-.323.102-.661.216-1.014.344a12.15 12.15 0 00-1.047.436 9.861 9.861 0 00-1.72 1.029c-.238.177-.41.31-.52.4-.108.09-.308.274-.6.554-.293.28-.586.595-.88.945-.293.35-.624.805-.992 1.367a28.46 28.46 0 00-1.018 1.67 8.228 8.228 0 00-.728 1.725 7.687 7.687 0 00-.308 1.748 6.22 6.22 0 00.16 1.741c.136.592.359 1.175.667 1.75.308.576.671 1.158 1.09 1.747.42.59.863 1.11 1.332 1.56.47.45.986.847 1.548 1.19a9.74 9.74 0 001.756.843c.608.22 1.223.367 1.845.441a13.2 13.2 0 001.893.089 8.465 8.465 0 001.928-.275c.645-.168 1.059-.286 1.24-.355.183-.07.351-.144.506-.223.155-.079.603-.396 1.343-.952.74-.556 1.198-.934 1.373-1.133.174-.2.315-.382.42-.55.106-.166.244-.408.415-.725.17-.317.396-.781.678-1.394.281-.612.503-1.167.665-1.666.161-.499.269-.848.32-1.048.053-.2.126-.61.219-1.227.092-.617.149-1.271.168-1.962.02-.691-.039-1.432-.174-2.223a9.176 9.176 0 00-.732-2.328 10.83 10.83 0 00-1.302-2.127c-.515-.657-1.07-1.157-1.667-1.5-.596-.343-1.175-.555-1.738-.634a6.164 6.164 0 00-1.598-.03c-.504.06-.978.149-1.424.266-.66.174-1.4.384-2.222.63M71.97 21.847c-.336-.35-.568-.572-.695-.666a2.557 2.557 0 00-.283-.181c-.1-.056-.22-.109-.361-.16a2.56 2.56 0 00-.516-.119 5.286 5.286 0 00-.727-.041c-.282 0-.593.04-.934.118-.34.079-.679.184-1.013.316a8.448 8.448 0 00-1.027.491c-.35.196-.72.45-1.107.76-.388.31-.759.668-1.114 1.074-.354.406-.68.8-.977 1.184a8.067 8.067 0 00-.799 1.264c-.235.46-.428.937-.579 1.433-.15.497-.254.974-.311 1.431a9.028 9.028 0 00-.061 1.426c.016.492.08.917.188 1.273.11.357.198.611.265.765.067.153.23.465.487.937.259.472.563.954.915 1.445.352.49.762.97 1.232 1.437.47.467.96.896 1.474 1.289a8.951 8.951 0 001.65 1c.588.275 1.203.496 1.845.663a12.52 12.52 0 001.893.346c.62.063 1.221.07 1.805.02a5.598 5.598 0 001.649-.39c.516-.21.992-.51 1.428-.9a7.73 7.73 0 001.18-1.334c.351-.5.663-1.022.936-1.568a10.38 10.38 0 00.671-1.699c.174-.586.298-1.18.37-1.78.073-.6.097-1.208.072-1.824a6.881 6.881 0 00-.32-1.812 12.617 12.617 0 00-.708-1.752 13.651 13.651 0 00-2.067-3.07 5.78 5.78 0 00-1.251-1.069 5.872 5.872 0 00-1.432-.64 7.518 7.518 0 00-3.252-.205c-.535.083-1.055.207-1.559.368a7.957 7.957 0 00-2.129 1.06M71.564 53.356a10.12 10.12 0 00-1.1-.696 2.783 2.783 0 00-.659-.269 3.579 3.579 0 00-.679-.087 3.232 3.232 0 00-.85.09c-.31.07-.62.179-.931.326a5.856 5.856 0 00-.945.572c-.319.233-.648.539-.986.918-.339.379-.66.806-.966 1.282-.305.475-.587.957-.846 1.445-.258.487-.477.994-.656 1.52a9.922 9.922 0 00-.388 1.474c-.08.457-.11.948-.089 1.473.021.526.116 1.05.285 1.573.17.523.386 1.055.65 1.596.265.542.583 1.065.956 1.57.373.504.8.96 1.281 1.365.48.406.979.762 1.493 1.067.515.305 1.07.552 1.668.739.597.187 1.214.321 1.85.401a15.4 15.4 0 001.889.124 7.49 7.49 0 001.794-.208 6.15 6.15 0 001.61-.637 5.71 5.71 0 001.32-1.034 6.859 6.859 0 001.008-1.386c.29-.52.549-1.077.777-1.671.228-.594.417-1.19.567-1.787a10.925 10.925 0 00.273-3.646 5.366 5.366 0 00-.399-1.622 4.757 4.757 0 00-.823-1.297c-.341-.382-.74-.751-1.199-1.109a14.19 14.19 0 00-1.534-1.036c-.565-.333-1.16-.64-1.784-.922a12.024 12.024 0 00-1.847-.665c-.608-.162-1.15-.243-1.63-.243-.478 0-.921.077-1.328.23-.601.228-1.24.589-1.915 1.082M131.957 36.28c-.044-.073-.141-.144-.291-.213a3.2 3.2 0 00-.403-.157 3.244 3.244 0 00-.422-.093 5.732 5.732 0 00-.586-.057 5.079 5.079 0 00-.768.023c-.283.028-.584.101-.903.218a6.81 6.81 0 00-1.016.482c-.359.204-.735.45-1.13.738-.395.288-.77.59-1.126.905-.357.316-.717.65-1.083 1.001a10.48 10.48 0 00-1.043 1.173c-.33.43-.616.857-.858 1.282-.242.426-.457.854-.644 1.285-.187.43-.342.9-.465 1.406a9.081 9.081 0 00-.238 1.462c-.036.468-.024.967.035 1.497a5.52 5.52 0 00.404 1.545c.211.5.481.984.81 1.452.328.468.711.93 1.148 1.384a9.56 9.56 0 001.427 1.22c.514.359 1.063.69 1.646.993.583.303 1.188.578 1.814.824a9.92 9.92 0 001.958.543 9.965 9.965 0 001.963.148 5.663 5.663 0 001.833-.358 6.771 6.771 0 001.671-.913c.523-.387.965-.765 1.327-1.134.362-.368.612-.642.75-.823.137-.18.38-.553.726-1.12.346-.566.682-1.18 1.007-1.84.325-.66.602-1.33.83-2.005.23-.676.394-1.38.494-2.114.1-.733.143-1.444.127-2.13a7.379 7.379 0 00-.315-1.986 6.035 6.035 0 00-.81-1.702 7.251 7.251 0 00-1.246-1.369 6.332 6.332 0 00-1.622-1.008 7.782 7.782 0 00-1.954-.542 13.102 13.102 0 00-4.488.124c-.773.155-1.486.314-2.138.476-.976.242-1.97.347-2.982.314" fill="none" stroke="#007aff" stroke-width="1.32290413" stroke-linecap="round" stroke-linejoin="round" stroke-miterlimit="10"/><path d="M145.046 45.789c.23-.122.457-.207.68-.256.151-.033.38-.064.689-.093.308-.03.78-.063 1.414-.101a95.51 95.51 0 014.872-.157l3.1-.025c1.119-.01 2.366-.029 3.74-.056 1.376-.027 2.816-.044 4.322-.05 1.505-.007 3.05-.002 4.635.014 2.333.024 5.178.354 8.533.989" fill="none" stroke="#90d300" stroke-width="1.32290413" stroke-linecap="round" stroke-linejoin="round" stroke-miterlimit="10"/><path d="M24.098 15.817c-.584-.205-.86-.26-.83-.165.02.068.142.145.364.232.221.086.523.194.903.325.381.132.814.288 1.297.469.484.18 1.064.403 1.742.667.678.264 1.421.546 2.229.847a294 294 0 002.606.956c.93.337 1.906.71 2.929 1.118 1.022.409 2.102.853 3.237 1.332 1.136.48 2.242.962 3.317 1.446 1.076.485 2.118.979 3.127 1.482s2.027 1.004 3.055 1.504a62.06 62.06 0 012.96 1.537c1.4.776 2.959 1.757 4.679 2.943M24.413 42.748c-.083.01-.124-.014-.122-.073.002-.042.12-.11.355-.202.235-.092.47-.19.703-.294.234-.103.445-.205.633-.304.188-.1.42-.214.698-.342.278-.129.538-.241.779-.338.241-.096.56-.221.957-.374.396-.153.73-.287 1-.4.272-.114.7-.275 1.287-.482a97.509 97.509 0 001.8-.656l2.01-.754c.727-.271 1.45-.534 2.169-.787a61.013 61.013 0 012.116-.703c.692-.215 1.413-.437 2.163-.665.75-.229 1.461-.456 2.134-.683.673-.226 1.343-.458 2.011-.693.668-.236 1.327-.475 1.979-.718a88.407 88.407 0 012.763-.962c1.19-.397 2.02-.66 2.49-.788a10.223 10.223 0 012.167-.346M23.64 73.757c.101-.003.203-.071.306-.205.103-.135.27-.38.5-.736.232-.356.431-.654.599-.893.167-.238.36-.533.576-.882.217-.35.49-.78.818-1.294.329-.513.708-1.047 1.138-1.602.43-.555.863-1.146 1.3-1.773.437-.627.92-1.28 1.448-1.956l1.651-2.118a163.958 163.958 0 013.154-3.921 29.187 29.187 0 001.418-1.746c.344-.452.6-.78.768-.983a76.15 76.15 0 011.09-1.265c.56-.64 1.184-1.38 1.872-2.223.688-.842 1.404-1.71 2.148-2.605a96.086 96.086 0 012.322-2.688c.804-.897 1.556-1.747 2.257-2.55.701-.803 1.398-1.589 2.091-2.357.693-.769 1.368-1.511 2.025-2.228.658-.716 1.284-1.39 1.879-2.019.595-.63 1.17-1.217 1.728-1.761.556-.545 1.04-1 1.451-1.368a14.592 14.592 0 011.726-1.353" fill="none" stroke="#7ec636" stroke-width="1.51199433" stroke-linecap="round" stroke-linejoin="round" stroke-miterlimit="10"/><path d="M22.76 15.878c-.053-.09-.064-.125-.034-.106l.163.101c.086.054.2.138.341.252a17.716 17.716 0 012.19 2.095c.327.367.702.763 1.125 1.188.423.424.894.903 1.41 1.436a72.717 72.717 0 011.546 1.645c.514.563 1.06 1.16 1.637 1.787.578.629 1.15 1.274 1.718 1.938.568.664 1.143 1.329 1.727 1.996a52.326 52.326 0 011.65 1.981 59.236 59.236 0 001.647 1.99c.582.673 1.121 1.34 1.619 2.002a32.571 32.571 0 001.639 2.001 39.023 39.023 0 011.709 2.07 50.047 50.047 0 001.657 2.043 42.37 42.37 0 011.62 2.011 80.911 80.911 0 001.649 2.105c.58.718 1.138 1.42 1.671 2.104a121.62 121.62 0 001.674 2.1c.582.714 1.156 1.425 1.721 2.132.566.708 1.108 1.397 1.626 2.068.519.672.994 1.308 1.427 1.908.433.6.78 1.129 1.039 1.586.385.68.809 1.415 1.269 2.205M24.703 74.243c.315-.078.786-.232 1.41-.463.396-.147.757-.28 1.083-.397.327-.118.687-.253 1.081-.404.394-.151.836-.315 1.324-.491a34.553 34.553 0 011.63-.538c.597-.183 1.244-.377 1.94-.582a250.113 250.113 0 014.653-1.333c.853-.236 1.729-.471 2.628-.704.9-.234 1.823-.462 2.772-.686.949-.223 1.88-.446 2.796-.668.915-.223 1.831-.452 2.75-.688.918-.236 1.822-.472 2.711-.708.89-.237 1.71-.457 2.46-.662.752-.205 1.441-.383 2.068-.536.926-.226 2.035-.46 3.326-.702M24.366 43.246c-.069-.254-.025-.366.13-.335.111.022.243.07.395.142.152.073.425.225.82.457.394.231.771.437 1.132.618a30.43 30.43 0 012.616 1.487c.477.303 1.02.626 1.626.97.607.343 1.234.708 1.882 1.095.649.386 1.323.79 2.025 1.213.7.423 1.442.86 2.222 1.313.78.452 1.445.848 1.995 1.187.55.34.952.588 1.207.744.255.156.681.402 1.279.737.597.335.982.555 1.154.66.172.105.35.208.532.31.182.1.574.307 1.178.62.603.312 1.26.677 1.967 1.094.708.418 1.235.718 1.582.9.346.181.682.354 1.007.518a94.582 94.582 0 003.263 1.55c.635.29 1.213.547 1.731.776.519.229.966.416 1.34.561a89.04 89.04 0 011.473.584M83.125 28.971c.262.187.671.397 1.23.631.557.234 1.03.446 1.42.637a108.29 108.29 0 003.165 1.484 110.558 110.558 0 014.237 2.025 280.867 280.867 0 005.004 2.459c.864.413 1.76.834 2.687 1.262a73.64 73.64 0 012.699 1.312c.871.447 1.706.872 2.506 1.276.8.404 1.562.79 2.287 1.16.726.369 1.426.746 2.1 1.131.676.385 1.313.754 1.913 1.106.6.351 1.148.668 1.646.949.498.281.91.528 1.238.74.328.213.58.388.757.526.178.138.298.246.363.322.09.106.034.168-.165.186M84.339 61.652l-.131.011c-.007 0 .001-.005.024-.018l.24-.134c.139-.077.436-.228.893-.455.456-.226.876-.44 1.259-.641a38.25 38.25 0 011.406-.696 136.65 136.65 0 011.742-.809c.607-.277 1.29-.572 2.052-.885.762-.313 1.552-.642 2.37-.985a209.37 209.37 0 012.637-1.084c.939-.38 1.885-.758 2.84-1.137.955-.378 1.899-.745 2.832-1.1.933-.355 1.854-.695 2.765-1.02.91-.324 1.772-.638 2.583-.94.81-.303 1.59-.584 2.335-.845.746-.26 1.442-.496 2.088-.706a49.97 49.97 0 012.258-.668c.86-.235 1.403-.379 1.629-.43.225-.052.419-.089.58-.11l.35-.049" fill="none" stroke="#7ec636" stroke-width="1.51199433" stroke-linecap="round" stroke-linejoin="round" stroke-miterlimit="10"/><path d="M61.473.756c.01.545.026.985.046 1.318.02.329.04.954.062 1.876M61.597 9.154c0 .482-.051 1.537-.153 3.166M61.407 17.437c0 .335.015.735.044 1.202.045.712.098 1.342.158 1.892M61.47 25.228c-.07.03-.115.118-.134.261-.027.205-.04 1.246-.04 3.122M61.229 33.236c-.05.11-.058.356-.025.735.049.553.054 1.397.016 2.531M61.113 41.448c0 .28-.008.637-.025 1.073l-.095 2.428M61.256 50.132a8.757 8.757 0 00-.039.943c0 .378.025.97.073 1.774M61.513 57.698c-.055-.055-.09-.037-.104.055-.015.092-.02.32-.018.684.003.364.02.673.052.925.047.368.165.9.356 1.594M61.8 65.606c-.063.068-.103.204-.12.408-.011.131-.017.39-.018.773-.002.574.016 1.17.054 1.786M61.712 74.214c-.033.41-.049.826-.046 1.246.004.623.078 1.315.221 2.076M61.347 82.852c-.068.129-.113.325-.135.587-.014.17-.03.412-.047.729-.017.316-.031.685-.042 1.105-.017.621.005 1.36.066 2.215M121.61 85.801a6.096 6.096 0 01-.052-.7c0-.13.01-.436.029-.916.03-.743.107-1.326.228-1.75M121.702 76.794l-.014.05a613.896 613.896 0 01-.01-.28c-.008-.218.007-.941.045-2.168M121.59 69.555l-.022.06a.67.67 0 01-.003-.079l-.008-.627c-.008-.532.001-1.23.025-2.095M121.701 60.625a3.612 3.612 0 01-.13-.627c-.025-.183-.049-.42-.07-.714a14.76 14.76 0 01-.017-1.568M120.834 51.419a.638.638 0 01-.119-.339 9.585 9.585 0 01-.028-.72c-.006-.495.055-1.112.183-1.85M120.737 40.328a2.624 2.624 0 01-.062-.421 13.27 13.27 0 01-.021-.68 29.922 29.922 0 00-.027-.952c-.022-.489-.08-.992-.175-1.507M120.555 30.317c-.005-.58-.003-1.018.008-1.312.01-.295.058-.696.143-1.202M121.075 21.196c-.046-.146-.07-.49-.07-1.032-.002-.843.043-1.504.136-1.983M121.508 12.406a9.7 9.7 0 01-.023-.822c0-.407.008-.752.025-1.037.025-.422.096-.893.213-1.413M121.706 5.704a9.231 9.231 0 01-.043-1.125c.009-.335.11-1.064.3-2.186M182.427 2.022c-.028 1.041.013 1.786.124 2.236M182.753 10.146c-.02.282-.021.731-.005 1.346.016.57.024 1.288.025 2.158M182.997 18.986a4.353 4.353 0 00-.066.852c0 .532.04 1.15.121 1.854M182.91 26.538c-.036 1.216.006 2.112.125 2.69M182.965 35.127c.049.198.074.714.075 1.548.002.739.04 1.49.116 2.255M183.158 44.208c-.038.152-.052.53-.041 1.135.01.527.038 1.274.088 2.242M183.028 53.741c-.068.393-.025 1.35.13 2.872M182.96 62.374c-.012.398-.006.741.018 1.028.017.195.037.4.062.614.037.314.112.744.226 1.292M183.282 72.885c0 .36.014.726.042 1.097.041.55.069 1.161.084 1.835M183.173 83.064c-.066.322-.075 1.374-.024 3.156" fill="none" stroke="#ffd300" stroke-width="1.51199433" stroke-linecap="round" stroke-linejoin="round" stroke-miterlimit="10"/><path d="M11.988 103.219c.082-.408.146-.704.19-.89a34.469 34.469 0 01.388-1.449c.074-.254.15-.536.23-.848.08-.311.147-.613.201-.906.054-.293.093-.557.117-.793.024-.236.036-.432.037-.589 0-.156-.022-.263-.067-.321-.046-.058-.107-.07-.183-.039-.076.032-.165.13-.266.296a3.5 3.5 0 00-.305.723 7.692 7.692 0 00-.26 1.147c-.07.449-.124.948-.16 1.497a27.4 27.4 0 00-.056 1.77c0 .63.039 1.21.119 1.738.08.528.202.98.366 1.354.164.375.355.632.571.77.309.199.86-.025 1.654-.672M17.108 103.414a.498.498 0 00.014-.272.42.42 0 00-.059-.149.398.398 0 00-.11-.102.474.474 0 00-.171-.067 1.275 1.275 0 00-.223-.022.548.548 0 00-.263.072.873.873 0 00-.277.254c-.091.12-.174.264-.25.433a3.159 3.159 0 00-.184.555 2.777 2.777 0 00-.076.6c-.003.199.025.395.086.588.061.193.144.365.25.515.104.15.229.26.372.33.143.069.308.093.496.072.187-.02.373-.096.556-.227.184-.13.346-.289.486-.474s.252-.387.336-.604c.084-.217.142-.44.175-.668.032-.228.05-.437.054-.626a1.33 1.33 0 00-.038-.414c-.03-.087-.07-.121-.123-.102-.052.02-.105.123-.159.312-.053.188-.09.415-.11.68-.02.264-.016.55.011.856.027.307.092.588.193.844.101.255.241.438.42.55.257.16.698.114 1.325-.137M21.268 102.899c-.053-.02-.117.004-.192.073a.67.67 0 00-.144.25c-.046.118-.078.269-.096.45a2.839 2.839 0 00-.013.468c.01.13.055.306.137.525.081.22.184.415.306.587.123.171.257.3.403.384a.822.822 0 00.448.12c.153-.006.313-.072.477-.199.165-.127.323-.284.475-.471.152-.187.277-.382.376-.583a2.196 2.196 0 00.223-1.095c-.01-.131-.045-.221-.104-.27a.198.198 0 00-.2-.036c-.076.025-.146.102-.212.231-.065.13-.11.305-.135.526a6.458 6.458 0 00-.03.8c.004.312.024.662.06 1.048.034.387.07.823.104 1.309.034.486.054.998.06 1.537.006.54.005 1.028-.003 1.467-.008.439-.022.818-.044 1.138a6.112 6.112 0 01-.238 1.356M26.386 104.332a.415.415 0 00.165-.068 1.117 1.117 0 00.328-.327c.06-.086.119-.188.175-.306a1.78 1.78 0 00.128-.38 2.28 2.28 0 00.053-.397.503.503 0 00-.08-.32.605.605 0 00-.22-.19.827.827 0 00-.299-.083 1.02 1.02 0 00-.36.035.972.972 0 00-.404.253c-.14.135-.268.316-.384.546-.115.23-.2.484-.251.763-.052.28-.068.573-.048.881.02.308.089.604.205.887.116.283.259.516.427.7.168.183.35.305.548.365.197.06.412.049.644-.036.336-.122.788-.514 1.356-1.175M29.831 103.33c-.025.04-.017.14.024.3a6.391 6.391 0 01.159.93c.02.206.033.422.039.647.005.225.008.42.008.586 0 .165-.001.282-.006.35-.003.068-.022.096-.053.083-.032-.013-.077-.088-.133-.224a3.076 3.076 0 01-.153-.521 6.71 6.71 0 01-.103-.616c-.024-.2-.04-.385-.047-.555-.008-.17.001-.342.029-.514.027-.172.082-.33.164-.474a1 1 0 01.336-.35c.204-.13.633-.167 1.287-.111M33.889 102.67c-.012-.037-.066-.079-.161-.126a.688.688 0 00-.25-.078.313.313 0 00-.183.037.567.567 0 00-.162.164 1.12 1.12 0 00-.145.299c-.04.119-.067.248-.08.387-.015.139-.022.272-.022.4 0 .126.02.237.06.331a.682.682 0 00.38.389c.092.038.207.067.345.087l.445.066c.16.024.31.058.453.102a.876.876 0 01.346.19.57.57 0 01.168.327c.024.135.017.289-.02.461-.038.172-.122.34-.25.507-.13.166-.29.302-.483.407a1.514 1.514 0 01-.57.188.731.731 0 01-.467-.083c-.18-.11-.272-.28-.274-.512M39.672 98.362a.696.696 0 00-.234-.063 6.813 6.813 0 00-.645-.027 20.53 20.53 0 00-.812.003c-.215.005-.335.031-.361.075a.549.549 0 00-.056.2c-.01.09-.018.444-.02 1.064-.002.62.001 1.031.009 1.232.007.202.018.413.032.634.014.22.033.562.056 1.024.024.462.044.812.06 1.05a34.93 34.93 0 01.081 1.96c.003.2.015.514.038.938.023.424.034.765.034 1.02 0 .257-.001.422-.006.495a1.424 1.424 0 01-.028.212 1.886 1.886 0 01-.096.29c-.05.123-.058.192-.022.206.035.013.257.018.665.012.408-.005.78-.007 1.116-.007.519 0 .943.017 1.272.049" fill="none" stroke="#fff" stroke-width=".9534509699999999" stroke-linecap="round" stroke-linejoin="round" stroke-miterlimit="10"/><path d="M44.554 109.025c.064.02.387.03.969.031.582.002 1.117.024 1.605.068M47.325 108.736c.008-.227.013-.468.013-.722a55.981 55.981 0 00-.04-1.97 94.221 94.221 0 01-.029-.853 13.254 13.254 0 00-.074-1.116c-.02-.183-.039-.374-.056-.57-.017-.198-.03-.411-.04-.64a51.302 51.302 0 01-.044-1.422 172.17 172.17 0 01-.005-2.315M43.855 98.467l-.041-.005h.003l.08.002c.05.002.107.009.171.021.064.013.167.029.31.047.141.02.392.037.753.055.36.017.64.043.837.077.293.052.617.129.972.232" fill="none" stroke="#fff" stroke-width="1.08945046" stroke-linecap="round" stroke-linejoin="round" stroke-miterlimit="10"/><path d="M42.467 102.403a.675.675 0 01.026-.316c.021-.058.001-.116-.062-.174a.741.741 0 00-.191-.13.835.835 0 00-.225-.062 2.067 2.067 0 00-.276-.021 1.109 1.109 0 00-.288.033.88.88 0 00-.264.115.797.797 0 00-.211.2 1.17 1.17 0 00-.152.296 2.153 2.153 0 00-.098.406 4.627 4.627 0 00-.046.522c-.007.194-.01.396-.008.605a3.491 3.491 0 00.207 1.175c.064.18.143.339.236.477.094.138.197.255.31.351a1.548 1.548 0 00.75.348c.134.02.263.028.387.023a.653.653 0 00.35-.121 1.43 1.43 0 00.31-.302c.098-.126.186-.258.263-.395.077-.138.136-.285.178-.441.042-.157.069-.324.08-.501.011-.178.016-.37.015-.579a3.535 3.535 0 00-.057-.61 5.366 5.366 0 00-.313-1.052 1.634 1.634 0 00-.187-.342.851.851 0 00-.214-.208c-.111-.072-.314-.13-.608-.172" fill="none" stroke="#007aff" stroke-width="1.1338139299999999" stroke-linecap="round" stroke-linejoin="round" stroke-miterlimit="10"/><path d="M74.83 102.437c.083-.407.147-.704.19-.89a34.833 34.833 0 01.388-1.449c.075-.254.152-.536.231-.847.08-.312.147-.614.2-.907.055-.292.094-.557.118-.793.024-.236.036-.432.037-.588 0-.157-.022-.264-.068-.322-.045-.057-.106-.07-.182-.038-.076.031-.165.13-.266.296a3.496 3.496 0 00-.305.723 7.692 7.692 0 00-.26 1.147c-.07.448-.124.947-.16 1.496-.037.55-.055 1.14-.056 1.77-.001.63.039 1.21.119 1.738.08.528.202.98.366 1.354.164.375.354.632.571.771.309.198.86-.026 1.653-.672M79.95 102.632a.498.498 0 00.015-.272.418.418 0 00-.059-.148.397.397 0 00-.11-.102.477.477 0 00-.171-.068 1.276 1.276 0 00-.223-.022.547.547 0 00-.264.072.873.873 0 00-.276.254c-.092.12-.175.265-.25.433a3.16 3.16 0 00-.184.555 2.777 2.777 0 00-.077.6 1.85 1.85 0 00.087.588c.061.193.144.365.25.515.104.15.228.26.372.33.143.07.308.093.495.073.188-.021.373-.097.557-.228.184-.13.346-.288.486-.474.14-.185.251-.386.335-.603.084-.217.142-.44.175-.668.033-.229.051-.438.055-.627.004-.19-.01-.327-.039-.414-.029-.087-.07-.12-.122-.101-.053.019-.105.123-.159.311-.053.188-.09.415-.11.68-.02.265-.016.55.01.857.028.307.092.588.194.843.101.255.241.439.42.55.256.16.698.115 1.325-.136M84.11 102.117c-.052-.02-.116.005-.191.074a.67.67 0 00-.145.249c-.045.119-.077.27-.095.45a2.83 2.83 0 00-.013.469c.009.13.054.305.136.525.082.22.184.415.307.586.123.171.257.3.402.384a.821.821 0 00.449.12c.153-.005.312-.072.477-.198a2.88 2.88 0 00.475-.472c.152-.187.277-.381.376-.582.099-.202.163-.402.193-.6a2.2 2.2 0 00.03-.495c-.011-.132-.045-.222-.104-.27a.198.198 0 00-.2-.036c-.076.025-.147.102-.212.23a1.57 1.57 0 00-.135.526 6.457 6.457 0 00-.031.8c.004.313.025.662.06 1.049.035.386.07.823.104 1.308.035.486.055.999.061 1.538.006.539.005 1.028-.003 1.466-.008.439-.023.819-.044 1.139a6.118 6.118 0 01-.239 1.355M89.228 103.55a.415.415 0 00.166-.067 1.123 1.123 0 00.327-.328c.061-.086.12-.188.175-.306a1.78 1.78 0 00.129-.379 2.28 2.28 0 00.052-.398.503.503 0 00-.08-.32.603.603 0 00-.22-.19.826.826 0 00-.298-.083 1.02 1.02 0 00-.361.036.972.972 0 00-.403.253c-.14.134-.268.316-.384.546-.116.23-.2.484-.251.763-.052.279-.068.572-.048.88.02.308.088.604.205.887.116.283.258.517.426.7.168.184.351.305.548.366.198.06.413.048.645-.036.336-.123.788-.515 1.356-1.176M92.674 102.549c-.026.04-.018.14.024.3a6.449 6.449 0 01.159.93c.02.206.033.421.038.646.005.225.009.42.009.586 0 .166-.002.283-.006.35-.004.069-.022.096-.054.083-.032-.013-.076-.087-.132-.224a3.076 3.076 0 01-.153-.52 6.71 6.71 0 01-.103-.616c-.024-.2-.04-.385-.048-.556-.008-.17.002-.342.03-.514.026-.172.081-.33.164-.474a1 1 0 01.336-.35c.204-.13.632-.166 1.286-.11M96.732 101.889c-.013-.037-.066-.08-.162-.126a.689.689 0 00-.25-.078.313.313 0 00-.183.036.567.567 0 00-.161.164 1.12 1.12 0 00-.146.299c-.04.12-.066.248-.08.387-.014.14-.021.273-.021.4s.02.237.06.331a.68.68 0 00.38.389c.091.039.206.068.344.088l.446.066c.159.024.31.058.453.102a.876.876 0 01.345.19.57.57 0 01.168.326c.025.136.018.29-.02.461-.037.172-.12.341-.25.507-.13.166-.29.302-.482.408a1.515 1.515 0 01-.57.188.73.73 0 01-.468-.083c-.18-.11-.271-.28-.273-.513M102.515 97.58a.696.696 0 00-.235-.063 6.813 6.813 0 00-.645-.027 20.53 20.53 0 00-.811.003c-.215.006-.336.032-.361.076a.55.55 0 00-.056.2c-.011.089-.018.443-.02 1.063-.002.62 0 1.032.008 1.233.008.201.019.412.033.633.014.22.032.562.056 1.024.024.462.044.812.06 1.05a34.93 34.93 0 01.081 1.96c.002.201.015.514.038.938.022.425.034.765.034 1.021 0 .257-.002.421-.006.494a1.335 1.335 0 01-.028.213 1.88 1.88 0 01-.097.288c-.05.124-.057.193-.021.207.035.014.257.018.665.013.407-.005.78-.008 1.115-.007.52 0 .943.017 1.272.048" fill="none" stroke="#fff" stroke-width=".9534509699999999" stroke-linecap="round" stroke-linejoin="round" stroke-miterlimit="10"/><path d="M107.397 108.244c.064.019.387.03.969.03a18.59 18.59 0 011.604.068M110.168 107.954c.008-.226.012-.467.013-.722a55.999 55.999 0 00-.04-1.97 93.648 93.648 0 01-.029-.852 15.67 15.67 0 00-.074-1.116c-.02-.184-.039-.374-.056-.572a14.97 14.97 0 01-.041-.638 51.303 51.303 0 01-.043-1.423 172.17 172.17 0 01-.006-2.315M106.698 97.685l-.042-.005h.004l.08.003c.05.001.107.008.171.02.064.013.167.029.309.048s.393.037.754.054c.36.017.64.043.837.078.293.051.617.128.972.231" fill="none" stroke="#fff" stroke-width="1.08945046" stroke-linecap="round" stroke-linejoin="round" stroke-miterlimit="10"/><path d="M136.127 102.416c.083-.407.146-.704.19-.89a34.292 34.292 0 01.388-1.449c.075-.254.151-.536.23-.848.08-.31.147-.613.202-.906.054-.293.093-.557.117-.793.023-.236.036-.432.036-.589 0-.156-.022-.263-.067-.32-.045-.059-.106-.072-.182-.04-.077.032-.165.131-.267.297a3.498 3.498 0 00-.305.722 7.69 7.69 0 00-.259 1.147c-.07.449-.124.948-.16 1.497-.037.55-.056 1.14-.057 1.77 0 .63.04 1.21.12 1.738.08.528.202.98.366 1.354.164.375.354.632.57.771.31.198.86-.026 1.654-.672M141.247 102.611a.498.498 0 00.014-.272.418.418 0 00-.058-.148.4.4 0 00-.11-.102.475.475 0 00-.172-.068 1.267 1.267 0 00-.223-.022.548.548 0 00-.263.072.874.874 0 00-.277.254c-.09.12-.174.264-.249.433a3.161 3.161 0 00-.184.555 2.772 2.772 0 00-.077.6c-.003.2.026.395.087.588.06.193.144.365.249.515.105.15.229.26.372.33.144.069.309.093.496.072.187-.02.373-.096.557-.227.184-.13.346-.289.485-.474.14-.185.252-.386.336-.603.084-.218.142-.44.175-.669.033-.228.05-.437.055-.626.003-.19-.01-.327-.039-.414-.03-.087-.07-.12-.122-.102-.053.02-.106.124-.16.312-.053.188-.09.415-.11.68-.02.264-.016.55.012.857.027.306.09.587.192.843.102.255.242.438.42.55.257.16.699.115 1.325-.137M145.408 102.096c-.053-.02-.117.005-.192.073a.669.669 0 00-.145.25c-.045.119-.077.269-.095.45a2.839 2.839 0 00-.013.468c.009.131.054.306.136.526a2.5 2.5 0 00.307.586c.123.171.257.3.402.384a.823.823 0 00.448.12c.154-.006.313-.072.478-.199.164-.126.323-.284.475-.47.152-.188.277-.382.376-.584a2.07 2.07 0 00.193-.6 2.2 2.2 0 00.03-.495c-.011-.13-.046-.22-.104-.27a.198.198 0 00-.201-.035c-.075.024-.146.101-.211.23-.066.13-.11.305-.136.526a6.458 6.458 0 00-.03.8c.004.312.024.662.06 1.048.035.387.07.823.104 1.31.035.485.055.997.06 1.536.007.54.006 1.028-.002 1.467-.008.439-.023.818-.044 1.139a6.12 6.12 0 01-.239 1.355M150.525 103.53a.415.415 0 00.166-.069 1.113 1.113 0 00.327-.327c.06-.086.12-.188.175-.306.056-.118.099-.244.128-.379.03-.135.048-.267.053-.398a.503.503 0 00-.08-.32.605.605 0 00-.22-.19.83.83 0 00-.298-.083 1.02 1.02 0 00-.361.036.973.973 0 00-.403.253c-.14.134-.268.316-.384.545-.116.23-.2.484-.252.763-.052.28-.067.573-.047.881.02.308.088.604.204.887.117.283.26.516.427.7.168.183.35.305.548.366.197.06.412.048.645-.037.336-.122.788-.514 1.356-1.175M153.97 102.528c-.025.04-.017.14.024.3a6.399 6.399 0 01.16.929c.02.207.033.422.038.647.005.225.008.42.009.586 0 .166-.002.283-.006.35-.004.068-.022.096-.054.083-.032-.013-.076-.088-.133-.224a3.073 3.073 0 01-.152-.52 6.735 6.735 0 01-.104-.616 7.86 7.86 0 01-.047-.556c-.008-.17.001-.342.029-.514.027-.172.082-.33.165-.474.082-.144.194-.26.336-.35.203-.13.632-.166 1.286-.11M158.028 101.868c-.012-.037-.066-.08-.161-.127a.688.688 0 00-.25-.078.313.313 0 00-.183.037.566.566 0 00-.162.164 1.12 1.12 0 00-.145.299c-.04.119-.066.248-.08.387-.015.14-.022.272-.022.4 0 .126.02.237.06.331a.682.682 0 00.38.389c.092.038.207.068.345.088l.446.066c.159.023.31.057.452.102a.876.876 0 01.346.19.57.57 0 01.168.326c.024.136.018.29-.02.461a1.27 1.27 0 01-.25.507c-.13.166-.29.302-.482.407a1.516 1.516 0 01-.57.189.732.732 0 01-.468-.084c-.18-.11-.271-.28-.273-.512M163.811 97.56a.695.695 0 00-.234-.064 6.866 6.866 0 00-.645-.027 20.53 20.53 0 00-.811.003c-.215.006-.336.031-.362.076a.55.55 0 00-.055.2c-.011.088-.018.443-.02 1.063-.002.62 0 1.031.008 1.233.008.201.018.412.032.633.014.22.033.562.057 1.024.023.462.043.812.06 1.05a36.043 36.043 0 01.08 1.96c.003.201.016.514.038.938.023.425.034.765.035 1.021 0 .256-.002.421-.006.494a1.434 1.434 0 01-.028.213 1.901 1.901 0 01-.097.288c-.05.124-.057.193-.022.207.036.014.257.018.665.013.408-.005.78-.008 1.116-.008.52.001.943.017 1.272.049" fill="none" stroke="#fff" stroke-width=".9534509699999999" stroke-linecap="round" stroke-linejoin="round" stroke-miterlimit="10"/><path d="M168.694 108.222c.063.02.386.03.968.031.582.002 1.117.024 1.605.068M171.465 107.933c.008-.227.012-.467.013-.722a55.981 55.981 0 00-.04-1.97 94.124 94.124 0 01-.03-.852 13.254 13.254 0 00-.074-1.116c-.02-.184-.038-.374-.055-.572-.018-.197-.031-.41-.041-.639a52.48 52.48 0 01-.043-1.422 170.88 170.88 0 01-.006-2.315M167.994 97.664l-.04-.005h-.001.004l.08.002c.05.002.107.009.17.021.065.013.168.029.31.047.141.02.393.037.753.055.36.017.64.043.837.078.294.051.618.128.972.23" fill="none" stroke="#fff" stroke-width="1.08945046" stroke-linecap="round" stroke-linejoin="round" stroke-miterlimit="10"/><path d="M105.23 100.721a7.223 7.223 0 00-.136 1.45c0 .178.003.369.009.572.007.203.021.417.044.642a8.35 8.35 0 01.033 1.171c-.013.143-.002.62.032 1.433M165.507 101.122c-.072.043-.113.01-.122-.097-.01-.108-.001-.224.025-.349.027-.124.065-.23.116-.315a1.422 1.422 0 01.404-.437c.083-.06.146-.101.189-.123.043-.023.126-.047.248-.075.123-.028.222-.042.297-.043.075 0 .14.023.196.069a.665.665 0 01.156.2c.047.088.09.243.126.466.037.224.056.462.059.714.002.252-.013.486-.047.702a5.46 5.46 0 01-.114.558 2.93 2.93 0 01-.167.462c-.07.152-.156.31-.26.475a8.676 8.676 0 01-.355.518c-.133.181-.271.35-.415.508a6.244 6.244 0 01-.376.384 2.235 2.235 0 01-.328.253c-.111.07-.203.113-.275.132-.072.018-.105.01-.099-.027.006-.036.034-.081.086-.135a.905.905 0 01.192-.151.703.703 0 01.266-.091.842.842 0 01.294.009c.096.02.19.07.283.149.091.08.184.177.278.294.093.116.188.227.285.333.096.106.197.198.303.276.106.077.206.133.302.168.095.034.187.054.276.06a.492.492 0 00.26-.055c.12-.062.361-.257.725-.587" fill="none" stroke="#007aff" stroke-width="1.1338139299999999" stroke-linecap="round" stroke-linejoin="round" stroke-miterlimit="10"/></svg>