<svg xmlns="http://www.w3.org/2000/svg" width="96.526" height="88.293"><path d="M18.182 3.11a1.57 1.57 0 00-.106-.52c-.043-.108-.137-.228-.282-.36a3.129 3.129 0 00-.54-.381 8.656 8.656 0 00-.71-.363 4.741 4.741 0 00-1.84-.42c-.36-.012-.767.053-1.219.193-.452.141-.936.334-1.454.58-.518.245-1.053.519-1.604.822-.552.303-1.107.648-1.666 1.036-.558.388-1.105.808-1.64 1.262-.534.454-1.07.942-1.605 1.465A20.253 20.253 0 004 8.077a12.959 12.959 0 00-1.27 1.861 16.032 16.032 0 00-.963 2.022 9.907 9.907 0 00-.569 2.11c-.11.72-.153 1.5-.127 2.339.026.84.167 1.695.42 2.567.254.871.613 1.834 1.075 2.888a21.508 21.508 0 001.654 3.063c.64.988 1.326 1.94 2.057 2.859a21.48 21.48 0 002.279 2.46 13.562 13.562 0 002.452 1.807c.846.481 1.72.848 2.624 1.101.904.253 1.638.4 2.203.438.565.04 1.502-.07 2.813-.327 1.31-.257 2.43-.624 3.361-1.102a14.038 14.038 0 002.654-1.78 18.02 18.02 0 002.392-2.473 45.789 45.789 0 002.059-2.754 16.842 16.842 0 001.609-2.947c.454-1.067.794-2.111 1.017-3.132a16.29 16.29 0 00.369-3.158 13.91 13.91 0 00-.35-3.335 16.977 16.977 0 00-.997-3.107 12.034 12.034 0 00-1.51-2.556 17.442 17.442 0 00-1.963-2.139 12.189 12.189 0 00-2.238-1.648 18.333 18.333 0 00-2.368-1.135 12.091 12.091 0 00-2.403-.672 10.321 10.321 0 00-2.33-.138c-1.102.065-2.365.396-3.789.993" fill="none" stroke="#007aff" stroke-width="2.12944656" stroke-linecap="round" stroke-linejoin="round" stroke-miterlimit="10"/><path d="M38.795 18.347c-.94-.33-1.386-.42-1.338-.266.035.11.23.234.587.373.357.138.842.313 1.455.524.614.211 1.31.462 2.088.754.778.291 1.713.65 2.805 1.073 1.091.425 2.287.88 3.587 1.363 1.3.484 2.7.997 4.196 1.539 1.498.541 3.07 1.14 4.716 1.798a288.55 288.55 0 015.212 2.144c1.829.772 3.609 1.547 5.34 2.327 1.733.78 3.41 1.574 5.035 2.384 1.624.81 3.263 1.617 4.918 2.421a99.988 99.988 0 014.765 2.472c2.254 1.25 4.765 2.829 7.534 4.738M36.64 18.445c-.085-.144-.102-.2-.054-.17l.262.162c.14.087.323.222.55.405a28.524 28.524 0 012.034 1.804c.47.454.968.977 1.493 1.568a46.016 46.016 0 001.81 1.912c.682.684 1.44 1.454 2.271 2.312.833.858 1.662 1.74 2.49 2.647.826.907 1.705 1.866 2.635 2.878.93 1.01 1.853 2.05 2.767 3.118.914 1.069 1.84 2.14 2.78 3.213a84.037 84.037 0 012.657 3.19 95.4 95.4 0 002.653 3.203 61.164 61.164 0 012.605 3.221c.801 1.064 1.681 2.138 2.64 3.221a62.882 62.882 0 012.752 3.332 80.759 80.759 0 002.67 3.289 68.195 68.195 0 012.607 3.237 130.08 130.08 0 002.655 3.388 230.518 230.518 0 012.691 3.387 195.19 195.19 0 002.695 3.379 460.47 460.47 0 012.773 3.433c.91 1.139 1.782 2.248 2.617 3.329.835 1.08 1.601 2.104 2.298 3.07.697.967 1.255 1.817 1.672 2.553a378.819 378.819 0 002.044 3.55" fill="none" stroke="#7ec636" stroke-width="2.43344542" stroke-linecap="round" stroke-linejoin="round" stroke-miterlimit="10"/><path d="M7.69 16.527c.097-.314.2-.73.307-1.249.108-.519.187-.929.24-1.23.052-.3.1-.615.144-.942.044-.327.074-.597.09-.808.018-.211.025-.363.021-.456-.004-.094-.025-.148-.064-.165-.039-.017-.08.004-.125.063-.045.058-.083.181-.114.368a5.34 5.34 0 00-.052.783c-.003.335.005.703.024 1.106.02.402.037.847.054 1.333.016.487.04.948.07 1.386.031.437.071.804.12 1.1.048.298.094.523.137.675.044.153.076.246.098.278.021.033.036.003.043-.088.007-.09.001-.354-.019-.79a8.794 8.794 0 01.002-1.038c.02-.256.065-.5.135-.73.07-.231.159-.42.267-.566a.734.734 0 01.352-.281.824.824 0 01.393-.028c.136.022.27.094.405.214.135.121.26.27.374.45.114.178.212.368.294.57.081.2.134.41.16.628.025.217.013.436-.035.656-.048.219-.136.427-.264.623a2.113 2.113 0 01-.98.807c-.24.087-.377.046-.41-.123M12.997 16.005l-.032-.09c-.002-.006-.005.006-.01.036l-.029.229c-.022.175-.027.96-.013 2.359M12.9 13.432l.097.08M16.44 16.473c.054-.091.02-.195-.1-.31a1.34 1.34 0 00-.22-.178.498.498 0 00-.203-.069.839.839 0 00-.241.011.592.592 0 00-.256.121 1.125 1.125 0 00-.233.251 1.564 1.564 0 00-.18.347c-.047.13-.077.28-.089.455-.012.175-.007.37.013.584.02.216.07.41.15.584.08.173.175.311.286.413a.824.824 0 00.375.2c.14.032.293.028.462-.012.168-.04.338-.14.51-.298.17-.158.317-.324.437-.497.12-.172.237-.385.348-.64.112-.253.179-.438.202-.555.023-.117.017-.193-.02-.226-.036-.033-.098-.04-.187-.02a.539.539 0 00-.257.158.71.71 0 00-.177.324c-.036.131-.044.29-.026.474s.074.375.167.572c.093.197.209.388.347.574.137.186.287.316.448.39.23.106.592-.076 1.087-.545M21.344 15.813c.008-.135.008-.237.002-.307-.004-.048-.048-.084-.132-.107-.084-.024-.17.006-.26.09-.089.085-.178.21-.266.378a2.656 2.656 0 00-.293 1.09c-.007.174.01.334.053.479a.863.863 0 00.193.355c.086.092.195.15.327.177.131.026.29.027.475.004.184-.024.375-.044.572-.058a1.31 1.31 0 01.524.055c.152.052.264.14.337.267.074.125.115.25.124.373.01.124-.053.28-.19.472-.136.19-.319.349-.547.475-.229.125-.474.22-.735.282-.387.093-.725.038-1.014-.164" fill="none" stroke="#fff" stroke-width=".9447237299999999" stroke-linecap="round" stroke-linejoin="round" stroke-miterlimit="10"/><path d="M47.318 17.013a91.02 91.02 0 01-.04.081c0 .002.002-.002.01-.012l.163-.234c.103-.146.228-.34.377-.583.148-.242.308-.52.48-.836a15.508 15.508 0 00.834-1.771c.101-.256.155-.442.162-.558.007-.117-.036-.14-.131-.073-.095.068-.206.211-.332.428-.127.218-.214.381-.263.491-.048.11-.138.376-.27.798a7.094 7.094 0 00-.277 1.356 7.215 7.215 0 00-.037 1.288c.027.377.095.659.203.845.108.185.236.292.383.318.147.027.316-.017.506-.13.19-.112.369-.235.534-.369.166-.133.302-.267.408-.403.105-.135.179-.25.22-.342.04-.094.03-.16-.03-.198-.061-.038-.143-.02-.247.052a.921.921 0 00-.268.313c-.076.136-.103.311-.08.526.02.215.093.457.214.727.122.27.296.486.522.647.226.16.502.182.827.063.325-.118.614-.328.867-.63a3.32 3.32 0 00.589-1.067c.14-.41.223-.79.249-1.139a3.63 3.63 0 00-.021-.866 1.94 1.94 0 00-.148-.517 2.135 2.135 0 01-.13-.305M55.816 18.856a.559.559 0 00.392-.014 1.06 1.06 0 00.252-.129c.072-.05.152-.131.24-.241.088-.11.179-.25.272-.422a6.63 6.63 0 00.244-.499c.07-.16.102-.308.096-.443a.455.455 0 00-.144-.327.873.873 0 00-.381-.19c-.164-.042-.371-.026-.622.049-.25.074-.502.203-.754.387a3.947 3.947 0 00-.666.611c-.193.224-.36.476-.499.754-.14.28-.235.592-.286.94-.05.346-.025.656.078.93.103.273.272.488.506.646.233.157.506.253.818.285.31.033.624-.003.938-.11a4.052 4.052 0 001.248-.667M60.04 19.175c-.14.4-.257.752-.348 1.057a18.924 18.924 0 01-.497 1.405c-.149.37-.251.71-.308 1.023M61.158 16.805l.018-.15M63.676 21.001c.107-.205.167-.36.18-.468a.518.518 0 000-.17.49.49 0 00-.1-.17.696.696 0 00-.234-.183.913.913 0 00-.366-.086 1.014 1.014 0 00-.487.117 2.38 2.38 0 00-.535.363c-.178.156-.33.329-.458.518-.128.19-.239.401-.333.634a2.556 2.556 0 00-.178.72c-.024.246-.009.461.046.646a.752.752 0 00.303.426c.149.1.337.15.564.149.227 0 .472-.066.734-.195.38-.189.882-.573 1.504-1.152" fill="none" stroke="#fff" stroke-width=".9549055099999999" stroke-linecap="round" stroke-linejoin="round" stroke-miterlimit="10"/><path d="M63.85 21.874c-.07-.199-.124-.316-.162-.353-.027-.026-.058.005-.095.092a11.11 11.11 0 00-.182.493c-.085.242-.18.553-.286.933-.105.38-.202.767-.292 1.162-.09.395-.188.806-.293 1.233-.105.426-.215.833-.329 1.22-.114.388-.247.784-.399 1.19-.152.405-.334.78-.546 1.125a4.69 4.69 0 01-.704.894 2.85 2.85 0 01-.815.573 1.6 1.6 0 01-.856.146 1.687 1.687 0 01-.775-.289c-.233-.16-.4-.414-.502-.762a2.212 2.212 0 01-.015-1.127c.092-.404.278-.795.558-1.172.28-.378.6-.688.959-.931.526-.357 1.144-.46 1.852-.308M67.619 19.058c-.06.015-.145.138-.255.368-.11.231-.223.489-.34.773-.115.285-.253.662-.412 1.13-.158.47-.32.942-.483 1.418-.163.476-.31.92-.44 1.333-.13.412-.223.746-.276 1.003a2.537 2.537 0 00-.072.56c.008.16.08.147.22-.038M66.232 23.856c.162-.293.312-.527.45-.704.094-.12.199-.23.314-.328.115-.098.238-.17.369-.215a.693.693 0 01.38-.028.386.386 0 01.273.227c.06.125.076.294.05.51a4.117 4.117 0 01-.205.801c-.11.32-.22.636-.329.946-.108.311-.177.58-.207.806-.029.226-.018.407.032.543.051.137.13.231.238.284.107.053.242.04.405-.037.237-.113.533-.376.89-.788M72.303 21.608l.231-.486.002-.003-.013.033-.339.835c-.214.527-.4.99-.556 1.388l-1.417 3.616" fill="none" stroke="#fff" stroke-width=".9549055099999999" stroke-linecap="round" stroke-linejoin="round" stroke-miterlimit="10"/><path d="M70.296 23.723a.347.347 0 01.114-.168.738.738 0 01.264-.122c.17-.05 1.072-.04 2.704.03M76.017 25.335c.149-.344.192-.557.13-.639-.045-.057-.123-.101-.236-.132a.848.848 0 00-.357-.018 1.74 1.74 0 00-.447.147c-.173.079-.333.175-.48.287-.147.113-.265.22-.353.324-.089.102-.154.2-.197.294a.424.424 0 00-.043.253c.014.074.071.149.172.223.1.074.243.152.427.236.185.083.385.19.6.32.217.131.398.284.544.458.146.174.23.367.252.58.022.212-.024.427-.138.646a1.249 1.249 0 01-.519.52 1.77 1.77 0 01-.769.214c-.408.023-.854-.213-1.338-.707M82.978 23.869a4.394 4.394 0 01-.39-.225 7.09 7.09 0 00-.94-.47A7.644 7.644 0 0081.19 23a2.713 2.713 0 00-.21-.064c-.03-.006-.068.018-.112.074a1.012 1.012 0 00-.131.265c-.045.12-.115.35-.21.691-.096.341-.184.667-.264.977-.08.31-.14.543-.182.699-.043.155-.089.316-.14.484-.05.168-.115.408-.196.72-.08.314-.153.585-.216.815l-.241.866c-.097.348-.187.646-.269.894-.082.249-.146.448-.193.6a5.652 5.652 0 01-.154.435c-.056.14-.117.268-.185.387a3.765 3.765 0 00-.163.316c-.042.092-.056.162-.043.21.012.048.071.099.176.153.104.054.346.162.725.322.379.161.642.283.789.367.147.084.28.164.401.241.121.078.24.163.356.256l.319.254" fill="none" stroke="#fff" stroke-width=".9549055099999999" stroke-linecap="round" stroke-linejoin="round" stroke-miterlimit="10"/><path d="M85.406 27.48a.841.841 0 00.076-.367.66.66 0 00-.11-.269.778.778 0 00-.225-.248 1.266 1.266 0 00-.281-.136.69.69 0 00-.372-.012c-.143.03-.295.094-.458.192a2.724 2.724 0 00-.492.386c-.165.16-.324.375-.477.644a5.7 5.7 0 00-.41.907c-.12.337-.188.68-.207 1.03-.019.349.004.685.07 1.008.065.322.181.605.347.846.167.242.36.423.583.544.222.121.46.154.716.097.255-.056.507-.188.756-.395.25-.207.48-.453.694-.736.213-.284.4-.586.562-.908a4.53 4.53 0 00.354-.933c.075-.3.096-.58.062-.837a2.062 2.062 0 00-.197-.671c-.142-.277-.454-.555-.937-.834" fill="none" stroke="#007aff" stroke-width=".9549055099999999" stroke-linecap="round" stroke-linejoin="round" stroke-miterlimit="10"/><path d="M88.481 25.5l-.048-.02.007.001c.006 0 .062.012.17.033.107.022.21.046.31.074.098.027.198.06.298.1.1.04.256.118.466.237.21.118.367.202.468.25.102.048.228.103.38.165a304.283 304.283 0 00.26.108l-.055-.011c-.034-.007-.077.059-.129.197-.052.14-.127.355-.225.648-.099.293-.182.572-.25.836-.07.265-.16.583-.27.954-.112.37-.213.674-.304.91-.092.238-.166.432-.223.585a8.31 8.31 0 00-.16.47c-.049.161-.104.364-.165.61-.06.244-.134.481-.22.71-.086.229-.151.408-.195.538a3.85 3.85 0 00-.11.382c-.029.125-.053.28-.074.467-.02.186-.04.328-.062.423-.02.096-.06.228-.122.398-.06.17-.13.345-.21.526-.08.18-.14.277-.179.287-.04.011-.118-.004-.235-.045-.116-.04-.238-.081-.365-.122a5.126 5.126 0 00-.419-.113 21.821 21.821 0 00-.629-.13c-.267-.052-.46-.1-.579-.142" fill="none" stroke="#fff" stroke-width=".9549055099999999" stroke-linecap="round" stroke-linejoin="round" stroke-miterlimit="10"/><path d="M63.445 41.12l-.07.051a.06.06 0 00.013-.005l.244-.125c.153-.079.347-.187.581-.325.235-.139.496-.303.784-.493a14.9 14.9 0 001.504-1.127c.2-.172.33-.306.388-.401.058-.095.032-.136-.079-.12-.111.015-.269.086-.474.213a5.264 5.264 0 00-.443.298c-.09.072-.287.257-.589.555a6.81 6.81 0 00-.844 1.026c-.26.385-.464.744-.61 1.076-.147.332-.216.6-.208.807.008.206.069.354.181.442.113.089.276.128.488.118.212-.01.419-.034.62-.073.2-.038.375-.091.526-.158.15-.067.264-.131.34-.193.076-.06.098-.12.063-.18-.034-.06-.11-.082-.231-.067a.884.884 0 00-.369.145c-.125.081-.227.218-.305.41-.078.191-.126.43-.144.713a1.5 1.5 0 00.152.783c.12.238.343.38.672.426.33.045.669-.003 1.019-.145.35-.143.676-.356.979-.64.303-.285.544-.57.723-.854.179-.285.303-.533.372-.744.069-.212.104-.38.107-.505a2 2 0 01.027-.317M69.824 46.504c.08.09.193.144.337.164.097.014.188.015.272.004.084-.01.188-.043.312-.096a2.68 2.68 0 00.42-.236c.156-.104.3-.209.432-.313a.97.97 0 00.28-.333.435.435 0 00.026-.342.837.837 0 00-.238-.332c-.12-.11-.303-.19-.55-.239a2.381 2.381 0 00-.813-.01 3.79 3.79 0 00-.84.218 3.51 3.51 0 00-.762.416 2.97 2.97 0 00-.664.667 1.77 1.77 0 00-.353.825c-.035.278.011.536.138.775.128.239.316.442.566.61.249.167.53.277.845.329.472.078.925.076 1.358-.005M73.262 48.674c-.299.275-.556.522-.77.74a18.122 18.122 0 01-1.053.968c-.293.247-.533.49-.722.728M75.276 47.166l.083-.12M75.524 51.857c.183-.125.304-.23.364-.315a.497.497 0 00.077-.145.47.47 0 00-.01-.188.668.668 0 00-.116-.261.876.876 0 00-.272-.238.973.973 0 00-.465-.12 2.563 2.563 0 00-1.239.301 3.339 3.339 0 00-.567.388 2.456 2.456 0 00-.474.53 1.64 1.64 0 00-.252.568.723.723 0 00.066.499.94.94 0 00.41.38c.194.1.43.156.71.164.409.011 1.007-.09 1.794-.301" fill="none" stroke="#fff" stroke-width=".9163602" stroke-linecap="round" stroke-linejoin="round" stroke-miterlimit="10"/><path d="M75.28 52.675c.03-.2.037-.323.02-.372-.01-.033-.051-.021-.121.036-.07.058-.196.17-.377.336-.18.167-.4.388-.66.663-.26.274-.518.56-.772.854-.253.295-.521.6-.802.914-.281.314-.557.61-.828.887-.27.277-.562.554-.873.83a6.21 6.21 0 01-.97.707 4.508 4.508 0 01-.998.443 2.74 2.74 0 01-.949.119 1.535 1.535 0 01-.791-.26 1.62 1.62 0 01-.528-.595c-.125-.24-.153-.53-.083-.872.07-.34.234-.661.494-.962a3 3 0 011-.743 3.815 3.815 0 011.232-.359c.607-.066 1.177.125 1.71.572M79.741 51.982c-.057-.014-.184.052-.381.198-.197.146-.409.314-.635.503-.227.19-.513.447-.858.773l-1.047.985c-.353.33-.678.641-.973.932-.296.291-.524.533-.685.727-.16.193-.264.34-.312.442-.066.14.001.161.202.067M76.408 55.427c.27-.175.502-.306.699-.394.133-.06.27-.105.413-.137.141-.032.278-.037.41-.017.131.021.243.07.334.147a.37.37 0 01.13.316c-.005.132-.068.284-.187.454-.119.17-.297.366-.534.588l-.704.655a3.94 3.94 0 00-.538.59c-.126.178-.199.337-.217.475a.465.465 0 00.074.348c.067.093.187.143.36.15.252.01.621-.08 1.108-.268M82.567 56.251c.266-.198.405-.3.415-.309l.003-.001-.026.022-.662.556c-.419.35-.784.66-1.096.927l-2.828 2.43" fill="none" stroke="#fff" stroke-width=".9163602" stroke-linecap="round" stroke-linejoin="round" stroke-miterlimit="10"/><path d="M79.915 57.142a.333.333 0 01.172-.091.706.706 0 01.279.015c.167.035.927.449 2.28 1.241M84.041 61.081c.282-.225.414-.386.397-.483-.011-.069-.058-.141-.14-.219a.815.815 0 00-.295-.176 1.668 1.668 0 00-.444-.075 2.377 2.377 0 00-.537.028c-.175.03-.324.068-.445.115-.12.047-.22.101-.299.161a.408.408 0 00-.15.195c-.022.07-.007.158.045.266.053.108.138.24.257.393.118.154.24.335.365.542.124.208.21.419.255.632.045.213.03.415-.047.605a1.08 1.08 0 01-.408.486c-.196.134-.42.203-.673.207a1.7 1.7 0 01-.75-.163c-.355-.165-.628-.565-.816-1.202M90.604 62.968a4.198 4.198 0 01-.23-.367 6.798 6.798 0 00-.586-.82 7.261 7.261 0 00-.31-.354 2.57 2.57 0 00-.149-.148c-.023-.02-.066-.016-.128.012a.971.971 0 00-.23.165c-.092.082-.255.246-.49.492-.234.246-.455.483-.662.71-.207.228-.364.398-.47.51-.105.113-.217.23-.335.349-.118.12-.282.294-.49.523-.21.228-.393.426-.55.593l-.594.626a19.54 19.54 0 01-.63.638c-.181.173-.325.314-.433.421a5.435 5.435 0 01-.326.3c-.11.093-.22.175-.331.245a3.61 3.61 0 00-.28.194c-.077.06-.121.113-.132.16-.01.045.016.115.08.208.065.093.221.293.47.6.25.306.418.528.505.665.087.137.165.266.232.386s.13.245.187.376l.156.359M94.538 66.825l-.032-.039.005.005.13.104c.081.067.158.134.23.202.07.067.14.14.207.22.068.078.164.214.29.41.125.195.22.335.284.422.064.086.147.19.248.31l.163.197.009.012-.042-.034c-.026-.021-.092.016-.198.11-.107.094-.267.243-.483.448-.215.204-.411.402-.588.596-.177.194-.396.423-.657.687a12.44 12.44 0 01-.668.636c-.184.16-.335.292-.452.396a7.931 7.931 0 00-.346.327c-.114.114-.252.262-.414.442-.162.18-.33.349-.506.504-.176.155-.312.278-.408.368-.096.09-.185.182-.265.275-.08.093-.17.214-.272.363-.102.149-.182.259-.243.33a3.26 3.26 0 01-.282.283 7.69 7.69 0 01-.415.352c-.149.117-.243.172-.281.163-.039-.009-.098-.057-.179-.144a12.96 12.96 0 00-.255-.267 4.929 4.929 0 00-.304-.284 20.86 20.86 0 00-.475-.394 4.369 4.369 0 01-.427-.38" fill="none" stroke="#fff" stroke-width=".9163602" stroke-linecap="round" stroke-linejoin="round" stroke-miterlimit="10"/><path d="M91.031 66.705a97.33 97.33 0 00-.957.806 90.537 90.537 0 01-1.261 1.044c-.352.284-.722.635-1.113 1.052" fill="none" stroke="#007aff" stroke-width=".9163602" stroke-linecap="round" stroke-linejoin="round" stroke-miterlimit="10"/></svg>