<svg xmlns="http://www.w3.org/2000/svg" width="268.458" height="184.659"><path d="M103.508 183.74c.024.104.048.137.072.098.018-.027.023-.069.016-.124a1.008 1.008 0 00-.053-.201 2.548 2.548 0 00-.255-.51 3.734 3.734 0 00-.354-.41 91.24 91.24 0 01-.461-.49c-.128-.137-.249-.27-.362-.397a37.784 37.784 0 00-.456-.505 16.92 16.92 0 00-.545-.569c-.172-.17-.356-.355-.553-.553-.196-.198-.399-.408-.607-.63a38.051 38.051 0 00-.624-.648c-.207-.21-.417-.427-.63-.651-.213-.224-.433-.45-.659-.678-.226-.227-.45-.435-.672-.622l-.663-.558c-.22-.186-.444-.374-.672-.563-.228-.19-.45-.368-.667-.537a29.246 29.246 0 01-.663-.531c-.225-.186-.459-.391-.7-.615-.242-.223-.601-.535-1.077-.935-.477-.4-.841-.71-1.093-.932-.252-.222-.5-.428-.742-.62-.242-.191-.62-.5-1.134-.927a21.37 21.37 0 00-1.177-.93 17.784 17.784 0 01-.813-.614c-.27-.215-.537-.431-.801-.648-.265-.217-.537-.42-.817-.61a37.4 37.4 0 01-.889-.622c-.312-.226-.749-.525-1.309-.898l-1.008-.672c-.113-.075-.291-.204-.536-.385a16.857 16.857 0 00-.6-.429 6.842 6.842 0 00-.462-.285 8.051 8.051 0 01-.464-.284 14.79 14.79 0 01-.737-.536 34.91 34.91 0 00-.762-.567 5.122 5.122 0 00-.38-.254 9.448 9.448 0 01-.376-.234c-.172-.11-.3-.192-.385-.244a12.927 12.927 0 01-.538-.371 51.93 51.93 0 01-.77-.56c-.24-.177-.394-.288-.465-.332a12.054 12.054 0 01-.819-.61 28.17 28.17 0 01-.587-.494c-.227-.196-.385-.33-.474-.405a8.867 8.867 0 00-.37-.288 10.66 10.66 0 01-.352-.272 16.009 16.009 0 01-.846-.8 36.687 36.687 0 01-1.081-1.161c-.146-.168-.25-.29-.312-.365a11.178 11.178 0 01-.3-.397c-.138-.189-.302-.41-.491-.666a25.67 25.67 0 01-.495-.686c-.14-.202-.314-.466-.519-.79l-.5-.792a18.543 18.543 0 01-.492-.85 20.797 20.797 0 01-.677-1.309 39.26 39.26 0 01-.45-1.064M103.38 184.206a1.97 1.97 0 01-.418-.063 10.731 10.731 0 01-.677-.19 52.03 52.03 0 00-.81-.245 25.26 25.26 0 00-.679-.19 8.986 8.986 0 01-1.107-.358 20.72 20.72 0 01-.658-.272c-.23-.098-.454-.199-.676-.3-.22-.103-.436-.2-.647-.295-.21-.093-.423-.183-.64-.269-.215-.085-.449-.186-.7-.302-.25-.115-.516-.243-.799-.382a51.49 51.49 0 00-.866-.417 10.808 10.808 0 00-.628-.28 12.611 12.611 0 01-.368-.147c-.121-.05-.312-.139-.572-.263-.26-.125-.541-.267-.844-.426-.303-.159-.598-.309-.886-.45a95.99 95.99 0 01-.875-.437c-.297-.15-.599-.309-.905-.475a39.31 39.31 0 00-.854-.452 15.683 15.683 0 00-.759-.365 15.593 15.593 0 01-.67-.316 25.13 25.13 0 01-.666-.351 38.07 38.07 0 00-.591-.316c-.153-.079-.307-.156-.463-.23a8.635 8.635 0 00-.421-.19 16.452 16.452 0 01-.576-.259c-.258-.12-.653-.315-1.184-.584l-1.25-.633c-.301-.152-.612-.32-.932-.504-.32-.184-.633-.362-.937-.533a11.79 11.79 0 00-.864-.445 25.887 25.887 0 01-.796-.383c-.26-.13-.53-.275-.814-.435-.283-.16-.582-.317-.897-.472-.314-.154-.62-.298-.918-.43a14.878 14.878 0 01-.895-.437c-.298-.158-.603-.317-.915-.479-.31-.16-.62-.311-.927-.45-.306-.14-.581-.274-.824-.404s-.569-.307-.977-.533a15.435 15.435 0 00-1.119-.567 13.056 13.056 0 01-.99-.498c-.322-.18-.646-.363-.971-.551a15.82 15.82 0 00-.983-.522c-.33-.16-.663-.338-1.001-.53a49.839 49.839 0 00-.99-.552c-.321-.174-.639-.328-.953-.461a56.814 56.814 0 01-1.83-.815 18.296 18.296 0 00-1.088-.465 30.68 30.68 0 01-1.01-.41 23.91 23.91 0 01-1.018-.463c-.336-.162-.67-.307-1.005-.435-.334-.128-.68-.264-1.04-.407-.36-.144-.726-.302-1.099-.474-.372-.173-.737-.33-1.094-.474a82.277 82.277 0 01-1.067-.437c-.354-.148-.703-.31-1.045-.487a56.13 56.13 0 01-.915-.482 14.54 14.54 0 01-.56-.314 5.545 5.545 0 01-.314-.207 9.494 9.494 0 01-.451-.35c-.295-.24-.605-.51-.93-.813M49.958 158.65c-.069.017-.126-.03-.172-.14a1.566 1.566 0 01-.076-.39 9.369 9.369 0 01-.044-1.262 5.23 5.23 0 01.055-.623c.029-.185.07-.374.121-.565.052-.191.11-.414.173-.67.063-.256.135-.532.216-.83.08-.297.175-.597.285-.902.11-.304.225-.603.345-.896.12-.294.23-.586.331-.878.101-.293.213-.59.335-.893.122-.302.258-.6.408-.895.149-.295.312-.608.487-.941.176-.334.363-.693.562-1.08.199-.386.41-.77.632-1.149.222-.38.441-.748.657-1.105.317-.523.786-1.202 1.407-2.037M54.911 143.5c.026.04.012.07-.042.09-.054.02-.15.031-.29.035a38.593 38.593 0 01-2.765-.06 30.652 30.652 0 01-1.262-.099c-.43-.042-.88-.11-1.353-.203-.473-.094-.951-.21-1.435-.35a31.294 31.294 0 00-1.567-.405c-.56-.13-1.186-.309-1.877-.535a48.032 48.032 0 01-2.087-.736 18.292 18.292 0 01-3.788-1.96 65.724 65.724 0 01-1.558-1.093c-.71-.514-1.76-1.367-3.153-2.558M33.328 135.205c.176.075.25.117.222.125l-.15.044c-.08.024-.232.045-.454.063a6.805 6.805 0 01-.677.023c-.23-.004-.582-.021-1.058-.052-.476-.03-.867-.056-1.174-.074-.307-.02-.631-.05-.972-.096a28.71 28.71 0 01-1.102-.167c-.393-.068-.79-.14-1.191-.216-.4-.076-.807-.147-1.219-.213a30.834 30.834 0 01-1.275-.232 17.61 17.61 0 01-1.41-.353c-.5-.145-1.014-.292-1.54-.439a30.036 30.036 0 01-1.614-.502 105.053 105.053 0 01-3.18-1.14 53.912 53.912 0 01-1.525-.6c-.506-.208-1.03-.422-1.57-.642-.54-.22-1.087-.472-1.642-.755a32.584 32.584 0 01-1.741-.96 25.996 25.996 0 01-1.737-1.115 20.615 20.615 0 01-1.625-1.269 38.037 38.037 0 01-.971-.853 8.5 8.5 0 01-.358-.364 19.076 19.076 0 01-.616-.722c-.29-.35-.486-.593-.592-.73a40.057 40.057 0 01-.907-1.335c-.5-.751-.91-1.429-1.23-2.031-.32-.603-.6-1.207-.84-1.812a10.316 10.316 0 01-.536-1.818 10.08 10.08 0 01-.19-1.788 11.02 11.02 0 01.122-1.78c.09-.601.21-1.2.361-1.793.152-.594.343-1.185.573-1.774.231-.59.515-1.182.85-1.778a9.746 9.746 0 01.994-1.477c.476-.568 1.231-1.377 2.265-2.428M6.174 104.348c-.043-.015-.053.015-.03.09.024.076.052.151.085.227.032.076.098.178.198.306.099.128.292.353.579.676.287.322.478.535.572.638.095.102.41.416.946.94.535.525 1.05 1.01 1.546 1.456l1.578 1.42c.556.501 1.12.98 1.69 1.438.57.458 1.122.88 1.656 1.268.533.388 1.116.776 1.749 1.165.633.388 1.308.785 2.025 1.191.718.406 1.28.712 1.684.92.406.208 1.04.455 1.905.743.864.287 1.638.51 2.323.67 1.023.236 2.085.312 3.188.226" fill="none" stroke="#ff6100" stroke-width=".9069056900000001" stroke-linecap="round" stroke-linejoin="round" stroke-miterlimit="10"/><path d="M27.75 117.668l.031.048-.002-.006-.043-.106a2.318 2.318 0 00-.223-.36l-.53-.757a55.69 55.69 0 00-.503-.712c-.106-.146-.22-.31-.34-.49a38.196 38.196 0 01-.97-1.553 36.094 36.094 0 01-.41-.716 1068.424 1068.424 0 00-.956-1.694 64.28 64.28 0 01-.509-.915l-.54-.99a103.428 103.428 0 01-1.102-2.087l-.526-1.033c-.18-.356-.475-.948-.886-1.777-.411-.83-.692-1.395-.844-1.697-.15-.302-.345-.694-.582-1.176l-.588-1.193a72.09 72.09 0 01-.99-2.094 23.236 23.236 0 01-.303-.716c-.134-.333-.667-1.744-1.599-4.233" fill="none" stroke="#ff6100" stroke-width=".9069056900000001" stroke-linecap="round" stroke-linejoin="round" stroke-miterlimit="10"/><path d="M14.374 92.117c.011-.062.072-.112.182-.149.11-.037.346-.052.708-.044.36.007.696.025 1.004.054.309.028.632.065.97.109.339.044.702.088 1.092.133.39.045.797.097 1.223.156.426.06.901.159 1.426.297.524.139 1.058.299 1.6.48.542.182 1.096.38 1.663.591.566.212 1.12.444 1.664.694a40.386 40.386 0 014.894 2.69c.564.362 1.127.748 1.69 1.159.563.41 1.126.838 1.69 1.285.563.446.936.749 1.12.907.184.159.349.308.495.447.147.139.277.262.392.368.114.106.238.224.372.353.133.13.27.268.412.417.141.148.406.432.793.854s.758.846 1.111 1.272c.354.427.598.724.734.893.135.17.418.552.847 1.149s.855 1.232 1.279 1.906c.423.675.815 1.357 1.173 2.049.359.691.666 1.372.924 2.043.257.671.455 1.33.594 1.975.139.645.248 1.215.327 1.71.08.497.133.837.16 1.022.028.184.076.585.145 1.204.069.618.122 1.276.16 1.973.037.697.043 1.368.017 2.013a12.922 12.922 0 01-.687 3.679c-.204.6-.416 1.158-.638 1.672-.321.747-.846 1.954-1.573 3.621M42.823 130.591c.052.063.169.14.352.235.182.094.377.189.584.285.207.097.459.21.756.34.298.129.632.256 1.003.38a73.715 73.715 0 002.65.82c.475.138.967.246 1.476.323a296.3 296.3 0 001.588.237c.551.08 1.142.14 1.774.18.632.04 1.297.019 1.996-.064.699-.082 1.35-.202 1.951-.36.964-.253 1.655-.415 2.073-.485M59.761 130.704c.04-.082.06-.127.065-.135.003-.006.003-.003.003.007l-.012.125c-.006.074-.017.15-.033.23-.022.112-.232.509-.628 1.188M59.76 130.575a2.43 2.43 0 01-.68-.228c-.231-.114-.53-.27-.896-.464a22.814 22.814 0 01-1.168-.67c-.411-.25-.806-.494-1.183-.728-.378-.234-.761-.509-1.15-.825a24.29 24.29 0 01-1.196-1.042 25.834 25.834 0 01-1.245-1.24c-.422-.45-.81-.922-1.164-1.417a9.865 9.865 0 01-.843-1.385c-.308-.63-.498-1.412-.57-2.344M49.72 120.177c.003-.052.125-.208.363-.467.238-.26.459-.496.662-.71.203-.215.43-.444.683-.688.252-.244.546-.499.881-.765.335-.266.691-.533 1.068-.802.377-.27.785-.536 1.223-.8a32.623 32.623 0 012.092-1.163c.181-.09.526-.236 1.033-.44.744-.3 1.752-.635 3.025-1.005M61.16 113.017a.581.581 0 01-.129-.268 2.102 2.102 0 01-.057-.45c-.008-.252 0-.628.025-1.127M60.955 110.626l.049.05v.001l-.003-.004-.092-.094a4.334 4.334 0 00-.344-.296 23.091 23.091 0 01-.607-.505 49.58 49.58 0 00-.748-.628c-.267-.22-.518-.44-.754-.658a15.054 15.054 0 01-.93-.975 37.9 37.9 0 01-1.103-1.292c-.35-.43-.69-.863-1.019-1.297-.33-.435-.633-.876-.912-1.324-.28-.447-.537-.925-.772-1.433-.347-.749-.681-1.67-1.002-2.76M52.792 98.935a6.72 6.72 0 01.47-.412 29.86 29.86 0 011.575-1.211c.265-.19.569-.396.91-.618.341-.222.714-.446 1.118-.672.404-.226.832-.431 1.284-.616.453-.185.92-.333 1.402-.446a11.05 11.05 0 011.429-.239c.685-.067 1.694-.068 3.028 0M64.167 94.26c-.077-.023-.1-.122-.067-.296.047-.248.408-1.069 1.082-2.463M65.452 90.859c-.051-.006-.172-.115-.362-.327-.191-.212-.367-.412-.528-.598-.16-.187-.352-.417-.574-.689a20.248 20.248 0 01-.701-.916 118.166 118.166 0 01-2.46-3.532c-.31-.463-.611-.96-.903-1.487a16.07 16.07 0 01-1.338-3.197c-.206-.721-.196-1.6.032-2.633M59.076 77.093a44.34 44.34 0 011.71-.734 63.534 63.534 0 011.398-.53c.126-.044.416-.126.87-.246s.95-.227 1.487-.323a16.168 16.168 0 011.648-.204c.56-.041 1.107-.052 1.64-.032a8.06 8.06 0 011.491.186c.677.154 1.474.468 2.389.942M71.782 75.865c.105-.06.21-.138.313-.235.069-.064.17-.18.305-.348.194-.241.592-.823 1.193-1.744M73.803 72.852a9.155 9.155 0 01-.414-.764c-.176-.353-.33-.656-.46-.91a45.453 45.453 0 01-.94-1.932 34.5 34.5 0 01-.55-1.283 41.97 41.97 0 01-.566-1.471 19.777 19.777 0 01-.498-1.574 43.748 43.748 0 01-.408-1.622 76.336 76.336 0 01-.347-1.574 14.77 14.77 0 01-.23-1.422c-.07-.642.023-1.44.28-2.393M69.912 57.354c.278-.005.757-.04 1.437-.108.68-.067 1.216-.119 1.61-.155.394-.037.81-.071 1.245-.103a22.22 22.22 0 013.078-.003c.573.038 1.124.093 1.653.166.53.072 1.042.158 1.54.256.723.143 1.766.589 3.131 1.336M83.57 58.368c.034-.085.16-.26.378-.527.318-.39.784-.909 1.397-1.557M85.437 55.898c-.107-.113-.23-.333-.367-.658a36.05 36.05 0 01-.4-.996 56.83 56.83 0 01-.403-1.075c-.137-.378-.27-.8-.4-1.268a30.477 30.477 0 01-.905-4.672 10.841 10.841 0 01-.029-1.627c.043-.937.35-2.159.92-3.665M83.847 41.644c-.033-.029-.01-.054.07-.075.079-.02.247-.047.505-.079a21.17 21.17 0 011.421-.135c.318-.02.692-.027 1.12-.019.43.009.885.046 1.368.114.483.067.967.156 1.452.266.485.11.963.227 1.435.349.471.122.94.271 1.406.447.466.176.922.374 1.368.594.651.321 1.563.811 2.736 1.47M97.25 44.659c-.006-.083.036-.166.125-.248.09-.083.179-.156.269-.221.09-.065.223-.156.399-.273.254-.17.694-.414 1.32-.73M99.46 42.366a5.478 5.478 0 01-.25-.886c-.058-.302-.112-.64-.16-1.015-.048-.375-.09-.766-.125-1.173a50.448 50.448 0 01-.095-1.32 24.243 24.243 0 01-.041-1.48c0-.514.032-1.04.093-1.578.061-.537.142-1.084.241-1.638.1-.555.215-1.06.344-1.518.192-.676.436-1.464.733-2.365M100.424 29.09c-.007-.06.052-.113.178-.156.126-.044.323-.077.59-.1a10.847 10.847 0 011.684-.01 21.669 21.669 0 012.058.25c.364.062.747.15 1.15.265.402.114.832.283 1.288.504.457.222.892.444 1.305.667.413.222.838.484 1.277.786.648.447 1.336 1.029 2.062 1.746M112.047 32.93c.142-.067.366-.188.673-.364.193-.11.431-.241.717-.393.418-.223.973-.475 1.665-.754M115.368 31.334l.006.056h0v-.009l-.014-.197c-.009-.124 0-.298.024-.522.025-.225.05-.461.075-.71.026-.248.052-.554.078-.919a35.97 35.97 0 01.233-1.946c.13-.934.27-1.654.425-2.162.154-.508.319-1.014.492-1.517.174-.504.373-.986.598-1.447.226-.462.459-.927.701-1.395.242-.47.492-.868.749-1.195.379-.483.898-.82 1.557-1.009M120.815 18.175c.101-.039.258-.017.47.065.213.082.49.218.83.408.34.19.64.356.898.495.258.14.55.308.876.506.327.199.68.436 1.06.714a25.155 25.155 0 012.234 1.835c.388.356.795.744 1.222 1.165.427.42.807.819 1.14 1.196.493.56.971 1.227 1.433 2.002M131.702 26.929c-.025-.065.039-.128.19-.191.151-.064.425-.16.82-.287.645-.21 1.085-.326 1.321-.351M134.563 25.75c-.035-.17-.01-.378.075-.624.085-.246.17-.512.257-.798.087-.285.198-.644.333-1.077.134-.433.315-.901.54-1.405.227-.505.47-1.055.729-1.65.26-.595.527-1.165.803-1.709.275-.544.557-1.083.844-1.616.42-.78 1.138-1.734 2.154-2.863M140.83 13.87c-.083-.098-.082-.171.002-.219.06-.034.154-.04.28-.017.127.022.288.065.485.129.197.063.445.152.744.266.298.113.655.282 1.069.506a18.09 18.09 0 012.723 1.815c.491.393.951.827 1.381 1.302.43.476.804.938 1.12 1.387.318.45.623.914.917 1.393.429.7.978 1.757 1.648 3.171M151.47 23.68a.418.418 0 01.175-.12c.074-.03.18-.063.32-.1.14-.039.344-.068.615-.088.395-.03.948-.008 1.658.068M154.281 23.048c-.032-.016-.043-.053-.032-.113.011-.059.106-.263.282-.613.177-.35.349-.71.515-1.08a24.755 24.755 0 011.309-2.493c.264-.443.553-.892.864-1.347.311-.455.65-.88 1.015-1.276.366-.395.728-.763 1.086-1.101.358-.34.705-.66 1.04-.963a62.719 62.719 0 011.84-1.588M162.497 12.208a.598.598 0 01.338.019c.084.026.18.068.286.126.106.058.26.155.459.292.2.138.441.317.725.538.283.22.592.498.925.83.333.333.663.687.992 1.063.328.375.648.804.958 1.284.31.481.592.994.843 1.538.25.545.454 1.015.61 1.412.156.396.395 1.021.716 1.875.582 1.546.87 2.41.866 2.593M170.601 24.102c.278-.024.545.002.801.08.172.051.307.096.407.133.142.053.468.216.978.49M173.251 24.62c.136-.154.338-.407.606-.76.17-.222.338-.442.506-.658a14.3 14.3 0 01.712-.828c.306-.336.656-.712 1.05-1.13a65.49 65.49 0 011.298-1.34c.472-.474.959-.931 1.46-1.37.5-.44.994-.867 1.482-1.28a43.88 43.88 0 011.372-1.12 12.752 12.752 0 011.955-1.267M184.254 14.767c.139.113.279.247.419.402.14.155.275.312.405.47.13.157.296.38.497.665.201.285.416.603.644.954.228.351.465.747.71 1.188a26.342 26.342 0 011.483 3.161c.233.594.428 1.194.585 1.801.157.608.272 1.125.346 1.552.107.621.15 1.636.128 3.044M189.669 28.666c-.074-.055-.078-.093-.011-.112.048-.013.14-.002.274.035.134.037.313.094.534.172.222.077.46.167.713.27.366.147.972.51 1.817 1.09M193.327 29.814c-.038-.117.029-.298.199-.544.11-.159.222-.302.334-.428.112-.127.274-.285.486-.477.211-.191.5-.434.867-.728s.78-.619 1.239-.975c.458-.357.966-.71 1.522-1.057a13.847 13.847 0 011.704-.91c.58-.258 1.141-.46 1.685-.605.807-.216 1.681-.268 2.623-.158M204.846 23.742c.045-.008.111.016.197.071.086.055.168.127.246.215.078.088.187.242.327.462.14.22.302.496.486.83a21 21 0 011.178 2.578c.19.501.353 1.04.49 1.615s.245 1.167.326 1.776c.08.609.135 1.198.165 1.767s.044 1.123.04 1.662a19.924 19.924 0 01-.233 2.723M208.32 37.684a.474.474 0 01.368-.003c.124.049.285.127.483.234.198.108.336.185.413.233.11.067.572.448 1.385 1.142M211.109 39.098c-.032.012-.05.018-.052.02a21.062 21.062 0 013.616-2.394 16.598 16.598 0 011.726-.825 22.622 22.622 0 014.046-1.236c1.015-.206 2.366-.344 4.051-.416M224.77 34.297c.114.188.218.395.309.621.09.226.177.451.26.675.083.225.15.431.201.62.052.19.133.562.242 1.116.11.554.197 1.1.262 1.64.065.54.107 1.086.128 1.641.021.555 0 1.161-.064 1.818a32.684 32.684 0 01-.27 2.069c-.171 1.052-.577 2.607-1.218 4.666M224.621 49.56c.132.026.265.08.398.162.134.082.313.218.538.41.338.288.644.597.918.926M226.905 51.039a19.706 19.706 0 011.362-.763c.195-.1.467-.223.817-.369.35-.146.784-.311 1.303-.496.518-.184 1.083-.35 1.694-.5.611-.148 1.221-.258 1.83-.329a10.77 10.77 0 011.714-.072c.792.034 1.622.179 2.49.433M238.834 49.016c.046.002.113.066.2.191.088.125.193.341.317.648s.217.54.277.7c.061.16.137.395.226.705.09.31.186.662.289 1.056a23.537 23.537 0 01.542 2.961c.067.572.102 1.163.104 1.774a9.28 9.28 0 01-.14 1.703 8.242 8.242 0 01-.408 1.474c-.255.663-.915 1.584-1.982 2.763M238.152 63.516c.48.38.883.71 1.207.988" fill="none" stroke="#ff6100" stroke-width=".9069056900000001" stroke-linecap="round" stroke-linejoin="round" stroke-miterlimit="10"/><path d="M239.247 64.694c.064-.234.145-.47.243-.705.065-.156.126-.31.182-.463.057-.153.17-.433.338-.843.17-.409.359-.81.569-1.204l.607-1.141c.195-.368.339-.636.432-.804.093-.168.307-.477.644-.925.337-.45.696-.92 1.078-1.414.56-.725 1.367-1.592 2.42-2.602M245.665 53.977a8.097 8.097 0 01-.008-1.23c.02-.257.091-.77.216-1.537.125-.768.235-1.32.33-1.655.144-.514.3-.946.469-1.296M246.144 47.548c.019.134-.013.223-.095.269-.057.032-.156.03-.296-.005a2.763 2.763 0 01-.489-.183 17.44 17.44 0 01-.607-.3 5.596 5.596 0 01-.694-.434 6.287 6.287 0 01-.76-.66 38.02 38.02 0 01-.818-.847c-.282-.3-.59-.653-.926-1.06-.336-.406-.682-.827-1.037-1.263-.356-.436-.71-.888-1.066-1.357a25.92 25.92 0 01-1.028-1.462 34.391 34.391 0 01-.966-1.57 45.47 45.47 0 01-.907-1.64c-.29-.552-.57-1.1-.837-1.642a52.449 52.449 0 01-.76-1.607c-.24-.53-.472-1.08-.698-1.651a41.217 41.217 0 01-.635-1.722 19.397 19.397 0 01-.5-1.69 25.628 25.628 0 01-.356-1.705 29.77 29.77 0 01-.255-1.785 21.178 21.178 0 01-.126-1.747 28.31 28.31 0 01-.014-1.353c.007-.341.02-.647.038-.917s.053-.687.105-1.25c.052-.562.124-1.121.216-1.678.092-.558.208-1.132.346-1.723.14-.591.3-1.169.48-1.732.182-.564.381-1.118.599-1.665a35.535 35.535 0 011.485-3.252c.284-.55.577-1.076.878-1.581a67.18 67.18 0 01.945-1.537c.33-.52.547-.857.652-1.01.105-.155.286-.386.541-.693.256-.307.554-.65.896-1.029a16.03 16.03 0 012.273-2.077c.605-.454 1.342-.94 2.212-1.457M244.275.454a7.221 7.221 0 01.264 1.548 9.073 9.073 0 00.174 1.345c.068.347.16.747.279 1.2.118.454.252.956.403 1.506.151.55.292 1.086.421 1.607.13.522.339 1.392.625 2.61.286 1.22.51 2.157.67 2.813.16.655.323 1.28.49 1.872.169.593.356 1.187.562 1.783.207.595.425 1.196.655 1.802.23.606.475 1.195.735 1.768.259.572.524 1.137.795 1.693.393.806 1.16 2.172 2.3 4.098M253 26.389c.121-.073.238-.185.35-.335.073-.099.163-.25.268-.454.106-.203.285-.64.536-1.308a34.9 34.9 0 01.607-1.529c.154-.351.4-.984.738-1.9.34-.914.565-1.55.676-1.91.112-.358.236-.781.373-1.269.136-.488.224-.804.263-.95.04-.146.101-.468.186-.966.086-.499.169-1.007.25-1.526.08-.519.157-1.053.23-1.601a526.913 526.913 0 01.444-3.267c.077-.549.163-1.12.258-1.714.095-.594.179-1.184.252-1.769.073-.585.13-1.132.174-1.64.064-.757.154-1.583.27-2.478M259.408 1.26c.058.026.18.123.367.29.11.098.252.228.422.387a11.336 11.336 0 011.303 1.476c.243.328.475.667.695 1.017.22.35.449.746.685 1.185.237.44.425.794.563 1.065.138.272.271.544.4.817.13.273.286.611.47 1.016.185.405.35.777.493 1.117.143.34.275.656.394.95.12.295.277.701.472 1.22.195.52.322.861.379 1.026a30.17 30.17 0 01.515 1.777 96.412 96.412 0 01.697 2.92c.038.178.091.446.159.803.067.357.119.63.153.821a31.555 31.555 0 01.265 1.842c.04.358.069.631.085.822.017.19.032.456.045.797.014.34.023.692.029 1.055.005.362.006.633.005.812l-.01.509c-.006.16-.018.416-.036.77-.019.353-.073.854-.162 1.504-.09.65-.202 1.326-.338 2.03a31.544 31.544 0 01-.285 1.376c-.055.213-.16.58-.317 1.1a68.07 68.07 0 01-.57 1.781 40.077 40.077 0 01-.749 2.056 49.458 49.458 0 01-.872 2.071c-.304.678-.63 1.35-.98 2.015-.348.665-.719 1.33-1.112 1.997a22.585 22.585 0 01-1.258 1.908 43.447 43.447 0 01-1.37 1.766 25.815 25.815 0 01-1.244 1.428c-.528.555-1.358 1.33-2.49 2.327M256.16 49.244l.016-.083v-.001.003l-.02.083c-.013.052-.03.16-.052.323a8.818 8.818 0 01-.108.607 40.248 40.248 0 00-.349 1.939c-.06.39-.17.996-.332 1.816-.161.82-.309 1.438-.443 1.855a73.88 73.88 0 01-.425 1.282c-.15.438-.315.869-.495 1.294-.181.425-.37.894-.568 1.41-.197.514-.42 1.07-.666 1.668a75.432 75.432 0 00-.748 1.888 22.428 22.428 0 01-1.411 3.038 5.996 5.996 0 01-1.242 1.507M249.332 68.494a.415.415 0 01.246-.027c.107.012.24.027.398.042.158.016.385.055.683.117.297.062.66.154 1.09.276.43.12.911.25 1.445.387.534.136 1.106.28 1.715.433.61.152 1.244.319 1.903.5.66.182 1.33.385 2.015.61.684.225 1.318.467 1.905.724.586.258 1.082.497 1.489.717.625.34 1.153.624 1.585.855M264.57 73.122l-.016-.045v.022a20.183 20.183 0 00.018.737c.006.178.014.41.022.698.008.288.024.637.05 1.047.026.41.05.826.073 1.248.023.422.052.88.087 1.377.034.495.051 1.006.05 1.533 0 .526-.027 1.052-.08 1.578-.055.526-.131 1.058-.23 1.594s-.21 1.07-.335 1.601c-.125.532-.26 1.081-.404 1.65-.145.568-.28 1.14-.406 1.716a192.135 192.135 0 01-.831 3.617 22.288 22.288 0 01-.467 1.653 168.693 168.693 0 01-1.361 4.01 193.37 193.37 0 00-.863 2.515c-.194.584-.39 1.169-.59 1.756-.2.586-.4 1.144-.597 1.673l-.61 1.632c-.208.56-.404 1.118-.587 1.675-.182.556-.366 1.125-.551 1.706-.185.581-.354 1.19-.505 1.827a31.799 31.799 0 00-.404 1.987 71.072 71.072 0 00-.32 2.052c-.097.68-.185 1.354-.266 2.022-.081.67-.17 1.354-.266 2.054a48.23 48.23 0 01-.305 1.957c-.157.878-.472 2.258-.944 4.14M253.674 123.78a5.977 5.977 0 01-.362-.797 15.444 15.444 0 01-.578-1.94 29.58 29.58 0 01-.273-1.334c-.09-.492-.162-.939-.216-1.34a72.71 72.71 0 01-.115-.873c-.022-.18-.053-.56-.093-1.135s-.08-1.172-.12-1.791a74.374 74.374 0 01-.093-1.871 63.582 63.582 0 01-.042-1.933c-.004-.66-.004-1.325 0-1.994.005-.668 0-1.345-.01-2.03a84.578 84.578 0 01-.01-2.078c.004-.7.022-1.359.051-1.975.03-.617.056-1.232.08-1.847a44.57 44.57 0 00.034-1.899 85.071 85.071 0 00-.028-1.919 56.272 56.272 0 00-.083-1.92 29.948 29.948 0 00-.191-2.008 45.766 45.766 0 00-.301-2.003 33.024 33.024 0 00-.399-1.943 23.724 23.724 0 00-.56-1.975c-.322-.975-.836-2.38-1.542-4.213M248.62 83.045l.029-.1-.012.028-.198.497c-.125.31-.23.595-.315.852-.086.258-.174.563-.265.916-.09.353-.254.983-.491 1.889a147.541 147.541 0 01-1.029 3.75c-.151.524-.307 1.053-.468 1.587-.16.534-.309 1.062-.446 1.583-.137.52-.275 1.06-.415 1.618-.14.557-.276 1.104-.408 1.641a51.675 51.675 0 00-.388 1.699c-.126.595-.26 1.19-.403 1.783a51.638 51.638 0 00-.389 1.746c-.116.57-.24 1.158-.369 1.76-.13.604-.255 1.194-.376 1.77-.121.576-.237 1.167-.347 1.772l-.351 1.925c-.125.678-.24 1.351-.344 2.02-.106.67-.215 1.326-.33 1.97-.114.644-.207 1.3-.28 1.966-.108.988-.261 2.096-.46 3.324M240.232 118.908c-.033.017-.078-.004-.136-.065a2.088 2.088 0 01-.216-.286c-.086-.13-.156-.24-.21-.327a3.831 3.831 0 01-.147-.264 7.449 7.449 0 01-.22-.51c-.1-.252-.199-.506-.296-.762a9.529 9.529 0 01-.262-.803c-.078-.28-.155-.602-.229-.967a15.608 15.608 0 01-.192-1.202 22.162 22.162 0 01-.149-3.08c.012-.55.019-1.021.023-1.417.003-.396.026-.94.068-1.633.042-.692.078-1.326.11-1.903.032-.576.06-1.169.081-1.779.023-.61.062-1.219.117-1.825.055-.607.119-1.174.19-1.7a37.3 37.3 0 00.183-1.604c.05-.542.104-1.07.16-1.585a114.244 114.244 0 00.31-3.374c.046-.598.09-1.19.13-1.778a520.857 520.857 0 01.227-3.144 21.1 21.1 0 00.059-1.282c.009-.612.064-1.597.165-2.955M68.114 150.554c.13-.336.272-.65.428-.942.104-.195.19-.354.26-.474.07-.121.212-.337.428-.648.216-.31.453-.653.71-1.028.256-.374.53-.763.821-1.168.428-.594 1.067-1.26 1.915-1.995M250.26 82.927c.017.17.071.413.163.727.092.313.178.625.26.934.081.309.153.633.215.972.063.34.119.733.168 1.179.05.446.077.9.08 1.364M250.165 82.872c-.026-.083-.166-.172-.42-.268-.253-.096-.525-.19-.814-.283a8.35 8.35 0 00-.948-.24 12.022 12.022 0 00-1.186-.164 33.365 33.365 0 00-1.57-.103 29.558 29.558 0 00-1.886-.022c-.66.013-1.361.045-2.104.098-.742.052-1.462.117-2.16.193-1.04.113-2.145.287-3.317.522M73.012 144.896c63.288 4.292 117.916-16.52 163.884-62.44M103.796 169.54a1.902 1.902 0 00-.103-.408 4.333 4.333 0 00-.226-.52 4.75 4.75 0 00-.37-.6l-.499-.696c-.18-.25-.37-.49-.57-.716-.2-.226-.425-.461-.674-.705-.25-.243-.522-.503-.82-.779a19.98 19.98 0 00-.912-.798c-.311-.256-.63-.535-.959-.837a50.974 50.974 0 00-.988-.888c-.33-.29-.677-.588-1.04-.894a16.356 16.356 0 00-1.182-.906 37.112 37.112 0 01-1.31-.96 58.611 58.611 0 00-1.373-1.022 47.154 47.154 0 01-2.93-2.3c-.505-.43-1.018-.863-1.537-1.297a33.59 33.59 0 01-1.535-1.367 30.187 30.187 0 01-1.438-1.454c-.455-.492-.87-.961-1.244-1.406a82.432 82.432 0 01-2.235-2.823" fill="none" stroke="#ff6100" stroke-width=".9069056900000001" stroke-linecap="round" stroke-linejoin="round" stroke-miterlimit="10"/><path d="M103.195 169.742c-.206-.045-.529-.152-.967-.32a51.541 51.541 0 01-1.182-.471 15.12 15.12 0 01-1.42-.712 28.427 28.427 0 00-1.337-.706c-.295-.14-.513-.246-.655-.317-.143-.071-.429-.228-.858-.47-.43-.242-.878-.475-1.345-.7-.466-.223-.953-.48-1.458-.77-.506-.29-1.015-.57-1.527-.839-.512-.27-1.04-.56-1.587-.87-.547-.312-1.086-.622-1.616-.932-.53-.31-1.05-.629-1.559-.956a34.033 34.033 0 01-1.54-1.057 60.152 60.152 0 00-1.612-1.128c-.555-.376-1.144-.777-1.766-1.203a64.6 64.6 0 00-1.963-1.29c-.687-.435-1.361-.864-2.023-1.288a57.81 57.81 0 01-1.87-1.247 18.94 18.94 0 01-1.353-1.015c-.318-.27-.579-.496-.782-.679a47.657 47.657 0 01-1.413-1.328 27.955 27.955 0 00-.76-.712 93.494 93.494 0 00-1.166-1.05c-.605-.536-1.41-1.099-2.413-1.69M81.881 148.308l.02.054c.002.004.007-.01.014-.043l.051-.222c.038-.164.07-.839.097-2.025M236.5 83.079c-.035.013.006.048.122.105.117.056.278.137.485.241.206.105.462.246.766.425.444.26 1.099.526 1.963.796" fill="none" stroke="#ff6100" stroke-width=".9069056900000001" stroke-linecap="round" stroke-linejoin="round" stroke-miterlimit="10"/><path d="M172.288 113.771c-.467.23-.944.48-1.432.748a83.142 83.142 0 01-2.477 1.314 201.174 201.174 0 01-6.115 3.027 93.379 93.379 0 00-2.833 1.4c-.631.33-1.225.635-1.78.914-.554.278-1.052.525-1.492.743-.662.328-1.292.67-1.89 1.028" fill="none" stroke="#000" stroke-width=".9069056900000001" stroke-linecap="round" stroke-linejoin="round" stroke-miterlimit="10"/><path d="M173.212 114.381c.043.081.074.214.092.399.018.185.007.383-.033.596-.04.212-.086.426-.138.64a9.92 9.92 0 01-.199.696c-.08.249-.192.563-.336.941-.144.379-.31.793-.5 1.244-.188.45-.424.925-.708 1.423a8.6 8.6 0 01-.988 1.393c-.374.43-.784.821-1.23 1.172a15.043 15.043 0 01-3.186 1.908c-.587.257-1.18.456-1.782.598-.601.142-1.236.229-1.903.259-.668.03-1.37-.001-2.109-.097a12.47 12.47 0 01-2.12-.457 13.157 13.157 0 01-1.859-.728c-.827-.404-1.819-1.068-2.975-1.993" fill="none" stroke="#000" stroke-width=".9069056900000001" stroke-linecap="round" stroke-linejoin="round" stroke-miterlimit="10"/><path d="M129.48 108.616c-.23.102-.336.14-.318.118l.17-.225M180.2 84.291l-.003.063" fill="none" stroke="#fff" stroke-width=".9069056900000001" stroke-linecap="round" stroke-linejoin="round" stroke-miterlimit="10"/><path d="M15.34 93.451c-.125-.161-.256-.422-.395-.783" fill="none" stroke="#ff6100" stroke-width=".97526907" stroke-linecap="round" stroke-linejoin="round" stroke-miterlimit="10"/><path d="M129.269 108.126c.033.034.084.043.152.027.046-.011.058-.07.035-.179a.6.6 0 00-.106-.252.296.296 0 00-.208-.106.703.703 0 00-.612.282c-.09.113-.158.245-.205.396a1.459 1.459 0 00-.06.484c.005.172.023.326.054.465a.92.92 0 00.215.403c.113.13.233.203.361.219a.743.743 0 00.386-.06c.129-.056.251-.17.367-.341.116-.172.212-.39.289-.654.077-.264.127-.534.15-.81a3.46 3.46 0 00-.016-.773c-.034-.24-.096-.427-.186-.563a.43.43 0 00-.361-.211c-.15-.005-.306.052-.466.169-.16.117-.308.268-.443.452a3.466 3.466 0 00-.338.56c-.09.188-.146.386-.17.593-.025.208-.016.433.025.676.042.243.116.455.223.636.107.182.234.304.381.368a.59.59 0 00.464.001c.162-.062.299-.207.41-.434.11-.227.189-.505.235-.834.047-.328.063-.64.05-.936a3.96 3.96 0 00-.108-.785c-.058-.228-.156-.395-.295-.5a.698.698 0 00-.468-.147.832.832 0 00-.496.207c-.158.13-.288.304-.39.52-.102.216-.17.427-.203.634-.034.207-.028.423.016.65.044.227.126.456.246.686.12.23.265.431.436.603.171.171.346.28.523.323.178.045.35.03.518-.043.168-.074.314-.219.44-.434.125-.216.207-.477.247-.782.04-.305.04-.613-.002-.925a2.961 2.961 0 00-.228-.83 1.227 1.227 0 00-.459-.548.977.977 0 00-.638-.152c-.229.024-.437.136-.624.338a1.994 1.994 0 00-.419.682 2.184 2.184 0 00-.133.778c.004.266.044.554.121.864.078.31.185.58.32.807.136.228.293.395.47.501.177.106.363.15.558.132a.895.895 0 00.543-.263c.166-.158.291-.377.377-.656a3.02 3.02 0 00.117-.95 5.83 5.83 0 00-.092-.958 1.825 1.825 0 00-.285-.717.833.833 0 00-.526-.357.807.807 0 00-.618.122 1.595 1.595 0 00-.513.57c-.144.253-.253.51-.326.77-.073.26-.094.529-.062.806.031.278.097.532.196.762.1.23.235.41.406.54a1.03 1.03 0 001.08.126c.179-.076.331-.231.458-.466.126-.234.208-.529.244-.883a5.05 5.05 0 000-1.048 3.54 3.54 0 00-.203-.901c-.1-.258-.222-.432-.368-.524-.147-.092-.35-.1-.61-.023-.261.076-.468.25-.622.52a3.27 3.27 0 00-.335.818c-.07.276-.088.563-.055.86.033.297.106.59.22.877.112.287.248.505.407.655.158.15.316.233.474.252a.749.749 0 00.46-.096c.148-.082.268-.253.357-.513.089-.26.138-.57.147-.928.01-.36-.008-.692-.052-.996a2.35 2.35 0 00-.217-.744c-.1-.191-.24-.29-.418-.296-.179-.006-.36.075-.545.244a1.97 1.97 0 00-.45.621c-.116.246-.182.49-.197.73-.015.241.005.467.06.677.054.21.138.38.253.51.114.13.23.212.35.245a.446.446 0 00.35-.05c.116-.065.208-.196.278-.394a2.43 2.43 0 00.128-.653c.015-.236.01-.453-.015-.65a1.633 1.633 0 00-.114-.46.357.357 0 00-.224-.21.46.46 0 00-.336.048c-.126.062-.232.183-.32.364-.087.18-.132.392-.135.634-.002.242.03.481.097.717.068.236.16.426.28.572.118.145.232.235.34.272a.3.3 0 00.302-.058c.092-.075.163-.221.213-.439.05-.217.077-.442.082-.674a5.864 5.864 0 00-.05-.943c-.013-.07-.044-.105-.095-.105-.051 0-.124.05-.22.148-.097.1-.19.23-.28.394-.09.163-.149.316-.178.457-.042.2.113.325.465.375M180.023 84.361c-.059-.269-.109-.427-.15-.476a.199.199 0 00-.13-.063.601.601 0 00-.19.006.292.292 0 00-.184.129.806.806 0 00-.12.326c-.025.144-.03.298-.013.464.017.166.046.315.087.448.04.133.108.233.202.302a.456.456 0 00.31.089.578.578 0 00.326-.14.807.807 0 00.237-.338c.055-.14.085-.291.09-.454a2.263 2.263 0 00-.038-.491 1.696 1.696 0 00-.13-.419.429.429 0 00-.226-.227.6.6 0 00-.31-.033.716.716 0 00-.318.132.956.956 0 00-.272.334 2.16 2.16 0 00-.25 1.04c.003.184.016.334.04.452.025.117.048.196.067.237.02.04.088.092.205.155a.67.67 0 00.39.076.818.818 0 00.4-.15.867.867 0 00.292-.37c.07-.158.111-.336.122-.533a2.94 2.94 0 00-.036-.626 1.918 1.918 0 00-.18-.58.698.698 0 00-.358-.344.958.958 0 00-.496-.06.896.896 0 00-.482.223c-.143.125-.26.28-.351.462-.09.182-.152.382-.184.597a2.5 2.5 0 00-.013.651c.025.218.07.414.135.59a.791.791 0 00.287.391c.126.086.28.117.46.092.182-.025.357-.111.524-.258.167-.147.319-.326.454-.536.136-.21.234-.428.295-.653.06-.225.08-.442.059-.65a1.91 1.91 0 00-.145-.57.993.993 0 00-.82-.593.998.998 0 00-.507.083.866.866 0 00-.4.393c-.104.19-.173.404-.207.641a2.515 2.515 0 000 .71c.033.235.097.465.19.69.094.224.218.413.372.567a.85.85 0 00.495.263c.176.023.348-.032.515-.164a1.33 1.33 0 00.395-.554c.098-.239.158-.496.18-.772a4.165 4.165 0 00-.018-.837 2.84 2.84 0 00-.166-.709.667.667 0 00-.364-.39 1.068 1.068 0 00-.576-.056 1.57 1.57 0 00-.606.221c-.186.116-.34.28-.46.493-.121.213-.195.457-.222.731-.027.274-.017.533.027.776.045.244.13.454.254.631a.938.938 0 00.445.36.78.78 0 00.526.007.818.818 0 00.442-.371 1.68 1.68 0 00.227-.64 2.58 2.58 0 00.006-.714 3.546 3.546 0 00-.158-.686 1.072 1.072 0 00-.353-.517.866.866 0 00-.513-.196.757.757 0 00-.492.158c-.147.11-.257.28-.329.507a1.9 1.9 0 00-.085.702c.015.24.05.467.102.678.053.211.14.383.264.517a.8.8 0 00.433.252 1.1 1.1 0 00.52-.022.904.904 0 00.46-.299c.126-.15.207-.33.243-.544a2.2 2.2 0 00-.002-.694 1.861 1.861 0 00-.23-.67.945.945 0 00-.457-.415 1.12 1.12 0 00-.581-.08.652.652 0 00-.468.282c-.114.161-.18.356-.2.584-.018.228-.002.464.05.707.053.243.14.461.26.655.121.193.249.34.383.44.135.098.255.155.362.168.106.012.19-.006.25-.055.059-.05.099-.153.119-.31.02-.157.024-.359.013-.604a4.7 4.7 0 00-.085-.716c-.047-.231-.115-.406-.204-.524-.09-.118-.192-.167-.31-.147-.116.02-.213.11-.292.269-.079.16-.123.33-.134.51-.016.262.113.5.387.712" fill="none" stroke="#fff" stroke-width=".97526907" stroke-linecap="round" stroke-linejoin="round" stroke-miterlimit="10"/><path d="M174.346 78.681a2.184 2.184 0 00-.39-.205 2.312 2.312 0 00-.407-.142 2.589 2.589 0 00-.509-.023 5.644 5.644 0 00-.856.096c-.328.059-.688.138-1.077.236-.39.099-.81.234-1.262.406-.45.171-.91.375-1.377.61-.467.237-.935.525-1.404.867-.47.342-.937.748-1.403 1.218-.466.47-.915.957-1.348 1.461a12.041 12.041 0 00-1.202 1.687c-.369.62-.692 1.25-.97 1.889-.278.638-.488 1.3-.63 1.987a10.863 10.863 0 00-.224 2.099c-.007.713.047 1.432.163 2.157.115.725.298 1.454.548 2.186.25.732.564 1.439.942 2.119.377.68.817 1.335 1.319 1.963a10.833 10.833 0 001.657 1.671c.602.487 1.218.903 1.847 1.25a8.807 8.807 0 002.006.801 12.52 12.52 0 002.22.373c.771.061 1.532.044 2.28-.051.748-.095 1.5-.27 2.256-.523a12.4 12.4 0 002.214-.997c.721-.412 1.406-.852 2.056-1.321a13.05 13.05 0 001.85-1.634 16.195 16.195 0 001.583-1.958c.47-.686.89-1.432 1.263-2.237.373-.806.676-1.594.91-2.364.235-.77.41-1.523.529-2.258.117-.736.16-1.424.126-2.064a11.9 11.9 0 00-.274-1.96 10.713 10.713 0 00-.648-1.972 12.595 12.595 0 00-1.009-1.86 13.396 13.396 0 00-1.331-1.705 8.063 8.063 0 00-1.721-1.415c-.65-.4-1.32-.769-2.014-1.106a7.847 7.847 0 00-2.148-.69 9.76 9.76 0 00-2.274-.105c-1.131.077-2.738.613-4.82 1.608M135.5 95.918a2.18 2.18 0 00-.39-.205 2.32 2.32 0 00-.407-.143 2.59 2.59 0 00-.509-.022 5.646 5.646 0 00-.856.096 15.54 15.54 0 00-1.077.236c-.39.099-.81.234-1.261.405-.451.172-.91.376-1.378.611-.467.236-.935.525-1.404.867-.47.342-.938.748-1.403 1.218-.466.47-.915.956-1.348 1.461a12.043 12.043 0 00-1.202 1.687c-.369.62-.692 1.25-.97 1.888-.278.639-.488 1.301-.63 1.987a10.862 10.862 0 00-.224 2.1c-.007.713.047 1.432.163 2.157.115.725.298 1.454.548 2.186.25.732.564 1.438.942 2.119.377.68.817 1.334 1.319 1.962a10.83 10.83 0 001.657 1.672c.602.486 1.218.903 1.847 1.25a8.813 8.813 0 002.006.8c.708.188 1.448.312 2.22.374.771.06 1.532.044 2.28-.051.748-.096 1.5-.27 2.256-.523a12.39 12.39 0 002.214-.998c.72-.411 1.406-.852 2.056-1.32a13.046 13.046 0 001.85-1.634 15.302 15.302 0 002.845-4.196c.373-.806.677-1.593.911-2.363.234-.77.41-1.523.529-2.259.117-.735.16-1.423.126-2.064a11.898 11.898 0 00-.274-1.96 10.71 10.71 0 00-.648-1.972 12.601 12.601 0 00-1.009-1.86 13.402 13.402 0 00-1.331-1.704 8.061 8.061 0 00-1.721-1.416 22.89 22.89 0 00-2.014-1.105 7.846 7.846 0 00-2.148-.69 9.756 9.756 0 00-2.274-.105c-1.131.077-2.738.613-4.82 1.608" fill="none" stroke="#000" stroke-width=".97526907" stroke-linecap="round" stroke-linejoin="round" stroke-miterlimit="10"/></svg>