<svg xmlns="http://www.w3.org/2000/svg" width="65.652" height="113.112"><path d="M11.296 1.932a.971.971 0 00-.066-.323.648.648 0 00-.175-.223 1.948 1.948 0 00-.336-.237 5.402 5.402 0 00-.44-.226 2.946 2.946 0 00-1.144-.26 2.31 2.31 0 00-.757.12 6.98 6.98 0 00-.903.359c-.322.152-.654.322-.997.51-.342.189-.687.403-1.034.644-.347.24-.687.502-1.02.783a19.37 19.37 0 00-.997.91c-.333.326-.646.668-.941 1.027-.295.36-.558.745-.79 1.156-.231.411-.43.83-.597 1.256a6.16 6.16 0 00-.354 1.31 7.931 7.931 0 00-.079 1.453c.016.521.103 1.053.26 1.594.158.542.38 1.14.668 1.795.287.655.63 1.289 1.027 1.903.397.613.823 1.205 1.277 1.776.454.57.926 1.08 1.416 1.529.49.449.997.823 1.522 1.122.526.299 1.07.527 1.63.684.562.158 1.018.248 1.369.273.35.024.933-.044 1.747-.203.814-.16 1.51-.388 2.088-.684a8.722 8.722 0 001.649-1.106c.52-.44 1.016-.953 1.486-1.536.47-.583.896-1.153 1.28-1.71a10.46 10.46 0 00.999-1.83c.282-.663.493-1.312.632-1.946.14-.634.216-1.288.23-1.962a8.639 8.639 0 00-.217-2.071 10.55 10.55 0 00-.62-1.93 7.472 7.472 0 00-.937-1.588 10.835 10.835 0 00-1.22-1.329 7.576 7.576 0 00-1.39-1.024 11.39 11.39 0 00-1.47-.705A7.513 7.513 0 0012.6.825a6.411 6.411 0 00-1.447-.086c-.685.04-1.47.245-2.354.616M10.617 33.844c.046-.08.019-.268-.081-.565a2.134 2.134 0 00-.187-.43c-.061-.1-.14-.203-.234-.308a3.126 3.126 0 00-.346-.325 8.899 8.899 0 00-.447-.34 2.285 2.285 0 00-2.108-.308c-.304.1-.62.259-.947.477a9.72 9.72 0 00-.869.646c-.25.211-.574.515-.968.912-.395.396-.74.807-1.038 1.231a11.876 11.876 0 00-1.391 2.64 5.98 5.98 0 00-.318 1.33c-.058.467-.085.93-.082 1.391.004.461.055.942.154 1.442.098.5.238.995.417 1.486.18.49.426.956.737 1.397.312.44.682.85 1.111 1.23.43.38.894.715 1.394 1.005.499.29 1.042.536 1.627.742.586.205 1.16.383 1.72.534.562.15 1.148.258 1.759.322.61.064 1.222.07 1.834.018a9.117 9.117 0 001.794-.336 8.746 8.746 0 001.659-.674 7.83 7.83 0 001.492-1.042 9.45 9.45 0 001.25-1.328c.36-.47.682-1.031.963-1.685.281-.654.506-1.312.674-1.975.168-.662.272-1.317.311-1.965a6.717 6.717 0 00-.125-1.831 9.286 9.286 0 00-.61-1.813 9.375 9.375 0 00-1.005-1.743 13.03 13.03 0 00-1.315-1.52 5.495 5.495 0 00-1.624-1.132 5.425 5.425 0 00-1.9-.466 9.888 9.888 0 00-2.032.081c-.68.098-1.35.239-2.01.424-.659.186-1.284.415-1.874.689-.591.273-1.125.546-1.602.818-.478.272-.835.497-1.071.674-.378.282-.605.508-.684.677M13.817 61.636c-.034-.074-.114-.158-.242-.253a1.18 1.18 0 00-.32-.158 2.08 2.08 0 00-.482-.094c-.189-.017-.399-.022-.63-.014-.231.008-.48.045-.75.111-.267.066-.563.15-.887.25-.323.102-.661.216-1.014.344a12.15 12.15 0 00-1.047.436 9.861 9.861 0 00-1.72 1.029c-.238.177-.41.31-.52.4-.108.09-.308.274-.6.554-.293.28-.586.595-.88.945-.293.35-.624.805-.992 1.367a28.46 28.46 0 00-1.018 1.67 8.228 8.228 0 00-.728 1.725 7.687 7.687 0 00-.308 1.749 6.22 6.22 0 00.16 1.74c.136.592.359 1.176.667 1.75.308.576.671 1.158 1.09 1.748.42.59.863 1.109 1.332 1.56.47.45.986.846 1.548 1.189a9.74 9.74 0 001.756.843c.608.22 1.223.367 1.845.441a13.2 13.2 0 001.893.089 8.465 8.465 0 001.928-.275c.645-.168 1.059-.286 1.24-.355.183-.07.351-.144.506-.223.155-.078.603-.396 1.343-.952.74-.556 1.198-.934 1.373-1.133.174-.199.315-.382.42-.549.106-.167.244-.409.415-.726.17-.317.396-.781.678-1.394.281-.612.503-1.167.665-1.666.162-.499.269-.848.32-1.048.053-.2.126-.61.219-1.227.092-.617.149-1.271.168-1.962.02-.691-.039-1.432-.174-2.223a9.176 9.176 0 00-.732-2.328 10.83 10.83 0 00-1.302-2.127c-.515-.657-1.07-1.157-1.667-1.5-.596-.343-1.175-.554-1.738-.634a6.164 6.164 0 00-1.598-.03c-.504.06-.978.149-1.424.266-.66.174-1.4.384-2.222.63" fill="none" stroke="#007aff" stroke-width="1.32290413" stroke-linecap="round" stroke-linejoin="round" stroke-miterlimit="10"/><path d="M24.098 11.4c-.584-.206-.86-.261-.83-.166.02.068.142.145.364.232.221.086.523.195.903.326.381.13.814.287 1.297.468.484.181 1.064.404 1.742.667.678.264 1.421.546 2.229.847a294 294 0 002.606.956c.93.337 1.906.71 2.929 1.118 1.022.409 2.102.853 3.237 1.332 1.136.48 2.242.962 3.317 1.446 1.076.485 2.118.979 3.127 1.482s2.027 1.005 3.055 1.504a62.06 62.06 0 012.96 1.537c1.4.776 2.959 1.757 4.679 2.943M24.413 38.33c-.083.01-.124-.014-.122-.073.002-.042.12-.109.355-.202.235-.092.47-.19.703-.294.234-.103.445-.205.633-.304.188-.1.42-.213.698-.342.278-.129.538-.241.779-.338.241-.096.56-.221.957-.374.396-.153.73-.287 1-.4.272-.114.7-.275 1.287-.482a97.509 97.509 0 001.8-.656l2.01-.754c.727-.271 1.45-.534 2.169-.787a61.013 61.013 0 012.116-.702c.692-.216 1.413-.438 2.163-.666.75-.228 1.461-.456 2.134-.683.673-.226 1.343-.457 2.011-.693.668-.236 1.327-.475 1.979-.718a88.407 88.407 0 012.763-.962c1.19-.397 2.02-.66 2.49-.788a10.223 10.223 0 012.167-.346M23.64 69.339c.101-.002.203-.071.306-.205.103-.135.27-.38.5-.736.232-.356.431-.654.599-.892.167-.24.36-.533.576-.883.217-.35.49-.78.818-1.294.329-.513.708-1.047 1.138-1.602.43-.554.863-1.146 1.3-1.773.437-.627.92-1.28 1.448-1.955l1.651-2.12a163.958 163.958 0 013.154-3.92 29.187 29.187 0 001.418-1.746c.344-.452.6-.78.768-.983a76.15 76.15 0 011.09-1.265c.56-.64 1.184-1.38 1.872-2.223.688-.842 1.404-1.71 2.148-2.605a96.086 96.086 0 012.322-2.688c.804-.897 1.556-1.747 2.257-2.55.701-.803 1.398-1.589 2.091-2.357.693-.769 1.368-1.511 2.025-2.228.658-.716 1.284-1.39 1.879-2.019.595-.63 1.17-1.217 1.728-1.761.556-.544 1.04-1 1.451-1.368a14.592 14.592 0 011.726-1.353" fill="none" stroke="#7ec636" stroke-width="1.51199433" stroke-linecap="round" stroke-linejoin="round" stroke-miterlimit="10"/><path d="M22.76 11.46c-.053-.09-.064-.125-.034-.106l.163.101c.086.054.2.138.341.252a17.716 17.716 0 012.19 2.095c.327.367.702.763 1.125 1.188.423.424.894.903 1.41 1.436a72.717 72.717 0 011.546 1.645c.514.563 1.06 1.16 1.637 1.787.578.629 1.15 1.275 1.718 1.938.568.664 1.143 1.329 1.727 1.996a52.326 52.326 0 011.65 1.981 59.236 59.236 0 001.647 1.99c.582.673 1.121 1.34 1.619 2.002a32.571 32.571 0 001.639 2.001 39.023 39.023 0 011.709 2.07 50.047 50.047 0 001.657 2.043 42.37 42.37 0 011.62 2.011 80.911 80.911 0 001.649 2.105c.58.718 1.138 1.42 1.671 2.104a121.62 121.62 0 001.674 2.1c.582.714 1.156 1.425 1.721 2.133.566.707 1.108 1.396 1.626 2.068.519.671.994 1.307 1.427 1.907.433.6.78 1.129 1.039 1.586.385.68.809 1.415 1.269 2.205M24.703 69.825c.315-.077.786-.232 1.41-.463.396-.147.757-.28 1.083-.397.327-.118.687-.253 1.081-.404.394-.15.836-.315 1.324-.49a34.553 34.553 0 011.63-.54c.597-.182 1.244-.376 1.94-.581a250.113 250.113 0 014.653-1.333c.853-.236 1.729-.47 2.628-.704.9-.234 1.823-.462 2.772-.686.949-.223 1.88-.446 2.796-.668.915-.222 1.831-.452 2.75-.687a422.701 422.701 0 005.172-1.37c.75-.205 1.44-.384 2.067-.537.926-.226 2.035-.46 3.326-.702M24.366 38.828c-.069-.254-.025-.365.13-.335.111.022.243.07.395.142.152.073.425.225.82.457.394.231.771.437 1.132.618a30.43 30.43 0 012.616 1.487c.477.303 1.02.626 1.626.97.607.343 1.234.709 1.882 1.095.649.386 1.323.79 2.025 1.214.7.422 1.442.86 2.222 1.312.78.452 1.445.848 1.995 1.187.55.34.952.588 1.207.744.255.157.681.402 1.279.737.597.335.982.555 1.154.66.172.105.35.208.532.31.182.1.574.307 1.178.62.603.312 1.26.677 1.967 1.094.708.418 1.235.718 1.582.9.346.181.682.354 1.007.519a94.582 94.582 0 003.263 1.55c.635.288 1.213.546 1.731.775.519.229.966.416 1.34.561a89.04 89.04 0 011.473.584" fill="none" stroke="#7ec636" stroke-width="1.51199433" stroke-linecap="round" stroke-linejoin="round" stroke-miterlimit="10"/><path d="M8.484 102.787c-.062.138-.135.21-.218.214-.058.002-.103-.152-.134-.463a6.876 6.876 0 01-.03-.944c.011-.318.076-.66.195-1.027.119-.367.27-.733.451-1.098.182-.366.379-.681.59-.947.213-.266.432-.438.66-.518.226-.08.451-.044.673.107.222.15.409.392.561.725.152.332.253.691.303 1.077.05.386.077.777.082 1.174.005.396-.016.764-.062 1.103-.047.34-.102.612-.166.818l-.112.361c-.011.036-.01.046.005.031l.148-.15c.084-.086.242-.2.475-.34.232-.14.504-.251.815-.335a4.96 4.96 0 01.999-.156c.354-.021.696.038 1.025.177.328.139.62.368.876.688.255.32.452.719.59 1.197.137.478.215.978.235 1.501.019.523-.09 1.087-.33 1.692-.238.605-.643 1.29-1.213 2.055a8.351 8.351 0 01-1.971 1.913c-.745.511-1.43.828-2.056.95-.626.121-1.147.024-1.562-.293-.592-.452-.622-1.658-.088-3.62M58.149 102.931c-.2.14-.359.101-.479-.118-.085-.155-.136-.525-.152-1.107-.017-.582.013-1.009.089-1.278a4.36 4.36 0 01.337-.833c.148-.285.309-.563.481-.832a5.02 5.02 0 01.55-.716c.195-.209.39-.356.585-.442.195-.086.384-.134.568-.142a.87.87 0 01.543.17c.177.123.348.311.512.564.165.253.31.554.437.902.127.35.236.744.326 1.184.09.44.152.965.184 1.572.033.607.027 1.247-.017 1.918a7.384 7.384 0 01-.373 1.91 13.244 13.244 0 01-.84 1.908 15.179 15.179 0 01-1.175 1.882 7.905 7.905 0 01-1.341 1.448c-.466.382-.873.645-1.22.79a2.069 2.069 0 01-1.063.148c-.362-.044-.606-.201-.73-.47-.125-.27-.182-.59-.171-.964.01-.373.128-.757.352-1.152.224-.396.5-.742.827-1.04.328-.297.65-.482.965-.553.315-.072.567.027.758.296.19.269.345.643.464 1.122.118.479.26.936.424 1.372.164.436.369.805.615 1.107.246.301.536.532.872.69.336.16.688.259 1.056.298.368.04.735.006 1.101-.1.366-.108.709-.334 1.027-.68.32-.345.585-.75.798-1.214.317-.69.557-1.463.72-2.319" fill="none" stroke="#ffd300" stroke-width=".9447237299999999" stroke-linecap="round" stroke-linejoin="round" stroke-miterlimit="10"/><path d="M25.193 105.028c.283-.092 1.016-.268 2.2-.527.699-.153 1.377-.294 2.035-.423.658-.129 1.388-.25 2.19-.361.8-.112 1.641-.2 2.52-.265a46.177 46.177 0 012.634-.116 58.5 58.5 0 012.61.017c1.261.037 2.968.219 5.119.546M47.363 104.785c.067 0 .099.035.095.104-.004.07-.073.149-.205.235a4.345 4.345 0 01-.462.26c-.176.085-.37.185-.586.3-.215.116-.476.24-.782.374-.306.135-.63.232-.97.291-.498.087-1.115.057-1.85-.09M47.564 104.576c.03.021.048.006.054-.044.006-.05-.028-.158-.1-.322a5.423 5.423 0 00-.335-.619 7.253 7.253 0 00-.533-.752 11.36 11.36 0 00-.673-.764c-.357-.371-.9-.905-1.63-1.6" fill="none" stroke="#fff" stroke-width=".9447237299999999" stroke-linecap="round" stroke-linejoin="round" stroke-miterlimit="10"/></svg>