<svg xmlns="http://www.w3.org/2000/svg" width="184.164" height="130.236"><path d="M11.296 6.35a.971.971 0 00-.066-.323.648.648 0 00-.175-.223 1.948 1.948 0 00-.336-.237 5.402 5.402 0 00-.44-.226 2.946 2.946 0 00-1.144-.26 2.31 2.31 0 00-.757.12 6.98 6.98 0 00-.903.359c-.322.152-.654.322-.997.51-.342.189-.687.403-1.034.644-.347.24-.687.502-1.02.783a19.37 19.37 0 00-.997.91c-.333.326-.646.668-.941 1.027-.295.36-.558.745-.79 1.156-.231.411-.43.83-.597 1.256a6.16 6.16 0 00-.354 1.31 7.931 7.931 0 00-.079 1.453c.016.522.103 1.053.26 1.595.158.541.38 1.14.668 1.794.287.655.63 1.289 1.027 1.903.397.613.823 1.205 1.277 1.776.454.57.926 1.08 1.416 1.529.49.449.997.823 1.522 1.122.526.299 1.07.527 1.63.684.562.158 1.018.248 1.369.273.35.024.933-.044 1.747-.203.814-.16 1.51-.387 2.088-.684a8.722 8.722 0 001.649-1.106c.521-.44 1.016-.953 1.486-1.536.47-.583.896-1.153 1.28-1.71a10.46 10.46 0 00.999-1.83c.282-.663.493-1.312.632-1.946.14-.634.216-1.288.23-1.962a8.639 8.639 0 00-.217-2.071 10.55 10.55 0 00-.62-1.93 7.472 7.472 0 00-.937-1.588 10.835 10.835 0 00-1.22-1.329 7.576 7.576 0 00-1.39-1.024 11.39 11.39 0 00-1.47-.705 7.513 7.513 0 00-1.492-.418 6.411 6.411 0 00-1.447-.086c-.685.04-1.47.245-2.354.616M10.617 38.262c.046-.08.019-.268-.081-.565a2.134 2.134 0 00-.187-.43c-.061-.1-.14-.203-.234-.308a3.126 3.126 0 00-.346-.325 8.899 8.899 0 00-.447-.34 2.285 2.285 0 00-2.108-.308c-.304.1-.62.259-.947.477a9.72 9.72 0 00-.869.646c-.25.211-.574.515-.968.912-.395.396-.74.807-1.038 1.231a11.876 11.876 0 00-1.391 2.64 5.98 5.98 0 00-.318 1.33c-.058.467-.085.93-.082 1.391.004.461.055.942.154 1.442.098.5.238.995.417 1.486.18.49.426.956.737 1.397.312.44.682.85 1.111 1.23.43.38.894.715 1.394 1.005.499.29 1.042.536 1.627.742.586.205 1.16.383 1.72.534.562.15 1.148.258 1.759.322.61.064 1.222.07 1.834.018a9.117 9.117 0 001.794-.336 8.746 8.746 0 001.659-.674 7.83 7.83 0 001.492-1.042 9.45 9.45 0 001.25-1.328c.36-.47.682-1.031.963-1.685.281-.654.506-1.312.674-1.975.168-.662.272-1.317.311-1.965a6.717 6.717 0 00-.125-1.831 9.286 9.286 0 00-.61-1.813 9.375 9.375 0 00-1.005-1.743 13.03 13.03 0 00-1.315-1.52 5.495 5.495 0 00-1.624-1.132 5.425 5.425 0 00-1.9-.466 9.888 9.888 0 00-2.032.081c-.68.098-1.35.239-2.01.424-.659.186-1.284.415-1.874.689-.591.273-1.125.546-1.602.818-.478.273-.835.497-1.071.674-.378.282-.605.508-.684.677M13.817 66.054c-.034-.074-.114-.158-.242-.253a1.18 1.18 0 00-.32-.158 2.08 2.08 0 00-.482-.094c-.189-.017-.399-.022-.63-.014-.231.008-.48.045-.75.111-.267.066-.563.15-.887.25-.323.102-.661.216-1.014.344a12.15 12.15 0 00-1.047.436 9.861 9.861 0 00-1.72 1.029c-.238.177-.41.31-.52.4-.108.09-.308.274-.6.554-.293.28-.586.595-.88.945-.293.35-.624.805-.992 1.367a28.46 28.46 0 00-1.018 1.67 8.228 8.228 0 00-.728 1.725 7.687 7.687 0 00-.308 1.748 6.22 6.22 0 00.16 1.741c.136.592.359 1.175.667 1.75.308.576.671 1.158 1.09 1.747.42.59.863 1.11 1.332 1.56.47.45.986.847 1.548 1.19a9.74 9.74 0 001.756.843c.608.22 1.223.367 1.845.441a13.2 13.2 0 001.893.089 8.465 8.465 0 001.928-.275c.645-.168 1.059-.286 1.24-.355.183-.07.351-.144.506-.223.155-.079.603-.396 1.343-.952.74-.556 1.198-.934 1.373-1.133.174-.2.315-.382.42-.55.106-.166.244-.408.415-.725.17-.317.396-.781.678-1.394.281-.612.503-1.167.665-1.666.161-.499.269-.848.32-1.048.053-.2.126-.61.219-1.227.092-.617.149-1.271.168-1.962.02-.691-.039-1.432-.174-2.223a9.176 9.176 0 00-.732-2.328 10.83 10.83 0 00-1.302-2.127c-.515-.657-1.07-1.157-1.667-1.5-.596-.343-1.175-.555-1.738-.634a6.164 6.164 0 00-1.598-.03c-.504.06-.978.149-1.424.266-.66.174-1.4.384-2.222.63M71.97 21.847c-.336-.35-.568-.572-.695-.666a2.557 2.557 0 00-.283-.181c-.1-.056-.22-.109-.361-.16a2.56 2.56 0 00-.516-.119 5.286 5.286 0 00-.727-.041c-.282 0-.593.04-.934.119-.34.078-.679.183-1.013.315a8.448 8.448 0 00-1.027.491c-.35.196-.72.45-1.107.76-.388.31-.759.668-1.114 1.074-.354.406-.68.8-.977 1.184a8.067 8.067 0 00-.799 1.264c-.235.46-.428.937-.579 1.434-.15.496-.254.973-.311 1.43a9.028 9.028 0 00-.061 1.426c.016.492.08.917.189 1.273.109.357.197.612.264.765.067.153.23.466.488.937.258.472.562.954.914 1.445.352.49.762.97 1.232 1.437.47.467.96.897 1.474 1.29a8.951 8.951 0 001.65 1c.588.274 1.203.495 1.845.663a12.52 12.52 0 001.893.345c.62.063 1.221.07 1.805.02a5.598 5.598 0 001.649-.39c.516-.21.992-.51 1.428-.9a7.73 7.73 0 001.18-1.334c.351-.5.663-1.022.936-1.568a10.38 10.38 0 00.671-1.698c.174-.587.298-1.18.37-1.781.073-.6.097-1.208.072-1.823a6.881 6.881 0 00-.32-1.813 12.617 12.617 0 00-.708-1.752 13.651 13.651 0 00-2.067-3.07 5.78 5.78 0 00-1.251-1.069 5.872 5.872 0 00-1.432-.64 7.518 7.518 0 00-3.252-.205c-.535.083-1.055.207-1.559.369a7.957 7.957 0 00-2.129 1.06M71.564 53.356a10.12 10.12 0 00-1.1-.695 2.783 2.783 0 00-.659-.27 3.579 3.579 0 00-.678-.087 3.232 3.232 0 00-.851.09c-.31.07-.62.179-.931.326a5.856 5.856 0 00-.945.572c-.319.233-.648.54-.986.918-.339.379-.66.806-.966 1.282-.305.475-.587.957-.845 1.445-.26.488-.478.994-.657 1.52a9.922 9.922 0 00-.388 1.474c-.08.457-.11.948-.089 1.474.021.525.116 1.049.285 1.572.17.523.386 1.055.65 1.597.265.541.583 1.064.956 1.569.373.504.8.96 1.281 1.365.48.406.979.762 1.493 1.067.515.305 1.07.552 1.668.739.597.187 1.214.321 1.85.402a15.4 15.4 0 001.889.123 7.49 7.49 0 001.794-.208 6.15 6.15 0 001.61-.637 5.71 5.71 0 001.32-1.034 6.859 6.859 0 001.008-1.386c.29-.52.549-1.077.777-1.67.228-.595.417-1.19.567-1.788a10.925 10.925 0 00.273-3.646 5.366 5.366 0 00-.399-1.622 4.757 4.757 0 00-.823-1.297c-.341-.381-.74-.75-1.199-1.109a14.19 14.19 0 00-1.534-1.036c-.565-.333-1.16-.64-1.784-.921a12.024 12.024 0 00-1.847-.666c-.608-.162-1.15-.243-1.63-.243-.478 0-.921.077-1.328.231-.601.228-1.24.588-1.915 1.08M131.957 36.28c-.044-.073-.141-.144-.291-.212a3.2 3.2 0 00-.403-.157 3.244 3.244 0 00-.422-.093 5.732 5.732 0 00-.586-.058 5.079 5.079 0 00-.768.023c-.283.029-.584.101-.903.218a6.81 6.81 0 00-1.016.482c-.359.204-.735.45-1.13.738-.395.288-.77.59-1.126.906-.357.315-.717.65-1.083 1a10.48 10.48 0 00-1.043 1.173c-.33.43-.616.857-.858 1.283-.242.425-.457.853-.644 1.284-.187.43-.342.9-.465 1.406a9.081 9.081 0 00-.238 1.462c-.036.468-.024.967.035 1.497a5.52 5.52 0 00.404 1.545c.211.5.481.984.81 1.452.328.468.711.93 1.148 1.384a9.56 9.56 0 001.427 1.22c.514.359 1.063.69 1.646.993.583.303 1.188.578 1.814.824a9.92 9.92 0 001.958.543 9.965 9.965 0 001.963.148 5.663 5.663 0 001.833-.358 6.771 6.771 0 001.671-.912c.523-.388.965-.766 1.327-1.134.362-.369.612-.643.75-.824.137-.18.38-.553.726-1.12.346-.566.682-1.18 1.007-1.84.325-.66.602-1.329.83-2.005.23-.676.394-1.38.494-2.114.1-.733.143-1.443.127-2.13a7.379 7.379 0 00-.315-1.986 6.035 6.035 0 00-.81-1.701 7.251 7.251 0 00-1.246-1.37 6.332 6.332 0 00-1.622-1.008 7.782 7.782 0 00-1.954-.542 13.102 13.102 0 00-4.488.124c-.773.155-1.486.314-2.138.476-.976.242-1.97.347-2.982.314" fill="none" stroke="#007aff" stroke-width="1.32290413" stroke-linecap="round" stroke-linejoin="round" stroke-miterlimit="10"/><path d="M145.046 45.789c.23-.122.457-.207.68-.256.151-.032.38-.064.689-.093.308-.03.78-.063 1.414-.1a95.51 95.51 0 014.872-.158c.949-.006 1.982-.015 3.1-.025 1.119-.01 2.366-.029 3.74-.056 1.376-.027 2.816-.044 4.322-.05 1.505-.007 3.05-.002 4.635.014 2.333.024 5.178.354 8.533.989" fill="none" stroke="#90d300" stroke-width="1.32290413" stroke-linecap="round" stroke-linejoin="round" stroke-miterlimit="10"/><path d="M24.098 15.817c-.584-.205-.86-.26-.83-.165.02.068.142.145.364.232.221.086.523.195.903.326.381.13.814.287 1.297.468.484.181 1.064.404 1.742.667.678.264 1.421.546 2.229.847a294 294 0 002.606.956c.93.337 1.906.71 2.929 1.118 1.022.409 2.102.853 3.237 1.332 1.136.48 2.242.962 3.317 1.446 1.076.485 2.118.979 3.127 1.482s2.027 1.005 3.055 1.504a62.06 62.06 0 012.96 1.537c1.4.776 2.959 1.757 4.679 2.943M24.413 42.748c-.083.01-.124-.014-.122-.073.002-.042.12-.109.355-.202.235-.092.47-.19.703-.294.234-.103.445-.205.633-.304.188-.1.42-.213.698-.342.278-.129.538-.241.779-.338.241-.096.56-.221.957-.374.396-.153.73-.287 1-.4.272-.114.7-.275 1.287-.482a97.509 97.509 0 001.8-.656l2.01-.754c.727-.271 1.45-.534 2.169-.787a61.013 61.013 0 012.116-.702c.692-.216 1.413-.438 2.163-.666.75-.228 1.461-.456 2.134-.683.673-.226 1.343-.457 2.011-.693.668-.235 1.327-.475 1.979-.718a88.407 88.407 0 012.763-.962c1.19-.397 2.02-.66 2.49-.788a10.223 10.223 0 012.167-.346M23.64 73.757c.101-.002.203-.07.306-.205.103-.135.27-.38.5-.736.232-.356.431-.653.599-.892.167-.24.36-.533.576-.883.217-.35.49-.78.818-1.294.329-.513.708-1.047 1.138-1.602.43-.554.863-1.145 1.3-1.773.437-.627.92-1.279 1.448-1.955l1.651-2.12a163.958 163.958 0 013.154-3.92 29.187 29.187 0 001.418-1.746c.344-.452.6-.78.768-.983a76.15 76.15 0 011.09-1.265c.56-.64 1.184-1.38 1.872-2.223.688-.842 1.404-1.71 2.148-2.605a96.086 96.086 0 012.322-2.688c.804-.897 1.556-1.747 2.257-2.55.701-.803 1.398-1.589 2.091-2.357.693-.769 1.368-1.511 2.025-2.228.658-.716 1.284-1.39 1.879-2.019.595-.63 1.17-1.217 1.728-1.761.556-.544 1.04-1 1.451-1.368a14.592 14.592 0 011.726-1.353" fill="none" stroke="#7ec636" stroke-width="1.51199433" stroke-linecap="round" stroke-linejoin="round" stroke-miterlimit="10"/><path d="M22.76 15.878c-.053-.09-.064-.125-.034-.106l.163.101c.086.054.2.138.341.252a17.716 17.716 0 012.19 2.095c.327.367.702.763 1.125 1.188.423.424.894.903 1.41 1.436a72.717 72.717 0 011.546 1.645c.514.563 1.06 1.16 1.637 1.787.578.629 1.15 1.275 1.718 1.938.568.664 1.143 1.329 1.727 1.996a52.326 52.326 0 011.65 1.981 59.236 59.236 0 001.647 1.99c.582.674 1.121 1.34 1.619 2.002a32.571 32.571 0 001.639 2.001 39.023 39.023 0 011.709 2.07 50.047 50.047 0 001.657 2.043 42.37 42.37 0 011.62 2.011 80.911 80.911 0 001.649 2.105c.58.718 1.138 1.42 1.671 2.104a121.62 121.62 0 001.674 2.1c.582.714 1.156 1.425 1.721 2.133.566.707 1.108 1.396 1.626 2.068.519.671.994 1.307 1.427 1.907.433.6.78 1.129 1.039 1.586.385.68.809 1.415 1.269 2.205M24.703 74.243c.315-.077.786-.232 1.41-.463.396-.147.757-.279 1.083-.397.327-.118.687-.253 1.081-.404.394-.15.836-.315 1.324-.49a34.553 34.553 0 011.63-.54c.597-.182 1.244-.376 1.94-.581a250.113 250.113 0 014.653-1.333c.853-.236 1.729-.47 2.628-.704.9-.234 1.823-.462 2.772-.686.949-.223 1.88-.446 2.796-.668.915-.222 1.831-.452 2.75-.687a422.701 422.701 0 005.172-1.37c.75-.205 1.44-.384 2.067-.537.926-.226 2.035-.46 3.326-.702M24.366 43.246c-.069-.254-.025-.365.13-.335.111.022.243.07.395.142.152.073.425.225.82.457.394.231.771.437 1.132.618a30.43 30.43 0 012.616 1.487c.477.303 1.02.626 1.626.97.607.344 1.234.709 1.882 1.095.649.386 1.323.79 2.025 1.214.7.422 1.442.86 2.222 1.312.78.452 1.445.848 1.995 1.187.55.34.952.588 1.207.744.255.157.681.402 1.279.737.597.335.982.555 1.154.66.172.105.35.208.532.31.182.1.574.307 1.178.62.603.312 1.26.677 1.967 1.094.708.418 1.235.718 1.582.9.346.181.682.354 1.007.519a94.582 94.582 0 003.263 1.55c.635.288 1.213.546 1.731.775.519.229.966.416 1.34.561a89.04 89.04 0 011.473.584M83.125 28.971c.262.187.671.398 1.23.631.557.234 1.03.446 1.42.637a108.29 108.29 0 003.165 1.484 110.558 110.558 0 014.237 2.025 280.867 280.867 0 005.004 2.459c.864.413 1.76.834 2.687 1.262a73.64 73.64 0 012.699 1.312c.871.447 1.706.872 2.506 1.276.8.404 1.562.79 2.287 1.16.726.369 1.426.746 2.1 1.131.676.385 1.313.754 1.913 1.106.6.351 1.148.668 1.646.95.498.28.91.527 1.238.74.328.212.58.387.757.525.178.139.298.246.363.322.09.106.034.168-.165.186M84.339 61.652l-.131.011c-.007 0 .001-.005.024-.018l.24-.134c.139-.077.436-.228.893-.454.456-.227.876-.44 1.259-.642a38.25 38.25 0 011.406-.696 136.65 136.65 0 011.742-.809c.607-.277 1.29-.572 2.052-.885.762-.313 1.552-.642 2.37-.985a209.37 209.37 0 012.637-1.084c.939-.379 1.885-.758 2.84-1.137.955-.378 1.899-.745 2.832-1.1.933-.355 1.854-.694 2.765-1.02.91-.324 1.772-.638 2.583-.94.81-.302 1.59-.584 2.335-.844.746-.26 1.442-.496 2.088-.707a49.97 49.97 0 012.258-.668c.86-.235 1.403-.379 1.629-.43.225-.052.419-.089.58-.11l.35-.049" fill="none" stroke="#7ec636" stroke-width="1.51199433" stroke-linecap="round" stroke-linejoin="round" stroke-miterlimit="10"/><path d="M61.473.756c.01.545.026.985.046 1.318.02.329.04.954.062 1.876M61.597 9.154c0 .482-.051 1.537-.153 3.166M61.407 17.437c0 .335.015.735.044 1.202.045.712.098 1.342.158 1.892M61.47 25.228c-.07.03-.115.118-.134.261-.027.205-.04 1.246-.04 3.122M61.229 33.236c-.05.11-.058.356-.025.735.049.553.054 1.397.016 2.531M61.113 41.448c0 .28-.008.637-.025 1.073l-.095 2.428M61.256 50.132a8.757 8.757 0 00-.039.943c0 .378.025.97.073 1.774M61.513 57.698c-.055-.055-.09-.037-.104.055-.015.092-.02.32-.018.684.003.364.02.673.052.925.047.368.165.9.356 1.594M61.8 65.606c-.063.068-.103.204-.12.408-.011.131-.017.39-.018.773-.002.574.016 1.17.054 1.786M61.712 74.214c-.033.41-.049.826-.046 1.246.004.623.078 1.315.221 2.076M61.347 82.852c-.068.129-.113.325-.135.587-.014.17-.03.412-.047.729-.017.316-.031.685-.042 1.105-.017.621.005 1.36.066 2.215M121.61 85.801a6.096 6.096 0 01-.052-.7c0-.13.01-.436.029-.916.03-.743.107-1.326.228-1.75M121.702 76.794l-.014.05a613.896 613.896 0 01-.01-.28c-.008-.218.007-.941.045-2.168M121.59 69.555l-.022.06a.67.67 0 01-.003-.079l-.008-.627c-.008-.532.001-1.23.025-2.095M121.701 60.625a3.612 3.612 0 01-.13-.627c-.025-.183-.049-.42-.07-.714a14.76 14.76 0 01-.017-1.568M120.834 51.419a.638.638 0 01-.119-.339 9.585 9.585 0 01-.028-.72c-.006-.495.055-1.112.183-1.85M120.737 40.328a2.624 2.624 0 01-.062-.421 13.27 13.27 0 01-.021-.68 29.922 29.922 0 00-.027-.952c-.022-.489-.08-.992-.175-1.507M120.555 30.317c-.005-.58-.003-1.018.008-1.312.01-.295.058-.696.143-1.202M121.075 21.196c-.046-.146-.07-.49-.07-1.032-.002-.843.043-1.504.136-1.983M121.508 12.406a9.7 9.7 0 01-.023-.822c0-.407.008-.752.025-1.037.025-.422.096-.893.213-1.413M121.706 5.704a9.231 9.231 0 01-.043-1.125c.009-.335.11-1.064.3-2.186M182.427 2.022c-.028 1.041.013 1.786.124 2.236M182.753 10.146c-.02.282-.021.731-.005 1.346.016.57.024 1.288.025 2.158M182.997 18.986a4.353 4.353 0 00-.066.852c0 .532.04 1.15.121 1.854M182.91 26.538c-.036 1.216.006 2.112.125 2.69M182.965 35.127c.049.198.074.714.075 1.548.002.739.04 1.49.116 2.255M183.158 44.208c-.038.152-.052.53-.041 1.135.01.527.038 1.274.088 2.242M183.028 53.741c-.068.393-.025 1.35.13 2.872M182.96 62.374c-.012.398-.006.741.018 1.028.017.195.037.4.062.614.037.314.112.744.226 1.292M183.282 72.885c0 .36.014.726.042 1.097.041.55.069 1.161.084 1.835M183.173 83.064c-.066.322-.075 1.374-.024 3.156" fill="none" stroke="#ffd300" stroke-width="1.51199433" stroke-linecap="round" stroke-linejoin="round" stroke-miterlimit="10"/><path d="M32.63 119.084c-.062.138-.134.21-.218.214-.058.003-.102-.152-.134-.463a6.874 6.874 0 01-.03-.944c.012-.318.077-.66.195-1.027a7.97 7.97 0 01.451-1.098 5.32 5.32 0 01.591-.947c.212-.266.431-.438.659-.518.227-.08.451-.044.673.107.222.15.41.392.561.725.152.332.253.692.303 1.077.05.386.077.777.082 1.174.006.396-.015.764-.062 1.104-.046.339-.102.611-.165.817l-.113.361c-.01.036-.009.046.005.031l.148-.15c.084-.086.242-.2.475-.34.233-.14.505-.251.816-.335.31-.083.643-.135.998-.156a2.26 2.26 0 011.025.177c.329.139.62.368.876.688.256.32.452.719.59 1.197.137.478.216.978.235 1.501.02.523-.09 1.087-.329 1.692-.239.605-.643 1.29-1.213 2.055a8.349 8.349 0 01-1.972 1.914c-.744.51-1.43.827-2.056.949-.626.121-1.147.024-1.562-.293-.592-.451-.621-1.658-.088-3.62M87.815 119.419c-.199.14-.358.1-.478-.118-.086-.156-.136-.525-.153-1.107-.016-.583.013-1.01.09-1.279.075-.27.187-.547.336-.833.149-.285.31-.562.482-.831.172-.27.356-.508.55-.717.194-.208.389-.355.584-.441a1.59 1.59 0 01.569-.143.87.87 0 01.542.171c.177.123.348.31.513.563.164.253.31.554.437.903s.235.744.325 1.184c.09.44.152.964.184 1.572.033.607.027 1.246-.016 1.918a7.38 7.38 0 01-.373 1.91 13.248 13.248 0 01-.84 1.908 15.178 15.178 0 01-1.176 1.882 7.903 7.903 0 01-1.34 1.448c-.467.382-.873.645-1.22.789a2.069 2.069 0 01-1.064.149c-.362-.045-.606-.202-.73-.47-.125-.27-.182-.59-.17-.964.01-.373.128-.758.351-1.153.224-.395.5-.741.828-1.04.328-.297.65-.481.964-.553.315-.071.568.028.758.297.19.268.345.642.464 1.121.119.48.26.937.424 1.373.164.435.369.804.615 1.106.246.302.537.532.872.691.336.159.688.258 1.056.298.369.04.736.006 1.102-.101.366-.107.708-.333 1.027-.679a4.62 4.62 0 00.797-1.215c.317-.69.557-1.462.72-2.318" fill="none" stroke="#ffd300" stroke-width=".9447237299999999" stroke-linecap="round" stroke-linejoin="round" stroke-miterlimit="10"/><path d="M51.434 122.658c.283-.093 1.016-.269 2.199-.527.699-.153 1.377-.294 2.035-.423a41.01 41.01 0 012.19-.362c.801-.112 1.641-.2 2.52-.264a46.18 46.18 0 012.634-.117 58.5 58.5 0 012.61.017c1.262.037 2.968.22 5.119.547M73.603 122.414c.068 0 .099.035.095.105-.004.07-.072.148-.205.235a4.352 4.352 0 01-.462.259c-.175.085-.37.186-.586.3-.215.116-.476.24-.782.375-.306.134-.63.231-.969.29-.499.088-1.116.058-1.85-.089M73.804 122.205c.03.021.048.007.054-.044.006-.05-.027-.157-.1-.322a5.435 5.435 0 00-.335-.618 7.265 7.265 0 00-.533-.753 11.376 11.376 0 00-.673-.763c-.357-.372-.9-.905-1.63-1.601M109.757 123.407c.283-.092 1.016-.268 2.2-.527.698-.153 1.377-.294 2.035-.423.658-.129 1.387-.25 2.189-.361.802-.113 1.642-.2 2.52-.265a46.11 46.11 0 012.635-.116 58.5 58.5 0 012.609.017c1.262.036 2.969.219 5.12.546M131.927 123.164c.067 0 .099.035.095.104-.005.07-.073.149-.206.235a4.343 4.343 0 01-.462.26c-.175.085-.37.185-.585.3-.216.115-.476.24-.783.374-.306.135-.629.231-.968.29-.5.088-1.116.058-1.85-.088M132.128 122.955c.03.02.048.006.053-.044.006-.05-.027-.158-.099-.322a5.425 5.425 0 00-.336-.619 7.253 7.253 0 00-.533-.753 11.376 11.376 0 00-.672-.763c-.357-.371-.9-.905-1.63-1.6" fill="none" stroke="#fff" stroke-width=".9447237299999999" stroke-linecap="round" stroke-linejoin="round" stroke-miterlimit="10"/><path d="M151.205 114.94c-.02.064-.027.634-.02 1.712.004.57.012 1.217.024 1.938.013.72.026 1.817.04 3.289.013 1.472.026 2.603.039 3.394.018 1.162.09 2.659.214 4.49" fill="none" stroke="#ffd300" stroke-width=".9447237299999999" stroke-linecap="round" stroke-linejoin="round" stroke-miterlimit="10"/></svg>