<svg xmlns="http://www.w3.org/2000/svg" width="121.783" height="81.722"><path d="M72.988 1.932a.971.971 0 00-.066-.323.648.648 0 00-.175-.223 1.948 1.948 0 00-.336-.237 5.402 5.402 0 00-.44-.226 2.946 2.946 0 00-1.143-.26 2.31 2.31 0 00-.757.12 6.98 6.98 0 00-.904.359c-.321.152-.654.322-.996.51-.343.189-.688.403-1.035.644-.347.24-.687.502-1.019.783a19.37 19.37 0 00-.997.91c-.333.326-.647.668-.942 1.027-.294.36-.557.745-.789 1.156-.232.411-.43.83-.598 1.256a6.16 6.16 0 00-.353 1.31 7.931 7.931 0 00-.08 1.453c.017.521.104 1.053.261 1.594.158.542.38 1.14.667 1.795.287.655.63 1.289 1.027 1.903.398.613.824 1.205 1.278 1.776.454.57.925 1.08 1.415 1.529.49.449.997.823 1.523 1.122.525.299 1.069.527 1.63.684.561.158 1.017.248 1.368.273.35.024.933-.044 1.747-.203.815-.16 1.51-.388 2.088-.684a8.722 8.722 0 001.65-1.106c.52-.44 1.016-.953 1.485-1.536.47-.583.896-1.153 1.28-1.71a10.46 10.46 0 001-1.83c.282-.663.493-1.312.632-1.946.139-.634.215-1.288.229-1.962a8.639 8.639 0 00-.217-2.071 10.55 10.55 0 00-.619-1.93 7.472 7.472 0 00-.938-1.588 10.835 10.835 0 00-1.219-1.329 7.576 7.576 0 00-1.39-1.024 11.39 11.39 0 00-1.47-.705 7.513 7.513 0 00-1.493-.418 6.411 6.411 0 00-1.447-.086c-.685.04-1.47.245-2.354.616M72.31 33.844c.045-.08.018-.268-.082-.565a2.134 2.134 0 00-.186-.43c-.062-.1-.14-.203-.235-.308a3.126 3.126 0 00-.346-.325 8.899 8.899 0 00-.446-.34 2.285 2.285 0 00-2.108-.308c-.304.1-.62.259-.948.477a9.72 9.72 0 00-.868.646c-.251.211-.574.515-.969.912-.395.396-.74.807-1.037 1.231a11.876 11.876 0 00-1.392 2.64 5.98 5.98 0 00-.318 1.33c-.058.467-.085.93-.081 1.391.003.461.054.942.153 1.442s.238.995.418 1.486c.18.49.425.956.737 1.397.311.44.682.85 1.11 1.23.43.38.894.715 1.394 1.005.5.29 1.042.536 1.628.742.585.205 1.159.383 1.72.534.561.15 1.147.258 1.758.322s1.223.07 1.835.018a9.117 9.117 0 001.794-.336 8.746 8.746 0 001.658-.674 7.83 7.83 0 001.492-1.042 9.45 9.45 0 001.25-1.328c.36-.47.682-1.031.963-1.685.281-.654.506-1.312.674-1.975.168-.662.272-1.317.312-1.965a6.717 6.717 0 00-.126-1.831 9.286 9.286 0 00-.61-1.813 9.375 9.375 0 00-1.005-1.743 13.03 13.03 0 00-1.314-1.52 5.495 5.495 0 00-1.624-1.132 5.425 5.425 0 00-1.901-.466 9.888 9.888 0 00-2.032.081c-.68.098-1.35.239-2.01.424-.658.186-1.283.415-1.874.689-.59.273-1.125.546-1.602.818-.477.272-.834.497-1.07.674-.378.282-.606.508-.684.677M75.51 61.636c-.034-.074-.115-.158-.242-.253a1.18 1.18 0 00-.32-.158 2.08 2.08 0 00-.482-.094c-.19-.017-.4-.022-.63-.014-.232.008-.481.045-.75.111-.268.066-.564.15-.887.25-.324.102-.662.216-1.015.344a12.15 12.15 0 00-1.047.436 9.861 9.861 0 00-1.72 1.029c-.237.177-.41.31-.519.4-.109.09-.31.274-.601.554-.293.28-.585.595-.879.945-.293.35-.624.805-.993 1.367a28.46 28.46 0 00-1.018 1.67 8.228 8.228 0 00-.728 1.725 7.687 7.687 0 00-.308 1.749 6.22 6.22 0 00.16 1.74c.137.592.36 1.175.667 1.75.308.576.672 1.158 1.09 1.748.42.59.864 1.109 1.333 1.56.469.45.985.846 1.548 1.189a9.74 9.74 0 001.756.843c.608.22 1.223.367 1.845.441a13.2 13.2 0 001.893.089 8.465 8.465 0 001.927-.275c.645-.168 1.059-.286 1.241-.355.182-.07.35-.144.506-.223.155-.078.602-.396 1.343-.952.74-.556 1.197-.934 1.372-1.133.175-.199.315-.382.42-.549.107-.167.245-.409.415-.726.17-.317.397-.781.678-1.394.282-.612.503-1.167.665-1.666.162-.499.269-.848.321-1.048.053-.2.125-.61.218-1.227.093-.617.149-1.271.168-1.962.02-.691-.038-1.432-.173-2.223a9.176 9.176 0 00-.732-2.328 10.83 10.83 0 00-1.302-2.127c-.515-.657-1.071-1.157-1.667-1.5-.597-.343-1.176-.554-1.738-.634a6.164 6.164 0 00-1.6-.03c-.503.06-.977.149-1.422.266-.66.174-1.402.384-2.222.63" fill="none" stroke="#007aff" stroke-width="1.32290413" stroke-linecap="round" stroke-linejoin="round" stroke-miterlimit="10"/><path d="M85.79 11.4c-.584-.206-.86-.261-.83-.166.021.068.142.145.364.232.222.086.523.195.904.326.38.13.813.287 1.296.468.484.181 1.065.404 1.743.667.678.264 1.42.546 2.228.847a294 294 0 002.606.956c.93.337 1.907.71 2.93 1.118 1.022.409 2.101.853 3.237 1.332 1.135.48 2.241.962 3.317 1.446 1.076.485 2.118.979 3.126 1.482 1.01.503 2.027 1.005 3.055 1.504a62.06 62.06 0 012.96 1.537c1.4.776 2.96 1.757 4.679 2.943M86.106 38.33c-.084.01-.125-.014-.123-.073.002-.042.12-.109.355-.202.236-.092.47-.19.704-.294.233-.103.444-.205.632-.304.188-.1.421-.213.699-.342.278-.129.537-.241.778-.338.241-.096.56-.221.957-.374.397-.153.73-.287 1.001-.4.271-.114.7-.275 1.286-.482a97.509 97.509 0 001.8-.656l2.011-.754c.727-.271 1.45-.534 2.168-.787a61.013 61.013 0 012.116-.702c.692-.216 1.413-.438 2.163-.666.75-.228 1.462-.456 2.135-.683.672-.226 1.343-.457 2.01-.693.668-.236 1.328-.475 1.98-.718a88.407 88.407 0 012.762-.962c1.191-.397 2.02-.66 2.49-.788a10.223 10.223 0 012.167-.346M85.333 69.339c.1-.002.203-.071.306-.205.103-.135.27-.38.5-.736.231-.356.43-.654.598-.892.167-.24.36-.533.577-.883.217-.35.49-.78.818-1.294.328-.513.707-1.047 1.137-1.602.43-.554.864-1.146 1.3-1.773.438-.627.92-1.28 1.448-1.955l1.651-2.12a163.958 163.958 0 013.154-3.92 29.187 29.187 0 001.418-1.746c.344-.452.6-.78.768-.983a76.15 76.15 0 011.091-1.265c.56-.64 1.183-1.38 1.871-2.223.689-.842 1.405-1.71 2.149-2.605a96.086 96.086 0 012.322-2.688c.803-.897 1.556-1.747 2.257-2.55.7-.803 1.398-1.589 2.09-2.357.693-.769 1.368-1.511 2.026-2.228.657-.716 1.283-1.39 1.878-2.019.595-.63 1.171-1.217 1.728-1.761.557-.544 1.04-1 1.452-1.368a14.592 14.592 0 011.726-1.353" fill="none" stroke="#7ec636" stroke-width="1.51199433" stroke-linecap="round" stroke-linejoin="round" stroke-miterlimit="10"/><path d="M84.452 11.46c-.053-.09-.064-.125-.034-.106l.163.101c.087.054.2.138.342.252a17.716 17.716 0 012.19 2.095c.326.367.701.763 1.125 1.188.423.424.893.903 1.41 1.436a72.717 72.717 0 011.545 1.645c.514.563 1.06 1.16 1.638 1.787.577.629 1.15 1.275 1.718 1.938.567.664 1.143 1.329 1.726 1.996a52.326 52.326 0 011.65 1.981 59.236 59.236 0 001.648 1.99c.581.673 1.12 1.34 1.618 2.002a32.571 32.571 0 001.64 2.001 39.023 39.023 0 011.708 2.07 50.047 50.047 0 001.658 2.043 42.37 42.37 0 011.62 2.011 80.911 80.911 0 001.648 2.105c.581.718 1.138 1.42 1.671 2.104a121.62 121.62 0 001.674 2.1c.583.714 1.157 1.425 1.722 2.133.565.707 1.107 1.396 1.626 2.068.518.671.994 1.307 1.426 1.907.433.6.78 1.129 1.039 1.586.386.68.809 1.415 1.269 2.205M86.395 69.825c.316-.077.786-.232 1.41-.463.396-.147.757-.28 1.083-.397.327-.118.687-.253 1.082-.404.394-.15.835-.315 1.323-.49a34.553 34.553 0 011.63-.54c.598-.182 1.245-.376 1.94-.581a250.113 250.113 0 014.653-1.333c.853-.236 1.73-.47 2.628-.704.9-.234 1.823-.462 2.772-.686.95-.223 1.881-.446 2.796-.668.915-.222 1.832-.452 2.75-.687a422.701 422.701 0 005.172-1.37c.751-.205 1.44-.384 2.068-.537.926-.226 2.034-.46 3.325-.702M86.058 38.828c-.068-.254-.025-.365.13-.335.112.022.243.07.395.142.152.073.425.225.82.457.394.231.771.437 1.132.618a30.43 30.43 0 012.616 1.487c.478.303 1.02.626 1.627.97.606.343 1.234.709 1.882 1.095.648.386 1.323.79 2.024 1.214.701.422 1.442.86 2.222 1.312.78.452 1.445.848 1.995 1.187.55.34.952.588 1.207.744.255.157.682.402 1.279.737.597.335.982.555 1.155.66.172.105.349.208.531.31.182.1.575.307 1.178.62.604.312 1.26.677 1.967 1.094.708.418 1.235.718 1.582.9.346.181.682.354 1.007.519a94.582 94.582 0 003.263 1.55c.636.288 1.213.546 1.732.775.518.229.965.416 1.34.561a89.04 89.04 0 011.472.584" fill="none" stroke="#7ec636" stroke-width="1.51199433" stroke-linecap="round" stroke-linejoin="round" stroke-miterlimit="10"/><path d="M50.175 25.219a28.113 28.113 0 012.312.048M57.27 25.266c.073-.043.23-.064.472-.064.216 0 .691.034 1.425.103M63.98 25.075c-.032-.045-.012-.076.061-.092.053-.012.216-.016.489-.013.412.005.782.06 1.11.163M69.72 25.01a72.533 72.533 0 011.94-.052M75.968 24.715c.312-.015.603-.019.874-.012.263.007.75.044 1.462.112M82.524 24.496c.004-.052.061-.084.171-.095.157-.017.837.003 2.039.06M88.116 23.992a23.66 23.66 0 012.282-.03M49.878 56.445a28.113 28.113 0 012.312.05M56.973 56.493c.072-.043.23-.064.471-.064.217 0 .692.034 1.425.103M63.682 56.302c-.032-.045-.011-.076.061-.092.053-.012.216-.016.49-.013.412.005.782.06 1.11.163M69.422 56.238a72.533 72.533 0 011.94-.053M75.67 55.942c.312-.015.603-.019.874-.012.263.007.75.044 1.462.112M82.226 55.723c.004-.052.061-.084.172-.096.157-.016.836.004 2.038.06M87.818 55.219a23.66 23.66 0 012.282-.03M45.675 56.878c-.057.08-.209.12-.455.123a8.187 8.187 0 01-1.257-.1M39.462 57.315c-.433.074-1.365.004-2.794-.207M46.597 25.446c-.188.12-.415.202-.681.245-.385.061-1.142.03-2.27-.096M39.29 25.877c.13.127.176.22.141.28-.024.04-.088.069-.191.083a3.418 3.418 0 01-.428.025c-.261.002-.832-.138-1.712-.42" fill="none" stroke="#ffd300" stroke-width="1.51199433" stroke-linecap="round" stroke-linejoin="round" stroke-miterlimit="10"/><path d="M38.154 5.745a.696.696 0 00-.234-.064 6.813 6.813 0 00-.645-.027 20.53 20.53 0 00-.812.003c-.215.006-.335.032-.361.076a.549.549 0 00-.056.2c-.011.089-.018.443-.02 1.064-.002.62.001 1.03.009 1.232.007.201.018.413.032.633.014.221.033.563.056 1.024.024.462.044.812.06 1.05a34.93 34.93 0 01.081 1.96c.002.202.015.514.038.939.022.424.034.764.034 1.02 0 .257-.001.422-.006.495a1.424 1.424 0 01-.028.212 1.886 1.886 0 01-.097.289c-.05.124-.057.192-.021.206.035.014.257.018.665.013.408-.005.78-.007 1.115-.007.52 0 .944.017 1.272.048" fill="none" stroke="#fff" stroke-width=".9534509699999999" stroke-linecap="round" stroke-linejoin="round" stroke-miterlimit="10"/><path d="M43.036 16.408c.064.02.387.03.969.03.582.002 1.117.025 1.604.069M45.807 16.118c.008-.226.013-.467.013-.721a55.981 55.981 0 00-.04-1.97 94.221 94.221 0 01-.029-.853 13.254 13.254 0 00-.074-1.116c-.02-.184-.039-.374-.056-.571-.017-.198-.03-.41-.04-.64a51.302 51.302 0 01-.044-1.422 172.17 172.17 0 01-.005-2.315M42.337 5.85l-.041-.005h.003l.08.002c.05.001.107.008.171.02.064.013.167.03.31.048.141.019.392.037.753.054.36.018.64.044.837.078.293.051.617.128.972.231" fill="none" stroke="#fff" stroke-width="1.08945046" stroke-linecap="round" stroke-linejoin="round" stroke-miterlimit="10"/><path d="M40.949 9.786a.675.675 0 01.025-.317c.022-.058.002-.115-.061-.173a.741.741 0 00-.191-.13.835.835 0 00-.225-.063 2.067 2.067 0 00-.276-.02 1.109 1.109 0 00-.288.033.88.88 0 00-.264.115.797.797 0 00-.212.2 1.17 1.17 0 00-.151.295 2.153 2.153 0 00-.098.407 4.627 4.627 0 00-.046.522c-.007.194-.01.395-.008.605a3.491 3.491 0 00.207 1.175c.064.18.143.338.236.477.094.138.197.255.31.35a1.548 1.548 0 00.75.349c.134.02.263.028.387.022a.653.653 0 00.35-.12 1.43 1.43 0 00.31-.303c.098-.125.185-.257.263-.395.077-.137.136-.284.178-.44.042-.157.068-.324.08-.502.011-.177.016-.37.015-.578a3.535 3.535 0 00-.057-.611 5.366 5.366 0 00-.313-1.052 1.634 1.634 0 00-.187-.342.851.851 0 00-.215-.208c-.11-.072-.313-.13-.607-.172" fill="none" stroke="#007aff" stroke-width="1.1338139299999999" stroke-linecap="round" stroke-linejoin="round" stroke-miterlimit="10"/><path d="M37.222 36.591a.696.696 0 00-.234-.064 6.813 6.813 0 00-.645-.027 20.53 20.53 0 00-.812.003c-.215.006-.335.032-.361.076a.55.55 0 00-.056.2c-.011.089-.018.443-.02 1.064-.002.62.001 1.03.009 1.232.007.201.018.412.032.633.014.221.033.562.056 1.024.024.462.044.812.06 1.05a34.93 34.93 0 01.081 1.96c.003.201.015.514.038.939.023.424.034.764.034 1.02 0 .257-.001.421-.006.495a1.335 1.335 0 01-.028.212 1.88 1.88 0 01-.097.289c-.05.124-.057.192-.021.206.035.014.257.018.665.013.408-.005.78-.007 1.116-.007.519 0 .943.017 1.272.048" fill="none" stroke="#fff" stroke-width=".9534509699999999" stroke-linecap="round" stroke-linejoin="round" stroke-miterlimit="10"/><path d="M42.104 47.254c.064.019.387.03.969.03a18.59 18.59 0 011.604.068M44.875 46.964c.008-.226.013-.467.013-.722a55.999 55.999 0 00-.04-1.97 93.648 93.648 0 01-.029-.852 15.67 15.67 0 00-.074-1.116c-.02-.184-.039-.374-.056-.571a14.97 14.97 0 01-.04-.64 51.303 51.303 0 01-.044-1.422 172.17 172.17 0 01-.005-2.315M41.405 36.695c-.026-.002-.04-.005-.041-.005h.003l.08.003c.05.001.107.008.171.02.064.013.167.03.31.048.141.019.392.037.753.054.36.018.64.043.837.078.293.051.617.128.972.231" fill="none" stroke="#fff" stroke-width="1.08945046" stroke-linecap="round" stroke-linejoin="round" stroke-miterlimit="10"/><path d="M37.37 65.484a.695.695 0 00-.234-.064 6.866 6.866 0 00-.645-.027 20.53 20.53 0 00-.811.003c-.215.006-.336.032-.361.076a.55.55 0 00-.056.2c-.011.089-.018.443-.02 1.063-.002.62 0 1.032.008 1.233.008.201.019.412.033.633.013.221.032.562.056 1.024.023.462.043.812.06 1.05a36.043 36.043 0 01.08 1.96c.003.201.016.514.038.939.023.424.034.764.035 1.02 0 .257-.002.421-.006.495a1.434 1.434 0 01-.028.212 1.901 1.901 0 01-.097.289c-.05.124-.057.192-.022.206.036.014.258.018.665.013.408-.005.78-.008 1.116-.007.52 0 .943.017 1.272.048" fill="none" stroke="#fff" stroke-width=".9534509699999999" stroke-linecap="round" stroke-linejoin="round" stroke-miterlimit="10"/><path d="M42.253 76.147c.063.019.386.03.968.03.582.002 1.117.025 1.605.069M45.024 75.857c.008-.226.012-.467.013-.721a55.981 55.981 0 00-.04-1.97 94.124 94.124 0 01-.03-.853 13.254 13.254 0 00-.074-1.116c-.02-.184-.038-.374-.055-.571-.018-.198-.031-.41-.041-.64a52.48 52.48 0 01-.043-1.422 170.88 170.88 0 01-.006-2.315M41.554 65.589l-.042-.006h.004l.08.003c.05.001.107.008.17.02.065.013.168.03.31.048.142.019.393.037.753.054s.64.043.837.078c.294.051.618.128.972.231" fill="none" stroke="#fff" stroke-width="1.08945046" stroke-linecap="round" stroke-linejoin="round" stroke-miterlimit="10"/><path d="M39.937 39.732a7.223 7.223 0 00-.136 1.45c0 .177.003.368.01.57.006.204.02.418.043.643a8.35 8.35 0 01.034 1.171c-.013.143-.003.62.031 1.433M39.066 69.046c-.072.043-.113.01-.122-.097-.01-.107 0-.223.026-.348.026-.125.065-.23.115-.315a1.422 1.422 0 01.404-.438c.083-.06.146-.101.189-.123.043-.022.126-.047.249-.075.122-.028.221-.042.296-.042.075 0 .14.022.196.068a.665.665 0 01.156.2c.047.088.09.243.126.467.037.223.056.46.059.713.002.252-.013.486-.047.702a5.46 5.46 0 01-.114.558 2.93 2.93 0 01-.167.462c-.07.153-.156.311-.26.476a8.676 8.676 0 01-.355.518c-.133.18-.271.35-.415.507a6.244 6.244 0 01-.376.385 2.235 2.235 0 01-.327.252c-.112.07-.204.114-.276.132-.071.019-.105.01-.099-.026.006-.037.034-.082.086-.136a.905.905 0 01.192-.15.703.703 0 01.266-.092.842.842 0 01.294.01c.097.02.19.069.283.148.092.08.184.177.278.294.093.116.188.228.285.334.096.105.197.197.303.275.106.078.207.134.302.168.095.035.187.055.276.06a.492.492 0 00.26-.055c.12-.061.362-.257.725-.587" fill="none" stroke="#007aff" stroke-width="1.1338139299999999" stroke-linecap="round" stroke-linejoin="round" stroke-miterlimit="10"/><path d="M1.236 10.703c.041-.23.1-.494.174-.795a13.594 13.594 0 00.306-1.57 16.132 16.132 0 00.165-1.777c.008-.259.01-.459.005-.6-.005-.141-.02-.231-.047-.27-.026-.038-.06-.043-.098-.016-.04.028-.082.142-.13.343-.046.2-.078.459-.096.775-.017.317-.017.665 0 1.044.019.38.058.81.12 1.292.062.481.17 1.1.322 1.855.152.755.257 1.224.315 1.406.058.182.107.296.149.343.041.047.074.013.097-.1.024-.114.043-.32.058-.618.015-.299.042-.606.082-.923a7.89 7.89 0 01.204-1.019c.095-.362.204-.707.327-1.035.122-.328.248-.596.376-.802.128-.207.248-.352.36-.435.112-.084.215-.116.311-.098.096.018.175.096.237.232.063.137.108.338.137.603.028.264.046.574.053.929.008.354.022.715.042 1.08.02.367.06.72.12 1.06.06.341.143.61.25.805.107.196.233.315.376.356.144.04.282.006.415-.103.132-.11.239-.302.32-.578.08-.276.129-.507.144-.694.016-.187.024-.327.026-.421a.665.665 0 00-.041-.253c-.043-.111-.104-.186-.183-.224M8.16 10.343H8.08c-.002 0 0-.001.004-.003l.134-.058a.838.838 0 00.262-.195c.09-.093.176-.217.26-.37.083-.155.15-.328.202-.52.053-.192.083-.37.093-.533.01-.164.007-.285-.008-.364-.016-.079-.082-.14-.2-.181a.674.674 0 00-.422.01c-.164.05-.334.145-.51.288a2.381 2.381 0 00-.46.499 2.893 2.893 0 00-.493 1.316c-.033.253-.04.533-.021.838.018.305.082.607.19.905.108.298.254.556.439.774.184.219.397.371.637.458.24.086.48.102.718.045.239-.056.456-.198.651-.425.196-.228.35-.48.464-.756.175-.429.283-.779.323-1.05M11.505 8.75c.02-.184.009-.345-.032-.482-.027-.093-.054-.148-.08-.164-.027-.016-.062-.018-.106-.005-.043.013-.091.074-.144.184-.053.11-.1.28-.14.507a5.658 5.658 0 00-.076.829c-.009.324.008.662.05 1.012.043.351.132.707.266 1.068.135.361.299.662.493.903.194.242.398.404.61.489a.899.899 0 00.637.02c.213-.071.4-.26.564-.566.163-.306.272-.656.327-1.049a10.2 10.2 0 00.098-1.028 4.832 4.832 0 00-.164-1.38M16.42 12.89v.131l-.002-.005-.032-.164c-.02-.103-.059-.269-.114-.495a73.14 73.14 0 00-.19-.75c-.07-.274-.133-.55-.191-.831a17.414 17.414 0 01-.248-1.626 6.131 6.131 0 01-.032-.52c-.003-.153.031-.263.101-.33.07-.066.29-.125.658-.178.368-.053.665-.09.89-.112.328-.033.847-.04 1.555-.02M21.463 9.12c.056-.015.086-.06.09-.134a.496.496 0 00-.019-.186.395.395 0 00-.104-.15 1.06 1.06 0 00-.195-.146.886.886 0 00-.255-.101 1.082 1.082 0 00-.296-.024c-.106.005-.218.058-.338.16-.119.102-.24.258-.363.468-.123.21-.228.456-.315.738a3.52 3.52 0 00-.151.881c-.014.306.028.63.126.975.097.344.232.642.403.894a1.55 1.55 0 001.384.701c.263-.012.512-.127.746-.346.234-.219.423-.521.567-.907.144-.386.24-.774.288-1.162.048-.389.056-.739.025-1.05-.03-.312-.114-.556-.25-.731a.877.877 0 00-.493-.333c-.281-.069-.624-.047-1.028.066M25.009 8.854l-.061-.243c-.002-.008-.004-.004-.004.015l-.008.264c-.004.159-.006.492-.007 1.001a54.954 54.954 0 00.068 2.83c.01.19.022.33.036.421l.022.147.001-.039v-.728c.001-.453.006-.85.016-1.192a6.72 6.72 0 01.095-.972c.054-.307.123-.603.208-.89.085-.287.186-.533.303-.737.117-.205.247-.353.39-.443a.867.867 0 01.426-.145.407.407 0 01.357.181c.096.127.163.325.202.593.038.269.063.586.075.953.01.367.02.768.025 1.203.006.434.026.83.06 1.187.035.358.1.631.195.822.095.19.201.306.32.346.117.041.24.031.365-.03s.246-.172.362-.332c.17-.235.32-.587.454-1.057M30.689 8.702a.445.445 0 00.133-.21c.023-.066.042-.156.055-.27.013-.113 0-.186-.042-.218s-.11-.043-.202-.031c-.094.01-.2.08-.317.207-.118.127-.229.3-.332.52-.103.22-.174.435-.214.642a1.73 1.73 0 00-.036.506.392.392 0 00.182.296c.105.069.245.125.42.168.173.043.381.086.623.129.242.042.49.097.744.164.253.067.477.156.671.266.195.111.331.258.411.44.08.182.098.397.056.645-.043.247-.167.49-.372.73a3.03 3.03 0 01-.742.623c-.425.257-.796.282-1.111.076M.472 40.939c.041-.23.1-.495.175-.795a13.533 13.533 0 00.305-1.57 16.125 16.125 0 00.165-1.778c.008-.259.01-.458.005-.6-.004-.141-.02-.23-.046-.27-.027-.038-.06-.043-.099-.015-.039.027-.082.141-.129.342-.047.2-.08.459-.096.776-.018.316-.017.664 0 1.044.018.379.058.81.12 1.291.062.482.169 1.1.321 1.855.153.755.258 1.224.315 1.406.058.182.108.296.15.343.04.047.073.013.097-.1a4.75 4.75 0 00.057-.618 12.2 12.2 0 01.083-.923c.04-.317.108-.657.203-1.019.096-.362.205-.707.327-1.035.123-.328.248-.595.376-.802.129-.207.249-.352.36-.435.112-.083.216-.116.312-.098.095.018.174.096.237.233.062.137.108.337.136.602.029.265.046.574.054.929.007.354.02.715.04 1.081.021.366.061.72.121 1.06.06.34.144.609.25.805.108.196.233.314.377.355.143.04.282.006.414-.103.133-.109.24-.302.32-.578a3.63 3.63 0 00.145-.694c.015-.187.024-.327.025-.421a.667.667 0 00-.04-.252c-.044-.112-.105-.187-.183-.225M7.397 40.578h-.082l.004-.003.135-.058a.837.837 0 00.261-.195 1.7 1.7 0 00.26-.37c.083-.155.15-.328.203-.52.052-.191.083-.37.093-.533.01-.163.006-.285-.01-.364-.015-.079-.081-.14-.199-.181a.674.674 0 00-.422.01 1.51 1.51 0 00-.509.288 2.377 2.377 0 00-.46.499 2.895 2.895 0 00-.494 1.316 4.53 4.53 0 00-.02.838c.018.305.08.607.189.905.108.298.254.557.44.775.184.218.396.37.636.457.24.086.48.102.718.046.24-.057.456-.198.652-.426.195-.228.35-.48.463-.756.176-.429.283-.779.323-1.05M10.742 38.985c.019-.184.008-.344-.032-.482-.028-.093-.055-.147-.081-.164-.027-.016-.062-.018-.105-.005-.044.013-.092.074-.144.184-.053.11-.1.28-.141.507a5.668 5.668 0 00-.075.829c-.01.324.007.662.05 1.013.043.35.131.706.266 1.067.134.361.298.663.493.904.194.24.397.404.61.488a.899.899 0 00.637.02c.212-.071.4-.26.563-.566.163-.306.272-.656.327-1.049.055-.392.088-.735.099-1.028a4.834 4.834 0 00-.164-1.38M15.656 43.126a160.179 160.179 0 01-.001.125l-.033-.164c-.02-.103-.058-.268-.114-.495a71.292 71.292 0 00-.189-.75 15.38 15.38 0 01-.345-1.71 17.547 17.547 0 01-.095-.747 6.131 6.131 0 01-.032-.52c-.002-.153.032-.263.102-.329.07-.066.289-.126.657-.179.368-.052.665-.09.89-.112.329-.033.847-.04 1.556-.02M20.7 39.355c.055-.015.085-.06.09-.134a.496.496 0 00-.02-.186.394.394 0 00-.103-.15c-.053-.05-.118-.1-.196-.145a.886.886 0 00-.254-.102 1.082 1.082 0 00-.297-.024c-.106.005-.218.059-.337.16-.12.102-.24.258-.364.468-.123.21-.228.456-.315.738a3.523 3.523 0 00-.15.881c-.014.306.027.63.125.975.097.344.232.642.404.894a1.55 1.55 0 001.383.702c.263-.013.512-.128.746-.347.235-.218.424-.52.567-.907.144-.386.24-.774.288-1.162.048-.389.056-.739.026-1.05-.031-.312-.115-.555-.251-.731a.876.876 0 00-.492-.333c-.282-.069-.624-.046-1.028.066M24.245 39.09c-.037-.15-.058-.23-.06-.243-.003-.01-.004-.005-.005.014l-.007.265c-.005.158-.007.492-.008 1a55.47 55.47 0 00.038 2.122c.01.282.02.518.03.708.01.19.022.33.036.421l.022.147.001-.039.001-.728c0-.453.005-.85.015-1.192a6.72 6.72 0 01.095-.972c.054-.307.124-.603.208-.89a3.48 3.48 0 01.303-.737c.117-.205.247-.352.39-.443a.867.867 0 01.426-.145.407.407 0 01.357.181c.096.127.164.325.202.593.039.269.064.587.075.953.011.367.02.768.025 1.203.006.435.026.83.06 1.188.036.357.1.63.195.82.095.191.202.307.32.348.118.04.24.03.365-.031a1.02 1.02 0 00.362-.332c.17-.235.32-.587.454-1.057M29.925 38.937a.445.445 0 00.133-.21 1.26 1.26 0 00.055-.27c.013-.113 0-.186-.042-.218-.041-.032-.109-.043-.202-.031-.093.01-.199.08-.317.207s-.228.3-.332.52c-.103.22-.174.435-.213.642-.04.208-.052.377-.036.506a.392.392 0 00.181.296c.106.07.245.125.42.168.174.043.382.086.624.129.242.042.49.097.743.164.254.067.478.156.672.266.194.111.33.258.41.44.08.182.099.397.056.645-.043.247-.166.49-.371.73s-.453.447-.743.623c-.425.257-.795.283-1.11.076M.834 71.194c.041-.23.1-.495.174-.795a13.545 13.545 0 00.306-1.57 16.132 16.132 0 00.165-1.778c.007-.258.01-.458.005-.6-.004-.14-.02-.23-.046-.269-.027-.038-.06-.044-.098-.016-.04.028-.082.142-.13.342-.047.2-.079.46-.096.776-.017.317-.017.665 0 1.044.018.38.058.81.12 1.291.062.482.17 1.1.322 1.856.152.755.257 1.223.315 1.405.057.182.107.297.149.343.041.047.074.014.097-.1a4.74 4.74 0 00.058-.617c.014-.299.042-.607.082-.924.04-.317.108-.656.203-1.018.096-.362.205-.707.328-1.036a4.6 4.6 0 01.376-.802c.128-.206.248-.351.36-.435.111-.083.215-.116.31-.098.097.019.176.096.238.233.063.137.108.338.136.602.029.265.047.575.054.93.008.354.021.714.041 1.08.02.367.06.72.12 1.06.06.34.144.609.251.805.107.196.232.314.376.355.144.041.282.007.415-.102.132-.11.239-.302.32-.578.08-.276.129-.508.144-.695.016-.187.024-.327.026-.42a.667.667 0 00-.041-.253c-.043-.112-.104-.187-.183-.225M7.758 70.833h-.081c-.002 0 0 0 .004-.003l.134-.058a.837.837 0 00.262-.195c.09-.092.176-.216.26-.37.083-.154.15-.327.202-.52.052-.191.083-.369.093-.532.01-.164.007-.285-.009-.364-.015-.08-.081-.14-.199-.182a.673.673 0 00-.422.01c-.164.05-.334.146-.51.288a2.379 2.379 0 00-.46.5 2.893 2.893 0 00-.493 1.315c-.033.254-.04.533-.021.838.018.306.081.607.19.906.108.298.254.556.439.774.184.218.397.37.637.457.24.087.48.102.718.046.239-.056.456-.198.651-.426.196-.227.35-.48.464-.756.175-.428.283-.778.323-1.05M11.103 69.24c.02-.184.009-.344-.032-.481-.027-.093-.054-.148-.08-.164-.027-.017-.062-.018-.106-.006-.043.013-.091.075-.144.185-.052.11-.1.279-.14.506a5.669 5.669 0 00-.076.83c-.01.324.008.661.05 1.012.043.35.132.707.266 1.068.135.36.3.662.493.903.194.241.398.404.61.489a.9.9 0 00.637.02c.213-.072.4-.26.564-.567.163-.306.272-.655.327-1.048.055-.393.088-.736.098-1.028a4.835 4.835 0 00-.164-1.38M16.018 73.381v.13c0 .003 0 .001-.002-.004l-.032-.164c-.02-.104-.059-.27-.114-.496a71.174 71.174 0 00-.19-.75 15.369 15.369 0 01-.345-1.71 17.517 17.517 0 01-.094-.747 6.132 6.132 0 01-.032-.519c-.003-.153.031-.263.101-.33.07-.066.29-.126.658-.178.368-.053.665-.09.89-.113.328-.032.847-.039 1.555-.02M21.061 69.61c.056-.014.086-.059.09-.133a.495.495 0 00-.019-.186.395.395 0 00-.104-.15 1.062 1.062 0 00-.195-.146.884.884 0 00-.255-.102 1.077 1.077 0 00-.296-.024c-.106.005-.219.059-.338.16-.119.103-.24.259-.363.469-.123.21-.228.456-.315.738a3.523 3.523 0 00-.151.88c-.014.306.028.631.126.975.097.345.232.643.403.894a1.55 1.55 0 001.384.702c.263-.012.512-.128.746-.347.234-.218.423-.52.567-.907.144-.386.24-.773.288-1.162.048-.388.056-.738.025-1.05-.03-.311-.114-.555-.25-.73a.877.877 0 00-.493-.334c-.281-.068-.624-.046-1.028.066M24.607 69.345l-.061-.243c-.002-.009-.004-.004-.004.014l-.008.265c-.004.158-.006.492-.006 1a51.313 51.313 0 00.068 2.83c.01.19.022.33.035.422l.022.146c.001.007.002-.006.002-.039v-.728c0-.453.006-.85.015-1.192a6.72 6.72 0 01.096-.972c.053-.306.123-.603.208-.89.085-.286.186-.532.303-.737.117-.204.246-.352.389-.442a.867.867 0 01.427-.146.407.407 0 01.357.182c.096.127.163.324.202.593.038.268.063.586.074.953.012.367.02.767.026 1.202.005.435.026.83.06 1.188.035.357.1.63.195.821.094.19.201.306.319.347.118.04.24.03.365-.03.126-.062.246-.172.362-.333.17-.234.321-.586.454-1.056M30.287 69.192a.445.445 0 00.133-.21c.023-.066.042-.155.055-.269.013-.113 0-.186-.042-.218-.042-.033-.11-.043-.202-.032-.094.011-.2.08-.317.207-.118.127-.229.3-.332.52-.103.221-.175.435-.214.643a1.73 1.73 0 00-.036.505.392.392 0 00.182.297c.105.068.245.124.42.167.173.044.381.086.623.13.242.042.49.097.744.163.253.067.477.156.671.267.195.11.331.257.411.44.08.182.098.397.056.644-.043.248-.167.491-.372.73-.204.24-.452.448-.742.623-.425.258-.795.283-1.111.077" fill="none" stroke="#fff" stroke-width=".9447237299999999" stroke-linecap="round" stroke-linejoin="round" stroke-miterlimit="10"/></svg>