<svg xmlns="http://www.w3.org/2000/svg" width="188.9" height="146.384"><path d="M11.296 1.932a.971.971 0 00-.066-.323.648.648 0 00-.175-.223 1.948 1.948 0 00-.336-.237 5.402 5.402 0 00-.44-.226 2.946 2.946 0 00-1.144-.26 2.31 2.31 0 00-.757.12 6.98 6.98 0 00-.903.359c-.322.152-.654.322-.997.51-.342.189-.687.403-1.034.644-.347.24-.687.502-1.02.783a19.37 19.37 0 00-.997.91c-.333.326-.646.668-.941 1.027-.295.36-.558.745-.79 1.156-.231.411-.43.83-.597 1.256a6.16 6.16 0 00-.354 1.31 7.931 7.931 0 00-.079 1.453c.016.521.103 1.053.26 1.594.158.542.38 1.14.668 1.795.287.655.63 1.289 1.027 1.903.397.613.823 1.205 1.277 1.776.454.57.926 1.08 1.416 1.529.49.449.997.823 1.522 1.122.526.299 1.07.527 1.63.684.562.158 1.018.248 1.369.273.35.024.933-.044 1.747-.203.814-.16 1.51-.388 2.088-.684a8.722 8.722 0 001.649-1.106c.52-.44 1.016-.953 1.486-1.536.47-.583.896-1.153 1.28-1.71a10.46 10.46 0 00.999-1.83c.282-.663.493-1.312.632-1.946.14-.634.216-1.288.23-1.962a8.639 8.639 0 00-.217-2.071 10.55 10.55 0 00-.62-1.93 7.472 7.472 0 00-.937-1.588 10.835 10.835 0 00-1.22-1.329 7.576 7.576 0 00-1.39-1.024 11.39 11.39 0 00-1.47-.705A7.513 7.513 0 0012.6.825a6.411 6.411 0 00-1.447-.086c-.685.04-1.47.245-2.354.616M10.617 33.844c.046-.08.019-.268-.081-.565a2.134 2.134 0 00-.187-.43c-.061-.1-.14-.203-.234-.308a3.126 3.126 0 00-.346-.325 8.899 8.899 0 00-.447-.34 2.285 2.285 0 00-2.108-.308c-.304.1-.62.259-.947.477a9.72 9.72 0 00-.869.646c-.25.211-.574.515-.968.912-.395.396-.74.807-1.038 1.231a11.876 11.876 0 00-1.391 2.64 5.98 5.98 0 00-.318 1.33c-.058.467-.085.93-.082 1.391.004.461.055.942.154 1.442.098.5.238.995.417 1.486.18.49.426.956.737 1.397.312.44.682.85 1.111 1.23.43.38.894.715 1.394 1.005.499.29 1.042.536 1.627.742.586.205 1.16.383 1.72.534.562.15 1.148.258 1.759.322.61.064 1.222.07 1.834.018a9.117 9.117 0 001.794-.336 8.746 8.746 0 001.659-.674 7.83 7.83 0 001.492-1.042 9.45 9.45 0 001.25-1.328c.36-.47.682-1.031.963-1.685.281-.654.506-1.312.674-1.975.168-.662.272-1.317.311-1.965a6.717 6.717 0 00-.125-1.831 9.286 9.286 0 00-.61-1.813 9.375 9.375 0 00-1.005-1.743 13.03 13.03 0 00-1.315-1.52 5.495 5.495 0 00-1.624-1.132 5.425 5.425 0 00-1.9-.466 9.888 9.888 0 00-2.032.081c-.68.098-1.35.239-2.01.424-.659.186-1.284.415-1.874.689-.591.273-1.125.546-1.602.818-.478.272-.835.497-1.071.674-.378.282-.605.508-.684.677M13.817 61.636c-.034-.074-.114-.158-.242-.253a1.18 1.18 0 00-.32-.158 2.08 2.08 0 00-.482-.094c-.189-.017-.399-.022-.63-.014-.231.008-.48.045-.75.111-.267.066-.563.15-.887.25-.323.102-.661.216-1.014.344a12.15 12.15 0 00-1.047.436 9.861 9.861 0 00-1.72 1.029c-.238.177-.41.31-.52.4-.108.09-.308.274-.6.554-.293.28-.586.595-.88.945-.293.35-.624.805-.992 1.367a28.46 28.46 0 00-1.018 1.67 8.228 8.228 0 00-.728 1.725 7.687 7.687 0 00-.308 1.749 6.22 6.22 0 00.16 1.74c.136.592.359 1.176.667 1.75.308.576.671 1.158 1.09 1.748.42.59.863 1.109 1.332 1.56.47.45.986.846 1.548 1.189a9.74 9.74 0 001.756.843c.608.22 1.223.367 1.845.441a13.2 13.2 0 001.893.089 8.465 8.465 0 001.928-.275c.645-.168 1.059-.286 1.24-.355.183-.07.351-.144.506-.223.155-.078.603-.396 1.343-.952.74-.556 1.198-.934 1.373-1.133.174-.199.315-.382.42-.549.106-.167.244-.409.415-.726.17-.317.396-.781.678-1.394.281-.612.503-1.167.665-1.666.161-.499.269-.848.32-1.048.053-.2.126-.61.219-1.227.092-.617.149-1.271.168-1.962.02-.691-.039-1.432-.174-2.223a9.176 9.176 0 00-.732-2.328 10.83 10.83 0 00-1.302-2.127c-.515-.657-1.07-1.157-1.667-1.5-.596-.343-1.175-.554-1.738-.634a6.164 6.164 0 00-1.598-.03c-.504.06-.978.149-1.424.266-.66.174-1.4.384-2.222.63M71.97 17.429c-.336-.35-.568-.572-.695-.666a2.557 2.557 0 00-.283-.181c-.1-.056-.22-.109-.361-.16a2.56 2.56 0 00-.516-.119 5.286 5.286 0 00-.727-.041c-.282 0-.593.04-.934.119-.34.078-.679.183-1.013.315a8.448 8.448 0 00-1.027.491c-.35.196-.72.45-1.107.76-.388.31-.759.668-1.114 1.074-.354.406-.68.8-.977 1.184a8.067 8.067 0 00-.799 1.264c-.235.46-.428.937-.579 1.434-.15.496-.254.973-.311 1.43a9.028 9.028 0 00-.061 1.426c.016.492.08.917.188 1.273.11.357.198.612.265.765.067.153.23.466.487.937.259.472.563.954.915 1.445.352.49.762.97 1.232 1.437.47.467.96.896 1.474 1.289a8.951 8.951 0 001.65 1c.588.275 1.203.496 1.845.663a12.52 12.52 0 001.893.346c.62.063 1.221.07 1.805.02a5.598 5.598 0 001.649-.39c.516-.21.992-.51 1.428-.9a7.73 7.73 0 001.18-1.334c.351-.5.663-1.022.936-1.568a10.38 10.38 0 00.671-1.698c.174-.587.298-1.18.37-1.781.073-.6.097-1.208.072-1.823a6.881 6.881 0 00-.32-1.813 12.617 12.617 0 00-.708-1.752 13.651 13.651 0 00-2.067-3.07 5.78 5.78 0 00-1.251-1.069 5.872 5.872 0 00-1.432-.64 7.518 7.518 0 00-3.252-.205c-.535.083-1.055.207-1.559.369a7.957 7.957 0 00-2.129 1.06M71.564 48.938a10.12 10.12 0 00-1.1-.695 2.783 2.783 0 00-.659-.27 3.579 3.579 0 00-.679-.087 3.232 3.232 0 00-.85.09c-.31.07-.62.179-.931.326a5.856 5.856 0 00-.945.572c-.319.233-.648.539-.986.918-.339.379-.66.806-.966 1.282-.305.475-.587.957-.846 1.445-.258.488-.477.994-.656 1.52a9.922 9.922 0 00-.388 1.474c-.08.457-.11.948-.089 1.474.021.525.116 1.049.285 1.572.17.523.386 1.055.65 1.597.265.541.583 1.064.956 1.569.373.504.8.96 1.281 1.365.48.406.979.762 1.493 1.067.515.305 1.07.552 1.668.739.597.187 1.214.321 1.85.401a15.4 15.4 0 001.889.124 7.49 7.49 0 001.794-.208 6.15 6.15 0 001.61-.637 5.71 5.71 0 001.32-1.034 6.859 6.859 0 001.008-1.386c.29-.52.549-1.077.777-1.671.228-.594.417-1.19.567-1.787a10.925 10.925 0 00.273-3.646 5.366 5.366 0 00-.399-1.622 4.757 4.757 0 00-.823-1.297c-.341-.381-.74-.75-1.199-1.109a14.19 14.19 0 00-1.534-1.036c-.565-.333-1.16-.64-1.784-.921a12.024 12.024 0 00-1.847-.666c-.608-.162-1.15-.243-1.63-.243-.478 0-.921.077-1.328.231-.601.227-1.24.588-1.915 1.08M131.957 31.863c-.044-.074-.141-.145-.291-.214a3.2 3.2 0 00-.403-.157 3.244 3.244 0 00-.422-.092 5.732 5.732 0 00-.586-.058 5.079 5.079 0 00-.768.023c-.283.029-.584.101-.903.218a6.81 6.81 0 00-1.016.482c-.359.204-.735.45-1.13.738-.395.288-.77.59-1.126.906-.357.315-.717.65-1.083 1a10.48 10.48 0 00-1.043 1.173c-.33.43-.616.857-.858 1.283-.242.425-.457.853-.644 1.284-.187.43-.342.9-.465 1.406a9.081 9.081 0 00-.238 1.462c-.036.468-.024.967.035 1.497a5.52 5.52 0 00.404 1.545c.211.5.481.984.81 1.452.328.468.711.93 1.148 1.384a9.56 9.56 0 001.427 1.22c.514.359 1.063.69 1.646.993.583.303 1.188.578 1.814.824a9.92 9.92 0 001.958.543 9.965 9.965 0 001.963.148 5.663 5.663 0 001.833-.358 6.771 6.771 0 001.671-.912c.523-.388.965-.766 1.327-1.134.362-.369.612-.643.75-.824.137-.18.38-.553.726-1.12.346-.566.682-1.18 1.007-1.84.325-.66.602-1.329.83-2.005.23-.676.394-1.38.494-2.114.1-.733.143-1.443.127-2.13a7.379 7.379 0 00-.315-1.986 6.035 6.035 0 00-.81-1.701 7.251 7.251 0 00-1.246-1.37 6.332 6.332 0 00-1.622-1.008 7.782 7.782 0 00-1.954-.542 13.102 13.102 0 00-4.488.124c-.773.155-1.486.314-2.138.476-.976.242-1.97.347-2.982.314" fill="none" stroke="#007aff" stroke-width="1.32290413" stroke-linecap="round" stroke-linejoin="round" stroke-miterlimit="10"/><path d="M145.046 41.37c.23-.12.457-.206.68-.255.151-.032.38-.064.689-.093.308-.03.78-.063 1.414-.101a95.51 95.51 0 014.872-.157c.949-.006 1.982-.015 3.1-.025 1.119-.01 2.366-.029 3.74-.056 1.376-.027 2.816-.044 4.322-.05 1.505-.007 3.05-.002 4.635.014 2.333.024 5.178.354 8.533.989" fill="none" stroke="#90d300" stroke-width="1.32290413" stroke-linecap="round" stroke-linejoin="round" stroke-miterlimit="10"/><path d="M24.098 11.4c-.584-.206-.86-.261-.83-.166.02.068.142.145.364.232.221.086.523.195.903.326.381.13.814.287 1.297.468.484.181 1.064.404 1.742.667.678.264 1.421.546 2.229.847a294 294 0 002.606.956c.93.337 1.906.71 2.929 1.118 1.022.409 2.102.853 3.237 1.332 1.136.48 2.242.962 3.317 1.446 1.076.485 2.118.979 3.127 1.482s2.027 1.005 3.055 1.504a62.06 62.06 0 012.96 1.537c1.4.776 2.959 1.757 4.679 2.943M24.413 38.33c-.083.01-.124-.014-.122-.073.002-.042.12-.109.355-.202.235-.092.47-.19.703-.294.234-.103.445-.205.633-.304.188-.1.42-.213.698-.342.278-.129.538-.241.779-.338.241-.096.56-.221.957-.374.396-.153.73-.287 1-.4.272-.114.7-.275 1.287-.482a97.509 97.509 0 001.8-.656l2.01-.754c.727-.271 1.45-.534 2.169-.787a61.013 61.013 0 012.116-.702c.692-.216 1.413-.438 2.163-.666.75-.228 1.461-.456 2.134-.683.673-.226 1.343-.457 2.011-.693.668-.236 1.327-.475 1.979-.718a88.407 88.407 0 012.763-.962c1.19-.397 2.02-.66 2.49-.788a10.223 10.223 0 012.167-.346M23.64 69.339c.101-.002.203-.071.306-.205.103-.135.27-.38.5-.736.232-.356.431-.654.599-.892.167-.24.36-.533.576-.883.217-.35.49-.78.818-1.294.329-.513.708-1.047 1.138-1.602.43-.554.863-1.146 1.3-1.773.437-.627.92-1.28 1.448-1.955l1.651-2.12a163.958 163.958 0 013.154-3.92 29.187 29.187 0 001.418-1.746c.344-.452.6-.78.768-.983a76.15 76.15 0 011.09-1.265c.56-.64 1.184-1.38 1.872-2.223.688-.842 1.404-1.71 2.148-2.605a96.086 96.086 0 012.322-2.688c.804-.897 1.556-1.747 2.257-2.55.701-.803 1.398-1.589 2.091-2.357.693-.769 1.368-1.511 2.025-2.228.658-.716 1.284-1.39 1.879-2.019.595-.63 1.17-1.217 1.728-1.761.556-.544 1.04-1 1.451-1.368a14.592 14.592 0 011.726-1.353" fill="none" stroke="#7ec636" stroke-width="1.51199433" stroke-linecap="round" stroke-linejoin="round" stroke-miterlimit="10"/><path d="M22.76 11.46c-.053-.09-.064-.125-.034-.106l.163.101c.086.054.2.138.341.252a17.716 17.716 0 012.19 2.095c.327.367.702.763 1.125 1.188.423.424.894.903 1.41 1.436a72.717 72.717 0 011.546 1.645c.514.563 1.06 1.16 1.637 1.787.578.629 1.15 1.275 1.718 1.938.568.664 1.143 1.329 1.727 1.996a52.326 52.326 0 011.65 1.981 59.236 59.236 0 001.647 1.99c.582.673 1.121 1.34 1.619 2.002a32.571 32.571 0 001.639 2.001 39.023 39.023 0 011.709 2.07 50.047 50.047 0 001.657 2.043 42.37 42.37 0 011.62 2.011 80.911 80.911 0 001.649 2.105c.58.718 1.138 1.42 1.671 2.104a121.62 121.62 0 001.674 2.1c.582.714 1.156 1.425 1.721 2.133.566.707 1.108 1.396 1.626 2.068.519.671.994 1.307 1.427 1.907.433.6.78 1.129 1.039 1.586.385.68.809 1.415 1.269 2.205M24.703 69.825c.315-.077.786-.232 1.41-.463.396-.147.757-.28 1.083-.397.327-.118.687-.253 1.081-.404.394-.15.836-.315 1.324-.49a34.553 34.553 0 011.63-.54c.597-.182 1.244-.376 1.94-.581a250.113 250.113 0 014.653-1.333c.853-.236 1.729-.47 2.628-.704.9-.234 1.823-.462 2.772-.686.949-.223 1.88-.446 2.796-.668.915-.222 1.831-.452 2.75-.687a422.701 422.701 0 005.172-1.37c.75-.205 1.44-.384 2.067-.537.926-.226 2.035-.46 3.326-.702M24.366 38.828c-.069-.254-.025-.365.13-.335.111.022.243.07.395.142.152.073.425.225.82.457.394.231.771.437 1.132.618a30.43 30.43 0 012.616 1.487c.477.303 1.02.626 1.626.97.607.344 1.234.709 1.882 1.095.649.386 1.323.79 2.025 1.214.7.422 1.442.86 2.222 1.312.78.452 1.445.848 1.995 1.187.55.34.952.588 1.207.744.255.157.681.402 1.279.737.597.335.982.555 1.154.66.172.105.35.208.532.31.182.1.574.307 1.178.62.603.312 1.26.677 1.967 1.094.708.418 1.235.718 1.582.9.346.181.682.354 1.007.519a94.582 94.582 0 003.263 1.55c.635.288 1.213.546 1.731.775.519.229.966.416 1.34.561a89.04 89.04 0 011.473.584M83.125 24.553c.262.187.671.398 1.23.631.557.234 1.03.446 1.42.637a108.29 108.29 0 003.165 1.484 110.558 110.558 0 014.237 2.025 280.867 280.867 0 005.004 2.459c.864.413 1.76.834 2.687 1.262a73.64 73.64 0 012.699 1.312c.871.447 1.706.872 2.506 1.276.8.404 1.562.79 2.287 1.16.726.369 1.426.746 2.1 1.131.676.385 1.313.754 1.913 1.106.6.351 1.148.668 1.646.949.498.281.91.528 1.238.74.328.213.58.388.757.526.178.138.298.246.363.322.09.106.034.168-.165.186M84.339 57.234l-.131.011c-.007 0 .001-.005.024-.018l.24-.134c.139-.077.436-.228.893-.454.456-.227.876-.44 1.259-.642a38.25 38.25 0 011.406-.696 136.65 136.65 0 011.742-.809c.607-.277 1.29-.572 2.052-.885.762-.313 1.552-.642 2.37-.985a209.37 209.37 0 012.637-1.084c.939-.379 1.885-.758 2.84-1.137.955-.378 1.899-.745 2.832-1.1.933-.355 1.854-.694 2.765-1.02.91-.324 1.772-.638 2.583-.94.81-.302 1.59-.584 2.335-.844.746-.261 1.442-.496 2.088-.707a49.97 49.97 0 012.258-.668c.86-.235 1.403-.379 1.629-.43.225-.052.419-.089.58-.11l.35-.049" fill="none" stroke="#7ec636" stroke-width="1.51199433" stroke-linecap="round" stroke-linejoin="round" stroke-miterlimit="10"/><path d="M23.29 124.31c-.177 0-.357.056-.54.165-.184.11-.364.254-.54.434-.175.18-.379.45-.612.807a9.996 9.996 0 00-.717 1.361 19.27 19.27 0 00-.694 1.815c-.218.66-.368 1.445-.45 2.356a18.613 18.613 0 00-.033 2.829c.06.974.203 1.952.429 2.932.225.981.522 1.896.892 2.745a7.475 7.475 0 002.547 3.129M31.475 125.515c-.19-.068-.555-.124-1.093-.17a7.326 7.326 0 01-.946-.142 4.617 4.617 0 00-.64-.109.294.294 0 00-.289.146 1.1 1.1 0 00-.13.425c-.024.179-.04.544-.045 1.096-.006.552-.007.928-.003 1.129.004.2.062.834.175 1.9a289.737 289.737 0 00.554 4.874c.065.523.112.888.141 1.094.03.206.063.512.102.917.04.406.07.81.09 1.21.02.401.043.77.07 1.109.028.338.048.633.059.887.011.253.017.487.018.7 0 .214-.016.416-.048.605a4.169 4.169 0 00-.057.554c-.006.18.013.298.056.353.043.056.252.087.626.093.375.006.691.033.95.081.258.048.527.094.806.137.28.044.619.077 1.019.1.4.022.72-.013.964-.108" fill="none" stroke="#fff" stroke-width=".9447237299999999" stroke-linecap="round" stroke-linejoin="round" stroke-miterlimit="10"/><path d="M33.817 134.685c.245-.08.54-.145.883-.197.328-.05.843-.125 1.545-.226M41.775 130.812a1.777 1.777 0 00-.124-.54.94.94 0 00-.172-.302.856.856 0 00-.244-.182 1.08 1.08 0 00-.358-.101 1.735 1.735 0 00-.464.01 1.06 1.06 0 00-.514.25c-.174.143-.352.378-.533.703-.18.326-.344.726-.49 1.201-.146.476-.25.978-.31 1.506a8.525 8.525 0 00-.02 1.654c.046.574.162 1.086.346 1.537.184.45.409.806.673 1.067.265.261.556.42.874.475.318.056.647-.018.987-.222.34-.204.649-.47.928-.799.28-.328.479-.672.599-1.032s.195-.86.227-1.499c.032-.639 0-1.16-.095-1.565a3.542 3.542 0 00-.383-1.007c-.16-.267-.322-.455-.485-.563a1.583 1.583 0 00-.427-.213c-.172-.048-.285.002-.338.152M45.039 137.264l-.26-.349M48.431 132.518c-.062.114-.118.12-.168.02-.036-.073-.063-.215-.08-.425-.016-.21-.025-.476-.027-.798-.001-.322.027-.62.085-.895.059-.275.143-.51.254-.704.11-.195.239-.348.384-.46a.967.967 0 01.382-.198c.11-.02.22.043.334.192.112.149.182.342.21.58.027.237.034.502.02.795a6.396 6.396 0 01-.09.836c-.048.265-.092.478-.133.639-.04.16-.07.268-.089.321l-.033.092c-.003.007.005.006.021-.005l.205-.131c.12-.076.261-.13.426-.158a1.55 1.55 0 011.137.252c.2.13.39.283.57.456.18.174.324.364.43.572.107.208.163.453.167.736.005.283-.073.584-.234.904-.16.32-.385.604-.673.851a2.676 2.676 0 01-.97.538c-.36.11-.673.172-.938.186-.375.02-.57-.087-.587-.321M54.507 136.817c.075.146.126.3.151.464.037.234.078.93.124 2.086M63.115 131.509c.02-.391.007-.642-.036-.753a.704.704 0 00-.143-.221.915.915 0 00-.229-.18 1.004 1.004 0 00-.298-.106 1.866 1.866 0 00-.32-.035c-.103-.003-.245.04-.426.124-.18.086-.352.23-.515.436-.162.204-.317.487-.464.848a8.111 8.111 0 00-.375 1.191 7.648 7.648 0 00-.19 1.416 6.16 6.16 0 00.104 1.474c.093.47.229.902.409 1.292.18.391.383.708.611.95.228.242.48.38.754.414.275.034.564-.07.866-.312.302-.242.573-.575.813-.999.24-.424.425-.929.554-1.515.129-.586.211-1.13.247-1.63.036-.501.025-.986-.034-1.456a3.396 3.396 0 00-.373-1.221c-.19-.345-.387-.59-.592-.737-.304-.215-.602-.273-.896-.173M66.366 137.199l-.154.24M68.748 133.22c-.039.091-.087.133-.145.125-.04-.006-.074-.091-.101-.256-.027-.164-.063-.625-.108-1.382-.044-.758-.08-1.271-.109-1.54a3.786 3.786 0 00-.096-.59c-.036-.125-.07-.199-.104-.221-.033-.023-.055 0-.068.066a1.12 1.12 0 000 .292c.011.128.05.253.116.373s.193.274.38.46c.187.185.39.325.608.42.219.094.459.154.72.18.26.025.519.037.774.036.255 0 .471-.024.648-.07.176-.046.306-.092.39-.14.083-.047.132-.091.146-.132.015-.04.002-.067-.04-.081-.04-.014-.11.003-.21.05-.098.048-.212.166-.34.354a4.886 4.886 0 00-.403.763c-.14.32-.26.645-.36.975a8.77 8.77 0 00-.252 1.169c-.07.449-.132.912-.187 1.39-.056.478-.095.897-.117 1.26-.036.573-.038.992-.005 1.256M73.522 137.83c.154-.021.294.052.419.219.084.114.154.276.209.488.055.212.072.46.051.747-.02.286-.093.554-.216.806-.181.37-.495.712-.942 1.028M84.966 131.03c-.013-.104-.083-.232-.212-.384a2.09 2.09 0 00-.32-.322 1.363 1.363 0 00-.312-.166 1.837 1.837 0 00-.424-.105 1.304 1.304 0 00-.544.058c-.203.06-.414.201-.634.424-.22.222-.426.503-.619.843-.192.34-.36.705-.504 1.096-.143.391-.24.811-.29 1.26-.052.449-.045.921.019 1.418.063.497.162.92.297 1.267.134.347.376.735.727 1.163.35.429.71.685 1.08.77.37.085.742-.018 1.117-.31.374-.293.692-.68.956-1.162.263-.481.456-.99.577-1.526a9.045 9.045 0 00.22-1.43c.025-.418-.02-.8-.136-1.146a2.956 2.956 0 00-.505-.93c-.221-.274-.428-.462-.62-.565-.276-.148-.511-.116-.707.095M88.242 137.646l-.082.093M93.33 130.9c-.145-.29-.258-.477-.34-.56a.479.479 0 00-.225-.126.672.672 0 00-.352.021c-.14.04-.29.152-.448.336-.159.185-.31.43-.457.737a5.194 5.194 0 00-.36 1.066 8.125 8.125 0 00-.179 1.423 7.62 7.62 0 00.095 1.622c.089.536.244.972.466 1.308.222.335.478.583.769.744.29.16.598.218.923.172.324-.045.633-.25.927-.616.294-.365.536-.864.726-1.496a10 10 0 00.378-1.88c.062-.62.064-1.166.004-1.638-.059-.471-.178-.847-.358-1.127a2.455 2.455 0 00-.556-.637 6.895 6.895 0 00-.845-.556" fill="none" stroke="#007aff" stroke-width=".9447237299999999" stroke-linecap="round" stroke-linejoin="round" stroke-miterlimit="10"/><path d="M96.763 126.445c-.129.008-.194-.014-.195-.068 0-.038.08-.067.242-.087.162-.02.47-.03.923-.03.454-.001.82-.012 1.098-.032.277-.02.535-.033.773-.042.237-.01.437-.01.599-.005.162.006.277.023.344.05.096.037.088.13-.022.282" fill="none" stroke="#fff" stroke-width=".9447237299999999" stroke-linecap="round" stroke-linejoin="round" stroke-miterlimit="10"/><path d="M100.106 126.268c0 .333.009.706.026 1.117.017.412.026 1.33.027 2.754 0 1.424.008 2.264.02 2.519.014.255.024.508.032.76.007.252.018.523.032.813.014.29.04.74.08 1.352.04.611.09 1.216.15 1.815.06.6.104 1.047.13 1.343.026.296.046.578.059.848.012.269.02.621.02 1.057.002.435.016.652.043.65" fill="none" stroke="#fff" stroke-width=".9447237299999999" stroke-linecap="round" stroke-linejoin="round" stroke-miterlimit="10"/><path d="M100.688 140.54c-.2.125-.407.21-.623.253-.144.029-.345.062-.602.101-.256.039-.529.075-.817.108-.288.034-.567.064-.838.09-.414.04-.755.016-1.02-.074M104.845 123.867c.289.104.543.332.764.685.22.353.38.629.481.828.101.2.258.624.47 1.276.214.652.4 1.384.56 2.196.159.812.307 1.68.444 2.603.137.923.239 1.833.305 2.732.066.898.08 1.813.04 2.744-.04.932-.171 1.869-.394 2.81-.33 1.389-1.02 2.907-2.072 4.556M116.893 133.245c.346 0 .711-.016 1.096-.048.385-.033.805-.073 1.26-.122.66-.072 1.673-.123 3.035-.156M116.95 137.645c.226-.066.599-.142 1.116-.228.325-.054.748-.096 1.269-.128.76-.046 1.865-.024 3.315.066" fill="none" stroke="#fff" stroke-width=".9447237299999999" stroke-linecap="round" stroke-linejoin="round" stroke-miterlimit="10"/><path d="M130.496 133.542c.222 0 .56-.032 1.01-.097.666-.095 1.482-.238 2.449-.428M140.46 127.893c0 .473.038.976.116 1.508.078.532.147 1.083.207 1.655.06.572.104 1.265.13 2.08.038 1.187.143 2.948.316 5.28M144.288 137.838l-.119.086M151.554 129.366c-.154-.395-.27-.65-.346-.762a.85.85 0 00-.254-.228 1.74 1.74 0 00-.454-.189 2.862 2.862 0 00-.662-.093 1.78 1.78 0 00-.76.142 1.859 1.859 0 00-.699.54c-.215.256-.404.633-.566 1.13a8.346 8.346 0 00-.343 1.738c-.068.661-.077 1.349-.028 2.062.05.712.196 1.41.442 2.094.246.683.541 1.237.886 1.662.345.424.715.713 1.11.866.397.153.795.18 1.196.08.401-.1.752-.395 1.053-.887.301-.492.54-1.111.715-1.858.176-.746.297-1.48.364-2.201.067-.721.094-1.344.08-1.868-.013-.524-.08-.94-.2-1.248-.12-.309-.357-.644-.707-1.004-.562-.579-.981-.96-1.257-1.143" fill="none" stroke="#007aff" stroke-width=".9447237299999999" stroke-linecap="round" stroke-linejoin="round" stroke-miterlimit="10"/><path d="M16.65 88.972c.112.544.248 1.059.411 1.542.11.324.268.699.476 1.124.208.425.404.77.587 1.035.183.266.349.494.497.687.148.192.457.557.928 1.096.47.54.95 1.087 1.436 1.643.487.556.871.978 1.153 1.266.282.288.57.558.866.81.296.251.741.558 1.336.922.595.363 1.145.663 1.65.9.505.236 1.025.453 1.56.65.534.196 1.044.35 1.53.465.487.113.993.198 1.52.254.525.055 1.103.092 1.733.111a37.504 37.504 0 003.482-.04c.599-.033 1.231-.063 1.896-.089.666-.026 1.335-.04 2.007-.043.672-.002 1.338-.001 2 .005.66.006 1.346.058 2.057.16a16.056 16.056 0 014.036 1.109c.65.272 1.227.542 1.731.808.505.265.865.461 1.082.588.216.127.613.385 1.19.776.578.39 1.204.908 1.878 1.553a57.21 57.21 0 012.169 2.205c.772.825 1.53 1.592 2.275 2.302a320.58 320.58 0 014.252 4.157M56.396 116.961l-.214-.055h-.001l.018.005.374.121c.233.076.558.168.974.277.416.11.941.22 1.577.333a85.61 85.61 0 002.039.334c1.063.161 2.38.133 3.95-.084M65.186 117.749c0-.13.017-.297.052-.5.034-.204.063-.516.086-.936.022-.42.013-.88-.03-1.383a9.73 9.73 0 00-.312-1.68c-.241-.9-.82-2.168-1.738-3.807M146.053 121.093c-.186-.396-.368-.84-.546-1.334-.177-.494-.34-.988-.49-1.482a16.42 16.42 0 01-.622-3.644c-.04-.685-.06-1.467-.059-2.346 0-.879.059-1.786.176-2.722.117-.935.29-1.93.517-2.982.228-1.053.503-2.051.826-2.995.322-.944.687-1.896 1.093-2.856a24.35 24.35 0 011.19-2.47l.83-1.463c.164-.288.543-.864 1.136-1.726a29.039 29.039 0 011.926-2.497 52.96 52.96 0 012.18-2.377 19.218 19.218 0 012.359-2.072c.811-.598 1.641-1.191 2.49-1.78a52.123 52.123 0 015.319-3.247 51.23 51.23 0 002.837-1.63 66.749 66.749 0 002.868-1.878 45.155 45.155 0 002.872-2.16 35.77 35.77 0 002.78-2.528 35.225 35.225 0 002.61-2.95 52.643 52.643 0 002.404-3.292 30.658 30.658 0 001.974-3.35c.813-1.62 1.59-3.521 2.333-5.707M178.931 60.945c.077-.154.184-.324.321-.51.138-.186.305-.404.503-.654s.424-.519.678-.805c.255-.286.578-.604.968-.953s.812-.712 1.263-1.088c.662-.552 1.585-1.209 2.768-1.972M186.056 54.919c.09.208.191.416.305.622.114.206.23.405.345.598.116.192.255.444.417.754.163.31.324.684.483 1.122.158.438.28.872.364 1.302.122.618.274 2 .458 4.144M10.161 145.912a.913.913 0 00.466-.165c.101-.067.207-.161.317-.28a3.383 3.383 0 00.637-1.001c.11-.245.197-.512.26-.801.063-.29.109-.632.137-1.03.027-.397.043-.846.045-1.345.003-.5-.002-.99-.015-1.47a10.86 10.86 0 00-.1-1.266 39.09 39.09 0 00-.282-1.598 90.11 90.11 0 01-.354-1.937 22.692 22.692 0 01-.32-3.632 7.576 7.576 0 01.2-1.825c.138-.58.318-1.166.54-1.757.223-.592.48-1.15.77-1.673.291-.523.606-.95.943-1.28.495-.486 1.222-.84 2.18-1.066" fill="none" stroke="#ffd300" stroke-width=".9447237299999999" stroke-linecap="round" stroke-linejoin="round" stroke-miterlimit="10"/><path d="M8.579 138.8c.248-.358.596-.81 1.042-1.355.287-.352.61-.725.97-1.12.517-.57 1.688-1.636 3.512-3.198" fill="none" stroke="#ffd300" stroke-width=".9447237299999999" stroke-linecap="round" stroke-linejoin="round" stroke-miterlimit="10"/></svg>