<svg xmlns="http://www.w3.org/2000/svg" width="121.783" height="81.722"><path d="M249.413 314.336a1.335 1.335 0 0 0-.09-.444.891.891 0 0 0-.241-.307 2.68 2.68 0 0 0-.462-.327 7.427 7.427 0 0 0-.606-.31 4.051 4.051 0 0 0-1.572-.358 3.176 3.176 0 0 0-1.04.165c-.386.12-.8.285-1.243.494-.442.21-.899.443-1.37.702a16.07 16.07 0 0 0-1.423.885c-.477.33-.944.69-1.4 1.077-.457.388-.914.805-1.372 1.252-.458.447-.89.917-1.295 1.411a11.062 11.062 0 0 0-1.085 1.59 13.685 13.685 0 0 0-.822 1.726 8.47 8.47 0 0 0-.486 1.802c-.095.615-.131 1.28-.109 1.998.022.717.142 1.447.359 2.192.216.745.522 1.567.917 2.467.394.9.865 1.773 1.412 2.617a30.884 30.884 0 0 0 1.756 2.442 18.356 18.356 0 0 0 1.947 2.102 11.578 11.578 0 0 0 2.093 1.543c.723.411 1.47.725 2.242.941.772.216 1.399.341 1.881.375.482.033 1.283-.06 2.403-.279 1.119-.22 2.076-.533 2.87-.94.795-.409 1.55-.916 2.268-1.521a15.389 15.389 0 0 0 2.043-2.112 39.06 39.06 0 0 0 1.76-2.352c.527-.767.985-1.606 1.373-2.517a15.01 15.01 0 0 0 .87-2.674c.191-.872.296-1.771.316-2.698.019-.926-.08-1.876-.299-2.848a14.506 14.506 0 0 0-.85-2.654c-.35-.798-.78-1.525-1.29-2.183a14.898 14.898 0 0 0-1.676-1.827 10.417 10.417 0 0 0-1.912-1.409 15.66 15.66 0 0 0-2.022-.97 10.33 10.33 0 0 0-2.052-.574 8.815 8.815 0 0 0-1.99-.118c-.941.055-2.02.338-3.236.847M248.48 358.215c.063-.11.026-.369-.112-.778a2.934 2.934 0 0 0-.256-.59 2.99 2.99 0 0 0-.323-.424 4.298 4.298 0 0 0-.476-.447c-.187-.153-.392-.309-.613-.467a3.436 3.436 0 0 0-.756-.404 3.143 3.143 0 0 0-.97-.196 3.18 3.18 0 0 0-1.173.175 5.427 5.427 0 0 0-1.303.658c-.45.3-.849.596-1.194.887-.345.29-.79.709-1.332 1.254a12.845 12.845 0 0 0-1.426 1.693c-.409.584-.777 1.19-1.104 1.818a15.483 15.483 0 0 0-.81 1.81 8.223 8.223 0 0 0-.437 1.83c-.08.642-.117 1.28-.112 1.914.005.634.075 1.294.21 1.981.137.688.328 1.369.575 2.044a8.195 8.195 0 0 0 1.013 1.92c.429.606.938 1.17 1.528 1.693.59.523 1.23.983 1.916 1.38.687.399 1.433.739 2.238 1.021.805.282 1.594.527 2.365.735.772.207 1.578.355 2.418.443.84.088 1.681.096 2.523.024a12.536 12.536 0 0 0 2.466-.461 12.026 12.026 0 0 0 2.28-.927c.718-.383 1.402-.86 2.052-1.433a12.992 12.992 0 0 0 1.719-1.827c.496-.645.937-1.417 1.324-2.316.387-.9.696-1.805.927-2.716.23-.91.374-1.811.428-2.701a9.235 9.235 0 0 0-.172-2.518c-.17-.79-.45-1.62-.839-2.493a12.89 12.89 0 0 0-1.382-2.397 17.915 17.915 0 0 0-1.807-2.09 7.556 7.556 0 0 0-2.234-1.556 7.46 7.46 0 0 0-2.613-.641 13.596 13.596 0 0 0-2.793.112c-.936.133-1.857.328-2.764.583-.906.255-1.765.57-2.577.946-.813.376-1.547.751-2.203 1.126-.656.374-1.147.683-1.473.926-.518.388-.832.699-.94.93" style="fill:none;stroke:#007aff;stroke-width:1.8189;stroke-linecap:round;stroke-linejoin:round;stroke-miterlimit:10;stroke-dasharray:none;stroke-opacity:1" transform="matrix(.72727 0 0 .72727 -108.403 -226.676)"/><path d="M248.822 398.233c-.047-.103-.158-.219-.333-.348a1.624 1.624 0 0 0-.44-.219 2.86 2.86 0 0 0-.663-.128 6.94 6.94 0 0 0-.866-.02 5.076 5.076 0 0 0-1.03.153c-.369.091-.776.206-1.22.345-.445.139-.91.296-1.395.472-.486.176-.965.375-1.44.599a13.559 13.559 0 0 0-2.366 1.415c-.326.244-.563.427-.713.55-.15.123-.425.377-.827.762-.402.385-.804.818-1.208 1.3a20.344 20.344 0 0 0-1.365 1.879 39.131 39.131 0 0 0-1.4 2.297c-.427.76-.76 1.55-1 2.37a10.57 10.57 0 0 0-.424 2.405c-.042.782.031 1.58.22 2.394.187.813.493 1.616.917 2.406.423.791.923 1.592 1.5 2.403a15.01 15.01 0 0 0 1.83 2.144c.646.62 1.355 1.165 2.129 1.635.774.471 1.578.858 2.415 1.16.836.302 1.681.505 2.536.607a18.15 18.15 0 0 0 2.603.122 11.64 11.64 0 0 0 2.65-.378c.888-.23 1.456-.394 1.707-.489a7.06 7.06 0 0 0 .695-.305c.213-.109.829-.545 1.847-1.31 1.017-.765 1.646-1.284 1.887-1.558.24-.273.433-.525.578-.755.146-.23.336-.562.57-.998.235-.436.545-1.074.932-1.916.387-.842.692-1.605.915-2.291.222-.686.37-1.167.441-1.442.072-.276.172-.838.3-1.686.127-.849.204-1.748.23-2.699.028-.95-.052-1.969-.237-3.056a12.617 12.617 0 0 0-1.007-3.2 14.89 14.89 0 0 0-1.79-2.926c-.709-.903-1.473-1.59-2.293-2.062-.82-.472-1.616-.762-2.39-.872a8.475 8.475 0 0 0-2.198-.041 14.38 14.38 0 0 0-1.957.365c-.908.24-1.926.528-3.055.867" style="fill:none;stroke:#007aff;stroke-width:1.8189;stroke-linecap:round;stroke-linejoin:round;stroke-miterlimit:10;stroke-dasharray:none;stroke-opacity:1" transform="matrix(.72727 0 0 .72727 -105.452 -227.987)"/><path d="M320.273 330.305c-.802-.282-1.183-.358-1.142-.226.03.093.197.2.502.318.304.118.719.268 1.242.448.524.18 1.118.395 1.783.644.665.249 1.463.555 2.396.917.932.363 1.953.751 3.064 1.165 1.11.414 2.304.852 3.583 1.315 1.279.462 2.621.975 4.027 1.536 1.407.562 2.89 1.173 4.452 1.832 1.562.66 3.082 1.323 4.561 1.989 1.48.666 2.912 1.345 4.3 2.037 1.386.692 2.786 1.381 4.2 2.068a85.333 85.333 0 0 1 4.07 2.113c1.924 1.067 4.068 2.416 6.433 4.047M320.707 367.335c-.115.015-.17-.019-.168-.1.002-.058.165-.15.488-.277.324-.128.646-.263.967-.405.322-.142.611-.282.87-.418.258-.137.579-.294.96-.47a22.01 22.01 0 0 1 1.07-.465c.332-.132.771-.304 1.316-.515.546-.21 1.005-.394 1.377-.55.373-.156.962-.377 1.768-.662.806-.284 1.631-.585 2.476-.902.844-.317 1.766-.663 2.765-1.036a163.21 163.21 0 0 1 2.98-1.083c.989-.348 1.959-.67 2.91-.966.951-.296 1.943-.601 2.974-.915a104.99 104.99 0 0 0 2.935-.939c.925-.311 1.846-.63 2.765-.953.918-.324 1.825-.653 2.72-.988a121.56 121.56 0 0 1 3.8-1.322c1.637-.546 2.778-.908 3.423-1.084a14.056 14.056 0 0 1 2.98-.475M319.645 409.972c.138-.003.278-.097.42-.282.141-.184.371-.521.689-1.011.317-.49.59-.899.821-1.227.23-.329.495-.733.793-1.214.298-.48.673-1.073 1.125-1.779a30.17 30.17 0 0 1 1.564-2.203 59.707 59.707 0 0 0 1.788-2.438 61.89 61.89 0 0 1 1.99-2.689c.726-.93 1.483-1.9 2.271-2.913.788-1.012 1.63-2.073 2.526-3.182.895-1.109 1.5-1.845 1.81-2.21.312-.363.597-.699.855-1.006.257-.307.623-.772 1.095-1.394.473-.621.825-1.072 1.056-1.351.23-.28.73-.86 1.5-1.74s1.627-1.898 2.573-3.056c.946-1.158 1.931-2.352 2.954-3.582a132.119 132.119 0 0 1 3.193-3.696 360.316 360.316 0 0 0 3.103-3.507 269.403 269.403 0 0 1 2.875-3.24 479.211 479.211 0 0 1 2.785-3.063c.904-.985 1.765-1.91 2.583-2.777a85.556 85.556 0 0 1 2.375-2.421 63.425 63.425 0 0 1 1.996-1.882c.864-.772 1.655-1.392 2.374-1.86" style="fill:none;stroke:#7ec636;stroke-width:2.07874;stroke-linecap:round;stroke-linejoin:round;stroke-miterlimit:10;stroke-dasharray:none;stroke-opacity:1" transform="matrix(.72727 0 0 .72727 -147.136 -228.823)"/><path d="M318.433 330.389c-.072-.123-.087-.171-.046-.146l.224.14c.12.074.276.189.47.345a24.359 24.359 0 0 1 1.737 1.541c.4.388.826.835 1.274 1.34.449.505.964 1.05 1.547 1.633.582.584 1.228 1.242 1.939 1.975.71.733 1.419 1.487 2.125 2.262.706.775 1.457 1.594 2.251 2.458a99.119 99.119 0 0 1 2.363 2.664c.78.913 1.571 1.827 2.373 2.745a71.948 71.948 0 0 1 2.269 2.724 81.45 81.45 0 0 0 2.265 2.736c.8.926 1.542 1.843 2.225 2.752.684.91 1.436 1.826 2.254 2.752a53.657 53.657 0 0 1 2.35 2.846 68.814 68.814 0 0 0 2.28 2.81 58.259 58.259 0 0 1 2.226 2.765c.713.942 1.468 1.907 2.267 2.894.8.987 1.565 1.951 2.298 2.893.734.941 1.5 1.903 2.302 2.886.8.983 1.59 1.961 2.367 2.933.777.973 1.523 1.92 2.236 2.844.712.923 1.367 1.797 1.962 2.623a24.579 24.579 0 0 1 1.427 2.18c.531.935 1.113 1.946 1.745 3.032M321.105 410.64c.434-.106 1.08-.318 1.94-.636.544-.202 1.04-.384 1.489-.546a87.07 87.07 0 0 0 1.486-.555c.542-.208 1.149-.433 1.82-.675a47.51 47.51 0 0 1 2.24-.74c.823-.252 1.713-.518 2.67-.8.956-.283 1.968-.578 3.036-.885 1.068-.308 2.189-.624 3.361-.948 1.173-.325 2.377-.648 3.613-.969 1.237-.32 2.507-.635 3.812-.942 1.304-.307 2.586-.613 3.844-.92 1.258-.305 2.519-.62 3.782-.944a581.214 581.214 0 0 0 7.111-1.884c1.033-.282 1.98-.528 2.843-.738a89.442 89.442 0 0 1 4.572-.965M320.642 368.02c-.094-.349-.034-.502.179-.46.153.03.334.095.543.195.208.1.584.31 1.126.628.543.318 1.062.601 1.558.85a41.842 41.842 0 0 1 3.597 2.044c.657.417 1.402.861 2.236 1.334.834.472 1.697.974 2.588 1.506a692.49 692.49 0 0 1 2.783 1.668c.965.582 1.983 1.183 3.056 1.805 1.073.621 1.987 1.166 2.743 1.633l1.66 1.022c.35.215.937.553 1.758 1.014.821.46 1.35.763 1.588.907.236.145.48.286.73.425s.79.423 1.62.853c.83.43 1.732.931 2.705 1.505.974.575 1.698.987 2.175 1.237.476.25.938.487 1.385.713a130.05 130.05 0 0 0 4.487 2.133c.873.396 1.667.75 2.38 1.065.713.315 1.328.572 1.843.772.79.306 1.464.573 2.025.803" style="fill:none;stroke:#7ec636;stroke-width:2.07874;stroke-linecap:round;stroke-linejoin:round;stroke-miterlimit:10;stroke-dasharray:none;stroke-opacity:1" transform="matrix(.72727 0 0 .72727 -147.136 -228.823)"/><path d="M228.885 441.57a38.656 38.656 0 0 1 3.179.067M238.64 441.635c.1-.059.316-.088.649-.088.298 0 .95.047 1.96.141M247.866 441.373c-.044-.063-.016-.105.084-.127.073-.016.297-.022.672-.018a5.271 5.271 0 0 1 1.527.224M255.759 441.284c.78-.033 1.67-.058 2.668-.073M264.35 440.877c.429-.02.829-.025 1.202-.016.361.009 1.031.06 2.01.153M273.364 440.575c.006-.07.085-.114.236-.13.216-.023 1.15.005 2.803.082M281.053 439.883a32.532 32.532 0 0 1 3.138-.04" style="fill:none;stroke:#ffd300;stroke-width:2.07874;stroke-linecap:round;stroke-linejoin:round;stroke-miterlimit:10;stroke-dasharray:none;stroke-opacity:1" transform="matrix(.72727 0 0 .72727 -116.286 -295.923)"/><path d="M228.885 441.57a38.656 38.656 0 0 1 3.179.067M238.64 441.635c.1-.059.316-.088.649-.088.298 0 .95.047 1.96.141M247.866 441.373c-.044-.063-.016-.105.084-.127.073-.016.297-.022.672-.018a5.271 5.271 0 0 1 1.527.224M255.759 441.284c.78-.033 1.67-.058 2.668-.073M264.35 440.877c.429-.02.829-.025 1.202-.016.361.009 1.031.06 2.01.153M273.364 440.575c.006-.07.085-.114.236-.13.216-.023 1.15.005 2.803.082M281.053 439.883a32.532 32.532 0 0 1 3.138-.04" style="fill:none;stroke:#ffd300;stroke-width:2.07874;stroke-linecap:round;stroke-linejoin:round;stroke-miterlimit:10;stroke-dasharray:none;stroke-opacity:1" transform="matrix(.72727 0 0 .72727 -116.584 -264.696)"/><path d="M222.697 485.101c-.078.11-.287.166-.626.169-.5.005-1.077-.04-1.728-.137M214.154 485.702c-.596.101-1.876.006-3.841-.285M223.964 441.882c-.257.166-.57.278-.936.337-.53.084-1.57.04-3.122-.133M213.918 442.475c.177.175.242.303.194.384-.033.057-.121.095-.263.116a4.7 4.7 0 0 1-.588.033c-.36.003-1.145-.19-2.354-.577" style="fill:none;stroke:#ffd300;stroke-width:2.07874;stroke-linecap:round;stroke-linejoin:round;stroke-miterlimit:10;stroke-dasharray:none;stroke-opacity:1" transform="matrix(.72727 0 0 .72727 -116.286 -295.923)"/><path d="M274.91 483.683a.957.957 0 0 0-.323-.088 9.368 9.368 0 0 0-.887-.037c-.447-.006-.82-.004-1.115.004-.296.008-.462.043-.497.104a.755.755 0 0 0-.076.275c-.016.122-.025.61-.028 1.462-.003.853.001 1.418.012 1.695.01.277.025.567.044.87.019.304.045.774.077 1.409.033.635.06 1.116.083 1.444a48.03 48.03 0 0 1 .111 2.694c.003.277.02.708.052 1.29.031.584.047 1.052.047 1.404 0 .353-.002.58-.008.68-.006.1-.018.198-.039.292-.02.094-.064.226-.133.397-.068.17-.078.265-.03.284.05.019.354.025.915.017.56-.007 1.072-.01 1.534-.01.714.001 1.297.024 1.749.067" style="fill:none;stroke:#fff;stroke-width:1.31104;stroke-linecap:round;stroke-linejoin:round;stroke-miterlimit:10;stroke-dasharray:none;stroke-opacity:1" transform="matrix(.72727 0 0 .72727 -161.78 -346.024)"/><path d="M281.622 498.344c.088.026.532.04 1.332.042.8.002 1.536.033 2.207.094M285.433 497.946c.01-.312.017-.643.018-.993a76.974 76.974 0 0 0-.054-2.71c-.02-.513-.034-.904-.041-1.17a18.225 18.225 0 0 0-.102-1.535 37.369 37.369 0 0 1-.077-.786 20.578 20.578 0 0 1-.056-.878 70.54 70.54 0 0 1-.06-1.956c-.007-.494-.01-1.555-.007-3.183M280.661 483.826l-.057-.007h.005l.11.003c.069.002.147.012.235.03.089.017.23.038.425.064.195.026.54.05 1.036.075.496.024.88.06 1.151.107.404.07.849.176 1.337.318" style="fill:none;stroke:#fff;stroke-width:1.49833;stroke-linecap:round;stroke-linejoin:round;stroke-miterlimit:10;stroke-dasharray:none;stroke-opacity:1" transform="matrix(.72727 0 0 .72727 -161.78 -346.024)"/><path d="M278.753 489.238a.928.928 0 0 1 .035-.435c.03-.08.002-.159-.085-.238a1.02 1.02 0 0 0-.263-.179 1.148 1.148 0 0 0-.31-.086 2.843 2.843 0 0 0-.378-.029 1.524 1.524 0 0 0-.397.047c-.13.032-.25.085-.363.158-.112.073-.21.164-.29.275-.081.11-.15.245-.208.406a2.96 2.96 0 0 0-.136.558 6.363 6.363 0 0 0-.062.718c-.01.267-.014.544-.012.833a4.8 4.8 0 0 0 .078.839c.05.27.12.53.207.776.089.247.197.465.325.656.129.19.27.35.426.482.155.132.32.237.495.317.175.08.354.133.537.162.183.028.36.038.531.031a.898.898 0 0 0 .481-.167c.15-.104.293-.242.427-.415.135-.173.255-.354.361-.543a2.62 2.62 0 0 0 .245-.606c.058-.215.094-.445.11-.689.016-.244.023-.51.02-.795a4.86 4.86 0 0 0-.077-.84 6.602 6.602 0 0 0-.193-.786 7.379 7.379 0 0 0-.238-.661 2.247 2.247 0 0 0-.257-.47 1.17 1.17 0 0 0-.295-.286c-.152-.099-.431-.178-.836-.236" style="fill:none;stroke:#007aff;stroke-width:1.55905;stroke-linecap:round;stroke-linejoin:round;stroke-miterlimit:10;stroke-dasharray:none;stroke-opacity:1" transform="matrix(.72727 0 0 .72727 -161.78 -346.024)"/><path d="M361.716 484.36a.957.957 0 0 0-.322-.087 9.368 9.368 0 0 0-.887-.037c-.448-.006-.82-.004-1.116.004-.296.008-.461.043-.497.104a.757.757 0 0 0-.076.275c-.016.122-.025.61-.028 1.462-.003.853.001 1.418.012 1.695.01.277.025.567.044.87.02.304.045.774.078 1.409.032.635.06 1.116.082 1.444a48.03 48.03 0 0 1 .112 2.694c.003.277.02.708.051 1.29.031.584.047 1.052.047 1.404 0 .353-.002.58-.008.68-.005.1-.018.198-.038.292-.02.094-.065.226-.133.397-.07.17-.08.265-.03.284.049.019.353.025.914.017.561-.007 1.072-.01 1.534-.01.714.001 1.297.024 1.75.067" style="fill:none;stroke:#fff;stroke-width:1.31104;stroke-linecap:round;stroke-linejoin:round;stroke-miterlimit:10;stroke-dasharray:none;stroke-opacity:1" transform="matrix(.72727 0 0 .72727 -225.844 -315.671)"/><path d="M368.429 499.022c.087.026.531.04 1.332.043.8.002 1.535.033 2.206.093M372.24 498.624c.01-.312.016-.643.017-.993a76.998 76.998 0 0 0-.054-2.71c-.02-.513-.033-.904-.041-1.17a18.054 18.054 0 0 0-.102-1.535 37.369 37.369 0 0 1-.077-.786 20.583 20.583 0 0 1-.056-.878 70.542 70.542 0 0 1-.059-1.956c-.008-.494-.01-1.555-.008-3.183M367.467 484.504l-.056-.007h.004l.11.003c.069.002.148.012.236.03.088.017.23.038.425.064.195.026.54.051 1.036.075.495.024.879.06 1.15.107.404.07.85.176 1.337.318" style="fill:none;stroke:#fff;stroke-width:1.49833;stroke-linecap:round;stroke-linejoin:round;stroke-miterlimit:10;stroke-dasharray:none;stroke-opacity:1" transform="matrix(.72727 0 0 .72727 -225.844 -315.671)"/><path d="M445.726 483.886a.956.956 0 0 0-.322-.088 9.441 9.441 0 0 0-.887-.037 28.23 28.23 0 0 0-1.115.004c-.296.008-.462.043-.497.104a.755.755 0 0 0-.077.275c-.015.122-.024.61-.027 1.463-.003.853 0 1.417.011 1.694.01.277.026.568.045.871.019.304.045.773.077 1.408.033.635.06 1.117.083 1.444a49.56 49.56 0 0 1 .111 2.694c.003.277.02.708.052 1.291.03.584.047 1.051.047 1.404 0 .352-.002.579-.008.68-.006.1-.019.197-.039.291-.02.094-.064.227-.133.397s-.079.265-.03.284c.049.02.354.025.915.018.56-.007 1.072-.01 1.534-.01.714 0 1.297.023 1.749.067" style="fill:none;stroke:#fff;stroke-width:1.31104;stroke-linecap:round;stroke-linejoin:round;stroke-miterlimit:10;stroke-dasharray:none;stroke-opacity:1" transform="matrix(.72727 0 0 .72727 -286.794 -286.433)"/><path d="M452.44 498.547c.087.027.531.04 1.331.043.8.002 1.536.033 2.207.093M456.25 498.15c.01-.312.017-.643.018-.993a76.974 76.974 0 0 0-.054-2.71c-.02-.514-.034-.904-.041-1.171a18.225 18.225 0 0 0-.102-1.535 38.119 38.119 0 0 1-.077-.785 20.589 20.589 0 0 1-.057-.879 72.16 72.16 0 0 1-.058-1.956 234.96 234.96 0 0 1-.008-3.183M451.478 484.03l-.057-.007h.005c.004 0 .04 0 .11.003.068.002.147.011.235.029.088.017.23.039.425.064.195.026.54.051 1.036.075s.88.06 1.151.107c.403.07.849.177 1.337.318" style="fill:none;stroke:#fff;stroke-width:1.49833;stroke-linecap:round;stroke-linejoin:round;stroke-miterlimit:10;stroke-dasharray:none;stroke-opacity:1" transform="matrix(.72727 0 0 .72727 -286.794 -286.433)"/><path d="M365.45 488.679a9.932 9.932 0 0 0-.188 1.994c0 .244.004.506.013.785.009.28.03.574.06.883.032.309.05.62.056.934.006.314.003.54-.01.677-.018.195-.003.852.043 1.97" style="fill:none;stroke:#007aff;stroke-width:1.55905;stroke-linecap:round;stroke-linejoin:round;stroke-miterlimit:10;stroke-dasharray:none;stroke-opacity:1" transform="matrix(.72727 0 0 .72727 -225.844 -315.671)"/><path d="M448.058 488.784c-.1.059-.156.014-.169-.133a1.64 1.64 0 0 1 .036-.48c.036-.171.09-.316.16-.433.069-.117.15-.226.244-.327.093-.1.196-.192.31-.275.114-.082.2-.139.26-.169.059-.03.173-.064.342-.103.168-.038.304-.057.407-.058.103 0 .193.03.27.094a.914.914 0 0 1 .214.275c.065.12.123.335.174.642.05.307.077.634.08.98.004.347-.018.669-.064.966a7.507 7.507 0 0 1-.156.767 4.028 4.028 0 0 1-.23.636c-.095.209-.214.427-.357.653a11.93 11.93 0 0 1-.488.713 8.699 8.699 0 0 1-.571.698c-.198.217-.37.393-.517.528-.147.135-.297.251-.45.347-.154.096-.28.156-.379.182-.099.025-.144.013-.136-.037.008-.05.047-.112.117-.186.07-.075.159-.144.265-.208a.966.966 0 0 1 .365-.125c.137-.02.272-.015.405.013a.87.87 0 0 1 .388.205c.127.109.254.243.383.403.128.16.259.313.391.459.133.146.272.272.417.379.146.106.284.184.416.23.13.048.257.076.38.084a.676.676 0 0 0 .356-.076c.165-.084.498-.353.997-.807" style="fill:none;stroke:#007aff;stroke-width:1.55905;stroke-linecap:round;stroke-linejoin:round;stroke-miterlimit:10;stroke-dasharray:none;stroke-opacity:1" transform="matrix(.72727 0 0 .72727 -286.794 -286.433)"/><path d="M223.58 338.906c.057-.316.137-.68.24-1.093.104-.413.184-.772.242-1.077.057-.306.117-.666.178-1.082a22.182 22.182 0 0 0 .227-2.444c.01-.355.013-.63.007-.825-.006-.194-.027-.317-.064-.37-.036-.053-.081-.06-.135-.022-.054.038-.113.195-.178.47a6.294 6.294 0 0 0-.132 1.067c-.024.435-.024.914 0 1.435.025.522.08 1.114.165 1.776.085.662.232 1.513.442 2.551.21 1.038.354 1.683.433 1.933.08.25.148.407.205.472.057.064.102.018.134-.138.032-.156.059-.439.079-.85.02-.41.058-.833.113-1.27.056-.435.149-.902.28-1.4.131-.497.281-.972.45-1.423.169-.451.34-.819.517-1.103.176-.284.341-.483.495-.598.153-.115.296-.16.428-.134.132.024.24.131.326.32.086.187.149.463.188.827.039.364.063.79.073 1.278.01.487.03.983.057 1.486.028.504.083.99.165 1.458.083.468.197.836.345 1.106.147.27.32.432.517.489.198.056.387.009.57-.141.182-.15.329-.416.44-.795.111-.38.177-.698.199-.955a9.56 9.56 0 0 0 .035-.579.915.915 0 0 0-.057-.347c-.06-.154-.143-.257-.25-.309M233.102 338.41h-.113c-.002 0 0 0 .006-.004l.185-.08c.117-.05.237-.14.36-.268.123-.127.242-.297.356-.51a3.33 3.33 0 0 0 .28-.713 3.64 3.64 0 0 0 .127-.733 2.202 2.202 0 0 0-.012-.5c-.02-.11-.112-.192-.274-.25-.161-.058-.355-.053-.58.015-.226.067-.46.199-.7.395a3.274 3.274 0 0 0-.633.686 3.977 3.977 0 0 0-.68 1.81 6.22 6.22 0 0 0-.028 1.152c.025.42.112.835.26 1.245.15.41.35.765.605 1.065.254.3.546.51.876.628.33.12.659.14.987.063.329-.077.627-.272.896-.585a3.8 3.8 0 0 0 .637-1.04c.241-.589.39-1.07.444-1.444M237.7 336.22a1.71 1.71 0 0 0-.043-.662c-.038-.128-.075-.204-.111-.226-.037-.022-.085-.025-.145-.007-.06.018-.126.102-.198.253-.072.152-.137.384-.193.697a7.78 7.78 0 0 0-.104 1.14c-.013.446.01.91.07 1.392.058.483.18.972.365 1.468.185.497.41.91.677 1.242.267.332.547.556.84.672.292.116.584.126.875.028.292-.098.55-.358.775-.779a4.31 4.31 0 0 0 .45-1.442c.075-.54.12-1.011.135-1.413a6.644 6.644 0 0 0-.225-1.899M244.458 341.914v.18l-.002-.008c0-.007-.016-.082-.044-.225-.028-.143-.08-.37-.157-.681-.077-.312-.163-.655-.26-1.032a23.932 23.932 0 0 1-.264-1.142c-.079-.386-.149-.789-.21-1.209-.061-.42-.105-.762-.131-1.027a8.43 8.43 0 0 1-.044-.714c-.003-.21.043-.362.14-.453.096-.092.397-.174.903-.246a29.51 29.51 0 0 1 1.225-.155c.45-.044 1.164-.054 2.138-.028M251.393 336.728c.077-.02.118-.08.124-.183a.682.682 0 0 0-.026-.256.543.543 0 0 0-.143-.206 1.457 1.457 0 0 0-.269-.2 1.218 1.218 0 0 0-.35-.14 1.487 1.487 0 0 0-.408-.033c-.145.007-.3.08-.464.22-.163.14-.33.355-.5.644-.169.289-.313.627-.433 1.014a4.84 4.84 0 0 0-.207 1.212c-.019.42.039.867.173 1.34.134.473.319.883.555 1.23a2.132 2.132 0 0 0 1.902.964c.362-.017.704-.176 1.026-.476.322-.3.582-.717.78-1.248.198-.53.33-1.063.395-1.597a6.565 6.565 0 0 0 .035-1.444c-.042-.429-.157-.764-.344-1.005a1.205 1.205 0 0 0-.677-.458c-.387-.094-.858-.064-1.413.09M256.268 336.363c-.051-.205-.08-.316-.083-.333-.003-.012-.005-.006-.006.02l-.01.363c-.006.218-.01.677-.01 1.376a75.562 75.562 0 0 0 .05 2.918c.015.388.03.712.043.973.014.26.03.454.05.58l.03.201.001-.053.001-1.001c0-.623.007-1.17.02-1.64a9.24 9.24 0 0 1 .132-1.336c.074-.422.17-.83.286-1.224.117-.394.256-.732.416-1.013.161-.282.34-.485.535-.609.196-.124.392-.19.587-.2.196-.008.36.075.491.25.132.174.225.446.278.815.053.37.087.806.103 1.31.015.505.027 1.056.035 1.654.008.598.035 1.142.083 1.633.047.491.136.868.267 1.13.13.261.277.42.44.476.162.056.329.042.501-.042.173-.084.339-.236.498-.457.233-.322.442-.806.625-1.452M264.078 336.154a.611.611 0 0 0 .183-.29 1.74 1.74 0 0 0 .076-.369c.018-.156-.001-.256-.058-.3-.057-.045-.15-.06-.278-.044-.128.016-.274.11-.436.285a2.79 2.79 0 0 0-.456.716 3.71 3.71 0 0 0-.294.883c-.054.286-.07.517-.05.694a.54.54 0 0 0 .25.408c.145.095.338.172.577.23.24.06.526.12.858.178.333.058.673.134 1.022.226.35.092.657.214.924.366s.455.354.565.605c.11.25.135.546.076.886-.059.34-.229.675-.51 1.004-.282.33-.622.615-1.022.857-.584.353-1.093.388-1.527.105" style="fill:none;stroke:#fff;stroke-width:1.29921;stroke-linecap:round;stroke-linejoin:round;stroke-miterlimit:10;stroke-dasharray:none;stroke-opacity:1" transform="matrix(.72727 0 0 .72727 -161.368 -235.774)"/><path d="M160.543 463.185c.057-.316.137-.68.24-1.094.104-.413.184-.772.241-1.077.058-.305.117-.666.18-1.081a22.171 22.171 0 0 0 .226-2.445c.01-.355.013-.63.007-.824-.006-.195-.028-.318-.064-.37-.037-.054-.082-.061-.135-.023-.054.038-.113.195-.178.47a6.316 6.316 0 0 0-.133 1.067c-.023.436-.023.914.001 1.436.024.521.08 1.113.164 1.775.086.663.233 1.513.443 2.551.21 1.039.354 1.683.433 1.933.08.25.147.408.205.472.057.064.101.018.134-.138a6.53 6.53 0 0 0 .079-.849c.02-.41.058-.834.113-1.27.055-.436.149-.903.28-1.4.131-.498.281-.972.45-1.424.168-.45.34-.818.517-1.103.176-.284.341-.483.495-.598.153-.114.296-.159.428-.134.131.025.24.131.326.32.086.188.148.464.187.828.04.364.064.79.074 1.277.01.488.03.983.057 1.487.027.503.082.989.165 1.457.082.468.197.837.344 1.106.148.27.32.433.518.489.197.056.387.009.57-.141.182-.15.328-.415.44-.795a4.99 4.99 0 0 0 .198-.955c.022-.257.033-.45.035-.578a.917.917 0 0 0-.056-.348c-.06-.153-.143-.256-.251-.308M170.064 462.688h-.112c-.002 0 0 0 .006-.004l.185-.08c.117-.05.237-.14.36-.267.123-.128.241-.298.356-.51.115-.212.208-.45.28-.714.07-.263.114-.508.127-.733a2.194 2.194 0 0 0-.012-.5c-.021-.109-.113-.192-.274-.25-.162-.057-.355-.053-.58.015-.226.067-.46.2-.701.395a3.268 3.268 0 0 0-.632.686 3.98 3.98 0 0 0-.68 1.81 6.229 6.229 0 0 0-.028 1.152c.025.42.112.835.26 1.245.15.41.35.765.604 1.065.254.3.546.51.876.629.33.119.66.14.988.062.328-.077.627-.272.896-.585.268-.313.48-.66.636-1.04.242-.589.39-1.07.445-1.444M174.663 460.498a1.71 1.71 0 0 0-.043-.662c-.038-.128-.075-.203-.112-.226-.036-.022-.084-.024-.144-.007-.06.018-.126.102-.198.254-.073.15-.137.383-.193.696a7.793 7.793 0 0 0-.104 1.14c-.013.446.01.91.07 1.392.058.483.18.972.365 1.469.184.496.41.91.677 1.242.267.331.547.555.84.671.291.117.583.126.875.028.292-.098.55-.357.775-.779a4.31 4.31 0 0 0 .45-1.442c.075-.54.12-1.01.135-1.413a6.647 6.647 0 0 0-.226-1.898M181.421 466.192a220.246 220.246 0 0 1-.002.173l-.045-.226c-.028-.142-.08-.37-.156-.68a98.026 98.026 0 0 0-.26-1.032 23.932 23.932 0 0 1-.264-1.143c-.08-.386-.15-.789-.21-1.209-.061-.42-.105-.762-.132-1.027a8.43 8.43 0 0 1-.044-.713c-.003-.211.044-.363.14-.454.096-.091.398-.173.904-.246a29.51 29.51 0 0 1 1.225-.154c.45-.045 1.163-.054 2.138-.028M188.356 461.007c.076-.02.118-.081.124-.184a.682.682 0 0 0-.026-.255.542.542 0 0 0-.143-.207 1.456 1.456 0 0 0-.269-.2 1.219 1.219 0 0 0-.35-.14 1.488 1.488 0 0 0-.408-.033c-.145.007-.3.08-.464.22-.163.141-.33.356-.5.644-.17.29-.313.627-.433 1.015-.12.387-.188.791-.207 1.211-.02.42.038.867.172 1.34.134.474.32.883.556 1.23a2.131 2.131 0 0 0 1.902.964c.362-.017.704-.175 1.026-.476.322-.3.582-.716.78-1.247.197-.531.33-1.064.395-1.598a6.565 6.565 0 0 0 .035-1.444c-.042-.428-.157-.763-.344-1.005a1.205 1.205 0 0 0-.677-.458c-.387-.094-.858-.064-1.414.09M193.23 460.642c-.05-.206-.078-.317-.083-.334-.003-.012-.005-.006-.006.02l-.01.364c-.006.217-.009.676-.01 1.376 0 .7.005 1.264.015 1.692a94.178 94.178 0 0 0 .079 2.198c.014.261.03.454.049.58l.03.201c.001.01.002-.009.002-.053v-1.001c.001-.623.008-1.17.022-1.64.013-.469.057-.914.13-1.336.075-.421.17-.83.287-1.223.116-.395.255-.733.416-1.014.161-.281.34-.484.535-.608.196-.125.392-.191.587-.2.195-.01.359.074.491.249s.225.447.278.816c.053.369.087.805.102 1.31.016.504.027 1.056.035 1.653.008.598.036 1.142.083 1.633.048.491.137.868.268 1.13.13.261.277.42.439.476.162.056.33.042.502-.042.173-.084.339-.236.498-.456.233-.323.441-.807.624-1.453M201.04 460.432a.611.611 0 0 0 .184-.29c.032-.09.057-.213.075-.369.019-.156 0-.256-.058-.3-.056-.045-.149-.059-.277-.043-.129.015-.274.11-.436.284a2.79 2.79 0 0 0-.456.716c-.142.303-.24.597-.294.883-.054.286-.07.517-.05.695a.539.539 0 0 0 .25.408c.145.094.337.17.577.23.24.06.525.118.858.177.333.059.673.134 1.022.226s.657.214.924.366.455.354.564.605c.11.25.135.546.077.886-.059.34-.229.675-.51 1.005a4.17 4.17 0 0 1-1.022.856c-.584.354-1.093.389-1.527.105M161.04 504.786c.057-.316.137-.68.24-1.094.104-.412.184-.772.242-1.077.057-.305.116-.666.178-1.081a22.182 22.182 0 0 0 .227-2.445c.01-.355.013-.63.008-.824-.006-.194-.027-.318-.064-.37-.036-.053-.082-.06-.135-.023-.054.038-.113.195-.178.47a6.315 6.315 0 0 0-.132 1.067c-.024.436-.024.914 0 1.436.025.522.08 1.113.165 1.776.085.662.232 1.512.442 2.55.21 1.039.354 1.683.433 1.933.08.25.148.408.205.472.057.064.102.018.134-.137.032-.156.059-.44.079-.85.02-.41.058-.834.113-1.27.055-.436.149-.902.28-1.4.131-.498.281-.972.45-1.423.168-.452.34-.82.517-1.103.176-.285.341-.484.495-.598.153-.115.296-.16.428-.135.132.025.24.131.326.32.086.188.149.464.188.828.039.364.063.79.073 1.277.01.488.03.983.057 1.487.027.503.082.989.165 1.457.082.468.197.837.345 1.106.147.27.32.433.517.489.197.056.387.009.57-.141.182-.15.329-.415.44-.795.11-.379.177-.697.199-.954.02-.258.032-.45.035-.58a.917.917 0 0 0-.057-.346c-.06-.154-.143-.257-.25-.31M170.562 504.29h-.113c-.002 0 0-.001.006-.004l.185-.08c.117-.051.237-.14.36-.268s.241-.298.356-.51a3.33 3.33 0 0 0 .28-.713c.071-.264.114-.509.127-.734a2.195 2.195 0 0 0-.012-.5c-.021-.109-.112-.192-.274-.25-.162-.057-.355-.053-.58.015-.226.067-.46.2-.7.395a3.27 3.27 0 0 0-.633.687 3.979 3.979 0 0 0-.68 1.809 6.221 6.221 0 0 0-.028 1.152c.025.42.112.835.26 1.245.15.41.35.765.605 1.065.253.3.545.51.876.629.33.119.659.14.987.062.328-.077.627-.272.896-.585.269-.313.48-.66.637-1.04.241-.588.39-1.07.444-1.444M175.16 502.099a1.71 1.71 0 0 0-.043-.662c-.038-.128-.075-.203-.111-.226-.037-.022-.085-.024-.145-.007-.06.018-.126.103-.198.254-.072.151-.137.383-.193.697a7.795 7.795 0 0 0-.104 1.139c-.013.446.01.91.07 1.393.058.482.18.971.365 1.468.185.496.41.91.677 1.242.267.331.547.555.84.672.292.116.584.125.875.027.292-.098.55-.357.775-.778a4.31 4.31 0 0 0 .45-1.442c.075-.54.12-1.012.135-1.414a6.648 6.648 0 0 0-.225-1.898M181.918 507.793a220.459 220.459 0 0 1-.002.173c0-.007-.016-.083-.044-.226-.029-.142-.08-.37-.157-.68a97.864 97.864 0 0 0-.26-1.032 23.904 23.904 0 0 1-.264-1.143c-.079-.386-.149-.788-.21-1.208-.061-.42-.105-.763-.131-1.027a8.431 8.431 0 0 1-.044-.714c-.003-.211.043-.363.14-.454.095-.091.397-.173.903-.246.507-.072.915-.124 1.225-.154.45-.045 1.164-.054 2.138-.028M188.853 502.608c.077-.02.118-.081.124-.183a.681.681 0 0 0-.026-.256.542.542 0 0 0-.143-.207 1.46 1.46 0 0 0-.269-.2 1.216 1.216 0 0 0-.35-.14 1.48 1.48 0 0 0-.408-.033c-.145.007-.3.08-.464.221-.163.14-.33.355-.5.643-.169.29-.313.627-.433 1.015-.119.387-.188.791-.207 1.211-.019.42.039.867.173 1.34.134.474.319.884.555 1.23a2.131 2.131 0 0 0 1.902.964c.362-.017.704-.175 1.026-.476.322-.3.582-.716.78-1.247.198-.531.33-1.064.395-1.598a6.57 6.57 0 0 0 .035-1.444c-.042-.428-.157-.763-.344-1.005a1.206 1.206 0 0 0-.677-.458c-.387-.094-.858-.064-1.413.091M193.728 502.243c-.051-.205-.08-.317-.083-.334-.003-.012-.005-.006-.006.02l-.01.364c-.006.217-.01.676-.01 1.376a70.555 70.555 0 0 0 .094 3.89c.014.261.03.454.05.58l.03.201.001-.053.001-1.001c0-.623.008-1.17.02-1.639.014-.47.058-.915.132-1.337.074-.421.17-.829.286-1.223a4.78 4.78 0 0 1 .416-1.014c.161-.281.34-.484.535-.608.196-.125.392-.191.587-.2.195-.01.36.074.491.249.132.175.225.447.278.816.053.369.087.806.103 1.31.015.505.027 1.056.034 1.653.008.598.036 1.142.084 1.634.047.49.136.867.267 1.129.13.262.277.42.44.477.161.056.329.042.501-.042.173-.084.339-.237.498-.457.233-.323.441-.807.625-1.453M201.538 502.033a.611.611 0 0 0 .183-.289 1.74 1.74 0 0 0 .076-.37c.018-.156-.001-.256-.058-.3-.057-.044-.15-.059-.278-.043-.129.015-.274.11-.436.285a2.79 2.79 0 0 0-.456.715c-.142.303-.24.597-.294.883-.054.286-.07.517-.05.695a.539.539 0 0 0 .25.408c.145.094.338.171.577.23.24.06.526.118.858.177.333.059.674.134 1.022.226.35.092.657.214.924.366.267.153.455.354.565.605.11.25.135.546.076.886-.059.34-.229.676-.51 1.005-.282.33-.622.615-1.022.856-.584.354-1.093.389-1.527.105" style="fill:none;stroke:#fff;stroke-width:1.29921;stroke-linecap:round;stroke-linejoin:round;stroke-miterlimit:10;stroke-dasharray:none;stroke-opacity:1" transform="matrix(.72727 0 0 .72727 -116.286 -295.923)"/></svg>