<svg xmlns="http://www.w3.org/2000/svg" width="96.526" height="88.293"><path d="M339.622 139.848a2.16 2.16 0 0 0-.146-.715c-.059-.149-.188-.313-.388-.494-.2-.18-.448-.356-.743-.526-.296-.17-.62-.336-.975-.498a6.52 6.52 0 0 0-2.531-.577c-.496-.017-1.055.072-1.676.265-.621.194-1.288.46-2 .797a41.33 41.33 0 0 0-2.205 1.13c-.759.417-1.522.892-2.29 1.425a29.327 29.327 0 0 0-2.255 1.735 42.83 42.83 0 0 0-2.208 2.015 27.847 27.847 0 0 0-2.083 2.273 17.818 17.818 0 0 0-1.747 2.559c-.512.91-.953 1.837-1.322 2.78-.37.944-.63 1.91-.783 2.9-.152.99-.21 2.063-.174 3.217.036 1.154.228 2.33.577 3.53.35 1.198.842 2.522 1.478 3.971a29.574 29.574 0 0 0 2.274 4.211 49.676 49.676 0 0 0 2.828 3.93 29.534 29.534 0 0 0 3.134 3.385 18.647 18.647 0 0 0 3.37 2.483 16.014 16.014 0 0 0 3.61 1.515c1.242.348 2.252.549 3.029.602.776.054 2.065-.096 3.867-.45 1.802-.353 3.343-.858 4.622-1.515a19.303 19.303 0 0 0 3.649-2.448 24.777 24.777 0 0 0 3.289-3.4 62.96 62.96 0 0 0 2.831-3.787 23.158 23.158 0 0 0 2.212-4.052 24.174 24.174 0 0 0 1.4-4.306 22.4 22.4 0 0 0 .506-4.343c.03-1.492-.13-3.02-.481-4.585-.351-1.566-.808-2.99-1.37-4.273a16.547 16.547 0 0 0-2.078-3.514 23.983 23.983 0 0 0-2.698-2.94 16.76 16.76 0 0 0-3.078-2.267 25.209 25.209 0 0 0-3.255-1.56 16.626 16.626 0 0 0-3.304-.925 14.192 14.192 0 0 0-3.204-.19c-1.515.09-3.252.544-5.21 1.365" style="fill:none;stroke:#007aff;stroke-width:2.92818;stroke-linecap:round;stroke-linejoin:round;stroke-miterlimit:10;stroke-dasharray:none;stroke-opacity:1" transform="matrix(.72727 0 0 .72727 -228.815 -98.598)"/><path d="M367.964 160.798c-1.293-.454-1.906-.576-1.839-.364.047.15.316.32.807.511.49.191 1.157.432 2 .722.844.29 1.8.635 2.871 1.036 1.07.4 2.356.893 3.857 1.476 1.5.584 3.145 1.208 4.933 1.874 1.787.666 3.71 1.371 5.77 2.115 2.058.745 4.22 1.57 6.483 2.473 2.264.904 4.653 1.887 7.167 2.948a340.44 340.44 0 0 1 7.343 3.2 193.524 193.524 0 0 1 6.922 3.278 746.402 746.402 0 0 0 6.762 3.329 137.484 137.484 0 0 1 6.553 3.4c3.098 1.717 6.551 3.888 10.358 6.513M365 160.933c-.115-.197-.14-.275-.073-.234l.36.224c.192.12.444.305.756.556a39.22 39.22 0 0 1 2.796 2.48c.647.625 1.331 1.344 2.054 2.157.722.813 1.552 1.69 2.49 2.63.937.939 1.978 1.998 3.122 3.178a161.208 161.208 0 0 1 3.422 3.64c1.137 1.247 2.346 2.566 3.625 3.956a159.41 159.41 0 0 1 3.804 4.289 545.63 545.63 0 0 0 3.822 4.417 115.55 115.55 0 0 1 3.653 4.385 131.175 131.175 0 0 0 3.648 4.405 84.101 84.101 0 0 1 3.583 4.43 72.026 72.026 0 0 0 3.63 4.428 86.463 86.463 0 0 1 3.783 4.581 111.043 111.043 0 0 0 3.67 4.523 93.769 93.769 0 0 1 3.586 4.45 178.86 178.86 0 0 0 3.65 4.66 316.962 316.962 0 0 1 3.701 4.656 268.387 268.387 0 0 0 3.706 4.646c1.29 1.582 2.56 3.156 3.812 4.721a346.588 346.588 0 0 1 3.6 4.577 161.117 161.117 0 0 1 3.159 4.222c.958 1.329 1.725 2.498 2.3 3.51a520.876 520.876 0 0 0 2.81 4.881" style="fill:none;stroke:#7ec636;stroke-width:3.34649;stroke-linecap:round;stroke-linejoin:round;stroke-miterlimit:10;stroke-dasharray:none;stroke-opacity:1" transform="matrix(.72727 0 0 .72727 -228.815 -98.598)"/><path d="M325.195 158.297a19.37 19.37 0 0 0 .422-1.718c.148-.713.258-1.277.33-1.69.071-.415.137-.847.198-1.297.06-.45.102-.82.125-1.11.023-.29.032-.5.028-.628-.005-.128-.034-.204-.088-.226-.053-.023-.111.006-.173.086-.061.08-.113.25-.156.506a7.342 7.342 0 0 0-.071 1.076c-.004.46.007.968.033 1.521.026.554.05 1.165.073 1.834.023.669.056 1.304.098 1.905s.097 1.106.163 1.514c.067.408.13.717.19.927.06.21.104.338.134.382.03.045.049.004.059-.12.01-.125.002-.488-.025-1.087-.027-.6-.026-1.075.002-1.427.028-.352.09-.687.186-1.005.095-.317.218-.577.366-.778.149-.2.31-.33.485-.386.174-.056.354-.07.54-.038.186.03.372.128.557.294.185.166.356.372.514.618.158.246.292.507.404.783.112.277.185.565.22.864.034.3.019.6-.047.902a2.552 2.552 0 0 1-.364.857 2.905 2.905 0 0 1-1.348 1.11c-.33.12-.517.063-.563-.17M332.492 157.578l-.044-.122c-.003-.01-.007.007-.013.048l-.04.315c-.031.24-.037 1.321-.019 3.244M332.36 154.041l.132.11M337.226 158.222c.074-.126.028-.268-.139-.427a1.843 1.843 0 0 0-.3-.243.685.685 0 0 0-.28-.095 1.153 1.153 0 0 0-.332.015.814.814 0 0 0-.352.166 1.547 1.547 0 0 0-.32.345c-.098.141-.18.3-.246.478a2.215 2.215 0 0 0-.124.625c-.016.24-.01.507.019.803.028.296.096.563.205.802.11.239.24.428.394.568.153.14.325.232.516.276.19.044.402.038.634-.017.231-.056.465-.192.7-.41a4.22 4.22 0 0 0 .603-.683c.166-.237.325-.53.478-.879.154-.349.246-.604.278-.765.032-.16.023-.264-.027-.31-.05-.046-.136-.055-.257-.027a.74.74 0 0 0-.354.217.977.977 0 0 0-.244.445c-.048.18-.06.398-.035.652.025.253.101.515.23.786.128.271.287.534.476.79.19.256.395.434.616.536.316.145.814-.105 1.496-.75M343.969 157.314c.01-.185.012-.325.003-.421-.006-.066-.067-.116-.182-.148-.116-.032-.235.009-.357.125a2.002 2.002 0 0 0-.366.519c-.122.23-.217.478-.285.743a3.652 3.652 0 0 0-.118.757c-.01.238.015.457.073.657.058.2.146.363.265.489a.818.818 0 0 0 .45.243c.18.036.399.037.653.005.254-.033.516-.06.787-.08.27-.02.51.005.72.077a.82.82 0 0 1 .464.366c.1.173.158.344.17.514.014.17-.073.385-.261.648-.188.262-.439.48-.753.653-.314.172-.65.302-1.01.388-.532.128-.996.053-1.394-.226" style="fill:none;stroke:#fff;stroke-width:1.29921;stroke-linecap:round;stroke-linejoin:round;stroke-miterlimit:10;stroke-dasharray:none;stroke-opacity:1" transform="matrix(.72727 0 0 .72727 -228.815 -98.598)"/><path d="m379.684 158.965-.055.112a.076.076 0 0 0 .012-.017l.225-.322c.142-.202.314-.469.518-.801.204-.333.424-.716.662-1.15a21.324 21.324 0 0 0 1.146-2.436c.138-.351.212-.607.222-.767.01-.16-.05-.193-.18-.1-.13.094-.283.29-.457.589a7.546 7.546 0 0 0-.36.675c-.067.15-.191.517-.373 1.097a9.754 9.754 0 0 0-.38 1.865 9.92 9.92 0 0 0-.051 1.77c.038.519.13.906.28 1.162.148.255.323.401.525.438.202.036.434-.023.696-.179.262-.155.507-.324.735-.507.228-.184.415-.368.56-.554.146-.186.246-.343.302-.472.055-.128.042-.219-.041-.271-.083-.053-.196-.03-.338.071-.142.1-.266.244-.37.43-.103.188-.14.429-.11.724.03.295.128.628.296 1 .167.372.406.668.717.89.311.22.69.25 1.137.086.447-.163.844-.452 1.191-.867.347-.415.617-.904.81-1.467a6.308 6.308 0 0 0 .343-1.566c.035-.48.025-.877-.03-1.191-.054-.314-.122-.55-.202-.71-.08-.16-.14-.3-.178-.42M391.369 161.499c.161.059.34.053.538-.02.132-.047.247-.106.346-.176.099-.07.21-.181.33-.332.122-.151.246-.345.374-.58.127-.237.24-.465.335-.686.097-.221.14-.424.133-.61a.625.625 0 0 0-.198-.45 1.2 1.2 0 0 0-.524-.26c-.225-.058-.51-.036-.855.066-.345.102-.69.28-1.036.532a5.427 5.427 0 0 0-.917.841 5.035 5.035 0 0 0-.686 1.037 4.254 4.254 0 0 0-.393 1.291c-.07.477-.034.904.108 1.28.141.375.373.672.695.888.321.217.696.348 1.124.393.428.045.859-.005 1.291-.15a5.571 5.571 0 0 0 1.715-.919M397.176 161.937c-.193.55-.353 1.034-.479 1.454-.085.284-.187.594-.305.928-.118.335-.244.67-.378 1.004a7.409 7.409 0 0 0-.424 1.406M398.713 158.679l.025-.208M402.175 164.449c.147-.282.23-.497.249-.644a.712.712 0 0 0 0-.235.675.675 0 0 0-.138-.232.957.957 0 0 0-.322-.252 1.256 1.256 0 0 0-.504-.12c-.2-.01-.423.044-.669.162-.245.117-.49.284-.735.499a3.673 3.673 0 0 0-.63.713c-.176.26-.328.551-.459.871-.13.32-.211.65-.244.99-.033.338-.012.635.063.888.074.253.214.449.417.586.204.138.463.206.775.205.313 0 .65-.09 1.01-.268.523-.26 1.212-.787 2.067-1.584" style="fill:none;stroke:#fff;stroke-width:1.31279;stroke-linecap:round;stroke-linejoin:round;stroke-miterlimit:10;stroke-dasharray:none;stroke-opacity:1" transform="matrix(.72727 0 0 .72727 -228.815 -98.598)"/><path d="M402.414 165.648c-.095-.273-.17-.434-.222-.485-.037-.035-.08.007-.13.127s-.134.346-.251.678c-.117.332-.248.76-.393 1.282a35.408 35.408 0 0 0-.402 1.598 93.929 93.929 0 0 1-.402 1.695 39.827 39.827 0 0 1-.452 1.68 23.62 23.62 0 0 1-.549 1.634 8.903 8.903 0 0 1-.752 1.547 6.448 6.448 0 0 1-.967 1.23 3.92 3.92 0 0 1-1.121.787 2.2 2.2 0 0 1-1.176.201 2.319 2.319 0 0 1-1.067-.397c-.32-.22-.55-.57-.69-1.048-.14-.478-.147-.995-.02-1.55a4.298 4.298 0 0 1 .768-1.612 5.466 5.466 0 0 1 1.318-1.28c.723-.49 1.572-.632 2.546-.423M407.597 161.777c-.083.02-.2.189-.35.506-.152.317-.307.672-.467 1.063-.16.391-.349.91-.567 1.554-.218.644-.44 1.294-.665 1.95a78.315 78.315 0 0 0-.605 1.832c-.18.566-.306 1.026-.379 1.379-.073.352-.106.609-.099.77.01.22.11.202.301-.052M405.69 168.374c.223-.403.43-.725.62-.968.128-.165.272-.315.43-.45a1.57 1.57 0 0 1 .508-.297.953.953 0 0 1 .522-.038.53.53 0 0 1 .375.312c.083.171.106.405.069.7a5.66 5.66 0 0 1-.282 1.103l-.451 1.3c-.15.428-.244.797-.285 1.108-.04.31-.026.56.044.748a.67.67 0 0 0 .326.39c.148.073.334.056.558-.052.325-.155.733-.516 1.222-1.083M414.037 165.283l.319-.669.002-.004-.018.046-.466 1.147c-.294.726-.549 1.362-.764 1.909l-1.95 4.973" style="fill:none;stroke:#fff;stroke-width:1.31279;stroke-linecap:round;stroke-linejoin:round;stroke-miterlimit:10;stroke-dasharray:none;stroke-opacity:1" transform="matrix(.72727 0 0 .72727 -228.815 -98.598)"/><path d="M411.278 168.191a.478.478 0 0 1 .157-.231c.077-.065.198-.12.363-.168.235-.068 1.474-.054 3.718.04M419.144 170.407c.205-.473.264-.766.178-.878-.06-.078-.169-.14-.324-.182a1.166 1.166 0 0 0-.49-.025 2.391 2.391 0 0 0-.615.202c-.237.109-.457.24-.66.396a3.241 3.241 0 0 0-.485.444 1.74 1.74 0 0 0-.27.405.584.584 0 0 0-.06.347c.019.103.097.205.236.307.139.102.335.21.588.325.253.115.529.262.826.441.297.18.546.389.746.628.2.24.316.505.347.797.03.292-.033.589-.19.89-.158.3-.395.539-.713.714-.317.175-.67.274-1.058.295-.561.03-1.174-.293-1.84-.973M428.716 168.392a6.042 6.042 0 0 1-.537-.31 9.75 9.75 0 0 0-1.292-.645c-.27-.11-.48-.19-.63-.24a3.73 3.73 0 0 0-.288-.088c-.043-.009-.094.025-.154.102-.06.077-.12.198-.181.363-.061.166-.157.483-.289.952-.132.468-.252.916-.362 1.343-.11.426-.193.746-.251.96-.058.214-.122.436-.191.666-.07.231-.16.561-.27.991-.112.43-.21.803-.298 1.12-.087.315-.197.712-.331 1.19-.133.478-.257.888-.37 1.23-.112.342-.2.616-.265.824a7.771 7.771 0 0 1-.212.599 4.324 4.324 0 0 1-.254.531 5.177 5.177 0 0 0-.225.435c-.057.127-.076.223-.06.289.018.065.099.136.243.21.144.075.476.223.997.444.521.22.883.389 1.085.504.202.115.386.226.552.332.166.106.329.223.489.35l.439.35" style="fill:none;stroke:#fff;stroke-width:1.31279;stroke-linecap:round;stroke-linejoin:round;stroke-miterlimit:10;stroke-dasharray:none;stroke-opacity:1" transform="matrix(.72727 0 0 .72727 -228.815 -98.598)"/><path d="M432.054 173.356c.08-.2.116-.368.105-.504-.007-.093-.058-.216-.152-.37a1.07 1.07 0 0 0-.31-.34 1.74 1.74 0 0 0-.385-.188.95.95 0 0 0-.512-.016c-.196.041-.406.129-.63.263-.224.135-.45.312-.676.532-.226.22-.445.515-.655.884-.21.37-.398.786-.563 1.249a4.99 4.99 0 0 0-.286 1.414c-.026.48.006.943.096 1.387.09.444.249.832.478 1.164.228.333.495.582.8.748.306.167.634.211.985.133.35-.077.697-.259 1.04-.543.343-.285.66-.623.954-1.012.293-.39.55-.806.773-1.248.222-.442.384-.87.487-1.283a3.08 3.08 0 0 0 .084-1.15 2.836 2.836 0 0 0-.27-.924c-.195-.38-.624-.763-1.288-1.147" style="fill:none;stroke:#007aff;stroke-width:1.31279;stroke-linecap:round;stroke-linejoin:round;stroke-miterlimit:10;stroke-dasharray:none;stroke-opacity:1" transform="matrix(.72727 0 0 .72727 -228.815 -98.598)"/><path d="m436.283 170.633-.067-.027.01.002.234.046c.148.03.29.063.425.1.136.038.273.085.411.139.138.054.352.163.641.325.29.163.504.278.644.344.139.066.313.142.522.227a418.389 418.389 0 0 0 .357.148l-.075-.015c-.047-.009-.106.081-.177.272-.072.19-.175.488-.31.89-.136.403-.25.786-.345 1.15-.094.365-.218.802-.37 1.311-.154.51-.293.927-.419 1.253-.126.326-.228.594-.306.804-.079.21-.152.425-.22.646-.067.221-.143.5-.227.838a8.87 8.87 0 0 1-.302.977c-.118.314-.208.56-.27.74a5.293 5.293 0 0 0-.15.525c-.04.171-.073.385-.101.642-.028.256-.057.45-.085.582a4.657 4.657 0 0 1-.168.547c-.083.233-.18.474-.289.723-.11.248-.191.38-.246.395-.055.015-.162-.006-.323-.062a18.64 18.64 0 0 0-.502-.168 7.049 7.049 0 0 0-.576-.155c-.21-.048-.498-.108-.865-.18a6.267 6.267 0 0 1-.796-.194" style="fill:none;stroke:#fff;stroke-width:1.31279;stroke-linecap:round;stroke-linejoin:round;stroke-miterlimit:10;stroke-dasharray:none;stroke-opacity:1" transform="matrix(.72727 0 0 .72727 -228.815 -98.598)"/><path d="m401.858 192.113-.097.07a.084.084 0 0 0 .018-.009l.336-.172c.21-.107.477-.256.8-.446.322-.19.681-.417 1.077-.677a20.489 20.489 0 0 0 2.067-1.55c.276-.237.454-.42.534-.552.08-.13.044-.186-.108-.165-.153.02-.37.118-.652.294a7.239 7.239 0 0 0-.61.41c-.124.098-.393.352-.808.763-.415.41-.802.88-1.161 1.41a9.526 9.526 0 0 0-.84 1.48c-.2.456-.296.826-.285 1.11.011.283.094.485.25.607.154.122.378.176.67.162.291-.014.575-.047.851-.1.276-.053.517-.126.724-.218.207-.092.363-.18.468-.264.105-.084.134-.167.087-.25-.047-.081-.153-.112-.318-.09a1.216 1.216 0 0 0-.507.199c-.173.112-.312.3-.42.563-.107.264-.173.59-.198.981-.025.39.044.75.209 1.077.164.327.472.522.925.585.452.063.919-.004 1.4-.2.48-.196.93-.489 1.346-.88.417-.391.748-.782.994-1.174.247-.391.417-.732.512-1.023.094-.29.144-.522.147-.693.003-.172.016-.317.038-.436M410.628 199.515c.111.123.266.198.465.226.133.018.258.02.373.005.116-.015.26-.06.43-.133.17-.073.363-.181.577-.324a8.76 8.76 0 0 0 .593-.43c.181-.145.31-.297.387-.457a.598.598 0 0 0 .034-.471 1.151 1.151 0 0 0-.327-.457c-.165-.15-.417-.26-.755-.328a3.274 3.274 0 0 0-1.118-.015 5.212 5.212 0 0 0-1.156.301 4.827 4.827 0 0 0-1.047.572c-.335.239-.64.545-.914.917-.274.373-.436.751-.484 1.134-.049.382.014.737.19 1.066.175.328.434.607.777.838.343.23.73.382 1.162.453a5.354 5.354 0 0 0 1.868-.007M415.356 202.498c-.41.379-.764.718-1.06 1.018-.2.202-.425.419-.676.65-.25.23-.508.457-.772.68-.401.34-.732.674-.991 1.002M418.125 200.426l.114-.165M418.466 206.875c.252-.172.419-.317.5-.433a.683.683 0 0 0 .107-.2.647.647 0 0 0-.013-.258.919.919 0 0 0-.16-.359 1.205 1.205 0 0 0-.374-.327c-.165-.1-.378-.154-.64-.165-.26-.01-.543.02-.847.093-.305.072-.59.179-.856.321a4.59 4.59 0 0 0-.78.533 3.376 3.376 0 0 0-.652.729c-.18.273-.296.533-.346.782a.994.994 0 0 0 .09.685c.111.208.3.382.565.522.266.14.592.215.977.226.56.016 1.382-.122 2.466-.414" style="fill:none;stroke:#fff;stroke-width:1.26011;stroke-linecap:round;stroke-linejoin:round;stroke-miterlimit:10;stroke-dasharray:none;stroke-opacity:1" transform="matrix(.72727 0 0 .72727 -228.815 -98.598)"/><path d="M418.13 208c.042-.274.052-.444.03-.511-.016-.046-.072-.03-.168.05-.097.078-.27.233-.518.461-.248.23-.551.533-.909.91-.357.379-.71.77-1.06 1.176-.349.405-.717.824-1.103 1.256-.387.432-.766.84-1.138 1.22-.373.382-.773.762-1.2 1.14a8.539 8.539 0 0 1-1.334.974c-.46.27-.918.473-1.373.608-.456.135-.89.19-1.305.164a2.111 2.111 0 0 1-1.088-.358 2.226 2.226 0 0 1-.725-.817c-.173-.33-.211-.73-.115-1.199.096-.468.323-.91.68-1.324a4.126 4.126 0 0 1 1.376-1.021 5.245 5.245 0 0 1 1.693-.493c.834-.09 1.618.171 2.35.786M424.266 207.048c-.08-.02-.255.07-.525.271-.271.201-.562.432-.874.692-.311.26-.704.614-1.18 1.063-.474.448-.954.9-1.44 1.354-.484.454-.93.882-1.337 1.282-.406.4-.72.733-.94.999-.221.266-.364.469-.43.608-.09.191.002.222.278.092M419.682 211.784c.37-.24.69-.421.96-.542.184-.082.374-.145.568-.188.195-.044.383-.051.564-.023a.915.915 0 0 1 .46.202.51.51 0 0 1 .178.433c-.007.183-.092.391-.256.625a5.44 5.44 0 0 1-.735.809c-.326.305-.649.605-.968.9a5.417 5.417 0 0 0-.739.811c-.174.246-.273.464-.299.654a.64.64 0 0 0 .101.478c.093.128.258.197.496.207.346.014.854-.11 1.524-.37M428.15 212.917l.572-.425.004-.002-.036.031-.91.764c-.576.483-1.078.908-1.507 1.275l-3.889 3.341" style="fill:none;stroke:#fff;stroke-width:1.26011;stroke-linecap:round;stroke-linejoin:round;stroke-miterlimit:10;stroke-dasharray:none;stroke-opacity:1" transform="matrix(.72727 0 0 .72727 -228.815 -98.598)"/><path d="M424.504 214.142a.458.458 0 0 1 .236-.126.97.97 0 0 1 .384.021c.23.049 1.274.617 3.135 1.707M430.178 219.559c.387-.31.568-.532.546-.665-.016-.094-.08-.194-.193-.3a1.12 1.12 0 0 0-.405-.242 2.294 2.294 0 0 0-.612-.105 3.268 3.268 0 0 0-.737.039c-.242.04-.446.093-.612.158-.167.065-.304.14-.411.222a.56.56 0 0 0-.207.268c-.03.096-.01.218.063.366.072.149.189.329.352.54.163.212.33.46.502.746.171.285.288.575.35.868.063.293.042.57-.064.832a1.486 1.486 0 0 1-.561.668c-.269.185-.577.28-.925.286a2.337 2.337 0 0 1-1.03-.226c-.49-.226-.865-.777-1.124-1.652M439.202 222.153a5.772 5.772 0 0 1-.317-.504 9.347 9.347 0 0 0-.806-1.128 9.984 9.984 0 0 0-.425-.487 3.533 3.533 0 0 0-.206-.204c-.031-.027-.09-.021-.176.017a1.335 1.335 0 0 0-.317.227c-.126.113-.35.338-.672.677-.323.338-.626.663-.911.976-.285.313-.5.546-.645.701-.145.156-.3.315-.462.48-.162.164-.387.404-.675.718-.287.315-.539.587-.755.816l-.816.86c-.328.346-.617.639-.866.878-.25.239-.448.432-.596.579a7.473 7.473 0 0 1-.449.413c-.151.128-.303.24-.455.336-.152.097-.28.186-.385.268-.106.082-.166.154-.18.218-.015.063.022.16.11.287.088.128.304.403.646.825.343.421.574.726.694.915.12.188.226.365.319.53.092.164.178.337.256.517l.215.493M444.61 227.456l-.044-.053.008.006.178.144c.112.091.217.183.316.277.098.093.193.193.286.301.092.108.225.296.397.565.172.268.303.462.391.58.089.119.202.262.341.428l.224.27.013.016-.058-.047c-.035-.029-.126.022-.272.152-.146.13-.368.335-.663.615-.296.28-.566.554-.81.82a34.63 34.63 0 0 1-.903.945c-.36.364-.665.655-.919.875-.253.22-.46.401-.62.544-.162.143-.32.293-.477.45-.157.157-.347.36-.57.608a8.48 8.48 0 0 1-.695.692c-.242.214-.429.383-.561.507a5.1 5.1 0 0 0-.364.378c-.11.127-.235.293-.374.498-.14.205-.25.357-.334.455a4.481 4.481 0 0 1-.388.389c-.176.16-.366.321-.57.483-.205.162-.334.237-.387.225-.053-.012-.135-.078-.246-.198a17.82 17.82 0 0 0-.35-.368 6.777 6.777 0 0 0-.419-.39 28.684 28.684 0 0 0-.653-.542 6.007 6.007 0 0 1-.587-.522" style="fill:none;stroke:#fff;stroke-width:1.26011;stroke-linecap:round;stroke-linejoin:round;stroke-miterlimit:10;stroke-dasharray:none;stroke-opacity:1" transform="matrix(.72727 0 0 .72727 -228.815 -98.598)"/><path d="M439.79 227.29c-.557.464-.996.833-1.318 1.11-.22.188-.482.408-.787.66-.306.253-.621.511-.947.775-.483.391-.992.873-1.529 1.447" style="fill:none;stroke:#007aff;stroke-width:1.26011;stroke-linecap:round;stroke-linejoin:round;stroke-miterlimit:10;stroke-dasharray:none;stroke-opacity:1" transform="matrix(.72727 0 0 .72727 -228.815 -98.598)"/></svg>