<svg xmlns="http://www.w3.org/2000/svg" width="184.164" height="130.236"><path d="M249.413 314.336a1.335 1.335 0 0 0-.09-.444.891.891 0 0 0-.241-.307 2.68 2.68 0 0 0-.462-.327 7.427 7.427 0 0 0-.606-.31 4.051 4.051 0 0 0-1.572-.358 3.176 3.176 0 0 0-1.04.165c-.386.12-.8.285-1.243.494-.442.21-.899.443-1.37.702a16.07 16.07 0 0 0-1.423.885c-.477.33-.944.69-1.4 1.077-.457.388-.914.805-1.372 1.252-.458.447-.89.917-1.295 1.411a11.062 11.062 0 0 0-1.085 1.59 13.685 13.685 0 0 0-.822 1.726 8.47 8.47 0 0 0-.486 1.802c-.095.615-.131 1.28-.109 1.998.022.717.142 1.447.359 2.192.216.745.522 1.567.917 2.467.394.9.865 1.773 1.412 2.617a30.884 30.884 0 0 0 1.756 2.442 18.356 18.356 0 0 0 1.947 2.102 11.578 11.578 0 0 0 2.093 1.543c.723.411 1.47.725 2.242.941.772.216 1.399.341 1.881.375.482.033 1.283-.06 2.403-.279 1.119-.22 2.076-.533 2.87-.94.795-.409 1.55-.916 2.268-1.521a15.389 15.389 0 0 0 2.043-2.112 39.06 39.06 0 0 0 1.76-2.352c.527-.767.985-1.606 1.373-2.517a15.01 15.01 0 0 0 .87-2.674c.191-.872.296-1.771.316-2.698.019-.926-.08-1.876-.299-2.848a14.506 14.506 0 0 0-.85-2.654c-.35-.798-.78-1.525-1.29-2.183a14.898 14.898 0 0 0-1.676-1.827 10.417 10.417 0 0 0-1.912-1.409 15.66 15.66 0 0 0-2.022-.97 10.33 10.33 0 0 0-2.052-.574 8.815 8.815 0 0 0-1.99-.118c-.941.055-2.02.338-3.236.847M248.48 358.215c.063-.11.026-.369-.112-.778a2.934 2.934 0 0 0-.256-.59 2.99 2.99 0 0 0-.323-.424 4.298 4.298 0 0 0-.476-.447c-.187-.153-.392-.309-.613-.467a3.436 3.436 0 0 0-.756-.404 3.143 3.143 0 0 0-.97-.196 3.18 3.18 0 0 0-1.173.175 5.427 5.427 0 0 0-1.303.658c-.45.3-.849.596-1.194.887-.345.29-.79.709-1.332 1.254a12.845 12.845 0 0 0-1.426 1.693c-.409.584-.777 1.19-1.104 1.818a15.483 15.483 0 0 0-.81 1.81 8.223 8.223 0 0 0-.437 1.83c-.08.642-.117 1.28-.112 1.914.005.634.075 1.294.21 1.981.137.688.328 1.369.575 2.044a8.195 8.195 0 0 0 1.013 1.92c.429.606.938 1.17 1.528 1.693.59.523 1.23.983 1.916 1.38.687.399 1.433.739 2.238 1.021.805.282 1.594.527 2.365.735.772.207 1.578.355 2.418.443.84.088 1.681.096 2.523.024a12.536 12.536 0 0 0 2.466-.461 12.026 12.026 0 0 0 2.28-.927c.718-.383 1.402-.86 2.052-1.433a12.992 12.992 0 0 0 1.719-1.827c.496-.645.937-1.417 1.324-2.316.387-.9.696-1.805.927-2.716.23-.91.374-1.811.428-2.701a9.235 9.235 0 0 0-.172-2.518c-.17-.79-.45-1.62-.839-2.493a12.89 12.89 0 0 0-1.382-2.397 17.915 17.915 0 0 0-1.807-2.09 7.556 7.556 0 0 0-2.234-1.556 7.46 7.46 0 0 0-2.613-.641 13.596 13.596 0 0 0-2.793.112c-.936.133-1.857.328-2.764.583-.906.255-1.765.57-2.577.946-.813.376-1.547.751-2.203 1.126-.656.374-1.147.683-1.473.926-.518.388-.832.699-.94.93" style="fill:none;stroke:#007aff;stroke-width:1.8189;stroke-linecap:round;stroke-linejoin:round;stroke-miterlimit:10;stroke-dasharray:none;stroke-opacity:1" transform="matrix(.72727 0 0 .72727 -170.095 -222.258)"/><path d="M248.822 398.233c-.047-.103-.158-.219-.333-.348a1.624 1.624 0 0 0-.44-.219 2.86 2.86 0 0 0-.663-.128 6.94 6.94 0 0 0-.866-.02 5.076 5.076 0 0 0-1.03.153c-.369.091-.776.206-1.22.345-.445.139-.91.296-1.395.472-.486.176-.965.375-1.44.599a13.559 13.559 0 0 0-2.366 1.415c-.326.244-.563.427-.713.55-.15.123-.425.377-.827.762-.402.385-.804.818-1.208 1.3a20.344 20.344 0 0 0-1.365 1.879 39.131 39.131 0 0 0-1.4 2.297c-.427.76-.76 1.55-1 2.37a10.57 10.57 0 0 0-.424 2.405c-.042.782.031 1.58.22 2.394.187.813.493 1.616.917 2.406.423.791.923 1.592 1.5 2.403a15.01 15.01 0 0 0 1.83 2.144c.646.62 1.355 1.165 2.129 1.635.774.471 1.578.858 2.415 1.16.836.302 1.681.505 2.536.607a18.15 18.15 0 0 0 2.603.122 11.64 11.64 0 0 0 2.65-.378c.888-.23 1.456-.394 1.707-.489a7.06 7.06 0 0 0 .695-.305c.213-.109.829-.545 1.847-1.31 1.017-.765 1.646-1.284 1.887-1.558.24-.273.433-.525.578-.755.146-.23.336-.562.57-.998.235-.436.545-1.074.932-1.916.387-.842.692-1.605.915-2.291.222-.686.37-1.167.441-1.442.072-.276.172-.838.3-1.686.127-.849.204-1.748.23-2.699.028-.95-.052-1.969-.237-3.056a12.617 12.617 0 0 0-1.007-3.2 14.89 14.89 0 0 0-1.79-2.926c-.709-.903-1.473-1.59-2.293-2.062-.82-.472-1.616-.762-2.39-.872a8.475 8.475 0 0 0-2.198-.041 14.38 14.38 0 0 0-1.957.365c-.908.24-1.926.528-3.055.867" style="fill:none;stroke:#007aff;stroke-width:1.8189;stroke-linecap:round;stroke-linejoin:round;stroke-miterlimit:10;stroke-dasharray:none;stroke-opacity:1" transform="matrix(.72727 0 0 .72727 -167.144 -223.57)"/><path d="M332.841 335.644c-.463-.482-.782-.787-.957-.916a3.516 3.516 0 0 0-.388-.249 3.511 3.511 0 0 0-.497-.22 3.52 3.52 0 0 0-.71-.163 7.268 7.268 0 0 0-1-.057c-.386.001-.814.055-1.283.163a9.78 9.78 0 0 0-1.394.434c-.46.181-.93.406-1.412.676a11.928 11.928 0 0 0-3.053 2.521 36.253 36.253 0 0 0-1.344 1.628 11.092 11.092 0 0 0-1.098 1.738c-.324.632-.59 1.289-.796 1.971-.207.682-.35 1.338-.428 1.968-.079.629-.107 1.282-.084 1.96.023.677.109 1.26.26 1.75.15.49.27.84.363 1.052.092.21.315.64.67 1.289.355.649.774 1.31 1.258 1.986a15.652 15.652 0 0 0 1.693 1.976 20.7 20.7 0 0 0 2.027 1.773c.706.54 1.463.998 2.27 1.375.807.378 1.653.681 2.537.912.883.23 1.751.388 2.602.475.852.086 1.679.095 2.481.027a7.697 7.697 0 0 0 2.268-.536 6.777 6.777 0 0 0 1.964-1.237 10.63 10.63 0 0 0 1.623-1.835c.482-.687.91-1.405 1.286-2.156.376-.75.684-1.528.923-2.335.24-.807.41-1.623.51-2.448.1-.826.132-1.662.098-2.508a9.461 9.461 0 0 0-.44-2.491 17.349 17.349 0 0 0-.973-2.41 18.67 18.67 0 0 0-1.31-2.253 18.77 18.77 0 0 0-1.533-1.969 7.949 7.949 0 0 0-1.72-1.468 8.074 8.074 0 0 0-1.969-.882 9.864 9.864 0 0 0-2.21-.385 10.337 10.337 0 0 0-2.26.103c-.737.116-1.452.285-2.145.508a10.941 10.941 0 0 0-2.927 1.457M332.282 378.969a13.914 13.914 0 0 0-1.512-.956 3.827 3.827 0 0 0-.906-.37 4.92 4.92 0 0 0-.934-.12 4.444 4.444 0 0 0-1.17.122 6.2 6.2 0 0 0-1.28.45 8.052 8.052 0 0 0-1.3.785c-.437.321-.89.742-1.355 1.263a13.955 13.955 0 0 0-1.327 1.762c-.42.654-.808 1.316-1.163 1.987a14.25 14.25 0 0 0-.903 2.09 13.643 13.643 0 0 0-.534 2.027 9.514 9.514 0 0 0-.122 2.027c.03.722.16 1.442.392 2.161.233.72.53 1.451.894 2.196.364.745.802 1.464 1.315 2.157.513.694 1.1 1.32 1.76 1.878a15.2 15.2 0 0 0 2.054 1.467c.707.42 1.472.758 2.293 1.016.82.258 1.67.442 2.545.552.876.11 1.74.167 2.596.17a10.3 10.3 0 0 0 2.467-.286 8.456 8.456 0 0 0 2.213-.876 7.851 7.851 0 0 0 1.816-1.421 9.431 9.431 0 0 0 1.386-1.907c.398-.715.754-1.48 1.067-2.297.314-.816.574-1.636.78-2.458.208-.822.341-1.657.402-2.507.061-.85.052-1.684-.026-2.506a7.378 7.378 0 0 0-.548-2.23 6.541 6.541 0 0 0-1.133-1.784 12.619 12.619 0 0 0-1.647-1.524 19.51 19.51 0 0 0-2.11-1.424 25.399 25.399 0 0 0-2.453-1.267 16.534 16.534 0 0 0-2.54-.915c-.835-.223-1.582-.334-2.24-.334a5.12 5.12 0 0 0-1.827.317c-.827.313-1.705.808-2.633 1.486M415.323 355.49c-.062-.1-.195-.198-.401-.293a4.4 4.4 0 0 0-.554-.216 4.46 4.46 0 0 0-.58-.128 7.881 7.881 0 0 0-.806-.079 6.983 6.983 0 0 0-1.056.033c-.39.038-.803.138-1.242.299-.438.16-.904.381-1.397.662s-1.01.62-1.554 1.015a20.84 20.84 0 0 0-1.548 1.245c-.49.435-.986.893-1.488 1.377a14.41 14.41 0 0 0-1.435 1.612c-.454.59-.847 1.179-1.18 1.763a18.31 18.31 0 0 0-.885 1.766c-.257.593-.47 1.237-.64 1.934-.17.696-.279 1.366-.327 2.01-.049.643-.033 1.33.048 2.058a7.59 7.59 0 0 0 .556 2.125c.29.687.661 1.353 1.113 1.996.452.644.978 1.278 1.58 1.904a13.145 13.145 0 0 0 1.961 1.677c.707.493 1.461.948 2.263 1.365.802.417 1.634.795 2.495 1.133a13.64 13.64 0 0 0 2.692.747c.934.16 1.834.228 2.7.203a7.786 7.786 0 0 0 2.519-.492 9.31 9.31 0 0 0 2.298-1.255 15.504 15.504 0 0 0 1.825-1.559c.497-.507.84-.884 1.03-1.132.19-.248.522-.761.999-1.54.476-.778.938-1.622 1.385-2.53.447-.909.828-1.828 1.142-2.757.314-.93.54-1.898.679-2.907.138-1.008.196-1.985.174-2.93a10.145 10.145 0 0 0-.433-2.73 8.298 8.298 0 0 0-1.113-2.339 9.97 9.97 0 0 0-1.714-1.883 8.706 8.706 0 0 0-2.23-1.387 10.7 10.7 0 0 0-2.687-.745 18.015 18.015 0 0 0-6.17.172c-1.064.213-2.044.43-2.941.653a14.942 14.942 0 0 1-4.1.433" style="fill:none;stroke:#007aff;stroke-width:1.8189;stroke-linecap:round;stroke-linejoin:round;stroke-miterlimit:10;stroke-dasharray:none;stroke-opacity:1" transform="matrix(.72727 0 0 .72727 -170.095 -222.258)"/><path d="M433.32 368.564a3.71 3.71 0 0 1 .936-.351c.206-.045.522-.088.946-.129a59.43 59.43 0 0 1 1.944-.138 131.326 131.326 0 0 1 6.699-.216c1.305-.01 2.726-.021 4.264-.035 1.537-.014 3.251-.04 5.142-.077 1.89-.037 3.871-.06 5.941-.07a440.23 440.23 0 0 1 6.374.02c3.208.034 7.12.487 11.733 1.36" style="fill:none;stroke:#90d300;stroke-width:1.8189;stroke-linecap:round;stroke-linejoin:round;stroke-miterlimit:10;stroke-dasharray:none;stroke-opacity:1" transform="matrix(.72727 0 0 .72727 -170.095 -222.258)"/><path d="M320.273 330.305c-.802-.282-1.183-.358-1.142-.226.03.093.197.2.502.318.304.118.719.268 1.242.448.524.18 1.118.395 1.783.644.665.249 1.463.555 2.396.917.932.363 1.953.751 3.064 1.165 1.11.414 2.304.852 3.583 1.315 1.279.462 2.621.975 4.027 1.536 1.407.562 2.89 1.173 4.452 1.832 1.562.66 3.082 1.323 4.561 1.989 1.48.666 2.912 1.345 4.3 2.037 1.386.692 2.786 1.381 4.2 2.068a85.333 85.333 0 0 1 4.07 2.113c1.924 1.067 4.068 2.416 6.433 4.047M320.707 367.335c-.115.015-.17-.019-.168-.1.002-.058.165-.15.488-.277.324-.128.646-.263.967-.405.322-.142.611-.282.87-.418.258-.137.579-.294.96-.47a22.01 22.01 0 0 1 1.07-.465c.332-.132.771-.304 1.316-.515.546-.21 1.005-.394 1.377-.55.373-.156.962-.377 1.768-.662.806-.284 1.631-.585 2.476-.902.844-.317 1.766-.663 2.765-1.036a163.21 163.21 0 0 1 2.98-1.083c.989-.348 1.959-.67 2.91-.966.951-.296 1.943-.601 2.974-.915a104.99 104.99 0 0 0 2.935-.939c.925-.311 1.846-.63 2.765-.953.918-.324 1.825-.653 2.72-.988a121.56 121.56 0 0 1 3.8-1.322c1.637-.546 2.778-.908 3.423-1.084a14.056 14.056 0 0 1 2.98-.475M319.645 409.972c.138-.003.278-.097.42-.282.141-.184.371-.521.689-1.011.317-.49.59-.899.821-1.227.23-.329.495-.733.793-1.214.298-.48.673-1.073 1.125-1.779a30.17 30.17 0 0 1 1.564-2.203 59.707 59.707 0 0 0 1.788-2.438 61.89 61.89 0 0 1 1.99-2.689c.726-.93 1.483-1.9 2.271-2.913.788-1.012 1.63-2.073 2.526-3.182.895-1.109 1.5-1.845 1.81-2.21.312-.363.597-.699.855-1.006.257-.307.623-.772 1.095-1.394.473-.621.825-1.072 1.056-1.351.23-.28.73-.86 1.5-1.74s1.627-1.898 2.573-3.056c.946-1.158 1.931-2.352 2.954-3.582a132.119 132.119 0 0 1 3.193-3.696 360.316 360.316 0 0 0 3.103-3.507 269.403 269.403 0 0 1 2.875-3.24 479.211 479.211 0 0 1 2.785-3.063c.904-.985 1.765-1.91 2.583-2.777a85.556 85.556 0 0 1 2.375-2.421 63.425 63.425 0 0 1 1.996-1.882c.864-.772 1.655-1.392 2.374-1.86" style="fill:none;stroke:#7ec636;stroke-width:2.07874;stroke-linecap:round;stroke-linejoin:round;stroke-miterlimit:10;stroke-dasharray:none;stroke-opacity:1" transform="matrix(.72727 0 0 .72727 -208.828 -224.405)"/><path d="M318.433 330.389c-.072-.123-.087-.171-.046-.146l.224.14c.12.074.276.189.47.345a24.359 24.359 0 0 1 1.737 1.541c.4.388.826.835 1.274 1.34.449.505.964 1.05 1.547 1.633.582.584 1.228 1.242 1.939 1.975.71.733 1.419 1.487 2.125 2.262.706.775 1.457 1.594 2.251 2.458a99.119 99.119 0 0 1 2.363 2.664c.78.913 1.571 1.827 2.373 2.745a71.948 71.948 0 0 1 2.269 2.724 81.45 81.45 0 0 0 2.265 2.736c.8.926 1.542 1.843 2.225 2.752.684.91 1.436 1.826 2.254 2.752a53.657 53.657 0 0 1 2.35 2.846 68.814 68.814 0 0 0 2.28 2.81 58.259 58.259 0 0 1 2.226 2.765c.713.942 1.468 1.907 2.267 2.894.8.987 1.565 1.951 2.298 2.893.734.941 1.5 1.903 2.302 2.886.8.983 1.59 1.961 2.367 2.933.777.973 1.523 1.92 2.236 2.844.712.923 1.367 1.797 1.962 2.623a24.579 24.579 0 0 1 1.427 2.18c.531.935 1.113 1.946 1.745 3.032M321.105 410.64c.434-.106 1.08-.318 1.94-.636.544-.202 1.04-.384 1.489-.546a87.07 87.07 0 0 0 1.486-.555c.542-.208 1.149-.433 1.82-.675a47.51 47.51 0 0 1 2.24-.74c.823-.252 1.713-.518 2.67-.8.956-.283 1.968-.578 3.036-.885 1.068-.308 2.189-.624 3.361-.948 1.173-.325 2.377-.648 3.613-.969 1.237-.32 2.507-.635 3.812-.942 1.304-.307 2.586-.613 3.844-.92 1.258-.305 2.519-.62 3.782-.944a581.214 581.214 0 0 0 7.111-1.884c1.033-.282 1.98-.528 2.843-.738a89.442 89.442 0 0 1 4.572-.965M320.642 368.02c-.094-.349-.034-.502.179-.46.153.03.334.095.543.195.208.1.584.31 1.126.628.543.318 1.062.601 1.558.85a41.842 41.842 0 0 1 3.597 2.044c.657.417 1.402.861 2.236 1.334.834.472 1.697.974 2.588 1.506a692.49 692.49 0 0 1 2.783 1.668c.965.582 1.983 1.183 3.056 1.805 1.073.621 1.987 1.166 2.743 1.633l1.66 1.022c.35.215.937.553 1.758 1.014.821.46 1.35.763 1.588.907.236.145.48.286.73.425s.79.423 1.62.853c.83.43 1.732.931 2.705 1.505.974.575 1.698.987 2.175 1.237.476.25.938.487 1.385.713a130.05 130.05 0 0 0 4.487 2.133c.873.396 1.667.75 2.38 1.065.713.315 1.328.572 1.843.772.79.306 1.464.573 2.025.803M401.436 348.392c.36.257.923.546 1.69.868.767.321 1.419.613 1.954.876a148.899 148.899 0 0 0 4.352 2.04c.892.4 1.826.834 2.802 1.3.977.465 1.984.96 3.024 1.484a386.192 386.192 0 0 0 6.88 3.381c1.188.569 2.42 1.147 3.695 1.736 1.275.59 2.512 1.19 3.71 1.804 1.198.614 2.347 1.198 3.446 1.754 1.1.555 2.148 1.087 3.145 1.595.998.507 1.96 1.026 2.889 1.556.928.53 1.804 1.036 2.628 1.52.825.483 1.58.918 2.264 1.305.685.386 1.252.726 1.703 1.018.45.292.797.533 1.04.723.244.19.41.338.5.443.123.145.047.23-.228.255M403.105 393.328l-.18.016c-.01 0 .002-.007.033-.025.03-.018.141-.079.331-.185.19-.105.599-.313 1.226-.625a82.218 82.218 0 0 0 1.732-.882 52.595 52.595 0 0 1 1.933-.956c.763-.361 1.561-.732 2.396-1.113.834-.38 1.774-.786 2.821-1.217 1.047-.43 2.133-.882 3.26-1.355 1.126-.472 2.334-.969 3.625-1.49 1.29-.52 2.592-1.042 3.905-1.563 1.313-.52 2.61-1.025 3.893-1.513 1.283-.487 2.55-.955 3.803-1.401 1.252-.447 2.435-.878 3.55-1.294 1.116-.416 2.186-.803 3.212-1.16 1.025-.359 1.982-.683 2.87-.972a68.71 68.71 0 0 1 3.106-.919 77.048 77.048 0 0 1 2.239-.591 9.26 9.26 0 0 1 .798-.152l.482-.066" style="fill:none;stroke:#7ec636;stroke-width:2.07874;stroke-linecap:round;stroke-linejoin:round;stroke-miterlimit:10;stroke-dasharray:none;stroke-opacity:1" transform="matrix(.72727 0 0 .72727 -208.828 -224.405)"/><path d="M310.559 349.474c.015.75.036 1.353.064 1.812.028.452.056 1.312.085 2.58M310.73 361.02c0 .663-.07 2.115-.21 4.354M310.469 372.41c0 .46.02 1.011.06 1.653.062.979.135 1.845.218 2.601M310.556 383.123c-.097.041-.159.161-.185.36-.037.281-.055 1.712-.054 4.291M310.224 394.134c-.068.152-.08.489-.034 1.01.067.76.074 1.92.022 3.481M310.065 405.426c0 .383-.012.875-.035 1.475l-.13 3.338M310.261 417.365c-.035.306-.053.738-.053 1.297 0 .52.033 1.333.1 2.44M310.615 427.77c-.075-.077-.123-.052-.143.075-.02.126-.029.44-.025.94.004.501.027.925.071 1.272.065.506.228 1.237.49 2.192M311.01 438.643c-.088.093-.143.28-.166.56-.015.181-.023.535-.025 1.064-.002.79.022 1.607.074 2.454M310.888 450.478a19.788 19.788 0 0 0-.063 1.714c.005.856.107 1.807.304 2.854M310.386 462.355c-.093.178-.155.447-.186.808-.019.233-.04.567-.064 1.002-.023.435-.043.942-.058 1.52a32.04 32.04 0 0 0 .09 3.046M393.247 466.41a8.382 8.382 0 0 1-.07-.96c-.001-.182.012-.602.04-1.26.042-1.023.146-1.825.312-2.407M393.374 454.026l-.019.07a844.107 844.107 0 0 1-.014-.386c-.01-.3.01-1.294.063-2.982M393.22 444.073l-.03.082a.921.921 0 0 1-.004-.108l-.011-.863c-.01-.731.001-1.692.034-2.881M393.373 431.793c-.062-.178-.121-.465-.178-.862a15.31 15.31 0 0 1-.098-.98 20.295 20.295 0 0 1-.022-2.158M392.181 419.135a.877.877 0 0 1-.163-.466 13.18 13.18 0 0 1-.039-.99c-.009-.681.075-1.528.252-2.542M392.048 403.885a3.607 3.607 0 0 1-.086-.579 18.246 18.246 0 0 1-.029-.935 41.143 41.143 0 0 0-.037-1.308 15.01 15.01 0 0 0-.24-2.073M391.797 390.12a43.54 43.54 0 0 1 .011-1.804c.015-.406.08-.957.197-1.653M392.512 377.578c-.063-.2-.095-.672-.097-1.418-.002-1.159.06-2.068.189-2.727M393.108 365.492c-.02-.193-.031-.57-.032-1.13 0-.559.01-1.034.034-1.426.035-.58.132-1.227.293-1.942M393.38 356.278a12.693 12.693 0 0 1-.06-1.547c.013-.462.151-1.464.414-3.007M476.872 351.214c-.04 1.432.017 2.457.17 3.074M477.32 362.384c-.028.39-.03 1.006-.007 1.851.022.783.033 1.772.035 2.967M477.655 374.54c-.06.287-.09.677-.091 1.172 0 .731.056 1.58.167 2.548M477.535 384.923c-.049 1.673.008 2.906.173 3.699M477.611 396.734c.067.272.101.981.103 2.128a31.97 31.97 0 0 0 .16 3.101M477.877 409.22c-.053.21-.072.73-.057 1.561.013.724.053 1.752.12 3.082M477.698 422.328c-.094.54-.035 1.857.177 3.949M477.603 434.199a12.84 12.84 0 0 0 .026 1.414c.023.267.051.548.086.843.05.431.153 1.023.31 1.776M478.047 448.65c0 .497.02 1 .057 1.509.057.756.096 1.597.116 2.524M477.898 462.647c-.092.443-.103 1.89-.035 4.34" style="fill:none;stroke:#ffd300;stroke-width:2.07874;stroke-linecap:round;stroke-linejoin:round;stroke-miterlimit:10;stroke-dasharray:none;stroke-opacity:1" transform="matrix(.72727 0 0 .72727 -164.389 -253.407)"/><path d="M259.635 415.848c-.086.19-.186.288-.3.294-.08.004-.142-.208-.185-.636a9.452 9.452 0 0 1-.041-1.298 5.22 5.22 0 0 1 .268-1.412c.163-.504.37-1.008.62-1.51.25-.503.521-.937.812-1.302.292-.365.594-.603.906-.712.312-.11.621-.06.926.147.305.207.562.54.772.997.209.457.348.95.416 1.481.069.53.106 1.069.113 1.614.007.545-.021 1.05-.085 1.517-.064.467-.14.841-.228 1.124-.088.283-.14.448-.154.497-.015.049-.013.063.007.043l.203-.208c.115-.118.333-.273.653-.466.32-.192.694-.346 1.121-.461a6.827 6.827 0 0 1 1.373-.215c.488-.029.957.053 1.41.244.451.19.853.506 1.204.946.351.44.622.988.81 1.646.19.657.298 1.345.324 2.064.027.719-.124 1.494-.452 2.326-.328.832-.884 1.774-1.668 2.825a11.48 11.48 0 0 1-2.711 2.632c-1.024.702-1.966 1.137-2.827 1.305-.861.167-1.577.033-2.148-.402-.814-.621-.854-2.28-.12-4.978" style="fill:none;stroke:#ffd300;stroke-width:1.29921;stroke-linecap:round;stroke-linejoin:round;stroke-miterlimit:10;stroke-dasharray:none;stroke-opacity:1" transform="matrix(.72727 0 0 .72727 -156.195 -183.351)"/><path d="M327.923 416.047c-.273.193-.493.139-.657-.162-.118-.214-.188-.722-.21-1.523-.023-.8.018-1.387.122-1.758.105-.37.259-.752.463-1.145.205-.392.426-.773.663-1.143.237-.37.49-.699.756-.985.267-.287.535-.49.803-.608s.53-.183.782-.195c.253-.012.502.066.746.235.244.168.479.426.705.774.226.348.426.761.6 1.241.175.48.325 1.023.449 1.628a14.9 14.9 0 0 1 .253 2.161c.044.835.037 1.714-.024 2.638-.06.923-.23 1.798-.512 2.625a18.216 18.216 0 0 1-1.155 2.624 20.87 20.87 0 0 1-1.616 2.588c-.59.802-1.204 1.466-1.845 1.991-.64.526-1.2.887-1.676 1.085a2.845 2.845 0 0 1-1.462.205c-.499-.062-.834-.277-1.005-.647-.172-.37-.25-.811-.235-1.325.016-.513.177-1.041.485-1.585a5.729 5.729 0 0 1 1.138-1.429c.45-.41.893-.663 1.326-.761.433-.098.78.038 1.042.407.262.37.475.884.638 1.543.163.659.357 1.288.583 1.887.225.599.507 1.106.845 1.521.338.415.738.732 1.2.95.461.219.945.355 1.452.41a3.877 3.877 0 0 0 1.514-.139c.503-.147.974-.458 1.412-.934a6.353 6.353 0 0 0 1.097-1.67c.435-.948.766-2.011.99-3.188" style="fill:none;stroke:#ffd300;stroke-width:1.29921;stroke-linecap:round;stroke-linejoin:round;stroke-miterlimit:10;stroke-dasharray:none;stroke-opacity:1" transform="matrix(.72727 0 0 .72727 -150.675 -183.16)"/><path d="M282.61 418.93c.389-.127 1.397-.369 3.023-.725.962-.21 1.895-.404 2.8-.581a56.389 56.389 0 0 1 3.01-.497 52.681 52.681 0 0 1 3.466-.364 63.497 63.497 0 0 1 3.622-.16 80.437 80.437 0 0 1 3.587.023c1.736.05 4.082.301 7.04.752M313.093 418.595c.093 0 .136.048.13.144-.006.096-.1.204-.282.323-.182.12-.394.238-.635.356s-.51.256-.805.414c-.296.159-.655.33-1.076.515a5.792 5.792 0 0 1-1.332.4c-.686.12-1.534.078-2.544-.124M313.37 418.308c.04.03.065.009.073-.06.008-.07-.037-.217-.136-.443-.1-.227-.254-.51-.462-.85a9.99 9.99 0 0 0-.733-1.036c-.28-.35-.588-.699-.925-1.05a78.974 78.974 0 0 0-2.241-2.2" style="fill:none;stroke:#fff;stroke-width:1.29921;stroke-linecap:round;stroke-linejoin:round;stroke-miterlimit:10;stroke-dasharray:none;stroke-opacity:1" transform="matrix(.72727 0 0 .72727 -154.1 -182.019)"/><path d="M350.765 418.129c.39-.128 1.397-.37 3.024-.725.961-.21 1.894-.404 2.799-.581a56.372 56.372 0 0 1 3.01-.498 52.681 52.681 0 0 1 3.466-.363 63.401 63.401 0 0 1 3.622-.16 80.437 80.437 0 0 1 3.588.023c1.735.05 4.081.3 7.039.751M381.249 417.794c.092 0 .135.048.13.144-.006.096-.1.204-.282.323-.183.119-.395.237-.636.355-.24.118-.509.256-.805.415-.296.158-.654.33-1.075.514a5.791 5.791 0 0 1-1.333.4c-.686.12-1.534.079-2.543-.123M381.525 417.507c.041.029.066.009.074-.06.008-.07-.038-.218-.137-.444a7.46 7.46 0 0 0-.461-.85 9.973 9.973 0 0 0-.733-1.035c-.28-.35-.589-.7-.925-1.05a78.974 78.974 0 0 0-2.242-2.201" style="fill:none;stroke:#fff;stroke-width:1.29921;stroke-linecap:round;stroke-linejoin:round;stroke-miterlimit:10;stroke-dasharray:none;stroke-opacity:1" transform="matrix(.72727 0 0 .72727 -145.345 -180.686)"/><path d="M403.307 410.675c-.028.086-.037.87-.028 2.352.005.785.016 1.674.033 2.665.018.991.036 2.499.055 4.523.019 2.023.037 3.58.054 4.667.025 1.598.123 3.655.295 6.173" style="fill:none;stroke:#ffd300;stroke-width:1.29921;stroke-linecap:round;stroke-linejoin:round;stroke-miterlimit:10;stroke-dasharray:none;stroke-opacity:1" transform="matrix(.72727 0 0 .72727 -142.11 -183.732)"/></svg>