<svg xmlns="http://www.w3.org/2000/svg" width="188.9" height="146.384"><path d="M249.413 314.336a1.335 1.335 0 0 0-.09-.444.891.891 0 0 0-.241-.307 2.68 2.68 0 0 0-.462-.327 7.427 7.427 0 0 0-.606-.31 4.051 4.051 0 0 0-1.572-.358 3.176 3.176 0 0 0-1.04.165c-.386.12-.8.285-1.243.494-.442.21-.899.443-1.37.702a16.07 16.07 0 0 0-1.423.885c-.477.33-.944.69-1.4 1.077-.457.388-.914.805-1.372 1.252-.458.447-.89.917-1.295 1.411a11.062 11.062 0 0 0-1.085 1.59 13.685 13.685 0 0 0-.822 1.726 8.47 8.47 0 0 0-.486 1.802c-.095.615-.131 1.28-.109 1.998.022.717.142 1.447.359 2.192.216.745.522 1.567.917 2.467.394.9.865 1.773 1.412 2.617a30.884 30.884 0 0 0 1.756 2.442 18.356 18.356 0 0 0 1.947 2.102 11.578 11.578 0 0 0 2.093 1.543c.723.411 1.47.725 2.242.941.772.216 1.399.341 1.881.375.482.033 1.283-.06 2.403-.279 1.119-.22 2.076-.533 2.87-.94.795-.409 1.55-.916 2.268-1.521a15.389 15.389 0 0 0 2.043-2.112 39.06 39.06 0 0 0 1.76-2.352c.527-.767.985-1.606 1.373-2.517a15.01 15.01 0 0 0 .87-2.674c.191-.872.296-1.771.316-2.698.019-.926-.08-1.876-.299-2.848a14.506 14.506 0 0 0-.85-2.654c-.35-.798-.78-1.525-1.29-2.183a14.898 14.898 0 0 0-1.676-1.827 10.417 10.417 0 0 0-1.912-1.409 15.66 15.66 0 0 0-2.022-.97 10.33 10.33 0 0 0-2.052-.574 8.815 8.815 0 0 0-1.99-.118c-.941.055-2.02.338-3.236.847M248.48 358.215c.063-.11.026-.369-.112-.778a2.934 2.934 0 0 0-.256-.59 2.99 2.99 0 0 0-.323-.424 4.298 4.298 0 0 0-.476-.447c-.187-.153-.392-.309-.613-.467a3.436 3.436 0 0 0-.756-.404 3.143 3.143 0 0 0-.97-.196 3.18 3.18 0 0 0-1.173.175 5.427 5.427 0 0 0-1.303.658c-.45.3-.849.596-1.194.887-.345.29-.79.709-1.332 1.254a12.845 12.845 0 0 0-1.426 1.693c-.409.584-.777 1.19-1.104 1.818a15.483 15.483 0 0 0-.81 1.81 8.223 8.223 0 0 0-.437 1.83c-.08.642-.117 1.28-.112 1.914.005.634.075 1.294.21 1.981.137.688.328 1.369.575 2.044a8.195 8.195 0 0 0 1.013 1.92c.429.606.938 1.17 1.528 1.693.59.523 1.23.983 1.916 1.38.687.399 1.433.739 2.238 1.021.805.282 1.594.527 2.365.735.772.207 1.578.355 2.418.443.84.088 1.681.096 2.523.024a12.536 12.536 0 0 0 2.466-.461 12.026 12.026 0 0 0 2.28-.927c.718-.383 1.402-.86 2.052-1.433a12.992 12.992 0 0 0 1.719-1.827c.496-.645.937-1.417 1.324-2.316.387-.9.696-1.805.927-2.716.23-.91.374-1.811.428-2.701a9.235 9.235 0 0 0-.172-2.518c-.17-.79-.45-1.62-.839-2.493a12.89 12.89 0 0 0-1.382-2.397 17.915 17.915 0 0 0-1.807-2.09 7.556 7.556 0 0 0-2.234-1.556 7.46 7.46 0 0 0-2.613-.641 13.596 13.596 0 0 0-2.793.112c-.936.133-1.857.328-2.764.583-.906.255-1.765.57-2.577.946-.813.376-1.547.751-2.203 1.126-.656.374-1.147.683-1.473.926-.518.388-.832.699-.94.93" style="fill:none;stroke:#007aff;stroke-width:1.8189;stroke-linecap:round;stroke-linejoin:round;stroke-miterlimit:10;stroke-dasharray:none;stroke-opacity:1" transform="matrix(.72727 0 0 .72727 -170.095 -226.676)"/><path d="M248.822 398.233c-.047-.103-.158-.219-.333-.348a1.624 1.624 0 0 0-.44-.219 2.86 2.86 0 0 0-.663-.128 6.94 6.94 0 0 0-.866-.02 5.076 5.076 0 0 0-1.03.153c-.369.091-.776.206-1.22.345-.445.139-.91.296-1.395.472-.486.176-.965.375-1.44.599a13.559 13.559 0 0 0-2.366 1.415c-.326.244-.563.427-.713.55-.15.123-.425.377-.827.762-.402.385-.804.818-1.208 1.3a20.344 20.344 0 0 0-1.365 1.879 39.131 39.131 0 0 0-1.4 2.297c-.427.76-.76 1.55-1 2.37a10.57 10.57 0 0 0-.424 2.405c-.042.782.031 1.58.22 2.394.187.813.493 1.616.917 2.406.423.791.923 1.592 1.5 2.403a15.01 15.01 0 0 0 1.83 2.144c.646.62 1.355 1.165 2.129 1.635.774.471 1.578.858 2.415 1.16.836.302 1.681.505 2.536.607a18.15 18.15 0 0 0 2.603.122 11.64 11.64 0 0 0 2.65-.378c.888-.23 1.456-.394 1.707-.489a7.06 7.06 0 0 0 .695-.305c.213-.109.829-.545 1.847-1.31 1.017-.765 1.646-1.284 1.887-1.558.24-.273.433-.525.578-.755.146-.23.336-.562.57-.998.235-.436.545-1.074.932-1.916.387-.842.692-1.605.915-2.291.222-.686.37-1.167.441-1.442.072-.276.172-.838.3-1.686.127-.849.204-1.748.23-2.699.028-.95-.052-1.969-.237-3.056a12.617 12.617 0 0 0-1.007-3.2 14.89 14.89 0 0 0-1.79-2.926c-.709-.903-1.473-1.59-2.293-2.062-.82-.472-1.616-.762-2.39-.872a8.475 8.475 0 0 0-2.198-.041 14.38 14.38 0 0 0-1.957.365c-.908.24-1.926.528-3.055.867" style="fill:none;stroke:#007aff;stroke-width:1.8189;stroke-linecap:round;stroke-linejoin:round;stroke-miterlimit:10;stroke-dasharray:none;stroke-opacity:1" transform="matrix(.72727 0 0 .72727 -167.144 -227.987)"/><path d="M332.841 335.644c-.463-.482-.782-.787-.957-.916a3.516 3.516 0 0 0-.388-.249 3.511 3.511 0 0 0-.497-.22 3.52 3.52 0 0 0-.71-.163 7.268 7.268 0 0 0-1-.057c-.386.001-.814.055-1.283.163a9.78 9.78 0 0 0-1.394.434c-.46.181-.93.406-1.412.676a11.928 11.928 0 0 0-3.053 2.521 36.253 36.253 0 0 0-1.344 1.628 11.092 11.092 0 0 0-1.098 1.738c-.324.632-.59 1.289-.796 1.971-.207.682-.35 1.338-.428 1.968-.079.629-.107 1.282-.084 1.96.023.677.109 1.26.26 1.75.15.49.27.84.363 1.052.092.21.315.64.67 1.289.355.649.774 1.31 1.258 1.986a15.652 15.652 0 0 0 1.693 1.976 20.7 20.7 0 0 0 2.027 1.773c.706.54 1.463.998 2.27 1.375.807.378 1.653.681 2.537.912.883.23 1.751.388 2.602.475.852.086 1.679.095 2.481.027a7.697 7.697 0 0 0 2.268-.536 6.777 6.777 0 0 0 1.964-1.237 10.63 10.63 0 0 0 1.623-1.835c.482-.687.91-1.405 1.286-2.156.376-.75.684-1.528.923-2.335.24-.807.41-1.623.51-2.448.1-.826.132-1.662.098-2.508a9.461 9.461 0 0 0-.44-2.491 17.349 17.349 0 0 0-.973-2.41 18.67 18.67 0 0 0-1.31-2.253 18.77 18.77 0 0 0-1.533-1.969 7.949 7.949 0 0 0-1.72-1.468 8.074 8.074 0 0 0-1.969-.882 9.864 9.864 0 0 0-2.21-.385 10.337 10.337 0 0 0-2.26.103c-.737.116-1.452.285-2.145.508a10.941 10.941 0 0 0-2.927 1.457M332.282 378.969a13.914 13.914 0 0 0-1.512-.956 3.827 3.827 0 0 0-.906-.37 4.92 4.92 0 0 0-.934-.12 4.444 4.444 0 0 0-1.17.122 6.2 6.2 0 0 0-1.28.45 8.052 8.052 0 0 0-1.3.785c-.437.321-.89.742-1.355 1.263a13.955 13.955 0 0 0-1.327 1.762c-.42.654-.808 1.316-1.163 1.987a14.25 14.25 0 0 0-.903 2.09 13.643 13.643 0 0 0-.534 2.027 9.514 9.514 0 0 0-.122 2.027c.03.722.16 1.442.392 2.161.233.72.53 1.451.894 2.196.364.745.802 1.464 1.315 2.157.513.694 1.1 1.32 1.76 1.878a15.2 15.2 0 0 0 2.054 1.467c.707.42 1.472.758 2.293 1.016.82.258 1.67.442 2.545.552.876.11 1.74.167 2.596.17a10.3 10.3 0 0 0 2.467-.286 8.456 8.456 0 0 0 2.213-.876 7.851 7.851 0 0 0 1.816-1.421 9.431 9.431 0 0 0 1.386-1.907c.398-.715.754-1.48 1.067-2.297.314-.816.574-1.636.78-2.458.208-.822.341-1.657.402-2.507.061-.85.052-1.684-.026-2.506a7.378 7.378 0 0 0-.548-2.23 6.541 6.541 0 0 0-1.133-1.784 12.619 12.619 0 0 0-1.647-1.524 19.51 19.51 0 0 0-2.11-1.424 25.399 25.399 0 0 0-2.453-1.267 16.534 16.534 0 0 0-2.54-.915c-.835-.223-1.582-.334-2.24-.334a5.12 5.12 0 0 0-1.827.317c-.827.313-1.705.808-2.633 1.486M415.323 355.49c-.062-.1-.195-.198-.401-.293a4.4 4.4 0 0 0-.554-.216 4.46 4.46 0 0 0-.58-.128 7.881 7.881 0 0 0-.806-.079 6.983 6.983 0 0 0-1.056.033c-.39.038-.803.138-1.242.299-.438.16-.904.381-1.397.662s-1.01.62-1.554 1.015a20.84 20.84 0 0 0-1.548 1.245c-.49.435-.986.893-1.488 1.377a14.41 14.41 0 0 0-1.435 1.612c-.454.59-.847 1.179-1.18 1.763a18.31 18.31 0 0 0-.885 1.766c-.257.593-.47 1.237-.64 1.934-.17.696-.279 1.366-.327 2.01-.049.643-.033 1.33.048 2.058a7.59 7.59 0 0 0 .556 2.125c.29.687.661 1.353 1.113 1.996.452.644.978 1.278 1.58 1.904a13.145 13.145 0 0 0 1.961 1.677c.707.493 1.461.948 2.263 1.365.802.417 1.634.795 2.495 1.133a13.64 13.64 0 0 0 2.692.747c.934.16 1.834.228 2.7.203a7.786 7.786 0 0 0 2.519-.492 9.31 9.31 0 0 0 2.298-1.255 15.504 15.504 0 0 0 1.825-1.559c.497-.507.84-.884 1.03-1.132.19-.248.522-.761.999-1.54.476-.778.938-1.622 1.385-2.53.447-.909.828-1.828 1.142-2.757.314-.93.54-1.898.679-2.907.138-1.008.196-1.985.174-2.93a10.145 10.145 0 0 0-.433-2.73 8.298 8.298 0 0 0-1.113-2.339 9.97 9.97 0 0 0-1.714-1.883 8.706 8.706 0 0 0-2.23-1.387 10.7 10.7 0 0 0-2.687-.745 18.015 18.015 0 0 0-6.17.172c-1.064.213-2.044.43-2.941.653a14.942 14.942 0 0 1-4.1.433" style="fill:none;stroke:#007aff;stroke-width:1.8189;stroke-linecap:round;stroke-linejoin:round;stroke-miterlimit:10;stroke-dasharray:none;stroke-opacity:1" transform="matrix(.72727 0 0 .72727 -170.095 -226.676)"/><path d="M433.32 368.564a3.71 3.71 0 0 1 .936-.351c.206-.045.522-.088.946-.129a59.43 59.43 0 0 1 1.944-.138 131.326 131.326 0 0 1 6.699-.216c1.305-.01 2.726-.021 4.264-.035 1.537-.014 3.251-.04 5.142-.077 1.89-.037 3.871-.06 5.941-.07a440.23 440.23 0 0 1 6.374.02c3.208.034 7.12.487 11.733 1.36" style="fill:none;stroke:#90d300;stroke-width:1.8189;stroke-linecap:round;stroke-linejoin:round;stroke-miterlimit:10;stroke-dasharray:none;stroke-opacity:1" transform="matrix(.72727 0 0 .72727 -170.095 -226.676)"/><path d="M320.273 330.305c-.802-.282-1.183-.358-1.142-.226.03.093.197.2.502.318.304.118.719.268 1.242.448.524.18 1.118.395 1.783.644.665.249 1.463.555 2.396.917.932.363 1.953.751 3.064 1.165 1.11.414 2.304.852 3.583 1.315 1.279.462 2.621.975 4.027 1.536 1.407.562 2.89 1.173 4.452 1.832 1.562.66 3.082 1.323 4.561 1.989 1.48.666 2.912 1.345 4.3 2.037 1.386.692 2.786 1.381 4.2 2.068a85.333 85.333 0 0 1 4.07 2.113c1.924 1.067 4.068 2.416 6.433 4.047M320.707 367.335c-.115.015-.17-.019-.168-.1.002-.058.165-.15.488-.277.324-.128.646-.263.967-.405.322-.142.611-.282.87-.418.258-.137.579-.294.96-.47a22.01 22.01 0 0 1 1.07-.465c.332-.132.771-.304 1.316-.515.546-.21 1.005-.394 1.377-.55.373-.156.962-.377 1.768-.662.806-.284 1.631-.585 2.476-.902.844-.317 1.766-.663 2.765-1.036a163.21 163.21 0 0 1 2.98-1.083c.989-.348 1.959-.67 2.91-.966.951-.296 1.943-.601 2.974-.915a104.99 104.99 0 0 0 2.935-.939c.925-.311 1.846-.63 2.765-.953.918-.324 1.825-.653 2.72-.988a121.56 121.56 0 0 1 3.8-1.322c1.637-.546 2.778-.908 3.423-1.084a14.056 14.056 0 0 1 2.98-.475M319.645 409.972c.138-.003.278-.097.42-.282.141-.184.371-.521.689-1.011.317-.49.59-.899.821-1.227.23-.329.495-.733.793-1.214.298-.48.673-1.073 1.125-1.779a30.17 30.17 0 0 1 1.564-2.203 59.707 59.707 0 0 0 1.788-2.438 61.89 61.89 0 0 1 1.99-2.689c.726-.93 1.483-1.9 2.271-2.913.788-1.012 1.63-2.073 2.526-3.182.895-1.109 1.5-1.845 1.81-2.21.312-.363.597-.699.855-1.006.257-.307.623-.772 1.095-1.394.473-.621.825-1.072 1.056-1.351.23-.28.73-.86 1.5-1.74s1.627-1.898 2.573-3.056c.946-1.158 1.931-2.352 2.954-3.582a132.119 132.119 0 0 1 3.193-3.696 360.316 360.316 0 0 0 3.103-3.507 269.403 269.403 0 0 1 2.875-3.24 479.211 479.211 0 0 1 2.785-3.063c.904-.985 1.765-1.91 2.583-2.777a85.556 85.556 0 0 1 2.375-2.421 63.425 63.425 0 0 1 1.996-1.882c.864-.772 1.655-1.392 2.374-1.86" style="fill:none;stroke:#7ec636;stroke-width:2.07874;stroke-linecap:round;stroke-linejoin:round;stroke-miterlimit:10;stroke-dasharray:none;stroke-opacity:1" transform="matrix(.72727 0 0 .72727 -208.828 -228.823)"/><path d="M318.433 330.389c-.072-.123-.087-.171-.046-.146l.224.14c.12.074.276.189.47.345a24.359 24.359 0 0 1 1.737 1.541c.4.388.826.835 1.274 1.34.449.505.964 1.05 1.547 1.633.582.584 1.228 1.242 1.939 1.975.71.733 1.419 1.487 2.125 2.262.706.775 1.457 1.594 2.251 2.458a99.119 99.119 0 0 1 2.363 2.664c.78.913 1.571 1.827 2.373 2.745a71.948 71.948 0 0 1 2.269 2.724 81.45 81.45 0 0 0 2.265 2.736c.8.926 1.542 1.843 2.225 2.752.684.91 1.436 1.826 2.254 2.752a53.657 53.657 0 0 1 2.35 2.846 68.814 68.814 0 0 0 2.28 2.81 58.259 58.259 0 0 1 2.226 2.765c.713.942 1.468 1.907 2.267 2.894.8.987 1.565 1.951 2.298 2.893.734.941 1.5 1.903 2.302 2.886.8.983 1.59 1.961 2.367 2.933.777.973 1.523 1.92 2.236 2.844.712.923 1.367 1.797 1.962 2.623a24.579 24.579 0 0 1 1.427 2.18c.531.935 1.113 1.946 1.745 3.032M321.105 410.64c.434-.106 1.08-.318 1.94-.636.544-.202 1.04-.384 1.489-.546a87.07 87.07 0 0 0 1.486-.555c.542-.208 1.149-.433 1.82-.675a47.51 47.51 0 0 1 2.24-.74c.823-.252 1.713-.518 2.67-.8.956-.283 1.968-.578 3.036-.885 1.068-.308 2.189-.624 3.361-.948 1.173-.325 2.377-.648 3.613-.969 1.237-.32 2.507-.635 3.812-.942 1.304-.307 2.586-.613 3.844-.92 1.258-.305 2.519-.62 3.782-.944a581.214 581.214 0 0 0 7.111-1.884c1.033-.282 1.98-.528 2.843-.738a89.442 89.442 0 0 1 4.572-.965M320.642 368.02c-.094-.349-.034-.502.179-.46.153.03.334.095.543.195.208.1.584.31 1.126.628.543.318 1.062.601 1.558.85a41.842 41.842 0 0 1 3.597 2.044c.657.417 1.402.861 2.236 1.334.834.472 1.697.974 2.588 1.506a692.49 692.49 0 0 1 2.783 1.668c.965.582 1.983 1.183 3.056 1.805 1.073.621 1.987 1.166 2.743 1.633l1.66 1.022c.35.215.937.553 1.758 1.014.821.46 1.35.763 1.588.907.236.145.48.286.73.425s.79.423 1.62.853c.83.43 1.732.931 2.705 1.505.974.575 1.698.987 2.175 1.237.476.25.938.487 1.385.713a130.05 130.05 0 0 0 4.487 2.133c.873.396 1.667.75 2.38 1.065.713.315 1.328.572 1.843.772.79.306 1.464.573 2.025.803M401.436 348.392c.36.257.923.546 1.69.868.767.321 1.419.613 1.954.876a148.899 148.899 0 0 0 4.352 2.04c.892.4 1.826.834 2.802 1.3.977.465 1.984.96 3.024 1.484a386.192 386.192 0 0 0 6.88 3.381c1.188.569 2.42 1.147 3.695 1.736 1.275.59 2.512 1.19 3.71 1.804 1.198.614 2.347 1.198 3.446 1.754 1.1.555 2.148 1.087 3.145 1.595.998.507 1.96 1.026 2.889 1.556.928.53 1.804 1.036 2.628 1.52.825.483 1.58.918 2.264 1.305.685.386 1.252.726 1.703 1.018.45.292.797.533 1.04.723.244.19.41.338.5.443.123.145.047.23-.228.255M403.105 393.328l-.18.016c-.01 0 .002-.007.033-.025.03-.018.141-.079.331-.185.19-.105.599-.313 1.226-.625a82.218 82.218 0 0 0 1.732-.882 52.595 52.595 0 0 1 1.933-.956c.763-.361 1.561-.732 2.396-1.113.834-.38 1.774-.786 2.821-1.217 1.047-.43 2.133-.882 3.26-1.355 1.126-.472 2.334-.969 3.625-1.49 1.29-.52 2.592-1.042 3.905-1.563 1.313-.52 2.61-1.025 3.893-1.513 1.283-.487 2.55-.955 3.803-1.401 1.252-.447 2.435-.878 3.55-1.294 1.116-.416 2.186-.803 3.212-1.16 1.025-.359 1.982-.683 2.87-.972a68.71 68.71 0 0 1 3.106-.919 77.048 77.048 0 0 1 2.239-.591 9.26 9.26 0 0 1 .798-.152l.482-.066" style="fill:none;stroke:#7ec636;stroke-width:2.07874;stroke-linecap:round;stroke-linejoin:round;stroke-miterlimit:10;stroke-dasharray:none;stroke-opacity:1" transform="matrix(.72727 0 0 .72727 -208.828 -228.823)"/><path d="M375.773 446.554c-.244 0-.491.075-.743.226-.252.15-.5.349-.74.597-.242.248-.523.618-.843 1.11-.32.49-.648 1.115-.986 1.871a26.496 26.496 0 0 0-.955 2.495c-.299.907-.505 1.987-.618 3.24a25.592 25.592 0 0 0-.045 3.89c.083 1.339.28 2.683.589 4.032.31 1.348.719 2.606 1.227 3.773.757 1.735 1.924 3.169 3.502 4.303M387.027 448.21c-.261-.093-.762-.172-1.502-.235-.458-.04-.891-.104-1.3-.194-.41-.09-.703-.14-.88-.15a.405.405 0 0 0-.398.2 1.512 1.512 0 0 0-.18.585c-.032.246-.053.748-.061 1.507-.008.759-.01 1.276-.004 1.552s.086 1.147.24 2.613a398.389 398.389 0 0 0 .762 6.702c.09.719.154 1.22.194 1.504.04.283.087.704.141 1.261.054.558.095 1.112.122 1.664.028.551.06 1.06.099 1.524.038.464.064.871.08 1.22.015.348.023.669.024.963 0 .294-.021.571-.065.83-.044.26-.07.514-.079.762-.008.249.017.41.077.487.06.076.346.118.861.127.515.008.95.046 1.306.112.355.066.724.129 1.108.189.385.06.851.105 1.4.136.55.031.992-.018 1.327-.148" style="fill:none;stroke:#fff;stroke-width:1.29921;stroke-linecap:round;stroke-linejoin:round;stroke-miterlimit:10;stroke-dasharray:none;stroke-opacity:1" transform="matrix(.72727 0 0 .72727 -250 -200.456)"/><path d="M390.249 460.818c.336-.109.74-.199 1.213-.27.451-.069 1.159-.172 2.124-.311M401.19 455.493a2.443 2.443 0 0 0-.17-.742 1.293 1.293 0 0 0-.237-.416 1.177 1.177 0 0 0-.336-.25 1.485 1.485 0 0 0-.492-.14 2.386 2.386 0 0 0-.637.014c-.232.034-.467.149-.707.345-.24.197-.484.519-.733.967-.248.447-.473.998-.674 1.651a11.418 11.418 0 0 0-.426 2.071 11.722 11.722 0 0 0-.028 2.274c.064.789.223 1.493.476 2.113.254.62.562 1.109.926 1.468.364.358.764.576 1.202.652.437.077.89-.025 1.356-.305.467-.28.892-.647 1.276-1.098.384-.451.659-.924.823-1.42.165-.495.27-1.182.313-2.06.044-.88 0-1.597-.13-2.153-.132-.556-.308-1.018-.528-1.385-.22-.366-.442-.624-.667-.773a2.176 2.176 0 0 0-.586-.293c-.237-.067-.392.003-.465.208M405.678 464.365l-.357-.48M410.342 457.838c-.085.157-.162.166-.23.029-.05-.1-.087-.296-.11-.585-.023-.29-.035-.655-.038-1.098a5.783 5.783 0 0 1 .117-1.23c.08-.378.197-.7.35-.968.152-.268.328-.478.527-.631.2-.154.375-.245.526-.274.15-.028.303.06.458.264.155.205.251.47.29.798.037.326.047.69.028 1.092-.018.402-.06.786-.126 1.15-.065.365-.126.658-.181.879a5.602 5.602 0 0 1-.123.442l-.045.126c-.004.01.006.008.03-.007l.28-.18c.164-.105.36-.178.586-.218a2.132 2.132 0 0 1 1.563.346c.275.18.536.39.784.629.248.238.445.5.592.786.147.285.223.623.23 1.011.006.39-.102.804-.323 1.244-.22.44-.529.83-.924 1.17a3.68 3.68 0 0 1-1.336.74c-.494.151-.924.237-1.288.256-.516.027-.785-.12-.807-.442M418.697 463.75c.103.2.172.413.208.638.05.322.107 1.278.17 2.869M430.533 456.451c.026-.537.009-.882-.05-1.035a.968.968 0 0 0-.196-.304 1.258 1.258 0 0 0-.315-.246 1.38 1.38 0 0 0-.41-.147 2.566 2.566 0 0 0-.44-.049c-.142-.003-.337.054-.586.172-.248.117-.484.317-.707.598-.224.282-.437.67-.64 1.167a11.153 11.153 0 0 0-.515 1.637 10.516 10.516 0 0 0-.26 1.948c-.032.704.015 1.38.143 2.027.127.647.314 1.239.561 1.776.247.537.528.973.84 1.305.314.333.66.523 1.038.57.378.047.775-.096 1.19-.429.416-.332.789-.79 1.119-1.373.33-.583.583-1.277.76-2.084.178-.806.291-1.553.34-2.241a10.18 10.18 0 0 0-.046-2.001c-.081-.646-.252-1.206-.513-1.68-.26-.474-.532-.812-.814-1.013-.417-.296-.828-.375-1.232-.237M435.003 464.275l-.212.331M438.279 458.804c-.054.126-.12.183-.2.171-.056-.008-.102-.125-.14-.35-.037-.227-.086-.86-.147-1.902a55.133 55.133 0 0 0-.15-2.116c-.04-.37-.083-.64-.133-.812-.05-.172-.097-.274-.142-.304-.045-.031-.077 0-.094.09a1.54 1.54 0 0 0 0 .403c.016.176.069.347.16.512.09.166.265.376.522.632.257.255.536.447.836.577.3.13.63.212.99.247.358.036.713.053 1.064.051.35 0 .648-.033.89-.096a2.33 2.33 0 0 0 .537-.192c.115-.065.182-.126.202-.181.02-.056.002-.094-.055-.113-.056-.02-.152.004-.289.07-.136.066-.292.228-.468.487-.175.258-.36.608-.554 1.048-.194.44-.358.888-.495 1.341-.136.454-.251.99-.346 1.607a51.665 51.665 0 0 0-.258 1.911c-.076.657-.13 1.234-.161 1.732-.05.79-.052 1.365-.007 1.728M444.842 465.142c.213-.029.405.072.576.302.117.156.213.38.288.67.075.292.099.634.07 1.027a2.987 2.987 0 0 1-.297 1.109c-.249.508-.681.98-1.296 1.414M460.577 455.792c-.017-.142-.114-.318-.291-.528a2.873 2.873 0 0 0-.44-.443 1.874 1.874 0 0 0-.429-.228 2.526 2.526 0 0 0-.583-.144 1.792 1.792 0 0 0-.748.08c-.278.082-.569.277-.872.583a5.477 5.477 0 0 0-.85 1.16c-.265.467-.496.97-.693 1.507a7.43 7.43 0 0 0-.4 1.732c-.07.617-.061 1.267.026 1.95.088.683.224 1.263.409 1.741.184.478.518 1.012 1 1.6.482.59.977.942 1.486 1.059.508.117 1.02-.026 1.534-.428.515-.402.953-.934 1.315-1.596a8.056 8.056 0 0 0 .793-2.099c.167-.737.268-1.392.303-1.966a4.147 4.147 0 0 0-.187-1.575 4.064 4.064 0 0 0-.694-1.28c-.305-.376-.589-.635-.853-.776-.379-.203-.703-.16-.971.13M465.082 464.89l-.112.127M472.079 455.615c-.2-.4-.356-.657-.467-.772a.658.658 0 0 0-.31-.172c-.13-.035-.291-.026-.484.029-.194.055-.4.209-.617.462-.218.254-.427.592-.628 1.013-.201.422-.366.91-.494 1.465-.128.556-.21 1.208-.247 1.957-.036.75.007 1.493.13 2.23.123.738.337 1.337.642 1.799.305.46.657.802 1.057 1.023.4.221.822.3 1.268.237.446-.063.872-.345 1.276-.847s.737-1.188.998-2.057c.26-.87.434-1.731.52-2.584.085-.854.087-1.604.006-2.253-.082-.648-.246-1.165-.493-1.55-.247-.384-.502-.677-.765-.877a9.48 9.48 0 0 0-1.162-.763" style="fill:none;stroke:#007aff;stroke-width:1.29921;stroke-linecap:round;stroke-linejoin:round;stroke-miterlimit:10;stroke-dasharray:none;stroke-opacity:1" transform="matrix(.72727 0 0 .72727 -250 -200.456)"/><path d="M476.798 449.488c-.177.012-.266-.02-.267-.093-.001-.052.11-.092.332-.12.223-.027.646-.04 1.27-.042a22.843 22.843 0 0 0 1.509-.042 32.21 32.21 0 0 1 1.063-.06c.326-.012.601-.014.824-.005.222.008.38.03.473.067.131.052.121.18-.03.388" style="fill:none;stroke:#fff;stroke-width:1.29921;stroke-linecap:round;stroke-linejoin:round;stroke-miterlimit:10;stroke-dasharray:none;stroke-opacity:1" transform="matrix(.72727 0 0 .72727 -250 -200.456)"/><path d="M481.396 449.245c0 .459.011.97.035 1.537.024.565.036 1.827.037 3.785.001 1.959.01 3.113.029 3.464.018.35.032.7.042 1.046.01.346.025.718.044 1.117.02.4.056 1.019.111 1.86.055.84.124 1.672.206 2.495.083.824.143 1.44.179 1.846.036.407.063.796.08 1.166.018.37.027.854.03 1.453.001.6.02.898.058.895" style="fill:none;stroke:#fff;stroke-width:1.29921;stroke-linecap:round;stroke-linejoin:round;stroke-miterlimit:10;stroke-dasharray:none;stroke-opacity:1" transform="matrix(.72727 0 0 .72727 -250 -200.456)"/><path d="M482.196 468.868a2.54 2.54 0 0 1-.857.348c-.198.04-.474.087-.827.14-.353.053-.728.103-1.124.149-.395.046-.78.087-1.152.123-.57.056-1.038.022-1.404-.102M487.912 445.943c.396.143.746.457 1.05.943.302.485.523.864.662 1.138.138.274.354.859.647 1.755.293.896.549 1.902.768 3.019.219 1.116.423 2.31.611 3.579.189 1.269.328 2.52.42 3.756a32.52 32.52 0 0 1 .054 3.774 20.534 20.534 0 0 1-.542 3.864c-.452 1.909-1.401 3.997-2.848 6.264M504.477 458.839c.476 0 .979-.023 1.508-.067.53-.045 1.106-.1 1.731-.168.91-.098 2.3-.17 4.174-.213M504.555 464.889c.312-.092.824-.196 1.535-.314a17.567 17.567 0 0 1 1.745-.176c1.045-.063 2.564-.032 4.558.091" style="fill:none;stroke:#fff;stroke-width:1.29921;stroke-linecap:round;stroke-linejoin:round;stroke-miterlimit:10;stroke-dasharray:none;stroke-opacity:1" transform="matrix(.72727 0 0 .72727 -250 -200.456)"/><path d="M477.317 464.03c.306 0 .769-.044 1.39-.133a67.867 67.867 0 0 0 3.366-.588M491.018 456.263c-.002.651.051 1.342.159 2.073.107.732.202 1.49.285 2.276.083.786.142 1.74.178 2.86.052 1.632.197 4.053.435 7.261M496.28 469.938l-.162.118M506.272 458.288c-.212-.543-.37-.892-.476-1.048a1.167 1.167 0 0 0-.35-.313c-.16-.1-.368-.187-.624-.26a3.935 3.935 0 0 0-.91-.127 2.448 2.448 0 0 0-1.044.195c-.345.144-.666.391-.962.743-.296.352-.555.87-.778 1.552-.223.684-.38 1.48-.473 2.39-.092.91-.104 1.855-.037 2.835s.27 1.94.608 2.88c.338.94.744 1.702 1.218 2.285.473.584.983.98 1.527 1.192.544.21 1.092.247 1.644.11.55-.138 1.034-.545 1.448-1.221.414-.676.741-1.528.983-2.554.24-1.026.408-2.035.5-3.027.092-.992.13-1.848.11-2.568-.018-.72-.11-1.293-.276-1.717-.166-.424-.49-.884-.972-1.38-.772-.796-1.348-1.32-1.727-1.572" style="fill:none;stroke:#007aff;stroke-width:1.29921;stroke-linecap:round;stroke-linejoin:round;stroke-miterlimit:10;stroke-dasharray:none;stroke-opacity:1" transform="matrix(.72727 0 0 .72727 -216.644 -203.935)"/><path d="M310.034 436.967c.152.75.34 1.456.564 2.122.15.445.368.96.654 1.544.286.584.555 1.059.807 1.424s.48.68.683.944c.204.264.63.767 1.277 1.508.647.741 1.305 1.494 1.975 2.258.669.765 1.197 1.345 1.585 1.741.388.396.785.767 1.19 1.113.407.346 1.02.769 1.837 1.268.818.5 1.575.912 2.27 1.238.694.325 1.409.623 2.143.893.735.27 1.437.483 2.106.64.669.156 1.365.273 2.088.35a32.09 32.09 0 0 0 2.384.153 51.568 51.568 0 0 0 4.788-.054 148.13 148.13 0 0 1 2.607-.124 78.607 78.607 0 0 1 2.759-.059c.924-.004 1.84-.002 2.75.006.908.008 1.851.081 2.829.22a22.076 22.076 0 0 1 5.55 1.525c.892.375 1.686.746 2.38 1.111.693.365 1.189.635 1.487.81.297.173.843.529 1.637 1.065.794.537 1.655 1.25 2.581 2.136.927.887 1.92 1.898 2.983 3.032a79.426 79.426 0 0 0 3.128 3.166 440.798 440.798 0 0 1 5.846 5.715M364.684 475.453l-.294-.076h-.002l.025.008.513.166c.321.104.768.23 1.34.381.571.15 1.294.303 2.168.458.874.154 1.809.307 2.803.458 1.463.222 3.273.184 5.431-.115M376.77 476.536c0-.179.023-.408.07-.688.048-.28.087-.709.119-1.286.031-.577.018-1.211-.04-1.902-.06-.69-.202-1.46-.43-2.31-.332-1.237-1.128-2.981-2.39-5.234" style="fill:none;stroke:#ffd300;stroke-width:1.29921;stroke-linecap:round;stroke-linejoin:round;stroke-miterlimit:10;stroke-dasharray:none;stroke-opacity:1" transform="matrix(.72727 0 0 .72727 -208.828 -228.823)"/><path d="M494.375 477.928a20.88 20.88 0 0 1-.75-1.834 41.134 41.134 0 0 1-.674-2.038 22.579 22.579 0 0 1-.856-5.01 55.599 55.599 0 0 1-.081-3.226c0-1.209.081-2.456.242-3.743.16-1.286.398-2.653.71-4.1.314-1.448.693-2.821 1.136-4.119a59.528 59.528 0 0 1 1.503-3.927c.559-1.32 1.104-2.452 1.638-3.396.533-.944.913-1.614 1.14-2.011.225-.397.746-1.188 1.562-2.374a39.929 39.929 0 0 1 2.648-3.434 72.82 72.82 0 0 1 2.996-3.268 26.425 26.425 0 0 1 3.245-2.848 144.352 144.352 0 0 1 3.424-2.447 74.911 74.911 0 0 1 3.558-2.32 71.67 71.67 0 0 1 3.756-2.145 70.441 70.441 0 0 0 3.9-2.242 91.78 91.78 0 0 0 3.945-2.581 62.088 62.088 0 0 0 3.948-2.972 49.183 49.183 0 0 0 3.822-3.475 48.434 48.434 0 0 0 3.59-4.055 72.384 72.384 0 0 0 3.305-4.528 42.154 42.154 0 0 0 2.714-4.606c1.117-2.226 2.187-4.842 3.208-7.847M539.582 395.225c.106-.212.253-.446.442-.702.189-.255.42-.555.691-.9.272-.344.583-.713.933-1.106.35-.394.794-.83 1.33-1.31a66.42 66.42 0 0 1 1.737-1.496c.91-.76 2.18-1.663 3.807-2.711M549.379 386.938c.123.287.263.572.42.856.157.283.315.557.474.822.159.264.35.61.574 1.037.223.426.444.94.663 1.543.218.602.385 1.199.501 1.79.167.85.377 2.75.63 5.698" style="fill:none;stroke:#ffd300;stroke-width:1.29921;stroke-linecap:round;stroke-linejoin:round;stroke-miterlimit:10;stroke-dasharray:none;stroke-opacity:1" transform="matrix(.72727 0 0 .72727 -213.492 -226.49)"/><path d="M298.431 515.111c.218-.01.431-.086.64-.226.14-.093.285-.222.437-.386.151-.164.297-.35.438-.558.14-.209.286-.481.437-.818.152-.337.271-.704.358-1.101.087-.397.15-.87.188-1.416.038-.546.059-1.163.063-1.85.004-.687-.003-1.36-.021-2.02-.018-.66-.064-1.24-.137-1.742a53.75 53.75 0 0 0-.39-2.197c-.185-.964-.347-1.851-.485-2.663a31.201 31.201 0 0 1-.44-4.994c-.008-.875.083-1.712.274-2.51.19-.797.438-1.603.744-2.416.305-.813.658-1.58 1.058-2.3.4-.72.832-1.307 1.297-1.761.68-.666 1.68-1.155 2.996-1.465" style="fill:none;stroke:#ffd300;stroke-width:1.29921;stroke-linecap:round;stroke-linejoin:round;stroke-miterlimit:10;stroke-dasharray:none;stroke-opacity:1" transform="matrix(.72727 0 0 .72727 -206.88 -228.715)"/><path d="M296.255 505.333c.342-.493.82-1.114 1.433-1.863.396-.484.84-.998 1.334-1.541.711-.784 2.32-2.25 4.83-4.396" style="fill:none;stroke:#ffd300;stroke-width:1.29921;stroke-linecap:round;stroke-linejoin:round;stroke-miterlimit:10;stroke-dasharray:none;stroke-opacity:1" transform="matrix(.72727 0 0 .72727 -206.88 -228.715)"/></svg>