<svg xmlns="http://www.w3.org/2000/svg" width="268.458" height="184.659"><path d="M339.883 516.187c.034.144.067.19.1.136.024-.038.03-.095.021-.17a1.386 1.386 0 0 0-.073-.278 3.504 3.504 0 0 0-.146-.343 3.002 3.002 0 0 0-.204-.356 5.134 5.134 0 0 0-.487-.566l-.634-.672c-.176-.189-.342-.371-.497-.547a51.953 51.953 0 0 0-.628-.694 23.266 23.266 0 0 0-.748-.782c-.237-.235-.49-.489-.76-.761-.27-.273-.55-.561-.836-.866a52.32 52.32 0 0 0-.858-.89c-.285-.29-.574-.589-.867-.897a57.564 57.564 0 0 0-.905-.931c-.311-.313-.619-.598-.924-.855l-.911-.769c-.303-.255-.61-.513-.925-.773-.314-.26-.62-.507-.917-.738a40.214 40.214 0 0 1-.911-.731c-.31-.256-.631-.538-.964-.845a43.696 43.696 0 0 0-1.48-1.286 90.544 90.544 0 0 1-1.503-1.282 24.759 24.759 0 0 0-1.02-.851 85.491 85.491 0 0 1-1.559-1.276 29.385 29.385 0 0 0-1.62-1.28 24.453 24.453 0 0 1-1.116-.842c-.371-.296-.738-.594-1.102-.892a15.256 15.256 0 0 0-1.123-.838c-.384-.26-.792-.546-1.222-.856-.43-.31-1.03-.722-1.8-1.234-.77-.513-1.233-.821-1.387-.925-.154-.103-.4-.28-.737-.53-.336-.249-.611-.445-.824-.589a9.408 9.408 0 0 0-.635-.392 11.07 11.07 0 0 1-.639-.39 20.337 20.337 0 0 1-1.013-.737 48 48 0 0 0-1.048-.78 7.043 7.043 0 0 0-.522-.35 12.99 12.99 0 0 1-.518-.32 35.898 35.898 0 0 0-.529-.336 17.774 17.774 0 0 1-.74-.51c-.377-.27-.73-.526-1.06-.77a14.518 14.518 0 0 0-.637-.457 9.291 9.291 0 0 1-.466-.327 16.574 16.574 0 0 1-.66-.512 38.735 38.735 0 0 1-.809-.68 72.864 72.864 0 0 0-.651-.556 12.192 12.192 0 0 0-.507-.396 14.657 14.657 0 0 1-.485-.374c-.108-.088-.275-.24-.503-.454-.229-.214-.448-.43-.66-.645a50.445 50.445 0 0 1-.751-.788 31.46 31.46 0 0 1-1.165-1.311 15.37 15.37 0 0 1-.412-.546c-.19-.26-.415-.564-.676-.915-.26-.35-.488-.665-.68-.943-.194-.279-.432-.641-.714-1.088l-.686-1.088a25.497 25.497 0 0 1-.678-1.168c-.277-.5-.486-.892-.627-1.175a28.595 28.595 0 0 1-.304-.625c-.088-.19-.294-.677-.62-1.463M339.707 516.828c-.142 0-.334-.03-.575-.086a14.755 14.755 0 0 1-.93-.262c-.38-.118-.75-.23-1.115-.336a34.734 34.734 0 0 0-.933-.261 12.355 12.355 0 0 1-1.522-.492c-.288-.113-.59-.238-.905-.374a41.303 41.303 0 0 1-.928-.414c-.304-.14-.6-.275-.89-.404-.29-.13-.582-.253-.88-.37a19.148 19.148 0 0 1-.962-.416c-.344-.159-.71-.334-1.1-.525a70.799 70.799 0 0 0-1.19-.574c-.406-.19-.694-.319-.865-.384a17.34 17.34 0 0 1-.505-.203 19.44 19.44 0 0 1-.786-.362 36.77 36.77 0 0 1-1.161-.585 54.267 54.267 0 0 0-1.217-.619c-.395-.195-.797-.395-1.205-.601a46.554 46.554 0 0 1-1.244-.653c-.421-.23-.813-.437-1.174-.622-.362-.185-.71-.352-1.043-.501a21.44 21.44 0 0 1-.92-.435c-.28-.142-.586-.302-.918-.482-.331-.18-.602-.325-.812-.434-.21-.11-.423-.215-.637-.318-.214-.103-.407-.19-.58-.261-.171-.071-.435-.19-.79-.355a58.827 58.827 0 0 1-1.63-.804l-1.717-.87c-.415-.21-.842-.44-1.282-.693-.44-.253-.87-.497-1.288-.733-.419-.236-.815-.44-1.188-.612a35.595 35.595 0 0 1-1.095-.526c-.356-.179-.73-.378-1.12-.599-.389-.22-.8-.436-1.232-.648-.432-.212-.853-.41-1.262-.592-.41-.183-.82-.383-1.23-.6-.412-.218-.831-.437-1.259-.659a27.341 27.341 0 0 0-1.274-.62c-.422-.19-.8-.375-1.134-.554-.334-.178-.782-.423-1.343-.733-.562-.311-1.074-.57-1.539-.78-.464-.21-.918-.438-1.361-.685-.443-.247-.888-.5-1.336-.757a21.752 21.752 0 0 0-1.35-.718c-.454-.22-.913-.464-1.377-.73a68.528 68.528 0 0 0-1.361-.758c-.442-.24-.88-.45-1.311-.634a78.12 78.12 0 0 1-2.516-1.12 25.156 25.156 0 0 0-1.496-.639 42.185 42.185 0 0 1-1.388-.564c-.472-.202-.939-.414-1.4-.637a17.825 17.825 0 0 0-1.382-.598c-.46-.176-.936-.363-1.43-.56a30.351 30.351 0 0 1-1.511-.652 31.51 31.51 0 0 0-1.506-.651c-.49-.197-.98-.397-1.467-.6a19.472 19.472 0 0 1-1.436-.67 77.18 77.18 0 0 1-1.258-.664 19.992 19.992 0 0 1-.77-.432 7.625 7.625 0 0 1-.431-.283c-.142-.1-.35-.262-.621-.483-.405-.33-.832-.701-1.28-1.116M266.253 481.688c-.095.024-.174-.04-.237-.192-.043-.106-.078-.284-.105-.535a12.882 12.882 0 0 1-.06-1.735c.01-.316.036-.602.075-.857.04-.255.096-.514.167-.777.07-.263.15-.57.237-.922.087-.352.186-.732.297-1.14.11-.409.241-.822.393-1.24.15-.42.309-.83.473-1.234.165-.403.317-.805.456-1.207.14-.402.293-.81.461-1.227.168-.416.355-.826.56-1.231.205-.405.429-.836.67-1.294.243-.459.5-.953.773-1.484.273-.532.563-1.058.868-1.58.306-.523.608-1.029.905-1.52.435-.719 1.08-1.653 1.934-2.8M273.063 460.858c.036.055.016.096-.058.123a1.405 1.405 0 0 1-.398.048 53.065 53.065 0 0 1-3.802-.083 42.146 42.146 0 0 1-1.736-.135 19.317 19.317 0 0 1-1.861-.28 23.728 23.728 0 0 1-1.973-.48 43.03 43.03 0 0 0-2.154-.557 31.21 31.21 0 0 1-2.581-.736c-.95-.31-1.907-.648-2.87-1.012a25.151 25.151 0 0 1-5.207-2.695 90.371 90.371 0 0 1-2.143-1.503c-.975-.707-2.42-1.879-4.336-3.517M243.386 449.453c.242.103.344.16.305.172l-.207.06c-.11.032-.318.061-.623.087a9.357 9.357 0 0 1-.931.03 32.96 32.96 0 0 1-1.455-.07c-.654-.043-1.192-.077-1.614-.103a19.46 19.46 0 0 1-1.337-.13 39.477 39.477 0 0 1-1.515-.232 86.962 86.962 0 0 1-1.638-.296c-.55-.105-1.109-.202-1.675-.293a42.396 42.396 0 0 1-1.754-.32 24.213 24.213 0 0 1-1.938-.484c-.689-.2-1.395-.401-2.12-.604a41.299 41.299 0 0 1-2.218-.69 144.447 144.447 0 0 1-4.371-1.567 74.13 74.13 0 0 1-2.098-.825l-2.158-.884a29.583 29.583 0 0 1-2.258-1.037 44.803 44.803 0 0 1-2.395-1.32 35.745 35.745 0 0 1-2.387-1.534 28.345 28.345 0 0 1-2.234-1.744 52.301 52.301 0 0 1-1.336-1.174c-.16-.152-.324-.319-.492-.5a26.23 26.23 0 0 1-.848-.992c-.397-.481-.668-.816-.813-1.005-.144-.19-.56-.8-1.247-1.834a33.996 33.996 0 0 1-1.692-2.794 24.316 24.316 0 0 1-1.154-2.491 14.185 14.185 0 0 1-.737-2.5 13.86 13.86 0 0 1-.26-2.458c-.012-.804.043-1.62.167-2.448.123-.827.288-1.649.496-2.465.208-.817.47-1.63.788-2.44.317-.81.707-1.624 1.168-2.444.461-.82.917-1.496 1.366-2.032.655-.78 1.693-1.892 3.115-3.338M206.049 407.023c-.06-.02-.073.021-.04.125.032.104.07.208.115.312.045.105.136.245.273.42.136.176.402.486.796.93.395.443.657.736.787.877.13.141.564.572 1.3 1.293a69.668 69.668 0 0 0 2.127 2.002l2.17 1.953c.764.689 1.538 1.348 2.323 1.977.784.629 1.543 1.21 2.276 1.744a36.848 36.848 0 0 0 2.405 1.6c.87.535 1.799 1.08 2.785 1.639.987.558 1.759.98 2.316 1.265.557.285 1.43.625 2.618 1.02a35.98 35.98 0 0 0 3.196.921c1.405.326 2.866.43 4.382.313" style="fill:none;stroke:#ff6100;stroke-width:1.24736;stroke-linecap:round;stroke-linejoin:round;stroke-miterlimit:10;stroke-dasharray:none;stroke-opacity:1" transform="matrix(.72727 0 0 .72727 -143.68 -191.67)"/><path d="m235.716 425.339.043.066-.003-.009-.058-.145c-.036-.09-.139-.255-.307-.496l-.729-1.04a76.574 76.574 0 0 0-.693-.98c-.145-.2-.3-.424-.467-.672a40.47 40.47 0 0 1-.655-1.024 52.52 52.52 0 0 1-.678-1.112 49.63 49.63 0 0 1-.564-.985 226.37 226.37 0 0 0-.632-1.124l-.682-1.204c-.228-.402-.461-.821-.7-1.258l-.743-1.361c-.257-.47-.515-.952-.774-1.443-.259-.492-.506-.968-.741-1.427-.235-.46-.476-.933-.723-1.422-.247-.488-.653-1.302-1.219-2.443-.565-1.14-.952-1.918-1.16-2.333-.207-.416-.474-.955-.8-1.617-.326-.662-.595-1.209-.81-1.64a99.125 99.125 0 0 1-1.361-2.88 31.95 31.95 0 0 1-.416-.983c-.184-.459-.917-2.4-2.198-5.822" style="fill:none;stroke:#ff6100;stroke-width:1.24736;stroke-linecap:round;stroke-linejoin:round;stroke-miterlimit:10;stroke-dasharray:none;stroke-opacity:1" transform="matrix(.72727 0 0 .72727 -143.68 -191.67)"/><path d="M217.325 390.206c.014-.085.098-.153.25-.204.152-.051.476-.072.973-.061.496.01.957.034 1.38.074.425.039.87.089 1.335.15.465.06.965.121 1.5.183.536.062 1.096.133 1.682.215.586.081 1.24.217 1.96.408.722.19 1.456.41 2.201.66.746.25 1.508.521 2.286.813.779.291 1.541.61 2.289.954a55.53 55.53 0 0 1 6.73 3.698 48.259 48.259 0 0 1 2.323 1.593 71.715 71.715 0 0 1 2.323 1.767c.774.614 1.288 1.03 1.54 1.248.253.219.48.423.681.615.202.19.381.36.539.506.158.146.328.308.511.486.184.177.373.368.567.572.194.203.558.595 1.09 1.175a45.5 45.5 0 0 1 1.528 1.749c.486.586.823.995 1.009 1.228.187.232.575.759 1.165 1.58.59.82 1.176 1.693 1.758 2.62.583.928 1.12 1.867 1.614 2.817.492.95.916 1.887 1.27 2.81s.626 1.828.817 2.715c.19.886.34 1.67.45 2.353.109.681.182 1.15.22 1.403.037.254.104.806.198 1.656.095.85.168 1.754.22 2.713.052.958.06 1.881.024 2.768a17.768 17.768 0 0 1-.29 2.575 18.2 18.2 0 0 1-.654 2.483c-.28.826-.573 1.592-.878 2.3-.442 1.027-1.163 2.687-2.163 4.979M256.442 443.108c.07.086.232.194.483.323.251.13.52.26.803.392.285.133.631.288 1.04.466.41.179.87.353 1.38.524a101.358 101.358 0 0 0 3.643 1.129c.653.188 1.33.336 2.029.442.699.106 1.427.215 2.184.326.758.11 1.57.194 2.44.249.868.054 1.783.025 2.744-.088a19.72 19.72 0 0 0 2.683-.496c1.325-.348 2.275-.57 2.85-.666M279.732 443.263l.088-.185c.004-.008.005-.005.004.01 0 .012-.006.07-.015.171a2.994 2.994 0 0 1-.046.316c-.03.155-.319.7-.864 1.635M279.73 443.086a3.341 3.341 0 0 1-.936-.313c-.317-.158-.728-.37-1.231-.639a31.369 31.369 0 0 1-1.605-.92c-.566-.346-1.109-.68-1.628-1.001-.52-.322-1.046-.7-1.581-1.135a33.398 33.398 0 0 1-1.644-1.432 35.522 35.522 0 0 1-1.712-1.706 18.68 18.68 0 0 1-1.6-1.948 13.564 13.564 0 0 1-1.16-1.904c-.423-.868-.684-1.942-.783-3.223M265.925 428.789c.005-.072.171-.286.5-.643.327-.356.63-.682.909-.976.279-.295.592-.61.939-.945.347-.336.751-.687 1.212-1.052.46-.366.95-.734 1.469-1.104.518-.37 1.079-.736 1.681-1.1a44.856 44.856 0 0 1 2.876-1.598c.25-.123.723-.325 1.42-.606 1.023-.412 2.41-.873 4.16-1.38M281.654 418.944c-.073-.072-.131-.195-.176-.369a2.89 2.89 0 0 1-.079-.618c-.01-.347 0-.864.035-1.55M281.373 415.656l.067.07h0l-.004-.006-.126-.129a5.96 5.96 0 0 0-.474-.406 31.75 31.75 0 0 1-.833-.695 68.174 68.174 0 0 0-1.029-.864 23.606 23.606 0 0 1-1.037-.904c-.324-.3-.75-.747-1.28-1.34a52.113 52.113 0 0 1-1.515-1.778 64.679 64.679 0 0 1-1.402-1.783 24.253 24.253 0 0 1-1.254-1.82 18.157 18.157 0 0 1-1.061-1.97c-.478-1.03-.937-2.296-1.378-3.797M270.149 399.58a9.24 9.24 0 0 1 .646-.565 41.057 41.057 0 0 1 2.166-1.666c.365-.261.782-.545 1.251-.85.47-.304.982-.612 1.537-.923a15.932 15.932 0 0 1 1.766-.847 12.827 12.827 0 0 1 1.928-.614 15.195 15.195 0 0 1 1.964-.328c.942-.093 2.33-.093 4.164 0M285.79 393.154c-.107-.033-.138-.169-.092-.408.065-.34.56-1.47 1.487-3.386M287.556 388.476c-.07-.008-.236-.157-.498-.449a48.256 48.256 0 0 1-1.515-1.77 27.841 27.841 0 0 1-.964-1.26 162.479 162.479 0 0 1-3.382-4.855c-.427-.638-.84-1.32-1.241-2.045a22.097 22.097 0 0 1-1.84-4.396c-.284-.992-.27-2.2.044-3.621M278.79 369.548a60.967 60.967 0 0 1 2.351-1.01 87.36 87.36 0 0 1 1.922-.727c.173-.062.571-.175 1.196-.339a25.747 25.747 0 0 1 2.045-.443 22.23 22.23 0 0 1 2.266-.282c.77-.056 1.523-.07 2.256-.044.733.027 1.416.112 2.049.256.931.212 2.026.644 3.284 1.295M296.26 367.86c.144-.082.288-.19.43-.323.095-.088.235-.248.42-.479.267-.331.814-1.13 1.64-2.397M299.039 363.717a12.588 12.588 0 0 1-.57-1.05 95.533 95.533 0 0 0-.633-1.25 62.498 62.498 0 0 1-1.29-2.659 47.437 47.437 0 0 1-.757-1.764 57.709 57.709 0 0 1-.779-2.022 27.194 27.194 0 0 1-.684-2.164c-.203-.746-.39-1.49-.56-2.23-.172-.74-.331-1.462-.478-2.164a20.308 20.308 0 0 1-.318-1.957c-.095-.883.033-1.979.385-3.289M293.689 342.407c.383-.006 1.041-.055 1.976-.148.934-.092 1.672-.163 2.214-.214.541-.05 1.112-.098 1.712-.141a30.98 30.98 0 0 1 4.231-.004 32.59 32.59 0 0 1 2.274.228c.727.1 1.433.217 2.117.352.994.197 2.429.81 4.306 1.838M312.468 343.802c.047-.117.22-.359.52-.725.438-.536 1.079-1.25 1.922-2.141M315.036 340.406c-.148-.157-.316-.459-.504-.906a49.568 49.568 0 0 1-.552-1.37c-.18-.464-.364-.957-.553-1.477a23.634 23.634 0 0 1-.55-1.743 41.906 41.906 0 0 1-.947-4.317 38.95 38.95 0 0 1-.297-2.108c-.066-.61-.08-1.356-.04-2.237.059-1.288.48-2.968 1.265-5.04M312.85 320.806c-.045-.04-.013-.074.096-.103.108-.029.34-.065.695-.109a29.108 29.108 0 0 1 1.954-.186c.437-.028.95-.036 1.54-.025.59.011 1.216.063 1.88.156.665.092 1.33.214 1.997.366a67.4 67.4 0 0 1 1.973.48c.648.168 1.292.373 1.933.615.64.241 1.268.513 1.88.816.896.442 2.15 1.116 3.763 2.022M331.279 324.952c-.01-.114.049-.228.171-.341.123-.114.247-.215.37-.304.125-.09.307-.215.549-.376.35-.233.955-.568 1.815-1.005M334.318 321.799a7.532 7.532 0 0 1-.344-1.218c-.08-.416-.154-.882-.22-1.397a38.698 38.698 0 0 1-.172-1.612 69.366 69.366 0 0 1-.13-1.814 33.334 33.334 0 0 1-.057-2.036c0-.707.043-1.43.128-2.17.084-.739.194-1.49.332-2.252.137-.763.294-1.459.472-2.088.264-.93.6-2.013 1.007-3.25M335.644 303.543c-.011-.082.07-.154.244-.213.173-.06.443-.106.81-.137a14.914 14.914 0 0 1 2.317-.014 29.795 29.795 0 0 1 2.83.343c.5.086 1.026.207 1.58.364.553.158 1.144.39 1.772.694.628.305 1.226.61 1.794.916.567.306 1.152.666 1.755 1.082.892.614 1.838 1.414 2.836 2.4M351.624 308.823c.195-.09.504-.257.926-.5.265-.151.593-.331.985-.54.576-.306 1.34-.652 2.29-1.037M356.191 306.63l.008.076v0-.012l-.02-.27c-.011-.17 0-.41.034-.719.034-.308.069-.633.103-.975.035-.341.071-.763.108-1.264.036-.501.143-1.393.32-2.676.177-1.284.372-2.275.584-2.973.212-.698.438-1.394.677-2.086.239-.693.513-1.356.822-1.99.31-.634.631-1.273.964-1.918.333-.645.676-1.192 1.029-1.642.522-.665 1.236-1.127 2.142-1.387M363.68 288.536c.14-.053.355-.024.648.089.292.113.672.3 1.14.562.468.261.88.488 1.234.68.356.192.757.424 1.206.696.448.273.934.6 1.457.981a34.588 34.588 0 0 1 3.072 2.524c.533.49 1.093 1.023 1.68 1.6.587.579 1.11 1.127 1.567 1.645.679.77 1.336 1.688 1.97 2.754M378.65 300.572c-.033-.088.054-.176.262-.262.207-.087.584-.219 1.128-.395.886-.287 1.491-.448 1.816-.482M382.585 298.952c-.05-.234-.015-.52.102-.859.117-.338.235-.703.354-1.096.12-.393.272-.887.457-1.482.185-.594.433-1.238.744-1.932.31-.694.644-1.45 1.001-2.268a44.75 44.75 0 0 1 1.104-2.35c.379-.748.766-1.489 1.16-2.222.578-1.072 1.565-2.384 2.963-3.936M391.202 282.617c-.115-.135-.114-.236.003-.301.082-.047.21-.055.384-.024.174.031.396.09.667.177.27.087.612.21 1.022.366.41.156.9.388 1.47.697a24.874 24.874 0 0 1 3.744 2.496c.676.54 1.309 1.136 1.9 1.79a20.45 20.45 0 0 1 1.54 1.906c.437.618.857 1.256 1.26 1.916.59.962 1.345 2.415 2.267 4.36M405.83 296.106a.574.574 0 0 1 .241-.166 4.64 4.64 0 0 1 .44-.138c.192-.052.474-.092.846-.12.544-.042 1.304-.01 2.28.093M409.696 295.237c-.044-.022-.059-.074-.043-.155.015-.082.144-.363.388-.845.243-.48.479-.975.707-1.483a34.038 34.038 0 0 1 1.8-3.428c.364-.61.76-1.227 1.188-1.852.428-.626.893-1.21 1.396-1.755.503-.544 1-1.049 1.492-1.515.493-.466.97-.907 1.43-1.324a86.238 86.238 0 0 1 2.53-2.183M420.993 280.332a.822.822 0 0 1 .465.025c.115.036.246.094.393.174.146.08.357.213.631.402.275.188.607.435.997.739s.814.684 1.272 1.141c.458.458.912.945 1.364 1.461a15.3 15.3 0 0 1 1.318 1.767 17.03 17.03 0 0 1 1.158 2.114c.345.75.625 1.396.84 1.941.214.546.542 1.405.984 2.579.8 2.126 1.197 3.314 1.19 3.565M432.137 296.685c.382-.032.749.004 1.101.11.236.071.422.132.559.183.195.073.644.298 1.345.673M435.78 297.399c.187-.213.465-.561.834-1.046.232-.305.464-.607.695-.905.232-.298.558-.678.98-1.139.42-.46.901-.979 1.442-1.554a90.05 90.05 0 0 1 1.785-1.84 41.317 41.317 0 0 1 2.007-1.887c.688-.604 1.368-1.19 2.039-1.759.67-.568 1.3-1.081 1.886-1.539.884-.69 1.78-1.27 2.688-1.742M450.91 283.85c.19.156.382.34.575.553.193.214.379.429.558.646.178.217.406.521.683.914.276.392.572.83.885 1.313.314.482.64 1.027.976 1.633a36.22 36.22 0 0 1 2.04 4.347c.32.815.588 1.64.803 2.476.216.835.375 1.546.477 2.134.147.853.206 2.248.175 4.185M458.354 302.962c-.101-.077-.106-.128-.015-.154.067-.02.193-.003.377.048.185.05.43.13.735.236.305.106.632.23.98.37.503.203 1.336.704 2.499 1.5M463.384 304.54c-.051-.161.04-.41.274-.748.152-.219.305-.415.46-.59a8.99 8.99 0 0 1 .667-.654c.291-.264.69-.597 1.193-1.001.505-.404 1.072-.852 1.703-1.342.63-.49 1.328-.974 2.093-1.453a19.04 19.04 0 0 1 2.343-1.25c.797-.356 1.57-.633 2.317-.833 1.11-.296 2.312-.369 3.607-.217M479.223 296.191c.063-.01.153.022.27.098.119.076.232.174.34.295.107.121.256.333.449.634.192.302.415.683.669 1.142a28.874 28.874 0 0 1 1.62 3.544c.26.69.485 1.43.673 2.221.188.791.337 1.605.447 2.443.111.837.187 1.647.229 2.43.04.782.059 1.544.054 2.285-.008 1.098-.115 2.346-.32 3.744M484 315.36a.651.651 0 0 1 .506-.003c.17.066.392.174.665.322.272.148.461.255.567.32.151.092.786.615 1.904 1.57M487.834 317.305a27.62 27.62 0 0 0-.071.026 28.96 28.96 0 0 1 4.972-3.291 22.822 22.822 0 0 1 2.374-1.133c.87-.36 1.777-.685 2.72-.976.942-.29 1.89-.532 2.842-.725 1.397-.282 3.254-.472 5.571-.57M506.618 310.703c.158.26.3.545.425.855.125.31.245.62.358.928.114.308.206.593.277.853.07.26.182.772.332 1.533.151.762.27 1.514.36 2.255.09.742.148 1.494.177 2.258.028.763 0 1.596-.088 2.499a44.94 44.94 0 0 1-.373 2.844c-.234 1.447-.792 3.586-1.673 6.417M506.414 331.69c.182.037.364.111.547.224.184.112.43.3.74.563.465.396.885.82 1.262 1.273M509.554 333.724a27.096 27.096 0 0 1 1.873-1.049c.268-.138.643-.307 1.123-.508.481-.2 1.078-.427 1.792-.68.713-.254 1.49-.483 2.33-.688.84-.204 1.678-.355 2.516-.453a14.81 14.81 0 0 1 2.356-.1c1.09.048 2.231.246 3.423.596M525.957 330.943c.063.003.155.09.275.262.12.172.266.47.436.891.17.423.297.744.381.963.084.22.187.542.31.968.124.427.256.91.397 1.453.14.542.277 1.16.408 1.853.131.694.244 1.433.337 2.219.093.786.141 1.598.144 2.439.003.84-.061 1.62-.193 2.342a11.333 11.333 0 0 1-.56 2.025c-.351.912-1.26 2.179-2.725 3.8M525.02 350.88c.66.524 1.213.977 1.66 1.358" style="fill:none;stroke:#ff6100;stroke-width:1.24736;stroke-linecap:round;stroke-linejoin:round;stroke-miterlimit:10;stroke-dasharray:none;stroke-opacity:1" transform="matrix(.72727 0 0 .72727 -143.68 -191.67)"/><path d="M526.524 352.5c.089-.322.2-.645.335-.97.09-.214.173-.427.25-.637.078-.21.233-.595.465-1.158.233-.563.493-1.115.782-1.656.289-.54.567-1.064.835-1.57.268-.505.466-.873.593-1.104.128-.232.423-.656.886-1.273.464-.617.957-1.265 1.482-1.944.77-.996 1.88-2.189 3.329-3.577M535.35 337.764a11.133 11.133 0 0 1-.012-1.692c.027-.353.126-1.058.298-2.113s.323-1.814.453-2.276c.198-.707.413-1.3.645-1.782M536.008 328.924c.026.184-.018.307-.13.37-.079.043-.215.04-.408-.007a3.8 3.8 0 0 1-.672-.252c-.254-.12-.532-.257-.835-.413a7.695 7.695 0 0 1-.953-.596 8.644 8.644 0 0 1-1.045-.906 52.278 52.278 0 0 1-1.126-1.165 31.219 31.219 0 0 1-1.273-1.458c-.462-.559-.938-1.138-1.426-1.737-.489-.6-.977-1.222-1.465-1.867a35.64 35.64 0 0 1-1.413-2.01 47.288 47.288 0 0 1-1.33-2.158 62.522 62.522 0 0 1-1.246-2.255c-.4-.76-.784-1.512-1.152-2.258a72.117 72.117 0 0 1-1.045-2.21 50.502 50.502 0 0 1-.959-2.27 56.674 56.674 0 0 1-.873-2.367 26.67 26.67 0 0 1-.688-2.324 35.239 35.239 0 0 1-.489-2.344 40.933 40.933 0 0 1-.35-2.455 29.12 29.12 0 0 1-.175-2.403 38.927 38.927 0 0 1-.019-1.86c.01-.468.028-.889.053-1.26.025-.372.073-.945.145-1.718.071-.773.17-1.543.297-2.309.126-.766.285-1.555.476-2.369.19-.813.41-1.607.66-2.381.249-.775.523-1.538.822-2.289a48.86 48.86 0 0 1 2.041-4.471 41.47 41.47 0 0 1 1.208-2.175c.414-.693.848-1.398 1.3-2.113.453-.715.752-1.178.897-1.39.145-.212.393-.53.744-.952.351-.422.762-.894 1.231-1.414a22.041 22.041 0 0 1 3.126-2.856c.832-.624 1.846-1.292 3.041-2.004M533.438 264.17a9.93 9.93 0 0 1 .363 2.128c.017.231.038.478.063.74.025.263.084.633.177 1.11.093.476.22 1.026.383 1.65.162.624.347 1.314.555 2.07.207.757.4 1.494.579 2.21.178.717.465 1.913.858 3.59.394 1.676.7 2.965.92 3.866.22.902.446 1.76.677 2.575.23.814.488 1.631.771 2.45.284.82.584 1.646.901 2.479.317.833.653 1.643 1.01 2.43.356.788.72 1.564 1.093 2.329.54 1.108 1.595 2.986 3.163 5.634M545.435 299.83c.167-.1.327-.253.48-.46.102-.136.225-.344.37-.624s.39-.88.737-1.799c.346-.918.624-1.62.835-2.102.21-.483.549-1.354 1.015-2.612.466-1.258.776-2.133.93-2.627.153-.493.323-1.075.511-1.745.187-.67.308-1.106.362-1.306.054-.2.14-.644.257-1.329.117-.685.23-1.385.342-2.098.11-.713.216-1.447.316-2.202l.3-2.246c.101-.744.204-1.492.31-2.246.107-.754.226-1.54.356-2.356.13-.817.246-1.628.346-2.432.1-.805.18-1.557.24-2.257.088-1.04.212-2.175.371-3.406M554.247 265.277c.078.037.246.17.503.399.153.136.346.314.581.533.235.22.509.5.822.841.313.342.636.738.97 1.189.334.45.652.917.955 1.398.303.482.617 1.025.943 1.629.325.604.583 1.092.773 1.465.19.373.373.747.55 1.122.178.376.394.842.647 1.398.254.557.48 1.069.677 1.535.197.467.378.903.542 1.307.164.405.38.964.649 1.678.268.713.442 1.184.521 1.41.08.228.188.577.326 1.05.138.473.266.937.382 1.394a132.566 132.566 0 0 1 .708 2.906c.116.494.2.864.251 1.109.052.245.125.613.218 1.104.093.49.163.867.21 1.129a43.388 43.388 0 0 1 .364 2.533c.056.491.096.867.118 1.13.023.26.043.626.062 1.095.019.469.032.952.039 1.45.007.499.009.871.007 1.118-.003.247-.008.48-.014.7-.007.218-.024.571-.05 1.057-.025.486-.099 1.176-.222 2.069a51.979 51.979 0 0 1-.464 2.792 43.373 43.373 0 0 1-.393 1.891c-.074.293-.22.798-.436 1.513a93.597 93.597 0 0 1-.782 2.449c-.305.917-.65 1.86-1.03 2.826a68.005 68.005 0 0 1-1.2 2.848 49.947 49.947 0 0 1-1.346 2.77c-.48.915-.99 1.83-1.53 2.747a31.055 31.055 0 0 1-1.73 2.624 59.74 59.74 0 0 1-1.883 2.427 35.496 35.496 0 0 1-1.711 1.964c-.726.763-1.868 1.83-3.424 3.2M549.78 331.256l.023-.115h0l-.001.003-.028.114c-.017.072-.04.22-.07.444-.03.224-.08.502-.15.835-.069.332-.145.726-.23 1.18-.084.453-.167.948-.249 1.486-.082.538-.234 1.37-.457 2.498-.222 1.127-.425 1.977-.61 2.55-.183.574-.378 1.162-.583 1.763a25.879 25.879 0 0 1-.682 1.779c-.248.584-.509 1.23-.78 1.938a97.517 97.517 0 0 1-.916 2.294 103.72 103.72 0 0 0-1.029 2.597 30.838 30.838 0 0 1-1.94 4.177c-.413.732-.982 1.423-1.707 2.072M540.392 357.724c.078-.042.19-.055.337-.037.148.017.33.037.548.059.217.021.53.075.938.16.409.086.909.212 1.5.379.59.167 1.253.344 1.987.532.735.188 1.52.387 2.358.596.838.21 1.71.439 2.617.688.906.25 1.83.53 2.77.84.94.308 1.813.64 2.619.994a28.07 28.07 0 0 1 2.048.986c.86.466 1.585.858 2.179 1.176M561.345 364.088l-.024-.062a.126.126 0 0 0 0 .031l.005.34c.003.205.01.429.02.673.01.244.02.564.03.96.011.396.034.875.07 1.44.035.563.069 1.135.1 1.715.032.58.071 1.212.119 1.893.048.682.071 1.384.07 2.108 0 .723-.038 1.447-.112 2.17-.074.724-.18 1.454-.315 2.192-.136.737-.29 1.471-.46 2.202-.172.73-.358 1.486-.556 2.268a71.475 71.475 0 0 0-.559 2.36c-.173.792-.36 1.622-.558 2.49-.199.867-.393 1.695-.584 2.483-.191.787-.405 1.545-.642 2.273a231.953 231.953 0 0 1-1.872 5.514c-.524 1.503-.92 2.655-1.186 3.458a334.5 334.5 0 0 1-.812 2.414 81.353 81.353 0 0 1-.82 2.3c-.273.727-.552 1.475-.839 2.245-.286.77-.555 1.538-.807 2.302a255.89 255.89 0 0 0-.758 2.347c-.255.799-.486 1.636-.694 2.511a43.724 43.724 0 0 0-.555 2.733c-.162.946-.31 1.887-.442 2.821a141.86 141.86 0 0 0-.365 2.781c-.111.92-.233 1.86-.365 2.824-.131.963-.271 1.86-.42 2.69-.215 1.207-.648 3.105-1.297 5.693M546.362 433.743a8.218 8.218 0 0 1-.498-1.096 20.421 20.421 0 0 1-.384-1.136 21.235 21.235 0 0 1-.411-1.53 40.672 40.672 0 0 1-.375-1.835 40.688 40.688 0 0 1-.297-1.843 99.976 99.976 0 0 1-.158-1.2c-.03-.25-.073-.77-.128-1.56-.056-.792-.11-1.613-.164-2.464-.053-.851-.096-1.709-.128-2.573a87.425 87.425 0 0 1-.058-2.658c-.006-.907-.006-1.821 0-2.74.006-.92 0-1.85-.016-2.792-.016-.941-.02-1.894-.013-2.857.007-.963.03-1.869.071-2.717.04-.847.077-1.694.11-2.539.034-.845.05-1.715.046-2.61-.003-.896-.015-1.775-.038-2.64a77.374 77.374 0 0 0-.114-2.64 41.179 41.179 0 0 0-.263-2.761 62.928 62.928 0 0 0-.414-2.753c-.155-.89-.337-1.78-.548-2.672a32.621 32.621 0 0 0-.77-2.716c-.442-1.341-1.149-3.272-2.12-5.792M539.413 377.732l.039-.136c0-.003-.004.01-.016.037-.01.028-.102.256-.273.684a21.23 21.23 0 0 0-.433 1.172c-.118.353-.24.773-.364 1.259-.125.485-.35 1.351-.675 2.597a202.87 202.87 0 0 1-.796 2.97 245.189 245.189 0 0 1-1.262 4.369c-.22.734-.425 1.46-.613 2.176-.189.716-.379 1.458-.571 2.224-.192.767-.38 1.52-.562 2.258-.182.738-.36 1.517-.533 2.335a89.533 89.533 0 0 1-.553 2.452 71.003 71.003 0 0 0-.535 2.4c-.16.785-.33 1.592-.508 2.422-.178.83-.35 1.64-.517 2.432a91.948 91.948 0 0 0-.477 2.438l-.483 2.646c-.171.932-.329 1.857-.474 2.778-.144.92-.295 1.823-.452 2.708a41.026 41.026 0 0 0-.386 2.703 90.975 90.975 0 0 1-.63 4.57M527.878 427.044c-.045.023-.107-.006-.186-.089a2.87 2.87 0 0 1-.297-.393c-.118-.18-.214-.33-.288-.45a5.268 5.268 0 0 1-.203-.363 10.242 10.242 0 0 1-.301-.702 55.823 55.823 0 0 1-.408-1.048c-.133-.351-.253-.72-.361-1.104a19.05 19.05 0 0 1-.315-1.329 21.461 21.461 0 0 1-.263-1.653 30.473 30.473 0 0 1-.204-4.236c.015-.754.025-1.403.03-1.948.005-.544.036-1.292.094-2.244.057-.952.107-1.825.151-2.617s.081-1.607.112-2.446c.03-.84.084-1.676.16-2.51.076-.835.163-1.614.262-2.339.099-.724.183-1.459.252-2.204.069-.745.142-1.471.22-2.18.077-.707.152-1.452.224-2.234.072-.781.14-1.583.202-2.405.063-.822.123-1.637.178-2.444a716.179 716.179 0 0 1 .312-4.323c.046-.596.073-1.184.081-1.763.013-.841.088-2.196.227-4.063M291.217 470.558c.177-.463.373-.895.588-1.296.143-.269.263-.486.358-.652.095-.166.291-.463.588-.89.298-.428.623-.9.976-1.414.352-.514.729-1.05 1.13-1.606.588-.817 1.466-1.732 2.633-2.743M541.667 377.57c.024.235.099.568.225 1 .126.43.245.859.356 1.283.112.425.211.871.297 1.338.086.467.163 1.007.231 1.62.068.613.105 1.239.11 1.876M541.537 377.495c-.036-.115-.228-.238-.577-.37a24.355 24.355 0 0 0-1.12-.389 11.48 11.48 0 0 0-1.304-.33 16.53 16.53 0 0 0-1.63-.225 45.877 45.877 0 0 0-2.158-.142 40.642 40.642 0 0 0-2.594-.03c-.908.018-1.872.063-2.893.135-1.02.072-2.011.16-2.97.265-1.43.156-2.95.395-4.56.719" style="fill:none;stroke:#ff6100;stroke-width:1.24736;stroke-linecap:round;stroke-linejoin:round;stroke-miterlimit:10;stroke-dasharray:none;stroke-opacity:1" transform="matrix(.72727 0 0 .72727 -143.68 -191.67)"/><path d="M297.951 462.777c87.022 5.902 162.135-22.716 225.341-85.854M340.279 496.664a2.616 2.616 0 0 0-.141-.562 5.958 5.958 0 0 0-.311-.714 6.53 6.53 0 0 0-.51-.826 266.26 266.26 0 0 0-.685-.957c-.248-.345-.51-.673-.784-.984a18.132 18.132 0 0 0-.926-.97 62.531 62.531 0 0 0-1.127-1.071c-.409-.38-.827-.745-1.255-1.097a30.781 30.781 0 0 1-1.318-1.152 70.09 70.09 0 0 0-1.359-1.22 105.66 105.66 0 0 0-1.43-1.23 22.49 22.49 0 0 0-1.626-1.245 51.029 51.029 0 0 1-1.8-1.321 80.59 80.59 0 0 0-1.889-1.404 64.836 64.836 0 0 1-4.027-3.162c-.696-.593-1.4-1.188-2.114-1.784a46.185 46.185 0 0 1-2.11-1.88 41.507 41.507 0 0 1-1.979-1.999 56.661 56.661 0 0 1-1.71-1.934c-.754-.894-1.778-2.188-3.073-3.881M339.453 496.94c-.284-.061-.727-.208-1.33-.44a70.87 70.87 0 0 1-1.625-.647c-.48-.2-1.13-.525-1.952-.979a39.087 39.087 0 0 0-1.839-.97 65.554 65.554 0 0 1-.9-.437 33.27 33.27 0 0 1-1.18-.646 31.21 31.21 0 0 0-1.849-.961 30.793 30.793 0 0 1-2.006-1.06 64.967 64.967 0 0 0-2.098-1.154 74.654 74.654 0 0 1-2.184-1.196c-.751-.428-1.492-.855-2.221-1.281a57.383 57.383 0 0 1-2.143-1.315 46.795 46.795 0 0 1-2.119-1.453 82.71 82.71 0 0 0-2.216-1.551 522.877 522.877 0 0 1-2.428-1.654 88.824 88.824 0 0 0-2.7-1.775 576.52 576.52 0 0 1-2.781-1.77 79.49 79.49 0 0 1-2.57-1.715c-.804-.56-1.424-1.025-1.861-1.396-.437-.37-.796-.68-1.076-.933-.28-.252-.626-.571-1.038-.96a45.418 45.418 0 0 1-.905-.866c-.19-.19-.538-.517-1.043-.98-.505-.462-1.04-.943-1.605-1.443-.831-.736-1.937-1.51-3.317-2.322" style="fill:none;stroke:#ff6100;stroke-width:1.24736;stroke-linecap:round;stroke-linejoin:round;stroke-miterlimit:10;stroke-dasharray:none;stroke-opacity:1" transform="matrix(.72727 0 0 .72727 -143.68 -191.67)"/><path d="m310.146 467.469.029.074c.002.006.009-.013.019-.059l.07-.305c.05-.226.095-1.154.133-2.784M522.748 377.779c-.049.018.007.067.167.144.16.078.383.188.667.332.284.144.635.338 1.053.584.611.358 1.511.723 2.7 1.094" style="fill:none;stroke:#ff6100;stroke-width:1.24736;stroke-linecap:round;stroke-linejoin:round;stroke-miterlimit:10;stroke-dasharray:none;stroke-opacity:1" transform="matrix(.72727 0 0 .72727 -143.68 -191.67)"/><path d="M434.455 419.981c-.64.316-1.297.658-1.969 1.028a114.32 114.32 0 0 1-3.405 1.806 276.614 276.614 0 0 1-4.358 2.2 367.35 367.35 0 0 1-4.05 1.963 128.395 128.395 0 0 0-3.895 1.924c-.869.456-1.684.875-2.447 1.257-.763.382-1.447.723-2.052 1.022-.911.45-1.777.922-2.598 1.414" style="fill:none;stroke:#000;stroke-width:1.24736;stroke-linecap:round;stroke-linejoin:round;stroke-miterlimit:10;stroke-dasharray:none;stroke-opacity:1" transform="matrix(.72727 0 0 .72727 -143.68 -191.67)"/><path d="M435.726 420.82c.06.111.102.294.127.548.025.254.01.527-.045.82-.055.291-.119.585-.19.88a13.64 13.64 0 0 1-.273.957c-.11.342-.264.773-.463 1.294-.198.52-.427 1.09-.686 1.71-.26.62-.585 1.272-.975 1.956-.39.685-.842 1.323-1.358 1.916-.515.592-1.079 1.129-1.69 1.61-.613.482-1.294.952-2.046 1.409-.75.457-1.53.862-2.336 1.216-.807.353-1.624.627-2.45.823-.828.195-1.7.313-2.618.355a16.724 16.724 0 0 1-2.899-.133 17.147 17.147 0 0 1-2.915-.629 18.09 18.09 0 0 1-2.556-1.001c-1.138-.555-2.501-1.468-4.09-2.74" style="fill:none;stroke:#000;stroke-width:1.24736;stroke-linecap:round;stroke-linejoin:round;stroke-miterlimit:10;stroke-dasharray:none;stroke-opacity:1" transform="matrix(.72727 0 0 .72727 -143.68 -191.67)"/><path d="M375.595 412.892c-.316.14-.462.194-.438.162l.233-.308M445.335 379.446l-.004.087" style="fill:none;stroke:#fff;stroke-width:1.24736;stroke-linecap:round;stroke-linejoin:round;stroke-miterlimit:10;stroke-dasharray:none;stroke-opacity:1" transform="matrix(.72727 0 0 .72727 -143.68 -191.67)"/><path d="M218.652 392.04c-.171-.221-.352-.58-.542-1.076" style="fill:none;stroke:#ff6100;stroke-width:1.34086;stroke-linecap:round;stroke-linejoin:round;stroke-miterlimit:10;stroke-dasharray:none;stroke-opacity:1" transform="matrix(.72727 0 0 .72727 -143.68 -191.67)"/><path d="M375.305 412.22c.046.046.115.058.209.036.063-.015.08-.097.048-.246a.826.826 0 0 0-.145-.347.407.407 0 0 0-.287-.146.924.924 0 0 0-.422.066.966.966 0 0 0-.42.322 1.66 1.66 0 0 0-.28.545c-.065.208-.093.43-.085.665.008.236.033.449.075.64.042.19.14.375.296.554.155.18.321.28.497.3.175.021.352-.007.53-.083.177-.076.346-.232.505-.468.16-.236.292-.536.397-.899.106-.363.174-.734.206-1.114.032-.38.025-.734-.022-1.063-.046-.329-.132-.587-.255-.774a.591.591 0 0 0-.496-.29c-.207-.006-.42.072-.641.233-.22.16-.423.368-.61.622-.186.253-.34.51-.464.769a2.591 2.591 0 0 0-.235.816c-.033.285-.021.595.036.929.058.334.16.626.306.875.147.25.322.418.524.506a.812.812 0 0 0 .639.002c.222-.087.41-.286.562-.598.152-.312.26-.694.324-1.146.064-.452.087-.881.068-1.287a5.445 5.445 0 0 0-.148-1.08c-.08-.314-.215-.543-.405-.688a.96.96 0 0 0-.643-.202c-.24.011-.467.106-.684.285a2.03 2.03 0 0 0-.535.715 3.29 3.29 0 0 0-.28.872c-.046.284-.038.582.022.894.061.312.174.626.339.943.165.316.365.592.6.828s.474.385.719.446c.244.06.482.04.712-.06.23-.102.432-.3.604-.598.172-.296.286-.655.34-1.074a4.78 4.78 0 0 0-.003-1.272 4.072 4.072 0 0 0-.312-1.14 1.686 1.686 0 0 0-.632-.755 1.343 1.343 0 0 0-.878-.208c-.314.032-.6.186-.858.464-.257.277-.449.59-.575.938a3.002 3.002 0 0 0-.183 1.07c.005.366.06.762.167 1.188.106.427.253.796.44 1.11.186.313.401.543.645.688.243.146.5.206.768.182.269-.024.518-.145.746-.362.228-.218.4-.518.518-.902.118-.383.172-.819.161-1.306a8.017 8.017 0 0 0-.126-1.318 2.51 2.51 0 0 0-.392-.986 1.146 1.146 0 0 0-.723-.49 1.11 1.11 0 0 0-.85.167c-.27.174-.506.435-.705.783-.199.349-.349.702-.449 1.06-.1.357-.128.727-.085 1.109s.133.731.27 1.047c.136.317.322.564.559.742.236.177.48.277.735.299.253.021.503-.02.749-.125.245-.105.455-.318.63-.64.173-.323.285-.728.335-1.216.05-.488.05-.968 0-1.44a4.869 4.869 0 0 0-.279-1.24c-.136-.353-.305-.593-.506-.72-.202-.126-.481-.137-.84-.032-.358.106-.642.344-.854.715a4.496 4.496 0 0 0-.46 1.126c-.096.38-.121.774-.076 1.183.046.408.146.81.302 1.205.155.395.341.695.56.9.218.206.435.321.651.347a1.03 1.03 0 0 0 .632-.132c.205-.113.37-.348.492-.705s.19-.783.203-1.277a8.083 8.083 0 0 0-.072-1.368c-.061-.419-.16-.76-.298-1.023-.138-.264-.33-.4-.576-.408-.246-.008-.495.104-.748.335a2.71 2.71 0 0 0-.62.855c-.16.338-.25.672-.27 1.004-.02.33.007.64.082.93.075.289.19.523.348.702.157.179.317.29.48.336a.613.613 0 0 0 .484-.067c.158-.09.285-.272.38-.544.097-.272.155-.57.176-.896a4.683 4.683 0 0 0-.02-.895 2.245 2.245 0 0 0-.157-.634.49.49 0 0 0-.308-.287c-.136-.04-.29-.018-.462.066-.172.085-.318.252-.439.5-.12.249-.182.54-.186.872-.004.333.04.662.134.986.092.324.22.586.383.786.163.2.32.324.47.374.15.05.287.024.414-.08.126-.102.224-.303.293-.602.069-.299.106-.608.113-.927.007-.32 0-.591-.018-.816a6.188 6.188 0 0 0-.052-.481c-.017-.096-.06-.144-.13-.145-.07 0-.171.068-.303.204-.132.137-.26.317-.383.542a2.29 2.29 0 0 0-.247.629c-.057.275.157.446.64.514M445.091 379.542c-.08-.37-.149-.588-.206-.655a.274.274 0 0 0-.179-.087.827.827 0 0 0-.261.008.401.401 0 0 0-.253.178 1.109 1.109 0 0 0-.164.449c-.035.197-.041.41-.018.637.024.228.063.433.119.616a.768.768 0 0 0 .277.415c.13.094.273.135.428.123a.795.795 0 0 0 .447-.193 1.11 1.11 0 0 0 .326-.464c.076-.193.117-.4.125-.624a3.112 3.112 0 0 0-.054-.675 2.332 2.332 0 0 0-.177-.576.59.59 0 0 0-.312-.313.825.825 0 0 0-.427-.046.984.984 0 0 0-.436.183c-.14.1-.264.253-.374.459-.11.206-.196.433-.257.68a2.97 2.97 0 0 0-.086.75c.003.252.021.46.055.62.034.162.064.27.092.326.027.056.12.128.281.215a.92.92 0 0 0 .535.103c.197-.018.38-.087.551-.207.17-.12.305-.288.402-.507.096-.218.152-.462.168-.733a4.042 4.042 0 0 0-.05-.861 2.638 2.638 0 0 0-.248-.798.96.96 0 0 0-.492-.472 1.318 1.318 0 0 0-.682-.083 1.232 1.232 0 0 0-.662.306 2.028 2.028 0 0 0-.483.636 2.76 2.76 0 0 0-.254.821c-.044.297-.05.595-.016.895.033.3.095.57.185.81.09.241.221.42.394.54.174.117.385.16.634.125.25-.034.489-.153.72-.355.23-.202.438-.447.624-.736.186-.29.321-.59.405-.899.083-.309.11-.607.08-.893a2.627 2.627 0 0 0-.197-.784 1.326 1.326 0 0 0-.458-.568 1.366 1.366 0 0 0-.669-.248 1.372 1.372 0 0 0-.699.114c-.222.1-.405.28-.55.541a2.55 2.55 0 0 0-.284.882 3.459 3.459 0 0 0 0 .975c.045.324.133.64.261.949.13.309.3.569.51.78.212.211.44.332.682.362.243.03.478-.044.707-.225.23-.181.41-.436.545-.763a3.53 3.53 0 0 0 .246-1.06c.03-.38.023-.764-.025-1.152a3.906 3.906 0 0 0-.228-.974c-.104-.261-.271-.44-.5-.536a1.468 1.468 0 0 0-.791-.078 2.16 2.16 0 0 0-.834.304 1.849 1.849 0 0 0-.633.678 2.51 2.51 0 0 0-.304 1.005c-.037.377-.025.733.037 1.067.062.335.178.624.348.868.17.243.375.409.612.495.238.087.479.09.724.01.245-.081.447-.251.607-.51.16-.26.264-.554.312-.88.049-.327.052-.654.01-.982a4.875 4.875 0 0 0-.219-.944 1.474 1.474 0 0 0-.485-.71 1.191 1.191 0 0 0-.705-.27 1.04 1.04 0 0 0-.677.217c-.202.152-.353.385-.452.698-.1.313-.138.634-.117.965.021.33.068.641.14.932.073.29.194.527.363.71.169.184.367.3.595.347.229.048.467.038.715-.03.249-.068.46-.205.633-.41.174-.207.285-.456.335-.75.049-.292.048-.61-.003-.953a2.56 2.56 0 0 0-.315-.922 1.3 1.3 0 0 0-.63-.57 1.54 1.54 0 0 0-.799-.11.897.897 0 0 0-.644.387c-.157.222-.248.49-.274.803a3.31 3.31 0 0 0 .07.972c.071.335.19.635.356.9.167.267.342.468.527.605.185.136.35.214.497.231.146.018.26-.007.343-.074.082-.068.137-.21.164-.427.028-.216.034-.493.019-.831a6.462 6.462 0 0 0-.118-.984c-.064-.318-.157-.558-.28-.72-.123-.162-.265-.23-.425-.202-.16.026-.294.15-.403.37-.108.219-.17.453-.184.701-.022.36.155.687.532.979" style="fill:none;stroke:#fff;stroke-width:1.34086;stroke-linecap:round;stroke-linejoin:round;stroke-miterlimit:10;stroke-dasharray:none;stroke-opacity:1" transform="matrix(.72727 0 0 .72727 -143.68 -191.67)"/><path d="M437.286 371.732a3.002 3.002 0 0 0-.536-.281 3.18 3.18 0 0 0-.56-.196c-.134-.028-.367-.039-.7-.032a7.76 7.76 0 0 0-1.177.132c-.452.081-.946.19-1.482.325-.535.136-1.113.321-1.734.557-.62.236-1.25.516-1.893.84-.642.325-1.286.722-1.932 1.192a15.993 15.993 0 0 0-1.928 1.674 37.832 37.832 0 0 0-1.853 2.01 16.557 16.557 0 0 0-1.653 2.32 23.104 23.104 0 0 0-1.334 2.596c-.382.878-.67 1.788-.866 2.732a14.936 14.936 0 0 0-.308 2.886c-.01.981.064 1.97.223 2.967.159.997.41 1.999.755 3.005a18.002 18.002 0 0 0 1.294 2.914 19.332 19.332 0 0 0 1.814 2.699c.69.863 1.45 1.63 2.279 2.298a17.459 17.459 0 0 0 2.54 1.718 12.11 12.11 0 0 0 2.757 1.102c.973.257 1.99.428 3.052.513 1.062.084 2.107.06 3.136-.07a16.18 16.18 0 0 0 3.101-.72 17.05 17.05 0 0 0 3.045-1.37 31.643 31.643 0 0 0 2.827-1.817 17.945 17.945 0 0 0 2.545-2.246 22.268 22.268 0 0 0 2.175-2.693 21.04 21.04 0 0 0 1.737-3.076 25.407 25.407 0 0 0 1.252-3.25c.322-1.059.564-2.094.726-3.105.162-1.012.22-1.958.174-2.838a16.361 16.361 0 0 0-.377-2.696 14.73 14.73 0 0 0-.89-2.71c-.39-.89-.853-1.743-1.388-2.558a18.419 18.419 0 0 0-1.83-2.344 11.086 11.086 0 0 0-2.367-1.946 31.462 31.462 0 0 0-2.77-1.52 10.79 10.79 0 0 0-2.952-.949 13.42 13.42 0 0 0-3.127-.144c-1.555.106-3.765.842-6.628 2.21M383.872 395.432a2.997 2.997 0 0 0-.536-.281 3.19 3.19 0 0 0-.559-.196c-.134-.028-.367-.039-.7-.031a7.763 7.763 0 0 0-1.177.132c-.452.08-.946.188-1.482.324a15.85 15.85 0 0 0-1.734.558c-.62.236-1.251.516-1.893.84-.642.324-1.286.721-1.932 1.191a15.987 15.987 0 0 0-1.929 1.675 37.79 37.79 0 0 0-1.852 2.01 16.559 16.559 0 0 0-1.654 2.319 23.12 23.12 0 0 0-1.333 2.596c-.382.878-.671 1.789-.867 2.732a14.935 14.935 0 0 0-.308 2.887c-.01.98.065 1.97.224 2.966.159.997.41 1.999.754 3.006a18.002 18.002 0 0 0 1.295 2.913 19.333 19.333 0 0 0 1.814 2.699c.69.864 1.45 1.63 2.278 2.298a17.475 17.475 0 0 0 2.54 1.718c.864.477 1.784.844 2.757 1.102.974.258 1.992.429 3.053.513 1.061.084 2.106.06 3.135-.07 1.029-.131 2.063-.37 3.102-.719a17.037 17.037 0 0 0 3.045-1.372 31.643 31.643 0 0 0 2.826-1.816 17.938 17.938 0 0 0 2.546-2.246c.804-.852 1.529-1.75 2.175-2.693a21.04 21.04 0 0 0 1.737-3.076 25.375 25.375 0 0 0 1.251-3.25c.323-1.058.565-2.093.727-3.105.162-1.012.22-1.958.173-2.838a16.36 16.36 0 0 0-.376-2.696 14.726 14.726 0 0 0-.891-2.71c-.39-.89-.852-1.743-1.387-2.558a18.428 18.428 0 0 0-1.83-2.344 11.084 11.084 0 0 0-2.367-1.946 31.473 31.473 0 0 0-2.77-1.52 10.789 10.789 0 0 0-2.952-.949 13.415 13.415 0 0 0-3.127-.144c-1.556.106-3.765.843-6.628 2.21" style="fill:none;stroke:#000;stroke-width:1.34086;stroke-linecap:round;stroke-linejoin:round;stroke-miterlimit:10;stroke-dasharray:none;stroke-opacity:1" transform="matrix(.72727 0 0 .72727 -143.68 -191.67)"/></svg>