<svg xmlns="http://www.w3.org/2000/svg" width="65.652" height="113.112"><path d="M249.413 314.336a1.335 1.335 0 0 0-.09-.444.891.891 0 0 0-.241-.307 2.68 2.68 0 0 0-.462-.327 7.427 7.427 0 0 0-.606-.31 4.051 4.051 0 0 0-1.572-.358 3.176 3.176 0 0 0-1.04.165c-.386.12-.8.285-1.243.494-.442.21-.899.443-1.37.702a16.07 16.07 0 0 0-1.423.885c-.477.33-.944.69-1.4 1.077-.457.388-.914.805-1.372 1.252-.458.447-.89.917-1.295 1.411a11.062 11.062 0 0 0-1.085 1.59 13.685 13.685 0 0 0-.822 1.726 8.47 8.47 0 0 0-.486 1.802c-.095.615-.131 1.28-.109 1.998.022.717.142 1.447.359 2.192.216.745.522 1.567.917 2.467.394.9.865 1.773 1.412 2.617a30.884 30.884 0 0 0 1.756 2.442 18.356 18.356 0 0 0 1.947 2.102 11.578 11.578 0 0 0 2.093 1.543c.723.411 1.47.725 2.242.941.772.216 1.399.341 1.881.375.482.033 1.283-.06 2.403-.279 1.119-.22 2.076-.533 2.87-.94.795-.409 1.55-.916 2.268-1.521a15.389 15.389 0 0 0 2.043-2.112 39.06 39.06 0 0 0 1.76-2.352c.527-.767.985-1.606 1.373-2.517a15.01 15.01 0 0 0 .87-2.674c.191-.872.296-1.771.316-2.698.019-.926-.08-1.876-.299-2.848a14.506 14.506 0 0 0-.85-2.654c-.35-.798-.78-1.525-1.29-2.183a14.898 14.898 0 0 0-1.676-1.827 10.417 10.417 0 0 0-1.912-1.409 15.66 15.66 0 0 0-2.022-.97 10.33 10.33 0 0 0-2.052-.574 8.815 8.815 0 0 0-1.99-.118c-.941.055-2.02.338-3.236.847M248.48 358.215c.063-.11.026-.369-.112-.778a2.934 2.934 0 0 0-.256-.59 2.99 2.99 0 0 0-.323-.424 4.298 4.298 0 0 0-.476-.447c-.187-.153-.392-.309-.613-.467a3.436 3.436 0 0 0-.756-.404 3.143 3.143 0 0 0-.97-.196 3.18 3.18 0 0 0-1.173.175 5.427 5.427 0 0 0-1.303.658c-.45.3-.849.596-1.194.887-.345.29-.79.709-1.332 1.254a12.845 12.845 0 0 0-1.426 1.693c-.409.584-.777 1.19-1.104 1.818a15.483 15.483 0 0 0-.81 1.81 8.223 8.223 0 0 0-.437 1.83c-.08.642-.117 1.28-.112 1.914.005.634.075 1.294.21 1.981.137.688.328 1.369.575 2.044a8.195 8.195 0 0 0 1.013 1.92c.429.606.938 1.17 1.528 1.693.59.523 1.23.983 1.916 1.38.687.399 1.433.739 2.238 1.021.805.282 1.594.527 2.365.735.772.207 1.578.355 2.418.443.84.088 1.681.096 2.523.024a12.536 12.536 0 0 0 2.466-.461 12.026 12.026 0 0 0 2.28-.927c.718-.383 1.402-.86 2.052-1.433a12.992 12.992 0 0 0 1.719-1.827c.496-.645.937-1.417 1.324-2.316.387-.9.696-1.805.927-2.716.23-.91.374-1.811.428-2.701a9.235 9.235 0 0 0-.172-2.518c-.17-.79-.45-1.62-.839-2.493a12.89 12.89 0 0 0-1.382-2.397 17.915 17.915 0 0 0-1.807-2.09 7.556 7.556 0 0 0-2.234-1.556 7.46 7.46 0 0 0-2.613-.641 13.596 13.596 0 0 0-2.793.112c-.936.133-1.857.328-2.764.583-.906.255-1.765.57-2.577.946-.813.376-1.547.751-2.203 1.126-.656.374-1.147.683-1.473.926-.518.388-.832.699-.94.93" style="fill:none;stroke:#007aff;stroke-width:1.8189;stroke-linecap:round;stroke-linejoin:round;stroke-miterlimit:10;stroke-dasharray:none;stroke-opacity:1" transform="matrix(.72727 0 0 .72727 -170.095 -226.676)"/><path d="M248.822 398.233c-.047-.103-.158-.219-.333-.348a1.624 1.624 0 0 0-.44-.219 2.86 2.86 0 0 0-.663-.128 6.94 6.94 0 0 0-.866-.02 5.076 5.076 0 0 0-1.03.153c-.369.091-.776.206-1.22.345-.445.139-.91.296-1.395.472-.486.176-.965.375-1.44.599a13.559 13.559 0 0 0-2.366 1.415c-.326.244-.563.427-.713.55-.15.123-.425.377-.827.762-.402.385-.804.818-1.208 1.3a20.344 20.344 0 0 0-1.365 1.879 39.131 39.131 0 0 0-1.4 2.297c-.427.76-.76 1.55-1 2.37a10.57 10.57 0 0 0-.424 2.405c-.042.782.031 1.58.22 2.394.187.813.493 1.616.917 2.406.423.791.923 1.592 1.5 2.403a15.01 15.01 0 0 0 1.83 2.144c.646.62 1.355 1.165 2.129 1.635.774.471 1.578.858 2.415 1.16.836.302 1.681.505 2.536.607a18.15 18.15 0 0 0 2.603.122 11.64 11.64 0 0 0 2.65-.378c.888-.23 1.456-.394 1.707-.489a7.06 7.06 0 0 0 .695-.305c.213-.109.829-.545 1.847-1.31 1.017-.765 1.646-1.284 1.887-1.558.24-.273.433-.525.578-.755.146-.23.336-.562.57-.998.235-.436.545-1.074.932-1.916.387-.842.692-1.605.915-2.291.222-.686.37-1.167.441-1.442.072-.276.172-.838.3-1.686.127-.849.204-1.748.23-2.699.028-.95-.052-1.969-.237-3.056a12.617 12.617 0 0 0-1.007-3.2 14.89 14.89 0 0 0-1.79-2.926c-.709-.903-1.473-1.59-2.293-2.062-.82-.472-1.616-.762-2.39-.872a8.475 8.475 0 0 0-2.198-.041 14.38 14.38 0 0 0-1.957.365c-.908.24-1.926.528-3.055.867" style="fill:none;stroke:#007aff;stroke-width:1.8189;stroke-linecap:round;stroke-linejoin:round;stroke-miterlimit:10;stroke-dasharray:none;stroke-opacity:1" transform="matrix(.72727 0 0 .72727 -167.144 -227.987)"/><path d="M320.273 330.305c-.802-.282-1.183-.358-1.142-.226.03.093.197.2.502.318.304.118.719.268 1.242.448.524.18 1.118.395 1.783.644.665.249 1.463.555 2.396.917.932.363 1.953.751 3.064 1.165 1.11.414 2.304.852 3.583 1.315 1.279.462 2.621.975 4.027 1.536 1.407.562 2.89 1.173 4.452 1.832 1.562.66 3.082 1.323 4.561 1.989 1.48.666 2.912 1.345 4.3 2.037 1.386.692 2.786 1.381 4.2 2.068a85.333 85.333 0 0 1 4.07 2.113c1.924 1.067 4.068 2.416 6.433 4.047M320.707 367.335c-.115.015-.17-.019-.168-.1.002-.058.165-.15.488-.277.324-.128.646-.263.967-.405.322-.142.611-.282.87-.418.258-.137.579-.294.96-.47a22.01 22.01 0 0 1 1.07-.465c.332-.132.771-.304 1.316-.515.546-.21 1.005-.394 1.377-.55.373-.156.962-.377 1.768-.662.806-.284 1.631-.585 2.476-.902.844-.317 1.766-.663 2.765-1.036a163.21 163.21 0 0 1 2.98-1.083c.989-.348 1.959-.67 2.91-.966.951-.296 1.943-.601 2.974-.915a104.99 104.99 0 0 0 2.935-.939c.925-.311 1.846-.63 2.765-.953.918-.324 1.825-.653 2.72-.988a121.56 121.56 0 0 1 3.8-1.322c1.637-.546 2.778-.908 3.423-1.084a14.056 14.056 0 0 1 2.98-.475M319.645 409.972c.138-.003.278-.097.42-.282.141-.184.371-.521.689-1.011.317-.49.59-.899.821-1.227.23-.329.495-.733.793-1.214.298-.48.673-1.073 1.125-1.779a30.17 30.17 0 0 1 1.564-2.203 59.707 59.707 0 0 0 1.788-2.438 61.89 61.89 0 0 1 1.99-2.689c.726-.93 1.483-1.9 2.271-2.913.788-1.012 1.63-2.073 2.526-3.182.895-1.109 1.5-1.845 1.81-2.21.312-.363.597-.699.855-1.006.257-.307.623-.772 1.095-1.394.473-.621.825-1.072 1.056-1.351.23-.28.73-.86 1.5-1.74s1.627-1.898 2.573-3.056c.946-1.158 1.931-2.352 2.954-3.582a132.119 132.119 0 0 1 3.193-3.696 360.316 360.316 0 0 0 3.103-3.507 269.403 269.403 0 0 1 2.875-3.24 479.211 479.211 0 0 1 2.785-3.063c.904-.985 1.765-1.91 2.583-2.777a85.556 85.556 0 0 1 2.375-2.421 63.425 63.425 0 0 1 1.996-1.882c.864-.772 1.655-1.392 2.374-1.86" style="fill:none;stroke:#7ec636;stroke-width:2.07874;stroke-linecap:round;stroke-linejoin:round;stroke-miterlimit:10;stroke-dasharray:none;stroke-opacity:1" transform="matrix(.72727 0 0 .72727 -208.828 -228.823)"/><path d="M318.433 330.389c-.072-.123-.087-.171-.046-.146l.224.14c.12.074.276.189.47.345a24.359 24.359 0 0 1 1.737 1.541c.4.388.826.835 1.274 1.34.449.505.964 1.05 1.547 1.633.582.584 1.228 1.242 1.939 1.975.71.733 1.419 1.487 2.125 2.262.706.775 1.457 1.594 2.251 2.458a99.119 99.119 0 0 1 2.363 2.664c.78.913 1.571 1.827 2.373 2.745a71.948 71.948 0 0 1 2.269 2.724 81.45 81.45 0 0 0 2.265 2.736c.8.926 1.542 1.843 2.225 2.752.684.91 1.436 1.826 2.254 2.752a53.657 53.657 0 0 1 2.35 2.846 68.814 68.814 0 0 0 2.28 2.81 58.259 58.259 0 0 1 2.226 2.765c.713.942 1.468 1.907 2.267 2.894.8.987 1.565 1.951 2.298 2.893.734.941 1.5 1.903 2.302 2.886.8.983 1.59 1.961 2.367 2.933.777.973 1.523 1.92 2.236 2.844.712.923 1.367 1.797 1.962 2.623a24.579 24.579 0 0 1 1.427 2.18c.531.935 1.113 1.946 1.745 3.032M321.105 410.64c.434-.106 1.08-.318 1.94-.636.544-.202 1.04-.384 1.489-.546a87.07 87.07 0 0 0 1.486-.555c.542-.208 1.149-.433 1.82-.675a47.51 47.51 0 0 1 2.24-.74c.823-.252 1.713-.518 2.67-.8.956-.283 1.968-.578 3.036-.885 1.068-.308 2.189-.624 3.361-.948 1.173-.325 2.377-.648 3.613-.969 1.237-.32 2.507-.635 3.812-.942 1.304-.307 2.586-.613 3.844-.92 1.258-.305 2.519-.62 3.782-.944a581.214 581.214 0 0 0 7.111-1.884c1.033-.282 1.98-.528 2.843-.738a89.442 89.442 0 0 1 4.572-.965M320.642 368.02c-.094-.349-.034-.502.179-.46.153.03.334.095.543.195.208.1.584.31 1.126.628.543.318 1.062.601 1.558.85a41.842 41.842 0 0 1 3.597 2.044c.657.417 1.402.861 2.236 1.334.834.472 1.697.974 2.588 1.506a692.49 692.49 0 0 1 2.783 1.668c.965.582 1.983 1.183 3.056 1.805 1.073.621 1.987 1.166 2.743 1.633l1.66 1.022c.35.215.937.553 1.758 1.014.821.46 1.35.763 1.588.907.236.145.48.286.73.425s.79.423 1.62.853c.83.43 1.732.931 2.705 1.505.974.575 1.698.987 2.175 1.237.476.25.938.487 1.385.713a130.05 130.05 0 0 0 4.487 2.133c.873.396 1.667.75 2.38 1.065.713.315 1.328.572 1.843.772.79.306 1.464.573 2.025.803" style="fill:none;stroke:#7ec636;stroke-width:2.07874;stroke-linecap:round;stroke-linejoin:round;stroke-miterlimit:10;stroke-dasharray:none;stroke-opacity:1" transform="matrix(.72727 0 0 .72727 -208.828 -228.823)"/><path d="M329.157 629.68c-.085.19-.185.288-.3.294-.08.004-.141-.208-.185-.637a9.454 9.454 0 0 1-.041-1.298c.016-.436.105-.907.269-1.411.163-.505.37-1.008.62-1.51.25-.503.52-.937.812-1.302.291-.366.593-.603.905-.713.313-.109.622-.06.927.148.305.207.562.539.771.996.21.457.348.951.417 1.482.068.53.106 1.068.113 1.613.007.545-.022 1.051-.086 1.518-.064.466-.14.841-.228 1.124l-.154.497c-.015.048-.013.062.007.042l.203-.207c.115-.118.333-.273.653-.466s.694-.347 1.121-.462a6.82 6.82 0 0 1 1.373-.215c.488-.028.958.053 1.41.244.451.191.853.507 1.204.946.352.44.622.989.811 1.646a8.58 8.58 0 0 1 .324 2.064c.026.72-.125 1.494-.453 2.326-.328.833-.884 1.774-1.668 2.826a11.483 11.483 0 0 1-2.711 2.631c-1.024.703-1.966 1.138-2.827 1.305-.86.167-1.577.033-2.148-.402-.814-.62-.854-2.28-.12-4.978M397.445 629.878c-.273.193-.492.14-.657-.162-.117-.214-.187-.722-.21-1.522-.023-.801.018-1.387.123-1.758.104-.371.258-.753.463-1.145.204-.392.425-.774.662-1.144.237-.37.49-.698.757-.985.267-.286.534-.489.802-.607.269-.119.53-.184.783-.196.253-.012.501.067.745.235.244.169.48.427.705.774.226.348.426.762.601 1.242s.324 1.022.448 1.628c.124.605.208 1.325.253 2.16.045.835.037 1.714-.023 2.638-.06.923-.231 1.799-.513 2.626a18.21 18.21 0 0 1-1.155 2.624 20.87 20.87 0 0 1-1.616 2.587c-.589.803-1.204 1.467-1.844 1.992-.641.525-1.2.887-1.676 1.085a2.845 2.845 0 0 1-1.463.204c-.498-.061-.833-.277-1.005-.647-.171-.37-.25-.81-.234-1.324.015-.514.176-1.042.484-1.585a5.725 5.725 0 0 1 1.138-1.43c.45-.409.893-.663 1.326-.76.433-.099.78.037 1.042.407s.475.883.638 1.542c.163.659.357 1.288.583 1.887.225.6.507 1.107.845 1.522.339.415.739.731 1.2.95.462.218.946.354 1.452.41a3.877 3.877 0 0 0 1.514-.14c.504-.147.974-.458 1.413-.933a6.35 6.35 0 0 0 1.096-1.67c.436-.949.766-2.012.99-3.189" style="fill:none;stroke:#ffd300;stroke-width:1.29921;stroke-linecap:round;stroke-linejoin:round;stroke-miterlimit:10;stroke-dasharray:none;stroke-opacity:1" transform="matrix(.72727 0 0 .72727 -230.903 -355.162)"/><path d="M350.37 633.014c.39-.128 1.398-.37 3.024-.725.962-.21 1.895-.405 2.8-.582a56.393 56.393 0 0 1 3.01-.497 52.681 52.681 0 0 1 3.466-.364 63.493 63.493 0 0 1 3.622-.16 80.437 80.437 0 0 1 3.587.024c1.735.05 4.082.3 7.039.75" style="fill:none;stroke:#fff;stroke-width:1.29921;stroke-linecap:round;stroke-linejoin:round;stroke-miterlimit:10;stroke-dasharray:none;stroke-opacity:1" transform="matrix(.72727 0 0 .72727 -229.622 -355.345)"/><path d="M379.77 633.095c.093 0 .136.048.13.144-.004.096-.099.204-.281.323-.183.12-.395.238-.636.356-.24.118-.509.256-.805.414-.296.158-.654.33-1.075.514a5.793 5.793 0 0 1-1.333.4c-.686.12-1.533.079-2.543-.123M380.047 632.808c.041.029.066.009.074-.06.008-.07-.038-.217-.137-.444-.1-.226-.253-.51-.461-.85a9.973 9.973 0 0 0-.733-1.035c-.28-.35-.589-.699-.926-1.05a78.7 78.7 0 0 0-2.24-2.2" style="fill:none;stroke:#fff;stroke-width:1.29921;stroke-linecap:round;stroke-linejoin:round;stroke-miterlimit:10;stroke-dasharray:none;stroke-opacity:1" transform="matrix(.72727 0 0 .72727 -228.834 -355.648)"/></svg>