<svg xmlns="http://www.w3.org/2000/svg" width="184.164" height="112.99"><path d="M249.413 314.336a1.335 1.335 0 0 0-.09-.444.891.891 0 0 0-.241-.307 2.68 2.68 0 0 0-.462-.327 7.427 7.427 0 0 0-.606-.31 4.051 4.051 0 0 0-1.572-.358 3.176 3.176 0 0 0-1.04.165c-.386.12-.8.285-1.243.494-.442.21-.899.443-1.37.702a16.07 16.07 0 0 0-1.423.885c-.477.33-.944.69-1.4 1.077-.457.388-.914.805-1.372 1.252-.458.447-.89.917-1.295 1.411a11.062 11.062 0 0 0-1.085 1.59 13.685 13.685 0 0 0-.822 1.726 8.47 8.47 0 0 0-.486 1.802c-.095.615-.131 1.28-.109 1.998.022.717.142 1.447.359 2.192.216.745.522 1.567.917 2.467.394.9.865 1.773 1.412 2.617a30.884 30.884 0 0 0 1.756 2.442 18.356 18.356 0 0 0 1.947 2.102 11.578 11.578 0 0 0 2.093 1.543c.723.411 1.47.725 2.242.941.772.216 1.399.341 1.881.375.482.033 1.283-.06 2.403-.279 1.119-.22 2.076-.533 2.87-.94.795-.409 1.55-.916 2.268-1.521a15.389 15.389 0 0 0 2.043-2.112 39.06 39.06 0 0 0 1.76-2.352c.527-.767.985-1.606 1.373-2.517a15.01 15.01 0 0 0 .87-2.674c.191-.872.296-1.771.316-2.698.019-.926-.08-1.876-.299-2.848a14.506 14.506 0 0 0-.85-2.654c-.35-.798-.78-1.525-1.29-2.183a14.898 14.898 0 0 0-1.676-1.827 10.417 10.417 0 0 0-1.912-1.409 15.66 15.66 0 0 0-2.022-.97 10.33 10.33 0 0 0-2.052-.574 8.815 8.815 0 0 0-1.99-.118c-.941.055-2.02.338-3.236.847M248.48 358.215c.063-.11.026-.369-.112-.778a2.934 2.934 0 0 0-.256-.59 2.99 2.99 0 0 0-.323-.424 4.298 4.298 0 0 0-.476-.447c-.187-.153-.392-.309-.613-.467a3.436 3.436 0 0 0-.756-.404 3.143 3.143 0 0 0-.97-.196 3.18 3.18 0 0 0-1.173.175 5.427 5.427 0 0 0-1.303.658c-.45.3-.849.596-1.194.887-.345.29-.79.709-1.332 1.254a12.845 12.845 0 0 0-1.426 1.693c-.409.584-.777 1.19-1.104 1.818a15.483 15.483 0 0 0-.81 1.81 8.223 8.223 0 0 0-.437 1.83c-.08.642-.117 1.28-.112 1.914.005.634.075 1.294.21 1.981.137.688.328 1.369.575 2.044a8.195 8.195 0 0 0 1.013 1.92c.429.606.938 1.17 1.528 1.693.59.523 1.23.983 1.916 1.38.687.399 1.433.739 2.238 1.021.805.282 1.594.527 2.365.735.772.207 1.578.355 2.418.443.84.088 1.681.096 2.523.024a12.536 12.536 0 0 0 2.466-.461 12.026 12.026 0 0 0 2.28-.927c.718-.383 1.402-.86 2.052-1.433a12.992 12.992 0 0 0 1.719-1.827c.496-.645.937-1.417 1.324-2.316.387-.9.696-1.805.927-2.716.23-.91.374-1.811.428-2.701a9.235 9.235 0 0 0-.172-2.518c-.17-.79-.45-1.62-.839-2.493a12.89 12.89 0 0 0-1.382-2.397 17.915 17.915 0 0 0-1.807-2.09 7.556 7.556 0 0 0-2.234-1.556 7.46 7.46 0 0 0-2.613-.641 13.596 13.596 0 0 0-2.793.112c-.936.133-1.857.328-2.764.583-.906.255-1.765.57-2.577.946-.813.376-1.547.751-2.203 1.126-.656.374-1.147.683-1.473.926-.518.388-.832.699-.94.93" style="fill:none;stroke:#007aff;stroke-width:1.8189;stroke-linecap:round;stroke-linejoin:round;stroke-miterlimit:10;stroke-dasharray:none;stroke-opacity:1" transform="matrix(.72727 0 0 .72727 -170.095 -222.258)"/><path d="M248.822 398.233c-.047-.103-.158-.219-.333-.348a1.624 1.624 0 0 0-.44-.219 2.86 2.86 0 0 0-.663-.128 6.94 6.94 0 0 0-.866-.02 5.076 5.076 0 0 0-1.03.153c-.369.091-.776.206-1.22.345-.445.139-.91.296-1.395.472-.486.176-.965.375-1.44.599a13.559 13.559 0 0 0-2.366 1.415c-.326.244-.563.427-.713.55-.15.123-.425.377-.827.762-.402.385-.804.818-1.208 1.3a20.344 20.344 0 0 0-1.365 1.879 39.131 39.131 0 0 0-1.4 2.297c-.427.76-.76 1.55-1 2.37a10.57 10.57 0 0 0-.424 2.405c-.042.782.031 1.58.22 2.394.187.813.493 1.616.917 2.406.423.791.923 1.592 1.5 2.403a15.01 15.01 0 0 0 1.83 2.144c.646.62 1.355 1.165 2.129 1.635.774.471 1.578.858 2.415 1.16.836.302 1.681.505 2.536.607a18.15 18.15 0 0 0 2.603.122 11.64 11.64 0 0 0 2.65-.378c.888-.23 1.456-.394 1.707-.489a7.06 7.06 0 0 0 .695-.305c.213-.109.829-.545 1.847-1.31 1.017-.765 1.646-1.284 1.887-1.558.24-.273.433-.525.578-.755.146-.23.336-.562.57-.998.235-.436.545-1.074.932-1.916.387-.842.692-1.605.915-2.291.222-.686.37-1.167.441-1.442.072-.276.172-.838.3-1.686.127-.849.204-1.748.23-2.699.028-.95-.052-1.969-.237-3.056a12.617 12.617 0 0 0-1.007-3.2 14.89 14.89 0 0 0-1.79-2.926c-.709-.903-1.473-1.59-2.293-2.062-.82-.472-1.616-.762-2.39-.872a8.475 8.475 0 0 0-2.198-.041 14.38 14.38 0 0 0-1.957.365c-.908.24-1.926.528-3.055.867" style="fill:none;stroke:#007aff;stroke-width:1.8189;stroke-linecap:round;stroke-linejoin:round;stroke-miterlimit:10;stroke-dasharray:none;stroke-opacity:1" transform="matrix(.72727 0 0 .72727 -167.144 -223.57)"/><path d="M332.841 335.644c-.463-.482-.782-.787-.957-.916a3.516 3.516 0 0 0-.388-.249 3.511 3.511 0 0 0-.497-.22 3.52 3.52 0 0 0-.71-.163 7.268 7.268 0 0 0-1-.057c-.386.001-.814.055-1.283.163a9.78 9.78 0 0 0-1.394.434c-.46.181-.93.406-1.412.676a11.928 11.928 0 0 0-3.053 2.521 36.253 36.253 0 0 0-1.344 1.628 11.092 11.092 0 0 0-1.098 1.738c-.324.632-.59 1.289-.796 1.971-.207.682-.35 1.338-.428 1.968-.079.629-.107 1.282-.084 1.96.023.677.109 1.26.26 1.75.15.49.27.84.363 1.052.092.21.315.64.67 1.289.355.649.774 1.31 1.258 1.986a15.652 15.652 0 0 0 1.693 1.976 20.7 20.7 0 0 0 2.027 1.773c.706.54 1.463.998 2.27 1.375.807.378 1.653.681 2.537.912.883.23 1.751.388 2.602.475.852.086 1.679.095 2.481.027a7.697 7.697 0 0 0 2.268-.536 6.777 6.777 0 0 0 1.964-1.237 10.63 10.63 0 0 0 1.623-1.835c.482-.687.91-1.405 1.286-2.156.376-.75.684-1.528.923-2.335.24-.807.41-1.623.51-2.448.1-.826.132-1.662.098-2.508a9.461 9.461 0 0 0-.44-2.491 17.349 17.349 0 0 0-.973-2.41 18.67 18.67 0 0 0-1.31-2.253 18.77 18.77 0 0 0-1.533-1.969 7.949 7.949 0 0 0-1.72-1.468 8.074 8.074 0 0 0-1.969-.882 9.864 9.864 0 0 0-2.21-.385 10.337 10.337 0 0 0-2.26.103c-.737.116-1.452.285-2.145.508a10.941 10.941 0 0 0-2.927 1.457M332.282 378.969a13.914 13.914 0 0 0-1.512-.956 3.827 3.827 0 0 0-.906-.37 4.92 4.92 0 0 0-.934-.12 4.444 4.444 0 0 0-1.17.122 6.2 6.2 0 0 0-1.28.45 8.052 8.052 0 0 0-1.3.785c-.437.321-.89.742-1.355 1.263a13.955 13.955 0 0 0-1.327 1.762c-.42.654-.808 1.316-1.163 1.987a14.25 14.25 0 0 0-.903 2.09 13.643 13.643 0 0 0-.534 2.027 9.514 9.514 0 0 0-.122 2.027c.03.722.16 1.442.392 2.161.233.72.53 1.451.894 2.196.364.745.802 1.464 1.315 2.157.513.694 1.1 1.32 1.76 1.878a15.2 15.2 0 0 0 2.054 1.467c.707.42 1.472.758 2.293 1.016.82.258 1.67.442 2.545.552.876.11 1.74.167 2.596.17a10.3 10.3 0 0 0 2.467-.286 8.456 8.456 0 0 0 2.213-.876 7.851 7.851 0 0 0 1.816-1.421 9.431 9.431 0 0 0 1.386-1.907c.398-.715.754-1.48 1.067-2.297.314-.816.574-1.636.78-2.458.208-.822.341-1.657.402-2.507.061-.85.052-1.684-.026-2.506a7.378 7.378 0 0 0-.548-2.23 6.541 6.541 0 0 0-1.133-1.784 12.619 12.619 0 0 0-1.647-1.524 19.51 19.51 0 0 0-2.11-1.424 25.399 25.399 0 0 0-2.453-1.267 16.534 16.534 0 0 0-2.54-.915c-.835-.223-1.582-.334-2.24-.334a5.12 5.12 0 0 0-1.827.317c-.827.313-1.705.808-2.633 1.486M415.323 355.49c-.062-.1-.195-.198-.401-.293a4.4 4.4 0 0 0-.554-.216 4.46 4.46 0 0 0-.58-.128 7.881 7.881 0 0 0-.806-.079 6.983 6.983 0 0 0-1.056.033c-.39.038-.803.138-1.242.299-.438.16-.904.381-1.397.662s-1.01.62-1.554 1.015a20.84 20.84 0 0 0-1.548 1.245c-.49.435-.986.893-1.488 1.377a14.41 14.41 0 0 0-1.435 1.612c-.454.59-.847 1.179-1.18 1.763a18.31 18.31 0 0 0-.885 1.766c-.257.593-.47 1.237-.64 1.934-.17.696-.279 1.366-.327 2.01-.049.643-.033 1.33.048 2.058a7.59 7.59 0 0 0 .556 2.125c.29.687.661 1.353 1.113 1.996.452.644.978 1.278 1.58 1.904a13.145 13.145 0 0 0 1.961 1.677c.707.493 1.461.948 2.263 1.365.802.417 1.634.795 2.495 1.133a13.64 13.64 0 0 0 2.692.747c.934.16 1.834.228 2.7.203a7.786 7.786 0 0 0 2.519-.492 9.31 9.31 0 0 0 2.298-1.255 15.504 15.504 0 0 0 1.825-1.559c.497-.507.84-.884 1.03-1.132.19-.248.522-.761.999-1.54.476-.778.938-1.622 1.385-2.53.447-.909.828-1.828 1.142-2.757.314-.93.54-1.898.679-2.907.138-1.008.196-1.985.174-2.93a10.145 10.145 0 0 0-.433-2.73 8.298 8.298 0 0 0-1.113-2.339 9.97 9.97 0 0 0-1.714-1.883 8.706 8.706 0 0 0-2.23-1.387 10.7 10.7 0 0 0-2.687-.745 18.015 18.015 0 0 0-6.17.172c-1.064.213-2.044.43-2.941.653a14.942 14.942 0 0 1-4.1.433" style="fill:none;stroke:#007aff;stroke-width:1.8189;stroke-linecap:round;stroke-linejoin:round;stroke-miterlimit:10;stroke-dasharray:none;stroke-opacity:1" transform="matrix(.72727 0 0 .72727 -170.095 -222.258)"/><path d="M433.32 368.564a3.71 3.71 0 0 1 .936-.351c.206-.045.522-.088.946-.129a59.43 59.43 0 0 1 1.944-.138 131.326 131.326 0 0 1 6.699-.216c1.305-.01 2.726-.021 4.264-.035 1.537-.014 3.251-.04 5.142-.077 1.89-.037 3.871-.06 5.941-.07a440.23 440.23 0 0 1 6.374.02c3.208.034 7.12.487 11.733 1.36" style="fill:none;stroke:#90d300;stroke-width:1.8189;stroke-linecap:round;stroke-linejoin:round;stroke-miterlimit:10;stroke-dasharray:none;stroke-opacity:1" transform="matrix(.72727 0 0 .72727 -170.095 -222.258)"/><path d="M320.273 330.305c-.802-.282-1.183-.358-1.142-.226.03.093.197.2.502.318.304.118.719.268 1.242.448.524.18 1.118.395 1.783.644.665.249 1.463.555 2.396.917.932.363 1.953.751 3.064 1.165 1.11.414 2.304.852 3.583 1.315 1.279.462 2.621.975 4.027 1.536 1.407.562 2.89 1.173 4.452 1.832 1.562.66 3.082 1.323 4.561 1.989 1.48.666 2.912 1.345 4.3 2.037 1.386.692 2.786 1.381 4.2 2.068a85.333 85.333 0 0 1 4.07 2.113c1.924 1.067 4.068 2.416 6.433 4.047M320.707 367.335c-.115.015-.17-.019-.168-.1.002-.058.165-.15.488-.277.324-.128.646-.263.967-.405.322-.142.611-.282.87-.418.258-.137.579-.294.96-.47a22.01 22.01 0 0 1 1.07-.465c.332-.132.771-.304 1.316-.515.546-.21 1.005-.394 1.377-.55.373-.156.962-.377 1.768-.662.806-.284 1.631-.585 2.476-.902.844-.317 1.766-.663 2.765-1.036a163.21 163.21 0 0 1 2.98-1.083c.989-.348 1.959-.67 2.91-.966.951-.296 1.943-.601 2.974-.915a104.99 104.99 0 0 0 2.935-.939c.925-.311 1.846-.63 2.765-.953.918-.324 1.825-.653 2.72-.988a121.56 121.56 0 0 1 3.8-1.322c1.637-.546 2.778-.908 3.423-1.084a14.056 14.056 0 0 1 2.98-.475M319.645 409.972c.138-.003.278-.097.42-.282.141-.184.371-.521.689-1.011.317-.49.59-.899.821-1.227.23-.329.495-.733.793-1.214.298-.48.673-1.073 1.125-1.779a30.17 30.17 0 0 1 1.564-2.203 59.707 59.707 0 0 0 1.788-2.438 61.89 61.89 0 0 1 1.99-2.689c.726-.93 1.483-1.9 2.271-2.913.788-1.012 1.63-2.073 2.526-3.182.895-1.109 1.5-1.845 1.81-2.21.312-.363.597-.699.855-1.006.257-.307.623-.772 1.095-1.394.473-.621.825-1.072 1.056-1.351.23-.28.73-.86 1.5-1.74s1.627-1.898 2.573-3.056c.946-1.158 1.931-2.352 2.954-3.582a132.119 132.119 0 0 1 3.193-3.696 360.316 360.316 0 0 0 3.103-3.507 269.403 269.403 0 0 1 2.875-3.24 479.211 479.211 0 0 1 2.785-3.063c.904-.985 1.765-1.91 2.583-2.777a85.556 85.556 0 0 1 2.375-2.421 63.425 63.425 0 0 1 1.996-1.882c.864-.772 1.655-1.392 2.374-1.86" style="fill:none;stroke:#7ec636;stroke-width:2.07874;stroke-linecap:round;stroke-linejoin:round;stroke-miterlimit:10;stroke-dasharray:none;stroke-opacity:1" transform="matrix(.72727 0 0 .72727 -208.828 -224.405)"/><path d="M318.433 330.389c-.072-.123-.087-.171-.046-.146l.224.14c.12.074.276.189.47.345a24.359 24.359 0 0 1 1.737 1.541c.4.388.826.835 1.274 1.34.449.505.964 1.05 1.547 1.633.582.584 1.228 1.242 1.939 1.975.71.733 1.419 1.487 2.125 2.262.706.775 1.457 1.594 2.251 2.458a99.119 99.119 0 0 1 2.363 2.664c.78.913 1.571 1.827 2.373 2.745a71.948 71.948 0 0 1 2.269 2.724 81.45 81.45 0 0 0 2.265 2.736c.8.926 1.542 1.843 2.225 2.752.684.91 1.436 1.826 2.254 2.752a53.657 53.657 0 0 1 2.35 2.846 68.814 68.814 0 0 0 2.28 2.81 58.259 58.259 0 0 1 2.226 2.765c.713.942 1.468 1.907 2.267 2.894.8.987 1.565 1.951 2.298 2.893.734.941 1.5 1.903 2.302 2.886.8.983 1.59 1.961 2.367 2.933.777.973 1.523 1.92 2.236 2.844.712.923 1.367 1.797 1.962 2.623a24.579 24.579 0 0 1 1.427 2.18c.531.935 1.113 1.946 1.745 3.032M321.105 410.64c.434-.106 1.08-.318 1.94-.636.544-.202 1.04-.384 1.489-.546a87.07 87.07 0 0 0 1.486-.555c.542-.208 1.149-.433 1.82-.675a47.51 47.51 0 0 1 2.24-.74c.823-.252 1.713-.518 2.67-.8.956-.283 1.968-.578 3.036-.885 1.068-.308 2.189-.624 3.361-.948 1.173-.325 2.377-.648 3.613-.969 1.237-.32 2.507-.635 3.812-.942 1.304-.307 2.586-.613 3.844-.92 1.258-.305 2.519-.62 3.782-.944a581.214 581.214 0 0 0 7.111-1.884c1.033-.282 1.98-.528 2.843-.738a89.442 89.442 0 0 1 4.572-.965M320.642 368.02c-.094-.349-.034-.502.179-.46.153.03.334.095.543.195.208.1.584.31 1.126.628.543.318 1.062.601 1.558.85a41.842 41.842 0 0 1 3.597 2.044c.657.417 1.402.861 2.236 1.334.834.472 1.697.974 2.588 1.506a692.49 692.49 0 0 1 2.783 1.668c.965.582 1.983 1.183 3.056 1.805 1.073.621 1.987 1.166 2.743 1.633l1.66 1.022c.35.215.937.553 1.758 1.014.821.46 1.35.763 1.588.907.236.145.48.286.73.425s.79.423 1.62.853c.83.43 1.732.931 2.705 1.505.974.575 1.698.987 2.175 1.237.476.25.938.487 1.385.713a130.05 130.05 0 0 0 4.487 2.133c.873.396 1.667.75 2.38 1.065.713.315 1.328.572 1.843.772.79.306 1.464.573 2.025.803M401.436 348.392c.36.257.923.546 1.69.868.767.321 1.419.613 1.954.876a148.899 148.899 0 0 0 4.352 2.04c.892.4 1.826.834 2.802 1.3.977.465 1.984.96 3.024 1.484a386.192 386.192 0 0 0 6.88 3.381c1.188.569 2.42 1.147 3.695 1.736 1.275.59 2.512 1.19 3.71 1.804 1.198.614 2.347 1.198 3.446 1.754 1.1.555 2.148 1.087 3.145 1.595.998.507 1.96 1.026 2.889 1.556.928.53 1.804 1.036 2.628 1.52.825.483 1.58.918 2.264 1.305.685.386 1.252.726 1.703 1.018.45.292.797.533 1.04.723.244.19.41.338.5.443.123.145.047.23-.228.255M403.105 393.328l-.18.016c-.01 0 .002-.007.033-.025.03-.018.141-.079.331-.185.19-.105.599-.313 1.226-.625a82.218 82.218 0 0 0 1.732-.882 52.595 52.595 0 0 1 1.933-.956c.763-.361 1.561-.732 2.396-1.113.834-.38 1.774-.786 2.821-1.217 1.047-.43 2.133-.882 3.26-1.355 1.126-.472 2.334-.969 3.625-1.49 1.29-.52 2.592-1.042 3.905-1.563 1.313-.52 2.61-1.025 3.893-1.513 1.283-.487 2.55-.955 3.803-1.401 1.252-.447 2.435-.878 3.55-1.294 1.116-.416 2.186-.803 3.212-1.16 1.025-.359 1.982-.683 2.87-.972a68.71 68.71 0 0 1 3.106-.919 77.048 77.048 0 0 1 2.239-.591 9.26 9.26 0 0 1 .798-.152l.482-.066" style="fill:none;stroke:#7ec636;stroke-width:2.07874;stroke-linecap:round;stroke-linejoin:round;stroke-miterlimit:10;stroke-dasharray:none;stroke-opacity:1" transform="matrix(.72727 0 0 .72727 -208.828 -224.405)"/><path d="M310.559 349.474c.015.75.036 1.353.064 1.812.028.452.056 1.312.085 2.58M310.73 361.02c0 .663-.07 2.115-.21 4.354M310.469 372.41c0 .46.02 1.011.06 1.653.062.979.135 1.845.218 2.601M310.556 383.123c-.097.041-.159.161-.185.36-.037.281-.055 1.712-.054 4.291M310.224 394.134c-.068.152-.08.489-.034 1.01.067.76.074 1.92.022 3.481M310.065 405.426c0 .383-.012.875-.035 1.475l-.13 3.338M310.261 417.365c-.035.306-.053.738-.053 1.297 0 .52.033 1.333.1 2.44M310.615 427.77c-.075-.077-.123-.052-.143.075-.02.126-.029.44-.025.94.004.501.027.925.071 1.272.065.506.228 1.237.49 2.192M311.01 438.643c-.088.093-.143.28-.166.56-.015.181-.023.535-.025 1.064-.002.79.022 1.607.074 2.454M310.888 450.478a19.788 19.788 0 0 0-.063 1.714c.005.856.107 1.807.304 2.854M310.386 462.355c-.093.178-.155.447-.186.808-.019.233-.04.567-.064 1.002-.023.435-.043.942-.058 1.52a32.04 32.04 0 0 0 .09 3.046M393.247 466.41a8.382 8.382 0 0 1-.07-.96c-.001-.182.012-.602.04-1.26.042-1.023.146-1.825.312-2.407M393.374 454.026l-.019.07a844.107 844.107 0 0 1-.014-.386c-.01-.3.01-1.294.063-2.982M393.22 444.073l-.03.082a.921.921 0 0 1-.004-.108l-.011-.863c-.01-.731.001-1.692.034-2.881M393.373 431.793c-.062-.178-.121-.465-.178-.862a15.31 15.31 0 0 1-.098-.98 20.295 20.295 0 0 1-.022-2.158M392.181 419.135a.877.877 0 0 1-.163-.466 13.18 13.18 0 0 1-.039-.99c-.009-.681.075-1.528.252-2.542M392.048 403.885a3.607 3.607 0 0 1-.086-.579 18.246 18.246 0 0 1-.029-.935 41.143 41.143 0 0 0-.037-1.308 15.01 15.01 0 0 0-.24-2.073M391.797 390.12a43.54 43.54 0 0 1 .011-1.804c.015-.406.08-.957.197-1.653M392.512 377.578c-.063-.2-.095-.672-.097-1.418-.002-1.159.06-2.068.189-2.727M393.108 365.492c-.02-.193-.031-.57-.032-1.13 0-.559.01-1.034.034-1.426.035-.58.132-1.227.293-1.942M393.38 356.278a12.693 12.693 0 0 1-.06-1.547c.013-.462.151-1.464.414-3.007M476.872 351.214c-.04 1.432.017 2.457.17 3.074M477.32 362.384c-.028.39-.03 1.006-.007 1.851.022.783.033 1.772.035 2.967M477.655 374.54c-.06.287-.09.677-.091 1.172 0 .731.056 1.58.167 2.548M477.535 384.923c-.049 1.673.008 2.906.173 3.699M477.611 396.734c.067.272.101.981.103 2.128a31.97 31.97 0 0 0 .16 3.101M477.877 409.22c-.053.21-.072.73-.057 1.561.013.724.053 1.752.12 3.082M477.698 422.328c-.094.54-.035 1.857.177 3.949M477.603 434.199a12.84 12.84 0 0 0 .026 1.414c.023.267.051.548.086.843.05.431.153 1.023.31 1.776M478.047 448.65c0 .497.02 1 .057 1.509.057.756.096 1.597.116 2.524M477.898 462.647c-.092.443-.103 1.89-.035 4.34" style="fill:none;stroke:#ffd300;stroke-width:2.07874;stroke-linecap:round;stroke-linejoin:round;stroke-miterlimit:10;stroke-dasharray:none;stroke-opacity:1" transform="matrix(.72727 0 0 .72727 -164.389 -253.407)"/><path d="M236.843 490.36c.114-.56.202-.968.262-1.224a47.395 47.395 0 0 1 .534-1.992c.102-.349.207-.737.317-1.165.11-.429.201-.844.276-1.247.074-.402.128-.766.16-1.09.033-.325.05-.594.05-.81.002-.215-.03-.362-.092-.441-.062-.08-.146-.098-.25-.054-.105.044-.227.18-.366.408-.14.228-.28.559-.42.993-.14.435-.259.96-.356 1.578a23.015 23.015 0 0 0-.222 2.058c-.05.755-.075 1.566-.076 2.433-.001.867.053 1.664.163 2.39.11.726.278 1.347.504 1.862.225.515.487.869.785 1.06.424.272 1.182-.036 2.274-.925M243.883 490.628a.684.684 0 0 0 .02-.374.577.577 0 0 0-.08-.204.547.547 0 0 0-.151-.14.652.652 0 0 0-.237-.093 1.753 1.753 0 0 0-.306-.03.753.753 0 0 0-.362.098 1.201 1.201 0 0 0-.38.35c-.126.165-.24.364-.343.595a4.343 4.343 0 0 0-.254.763 3.818 3.818 0 0 0-.105.826c-.004.273.035.542.12.808.083.265.197.501.342.708.144.207.315.358.512.453.197.095.424.129.682.1.257-.028.512-.132.765-.312s.475-.397.668-.652c.192-.255.346-.531.461-.83.115-.298.196-.605.24-.919.046-.314.07-.6.076-.86.005-.261-.013-.451-.053-.57-.04-.12-.096-.166-.169-.14-.072.027-.144.17-.218.428-.073.26-.124.571-.151.935a7.24 7.24 0 0 0 .015 1.179c.037.421.125.808.265 1.159.14.35.332.603.577.756.353.22.96.158 1.822-.187M249.604 489.92c-.073-.028-.16.006-.264.101-.07.064-.136.178-.198.342-.063.164-.107.371-.132.62-.024.25-.03.464-.018.644.013.18.075.42.188.722.112.302.253.57.422.806.169.236.353.412.553.529.2.116.405.17.616.164.211-.007.43-.098.657-.273.226-.174.444-.39.653-.648.208-.257.38-.524.517-.801.135-.277.224-.552.266-.825.041-.273.055-.5.04-.68-.015-.181-.062-.305-.143-.372a.272.272 0 0 0-.276-.05c-.103.035-.2.14-.29.318-.09.178-.152.419-.186.723a8.88 8.88 0 0 0-.042 1.1c.006.43.033.91.082 1.442.048.531.096 1.131.144 1.8.047.667.075 1.372.083 2.113.008.741.007 1.413-.004 2.017a32.885 32.885 0 0 1-.06 1.565 8.404 8.404 0 0 1-.329 1.863M256.64 491.891a.57.57 0 0 0 .229-.094c.08-.052.154-.11.222-.175.068-.065.144-.157.228-.275.083-.118.164-.258.24-.42.077-.163.136-.336.177-.521.04-.186.065-.368.072-.548a.691.691 0 0 0-.11-.44.831.831 0 0 0-.302-.262c-.12-.06-.256-.099-.41-.114a1.402 1.402 0 0 0-.497.05c-.177.047-.361.163-.554.348a2.735 2.735 0 0 0-.528.75c-.16.316-.275.665-.346 1.05a4.871 4.871 0 0 0-.065 1.21c.027.424.121.83.281 1.22.16.389.356.71.587.962.23.252.482.42.753.503.272.083.567.066.887-.05.462-.168 1.083-.707 1.864-1.616M261.378 490.514c-.035.054-.024.191.033.411a8.788 8.788 0 0 1 .219 1.279c.028.284.045.58.053.89.007.31.011.578.011.805 0 .228-.002.389-.008.482-.005.094-.03.132-.073.114-.044-.018-.105-.12-.183-.309a4.23 4.23 0 0 1-.21-.716 9.226 9.226 0 0 1-.142-.846c-.032-.274-.054-.53-.065-.764-.01-.234.002-.47.04-.707a1.89 1.89 0 0 1 .227-.651c.113-.198.267-.358.462-.482.28-.178.869-.228 1.768-.152M266.958 489.606c-.017-.05-.091-.109-.222-.174a.947.947 0 0 0-.344-.107.43.43 0 0 0-.251.05.78.78 0 0 0-.223.226 1.54 1.54 0 0 0-.2.41 2.477 2.477 0 0 0-.11.533c-.02.192-.03.375-.03.55 0 .174.028.326.083.456.055.13.124.237.209.325.084.087.189.157.314.21.126.052.284.092.474.12l.612.09c.219.033.426.08.623.14.196.062.354.149.475.262.12.113.198.263.231.449s.024.397-.028.634a1.744 1.744 0 0 1-.344.697 2.126 2.126 0 0 1-.663.56 2.081 2.081 0 0 1-.783.259c-.259.027-.473-.01-.643-.115-.248-.15-.373-.385-.376-.704M274.91 483.683a.957.957 0 0 0-.323-.088 9.368 9.368 0 0 0-.887-.037c-.447-.006-.82-.004-1.115.004-.296.008-.462.043-.497.104a.755.755 0 0 0-.076.275c-.016.122-.025.61-.028 1.462-.003.853.001 1.418.012 1.695.01.277.025.567.044.87.019.304.045.774.077 1.409.033.635.06 1.116.083 1.444a48.03 48.03 0 0 1 .111 2.694c.003.277.02.708.052 1.29.031.584.047 1.052.047 1.404 0 .353-.002.58-.008.68-.006.1-.018.198-.039.292-.02.094-.064.226-.133.397-.068.17-.078.265-.03.284.05.019.354.025.915.017.56-.007 1.072-.01 1.534-.01.714.001 1.297.024 1.749.067" style="fill:none;stroke:#fff;stroke-width:1.31104;stroke-linecap:round;stroke-linejoin:round;stroke-miterlimit:10;stroke-dasharray:none;stroke-opacity:1" transform="matrix(.72727 0 0 .72727 -160.262 -253.407)"/><path d="M281.622 498.344c.088.026.532.04 1.332.042.8.002 1.536.033 2.207.094M285.433 497.946c.01-.312.017-.643.018-.993a76.974 76.974 0 0 0-.054-2.71c-.02-.513-.034-.904-.041-1.17a18.225 18.225 0 0 0-.102-1.535 37.369 37.369 0 0 1-.077-.786 20.578 20.578 0 0 1-.056-.878 70.54 70.54 0 0 1-.06-1.956c-.007-.494-.01-1.555-.007-3.183M280.661 483.826l-.057-.007h.005l.11.003c.069.002.147.012.235.03.089.017.23.038.425.064.195.026.54.05 1.036.075.496.024.88.06 1.151.107.404.07.849.176 1.337.318" style="fill:none;stroke:#fff;stroke-width:1.49833;stroke-linecap:round;stroke-linejoin:round;stroke-miterlimit:10;stroke-dasharray:none;stroke-opacity:1" transform="matrix(.72727 0 0 .72727 -160.262 -253.407)"/><path d="M278.753 489.238a.928.928 0 0 1 .035-.435c.03-.08.002-.159-.085-.238a1.02 1.02 0 0 0-.263-.179 1.148 1.148 0 0 0-.31-.086 2.843 2.843 0 0 0-.378-.029 1.524 1.524 0 0 0-.397.047c-.13.032-.25.085-.363.158-.112.073-.21.164-.29.275-.081.11-.15.245-.208.406a2.96 2.96 0 0 0-.136.558 6.363 6.363 0 0 0-.062.718c-.01.267-.014.544-.012.833a4.8 4.8 0 0 0 .078.839c.05.27.12.53.207.776.089.247.197.465.325.656.129.19.27.35.426.482.155.132.32.237.495.317.175.08.354.133.537.162.183.028.36.038.531.031a.898.898 0 0 0 .481-.167c.15-.104.293-.242.427-.415.135-.173.255-.354.361-.543a2.62 2.62 0 0 0 .245-.606c.058-.215.094-.445.11-.689.016-.244.023-.51.02-.795a4.86 4.86 0 0 0-.077-.84 6.602 6.602 0 0 0-.193-.786 7.379 7.379 0 0 0-.238-.661 2.247 2.247 0 0 0-.257-.47 1.17 1.17 0 0 0-.295-.286c-.152-.099-.431-.178-.836-.236" style="fill:none;stroke:#007aff;stroke-width:1.55905;stroke-linecap:round;stroke-linejoin:round;stroke-miterlimit:10;stroke-dasharray:none;stroke-opacity:1" transform="matrix(.72727 0 0 .72727 -160.262 -253.407)"/><path d="M323.65 491.038c.114-.56.2-.968.261-1.224a47.896 47.896 0 0 1 .534-1.992c.102-.349.207-.737.317-1.165.11-.429.201-.844.276-1.247.074-.402.128-.766.16-1.09.034-.325.05-.594.051-.81.001-.215-.03-.362-.092-.441-.063-.08-.146-.098-.251-.054-.105.044-.227.18-.366.408-.14.228-.28.559-.42.993-.14.435-.259.96-.356 1.578a22.976 22.976 0 0 0-.221 2.058c-.05.755-.076 1.566-.077 2.433-.001.867.053 1.664.164 2.39.11.726.278 1.347.503 1.862.226.516.487.869.785 1.06.425.272 1.182-.036 2.274-.925M330.69 491.306a.685.685 0 0 0 .02-.374.575.575 0 0 0-.081-.204.545.545 0 0 0-.151-.14.656.656 0 0 0-.236-.093 1.754 1.754 0 0 0-.307-.03.753.753 0 0 0-.362.098 1.201 1.201 0 0 0-.38.35c-.126.165-.24.364-.343.595a4.346 4.346 0 0 0-.254.763 3.819 3.819 0 0 0-.105.826c-.004.273.036.542.12.808.083.265.197.501.342.708.144.207.315.358.512.453.197.095.424.129.682.1.257-.028.513-.132.765-.312.253-.18.476-.397.668-.652.192-.255.346-.531.461-.83.116-.298.196-.605.24-.919.046-.314.07-.6.076-.86.005-.261-.013-.451-.053-.57-.04-.12-.096-.166-.168-.14-.072.027-.145.17-.219.429-.073.258-.123.57-.151.934a7.24 7.24 0 0 0 .015 1.179c.037.421.126.808.265 1.159.14.35.332.603.578.756.352.22.96.158 1.821-.187M336.41 490.598c-.073-.028-.16.006-.264.101-.07.064-.135.178-.198.342a2.43 2.43 0 0 0-.131.62c-.025.25-.031.464-.018.644.012.18.075.42.187.722.113.302.253.57.422.806.169.236.353.412.553.529.2.116.406.17.617.164.21-.007.43-.098.656-.273a3.96 3.96 0 0 0 .653-.648c.209-.257.381-.524.517-.801s.224-.552.266-.825c.042-.273.055-.5.04-.68-.014-.18-.062-.305-.142-.372a.272.272 0 0 0-.276-.05c-.104.035-.2.141-.29.318-.09.178-.153.419-.187.723a8.878 8.878 0 0 0-.042 1.1c.006.43.034.91.082 1.442.049.531.097 1.131.144 1.8.047.667.075 1.372.083 2.113.008.741.007 1.413-.004 2.017a32.885 32.885 0 0 1-.06 1.565 8.412 8.412 0 0 1-.329 1.863M343.447 492.57a.57.57 0 0 0 .228-.094c.08-.053.154-.112.222-.176.068-.065.144-.157.228-.275.084-.118.164-.258.24-.42.077-.163.136-.336.177-.521.04-.186.065-.368.072-.548a.691.691 0 0 0-.11-.44.83.83 0 0 0-.301-.262c-.12-.06-.257-.099-.412-.114a1.402 1.402 0 0 0-.496.05c-.176.047-.36.163-.554.348a2.731 2.731 0 0 0-.528.75c-.159.316-.274.665-.346 1.05a4.876 4.876 0 0 0-.065 1.21c.027.424.121.83.281 1.22.16.389.356.71.587.962.231.252.482.42.754.503.27.083.566.066.886-.05.462-.168 1.083-.707 1.865-1.616M348.184 491.192c-.034.054-.023.191.033.411a8.867 8.867 0 0 1 .219 1.279c.028.284.046.58.053.89.007.31.011.578.012.805 0 .228-.002.389-.008.482-.005.094-.03.132-.074.114-.044-.018-.105-.12-.183-.308a4.23 4.23 0 0 1-.21-.717 9.227 9.227 0 0 1-.141-.846c-.033-.274-.055-.53-.066-.764-.01-.234.002-.47.04-.707.038-.236.113-.454.227-.651.114-.198.268-.358.462-.482.28-.178.87-.228 1.768-.152M353.764 490.284c-.017-.05-.09-.109-.222-.174a.947.947 0 0 0-.343-.107.43.43 0 0 0-.252.05.78.78 0 0 0-.222.226 1.54 1.54 0 0 0-.2.41 2.471 2.471 0 0 0-.111.533c-.02.192-.029.375-.029.55 0 .174.028.326.082.456a.936.936 0 0 0 .524.534c.125.053.283.093.473.12l.613.091a4.2 4.2 0 0 1 .622.14c.196.062.355.149.475.262.12.113.198.263.231.449a1.63 1.63 0 0 1-.027.634 1.745 1.745 0 0 1-.345.697 2.127 2.127 0 0 1-.662.56 2.083 2.083 0 0 1-.784.259c-.258.027-.473-.01-.643-.115-.248-.15-.373-.385-.376-.704M361.716 484.36a.957.957 0 0 0-.322-.087 9.368 9.368 0 0 0-.887-.037c-.448-.006-.82-.004-1.116.004-.296.008-.461.043-.497.104a.757.757 0 0 0-.076.275c-.016.122-.025.61-.028 1.462-.003.853.001 1.418.012 1.695.01.277.025.567.044.87.02.304.045.774.078 1.409.032.635.06 1.116.082 1.444a48.03 48.03 0 0 1 .112 2.694c.003.277.02.708.051 1.29.031.584.047 1.052.047 1.404 0 .353-.002.58-.008.68-.005.1-.018.198-.038.292-.02.094-.065.226-.133.397-.07.17-.08.265-.03.284.049.019.353.025.914.017.561-.007 1.072-.01 1.534-.01.714.001 1.297.024 1.75.067" style="fill:none;stroke:#fff;stroke-width:1.31104;stroke-linecap:round;stroke-linejoin:round;stroke-miterlimit:10;stroke-dasharray:none;stroke-opacity:1" transform="matrix(.72727 0 0 .72727 -160.551 -254.681)"/><path d="M368.429 499.022c.087.026.531.04 1.332.043.8.002 1.535.033 2.206.093M372.24 498.624c.01-.312.016-.643.017-.993a76.998 76.998 0 0 0-.054-2.71c-.02-.513-.033-.904-.041-1.17a18.054 18.054 0 0 0-.102-1.535 37.369 37.369 0 0 1-.077-.786 20.583 20.583 0 0 1-.056-.878 70.542 70.542 0 0 1-.059-1.956c-.008-.494-.01-1.555-.008-3.183M367.467 484.504l-.056-.007h.004l.11.003c.069.002.148.012.236.03.088.017.23.038.425.064.195.026.54.051 1.036.075.495.024.879.06 1.15.107.404.07.85.176 1.337.318" style="fill:none;stroke:#fff;stroke-width:1.49833;stroke-linecap:round;stroke-linejoin:round;stroke-miterlimit:10;stroke-dasharray:none;stroke-opacity:1" transform="matrix(.72727 0 0 .72727 -160.551 -254.681)"/><path d="M407.66 490.563c.114-.56.201-.968.262-1.224a47.15 47.15 0 0 1 .534-1.992c.101-.349.207-.737.316-1.165.11-.428.202-.844.276-1.246.075-.403.129-.767.161-1.09.033-.325.05-.595.05-.81.001-.215-.03-.362-.092-.442-.062-.08-.146-.097-.25-.053-.105.044-.227.18-.367.407-.139.228-.279.56-.419.994-.14.434-.26.96-.357 1.577a23.023 23.023 0 0 0-.22 2.058c-.05.755-.076 1.566-.077 2.434-.001.866.053 1.663.163 2.39.11.725.278 1.346.504 1.861.225.516.487.87.785 1.06.424.272 1.182-.036 2.273-.924M414.7 490.832a.684.684 0 0 0 .02-.375.575.575 0 0 0-.08-.204.55.55 0 0 0-.151-.14.654.654 0 0 0-.237-.093 1.743 1.743 0 0 0-.306-.03.753.753 0 0 0-.362.099 1.202 1.202 0 0 0-.38.35c-.126.164-.24.363-.343.595a4.347 4.347 0 0 0-.254.763 3.812 3.812 0 0 0-.105.825 2.54 2.54 0 0 0 .119.808c.084.266.198.502.342.709.145.207.316.358.513.453.197.095.424.128.681.1a1.63 1.63 0 0 0 .766-.313 3.04 3.04 0 0 0 .667-.652c.193-.254.346-.531.462-.83.115-.298.195-.604.24-.918.045-.314.07-.601.076-.862.005-.26-.013-.45-.053-.569-.04-.12-.097-.166-.169-.14-.072.027-.145.17-.218.429-.073.259-.124.57-.151.934-.028.364-.023.757.014 1.179a4.1 4.1 0 0 0 .266 1.16c.139.35.331.602.577.756.353.22.96.157 1.822-.188M420.421 490.124c-.073-.028-.16.006-.264.1-.07.065-.136.179-.198.343-.063.164-.107.37-.132.62-.024.25-.03.464-.018.643.013.18.075.42.188.722.112.302.253.57.422.807.169.235.353.411.553.528.2.116.405.171.616.164.211-.007.43-.098.656-.272a3.97 3.97 0 0 0 .653-.648c.21-.258.382-.525.517-.802.136-.277.225-.552.267-.825.041-.273.055-.5.04-.68-.015-.18-.062-.304-.143-.371a.272.272 0 0 0-.276-.05c-.103.034-.2.14-.29.318-.09.177-.152.418-.186.723a8.88 8.88 0 0 0-.042 1.1c.006.429.033.91.082 1.441.048.532.096 1.131.144 1.8.047.667.075 1.372.083 2.113.008.741.007 1.414-.004 2.017a32.772 32.772 0 0 1-.06 1.565 8.416 8.416 0 0 1-.329 1.864M427.458 492.095a.571.571 0 0 0 .227-.094 1.53 1.53 0 0 0 .45-.45c.084-.119.164-.259.241-.421.077-.162.136-.336.177-.521.04-.185.065-.368.072-.548a.691.691 0 0 0-.11-.44.832.832 0 0 0-.302-.261 1.14 1.14 0 0 0-.41-.114 1.403 1.403 0 0 0-.497.049c-.177.048-.361.164-.554.348a2.731 2.731 0 0 0-.528.75c-.16.316-.275.666-.346 1.05a4.876 4.876 0 0 0-.066 1.21c.028.424.122.83.282 1.22.16.39.356.71.587.962.23.253.482.42.753.503.271.083.567.067.887-.05.462-.168 1.083-.707 1.864-1.616M432.195 490.717c-.035.054-.024.192.033.412a8.799 8.799 0 0 1 .219 1.278 12 12 0 0 1 .053.89c.007.31.011.578.011.806 0 .227-.002.388-.008.481-.005.094-.03.132-.074.114-.044-.018-.104-.12-.182-.308a4.225 4.225 0 0 1-.21-.716 9.26 9.26 0 0 1-.142-.846c-.032-.275-.054-.53-.065-.764-.011-.235.002-.47.04-.707.037-.237.113-.454.226-.652.114-.198.268-.358.463-.482.28-.177.869-.228 1.768-.152M437.774 489.81c-.016-.052-.09-.11-.221-.174a.946.946 0 0 0-.344-.108.43.43 0 0 0-.251.051.779.779 0 0 0-.223.225 1.54 1.54 0 0 0-.2.411 2.471 2.471 0 0 0-.11.533c-.02.191-.03.374-.03.549 0 .174.028.327.083.456.055.13.124.238.208.325.085.087.19.157.315.21.126.052.284.092.474.12l.612.09c.219.033.426.08.623.141.196.061.354.148.475.261.12.113.198.263.23.45.034.185.025.397-.027.633a1.746 1.746 0 0 1-.344.697 2.126 2.126 0 0 1-.663.56 2.084 2.084 0 0 1-.783.26c-.259.027-.473-.012-.643-.115-.248-.151-.373-.386-.376-.705M445.726 483.886a.956.956 0 0 0-.322-.088 9.441 9.441 0 0 0-.887-.037 28.23 28.23 0 0 0-1.115.004c-.296.008-.462.043-.497.104a.755.755 0 0 0-.077.275c-.015.122-.024.61-.027 1.463-.003.853 0 1.417.011 1.694.01.277.026.568.045.871.019.304.045.773.077 1.408.033.635.06 1.117.083 1.444a49.56 49.56 0 0 1 .111 2.694c.003.277.02.708.052 1.291.03.584.047 1.051.047 1.404 0 .352-.002.579-.008.68-.006.1-.019.197-.039.291-.02.094-.064.227-.133.397s-.079.265-.03.284c.049.02.354.025.915.018.56-.007 1.072-.01 1.534-.01.714 0 1.297.023 1.749.067" style="fill:none;stroke:#fff;stroke-width:1.31104;stroke-linecap:round;stroke-linejoin:round;stroke-miterlimit:10;stroke-dasharray:none;stroke-opacity:1" transform="matrix(.72727 0 0 .72727 -160.353 -254.357)"/><path d="M452.44 498.547c.087.027.531.04 1.331.043.8.002 1.536.033 2.207.093M456.25 498.15c.01-.312.017-.643.018-.993a76.974 76.974 0 0 0-.054-2.71c-.02-.514-.034-.904-.041-1.171a18.225 18.225 0 0 0-.102-1.535 38.119 38.119 0 0 1-.077-.785 20.589 20.589 0 0 1-.057-.879 72.16 72.16 0 0 1-.058-1.956 234.96 234.96 0 0 1-.008-3.183M451.478 484.03l-.057-.007h.005c.004 0 .04 0 .11.003.068.002.147.011.235.029.088.017.23.039.425.064.195.026.54.051 1.036.075s.88.06 1.151.107c.403.07.849.177 1.337.318" style="fill:none;stroke:#fff;stroke-width:1.49833;stroke-linecap:round;stroke-linejoin:round;stroke-miterlimit:10;stroke-dasharray:none;stroke-opacity:1" transform="matrix(.72727 0 0 .72727 -160.353 -254.357)"/><path d="M365.45 488.679a9.932 9.932 0 0 0-.188 1.994c0 .244.004.506.013.785.009.28.03.574.06.883.032.309.05.62.056.934.006.314.003.54-.01.677-.018.195-.003.852.043 1.97" style="fill:none;stroke:#007aff;stroke-width:1.55905;stroke-linecap:round;stroke-linejoin:round;stroke-miterlimit:10;stroke-dasharray:none;stroke-opacity:1" transform="matrix(.72727 0 0 .72727 -160.551 -254.681)"/><path d="M448.058 488.784c-.1.059-.156.014-.169-.133a1.64 1.64 0 0 1 .036-.48c.036-.171.09-.316.16-.433.069-.117.15-.226.244-.327.093-.1.196-.192.31-.275.114-.082.2-.139.26-.169.059-.03.173-.064.342-.103.168-.038.304-.057.407-.058.103 0 .193.03.27.094a.914.914 0 0 1 .214.275c.065.12.123.335.174.642.05.307.077.634.08.98.004.347-.018.669-.064.966a7.507 7.507 0 0 1-.156.767 4.028 4.028 0 0 1-.23.636c-.095.209-.214.427-.357.653a11.93 11.93 0 0 1-.488.713 8.699 8.699 0 0 1-.571.698c-.198.217-.37.393-.517.528-.147.135-.297.251-.45.347-.154.096-.28.156-.379.182-.099.025-.144.013-.136-.037.008-.05.047-.112.117-.186.07-.075.159-.144.265-.208a.966.966 0 0 1 .365-.125c.137-.02.272-.015.405.013a.87.87 0 0 1 .388.205c.127.109.254.243.383.403.128.16.259.313.391.459.133.146.272.272.417.379.146.106.284.184.416.23.13.048.257.076.38.084a.676.676 0 0 0 .356-.076c.165-.084.498-.353.997-.807" style="fill:none;stroke:#007aff;stroke-width:1.55905;stroke-linecap:round;stroke-linejoin:round;stroke-miterlimit:10;stroke-dasharray:none;stroke-opacity:1" transform="matrix(.72727 0 0 .72727 -160.353 -254.357)"/></svg>