<svg viewBox="0.00 0.00 419.89 332.00" xmlns="http://www.w3.org/2000/svg" xmlns:xlink="http://www.w3.org/1999/xlink" width="558px" height="441px">
<g id="graph0" class="graph" transform="scale(1 1) rotate(0) translate(4 328)">
<polygon fill="white" stroke="transparent" points="-4,4 -4,-328 415.89,-328 415.89,4 -4,4"></polygon>
<g id="node1" class="node">
<title>inserter</title>
<ellipse fill="none" stroke="black" cx="212.09" cy="-90" rx="46.29" ry="18"></ellipse>
<text text-anchor="middle" x="212.09" y="-86.3" font-family="Times-Roman" font-size="14.00">inserter</text>
</g>
<g id="node2" class="node">
<title>logistic_science_pack</title>
<ellipse fill="none" stroke="black" cx="143.09" cy="-18" rx="106.68" ry="18"></ellipse>
<text text-anchor="middle" x="143.09" y="-14.3" font-family="Times-Roman" font-size="14.00">logistic_science_pack</text>
</g>
<g id="edge1" class="edge">
<title>inserter-&gt;logistic_science_pack</title>
<path fill="none" stroke="black" d="M196.09,-72.76C187.46,-64.01 176.64,-53.03 167.03,-43.28"></path>
<polygon fill="black" stroke="black" points="169.49,-40.79 159.97,-36.12 164.5,-45.7 169.49,-40.79"></polygon>
</g>
<g id="node3" class="node">
<title>transport_belt</title>
<ellipse fill="none" stroke="black" cx="74.09" cy="-90" rx="74.19" ry="18"></ellipse>
<text text-anchor="middle" x="74.09" y="-86.3" font-family="Times-Roman" font-size="14.00">transport_belt</text>
</g>
<g id="edge2" class="edge">
<title>transport_belt-&gt;logistic_science_pack</title>
<path fill="none" stroke="black" d="M90.45,-72.41C99,-63.73 109.63,-52.95 119.1,-43.34"></path>
<polygon fill="black" stroke="black" points="121.85,-45.54 126.38,-35.96 116.87,-40.62 121.85,-45.54"></polygon>
</g>
<g id="node4" class="node">
<title>electronic_circuit</title>
<ellipse fill="none" stroke="black" cx="326.09" cy="-162" rx="85.59" ry="18"></ellipse>
<text text-anchor="middle" x="326.09" y="-158.3" font-family="Times-Roman" font-size="14.00">electronic_circuit</text>
</g>
<g id="edge3" class="edge">
<title>electronic_circuit-&gt;inserter</title>
<path fill="none" stroke="black" d="M299.65,-144.76C283.19,-134.65 261.89,-121.57 244.42,-110.85"></path>
<polygon fill="black" stroke="black" points="246.03,-107.73 235.68,-105.48 242.37,-113.7 246.03,-107.73"></polygon>
</g>
<g id="node5" class="node">
<title>iron_gear_wheel</title>
<ellipse fill="none" stroke="black" cx="101.09" cy="-162" rx="83.39" ry="18"></ellipse>
<text text-anchor="middle" x="101.09" y="-158.3" font-family="Times-Roman" font-size="14.00">iron_gear_wheel</text>
</g>
<g id="edge4" class="edge">
<title>iron_gear_wheel-&gt;inserter</title>
<path fill="none" stroke="black" d="M126.84,-144.76C142.76,-134.72 163.33,-121.75 180.27,-111.07"></path>
<polygon fill="black" stroke="black" points="182.16,-114.01 188.76,-105.72 178.43,-108.09 182.16,-114.01"></polygon>
</g>
<g id="edge6" class="edge">
<title>iron_gear_wheel-&gt;transport_belt</title>
<path fill="none" stroke="black" d="M94.56,-144.05C91.52,-136.18 87.83,-126.62 84.43,-117.79"></path>
<polygon fill="black" stroke="black" points="87.62,-116.35 80.76,-108.28 81.09,-118.86 87.62,-116.35"></polygon>
</g>
<g id="node6" class="node">
<title>iron_plate</title>
<ellipse fill="none" stroke="black" cx="142.09" cy="-234" rx="54.69" ry="18"></ellipse>
<text text-anchor="middle" x="142.09" y="-230.3" font-family="Times-Roman" font-size="14.00">iron_plate</text>
</g>
<g id="edge5" class="edge">
<title>iron_plate-&gt;inserter</title>
<path fill="none" stroke="black" d="M162.1,-217.1C172.88,-207.48 185.49,-194.32 193.09,-180 203.32,-160.75 208.04,-136.41 210.22,-118.05"></path>
<polygon fill="black" stroke="black" points="213.71,-118.32 211.23,-108.01 206.75,-117.61 213.71,-118.32"></polygon>
</g>
<g id="edge7" class="edge">
<title>iron_plate-&gt;transport_belt</title>
<path fill="none" stroke="black" d="M91.67,-226.86C62.29,-220.4 27.51,-207.16 9.09,-180 0.11,-166.76 2.23,-158.45 9.09,-144 15.07,-131.42 25.65,-120.85 36.56,-112.53"></path>
<polygon fill="black" stroke="black" points="38.76,-115.26 44.9,-106.62 34.72,-109.55 38.76,-115.26"></polygon>
</g>
<g id="edge9" class="edge">
<title>iron_plate-&gt;electronic_circuit</title>
<path fill="none" stroke="black" d="M176.7,-219.83C205.01,-209.07 245.37,-193.71 277.01,-181.67"></path>
<polygon fill="black" stroke="black" points="278.43,-184.88 286.53,-178.05 275.94,-178.34 278.43,-184.88"></polygon>
</g>
<g id="edge11" class="edge">
<title>iron_plate-&gt;iron_gear_wheel</title>
<path fill="none" stroke="black" d="M132.17,-216.05C127.4,-207.92 121.59,-198 116.29,-188.94"></path>
<polygon fill="black" stroke="black" points="119.29,-187.14 111.21,-180.28 113.25,-190.67 119.29,-187.14"></polygon>
</g>
<g id="node7" class="node">
<title>copper_cable</title>
<ellipse fill="none" stroke="black" cx="326.09" cy="-234" rx="70.39" ry="18"></ellipse>
<text text-anchor="middle" x="326.09" y="-230.3" font-family="Times-Roman" font-size="14.00">copper_cable</text>
</g>
<g id="edge8" class="edge">
<title>copper_cable-&gt;electronic_circuit</title>
<path fill="none" stroke="black" d="M326.09,-215.7C326.09,-207.98 326.09,-198.71 326.09,-190.11"></path>
<polygon fill="black" stroke="black" points="329.59,-190.1 326.09,-180.1 322.59,-190.1 329.59,-190.1"></polygon>
</g>
<g id="node8" class="node">
<title>copper_plate</title>
<ellipse fill="none" stroke="black" cx="326.09" cy="-306" rx="68.79" ry="18"></ellipse>
<text text-anchor="middle" x="326.09" y="-302.3" font-family="Times-Roman" font-size="14.00">copper_plate</text>
</g>
<g id="edge10" class="edge">
<title>copper_plate-&gt;copper_cable</title>
<path fill="none" stroke="black" d="M326.09,-287.7C326.09,-279.98 326.09,-270.71 326.09,-262.11"></path>
<polygon fill="black" stroke="black" points="329.59,-262.1 326.09,-252.1 322.59,-262.1 329.59,-262.1"></polygon>
</g>
</g>
</svg>
