<svg viewBox="0.00 0.00 364.89 332.00" xmlns="http://www.w3.org/2000/svg" xmlns:xlink="http://www.w3.org/1999/xlink" width="485px" height="441px">
<g id="graph0" class="graph" transform="scale(1 1) rotate(0) translate(4 328)">
<polygon fill="white" stroke="transparent" points="-4,4 -4,-328 360.89,-328 360.89,4 -4,4"></polygon>
<g id="node1" class="node">
<title>copper_plate</title>
<ellipse fill="none" stroke="black" cx="68.89" cy="-306" rx="68.79" ry="18"></ellipse>
<text text-anchor="middle" x="68.89" y="-302.3" font-family="Times-Roman" font-size="14.00">copper_plate</text>
</g>
<g id="node5" class="node">
<title>copper_cable</title>
<polygon fill="none" stroke="black" points="122.89,-252 14.89,-252 14.89,-216 122.89,-216 122.89,-252"></polygon>
<text text-anchor="middle" x="68.89" y="-230.3" font-family="Times-Roman" font-size="14.00">copper_cable</text>
</g>
<g id="edge1" class="edge">
<title>copper_plate-&gt;copper_cable</title>
<path fill="none" stroke="black" d="M68.89,-287.83C68.89,-287.83 68.89,-262.41 68.89,-262.41"></path>
<polygon fill="black" stroke="black" points="72.39,-262.41 68.89,-252.41 65.39,-262.41 72.39,-262.41"></polygon>
</g>
<g id="node2" class="node">
<title>iron_plate</title>
<ellipse fill="none" stroke="black" cx="244.89" cy="-306" rx="54.69" ry="18"></ellipse>
<text text-anchor="middle" x="244.89" y="-302.3" font-family="Times-Roman" font-size="14.00">iron_plate</text>
</g>
<g id="node3" class="node">
<title>inserter</title>
<polygon fill="none" stroke="black" points="224.39,-108 153.39,-108 153.39,-72 224.39,-72 224.39,-108"></polygon>
<text text-anchor="middle" x="188.89" y="-86.3" font-family="Times-Roman" font-size="14.00">inserter</text>
</g>
<g id="edge6" class="edge">
<title>iron_plate-&gt;inserter</title>
<path fill="none" stroke="black" d="M203.6,-294.08C203.6,-294.08 203.6,-118 203.6,-118"></path>
<polygon fill="black" stroke="black" points="207.1,-118 203.6,-108 200.1,-118 207.1,-118"></polygon>
</g>
<g id="node4" class="node">
<title>transport_belt</title>
<polygon fill="none" stroke="black" points="356.89,-108 242.89,-108 242.89,-72 356.89,-72 356.89,-108"></polygon>
<text text-anchor="middle" x="299.89" y="-86.3" font-family="Times-Roman" font-size="14.00">transport_belt</text>
</g>
<g id="edge11" class="edge">
<title>iron_plate-&gt;transport_belt</title>
<path fill="none" stroke="black" d="M299.76,-306C325.62,-306 350.89,-306 350.89,-306 350.89,-306 350.89,-118.04 350.89,-118.04"></path>
<polygon fill="black" stroke="black" points="354.39,-118.04 350.89,-108.04 347.39,-118.04 354.39,-118.04"></polygon>
</g>
<g id="node6" class="node">
<title>electronic_circuit</title>
<polygon fill="none" stroke="black" points="160.89,-180 28.89,-180 28.89,-144 160.89,-144 160.89,-180"></polygon>
<text text-anchor="middle" x="94.89" y="-158.3" font-family="Times-Roman" font-size="14.00">electronic_circuit</text>
</g>
<g id="edge3" class="edge">
<title>iron_plate-&gt;electronic_circuit</title>
<path fill="none" stroke="black" d="M190.14,-306C168.79,-306 149.34,-306 149.34,-306 149.34,-306 149.34,-190.24 149.34,-190.24"></path>
<polygon fill="black" stroke="black" points="152.84,-190.24 149.34,-180.24 145.84,-190.24 152.84,-190.24"></polygon>
</g>
<g id="node7" class="node">
<title>iron_gear_wheel</title>
<polygon fill="none" stroke="black" points="344.89,-180 216.89,-180 216.89,-144 344.89,-144 344.89,-180"></polygon>
<text text-anchor="middle" x="280.89" y="-158.3" font-family="Times-Roman" font-size="14.00">iron_gear_wheel</text>
</g>
<g id="edge7" class="edge">
<title>iron_plate-&gt;iron_gear_wheel</title>
<path fill="none" stroke="black" d="M258.19,-288.34C258.19,-288.34 258.19,-190.26 258.19,-190.26"></path>
<polygon fill="black" stroke="black" points="261.69,-190.26 258.19,-180.26 254.69,-190.26 261.69,-190.26"></polygon>
</g>
<g id="node8" class="node">
<title>logistic_science_pack</title>
<polygon fill="none" stroke="black" points="325.89,-36 161.89,-36 161.89,0 325.89,0 325.89,-36"></polygon>
<text text-anchor="middle" x="243.89" y="-14.3" font-family="Times-Roman" font-size="14.00">logistic_science_pack</text>
</g>
<g id="edge8" class="edge">
<title>inserter-&gt;logistic_science_pack</title>
<path fill="none" stroke="black" d="M193.14,-71.83C193.14,-71.83 193.14,-46.41 193.14,-46.41"></path>
<polygon fill="black" stroke="black" points="196.64,-46.41 193.14,-36.41 189.64,-46.41 196.64,-46.41"></polygon>
</g>
<g id="edge9" class="edge">
<title>transport_belt-&gt;logistic_science_pack</title>
<path fill="none" stroke="black" d="M284.39,-71.83C284.39,-71.83 284.39,-46.41 284.39,-46.41"></path>
<polygon fill="black" stroke="black" points="287.89,-46.41 284.39,-36.41 280.89,-46.41 287.89,-46.41"></polygon>
</g>
<g id="edge2" class="edge">
<title>copper_cable-&gt;electronic_circuit</title>
<path fill="none" stroke="black" d="M75.89,-215.83C75.89,-215.83 75.89,-190.41 75.89,-190.41"></path>
<polygon fill="black" stroke="black" points="79.39,-190.41 75.89,-180.41 72.39,-190.41 79.39,-190.41"></polygon>
</g>
<g id="edge4" class="edge">
<title>electronic_circuit-&gt;inserter</title>
<path fill="none" stroke="black" d="M157.14,-143.83C157.14,-143.83 157.14,-118.41 157.14,-118.41"></path>
<polygon fill="black" stroke="black" points="160.64,-118.41 157.14,-108.41 153.64,-118.41 160.64,-118.41"></polygon>
</g>
<g id="edge5" class="edge">
<title>iron_gear_wheel-&gt;inserter</title>
<path fill="none" stroke="black" d="M220.64,-143.83C220.64,-143.83 220.64,-118.41 220.64,-118.41"></path>
<polygon fill="black" stroke="black" points="224.14,-118.41 220.64,-108.41 217.14,-118.41 224.14,-118.41"></polygon>
</g>
<g id="edge10" class="edge">
<title>iron_gear_wheel-&gt;transport_belt</title>
<path fill="none" stroke="black" d="M293.89,-143.83C293.89,-143.83 293.89,-118.41 293.89,-118.41"></path>
<polygon fill="black" stroke="black" points="297.39,-118.41 293.89,-108.41 290.39,-118.41 297.39,-118.41"></polygon>
</g>
</g>
</svg>
