<svg viewBox="0.00 0.00 426.29 332.00" xmlns="http://www.w3.org/2000/svg" xmlns:xlink="http://www.w3.org/1999/xlink" width="566px" height="441px">
<g id="graph0" class="graph" transform="scale(1 1) rotate(0) translate(4 328)">
<polygon fill="white" stroke="transparent" points="-4,4 -4,-328 422.29,-328 422.29,4 -4,4"></polygon>
<g id="node1" class="node">
<title>copper_plate</title>
<ellipse fill="none" stroke="black" cx="70.19" cy="-306" rx="68.79" ry="18"></ellipse>
<text text-anchor="middle" x="70.19" y="-302.3" font-family="Times-Roman" font-size="14.00">copper_plate</text>
</g>
<g id="node5" class="node">
<title>copper_cable</title>
<ellipse fill="none" stroke="black" cx="70.19" cy="-234" rx="70.39" ry="18"></ellipse>
<text text-anchor="middle" x="70.19" y="-230.3" font-family="Times-Roman" font-size="14.00">copper_cable</text>
</g>
<g id="edge1" class="edge">
<title>copper_plate-&gt;copper_cable</title>
<path fill="none" stroke="black" d="M70.19,-287.83C70.19,-287.83 70.19,-262.41 70.19,-262.41"></path>
<polygon fill="black" stroke="black" points="73.69,-262.41 70.19,-252.41 66.69,-262.41 73.69,-262.41"></polygon>
</g>
<g id="node2" class="node">
<title>iron_plate</title>
<ellipse fill="none" stroke="black" cx="264.19" cy="-306" rx="54.69" ry="18"></ellipse>
<text text-anchor="middle" x="264.19" y="-302.3" font-family="Times-Roman" font-size="14.00">iron_plate</text>
</g>
<g id="node3" class="node">
<title>inserter</title>
<ellipse fill="none" stroke="black" cx="206.19" cy="-90" rx="46.29" ry="18"></ellipse>
<text text-anchor="middle" x="206.19" y="-86.3" font-family="Times-Roman" font-size="14.00">inserter</text>
</g>
<g id="edge6" class="edge">
<title>iron_plate-&gt;inserter</title>
<path fill="none" stroke="black" d="M225.87,-293.14C225.87,-293.14 225.87,-116.54 225.87,-116.54"></path>
<polygon fill="black" stroke="black" points="229.37,-116.54 225.87,-106.54 222.37,-116.54 229.37,-116.54"></polygon>
</g>
<g id="node4" class="node">
<title>transport_belt</title>
<ellipse fill="none" stroke="black" cx="344.19" cy="-90" rx="74.19" ry="18"></ellipse>
<text text-anchor="middle" x="344.19" y="-86.3" font-family="Times-Roman" font-size="14.00">transport_belt</text>
</g>
<g id="edge11" class="edge">
<title>iron_plate-&gt;transport_belt</title>
<path fill="none" stroke="black" d="M319.07,-306C360.17,-306 409.34,-306 409.34,-306 409.34,-306 409.34,-108.73 409.34,-108.73"></path>
<polygon fill="black" stroke="black" points="412.84,-108.73 409.34,-98.73 405.84,-108.74 412.84,-108.73"></polygon>
</g>
<g id="node6" class="node">
<title>electronic_circuit</title>
<ellipse fill="none" stroke="black" cx="92.19" cy="-162" rx="85.59" ry="18"></ellipse>
<text text-anchor="middle" x="92.19" y="-158.3" font-family="Times-Roman" font-size="14.00">electronic_circuit</text>
</g>
<g id="edge3" class="edge">
<title>iron_plate-&gt;electronic_circuit</title>
<path fill="none" stroke="black" d="M217.73,-296.1C217.73,-263.57 217.73,-162 217.73,-162 217.73,-162 188.01,-162 188.01,-162"></path>
<polygon fill="black" stroke="black" points="188.01,-158.5 178.01,-162 188.01,-165.5 188.01,-158.5"></polygon>
</g>
<g id="node7" class="node">
<title>iron_gear_wheel</title>
<ellipse fill="none" stroke="black" cx="317.19" cy="-162" rx="83.39" ry="18"></ellipse>
<text text-anchor="middle" x="317.19" y="-158.3" font-family="Times-Roman" font-size="14.00">iron_gear_wheel</text>
</g>
<g id="edge7" class="edge">
<title>iron_plate-&gt;iron_gear_wheel</title>
<path fill="none" stroke="black" d="M276.4,-288.34C276.4,-288.34 276.4,-188.03 276.4,-188.03"></path>
<polygon fill="black" stroke="black" points="279.9,-188.03 276.4,-178.03 272.9,-188.03 279.9,-188.03"></polygon>
</g>
<g id="node8" class="node">
<title>logistic_science_pack</title>
<ellipse fill="none" stroke="black" cx="275.19" cy="-18" rx="106.68" ry="18"></ellipse>
<text text-anchor="middle" x="275.19" y="-14.3" font-family="Times-Roman" font-size="14.00">logistic_science_pack</text>
</g>
<g id="edge8" class="edge">
<title>inserter-&gt;logistic_science_pack</title>
<path fill="none" stroke="black" d="M210.47,-71.83C210.47,-71.83 210.47,-42.54 210.47,-42.54"></path>
<polygon fill="black" stroke="black" points="213.97,-42.54 210.47,-32.54 206.97,-42.54 213.97,-42.54"></polygon>
</g>
<g id="edge9" class="edge">
<title>transport_belt-&gt;logistic_science_pack</title>
<path fill="none" stroke="black" d="M325.94,-72.2C325.94,-72.2 325.94,-44.12 325.94,-44.12"></path>
<polygon fill="black" stroke="black" points="329.44,-44.12 325.94,-34.12 322.44,-44.12 329.44,-44.12"></polygon>
</g>
<g id="edge2" class="edge">
<title>copper_cable-&gt;electronic_circuit</title>
<path fill="none" stroke="black" d="M73.39,-215.83C73.39,-215.83 73.39,-189.91 73.39,-189.91"></path>
<polygon fill="black" stroke="black" points="76.89,-189.91 73.39,-179.91 69.89,-189.91 76.89,-189.91"></polygon>
</g>
<g id="edge4" class="edge">
<title>electronic_circuit-&gt;inserter</title>
<path fill="none" stroke="black" d="M169.02,-153.74C169.02,-153.74 169.02,-110.97 169.02,-110.97"></path>
<polygon fill="black" stroke="black" points="172.52,-110.97 169.02,-100.97 165.52,-110.97 172.52,-110.97"></polygon>
</g>
<g id="edge5" class="edge">
<title>iron_gear_wheel-&gt;inserter</title>
<path fill="none" stroke="black" d="M243.17,-153.74C243.17,-153.74 243.17,-110.97 243.17,-110.97"></path>
<polygon fill="black" stroke="black" points="246.67,-110.97 243.17,-100.97 239.67,-110.97 246.67,-110.97"></polygon>
</g>
<g id="edge10" class="edge">
<title>iron_gear_wheel-&gt;transport_belt</title>
<path fill="none" stroke="black" d="M335.24,-144.2C335.24,-144.2 335.24,-118.09 335.24,-118.09"></path>
<polygon fill="black" stroke="black" points="338.74,-118.09 335.24,-108.09 331.74,-118.09 338.74,-118.09"></polygon>
</g>
</g>
</svg>
