<svg viewBox="0.00 0.00 428.29 332.00" xmlns="http://www.w3.org/2000/svg" xmlns:xlink="http://www.w3.org/1999/xlink" width="569px" height="441px">
<g id="graph0" class="graph" transform="scale(1 1) rotate(0) translate(4 328)">
<polygon fill="white" stroke="transparent" points="-4,4 -4,-328 424.29,-328 424.29,4 -4,4"></polygon>
<g id="node1" class="node">
<title>copper_plate</title>
<ellipse fill="none" stroke="black" cx="70.19" cy="-306" rx="68.79" ry="18"></ellipse>
<text text-anchor="middle" x="70.19" y="-302.3" font-family="Times-Roman" font-size="14.00">copper_plate</text>
</g>
<g id="node8" class="node">
<title>copper_cable</title>
<ellipse fill="none" stroke="black" cx="70.19" cy="-234" rx="70.39" ry="18"></ellipse>
<text text-anchor="middle" x="70.19" y="-230.3" font-family="Times-Roman" font-size="14.00">copper_cable</text>
</g>
<g id="edge10" class="edge">
<title>copper_plate-&gt;copper_cable</title>
<path fill="none" stroke="black" d="M70.19,-287.83C70.19,-287.83 70.19,-262.41 70.19,-262.41"></path>
<polygon fill="black" stroke="black" points="73.69,-262.41 70.19,-252.41 66.69,-262.41 73.69,-262.41"></polygon>
</g>
<g id="node2" class="node">
<title>iron_plate</title>
<ellipse fill="none" stroke="black" cx="264.19" cy="-306" rx="54.69" ry="18"></ellipse>
<text text-anchor="middle" x="264.19" y="-302.3" font-family="Times-Roman" font-size="14.00">iron_plate</text>
</g>
<g id="node3" class="node">
<title>inserter</title>
<ellipse fill="none" stroke="black" cx="225.19" cy="-90" rx="46.29" ry="18"></ellipse>
<text text-anchor="middle" x="225.19" y="-86.3" font-family="Times-Roman" font-size="14.00">inserter</text>
</g>
<g id="edge5" class="edge">
<title>iron_plate-&gt;inserter</title>
<path fill="none" stroke="black" d="M221.8,-294.39C221.8,-294.39 221.8,-118.08 221.8,-118.08"></path>
<polygon fill="black" stroke="black" points="225.3,-118.08 221.8,-108.08 218.3,-118.08 225.3,-118.08"></polygon>
</g>
<g id="node5" class="node">
<title>transport_belt</title>
<ellipse fill="none" stroke="black" cx="346.19" cy="-162" rx="74.19" ry="18"></ellipse>
<text text-anchor="middle" x="346.19" y="-158.3" font-family="Times-Roman" font-size="14.00">transport_belt</text>
</g>
<g id="edge7" class="edge">
<title>iron_plate-&gt;transport_belt</title>
<path fill="none" stroke="black" d="M227.9,-292.42C227.9,-255.5 227.9,-156 227.9,-156 227.9,-156 266.01,-156 266.01,-156"></path>
<polygon fill="black" stroke="black" points="266.01,-159.5 276.01,-156 266.01,-152.5 266.01,-159.5"></polygon>
</g>
<g id="node6" class="node">
<title>electronic_circuit</title>
<ellipse fill="none" stroke="black" cx="92.19" cy="-162" rx="85.59" ry="18"></ellipse>
<text text-anchor="middle" x="92.19" y="-158.3" font-family="Times-Roman" font-size="14.00">electronic_circuit</text>
</g>
<g id="edge9" class="edge">
<title>iron_plate-&gt;electronic_circuit</title>
<path fill="none" stroke="black" d="M215.7,-297.37C215.7,-267.16 215.7,-168 215.7,-168 215.7,-168 183.2,-168 183.2,-168"></path>
<polygon fill="black" stroke="black" points="183.2,-164.5 173.2,-168 183.2,-171.5 183.2,-164.5"></polygon>
</g>
<g id="node7" class="node">
<title>iron_gear_wheel</title>
<ellipse fill="none" stroke="black" cx="317.19" cy="-234" rx="83.39" ry="18"></ellipse>
<text text-anchor="middle" x="317.19" y="-230.3" font-family="Times-Roman" font-size="14.00">iron_gear_wheel</text>
</g>
<g id="edge11" class="edge">
<title>iron_plate-&gt;iron_gear_wheel</title>
<path fill="none" stroke="black" d="M276.4,-288.2C276.4,-288.2 276.4,-260.12 276.4,-260.12"></path>
<polygon fill="black" stroke="black" points="279.9,-260.12 276.4,-250.12 272.9,-260.12 279.9,-260.12"></polygon>
</g>
<g id="node4" class="node">
<title>logistic_science_pack</title>
<ellipse fill="none" stroke="black" cx="262.19" cy="-18" rx="106.68" ry="18"></ellipse>
<text text-anchor="middle" x="262.19" y="-14.3" font-family="Times-Roman" font-size="14.00">logistic_science_pack</text>
</g>
<g id="edge1" class="edge">
<title>inserter-&gt;logistic_science_pack</title>
<path fill="none" stroke="black" d="M225.19,-71.83C225.19,-71.83 225.19,-44.93 225.19,-44.93"></path>
<polygon fill="black" stroke="black" points="228.69,-44.93 225.19,-34.93 221.69,-44.93 228.69,-44.93"></polygon>
</g>
<g id="edge2" class="edge">
<title>transport_belt-&gt;logistic_science_pack</title>
<path fill="none" stroke="black" d="M320.44,-144.92C320.44,-144.92 320.44,-43.31 320.44,-43.31"></path>
<polygon fill="black" stroke="black" points="323.94,-43.31 320.44,-33.31 316.94,-43.31 323.94,-43.31"></polygon>
</g>
<g id="edge3" class="edge">
<title>electronic_circuit-&gt;inserter</title>
<path fill="none" stroke="black" d="M166.79,-152.88C166.79,-133.51 166.79,-90 166.79,-90 166.79,-90 168.9,-90 168.9,-90"></path>
<polygon fill="black" stroke="black" points="168.9,-93.5 178.9,-90 168.89,-86.5 168.9,-93.5"></polygon>
</g>
<g id="edge4" class="edge">
<title>iron_gear_wheel-&gt;inserter</title>
<path fill="none" stroke="black" d="M252.67,-222.22C252.67,-222.22 252.67,-114.48 252.67,-114.48"></path>
<polygon fill="black" stroke="black" points="256.17,-114.48 252.67,-104.48 249.17,-114.48 256.17,-114.48"></polygon>
</g>
<g id="edge6" class="edge">
<title>iron_gear_wheel-&gt;transport_belt</title>
<path fill="none" stroke="black" d="M336.24,-216.2C336.24,-216.2 336.24,-189.84 336.24,-189.84"></path>
<polygon fill="black" stroke="black" points="339.74,-189.84 336.24,-179.84 332.74,-189.84 339.74,-189.84"></polygon>
</g>
<g id="edge8" class="edge">
<title>copper_cable-&gt;electronic_circuit</title>
<path fill="none" stroke="black" d="M73.39,-215.83C73.39,-215.83 73.39,-189.91 73.39,-189.91"></path>
<polygon fill="black" stroke="black" points="76.89,-189.91 73.39,-179.91 69.89,-189.91 76.89,-189.91"></polygon>
</g>
</g>
</svg>
