<svg xmlns="http://www.w3.org/2000/svg" width="257.886" height="170.979"><path d="M206.411 42.891c.058-.812.006-1.355-.156-1.628a1.697 1.697 0 00-.492-.513 2.462 2.462 0 00-.836-.354 6.02 6.02 0 00-1.224-.15c-.473-.016-.996.114-1.568.392-.572.277-1.134.73-1.686 1.358a8.238 8.238 0 00-1.373 2.212 8.512 8.512 0 00-.663 2.633 6.13 6.13 0 00.299 2.567c.278.803.68 1.475 1.204 2.016.525.542 1.128.896 1.808 1.06.681.166 1.374.166 2.079.001.704-.164 1.294-.437 1.77-.816.474-.379.963-1.01 1.464-1.893.502-.883.837-1.736 1.005-2.558a9.96 9.96 0 00.163-2.645c-.06-.94-.286-1.783-.675-2.527-.39-.745-.858-1.245-1.407-1.5-.55-.256-1.159-.292-1.829-.108-.67.184-1.297.6-1.88 1.246a8.155 8.155 0 00-1.405 2.156 9.066 9.066 0 00-.705 2.47 6.467 6.467 0 00.13 2.49c.203.804.539 1.432 1.007 1.883.467.45 1.004.712 1.61.786.606.073 1.24-.12 1.9-.582.662-.462 1.25-1.061 1.763-1.798.513-.737.935-1.534 1.264-2.39.33-.855.535-1.766.617-2.733.083-.966-.001-1.798-.251-2.496-.25-.697-.667-1.203-1.252-1.517-.584-.314-1.258-.462-2.022-.444-.764.018-1.499.276-2.203.774-.705.497-1.278 1.176-1.718 2.037a7.932 7.932 0 00-.831 2.633 6.078 6.078 0 00.21 2.578c.254.824.66 1.518 1.216 2.083.556.565 1.173.913 1.85 1.046a2.981 2.981 0 001.926-.241c.605-.294 1.12-.774 1.544-1.44.424-.666.706-1.434.845-2.303.14-.87.143-1.729.01-2.577-.132-.848-.407-1.57-.825-2.164-.418-.594-.924-.973-1.518-1.138-.595-.164-1.201-.034-1.82.39-.619.424-1.172 1.023-1.66 1.799a10.72 10.72 0 00-1.118 2.326 6.698 6.698 0 00-.351 2.33c.023.776.158 1.413.404 1.909.245.496.702.89 1.37 1.185.668.293 1.307.312 1.918.055.612-.257 1.16-.737 1.648-1.44a7.9 7.9 0 001.097-2.322 7.54 7.54 0 00.31-2.464c-.038-.797-.24-1.463-.608-1.996a2.454 2.454 0 00-1.507-1.027c-.637-.151-1.306-.06-2.006.274-.7.334-1.33.867-1.888 1.599-.559.732-.956 1.483-1.193 2.255a5.308 5.308 0 00-.181 2.351c.116.797.4 1.483.85 2.058.451.576.993.934 1.625 1.076.632.141 1.263.041 1.892-.3.629-.34 1.174-.854 1.635-1.538.461-.684.788-1.392.98-2.124.193-.733.25-1.436.172-2.11a3.856 3.856 0 00-.683-1.813 2.808 2.808 0 00-1.514-1.092 3.002 3.002 0 00-1.914.048c-.643.225-1.21.67-1.7 1.335-.491.666-.82 1.35-.988 2.051-.167.702-.165 1.353.008 1.954.172.6.48 1.043.923 1.326.443.283.956.356 1.538.218.583-.139 1.144-.47 1.684-.995a8.312 8.312 0 001.353-1.692 5.192 5.192 0 00.69-1.981c.099-.717.045-1.38-.163-1.99-.207-.61-.562-1.042-1.065-1.3-.502-.257-1.086-.304-1.752-.14-.665.162-1.262.56-1.789 1.19-.527.63-.89 1.296-1.09 1.995-.198.7-.217 1.375-.056 2.025.16.65.494 1.258 1 1.825.507.567.985.967 1.433 1.198.449.232 1.03.276 1.745.131.714-.144 1.264-.479 1.65-1.002.385-.524.63-1.1.732-1.726.103-.626.068-1.309-.104-2.049s-.459-1.373-.86-1.901c-.4-.528-.869-.833-1.405-.914-.537-.081-1.056.147-1.557.684-.501.537-.87 1.192-1.108 1.965-.238.773-.369 1.47-.392 2.093-.024.623.134 1.458.474 2.504.34 1.047.75 1.815 1.231 2.305.482.49.987.717 1.518.682.53-.035 1.002-.394 1.417-1.076.415-.682.685-1.517.81-2.507.126-.99.11-1.943-.044-2.858-.156-.916-.46-1.686-.915-2.309-.455-.623-.963-.994-1.525-1.112-.562-.117-1.112.045-1.65.487a5.585 5.585 0 00-1.35 1.651 5.79 5.79 0 00-.68 2.062c-.092.716-.08 1.48.036 2.292.115.812.316 1.447.6 1.906.285.458.623.707 1.015.745.392.039.8-.17 1.222-.628.422-.458.766-1.065 1.032-1.823a9 9 0 00.491-2.234c.061-.733-.002-1.394-.19-1.984a2.369 2.369 0 00-1.046-1.351c-.509-.31-1.159-.405-1.95-.283a4.22 4.22 0 00-2.144 1.008c-.638.55-1.1 1.121-1.386 1.714a3.834 3.834 0 00-.369 1.922c.04.689.238 1.336.59 1.943.353.607.799 1.066 1.337 1.379a2.695 2.695 0 001.696.367c.592-.067 1.144-.384 1.657-.95a6.545 6.545 0 001.225-1.98c.303-.755.483-1.477.541-2.167a4.964 4.964 0 00-.197-1.934 2.68 2.68 0 00-1.046-1.43c-.508-.353-1.091-.492-1.75-.415-.66.077-1.245.416-1.757 1.017a4.594 4.594 0 00-1.012 1.977 4.888 4.888 0 00.002 2.177c.165.736.402 1.367.71 1.895.31.527.76.964 1.35 1.31.59.347 1.135.405 1.635.174.5-.23.942-.718 1.326-1.461a8.334 8.334 0 00.8-2.41c.151-.862.185-1.746.103-2.65-.082-.904-.277-1.663-.587-2.278-.309-.615-.716-1.008-1.22-1.181-.505-.172-1.052-.016-1.64.47-.588.487-1.055 1.141-1.4 1.965a6.191 6.191 0 00-.508 2.46 4.43 4.43 0 00.64 2.277c.42.702.91 1.204 1.468 1.505.559.3 1.114.386 1.667.256.553-.13 1.017-.464 1.393-1.002a4.151 4.151 0 00.714-1.734 6.03 6.03 0 00-.035-1.996 6.28 6.28 0 00-.642-1.919c-.305-.567-.64-.938-1.007-1.113-.366-.175-.766-.09-1.2.255-.436.345-.793.877-1.073 1.596a5.184 5.184 0 00-.37 2.151c.035.715.225 1.373.57 1.975.346.602.753 1.017 1.22 1.245.467.228.923.228 1.368 0 .445-.227.787-.636 1.027-1.225.24-.589.37-1.196.387-1.82a3.548 3.548 0 00-.369-1.723c-.263-.522-.586-.925-.97-1.208-.382-.283-.764-.362-1.145-.237-.38.124-.684.47-.911 1.034-.227.565-.37 1.222-.427 1.969a6.768 6.768 0 00.138 2.072c.148.633.37 1.086.662 1.36.293.273.622.343.987.21.365-.134.688-.486.97-1.058.281-.572.456-1.104.526-1.594.069-.49.045-1.081-.073-1.773-.119-.692-.316-1.254-.593-1.687-.276-.433-.565-.696-.866-.787-.3-.091-.578.064-.831.467-.254.403-.414.925-.48 1.566a5.77 5.77 0 00.11 1.885c.139.616.348 1.15.627 1.602.279.453.561.748.847.884.286.137.545.082.776-.163.23-.245.407-.66.529-1.243a8.4 8.4 0 00.169-1.842c-.01-.644-.101-1.212-.277-1.703-.175-.492-.37-.852-.583-1.083-.213-.23-.431-.305-.655-.223-.224.082-.434.35-.63.805a5.31 5.31 0 00-.39 1.537c-.062.57-.04 1.1.065 1.59.106.49.3.832.584 1.028.284.196.594.22.93.072.336-.149.61-.45.825-.906.215-.455.347-.922.396-1.4.05-.479.01-.91-.118-1.291-.128-.383-.3-.666-.515-.851-.215-.185-.432-.28-.649-.285-.217-.005-.424.135-.62.421a2.919 2.919 0 00-.427 1.058c-.089.42-.134.818-.136 1.196-.003.377.072.673.225.886.153.213.342.33.568.35.226.022.451-.117.676-.415a3.6 3.6 0 00.539-1.08c.134-.421.215-.827.241-1.218.027-.392-.01-.722-.111-.992s-.254-.44-.46-.508c-.206-.07-.403.015-.592.252-.188.238-.323.553-.404.947-.082.394-.13.953-.147 1.677-.016.724.083 1.364.299 1.918.215.555.463.934.743 1.136.28.202.549.237.807.102.258-.133.453-.427.584-.88.131-.452.203-.925.216-1.418a3.322 3.322 0 00-.22-1.337 3.738 3.738 0 00-.545-.972c-.203-.25-.375-.408-.516-.475-.14-.067-.27.012-.387.236-.118.224-.196.553-.236.987-.04.435-.044.859-.014 1.272.03.414.124.715.28.903.156.188.347.194.573.018.226-.176.43-.476.613-.9a6.21 6.21 0 00.365-1.044c.06-.273.023-.37-.112-.291-.135.078-.237.212-.305.4-.092.256-.01.35.245.28" fill="none" stroke="#7ec636" stroke-width="1.32290413" stroke-linecap="round" stroke-linejoin="round" stroke-miterlimit="10"/><path d="M144.672 17.726c18.245 20.902 18.105 41.616-.422 62.14M130.014 47.958c.16.043.28-.028.362-.213.056-.13.044-.285-.036-.468a1.178 1.178 0 00-.356-.457 3.377 3.377 0 00-.507-.329 1.799 1.799 0 00-1.176-.177c-.201.038-.407.165-.616.378-.21.214-.397.489-.565.825a3.406 3.406 0 00-.328 1.046c-.05.362-.07.729-.055 1.1.015.372.111.72.288 1.043.178.324.387.575.626.754a1.657 1.657 0 001.532.265c.257-.08.482-.277.675-.592.194-.316.331-.678.413-1.087.082-.409.13-.808.145-1.198.015-.39-.047-.717-.185-.979a1.389 1.389 0 00-.532-.579c-.216-.124-.44-.199-.67-.226a1.217 1.217 0 00-.6.06c-.17.068-.304.21-.405.427-.101.216-.167.503-.199.86a8.493 8.493 0 00-.02 1.134c.019.398.108.774.27 1.129.161.354.355.626.582.814.227.189.452.296.677.322.225.026.43-.092.614-.354.183-.263.316-.628.396-1.094.081-.467.13-.954.144-1.463a5.205 5.205 0 00-.112-1.33c-.089-.379-.218-.65-.388-.814a.988.988 0 00-.646-.27c-.26-.017-.544.072-.85.267a3.7 3.7 0 00-.736.593c-.185.2-.329.469-.431.803-.103.335-.131.648-.085.94.045.29.165.555.359.794.194.24.415.406.665.5.25.094.488.132.715.113.228-.02.43-.134.607-.346a2.3 2.3 0 00.419-.82c.101-.334.16-.672.177-1.014.017-.342-.016-.627-.098-.856a.723.723 0 00-.439-.462 1.212 1.212 0 00-.673-.046c-.238.048-.453.21-.645.488-.191.277-.317.622-.378 1.033-.06.412-.058.812.005 1.203.063.39.206.699.43.927.223.228.461.363.714.407.252.044.492-.04.72-.252.227-.211.409-.523.543-.935.135-.412.216-.835.245-1.269.028-.433-.03-.818-.176-1.154a1.346 1.346 0 00-.71-.722 1.735 1.735 0 00-1.004-.135c-.341.055-.636.236-.885.541-.25.306-.405.68-.464 1.122-.06.443-.061.858-.004 1.245.056.387.171.698.345.931.173.234.362.38.567.438a.87.87 0 00.612-.051c.203-.092.405-.317.606-.675a5 5 0 00.48-1.272c.12-.49.188-.955.206-1.395.019-.44-.024-.787-.127-1.04-.103-.254-.265-.408-.484-.46-.22-.053-.47.047-.75.3s-.514.598-.703 1.035a4.4 4.4 0 00-.345 1.402c-.04.498-.01.933.092 1.305.101.371.265.628.493.769.227.14.46.197.698.17.238-.026.442-.16.612-.4.17-.241.296-.534.378-.879.08-.345.125-.699.133-1.063.009-.364-.043-.654-.154-.872-.111-.218-.25-.355-.415-.411-.166-.057-.327-.008-.483.147a1.52 1.52 0 00-.362.622c-.085.26-.142.606-.172 1.038-.03.431-.029.766.003 1.004.032.239.105.405.22.499a.483.483 0 00.357.124c.124-.012.234-.137.33-.377.096-.239.166-.53.21-.875.045-.345.074-.713.088-1.104.013-.392-.015-.582-.086-.571-.07.01-.144.12-.22.331-.076.211-.126.539-.15.984-.026.445-.02.704.015.777.035.073.079.062.13-.034.053-.096.101-.324.147-.682l.08-.627c.007-.06.023-.086.048-.079l.48.136" fill="none" stroke="#000" stroke-width="1.32290413" stroke-linecap="round" stroke-linejoin="round" stroke-miterlimit="10"/><path d="M153.165 107.995c.141-.336.321-.934.539-1.793.217-.86.417-1.638.598-2.334.181-.697.379-1.334.593-1.913.214-.58.45-1.09.708-1.533.258-.443.512-.82.762-1.129.25-.31.494-.525.735-.648.24-.122.492-.168.754-.138.263.03.553.175.872.437.32.262.649.567.988.914.34.347.684.737 1.032 1.17.348.433.682.888 1.003 1.364.481.713.98 1.433 1.495 2.16" fill="none" stroke="#fff" stroke-width="1.32290413" stroke-linecap="round" stroke-linejoin="round" stroke-miterlimit="10"/><path d="M158.187 103.662c.144.689.263 1.347.356 1.974.063.42.116.897.159 1.429.042.532.066 1.504.07 2.916.008 2.23.027 3.896.057 4.998M152.657 126.199c.416 1.201.73 2.092.942 2.672.146.398.258.722.335.971.077.25.139.52.185.811.047.291.046.4-.003.327l-.363-.55c-.193-.295-.39-.73-.592-1.308a23.47 23.47 0 01-.53-1.729c-.151-.575-.26-1.1-.324-1.577-.064-.477-.1-.883-.106-1.217a4.906 4.906 0 01.031-.77.626.626 0 01.242-.424c.135-.102.348-.175.642-.22a9.893 9.893 0 011.019-.094c.562-.026 1.415-.021 2.558.015M162.026 124.208c-.05.149.027.219.23.21a.485.485 0 00.349-.145c.085-.09.162-.218.233-.381.071-.163.123-.416.154-.758s-.006-.573-.11-.694c-.106-.12-.337-.21-.695-.268-.357-.058-.639-.056-.844.004-.205.062-.412.21-.622.447-.21.237-.384.56-.523.967-.14.407-.224.893-.253 1.458a4.963 4.963 0 00.246 1.76 5.84 5.84 0 00.802 1.632c.342.48.701.831 1.077 1.054.377.221.73.305 1.06.251.472-.077.874-.76 1.206-2.047M166.67 119.028l.018-1.241v.027l-.022.75c-.012.401 0 .892.034 1.472s.116 1.563.243 2.946c.128 1.383.231 2.382.308 2.998.118.933.317 1.754.598 2.463" fill="none" stroke="#fff" stroke-width="1.32290413" stroke-linecap="round" stroke-linejoin="round" stroke-miterlimit="10"/><path d="M165.008 123.553a5.303 5.303 0 011.697-.564c.597-.095 1.602-.22 3.017-.375M172.235 122.893c.043.373.142.833.298 1.38.228.803.439 1.902.633 3.3M173.425 118.867l-.63-.07M176.37 121.218c-.255-.118-.397-.107-.425.032-.02.1-.006.247.043.444.05.197.209.682.477 1.456.27.775.526 1.53.77 2.268.246.738.394 1.142.447 1.212.052.07.097-.104.133-.525.037-.42.055-.884.056-1.394 0-.51.038-1.027.114-1.553.076-.525.191-1 .347-1.422.155-.423.3-.732.434-.927.134-.196.24-.3.315-.313.076-.014.194.332.354 1.036.16.705.316 1.284.465 1.74.15.455.32.901.508 1.338.19.436.378.791.564 1.064.187.273.377.42.57.442.274.03.637-.66 1.09-2.068M186.866 120.472a1.785 1.785 0 00-.169-.665 1.476 1.476 0 00-.265-.376 1.227 1.227 0 00-.404-.278c-.157-.068-.392-.114-.704-.137-.313-.023-.532.052-.658.227-.126.174-.23.438-.312.79a7.039 7.039 0 00-.157 1.233c-.023.468-.014.956.026 1.465.04.508.16.993.36 1.456.2.463.432.84.696 1.13.263.291.555.475.876.554.32.078.633.01.936-.206.304-.215.568-.55.795-1.005.226-.454.437-.973.634-1.557.197-.583.372-1.13.525-1.643.153-.512.262-.857.326-1.033l.117-.319c.013-.037.021-.02.024.051l.024.614c.013.338.044.707.093 1.107.05.4.172.75.366 1.05.194.298.447.526.76.681.447.224 1.235.032 2.364-.575M227.696 12.452c-.03-.157-.139-.24-.327-.25-.188-.01-.373.059-.554.208-.18.148-.726.828-1.637 2.04-1.325 1.763-3.328 4.51-6.006 8.241M214.542 22.461l.06-.161a.937.937 0 01-.01.124l-.117 1.193c-.07.707-.111 1.3-.124 1.782-.012.481-.009.914.011 1.298.02.383.122.67.305.862.183.191.451.307.805.347.508.058 1.628-.235 3.359-.88M233.496 17.04c-.034.399.015.752.147 1.06.09.208.138.292.145.251l.054-.302c.03-.16.04-.458.034-.891-.007-.434-.156-1.33-.447-2.686-.292-1.356-.53-2.473-.716-3.35a61.899 61.899 0 01-.462-2.388c-.122-.715-.2-1.392-.234-2.03a29.522 29.522 0 01-.045-1.722c.003-.51.054-.941.153-1.294.1-.352.23-.65.393-.895s.34-.425.53-.54c.191-.114.401-.18.63-.2.23-.018.468.055.713.221.245.166.485.425.72.777.338.507.707 1.697 1.106 3.57" fill="none" stroke="#fff" stroke-width="1.32290413" stroke-linecap="round" stroke-linejoin="round" stroke-miterlimit="10"/><path d="M230.744 10.33c.196.191.463.293.8.306.486.018 1.636-.223 3.45-.724M240.697 8.487c.1-.363.129-.644.088-.841a1.156 1.156 0 00-.172-.401.928.928 0 00-.342-.312 1.283 1.283 0 00-.516-.137 1.253 1.253 0 00-.607.112c-.202.09-.387.244-.554.463-.166.219-.29.524-.368.916-.08.392-.12.842-.121 1.348a4.581 4.581 0 00.26 1.517c.173.505.395.908.664 1.21.27.303.568.49.896.562.328.072.626-.045.896-.353.27-.307.474-.73.613-1.271.138-.54.22-1.168.242-1.884.022-.716-.002-1.205-.073-1.469M246.864 7.55c-.182-.032-.434-.19-.756-.476a2.238 2.238 0 00-.524-.37 1.636 1.636 0 00-.437-.13.638.638 0 00-.45.122c-.155.102-.3.302-.433.598a4.077 4.077 0 00-.295 1.056 9.957 9.957 0 00-.103 1.384 4.23 4.23 0 00.24 1.48c.168.471.41.849.726 1.133.316.284.675.454 1.076.51.402.057.78-.05 1.134-.324.355-.273.627-.675.817-1.206.19-.53.301-1.077.333-1.64a5.926 5.926 0 00-.082-1.494c-.087-.434-.187-.767-.3-.999-.112-.232-.28-.321-.503-.268M252.868 7.545c.144-.377.099-.624-.137-.738-.166-.081-.419-.113-.759-.097-.34.017-.586.083-.738.198-.153.115-.331.342-.535.681-.205.34-.331.698-.38 1.075-.048.377-.047.741.005 1.092.05.351.177.639.378.863.2.223.434.357.699.4.265.044.554-.03.867-.22.312-.191.617-.512.913-.964.296-.453.57-.963.824-1.533.253-.57.48-1.221.68-1.955.2-.735.372-1.474.519-2.219.147-.744.255-1.387.326-1.93.07-.541.113-.94.126-1.197.014-.257-.027-.37-.123-.34-.096.03-.229.245-.4.647-.17.401-.303.95-.397 1.647-.095.696-.14 1.4-.134 2.113a8.75 8.75 0 00.238 2.014c.154.63.347 1.21.58 1.74.34.777.941 1.259 1.805 1.447" fill="none" stroke="#fff" stroke-width="1.32290413" stroke-linecap="round" stroke-linejoin="round" stroke-miterlimit="10"/><path d="M131.569 46.198c.745-.345 1.22-.594 1.423-.747M136.831 43.735l.653-.325M142.26 40.848l.158-.14M145.1 38.895l.323-.12M148.965 37.242l.674-.28M152.364 35.334l.439-.304M155.364 33.956l.4-.465M159.37 31.684c-.153-.011-.233.067-.238.236M164.191 29.396h.022M168.243 27.603l.022-.19M172.482 24.506l.372-.374M176.9 22.2c-.088-.106-.043-.155.135-.15M182.28 18.623a.396.396 0 01.336-.246M186.474 16.121c-.078-.086-.001-.155.23-.207M191.216 13.248c.142-.08.175-.14.099-.18-.055-.028-.063-.035-.024-.02l.52.2M197.045 10.512l.324-.444M201.766 7.776c-.044-.19.054-.304.295-.34M207.15 5.517a1.54 1.54 0 01.536-.727.904.904 0 01.799-.143M130.427 51.187l.466.28M135.296 53.26c.007-.008.014-.015.022-.021M135.504 53.169l.56.604M139.814 55.866l.301.21M143.98 58.009l.675.465M150.012 60.197l.675.398M155.227 62.668l.58.255M159.186 64.581c-.06-.249-.153-.382-.28-.4-.127-.019-.177.29-.15.924M163.982 66.124c.28-.123.598-.055.951.204M170.217 68.424c.2.25.481.465.842.644M175.15 71.349c.184-.06.353.026.507.256M180.86 74.075l.608.325M187.665 76.432a.851.851 0 01.649.127M193.13 79.9c.312-.013.493-.004.544.026M199.743 82.855l.84.395M206.871 85.483l.252.025M212.804 89.348l.235-.28" fill="none" stroke="#000" stroke-width="1.32290413" stroke-linecap="round" stroke-linejoin="round" stroke-miterlimit="10"/><path d="M155.52 34.757c.38.451.654.828.823 1.129.115.206.221.358.316.456.096.098.179.264.248.498.07.234.17.533.3.897.132.364.225.76.282 1.188.056.427.127.838.213 1.233.086.394.137.881.154 1.461.016.58.047.987.093 1.22.045.235.07.548.071.941.002.393.025.745.07 1.057.043.312.108.682.193 1.11.085.428.143.888.176 1.378.033.491.05 1.35.05 2.575.001 1.226-.01 1.968-.033 2.225-.023.257-.076.56-.161.91s-.159.753-.22 1.207c-.063.455-.098.79-.107 1.005a9.637 9.637 0 01-.14 1.073c-.084.5-.193 1-.324 1.5-.132.5-.225.863-.28 1.09-.055.228-.154.48-.299.76-.144.278-.35.627-.619 1.046l-.56.876M131.28 47.347c.069.529.104 1.11.105 1.744.002.634-.11 1.01-.332 1.128" fill="none" stroke="#7ec636" stroke-width="1.32290413" stroke-linecap="round" stroke-linejoin="round" stroke-miterlimit="10"/><path d="M112.663 48.505a8.438 8.438 0 011.65.115c.557.093 1.037.205 1.44.335.402.13.803.287 1.2.47.399.185.718.383.957.595.239.211.388.437.447.678.06.241.013.498-.14.77-.22.39-.87 1.2-1.95 2.43M114.337 51.735c-.359.027-.788.12-1.287.279-.5.159-.969.302-1.41.428-.44.127-.964.252-1.574.375-.609.123-1.305.232-2.088.327-.783.095-1.63.171-2.539.228-.909.057-1.78.092-2.615.105a62.3 62.3 0 01-3.976-.074M.8 52.984c-.026.58-.018 1.568.023 2.964.04 1.397.067 2.371.08 2.924.021.85.094 1.556.219 2.116M.81 52.728c-.093-.112-.142-.354-.148-.726a1.46 1.46 0 01.116-.628c.082-.182.2-.334.355-.455.154-.121.337-.21.549-.265.212-.055.457-.089.734-.1.278-.011.589.042.932.16.343.118.674.287.992.507.318.22.574.477.769.771.195.294.321.644.379 1.049a3.39 3.39 0 01-.068 1.265 4.012 4.012 0 01-.523 1.238c-.363.573-.867 1.091-1.51 1.555M8.334 48.753c-.017-.235-.03-.348-.04-.337l-.054.055c-.03.03-.045.451-.047 1.266-.002.814.016 1.458.055 1.93.038.471.087.957.144 1.456.058.5.109.965.153 1.396.045.431.088.775.131 1.03.043.256.093.434.15.534.056.1.102.007.138-.28a5.704 5.704 0 01.524-1.798c.155-.33.322-.62.5-.87.179-.25.337-.426.474-.527.137-.101.251-.152.342-.151.09 0 .195.22.314.658.119.438.261.955.427 1.551.165.596.29.981.376 1.156.086.175.174.294.264.356.129.087.415-.148.859-.707M16.484 52.592c.235-.169.393-.327.476-.475.057-.1.079-.243.066-.426-.012-.183-.066-.309-.16-.377a.826.826 0 00-.362-.138 1.981 1.981 0 00-.504-.007 1.2 1.2 0 00-.582.245 2.214 2.214 0 00-.531.564 2.744 2.744 0 00-.363.84 6.009 6.009 0 00-.167 1.18c-.026.458-.015.9.031 1.327.046.427.167.78.363 1.057a1.4 1.4 0 00.74.554c.299.093.604.105.916.039.312-.067.596-.24.852-.52.255-.278.458-.638.608-1.08.15-.442.246-.906.288-1.391.042-.486.032-.89-.029-1.21-.088-.463-.348-.715-.778-.757M22.397 46.556a29 29 0 00.078 2.68c.035.47.06.981.073 1.536.02.792-.018 3.23-.113 7.315" fill="none" stroke="#fff" stroke-width="1.32290413" stroke-linecap="round" stroke-linejoin="round" stroke-miterlimit="10"/><path d="M20.105 51.515c.055.135.314.202.776.202.463 0 .885-.047 1.266-.14.555-.136 1.43-.271 2.627-.406M28.569 53.256c.125-.109.189-.27.193-.482a1.08 1.08 0 00-.052-.374.51.51 0 00-.177-.25.67.67 0 00-.312-.116 1.302 1.302 0 00-.464.038 1.882 1.882 0 00-.586.266 3.17 3.17 0 00-.59.5 2.665 2.665 0 00-.451.655c-.116.239-.199.617-.25 1.137-.05.52-.014.985.107 1.397.12.411.32.763.6 1.054.278.292.592.506.94.644.35.138.694.181 1.034.13.34-.052.634-.244.88-.575.248-.331.422-.767.522-1.307.1-.54.158-1.077.173-1.61a5.646 5.646 0 00-.392-2.27M33.2 53.058l.111-.394c.008-.026.016-.012.024.044l.068.455c.037.247.19.924.457 2.03.267 1.107.423 1.738.469 1.893l.076.259c.005.016.002-.01-.008-.08l-.15-1.086a21.268 21.268 0 01-.179-1.723 27.794 27.794 0 01-.045-1.348c-.003-.404.025-.702.084-.896.058-.193.145-.316.26-.368.115-.052.276-.072.484-.061.208.011.447.037.718.076.393.058 1.07.107 2.033.148M41.941 53.92c.121.038.26-.002.416-.12.105-.077.207-.183.304-.317.098-.134.174-.254.227-.36.053-.106.1-.264.138-.476.039-.212.06-.394.064-.546a.632.632 0 00-.1-.382.918.918 0 00-.296-.267 1.75 1.75 0 00-.448-.182 2.756 2.756 0 00-.568-.083c-.208-.01-.423.055-.645.195-.223.14-.41.357-.564.65-.153.291-.27.645-.35 1.062-.081.416-.115.865-.1 1.348.013.484.111.916.293 1.296.183.38.413.682.692.906.278.224.593.363.943.417.503.078 1.36-.21 2.568-.864M48.972 51.736c.084-.06.114-.138.09-.231-.016-.065-.076-.122-.18-.172a1.357 1.357 0 00-.409-.106 4.401 4.401 0 00-.597-.028c-.23.003-.47.05-.721.144a1.781 1.781 0 00-.661.432c-.19.194-.33.459-.419.795-.09.336-.136.744-.14 1.224-.003.48.09.956.28 1.429.191.472.465.871.822 1.196.356.326.754.54 1.192.644.632.15 1.492-.193 2.581-1.026M54.767 53.883c.238-.163.46-.35.665-.564.137-.143.261-.3.373-.472.11-.172.194-.338.249-.498.054-.16.087-.298.098-.417.01-.12-.1-.288-.332-.507a3.219 3.219 0 00-.597-.467 1.793 1.793 0 00-.511-.195 1.192 1.192 0 00-.55.021c-.192.05-.379.187-.561.41-.182.224-.329.524-.439.9-.11.377-.175.822-.192 1.334-.018.512.038.992.167 1.44.13.45.331.81.606 1.084.275.274.587.463.936.566.503.149 1.398-.08 2.687-.687M60.657 52.621a5.78 5.78 0 00-.055.823c0 .295.049.953.147 1.976.098 1.022.182 1.842.253 2.46.07.619.159 1.128.263 1.527.105.4.28.694.526.883" fill="none" stroke="#fff" stroke-width="1.32290413" stroke-linecap="round" stroke-linejoin="round" stroke-miterlimit="10"/><path d="M60.154 52.942a5.478 5.478 0 01-.203-1.576c.01-.332.047-.572.114-.722.066-.15.193-.31.38-.484.185-.172.391-.276.616-.31a1.83 1.83 0 01.772.075c.29.083.582.21.878.383.296.172.587.356.873.553.286.198.53.41.734.636.203.227.34.48.408.758.07.279.077.593.024.942-.054.349-.195.685-.423 1.009a2.846 2.846 0 01-.793.772c-.448.285-.886.39-1.314.313M67.93 45.574c-.013.791-.006 1.494.018 2.11.017.415.075 1.17.173 2.266a56.86 56.86 0 01.189 2.646c.04.985.054 2.186.041 3.602" fill="none" stroke="#fff" stroke-width="1.32290413" stroke-linecap="round" stroke-linejoin="round" stroke-miterlimit="10"/><path d="M65.272 50.007l-.109.074c-.01.007.017.008.08.003l.389-.03c.196-.016.496-.065.899-.15.403-.083.864-.148 1.384-.194a9.443 9.443 0 011.488-.02c.69.048 1.608.227 2.756.536M75.92 52.001a.895.895 0 00-.03-.407c-.028-.073-.139-.157-.334-.25a4.635 4.635 0 00-.507-.215 2.36 2.36 0 00-.464-.105 2.175 2.175 0 00-.52-.001c-.18.02-.374.118-.583.294-.21.176-.406.418-.59.724a3.392 3.392 0 00-.401 1.078 6.395 6.395 0 00-.123 1.302c.002.455.087.866.257 1.233.17.367.394.661.672.884.28.222.598.358.959.407.36.05.716-.006 1.067-.164.352-.159.649-.42.89-.784.242-.365.416-.783.522-1.255a8.02 8.02 0 00.193-1.304c.033-.584-.146-1.138-.537-1.662M80.365 52.24l-.037-.322c-.001-.01.004 0 .013.031l.175.538c.107.329.211.714.313 1.157.101.443.206.888.315 1.336.11.447.21.821.303 1.122.093.3.158.492.194.575l.07.16c.01.023.013.006.008-.052l-.032-.39c-.016-.203-.105-.555-.266-1.056a28.93 28.93 0 01-.404-1.359 8.36 8.36 0 01-.22-1.035 5.058 5.058 0 01-.054-.66c.001-.154.075-.271.221-.351.147-.08.35-.146.611-.198.261-.053.552-.092.872-.118.32-.027.66-.069 1.018-.126.532-.085 1.138-.23 1.818-.433M89.282 51.406a.344.344 0 00.254-.301c.024-.156.033-.282.026-.377-.006-.096-.06-.162-.164-.2-.103-.037-.242-.036-.417.005-.174.04-.349.155-.524.344-.176.188-.32.412-.436.67-.115.259-.2.532-.255.82a4.686 4.686 0 00-.091.735c-.006.203.016.356.064.458.048.102.14.172.276.209.136.037.316.057.541.061.226.004.478-.008.757-.034.28-.027.572-.009.878.054.306.063.576.22.808.472.232.251.386.553.463.904.078.352.082.69.014 1.014a1.362 1.362 0 01-.497.805c-.378.303-.95.256-1.719-.14" fill="none" stroke="#fff" stroke-width="1.32290413" stroke-linecap="round" stroke-linejoin="round" stroke-miterlimit="10"/><path d="M137.93 27.612c.02.954.03 2.401.03 4.341v2.163M146.03 45.286c-.126-.049-.194-.146-.2-.291a2.046 2.046 0 01.011-.38.992.992 0 01.143-.362c.08-.134.176-.264.287-.39.111-.126.221-.23.33-.311a.78.78 0 01.306-.15.495.495 0 01.274.022.61.61 0 01.256.209c.083.107.153.229.21.367.057.138.098.296.123.472a4.785 4.785 0 01-.027 1.444 8.854 8.854 0 01-.19.907c-.08.296-.174.597-.285.902a6.77 6.77 0 01-.898 1.7c-.2.276-.311.441-.335.494-.023.053.265.08.865.081.599.001 1 .031 1.202.09.202.06.37.121.504.186.2.098.395.138.586.122M139.678 65.12c-.096.012-.148-.065-.155-.23-.007-.167 0-.332.019-.497a1.51 1.51 0 01.157-.501c.085-.17.203-.336.354-.5.151-.165.316-.29.494-.375.178-.085.344-.13.499-.132.154-.004.294.076.418.238.124.161.217.366.278.613.06.247.1.5.116.76s.02.5.012.717c-.01.218-.06.487-.152.808-.092.321-.036.484.167.488.203.004.431.038.684.1.254.064.464.15.632.26.168.11.3.22.395.328.095.11.19.258.282.446.093.188.159.414.198.678.04.265.022.548-.053.85a1.612 1.612 0 01-.484.799 1.953 1.953 0 01-.823.47c-.437.12-.878.003-1.324-.35" fill="none" stroke="#007aff" stroke-width="1.32290413" stroke-linecap="round" stroke-linejoin="round" stroke-miterlimit="10"/><path d="M3.235 106.306a9.386 9.386 0 00.04 1.52c.036.284.133.89.29 1.818.158.929.261 1.554.31 1.876.048.323.1.617.155.884l.087.421c.002.014.001.013-.004-.004l-.163-.514c-.103-.326-.201-.67-.295-1.033a13.687 13.687 0 01-.245-1.157 62.56 62.56 0 01-.415-2.976 24.888 24.888 0 01-.168-2.657 2.967 2.967 0 01.104-.866 1.61 1.61 0 01.307-.591c.133-.156.29-.268.472-.338a2.09 2.09 0 01.633-.124c.24-.014.534.024.882.113s.741.243 1.179.462c.438.218.853.477 1.244.776.392.299.718.643.98 1.034.26.39.435.81.522 1.257.087.447.099.889.035 1.324-.063.435-.218.8-.465 1.095a2.13 2.13 0 01-.904.64c-.528.197-1.019.197-1.473 0M12.213 103.48v-.166c0-.007.008.014.025.062l.203.61c.12.358.232.76.338 1.204.105.444.197.947.274 1.508.077.561.131 1.074.163 1.539.032.464.052.867.06 1.209.01.341.014.532.015.57 0 .04-.003.04-.013 0l-.138-.578a16.089 16.089 0 01-.243-1.308 31.97 31.97 0 01-.227-2.168c-.072-.92-.116-1.514-.131-1.784a6.922 6.922 0 01-.015-.618.421.421 0 01.162-.333c.102-.08.27-.132.502-.158.232-.026.53-.032.896-.016.366.015.75.054 1.153.116.403.062.777.11 1.123.147.509.052 1.138.051 1.886-.004M26.865 97.005c-.461-.062-.995-.103-1.6-.125a9.824 9.824 0 01-1.303-.142c-.47-.081-.727-.008-.77.218-.042.226-.067.652-.076 1.278-.008.627-.007 1.097.005 1.41.011.312.063.877.155 1.694.093.817.149 1.354.169 1.61.02.258.03.898.033 1.92a52.46 52.46 0 00.032 2.121c.02.392.03.852.031 1.38 0 .528-.03.942-.095 1.242-.063.3-.114.505-.15.613-.037.109.033.21.211.306.178.095.388.163.631.204.244.042.68.083 1.311.125.631.042 1.41.123 2.334.243.926.12 1.47-.03 1.634-.446" fill="none" stroke="#fff" stroke-width="1.32290413" stroke-linecap="round" stroke-linejoin="round" stroke-miterlimit="10"/><path d="M32.17 100.62l-.019-.501v-.003l.004.05.085 1.175c.054.744.12 1.457.198 2.141.078.684.167 1.326.268 1.928.1.601.188 1.07.263 1.406.075.336.12.549.133.638l.029.181" fill="none" stroke="#007aff" stroke-width="1.32290413" stroke-linecap="round" stroke-linejoin="round" stroke-miterlimit="10"/><path d="M37.134 97.576l-.403.078c-.01.002.009.003.054.003h.977c.607 0 1.106.02 1.497.062.391.041.817.104 1.278.188.46.084.67.256.631.517-.04.26-.064.662-.073 1.204a113.577 113.577 0 00.002 3.728c.011.419.041.827.09 1.223.05.396.129.752.237 1.067.108.316.294.775.558 1.377.265.603.487 1.13.666 1.583.179.453.341.824.487 1.112.146.289.2.471.16.547-.04.075-.177.13-.409.163a8.763 8.763 0 01-.796.072c-.299.015-.735.059-1.307.13-.572.073-.973-.08-1.201-.455M51.09 102.854a8.28 8.28 0 012.173.147M50.552 106.78c1.05.06 1.962.044 2.738-.048" fill="none" stroke="#fff" stroke-width="1.32290413" stroke-linecap="round" stroke-linejoin="round" stroke-miterlimit="10"/><path d="M63.03 99.863c.089-.022.185-.169.288-.44.066-.173.1-.371.105-.594.003-.222-.037-.393-.122-.514a1.2 1.2 0 00-.33-.312 2.047 2.047 0 00-.474-.222c-.181-.06-.388-.1-.621-.117a3.051 3.051 0 00-.766.047c-.278.05-.576.2-.895.452-.318.251-.602.64-.852 1.167s-.44 1.151-.57 1.872c-.128.721-.165 1.523-.11 2.407.054.884.217 1.714.49 2.49a7.45 7.45 0 001.064 2.034c.436.579.921.963 1.455 1.153.534.189 1.04.194 1.519.014.478-.18.905-.522 1.279-1.025a5.034 5.034 0 00.813-1.66c.169-.604.266-1.28.291-2.03a8.934 8.934 0 00-.24-2.32 18.55 18.55 0 00-.602-2.1c-.217-.602-.416-1.044-.597-1.327-.181-.283-.338-.442-.472-.478-.188-.051-.313.225-.374.83M68.57 107.047l-.078-.239M75.77 99.582c.041-.11-.003-.285-.133-.525a1.463 1.463 0 00-.242-.346.76.76 0 00-.293-.173 1.655 1.655 0 00-.453-.071c-.183-.008-.391.042-.624.149-.233.106-.472.3-.719.582a4.619 4.619 0 00-.682 1.09 7.247 7.247 0 00-.474 1.32c-.108.434-.167 1.095-.178 1.982-.01.886.09 1.639.304 2.256.214.618.488 1.14.824 1.564.337.424.699.71 1.086.86.388.15.774.118 1.159-.093.384-.212.717-.586.998-1.125a6.282 6.282 0 00.602-1.85 11.7 11.7 0 00.168-2.118c-.008-.718-.112-1.354-.312-1.907-.2-.553-.426-.975-.676-1.265-.367-.424-.841-.615-1.424-.573" fill="none" stroke="#007aff" stroke-width="1.32290413" stroke-linecap="round" stroke-linejoin="round" stroke-miterlimit="10"/><path d="M4.154 143.998c-.103.05-.206-.003-.308-.163a2.912 2.912 0 01-.217-.427 19.88 19.88 0 01-.738-2.229 17.617 17.617 0 01-.352-1.643 19.126 19.126 0 01-.218-1.764 25.316 25.316 0 01-.07-1.691c-.004-.56.015-1.086.056-1.58.042-.493.121-.905.238-1.236.117-.33.27-.606.46-.828.19-.221.421-.406.694-.556a2.864 2.864 0 011.719-.347c.292.033.577.133.856.3.278.168.546.41.804.728.258.317.463.708.616 1.172.153.464.242.95.266 1.456.024.507-.042.96-.199 1.358a3.208 3.208 0 01-.689 1.066 3.519 3.519 0 01-1.006.734c-.539.259-1.145.24-1.818-.058M11.8 138.887c-.099-.013-.194-.142-.285-.388-.06-.162-.136-.399-.227-.711-.091-.313-.181-.68-.27-1.1a23.51 23.51 0 01-.41-2.807c-.036-.454-.056-.84-.06-1.157a4.772 4.772 0 01.038-.75c.028-.181.086-.314.173-.399.087-.085.367-.137.841-.156.474-.02.925-.027 1.354-.022.62.008 1.703-.19 3.249-.59M27.084 127.144c-.895.004-1.821.002-2.778-.007-.635-.005-.99.012-1.066.05-.075.04-.12.152-.132.34-.012.187-.018.46-.018.819 0 .358.031.793.095 1.305.063.512.137 1.286.221 2.324.084 1.038.16 1.944.228 2.718.068.775.11 1.31.128 1.605.017.295.027.57.029.825a5.89 5.89 0 01-.04.739c-.03.237-.075.459-.14.666a3.574 3.574 0 01-.189.504.95.95 0 01-.158.252c-.042.04-.059.039-.05-.004.008-.042.072-.095.19-.16.118-.065.29-.11.518-.135.228-.026.91-.04 2.047-.043 1.137-.003 1.91.007 2.32.03.6.035 1.367.108 2.3.22M40.756 127.852c.009-.136.084-.211.225-.228.14-.016.39-.024.746-.024.357 0 .784.004 1.282.012l.898.016c.1.001.144.01.131.023l-.115.123a.85.85 0 00-.167.316c-.047.143-.076.465-.087.966-.012.501-.005.91.02 1.225.023.315.055.622.096.92a10.78 10.78 0 00.339 1.613c.076.266.146.539.21.82.064.28.14.656.226 1.128.087.472.182.924.288 1.355a8.3 8.3 0 01.194.982c.024.224.008.383-.048.477-.057.094-.18.186-.369.275-.189.09-.427.171-.714.246a12.57 12.57 0 01-1.5.297c-.288.037-.51.026-.666-.034M52.459 131.19c.238.07.514.11.826.122.205.008.405.024.6.049.288.036.559.147.813.332M51.843 134.255c.674.131 1.674.16 3 .084M3.771 170.318a15.97 15.97 0 01-.434-1.498c-.067-.293-.139-.63-.215-1.012a66.785 66.785 0 01-.314-1.747 52.589 52.589 0 01-.272-1.725 13.883 13.883 0 01-.102-1.126c-.019-.384-.03-.76-.031-1.127a5.177 5.177 0 01.081-.994c.057-.296.142-.555.256-.777a3.07 3.07 0 01.928-1.082 2.39 2.39 0 01.56-.294 2.086 2.086 0 011.19-.07c.209.046.408.135.598.266.19.13.376.292.559.484.183.193.358.409.527.649.169.24.335.508.498.804.163.296.294.562.395.799.1.236.18.518.237.847a1.88 1.88 0 01-.033.882c-.08.259-.252.507-.518.744a4.276 4.276 0 01-.931.625c-.355.179-.713.32-1.073.422-.36.102-.66.163-.904.183-.346.027-.545-.105-.599-.397M11.03 165.167v.143a.184.184 0 01-.015-.047l-.179-.633a8.386 8.386 0 01-.235-1.079c-.048-.332-.09-.716-.129-1.154a31.39 31.39 0 01-.11-2.35 6.433 6.433 0 01.032-.741c.023-.203.059-.373.107-.511a.965.965 0 01.18-.327.516.516 0 01.316-.152c.138-.022.485-.017 1.038.016.801.046 2.243.066 4.326.058M26.138 154.034c-.485-.17-.905-.257-1.26-.262-.24-.003-.5.007-.778.032a11.78 11.78 0 01-.98.039c-.375.001-.593.038-.652.11-.059.072-.107.243-.145.512a8.2 8.2 0 00-.06 1.066 32.58 32.58 0 00.08 1.981c.056.879.106 1.463.15 1.752.044.29.13.72.258 1.295.128.573.216 1.023.265 1.35.049.325.098.759.15 1.3.05.543.077 1.02.08 1.431.001.412-.018.8-.06 1.166-.041.365.007.586.145.66.138.075.309.14.513.197.205.056.425.105.661.148.236.043.691.067 1.364.072.674.005 1.229-.03 1.666-.106M41.011 153.86c.4-.09.828-.135 1.287-.138.304-.001.592.015.864.05.271.034.468.051.59.053a.628.628 0 00.296-.056c.076-.04.123.053.143.276.02.223.03.557.03 1.004 0 .446.006.815.02 1.108.013.293.065.766.156 1.42.09.654.195 1.302.313 1.946.118.643.246 1.429.385 2.356.138.928.23 1.514.276 1.76.046.244.11.524.19.839.08.315.127.588.14.82.013.233-.015.397-.084.492a.842.842 0 01-.328.25 2.21 2.21 0 01-.59.166c-.245.04-.672.064-1.282.074-.61.01-1.009.012-1.198.007-.273-.007-.46-.175-.564-.504M53.552 158.812c1.18-.042 1.962.02 2.348.185M53.069 161.8c-.03.079.104.151.398.218.424.095 1.42.136 2.991.122" fill="none" stroke="#fff" stroke-width="1.32290413" stroke-linecap="round" stroke-linejoin="round" stroke-miterlimit="10"/><path d="M33.332 130.983c-.079.012-.141-.07-.189-.245-.048-.175-.078-.467-.09-.876-.013-.409.006-.706.058-.89.052-.184.123-.344.212-.48a.9.9 0 01.275-.289.79.79 0 01.555-.103.677.677 0 01.26.112c.084.058.164.135.238.23.075.096.14.22.193.37.054.15.1.318.14.502.038.185.069.384.091.6.023.215.038.642.045 1.281.008.64-.012 1.068-.058 1.285a3.94 3.94 0 01-.246.731c-.118.27-.267.55-.448.835a5.84 5.84 0 01-.58.775c-.207.23-.398.403-.573.52a1.4 1.4 0 01-.438.214.877.877 0 01-.263.029c-.059-.007-.094-.05-.104-.13a.67.67 0 01.04-.289.382.382 0 01.23-.24c.116-.049.269-.078.459-.088.19-.01.421.028.694.111.274.084.563.2.867.35.304.15.607.295.911.437.442.206 1.116.288 2.023.245M32.233 158.974a.627.627 0 01-.364-.398 1.709 1.709 0 01-.068-.517 2.658 2.658 0 01.301-1.264c.108-.21.25-.394.426-.556.175-.16.37-.268.585-.323.214-.054.417-.046.608.024.19.07.342.214.455.433.114.219.19.456.229.713.039.257.062.49.07.699.009.209.009.38 0 .513-.007.133-.07.266-.19.401s-.201.211-.244.23l-.072.032c-.005.002.001.002.018 0 .016 0 .107-.01.273-.027a6.01 6.01 0 01.56-.028 2.23 2.23 0 01.671.11c.241.075.49.184.75.327.258.144.502.312.73.506.228.194.422.41.581.65.159.24.267.495.325.763.058.268.048.577-.03.929-.079.35-.26.737-.546 1.157-.286.42-.619.79-.999 1.109a4.13 4.13 0 01-1.12.696c-.523.206-.987-.025-1.394-.694M64.607 127.694c.001-.332-.044-.566-.135-.703a.885.885 0 00-.273-.255c-.119-.075-.26-.13-.422-.166a3.256 3.256 0 00-.563-.067 2.39 2.39 0 00-.662.071c-.229.056-.462.14-.7.254a2.625 2.625 0 00-.67.462c-.207.195-.399.454-.575.78a4.389 4.389 0 00-.409 1.163 7.59 7.59 0 00-.167 1.37c-.014.464.01.911.075 1.343.063.431.183.882.359 1.353.176.47.406.9.691 1.291.286.39.612.674.98.849.366.175.758.257 1.176.247.417-.011.815-.168 1.195-.47.379-.302.681-.642.907-1.02.226-.378.412-.863.558-1.455.145-.593.23-1.155.253-1.688a9.46 9.46 0 00-.053-1.536c-.058-.49-.147-.882-.266-1.175-.18-.445-.395-.711-.645-.8M69.808 133.442l-.303.29M75.116 129.149c-.1.062-.188-.062-.263-.373a8.61 8.61 0 01-.176-.997 46.02 46.02 0 00-.14-1.064 8.958 8.958 0 00-.19-.972 3.641 3.641 0 00-.237-.69c-.083-.167-.167-.282-.25-.347-.084-.065-.121.023-.11.265.01.24.07.469.18.683.11.215.264.41.463.587.2.177.44.307.724.391.283.084.591.133.925.145.334.013.663.008.987-.014a4.67 4.67 0 00.894-.142c.271-.073.5-.143.688-.212.188-.069.321-.127.4-.175l.154-.094c.025-.015.029-.022.014-.023l-.098-.003a.77.77 0 00-.26.075 1.45 1.45 0 00-.409.282 3.283 3.283 0 00-.449.53 3.77 3.77 0 00-.418.834c-.128.34-.25.773-.365 1.296a64.132 64.132 0 00-.326 1.56c-.101.519-.183.98-.245 1.383a79.511 79.511 0 00-.315 2.344M65.579 157.52c.039-.247.017-.46-.066-.638a2.278 2.278 0 00-.276-.426 2.628 2.628 0 00-.352-.38 1.262 1.262 0 00-.388-.218 1.555 1.555 0 00-.581-.07 1.511 1.511 0 00-.72.231 2.419 2.419 0 00-.659.587 4.183 4.183 0 00-.523.89 6.124 6.124 0 00-.37 1.104c-.09.388-.14.817-.15 1.288-.009.471.06.967.204 1.49.146.521.348.998.607 1.43.259.433.573.755.942.967a2.3 2.3 0 001.151.323 1.79 1.79 0 001.101-.37c.335-.249.628-.571.877-.967.25-.396.431-.771.546-1.125.114-.354.192-.793.232-1.317.04-.525.04-.968.001-1.33a4.055 4.055 0 00-.197-.93c-.136-.379-.383-.79-.74-1.231M69.92 162.552l-.03.178M78.51 156.868c-.006-.215-.034-.378-.084-.489a1.053 1.053 0 00-.202-.27c-.1-.104-.254-.195-.462-.273a3.485 3.485 0 00-.563-.163 2.922 2.922 0 00-.481-.052c-.153-.003-.369.098-.648.304a3.144 3.144 0 00-.748.813c-.22.335-.413.717-.576 1.145a5.033 5.033 0 00-.312 1.242c-.044.4-.021.829.069 1.287.09.458.258.887.506 1.285.248.399.537.705.867.918.33.213.69.324 1.081.33.39.008.796-.148 1.215-.466.42-.32.789-.715 1.108-1.189.318-.473.548-.935.688-1.387.14-.451.208-.874.203-1.266a2.52 2.52 0 00-.218-1.043 2.861 2.861 0 00-.509-.767c-.287-.303-.704-.856-1.252-1.66" fill="none" stroke="#007aff" stroke-width="1.32290413" stroke-linecap="round" stroke-linejoin="round" stroke-miterlimit="10"/></svg>