<svg xmlns="http://www.w3.org/2000/svg" width="184.7" height="36.493"><path d="M.964 31.47c-.191.106-.291.212-.3.319-.007.074.12.19.38.346.261.157.563.274.906.353a6.369 6.369 0 002.647.007c.519-.105 1.04-.328 1.564-.67a6.238 6.238 0 001.405-1.263c.413-.5.749-1.065 1.008-1.693.259-.629.444-1.33.554-2.106.11-.776.175-1.595.193-2.456.017-.862-.05-1.663-.203-2.405a6.596 6.596 0 00-.793-2.06 16.918 16.918 0 00-1.295-1.867c-.488-.614-.986-1.245-1.494-1.892a23.62 23.62 0 01-1.378-1.946c-.411-.65-.74-1.277-.985-1.877-.245-.601-.43-1.271-.552-2.01a16.59 16.59 0 01-.215-2.286c-.02-.787.06-1.502.243-2.145a5.996 5.996 0 01.807-1.75 6.621 6.621 0 011.202-1.348 4.12 4.12 0 011.414-.8c.726-.23 1.655-.21 2.785.06" fill="none" stroke="#fff" stroke-width="1.32290413" stroke-linecap="round" stroke-linejoin="round" stroke-miterlimit="10"/><path d="M3.57 21.848c.108-.397.407-.864.898-1.4.317-.347.707-.736 1.169-1.166.666-.62 2.12-1.835 4.363-3.646M23.785 1.345c-.222-.398-.482-.622-.78-.672-.206-.034-.415 0-.628.106-.212.105-.502.37-.869.798-.366.426-.798 1.01-1.293 1.752-.495.742-1.025 1.704-1.59 2.886-.565 1.183-1.084 2.52-1.557 4.015-.474 1.494-.815 3.184-1.023 5.07a48.24 48.24 0 00-.282 5.808c.02 1.987.212 3.793.575 5.417.532 2.383 1.97 4.832 4.314 7.347" fill="none" stroke="#fff" stroke-width="1.32290413" stroke-linecap="round" stroke-linejoin="round" stroke-miterlimit="10"/><path d="M31.407 17.96c.252-.485.438-1.028.559-1.63.08-.4.139-.845.175-1.336.036-.491.045-.959.027-1.403-.018-.444-.112-.79-.283-1.04a1.079 1.079 0 00-.674-.464c-.278-.061-.587-.006-.925.164-.339.171-.648.445-.928.823-.28.377-.512.8-.696 1.267a6.811 6.811 0 00-.388 1.376c-.075.449-.117.851-.124 1.206-.007.356 0 .668.02.936.02.269.081.49.182.666.1.175.225.296.377.362.15.066.344.106.578.12.235.014.53.043.886.087.355.044.755.131 1.2.263.444.131.904.359 1.379.682.474.324.894.745 1.26 1.265a4.57 4.57 0 01.738 1.64c.128.575.139 1.113.032 1.614-.107.5-.35.91-.727 1.228a2.511 2.511 0 01-1.29.58c-.69.097-1.549-.44-2.574-1.612M38.09 17.247c-.058.371-.088 1.275-.09 2.71-.004 2.236-.096 3.99-.277 5.266M38.232 10.304c-.186-.023-.294-.108-.325-.256M45.251 18.454a.809.809 0 01-.753-.139 2.001 2.001 0 00-.487-.272 2.246 2.246 0 00-.58-.126 2.005 2.005 0 00-.714.071c-.255.07-.5.252-.737.548a2.519 2.519 0 00-.485.954c-.087.34-.117.844-.09 1.514.025.67.163 1.242.411 1.718.249.476.555.858.919 1.146.364.288.77.46 1.216.516.447.057.914-.05 1.403-.318.488-.269.923-.664 1.304-1.185a9.8 9.8 0 00.988-1.685c.277-.602.465-1.117.562-1.545.098-.428.13-.74.099-.938-.032-.197-.148-.316-.35-.357a.999.999 0 00-.617.08 1.17 1.17 0 00-.518.462c-.134.214-.211.47-.231.766-.02.297.025.69.136 1.178.11.488.3 1.05.564 1.684.266.635.73 1.638 1.395 3.009s1.114 2.417 1.346 3.137c.233.72.39 1.413.469 2.078.08.665.084 1.253.014 1.765-.07.511-.245.93-.527 1.255-.28.325-.65.519-1.11.58-.458.061-.936-.075-1.434-.408-.716-.479-1.184-1.68-1.404-3.604M50.32 18.514c.14.061.313.01.52-.156.208-.165.395-.395.56-.69.167-.296.325-.677.477-1.144a12.47 12.47 0 00.396-1.67c.113-.646.197-1.287.252-1.924.054-.637.09-1.174.11-1.611.018-.438.011-.77-.022-.997-.033-.227-.108-.38-.224-.459a.827.827 0 00-.371-.14c-.131-.016-.253.043-.364.176-.111.133-.205.347-.28.642-.076.295-.136.707-.178 1.238-.043.53-.066 1.154-.07 1.87-.005.716.025 1.463.087 2.241.063.779.168 1.563.316 2.352.147.79.299 1.637.455 2.542.156.905.302 1.713.437 2.425.135.71.263 1.265.383 1.661.12.396.22.65.302.759.082.11.163.106.242-.01.08-.117.19-.442.333-.975.143-.534.327-1.177.552-1.928.226-.751.487-1.457.786-2.118.298-.661.568-1.152.809-1.472.24-.32.419-.511.534-.572.116-.06.176.093.18.46.006.369-.023.92-.086 1.657-.063.736-.08 1.465-.05 2.188.028.723.17 1.318.428 1.785.257.468.571.788.942.962.372.174.752.231 1.142.171.389-.06.71-.27.961-.63.252-.36.404-.825.458-1.397.079-.844-.05-1.79-.384-2.836M64.805 10.259l-.02-.447V9.81l-.005.08-.089 1.765a122.023 122.023 0 00-.159 6.128c-.002 1.015.007 2.102.026 3.262.02 1.16.059 2.168.117 3.025.09 1.32.08 2.411-.033 3.272" fill="none" stroke="#007aff" stroke-width="1.32290413" stroke-linecap="round" stroke-linejoin="round" stroke-miterlimit="10"/><path d="M61.937 18.913c.626-.315 1.346-.501 2.16-.56.779-.057 2.376-.077 4.79-.061" fill="none" stroke="#007aff" stroke-width="1.32290413" stroke-linecap="round" stroke-linejoin="round" stroke-miterlimit="10"/><path d="M71.197 3.906c.083-.147.232-.167.446-.059.214.109.456.355.726.74.27.385.588.911.954 1.578.366.666.748 1.496 1.145 2.487.397.991.753 2.023 1.067 3.096.314 1.072.54 2.294.677 3.665.138 1.371.196 2.802.175 4.294a33.366 33.366 0 01-.364 4.462 53.552 53.552 0 01-.766 4.108 44.378 44.378 0 01-.925 3.429 12.298 12.298 0 01-2.222 4.125M86.142 18.352l-.425.068h-.002l.048-.002c.04-.002.353-.02.94-.056a12.451 12.451 0 012.531.094M84.665 22.543a129.39 129.39 0 014.052-.873" fill="none" stroke="#fff" stroke-width="1.32290413" stroke-linecap="round" stroke-linejoin="round" stroke-miterlimit="10"/><path d="M102.912 16.28c-.073-.133-.15-.134-.229-.002-.08.13-.121.643-.125 1.537-.005.894.014 1.659.057 2.295.042.637.09 1.48.146 2.532.055 1.052.084 1.706.086 1.962l.004.403v.006l-.001-.038-.036-1.04a74.757 74.757 0 01-.038-2.33 44.14 44.14 0 01.06-2.497c.041-.771.142-1.481.3-2.131.16-.65.325-1.181.497-1.593.172-.412.323-.686.453-.822.13-.136.258-.164.385-.082.126.08.247.329.36.743.115.414.213.902.296 1.463.084.562.171 1.13.264 1.707.093.576.176 1.167.25 1.773.074.606.145 1.131.213 1.575.068.443.135.78.2 1.008.066.23.136.364.208.405.073.04.182-.08.327-.362.145-.281.335-.762.57-1.442.236-.68.488-1.38.756-2.099.268-.718.532-1.355.79-1.91.26-.555.459-.944.599-1.168.14-.223.21-.299.21-.228l-.002.53c0 .282-.053.692-.158 1.23-.105.537-.184 1.09-.237 1.657a18.148 18.148 0 00-.076 1.733c.002.589.08 1.113.235 1.572.155.46.39.838.703 1.134.313.296.672.494 1.074.596.403.1.792.11 1.167.024.375-.084.706-.305.994-.66.424-.523.758-1.232 1.005-2.127M119.367 17.288c-.104-.244-.295-.454-.572-.63a2.718 2.718 0 00-.528-.267c-.167-.06-.372-.1-.615-.117-.244-.017-.509.054-.796.213-.287.16-.57.415-.85.765-.279.35-.537.758-.774 1.224-.238.465-.395.969-.472 1.511a7.1 7.1 0 00-.02 1.737c.064.615.239 1.19.525 1.722.287.533.63.946 1.03 1.239.4.293.85.463 1.35.51.5.047 1.019-.133 1.558-.54.54-.408.994-.982 1.365-1.722.37-.74.618-1.455.744-2.144.126-.69.165-1.25.119-1.683-.047-.433-.168-.772-.364-1.02a2.833 2.833 0 00-.663-.612c-.358-.236-.769-.688-1.232-1.357M123.513 17.627a2.202 2.202 0 01-.21-.833l-.007-.294c0-.023.02.018.059.122l.509 1.336c.3.787.569 1.504.808 2.152.239.648.5 1.31.786 1.984.286.674.574 1.24.866 1.695.291.455.574.787.848.994.274.207.538.305.794.295.255-.01.475-.182.661-.518.186-.335.321-.806.406-1.412.085-.606.132-1.413.141-2.419.01-1.006.142-1.744.397-2.213M134.464 20.995c.33.015.663-.109 1-.371.226-.175.443-.367.651-.575.208-.209.397-.425.567-.65.17-.224.293-.428.37-.612a1.75 1.75 0 00.133-.536.618.618 0 00-.155-.465 1.366 1.366 0 00-.471-.342 1.958 1.958 0 00-.665-.169c-.247-.02-.523.025-.829.137a2.751 2.751 0 00-.899.569 4.026 4.026 0 00-.788 1.023c-.232.415-.402.9-.51 1.455a6.98 6.98 0 00-.122 1.66 3.2 3.2 0 00.437 1.501c.266.45.618.796 1.057 1.038.438.242.939.354 1.502.336.81-.025 2.121-.716 3.934-2.07M143.004 17.634c-.084-.061-.154.083-.209.432-.055.35-.086.713-.095 1.09a16.355 16.355 0 00.252 3.05c.105.601.213 1.16.325 1.673.112.514.206.892.284 1.134.077.242.123.345.14.31l.116-.272c.063-.145.113-.497.152-1.055.039-.559.099-1.213.18-1.962.081-.748.2-1.462.358-2.14a12.57 12.57 0 01.51-1.719c.183-.468.332-.782.445-.942.114-.161.213-.208.296-.14.083.067.15.28.2.639.051.359.1.786.147 1.282.047.496.112 1.026.194 1.589s.18 1.106.296 1.629c.115.522.235.923.36 1.202.126.279.267.447.423.505.156.057.337-.049.544-.317.207-.269.422-.637.645-1.106.223-.469.442-.962.655-1.48.214-.52.457-1.094.73-1.726.274-.631.398-.89.374-.78l-.18.84a7.8 7.8 0 00-.167 1.397c-.015.485.025.95.119 1.392.094.443.253.791.478 1.045.224.253.482.434.773.542.291.109.598.133.92.072.321-.061.608-.22.86-.478.385-.394.633-.766.743-1.114M158.751 20.71c-.048.098-.006.145.125.14.097-.005.23-.085.399-.24.17-.156.35-.37.54-.644.192-.272.345-.584.46-.934.115-.35.186-.698.215-1.043.028-.345.02-.66-.025-.946-.045-.285-.162-.493-.35-.623a1.383 1.383 0 00-.662-.231 1.736 1.736 0 00-.792.12 2.55 2.55 0 00-.822.54 5.003 5.003 0 00-.8 1.012c-.26.42-.48.906-.662 1.462a7.535 7.535 0 00-.344 1.697 5.533 5.533 0 00.09 1.63c.109.51.324.971.646 1.381a2.4 2.4 0 001.229.838c.498.148 1.07.134 1.718-.042.94-.255 2.055-1.084 3.346-2.487M165.676 16.641c-.118.111-.181.444-.19 1-.005.346.05.752.164 1.217.115.466.222 1.001.323 1.607.1.606.19 1.24.266 1.905.076.664.147 1.226.214 1.687.067.46.114.755.141.883l.046.213c.003.014.005-.017.007-.093l.024-1.132c.014-.678.049-1.402.104-2.173.055-.77.177-1.46.367-2.07.19-.608.392-1.101.608-1.479.216-.377.398-.614.546-.71.148-.098.26-.008.333.268.074.276.139.715.194 1.317.055.601.128 1.273.217 2.014.09.742.205 1.433.345 2.073.14.64.312 1.185.518 1.632.205.447.419.77.642.97.223.2.448.286.674.258.226-.027.443-.204.65-.53.299-.47.681-1.374 1.147-2.711M177.15 10.089c.022.88.052 1.692.09 2.433.026.499.043 1.194.05 2.085.01.892-.007 1.833-.049 2.824a96.783 96.783 0 01-.167 2.944c-.106 1.462-.211 2.883-.316 4.265" fill="none" stroke="#7ec636" stroke-width="1.32290413" stroke-linecap="round" stroke-linejoin="round" stroke-miterlimit="10"/><path d="M174.044 16.344c.507.073 1.455.061 2.844-.033 1.237-.085 3.62-.488 7.15-1.209" fill="none" stroke="#7ec636" stroke-width="1.32290413" stroke-linecap="round" stroke-linejoin="round" stroke-miterlimit="10"/></svg>