<svg xmlns="http://www.w3.org/2000/svg" width="269.85" height="71.846"><path d="M2.698 32.926c-.106-.069-.23-.059-.373.029a.803.803 0 00-.29.268c-.05.091-.087.234-.11.428a6.79 6.79 0 00-.04.75c-.002.305.05.658.155 1.06.106.402.264.828.473 1.28.209.451.45.845.722 1.182.272.337.562.598.868.784.307.186.625.308.954.367.33.058.66.067.99.027.332-.04.65-.178.954-.415.305-.237.59-.53.853-.878s.493-.729.692-1.142c.198-.413.367-.846.507-1.298.14-.453.247-.947.32-1.483.073-.536.12-1.086.14-1.65.02-.565.03-1.127.032-1.687.003-.56-.036-1.097-.116-1.611a11.487 11.487 0 00-.34-1.514 26.972 26.972 0 00-1.31-3.476c-.301-.66-.629-1.273-.984-1.837a13.153 13.153 0 00-1.122-1.537c-.393-.46-.775-.927-1.145-1.398-.37-.471-.724-.946-1.059-1.424a27.72 27.72 0 01-.982-1.504c-.32-.525-.578-.992-.775-1.403-.198-.411-.4-.942-.605-1.594a8.953 8.953 0 01-.388-2.009 20.475 20.475 0 01-.049-2.16 9.166 9.166 0 01.293-2.107c.174-.652.409-1.3.704-1.943.296-.642.627-1.238.996-1.786a8.166 8.166 0 011.144-1.382 5.278 5.278 0 011.15-.853C5.51.72 6.097.61 6.721.682" fill="none" stroke="#fff" stroke-width="1.32290413" stroke-linecap="round" stroke-linejoin="round" stroke-miterlimit="10"/><path d="M3.449 26.19a28.658 28.658 0 011.22-3.29c.3-.67.64-1.336 1.02-2 .382-.665.788-1.352 1.218-2.061.63-1.04 1.496-2.423 2.597-4.15M20.725 5.154c-.18-.243-.618-.324-1.314-.246-.46.051-.842.16-1.146.325-.305.165-.634.415-.99.75-.355.336-.736.834-1.143 1.497-.408.662-.794 1.535-1.16 2.616-.365 1.082-.679 2.367-.94 3.853a31.792 31.792 0 00-.462 4.564 25.13 25.13 0 00.331 4.794c.267 1.641.66 3.137 1.176 4.49.769 2.008 1.905 3.994 3.409 5.958" fill="none" stroke="#fff" stroke-width="1.32290413" stroke-linecap="round" stroke-linejoin="round" stroke-miterlimit="10"/><path d="M24.86 19.917c0-.415.026-.978.08-1.692.055-.713.083-1.293.085-1.74a4.766 4.766 0 00-.126-1.187c-.087-.343-.219-.587-.395-.73a.912.912 0 00-.595-.213c-.221 0-.44.117-.66.35-.218.231-.392.544-.521.938-.13.393-.216.809-.257 1.246-.042.438-.066.868-.07 1.29-.004.421.044.835.144 1.24.1.404.243.754.427 1.048.185.294.399.528.643.702.244.174.678.332 1.303.474.626.141 1.118.266 1.479.374.36.108.707.254 1.04.44.333.184.589.438.768.762.178.323.258.7.24 1.131a2.46 2.46 0 01-.411 1.243 2.444 2.444 0 01-.956.886 2.36 2.36 0 01-1.128.275c-.53-.013-.973-.556-1.327-1.629M31.288 17.935v-.254l-.002.03c0 .025-.008.198-.022.52a91.43 91.43 0 00-.021 2.644c0 1.443.06 2.736.18 3.879M31.772 11.841l-.41.483M38.155 19.435c-.137-.254-.372-.474-.703-.66-.332-.186-.615-.305-.85-.358a1.857 1.857 0 00-.765 0c-.276.054-.534.232-.773.535-.24.303-.419.661-.536 1.076-.118.414-.18.846-.185 1.293-.005.448.094.868.297 1.261.203.394.467.722.793.986.326.263.683.427 1.071.49.388.064.765-.007 1.13-.212.365-.205.696-.532.994-.98.298-.449.56-.97.784-1.567.224-.595.388-1.14.49-1.636.103-.495.16-.862.17-1.1.01-.237-.049-.38-.178-.425-.129-.045-.269.006-.42.154-.151.148-.281.389-.39.722-.11.334-.177.72-.203 1.16-.027.44-.019.892.023 1.358.042.465.148.982.317 1.55.17.568.517 1.6 1.04 3.094.522 1.494.887 2.555 1.095 3.182.208.627.347 1.193.42 1.698.071.505.085.924.041 1.257-.044.334-.199.58-.464.735-.266.157-.627.218-1.082.183-.455-.034-.96-.227-1.512-.579-.553-.352-.995-.752-1.325-1.201-.478-.65-.49-1.48-.035-2.492M42.534 20.498c.092.08.196.036.314-.13.117-.167.24-.429.368-.786.128-.358.25-.797.365-1.319.115-.52.278-1.327.489-2.417.21-1.09.332-1.843.364-2.256.032-.413.031-.76 0-1.041-.034-.281-.117-.472-.252-.572a.756.756 0 00-.363-.164c-.108-.01-.222.114-.342.373-.12.26-.196.565-.229.918-.032.352-.05.757-.053 1.214-.004.457.001.99.015 1.601.013.61.064 1.291.153 2.042.088.75.198 1.482.33 2.195.132.713.267 1.388.405 2.026.137.637.256 1.209.355 1.715.1.506.183.893.251 1.161s.114.381.138.338l.18-.321c.095-.172.223-.506.384-1.004.16-.498.365-1.007.613-1.528.248-.522.494-.979.738-1.372.243-.393.439-.66.586-.802.147-.142.253-.048.316.282.063.33.106.71.129 1.139.023.43.07.887.145 1.372.074.485.192.948.353 1.388.16.44.355.755.58.944.227.189.456.253.69.193.232-.06.418-.247.557-.558.14-.31.223-.667.251-1.068.04-.592-.045-1.278-.256-2.06M52.796 20.248c.259-.572.48-1.183.663-1.835.122-.433.229-.892.32-1.377.09-.485.19-1.2.3-2.142.11-.943.172-1.602.185-1.977a5.65 5.65 0 00-.013-.805c-.021-.161-.087-.232-.199-.21-.111.02-.237.17-.378.447a3.47 3.47 0 00-.31.97c-.065.368-.098 1.288-.098 2.759 0 1.471.022 2.713.067 3.725.045 1.013.102 1.958.171 2.835.07.878.137 1.64.202 2.285.113 1.124.221 1.762.323 1.915" fill="none" stroke="#007aff" stroke-width="1.32290413" stroke-linecap="round" stroke-linejoin="round" stroke-miterlimit="10"/><path d="M50.548 18.396c.365.144.779.23 1.241.255a21.8 21.8 0 001.31.02 7.347 7.347 0 001.807-.26c.94-.248 2.08-.578 3.423-.988" fill="none" stroke="#007aff" stroke-width="1.32290413" stroke-linecap="round" stroke-linejoin="round" stroke-miterlimit="10"/><path d="M57.781 26.261c-.057-.15.022-.26.238-.33.154-.05.332-.03.536.06.203.09.37.347.499.77.13.422.204.941.224 1.556.03.904-.236 1.902-.794 2.993" fill="none" stroke="#fff" stroke-width="1.32290413" stroke-linecap="round" stroke-linejoin="round" stroke-miterlimit="10"/><path d="M69.382 20.28c.042-2.218.053-3.537.032-3.958-.015-.294-.087-.506-.219-.637a.82.82 0 00-.444-.238.808.808 0 00-.524.105c-.184.098-.332.24-.444.423-.113.184-.211.489-.296.913-.085.425-.135.81-.15 1.158a5.9 5.9 0 00.029.954c.034.288.122.556.264.802.142.247.332.491.572.734.24.242.692.549 1.358.92.665.37 1.128.691 1.386.962.259.271.452.598.58.982.129.383.2.771.212 1.164a1.81 1.81 0 01-.296 1.074c-.21.322-.479.572-.804.749-.473.258-1.058.259-1.753.002M73.692 18.202c-.13.213-.19.674-.179 1.383.008.442.173 1.351.498 2.728.324 1.377.513 1.972.565 1.785.052-.187.083-.506.091-.958.009-.451.036-.943.081-1.475.045-.532.132-1.078.26-1.638.127-.561.27-1.047.427-1.46.158-.412.285-.69.381-.832.096-.142.178-.18.246-.115.068.065.15.603.248 1.614.097 1.01.2 1.79.306 2.338.107.549.235 1.028.384 1.437.15.41.293.716.43.917.139.2.27.304.392.31.123.006.253-.165.388-.512.135-.348.268-.764.398-1.249a38.9 38.9 0 01.408-1.42 26.4 26.4 0 01.556-1.64c.008-.02.008-.012.002.025l-.153.863a9.244 9.244 0 00-.153 1.447c-.007.426.065.823.216 1.19.152.369.344.658.578.87.234.21.468.326.701.348.331.03.657-.503.975-1.597M84.373 21.07c.115.143.295.148.541.011.172-.094.33-.244.478-.45.147-.205.264-.434.352-.687a2.78 2.78 0 00.156-.731.99.99 0 00-.125-.596.66.66 0 00-.415-.31 1.382 1.382 0 00-.587-.008c-.214.04-.426.166-.636.38-.209.214-.393.51-.553.886-.159.376-.258.8-.296 1.274a5 5 0 00.112 1.476c.112.511.327.996.644 1.453.317.457.654.807 1.012 1.048.358.242.71.353 1.057.334.494-.028 1.038-.798 1.631-2.311M88.52 22.58c.141.093.335.04.58-.161.168-.137.337-.376.508-.716.17-.34.34-.79.51-1.346.168-.557.33-1.197.486-1.92.155-.723.287-1.418.397-2.085a18.28 18.28 0 00.263-2.816c.003-.265-.063-.426-.2-.482-.136-.056-.306.02-.51.225-.202.206-.39.507-.562.905-.173.397-.318.92-.436 1.57s-.194 1.438-.228 2.365c-.034.927-.027 1.844.02 2.75.049.906.194 1.71.438 2.408.244.7.542 1.197.892 1.492.35.296.715.352 1.091.17.541-.26 1.12-1.214 1.734-2.861M95.309 21.064c.274-.22.47-.702.588-1.447.076-.482.183-1.363.32-2.645.138-1.281.218-2.153.24-2.615.022-.461.02-.791-.007-.99-.027-.199-.1-.283-.219-.253-.119.03-.246.207-.38.529-.135.322-.239.742-.31 1.261-.072.52-.111 1.174-.118 1.965-.008.792.021 1.702.085 2.732.064 1.03.237 1.937.519 2.721.281.785.625 1.42 1.03 1.904.58.693 1.577.76 2.99.198" fill="none" stroke="#007aff" stroke-width="1.32290413" stroke-linecap="round" stroke-linejoin="round" stroke-miterlimit="10"/><path d="M104.115 25.217a.664.664 0 01.584.17c.114.103.224.293.331.571.107.279.173.645.197 1.101.035.657-.414 1.737-1.348 3.242" fill="none" stroke="#fff" stroke-width="1.32290413" stroke-linecap="round" stroke-linejoin="round" stroke-miterlimit="10"/><path d="M114.223 22.095c.232-.205.438-.475.617-.81.179-.337.374-.848.587-1.535a26.4 26.4 0 00.559-2.113c.16-.723.29-1.45.394-2.182.103-.732.167-1.446.19-2.143a10.38 10.38 0 00-.09-1.89c-.085-.563-.237-1.01-.455-1.343-.22-.331-.437-.543-.653-.634-.217-.09-.409-.083-.575.024-.167.106-.288.36-.363.763-.075.403-.112.918-.113 1.546 0 .629.102 1.842.307 3.64.205 1.797.396 3.18.574 4.15.177.968.358 1.86.544 2.676.185.816.356 1.507.513 2.074.157.567.275.96.356 1.176.08.217.13.291.15.223l.149-.51c.079-.272.157-.694.235-1.267.078-.573.194-1.135.347-1.685.153-.551.327-1.024.524-1.42.196-.396.388-.653.575-.772.187-.12.355-.054.503.195.149.25.267.695.355 1.336.089.641.195 1.306.32 1.994s.27 1.23.435 1.626c.164.395.397.703.697.923.421.31.898-.334 1.429-1.93M123.939 21.947c.42-.612.735-1.098.946-1.459a4.54 4.54 0 00.359-.766c.095-.264.158-.54.19-.826.031-.286.045-.535.042-.745-.004-.21-.075-.345-.214-.402-.139-.056-.317-.008-.534.145-.217.153-.435.408-.653.764a5.786 5.786 0 00-.554 1.231 6.09 6.09 0 00-.284 1.43c-.037.489-.032.997.015 1.525.048.528.168.985.36 1.37.193.387.44.664.744.833.303.17.629.241.979.214.502-.038 1.148-.576 1.938-1.616M130.742 20.115a.749.749 0 01-.453-.321c-.063-.104-.277-.197-.641-.28-.364-.082-.63-.124-.8-.126a1.35 1.35 0 00-.54.117c-.191.08-.362.233-.513.46-.15.225-.255.483-.313.774-.057.29-.081.61-.072.957.01.348.101.71.275 1.086.173.375.396.695.668.958s.581.425.928.487c.346.063.697-.001 1.05-.191.355-.19.673-.49.954-.9.281-.409.516-.878.705-1.406.189-.527.332-1.025.43-1.491.097-.467.154-.803.17-1.009.017-.205-.028-.271-.134-.198-.106.073-.222.327-.349.764a6.084 6.084 0 00-.232 1.306 6.07 6.07 0 00.04 1.24c.056.392.17.745.343 1.06.173.314.352.56.537.736.262.25.648.18 1.157-.21M134.34 19.819c.059-.177.171-.168.338.027.167.194.315.495.442.9.128.405.238.835.331 1.29.093.453.159.91.197 1.37.038.459.063.83.074 1.116l.018.456c0 .02-.004-.001-.013-.063l-.225-1.459c-.14-.912-.216-1.581-.226-2.007-.01-.426.003-.769.04-1.029.036-.26.118-.458.244-.593.127-.135.298-.242.514-.32.216-.08.61-.162 1.18-.247.867-.13 1.602-.108 2.204.067M142.044 20.091c-.086.435-.13.933-.133 1.494-.001.37.023.775.074 1.218.075.653.251 1.436.528 2.351M141.862 14.186l-.222.145M145.2 20.135v-.232.011l.01.314c.006.199.11.898.312 2.097.202 1.2.335 1.934.4 2.203.066.269.127.434.185.497.058.063.118-.022.182-.256.064-.233.132-.586.203-1.06.071-.472.176-.953.315-1.443.139-.49.317-.961.534-1.416.217-.455.408-.808.573-1.057.165-.249.285-.353.36-.313.075.04.116.579.124 1.615.008 1.036.024 1.8.046 2.294s.118.878.288 1.151c.17.274.36.446.572.517.211.071.43.027.654-.133.322-.229.685-.954 1.089-2.177M153.965 21.15c.074-.537.097-.891.068-1.062-.02-.119-.159-.217-.417-.293a.767.767 0 00-.716.134c-.219.166-.43.42-.632.762a3.881 3.881 0 00-.445 1.14c-.094.42-.131.85-.112 1.29.02.442.13.805.328 1.089.198.284.467.472.806.566.34.094.718.08 1.136-.041.419-.122.815-.384 1.19-.789.375-.404.69-.855.947-1.353.256-.497.422-.988.497-1.472.075-.484.11-.91.103-1.28-.006-.368-.064-.61-.174-.727-.11-.116-.239-.1-.386.048-.148.149-.27.419-.364.81a5.98 5.98 0 00-.167 1.157c-.017.38.014.757.09 1.129.078.372.215.77.412 1.19.197.423.425.923.684 1.502.26.579.684 1.65 1.276 3.213.592 1.564.997 2.7 1.217 3.412.22.71.361 1.363.426 1.955.064.593.01 1.125-.165 1.599-.175.473-.496.853-.962 1.14-.467.286-1.007.448-1.621.484-.614.037-1.212-.128-1.794-.495a3.8 3.8 0 01-1.333-1.377c-.44-.793-.226-1.989.64-3.587" fill="none" stroke="#007aff" stroke-width="1.32290413" stroke-linecap="round" stroke-linejoin="round" stroke-miterlimit="10"/><path d="M161.228 25.913c.162 0 .326.065.493.196.166.13.344.38.535.75.191.37.34.804.446 1.305.156.734.155 1.684 0 2.85" fill="none" stroke="#fff" stroke-width="1.32290413" stroke-linecap="round" stroke-linejoin="round" stroke-miterlimit="10"/><path d="M172.162 12.589c-.005-.214-.051-.312-.14-.293-.062.013-.11.188-.142.525-.033.337-.051.732-.055 1.186a24.38 24.38 0 00.059 1.674c.042.661.084 1.435.124 2.321.04.886.066 1.805.079 2.757.012.953.02 1.882.02 2.79a46.655 46.655 0 01-.13 3.749" fill="none" stroke="#007aff" stroke-width="1.32290413" stroke-linecap="round" stroke-linejoin="round" stroke-miterlimit="10"/><path d="M167.578 17.82c.38.107 1.926.126 4.64.057 2.398-.06 4.212-.236 5.445-.528M177.621 21.665c-.036-.292-.204-.537-.504-.733a1.312 1.312 0 00-.56-.228 2.081 2.081 0 00-.566.022c-.207.034-.415.154-.623.36a2.304 2.304 0 00-.509.797c-.13.325-.205.686-.225 1.08-.02.396.057.787.229 1.175.172.388.398.7.676.935a1.74 1.74 0 001.013.399c.397.03.815-.101 1.255-.397.44-.295.855-.697 1.248-1.204.392-.508.702-.997.929-1.47.227-.472.374-.855.441-1.148.067-.293.064-.465-.01-.516-.073-.051-.218.058-.436.329-.217.27-.398.585-.543.945-.145.36-.225.73-.239 1.108a2 2 0 00.248 1.058c.18.327.405.601.675.823.392.32 1.01.397 1.856.234M186.09 20.617c.033-.684.014-1.19-.058-1.52a1.566 1.566 0 00-.236-.569.672.672 0 00-.415-.285c-.17-.037-.365-.003-.585.102-.22.105-.41.254-.571.446-.16.193-.318.509-.472.948-.155.44-.243.827-.265 1.162-.023.334.03.609.16.823.13.214.32.38.572.495.252.117.715.218 1.39.306.674.087 1.162.206 1.466.357a1.946 1.946 0 011.084 1.551c.041.346.002.707-.117 1.082a2.32 2.32 0 01-.588.967c-.388.384-.937.307-1.647-.23M191.789 14.015c-.077.77-.116 2.558-.117 5.362-.002 2.804.088 5.02.271 6.646M189.01 19.44c1.39-.046 2.793-.075 4.21-.088M196.581 22.516c.292.068.548.082.766.04.149-.028.321-.112.517-.253.196-.142.368-.346.518-.614.15-.268.246-.574.29-.92.044-.346.036-.67-.025-.974-.06-.304-.206-.518-.438-.642-.231-.123-.504-.126-.818-.008-.313.118-.615.426-.906.924a6.277 6.277 0 00-.668 1.69c-.153.631-.22 1.311-.197 2.042.022.73.201 1.386.536 1.966.336.58.763 1.009 1.281 1.284.747.398 1.866.227 3.357-.512" fill="none" stroke="#007aff" stroke-width="1.32290413" stroke-linecap="round" stroke-linejoin="round" stroke-miterlimit="10"/><path d="M204.77 26.218a.584.584 0 01.44-.253c.13-.015.264.05.402.193.138.144.282.39.432.738.15.35.245.755.282 1.218.054.67-.187 1.71-.723 3.118" fill="none" stroke="#fff" stroke-width="1.32290413" stroke-linecap="round" stroke-linejoin="round" stroke-miterlimit="10"/><path d="M219.138 12.085c.025-1.13.007-1.623-.055-1.478-.044.103-.079.37-.104.804a23.86 23.86 0 00.064 3.698 80.097 80.097 0 01.278 5.747c.017 1.437-.008 3.303-.076 5.598" fill="none" stroke="#007aff" stroke-width="1.32290413" stroke-linecap="round" stroke-linejoin="round" stroke-miterlimit="10"/><path d="M216.176 17.876a25.09 25.09 0 001.776-.252 55.344 55.344 0 001.6-.298c.854-.171 2.079-.282 3.674-.333M226.54 21.463c.117-.257.054-.564-.188-.92a4.461 4.461 0 00-.5-.623 2.056 2.056 0 00-.621-.427 2.26 2.26 0 00-.803-.195c-.292-.019-.577.113-.854.394s-.497.65-.662 1.106a4.44 4.44 0 00-.25 1.492 4.136 4.136 0 00.354 1.65c.239.562.555 1.08.95 1.559.395.477.818.798 1.271.96.453.164.88.17 1.28.02.401-.15.705-.447.913-.89.207-.443.328-.94.362-1.492a5.601 5.601 0 00-.107-1.552 8.029 8.029 0 00-.346-1.2 3.633 3.633 0 00-.485-.869M229.6 20.485c-.549-.282-.806-.124-.772.473.025.435.107.9.246 1.392.14.492.322.944.546 1.356.224.412.485.725.785.94.299.216.59.32.872.314.283-.007.516-.156.698-.447.182-.292.332-.808.45-1.55.189-1.17.452-1.893.79-2.166M236.703 20.961c.118-.321.042-.57-.228-.745a.905.905 0 00-.606-.15c-.215.024-.435.193-.66.508-.225.315-.407.73-.545 1.248a6.567 6.567 0 00-.219 1.626c-.007.566.127 1.034.404 1.404.276.369.615.616 1.019.74.403.124.821.152 1.255.083.62-.098 1.221-.85 1.802-2.258M239.546 20.916c.352.313.661.392.928.237.186-.108.38-.334.579-.678.2-.344.382-.769.547-1.275.165-.506.304-1.085.416-1.738.112-.652.206-1.323.283-2.013.076-.689.139-1.365.19-2.028.05-.664.081-1.246.095-1.748.014-.502-.02-.873-.098-1.111-.079-.239-.195-.385-.348-.438-.153-.053-.307-.013-.46.12-.154.133-.282.37-.384.71-.103.34-.195.78-.277 1.321a39.872 39.872 0 00-.397 4.205 39.056 39.056 0 00-.03 2.496c.018.83.114 1.624.29 2.38.176.757.37 1.497.585 2.218.214.721.411 1.336.591 1.844s.334.852.462 1.033c.127.182.226.159.297-.069.07-.228.15-.662.237-1.302.088-.64.23-1.308.426-2.002.197-.695.41-1.273.64-1.734.23-.462.443-.78.64-.958.198-.176.36-.172.49.014.129.186.214.578.256 1.176.042.598.12 1.227.234 1.89.113.661.31 1.232.59 1.712.279.48.617.792 1.014.934.564.203 1.447-.587 2.65-2.371" fill="none" stroke="#007aff" stroke-width="1.32290413" stroke-linecap="round" stroke-linejoin="round" stroke-miterlimit="10"/><path d="M251.2 4.803c-.092-.326.004-.432.287-.316.207.084.464.374.772.87s.638 1.2.988 2.112c.35.912.7 1.954 1.047 3.127.347 1.172.64 2.488.878 3.946.238 1.46.405 3.001.5 4.627.096 1.625.113 3.252.05 4.88-.09 2.371-.78 5.861-2.071 10.47M259.263 17.913c1.549-.373 2.752-.611 3.61-.713a31.96 31.96 0 011.687-.158c.787-.052 1.85-.023 3.19.086M258.917 22.781c.794-.015 1.713-.08 2.758-.196s1.913-.209 2.604-.28c1.003-.103 2.64-.353 4.91-.751M46.864 59.61c.437.14.942.215 1.516.225a27.91 27.91 0 002.013-.048c.768-.043 1.513-.092 2.236-.147a26.944 26.944 0 013.388-.037M46.386 64.352c1.412-.184 2.581-.332 3.508-.444.63-.075 1.373-.156 2.227-.243a135.35 135.35 0 004.392-.532M66.064 47.267c-.42-.024-.766-.01-1.038.042-.185.036-.42.187-.707.452-.287.264-.608.711-.963 1.34-.355.629-.716 1.471-1.085 2.529-.369 1.057-.655 2.262-.86 3.615a32.868 32.868 0 00-.347 4.311c-.027 1.52.085 3.017.335 4.49.37 2.187 1.218 4.355 2.54 6.505" fill="none" stroke="#fff" stroke-width="1.32290413" stroke-linecap="round" stroke-linejoin="round" stroke-miterlimit="10"/><path d="M74.175 55.78c.042-.14-.032-.251-.223-.332a1.103 1.103 0 00-.381-.092 1.126 1.126 0 00-.406.07c-.15.05-.312.152-.487.306a2.708 2.708 0 00-.507.63 3.995 3.995 0 00-.404.927 5.18 5.18 0 00-.205 1.097c-.03.38-.021.713.026.998.048.285.139.505.273.658a.861.861 0 00.533.284c.22.036.472.024.753-.036.282-.06.566-.15.852-.274.287-.124.566-.235.837-.334.272-.099.539-.17.801-.215a3.35 3.35 0 01.721-.05c.218.01.407.084.567.223.159.138.286.331.38.58.095.25.162.541.203.876.04.334.055.71.044 1.128-.012.417-.091.845-.238 1.283a5.773 5.773 0 01-.601 1.257c-.254.4-.468.7-.643.901-.175.2-.384.392-.628.573-.243.181-.463.32-.66.414-.195.095-.384.16-.565.194a3.38 3.38 0 01-.568.058c-.198.003-.336-.008-.415-.036a1.334 1.334 0 01-.343-.223 1.64 1.64 0 01-.288-.275 1.624 1.624 0 01-.152-.343c-.084-.24-.05-.696.104-1.366M81.461 59.105c-.128-.222-.228-.31-.3-.264-.05.032-.094.101-.13.206-.037.105-.063.322-.079.65s.002.737.052 1.229c.05.49.119 1.051.206 1.68.087.63.173 1.256.256 1.88.084.623.16 1.184.232 1.68.071.498.13.877.175 1.139.046.261.078.42.096.478l.03.098c.003.009.005.006.005-.008l.003-.16c.001-.093-.017-.354-.056-.78-.038-.427-.08-.916-.123-1.469a29.662 29.662 0 01-.083-1.78c-.011-.636-.018-1.267-.02-1.895 0-.628.018-1.16.057-1.594.039-.436.101-.806.187-1.112.086-.306.19-.562.314-.77a1.39 1.39 0 01.42-.465c.157-.103.334-.167.53-.193.195-.025.416.018.663.128.247.111.51.286.789.524.28.238.535.512.767.822.232.31.381.647.448 1.011.066.365.042.779-.073 1.243-.116.463-.32.922-.614 1.376-.294.454-.604.811-.93 1.072-.327.26-.613.418-.858.472-.344.075-.51-.175-.5-.75M90.374 61.363c.019.093.117.141.296.145a.967.967 0 00.384-.078c.133-.054.286-.163.46-.324a2.58 2.58 0 00.475-.62c.143-.252.252-.541.325-.868.073-.327.108-.642.103-.946a1.357 1.357 0 00-.225-.77 1.008 1.008 0 00-.622-.412c-.27-.064-.574-.009-.915.165-.34.173-.673.461-.997.863a5.414 5.414 0 00-.804 1.397 5.77 5.77 0 00-.387 1.745 4.012 4.012 0 00.237 1.744c.203.529.486.975.848 1.338.361.363.758.59 1.19.68.433.092.897-.019 1.395-.33.719-.452 1.542-1.544 2.468-3.275M98.338 61.326c.18.034.405-.105.673-.415a3.761 3.761 0 00.778-1.385c.087-.277.143-.563.167-.857a2.042 2.042 0 00-.066-.773.897.897 0 00-.372-.506c-.18-.116-.415-.155-.707-.116-.292.039-.602.213-.93.523-.327.31-.634.706-.922 1.187a6.424 6.424 0 00-.679 1.665 6.944 6.944 0 00-.238 1.848c.007.603.13 1.117.37 1.543.24.425.583.717 1.03.878.448.16.941.154 1.48-.019.783-.25 1.69-.95 2.723-2.097M107.236 59.296c.156-.2.277-.441.364-.726a2.04 2.04 0 00.096-.448.321.321 0 00-.118-.275c-.085-.074-.217-.122-.394-.145a1.424 1.424 0 00-.58.056c-.21.06-.532.278-.964.652-.433.375-.81.786-1.132 1.235-.322.449-.59.966-.801 1.552a6.557 6.557 0 00-.385 1.708c-.044.552.02 1.04.191 1.463.172.423.435.737.79.94.353.204.777.289 1.271.254a3.674 3.674 0 001.42-.399c.656-.334 1.341-1.183 2.056-2.547M111.246 61.368c.166-.315.356-.697.57-1.146.138-.293.295-.685.47-1.177a41.647 41.647 0 001.11-3.81c.168-.7.298-1.365.39-1.992.09-.627.149-1.16.174-1.598.025-.439.007-.782-.053-1.03s-.155-.404-.283-.467c-.127-.064-.264-.042-.41.065-.146.107-.287.301-.423.582-.136.28-.239.627-.307 1.04-.068.411-.115.907-.143 1.485a72.815 72.815 0 00-.06 1.813c-.015.63-.025 1.322-.03 2.074-.006.753-.01 1.496-.01 2.23-.001.733.005 1.458.017 2.174.012.717.026 1.287.043 1.71.017.425.032.751.047.98.015.229.035.443.06.643.025.2.047.339.065.418.018.08.029.107.033.084l.034-.176c.018-.094.031-.241.04-.442.008-.2.03-.427.068-.68.037-.254.09-.54.157-.86.068-.32.278-.884.63-1.691.353-.808.708-1.438 1.064-1.891.357-.453.663-.77.918-.948.255-.179.44-.216.551-.112.113.103.17.38.173.83a21.34 21.34 0 01-.077 1.722c-.054.699-.084 1.283-.089 1.753-.005.47.082.948.261 1.434.18.486.427.81.743.972.316.162.674.185 1.074.068.575-.168 1.324-.932 2.247-2.292" fill="none" stroke="#7ec636" stroke-width="1.32290413" stroke-linecap="round" stroke-linejoin="round" stroke-miterlimit="10"/><path d="M124.467 65.489c.053-.254.13-.429.234-.524a.707.707 0 01.253-.15c.098-.033.322-.026.673.021.352.048.654.193.908.438.254.244.417.562.49.955.072.393.057.796-.046 1.212-.148.602-.675 1.32-1.578 2.155" fill="none" stroke="#fff" stroke-width="1.32290413" stroke-linecap="round" stroke-linejoin="round" stroke-miterlimit="10"/><path d="M137.613 57.339c-.119.072-.19.217-.214.436a9.28 9.28 0 00-.04.91c-.003.389.032.863.104 1.423.071.56.144 1.18.218 1.86.073.68.134 1.29.182 1.832.049.541.094.99.137 1.346l.067.568.003.014v-.021l-.035-.688a39.886 39.886 0 01-.036-1.77c-.003-.749.029-1.515.095-2.297.066-.783.171-1.45.315-2.003.143-.553.289-.98.436-1.28.147-.302.285-.491.412-.57a.378.378 0 01.402-.002c.14.076.282.235.428.476.145.242.282.57.41.984.13.414.26.885.394 1.412.133.528.302 1.291.506 2.29.205.998.33 1.596.375 1.794.045.197.125.223.24.078.114-.146.25-.488.41-1.027.158-.539.323-1.12.496-1.744.172-.624.354-1.192.545-1.705.191-.512.344-.881.46-1.106a3.72 3.72 0 01.247-.438l.106-.141c.021-.028.033-.019.035.028l.01.238c.006.113-.033.396-.116.849-.083.453-.152 1-.208 1.64a22.18 22.18 0 00-.085 1.945c0 .657.087 1.192.26 1.605.175.413.393.704.656.871.263.167.555.241.875.222.32-.019.643-.198.969-.535.47-.489.963-1.528 1.475-3.118M153.156 59.145c.235-.243.346-.427.332-.553a.609.609 0 00-.143-.294 1.386 1.386 0 00-.358-.307 1.972 1.972 0 00-.601-.23c-.249-.057-.563-.07-.942-.04-.38.03-.75.197-1.111.5-.361.302-.668.76-.92 1.372a6.797 6.797 0 00-.47 2.063c-.06.763-.034 1.438.078 2.024.113.586.313 1.025.602 1.318.288.292.635.468 1.04.527.406.059.843.014 1.31-.136.467-.15.92-.406 1.356-.769a5.201 5.201 0 001.142-1.364c.324-.546.527-1.072.607-1.576.081-.503.047-.946-.1-1.327-.147-.38-.354-.65-.62-.808-.385-.228-.923-.214-1.613.043M157.773 59.057a5.772 5.772 0 01-.225-.78l-.039-.212c-.002-.016.008 0 .03.05l.305.647c.18.382.374.876.582 1.483.209.606.428 1.21.658 1.81.23.6.455 1.091.676 1.476.22.384.438.634.652.751a.81.81 0 00.633.085c.208-.06.407-.286.596-.677.188-.39.37-.875.544-1.453.175-.578.321-1.085.44-1.521.12-.436.218-.778.296-1.026.118-.374.273-.708.464-1.004M167.561 61.696a.98.98 0 00.51-.19c.158-.114.428-.355.81-.724.381-.368.654-.663.82-.883.166-.22.29-.436.37-.65.082-.214.134-.412.154-.596a.69.69 0 00-.11-.482.836.836 0 00-.442-.309c-.202-.068-.454-.087-.757-.058-.302.03-.624.165-.965.407a4.341 4.341 0 00-.95.95c-.293.39-.529.857-.708 1.4a7.28 7.28 0 00-.34 1.713c-.047.6-.008 1.154.119 1.665.127.51.382.916.766 1.22.384.303.857.487 1.418.554.806.095 2.226-.486 4.258-1.742M175.44 59.596c-.023.607.017 1.22.119 1.84.067.414.162 1.02.282 1.821.121.801.204 1.277.25 1.427l.077.254c.006.019.009-.014.01-.099l.01-1.14c.007-.676.047-1.315.12-1.918.072-.603.172-1.142.3-1.616.127-.475.254-.837.381-1.088.127-.251.233-.407.316-.468.083-.061.169-.044.256.052.087.095.177.283.27.562.091.28.237.816.437 1.607.2.79.344 1.399.432 1.824.088.425.168.782.242 1.072.074.289.13.478.168.566.039.088.155-.114.348-.607.193-.493.39-1.065.592-1.717.201-.65.41-1.216.629-1.694.218-.478.403-.816.556-1.015.153-.198.259-.298.317-.3.057-.001.092.598.105 1.8.013 1.2.076 2.02.19 2.456.115.437.277.8.486 1.09.21.289.45.475.725.558.273.083.547.05.82-.097.393-.212.754-.876 1.084-1.993M189.107 61.477c.353-.155.636-.34.847-.555a3.43 3.43 0 00.389-.475 2.18 2.18 0 00.263-.514c.06-.173.105-.427.135-.762a5.33 5.33 0 00.013-.894c-.02-.262-.104-.46-.25-.594-.147-.134-.356-.19-.63-.167-.273.023-.578.19-.916.505a4.446 4.446 0 00-.893 1.202 5.845 5.845 0 00-.557 1.614 9.383 9.383 0 00-.172 1.798c0 .61.114 1.127.343 1.548.228.421.528.76.898 1.02.37.257.793.414 1.268.47.682.08 1.843-.492 3.483-1.713M195.532 59.016c-.128-.066-.193.016-.196.244-.002.229.097.749.298 1.561.201.813.397 1.627.588 2.441.191.815.311 1.272.36 1.372l.1.203c.017.036.036-.057.057-.279l.115-1.243c.057-.608.16-1.218.308-1.832a7.552 7.552 0 01.578-1.625c.236-.469.465-.823.687-1.063.221-.24.396-.386.526-.44.13-.054.225.013.286.2.06.186.094.81.101 1.87.007 1.062.014 1.841.02 2.338.008.496.078.914.21 1.251.132.338.303.59.514.756.211.167.438.258.68.275.244.016.476-.056.698-.216.222-.16.414-.366.574-.616.16-.25.285-.478.373-.683.13-.302.209-.678.237-1.129M206.63 51.9c-.05.392-.081.856-.094 1.393-.014.537-.033 1.195-.058 1.974-.026.78-.08 2.038-.167 3.775-.134 2.73-.237 4.807-.31 6.23" fill="none" stroke="#7ec636" stroke-width="1.32290413" stroke-linecap="round" stroke-linejoin="round" stroke-miterlimit="10"/><path d="M203.887 59.098c.161-.121.52-.261 1.074-.42.343-.1.783-.201 1.321-.308.785-.155 1.965-.298 3.54-.43" fill="none" stroke="#7ec636" stroke-width="1.32290413" stroke-linecap="round" stroke-linejoin="round" stroke-miterlimit="10"/><path d="M212.227 47.18c.249.217.495.502.737.854.243.353.54.813.894 1.383.353.569.7 1.185 1.043 1.848.342.662.622 1.465.841 2.406.22.941.358 1.975.417 3.1a24.496 24.496 0 01-.11 3.686 23.834 23.834 0 01-.732 3.94c-.521 1.902-1.59 4.165-3.206 6.788" fill="none" stroke="#fff" stroke-width="1.32290413" stroke-linecap="round" stroke-linejoin="round" stroke-miterlimit="10"/></svg>