<svg xmlns="http://www.w3.org/2000/svg" width="250.635" height="257.554"><path d="M4.252 5.67l-.475.048c-.014.001.016.006.09.013l1.31.124c.799.076 2.68.083 5.645.02 2.965-.062 7.929-.095 14.891-.1 6.963-.003 12.505-.038 16.628-.104 4.123-.066 7.311-.109 9.566-.127 2.255-.018 4.478-.053 6.67-.103 2.191-.05 7.354-.153 15.487-.308 8.133-.156 13.674-.276 16.622-.36 2.947-.082 7.505-.228 13.674-.435a8088.74 8088.74 0 0119.318-.626c6.71-.21 11.651-.344 14.822-.403 3.171-.058 6.504-.113 9.998-.163 3.495-.05 6.253-.104 8.276-.16 2.023-.058 3.98-.095 5.873-.111 1.892-.017 6.88-.11 14.962-.28 8.082-.168 14.069-.265 17.96-.288 3.891-.024 7.635-.037 11.232-.039 3.597-.002 5.993.004 7.189.018 1.196.015 3.03.105 5.504.27 2.474.166 4.897.318 7.27.456l6.86.396c3.227.187 7.477.475 12.75.865M247.12 2.527c-.303 1.301-.508 2.407-.615 3.318-.073.619-.122 1.687-.149 3.204-.026 1.518-.04 4.054-.04 7.61 0 3.554.015 6.272.046 8.153.03 1.88.048 7.058.05 15.532.005 8.474.024 14.845.059 19.111.035 4.267.06 7.093.078 8.48.017 1.386.084 4.28.2 8.684.116 4.403.227 9.54.334 15.413.107 5.873.186 10.456.239 13.747.052 3.292.113 6.558.182 9.798.07 3.24.157 8.338.264 15.293.107 6.955.163 19.258.169 36.908.006 17.65 0 28.12-.016 31.41-.017 3.29-.026 6.436-.028 9.44-.001 3.002-.01 5.825-.028 8.47a1872.49 1872.49 0 01-.103 10.383c-.052 4.278-.11 7.11-.173 8.493-.063 1.384-.153 2.498-.27 3.344a7.51 7.51 0 01-1.35 3.405M3.742 7.819c-.019 8.758-.006 14.094.038 16.007.03 1.334.141 2.807.333 4.418.192 1.611.377 3.26.554 4.947.178 1.687.321 3.44.43 5.26.11 1.82.187 3.757.231 5.809.044 2.052.069 4.116.073 6.191.005 2.075.03 4.28.078 6.613s.105 4.732.17 7.199c.067 2.466.111 4.915.134 7.346.024 2.432.036 4.862.039 7.29.002 2.428-.012 4.918-.042 7.472-.03 2.553-.103 5.161-.217 7.824-.114 2.662-.2 5.352-.259 8.07s-.121 5.55-.188 8.495a608.331 608.331 0 01-.253 8.542c-.1 2.75-.188 5.568-.262 8.454a379.05 379.05 0 00-.122 8.771c-.008 2.963-.003 5.95.012 8.965.016 3.014.04 6.002.073 8.962.032 2.96.041 5.988.028 9.084a202.619 202.619 0 01-.235 9.024c-.143 2.92-.26 5.815-.353 8.684-.092 2.87-.176 7.374-.253 13.515-.077 6.14-.172 10.758-.284 13.855a300.325 300.325 0 01-.447 8.88 310.79 310.79 0 00-.424 7.799c-.097 2.374-.15 4.538-.16 6.49-.009 1.952.033 3.795.127 5.531.093 1.736.239 3.405.437 5.008.198 1.603.363 3.044.494 4.323a61.2 61.2 0 01.268 3.594c.073 1.687-.248 2.98-.961 3.88M2.364 255.286c-.448-.347.348-.682 2.388-1.006 2.04-.323 3.604-.544 4.691-.663a66.71 66.71 0 013.823-.292c1.461-.075 4.735-.168 9.823-.28 5.087-.11 8.56-.183 10.418-.216 1.858-.033 3.619-.052 5.282-.055a265.229 265.229 0 0010.708-.228c1.999-.08 3.963-.142 5.893-.183 1.93-.042 4.813-.065 8.648-.07 3.835-.004 6.702-.014 8.601-.029a349.67 349.67 0 005.87-.096c2.015-.05 6.241-.228 12.679-.534 6.437-.307 11.713-.532 15.828-.676 4.115-.144 7.294-.234 9.538-.27 2.245-.037 4.4-.082 6.466-.133 2.066-.052 5.369-.172 9.91-.36 4.541-.187 7.89-.317 10.048-.39 2.158-.074 4.476-.13 6.955-.166a547.04 547.04 0 017.299-.061c2.386-.004 4.856-.023 7.408-.056 2.552-.034 5.174-.084 7.865-.15 2.69-.067 5.469-.15 8.335-.249 2.866-.099 5.684-.178 8.453-.236 2.77-.058 5.575-.121 8.415-.19 2.84-.069 5.676-.13 8.507-.186 2.831-.055 6.993-.085 12.485-.091 5.493-.006 9.376.015 11.651.063a335.17 335.17 0 0010.691.065c1.22-.014 2.199-.054 2.935-.118 1.077-.094 2.54-.163 4.39-.206" fill="none" stroke="#fcfcfc" stroke-width="4.535255719999999" stroke-linecap="round" stroke-linejoin="round" stroke-miterlimit="10"/><path d="M59.61 58.911c.013.316.126.778.34 1.385.212.608.37 1.076.475 1.406.105.33.397 1.198.878 2.603.48 1.404.892 2.614 1.236 3.63.344 1.014.63 1.84.86 2.475.23.635.397 1.11.503 1.425.107.315.344.977.712 1.987.368 1.01.608 1.686.72 2.029.113.343.259.84.437 1.493.261.955.666 2.227 1.213 3.813M45.082 73.167c.41.161.833.296 1.268.403.436.107.855.227 1.26.36.404.133.844.288 1.319.464.474.176 1.155.45 2.04.82.886.37 1.761.707 2.626 1.01.864.303 1.539.544 2.024.722.484.18.924.347 1.318.504.394.157.746.29 1.056.4.31.108.732.281 1.265.518.533.237 1.352.619 2.456 1.146 1.105.527 1.825.868 2.162 1.022.337.154.783.392 1.34.714.556.322.964.542 1.226.66M58.721 59.172c.085-.13.13-.113.132.05.003.122-.056.337-.175.646-.119.308-.268.642-.446 1-.18.357-.32.628-.424.812a7.84 7.84 0 01-.49.73c-.222.304-.63.8-1.223 1.488a48.065 48.065 0 01-1.294 1.459c-.27.284-.631.681-1.087 1.191-.455.51-.863.941-1.222 1.295-.36.353-.681.644-.965.873-.284.229-.492.41-.626.544a5.116 5.116 0 01-.443.39c-.16.128-.528.375-1.101.742-.574.367-1.038.648-1.392.843-.513.283-1.381.832-2.607 1.646" fill="none" stroke="#007aff" stroke-width="1.32290413" stroke-linecap="round" stroke-linejoin="round" stroke-miterlimit="10"/></svg>