<svg xmlns="http://www.w3.org/2000/svg" width="250.635" height="257.554"><path d="M4.252 5.67l-.475.048c-.014.001.016.006.09.013l1.31.124c.799.076 2.68.083 5.645.02 2.965-.062 7.929-.095 14.891-.1 6.963-.003 12.505-.038 16.628-.104 4.123-.066 7.311-.109 9.566-.127 2.255-.018 4.478-.053 6.67-.103 2.191-.05 7.354-.153 15.487-.308 8.133-.156 13.674-.276 16.622-.36 2.947-.082 7.505-.228 13.674-.435a8088.74 8088.74 0 0119.318-.626c6.71-.21 11.651-.344 14.822-.403 3.171-.058 6.504-.113 9.998-.163 3.495-.05 6.253-.104 8.276-.16 2.023-.058 3.98-.095 5.873-.111 1.892-.017 6.88-.11 14.962-.28 8.082-.168 14.069-.265 17.96-.288 3.891-.024 7.635-.037 11.232-.039 3.597-.002 5.993.004 7.189.018 1.196.015 3.03.105 5.504.27 2.474.166 4.897.318 7.27.456l6.86.396c3.227.187 7.477.475 12.75.865M247.12 2.527c-.303 1.301-.508 2.407-.615 3.318-.073.619-.122 1.687-.149 3.204-.026 1.518-.04 4.054-.04 7.61 0 3.554.015 6.272.046 8.153.03 1.88.048 7.058.05 15.532.005 8.474.024 14.845.059 19.111.035 4.267.06 7.093.078 8.48.017 1.386.084 4.28.2 8.684.116 4.403.227 9.54.334 15.413.107 5.873.186 10.456.239 13.747.052 3.292.113 6.558.182 9.798.07 3.24.157 8.338.264 15.293.107 6.955.163 19.258.169 36.908.006 17.65 0 28.12-.016 31.41-.017 3.29-.026 6.436-.028 9.44-.001 3.002-.01 5.825-.028 8.47a1872.49 1872.49 0 01-.103 10.383c-.052 4.278-.11 7.11-.173 8.493-.063 1.384-.153 2.498-.27 3.344a7.51 7.51 0 01-1.35 3.405M3.742 7.819c-.019 8.758-.006 14.094.038 16.007.03 1.334.141 2.807.333 4.418.192 1.611.377 3.26.554 4.947.178 1.687.321 3.44.43 5.26.11 1.82.187 3.757.231 5.809.044 2.052.069 4.116.073 6.191.005 2.075.03 4.28.078 6.613s.105 4.732.17 7.199c.067 2.466.111 4.915.134 7.346.024 2.432.036 4.862.039 7.29.002 2.428-.012 4.918-.042 7.472-.03 2.553-.103 5.161-.217 7.824-.114 2.662-.2 5.352-.259 8.07s-.121 5.55-.188 8.495a608.331 608.331 0 01-.253 8.542c-.1 2.75-.188 5.568-.262 8.454a379.05 379.05 0 00-.122 8.771c-.008 2.963-.003 5.95.012 8.965.016 3.014.04 6.002.073 8.962.032 2.96.041 5.988.028 9.084a202.619 202.619 0 01-.235 9.024c-.143 2.92-.26 5.815-.353 8.684-.092 2.87-.176 7.374-.253 13.515-.077 6.14-.172 10.758-.284 13.855a300.325 300.325 0 01-.447 8.88 310.79 310.79 0 00-.424 7.799c-.097 2.374-.15 4.538-.16 6.49-.009 1.952.033 3.795.127 5.531.093 1.736.239 3.405.437 5.008.198 1.603.363 3.044.494 4.323a61.2 61.2 0 01.268 3.594c.073 1.687-.248 2.98-.961 3.88M2.364 255.286c-.448-.347.348-.682 2.388-1.006 2.04-.323 3.604-.544 4.691-.663a66.71 66.71 0 013.823-.292c1.461-.075 4.735-.168 9.823-.28 5.087-.11 8.56-.183 10.418-.216 1.858-.033 3.619-.052 5.282-.055a265.229 265.229 0 0010.708-.228c1.999-.08 3.963-.142 5.893-.183 1.93-.042 4.813-.065 8.648-.07 3.835-.004 6.702-.014 8.601-.029a349.67 349.67 0 005.87-.096c2.015-.05 6.241-.228 12.679-.534 6.437-.307 11.713-.532 15.828-.676 4.115-.144 7.294-.234 9.538-.27 2.245-.037 4.4-.082 6.466-.133 2.066-.052 5.369-.172 9.91-.36 4.541-.187 7.89-.317 10.048-.39 2.158-.074 4.476-.13 6.955-.166a547.04 547.04 0 017.299-.061c2.386-.004 4.856-.023 7.408-.056 2.552-.034 5.174-.084 7.865-.15 2.69-.067 5.469-.15 8.335-.249 2.866-.099 5.684-.178 8.453-.236 2.77-.058 5.575-.121 8.415-.19 2.84-.069 5.676-.13 8.507-.186 2.831-.055 6.993-.085 12.485-.091 5.493-.006 9.376.015 11.651.063a335.17 335.17 0 0010.691.065c1.22-.014 2.199-.054 2.935-.118 1.077-.094 2.54-.163 4.39-.206" fill="none" stroke="#fcfcfc" stroke-width="4.535255719999999" stroke-linecap="round" stroke-linejoin="round" stroke-miterlimit="10"/><path d="M59.61 58.911c.013.316.126.778.34 1.385.212.608.37 1.076.475 1.406.105.33.397 1.198.878 2.603.48 1.404.892 2.614 1.236 3.63.344 1.014.63 1.84.86 2.475.23.635.397 1.11.503 1.425.107.315.344.977.712 1.987.368 1.01.608 1.686.72 2.029.113.343.259.84.437 1.493.261.955.666 2.227 1.213 3.813M45.082 73.167c.41.161.833.296 1.268.403.436.107.855.227 1.26.36.404.133.844.288 1.319.464.474.176 1.155.45 2.04.82.886.37 1.761.707 2.626 1.01.864.303 1.539.544 2.024.722.484.18.924.347 1.318.504.394.157.746.29 1.056.4.31.108.732.281 1.265.518.533.237 1.352.619 2.456 1.146 1.105.527 1.825.868 2.162 1.022.337.154.783.392 1.34.714.556.322.964.542 1.226.66M58.721 59.172c.085-.13.13-.113.132.05.003.122-.056.337-.175.646-.119.308-.268.642-.446 1-.18.357-.32.628-.424.812a7.84 7.84 0 01-.49.73c-.222.304-.63.8-1.223 1.488a48.065 48.065 0 01-1.294 1.459c-.27.284-.631.681-1.087 1.191-.455.51-.863.941-1.222 1.295-.36.353-.681.644-.965.873-.284.229-.492.41-.626.544a5.116 5.116 0 01-.443.39c-.16.128-.528.375-1.101.742-.574.367-1.038.648-1.392.843-.513.283-1.381.832-2.607 1.646" fill="none" stroke="#007aff" stroke-width="1.32290413" stroke-linecap="round" stroke-linejoin="round" stroke-miterlimit="10"/><path d="M129.028 140.885a1.303 1.303 0 00-.316-.779 7.544 7.544 0 00-.519-.579 1.726 1.726 0 00-1.115-.49c-.206-.01-.43.073-.674.246-.244.174-.486.41-.727.71-.241.298-.437.629-.586.99a3.79 3.79 0 00-.274 1.147c-.033.403.002.808.107 1.215.104.407.278.781.523 1.122.246.341.522.58.829.718.307.138.627.186.96.144.332-.041.638-.211.918-.51.28-.299.523-.656.732-1.071.209-.415.368-.893.478-1.433.11-.54.183-1.108.218-1.703a8.47 8.47 0 00-.032-1.56c-.057-.445-.205-.774-.445-.987a1.323 1.323 0 00-.838-.343c-.32-.016-.642.115-.968.39-.326.277-.62.66-.881 1.151a7.342 7.342 0 00-.612 1.566 8.277 8.277 0 00-.27 1.6 4.92 4.92 0 00.108 1.441c.105.448.307.818.607 1.111.3.293.645.46 1.036.5.391.04.796-.123 1.214-.492a5.828 5.828 0 001.132-1.394c.336-.561.605-1.167.807-1.818.201-.651.3-1.22.297-1.706-.003-.485-.15-.858-.439-1.118a1.74 1.74 0 00-1.064-.437c-.42-.031-.84.08-1.262.335a3.767 3.767 0 00-1.1 1.026 5.84 5.84 0 00-.723 1.294c-.17.434-.264.835-.281 1.203-.017.368.064.666.243.896.179.229.416.382.71.459.296.077.611.07.947-.018.335-.088.646-.293.933-.614.286-.32.525-.758.716-1.315a7.13 7.13 0 00.36-1.765c.05-.621-.011-1.143-.18-1.566-.17-.424-.444-.714-.822-.871-.378-.157-.784-.153-1.218.013-.434.165-.817.49-1.15.976a5.13 5.13 0 00-.728 1.596 6.135 6.135 0 00-.218 1.666c.008.533.124.988.348 1.367.224.38.494.651.81.815.317.164.66.236 1.028.215.369-.02.722-.172 1.06-.456.34-.284.637-.684.893-1.2.256-.516.43-1.11.52-1.781.092-.672.104-1.27.035-1.794-.068-.523-.253-.907-.556-1.152-.302-.245-.666-.356-1.093-.332-.426.024-.865.235-1.317.634-.452.399-.851.916-1.198 1.55a6.424 6.424 0 00-.698 1.915c-.119.642-.12 1.208-.006 1.7.114.492.34.88.677 1.163.336.283.704.445 1.105.486.4.04.797-.102 1.192-.43.395-.327.751-.766 1.068-1.315a6.42 6.42 0 00.693-1.766c.145-.627.198-1.176.159-1.647-.04-.47-.23-.817-.571-1.038-.34-.221-.75-.307-1.23-.257-.48.05-.93.264-1.35.642-.42.377-.74.816-.956 1.317-.216.501-.332.99-.347 1.467-.016.476.081.907.29 1.292.209.384.456.662.742.832.285.17.592.231.921.183.33-.048.646-.243.95-.585.304-.342.576-.767.817-1.276.24-.509.41-1.056.506-1.643.096-.586.116-1.074.06-1.464-.057-.39-.253-.647-.59-.77-.337-.122-.73-.111-1.178.032-.448.144-.848.436-1.2.877-.352.44-.603.938-.753 1.494a4.714 4.714 0 00.282 3.251c.233.49.494.84.782 1.052.288.212.6.253.936.123.336-.13.643-.455.924-.972.28-.517.518-1.145.713-1.882.196-.737.329-1.465.397-2.183.068-.719.073-1.27.013-1.655s-.24-.636-.541-.752c-.3-.117-.64-.105-1.02.033-.38.139-.726.41-1.04.815a3.993 3.993 0 00-.691 1.399 5.704 5.704 0 00-.214 1.566c.003.516.11.953.323 1.312.211.36.46.605.746.737s.605.142.957.03c.353-.114.689-.354 1.008-.72.319-.367.563-.791.733-1.273.17-.481.266-.933.289-1.353.022-.421-.08-.752-.306-.994-.226-.242-.525-.387-.896-.435a1.573 1.573 0 00-1.073.256 2.428 2.428 0 00-.839.937 3.587 3.587 0 00-.4 1.284c-.05.45-.052.871-.003 1.265.05.393.163.715.342.966.18.25.39.415.63.494.242.079.507.068.795-.032.289-.1.562-.323.82-.67.256-.347.452-.743.586-1.187.134-.444.21-.845.23-1.202.018-.358-.092-.632-.33-.824-.238-.191-.537-.297-.898-.316-.36-.019-.698.084-1.011.31a2.273 2.273 0 00-.724.862c-.17.349-.269.7-.297 1.053a2.12 2.12 0 00.132.97c.118.294.281.522.492.684.21.163.431.258.663.285.23.028.452-.053.662-.243.21-.19.398-.45.563-.781a4.09 4.09 0 00.355-1.015c.07-.346.112-.648.124-.905.013-.257-.062-.438-.223-.543-.161-.105-.388-.13-.68-.073-.293.056-.568.222-.826.498a3.054 3.054 0 00-.597.925c-.14.34-.224.666-.25.977-.025.31 0 .59.075.837.075.248.191.438.35.572a.686.686 0 00.522.174c.19-.017.38-.159.567-.424.188-.266.34-.595.454-.988a5.37 5.37 0 00.208-1.164c.024-.382-.011-.707-.105-.974-.095-.268-.26-.445-.499-.531a1.255 1.255 0 00-.771-.017c-.277.075-.534.263-.772.565-.238.302-.42.628-.546.977a3.252 3.252 0 00-.208.945c-.012.282.038.512.15.692.113.18.27.296.474.35.204.053.427.044.67-.029.244-.073.489-.254.735-.545.247-.29.43-.619.552-.985.121-.366.188-.682.2-.946.012-.265-.075-.464-.26-.599-.186-.134-.432-.211-.739-.231a1.8 1.8 0 00-1.568.695c-.195.246-.332.53-.412.849-.08.32-.118.615-.115.888.004.273.081.504.233.694.15.19.327.31.528.359a.805.805 0 00.612-.109c.207-.121.406-.363.595-.725.19-.362.336-.804.44-1.328.102-.523.159-1.025.169-1.503.01-.479-.083-.857-.281-1.134a1.331 1.331 0 00-.75-.539c-.303-.081-.635-.03-.996.155-.362.184-.714.49-1.056.918a5.461 5.461 0 00-.791 1.31c-.185.445-.269.849-.251 1.212.017.363.154.669.408.916.255.247.554.414.898.5.345.085.66.066.948-.059.287-.125.529-.362.725-.711.197-.35.335-.77.416-1.261.08-.491.11-.969.087-1.433-.021-.464-.124-.846-.306-1.146-.183-.3-.404-.502-.664-.604-.26-.102-.54-.098-.842.012-.302.11-.583.388-.841.832a5.444 5.444 0 00-.582 1.465c-.129.531-.172 1.013-.131 1.444.041.432.188.763.44.993.356.326 1.184.01 2.483-.95M189.293 35.63c.079-.563.11-.938.09-1.125a.762.762 0 00-.19-.403.97.97 0 00-.498-.302c-.216-.062-.477-.063-.781-.003-.304.06-.598.232-.881.514-.284.283-.5.64-.648 1.072a4.993 4.993 0 00-.254 1.424c-.022.518.03.99.154 1.413.125.425.32.757.585.998.265.24.573.392.925.453.352.06.708 0 1.068-.18.36-.181.687-.494.982-.938a6.18 6.18 0 00.72-1.537c.185-.58.314-1.089.387-1.526.073-.438.077-.793.012-1.065-.065-.271-.257-.46-.576-.565-.319-.105-.69-.133-1.113-.084a2.98 2.98 0 00-1.24.45 4.463 4.463 0 00-1.044.893 5.362 5.362 0 00-.736 1.118 4.012 4.012 0 00-.38 1.132c-.055.353-.056.658-.001.916s.193.44.414.544c.221.105.533.097.934-.026s.82-.388 1.258-.797a6.887 6.887 0 001.102-1.306c.296-.462.52-.92.67-1.376.149-.455.222-.863.219-1.221a1.002 1.002 0 00-.421-.845c-.278-.204-.64-.31-1.09-.318a2.284 2.284 0 00-1.281.374 3.51 3.51 0 00-1.022.985c-.276.4-.48.827-.616 1.282a5.676 5.676 0 00-.232 1.374c-.02.46.044.842.192 1.146.148.304.362.52.643.646.28.127.612.16.994.101.383-.06.756-.252 1.118-.576.363-.325.67-.733.923-1.223.253-.49.432-.979.536-1.467.104-.488.119-.91.045-1.264-.073-.355-.28-.629-.618-.822a2.422 2.422 0 00-1.183-.298 2.461 2.461 0 00-1.273.331c-.4.227-.737.509-1.01.845-.274.336-.458.689-.553 1.06-.094.37-.112.746-.055 1.126.058.38.21.72.455 1.024.246.303.553.523.92.661a2.49 2.49 0 001.167.138c.41-.045.773-.218 1.09-.517.318-.3.555-.663.713-1.09.159-.429.252-.841.28-1.238a1.966 1.966 0 00-.196-1.061 1.34 1.34 0 00-.742-.656 1.938 1.938 0 00-1.067-.085c-.377.07-.71.26-1 .57a3.38 3.38 0 00-.68 1.068 4.721 4.721 0 00-.31 1.296c-.047.461-.045.913.005 1.356.05.443.161.804.335 1.083.174.28.386.451.638.515.25.063.546-.01.884-.219.339-.209.666-.538.983-.986.316-.45.575-.925.775-1.427.2-.503.323-.941.366-1.316.044-.374-.023-.655-.2-.843-.175-.188-.474-.294-.894-.318a3.44 3.44 0 00-1.28.176c-.433.142-.794.32-1.084.532-.29.213-.485.42-.587.62a1.067 1.067 0 00-.122.594c.02.194.12.386.303.574.183.188.416.327.698.418.283.091.571.138.864.142.293.003.583-.106.872-.328.288-.222.537-.513.747-.872.21-.36.36-.729.454-1.107.093-.38.117-.696.072-.95-.045-.255-.22-.41-.526-.465-.307-.055-.68.043-1.12.295-.439.253-.837.605-1.193 1.058a4.067 4.067 0 00-.741 1.415c-.138.49-.19.92-.155 1.287.034.368.158.637.371.807.214.17.48.25.796.244.317-.007.623-.138.92-.392.296-.255.549-.569.76-.943.21-.373.364-.748.462-1.122.099-.375.15-.701.155-.98.004-.278-.083-.494-.263-.648-.18-.154-.418-.244-.714-.27a1.395 1.395 0 00-.857.206 2.207 2.207 0 00-.69.643 2.482 2.482 0 00-.384.878 4.765 4.765 0 00-.12.936 1.98 1.98 0 00.124.788c.09.223.217.37.382.44.165.071.355.064.57-.02.216-.083.433-.285.654-.607.22-.321.401-.681.543-1.08.142-.4.23-.76.262-1.084.032-.323-.014-.56-.137-.712-.123-.151-.32-.229-.59-.232-.27-.004-.537.09-.799.282-.262.193-.469.419-.622.679-.152.26-.245.541-.279.843a2.37 2.37 0 00.044.833c.063.252.179.446.347.58.17.134.352.211.55.23.197.02.384-.04.56-.177.176-.136.327-.35.453-.64.126-.29.216-.585.271-.884.055-.3.088-.56.1-.783.01-.223-.056-.379-.198-.468a.91.91 0 00-.533-.118c-.213.01-.414.101-.605.277-.19.175-.342.38-.457.614-.115.234-.18.462-.199.684-.017.222-.012.407.016.555a.49.49 0 00.19.327c.1.07.218.1.355.088.136-.011.277-.102.422-.271.146-.17.277-.384.395-.642.117-.257.197-.501.238-.731.042-.23.05-.401.024-.515-.025-.114-.1-.183-.224-.207a.704.704 0 00-.42.069 1.2 1.2 0 00-.447.379 2.088 2.088 0 00-.324.598 2.555 2.555 0 00-.136 1.05c.01.103.062.162.152.178.09.016.194-.039.312-.163.117-.125.244-.33.38-.619.135-.287.209-.463.22-.527.012-.063-.025-.1-.112-.11a.413.413 0 00-.267.067.82.82 0 00-.239.227c-.068.096-.073.133-.014.11l.802-.314M75.885 82.578a1.126 1.126 0 00-.262.208c-.107.105-.213.22-.319.346-.106.126-.212.257-.319.393a10.585 10.585 0 01-.734.842 7.23 7.23 0 00-.42.48c-.119.149-.208.264-.267.346a7.35 7.35 0 01-.397.462c-.205.227-.35.39-.433.49-.084.099-.205.23-.363.394-.157.164-.344.348-.559.552-.215.205-.374.37-.479.496l-.322.386a5.47 5.47 0 01-.322.354c-.104.104-.232.237-.385.398a9.488 9.488 0 01-.4.4c-.112.106-.24.229-.38.37-.14.14-.246.246-.315.317-.07.071-.174.198-.315.381-.141.183-.244.318-.308.404a2.082 2.082 0 00-.153.235c-.039.07-.077.115-.114.134" fill="none" stroke="#7ec636" stroke-width="1.32290413" stroke-linecap="round" stroke-linejoin="round" stroke-miterlimit="10"/><path d="M74.96 73.66l-.007-.149-.002.009-.012.187c-.008.116-.01.216-.008.302.002.085.027.289.075.61a22.743 22.743 0 01.169 1.446 17.19 17.19 0 00.108.951c.028.208.054.405.076.592l.073.596c.026.212.042.41.049.595.006.184.014.38.025.586.01.206.035.45.075.73.039.282.1.58.183.893.084.313.138.541.164.684l.042.227v.004l-.003-.028-.097-.64c-.061-.402-.11-.72-.144-.955a19.677 19.677 0 01-.09-.681c-.025-.22-.055-.54-.09-.964a95.664 95.664 0 01-.08-1.036 17.389 17.389 0 01-.038-.685 12.382 12.382 0 00-.108-1.347l-.086-.67a7.676 7.676 0 00-.08-.48 18.248 18.248 0 01-.098-.537 7.887 7.887 0 01-.07-.532 9.79 9.79 0 00-.041-.378 3.2 3.2 0 01-.024-.297.71.71 0 00-.036-.239l-.037-.074c-.005-.011-.01-.004-.012.02l-.04.316" fill="none" stroke="#000" stroke-width="1.32290413" stroke-linecap="round" stroke-linejoin="round" stroke-miterlimit="10"/><path d="M68.864 63.776c-.028.073.019.173.14.3.08.085.143.153.188.205.045.052.111.148.2.288.088.14.18.278.273.413.094.135.186.278.278.43.09.15.238.38.441.686.204.306.349.514.436.624.087.11.163.224.228.343.065.118.116.218.153.3a2.5 2.5 0 00.122.235c.044.076.162.238.353.487.19.249.332.454.425.616.093.161.194.32.303.475.109.156.228.319.358.489.13.17.25.346.364.529l.267.423c.065.1.12.2.163.304.044.102.108.222.193.358l.205.33c.051.085.114.17.19.257.074.087.08.115.015.084" fill="none" stroke="#7ec636" stroke-width="1.32290413" stroke-linecap="round" stroke-linejoin="round" stroke-miterlimit="10"/><path d="M67.399 91.242c-.752.017-1.278.006-1.579-.032a6.918 6.918 0 00-.588-.053 14.753 14.753 0 00-.627-.012c-.233 0-.482-.011-.747-.034a10.75 10.75 0 01-.58-.061c-.12-.018-.426-.027-.918-.028-.492 0-.819-.01-.981-.026a7.15 7.15 0 01-.429-.054 5.455 5.455 0 00-.675-.037 16.488 16.488 0 01-.738-.022 2.88 2.88 0 01-.408-.049l-.173-.037c-.008-.002-.003-.002.016-.002l.385.004c.237.002.538.015.904.04.366.024.714.061 1.045.112.331.052.605.09.822.113.217.024.485.064.804.12.318.055.57.086.755.095.185.008.42.028.706.062.287.033.542.05.767.051.225.002.43.007.616.017.186.01.307.05.363.116M58.267 90.442a8.214 8.214 0 00-.523-.456 15.595 15.595 0 01-1.208-1.085c-.214-.21-.43-.415-.65-.615-.22-.2-.424-.374-.609-.522-.185-.147-.397-.31-.635-.485-.238-.177-.544-.39-.92-.641-.376-.25-.63-.428-.762-.532a2.706 2.706 0 01-.371-.353 2.642 2.642 0 00-.268-.277.984.984 0 01-.16-.166 77.708 77.708 0 01-.083-.11c-.012-.016-.007-.016.014 0l.152.112c.08.059.202.163.369.312.166.149.416.355.75.617a35.79 35.79 0 001.26.95c.165.121.314.241.444.36.13.118.345.328.643.629.298.3.506.502.623.603.117.101.235.191.355.27.12.08.314.247.585.502.27.254.516.455.736.602" fill="none" stroke="#000" stroke-width="1.32290413" stroke-linecap="round" stroke-linejoin="round" stroke-miterlimit="10"/></svg>