<svg xmlns="http://www.w3.org/2000/svg" width="23.225" height="24.321"><path d="M15.189.661c.013.316.126.778.34 1.386.212.607.37 1.076.475 1.406.105.33.397 1.197.878 2.602.48 1.405.892 2.615 1.236 3.63.344 1.015.63 1.84.86 2.475.23.635.397 1.11.503 1.425.107.315.344.977.712 1.987.368 1.01.608 1.686.72 2.03.113.342.259.84.437 1.492.261.956.666 2.227 1.213 3.814M.661 14.918c.41.16.833.295 1.268.402.436.107.855.227 1.26.36.404.134.844.288 1.319.465.474.176 1.155.449 2.04.82.886.37 1.761.706 2.626 1.009.864.303 1.539.544 2.024.723.485.179.924.347 1.318.504.394.157.746.29 1.056.399.31.109.732.282 1.265.518.533.237 1.352.62 2.456 1.146 1.105.528 1.825.868 2.162 1.022.337.154.783.393 1.34.715.556.322.964.541 1.226.659M14.3.923c.085-.13.13-.114.132.05.003.122-.056.337-.175.645-.119.309-.268.642-.446 1-.18.358-.32.628-.424.812a7.84 7.84 0 01-.49.73c-.222.304-.63.8-1.223 1.488a48.065 48.065 0 01-1.294 1.46c-.27.283-.631.68-1.087 1.19-.455.51-.863.942-1.222 1.295-.36.354-.681.645-.965.874-.283.228-.492.41-.626.543a5.116 5.116 0 01-.443.391c-.16.127-.528.374-1.101.741-.574.367-1.038.648-1.392.843-.513.283-1.381.832-2.607 1.647" fill="none" stroke="#007aff" stroke-width="1.32290413" stroke-linecap="round" stroke-linejoin="round" stroke-miterlimit="10"/></svg>