<svg xmlns="http://www.w3.org/2000/svg" width="311.971" height="327.444"><path d="M204.98 8.896c.165 4.25 1.662 10.466 4.494 18.646 2.832 8.181 4.943 14.493 6.334 18.935 1.391 4.443 5.283 16.123 11.676 35.041 6.393 18.918 11.876 35.21 16.45 48.88 4.574 13.668 8.388 24.779 11.443 33.333 3.054 8.553 5.288 14.95 6.702 19.19 1.414 4.24 4.572 13.16 9.472 26.76 4.901 13.6 8.1 22.708 9.597 27.326 1.497 4.617 3.429 11.316 5.795 20.098 3.467 12.866 8.844 29.982 16.132 51.35M8.896 199.924A134.157 134.157 0 0025.93 205.4a229.548 229.548 0 0116.922 4.908c5.434 1.811 11.34 3.914 17.715 6.307 6.376 2.393 15.511 6.1 27.405 11.123a643.108 643.108 0 0035.26 13.71c11.612 4.117 20.674 7.39 27.187 9.82a732.324 732.324 0 0117.703 6.84c5.29 2.133 10.02 3.94 14.19 5.42 4.169 1.482 9.832 3.828 16.99 7.039 7.158 3.21 18.15 8.388 32.977 15.532 14.827 7.144 24.5 11.76 29.022 13.85 4.52 2.089 10.514 5.313 17.98 9.67 7.466 4.36 12.952 7.336 16.458 8.93M193.013 12.366c1.154-1.746 1.746-1.519 1.777.681.023 1.637-.772 4.527-2.387 8.67-1.614 4.144-3.633 8.618-6.057 13.423-2.424 4.805-4.336 8.44-5.737 10.903-1.4 2.463-3.605 5.73-6.613 9.8-3.007 4.072-8.52 10.721-16.535 19.95-8.016 9.228-13.84 15.748-17.474 19.56-3.633 3.81-8.525 9.133-14.674 15.968-6.15 6.834-11.65 12.62-16.504 17.355-4.854 4.736-9.193 8.636-13.018 11.699-3.825 3.063-6.642 5.49-8.453 7.282a68.745 68.745 0 01-5.966 5.235c-2.167 1.698-7.119 5.002-14.855 9.913-7.736 4.91-13.988 8.668-18.756 11.275-6.908 3.775-18.62 11.113-35.138 22.014" fill="none" stroke="#007aff" stroke-width="17.79120601" stroke-linecap="round" stroke-linejoin="round" stroke-miterlimit="10"/><path d="M195.973 90.462c.549-.361.9-.879 1.056-1.552.104-.454.148-.938.13-1.45-.018-.513-.088-.91-.208-1.195a4.305 4.305 0 00-.587-.942 4.712 4.712 0 00-1.065-.966c-.44-.3-.957-.542-1.553-.727-.595-.184-1.298-.304-2.108-.359a17.072 17.072 0 00-2.497.019c-.854.067-1.718.248-2.592.542-.875.294-1.775.655-2.701 1.082-.927.427-1.848.942-2.764 1.544-.917.601-1.81 1.33-2.682 2.186a24.103 24.103 0 00-2.333 2.637c-.684.902-1.17 1.789-1.461 2.66a6.096 6.096 0 00-.302 2.584c.089.853.458 1.598 1.109 2.236.65.638 1.608 1.125 2.872 1.46 1.265.336 2.664.535 4.196.599a26.15 26.15 0 004.495-.194c1.464-.192 2.81-.5 4.038-.924 1.228-.424 2.275-.951 3.142-1.583.867-.631 1.542-1.372 2.025-2.223a6.461 6.461 0 00.843-2.686 5.992 5.992 0 00-.413-2.742 23.522 23.522 0 00-1.045-2.306c-.546-1.03-.93-1.794-1.15-2.289M182.05 107.758l-.589.048M198.01 111.23c-.08-.198-.054-.41.077-.638.088-.153.31-.34.666-.563.355-.222.808-.466 1.359-.731.55-.266 1.114-.507 1.69-.725a11.636 11.636 0 011.626-.492c.507-.11.915-.174 1.224-.191.309-.018.534.05.676.203.142.153.25.351.323.594.073.243.12.516.141.82.021.304-.03.67-.152 1.098-.123.428-.389.929-.798 1.502a10.69 10.69 0 01-1.57 1.719 12.736 12.736 0 01-2.211 1.574c-.837.477-1.74.875-2.708 1.195-.968.32-2.02.543-3.154.671a34.964 34.964 0 01-3.561.212 27.212 27.212 0 01-3.38-.157c-1.016-.117-1.857-.339-2.526-.667-.668-.327-1.11-.728-1.324-1.203-.214-.475-.155-.935.177-1.38.333-.446.854-.794 1.565-1.044a7.854 7.854 0 012.011-.445c.63-.047 1.164-.004 1.603.13.439.135.695.375.769.72.073.345-.085.752-.475 1.22-.39.47-.821.981-1.296 1.537-.474.555-.889 1.166-1.245 1.832a6.859 6.859 0 00-.72 2.105 6.211 6.211 0 00-.007 2.12c.12.677.424 1.252.915 1.725.49.474 1.051.8 1.683.98.926.264 2.102.292 3.527.082M193.209 132.033c.134.375.005.763-.385 1.164-.265.273-.666.563-1.2.87-.77.443-2.478.873-5.124 1.29M205.49 144.723l-.114-.225v-.001l.028.044.543.869c.492.787 1.407 2.546 2.745 5.276M221.974 158.616c.086.09.19.088.313-.006.086-.067.174-.188.265-.363.09-.176.15-.408.18-.698a5.06 5.06 0 00-.006-.974 3.375 3.375 0 00-.31-1.104 5.16 5.16 0 00-.715-1.115c-.303-.368-.71-.703-1.218-1.005-.509-.302-1.142-.534-1.9-.697-.759-.163-1.628-.253-2.609-.269a9.49 9.49 0 00-2.945.426c-.982.3-1.934.726-2.855 1.279a11.22 11.22 0 00-2.561 2.137c-.786.871-1.354 1.822-1.705 2.852-.35 1.03-.452 1.998-.303 2.903.149.905.58 1.768 1.296 2.588.715.82 1.602 1.514 2.66 2.082 1.058.568 2.225.914 3.5 1.037a8.25 8.25 0 003.64-.438c1.15-.416 2.111-.96 2.882-1.636.77-.674 1.32-1.329 1.648-1.963.328-.635.527-1.215.596-1.741a8.392 8.392 0 00-.046-2.433M211.772 173.727c.138-.05.277-.098.416-.147M230.958 173.932c-.158-.143-.372-.172-.642-.088-.183.057-.46.202-.832.437-.372.234-.942.57-1.709 1.005-.767.436-1.74.918-2.922 1.448a67.332 67.332 0 01-3.826 1.569c-2.038.767-4.173 1.75-6.406 2.946M216.825 187.773c.052.167.027.366-.075.596-.068.153-.252.359-.551.617-.3.259-.73.511-1.29.758-.81.357-2.38.587-4.711.691M230.576 203.45c.06-.09.121-.086.182.013.062.099.158.389.289.87.189.693.701 2.003 1.538 3.93M248.687 211.988c-.471.132-1.101.426-1.89.881-.788.456-1.563.92-2.327 1.393s-1.765 1.006-3.005 1.598c-1.24.592-2.555 1.205-3.946 1.837a283.16 283.16 0 00-4.106 1.906 33.212 33.212 0 00-5.657 3.398M231.535 226.858l-1.057-.173M251.166 231.23c.527-.004.897-.072 1.108-.204.146-.091.277-.208.394-.35.117-.142.237-.36.36-.653a4.65 4.65 0 00.28-.994c.064-.368.08-.725.049-1.07-.032-.345-.225-.672-.58-.98-.356-.307-.883-.553-1.582-.739-.7-.185-1.544-.298-2.533-.339-.989-.04-2.11.04-3.366.243-1.255.203-2.516.6-3.782 1.195a13.49 13.49 0 00-3.426 2.294c-1.018.935-1.761 1.873-2.23 2.813-.47.94-.648 1.847-.533 2.722.114.874.59 1.62 1.426 2.238.837.618 1.941 1.013 3.313 1.185 1.372.172 2.796.127 4.273-.135a16.077 16.077 0 004.248-1.383c1.354-.659 2.445-1.427 3.272-2.303.827-.876 1.397-1.714 1.708-2.516.455-1.17.303-2.394-.455-3.675M243.463 245.876c-.36.06-.777.306-1.25.737a7.24 7.24 0 01-1.685 1.129c-.95.468-2.355.92-4.216 1.358M159.727 139c.251-.044.507-.171.766-.381s.477-.402.654-.575c.177-.174.367-.398.568-.674.202-.276.342-.58.421-.908.08-.33.112-.68.097-1.05-.015-.372-.177-.749-.487-1.132-.31-.383-.779-.73-1.406-1.041-.628-.311-1.378-.538-2.25-.68-.872-.141-1.893-.208-3.062-.2-1.17.008-2.431.218-3.786.631a14.392 14.392 0 00-3.837 1.83 21.331 21.331 0 00-3.255 2.668c-.966.971-1.686 2.036-2.158 3.194-.473 1.159-.674 2.208-.604 3.148.07.94.552 1.71 1.443 2.312.891.6 2.063 1.06 3.514 1.38 1.452.319 2.964.475 4.536.47 1.572-.007 3.04-.212 4.406-.617 1.366-.405 2.463-.918 3.291-1.54.829-.622 1.335-1.34 1.52-2.153.185-.814.07-1.603-.344-2.369-.617-1.138-1.459-2.194-2.524-3.17M150.429 152.766l-.711.273M167.73 150.802c-.327.016-.825.183-1.493.501a56.68 56.68 0 00-1.934.966c-.62.325-1.268.67-1.942 1.034-.674.364-1.287.711-1.84 1.041-.553.33-.986.645-1.3.943-.313.299-.519.606-.616.923-.097.318-.074.658.07 1.021.146.363.417.729.814 1.097.58.537 1.46 1.248 2.638 2.132" fill="none" stroke="#7ec636" stroke-width="2.07853766" stroke-linecap="round" stroke-linejoin="round" stroke-miterlimit="10"/><path d="M164.367 158.46c-.268.045-1.096.463-2.484 1.254-2.048 1.167-4.602 2.385-7.663 3.654M158.967 171.59c.136.516-.04 1.058-.527 1.627-.329.384-.767.757-1.315 1.119-.795.526-2.192 1.094-4.19 1.704M182.362 190.475c.258.023.584-.133.978-.468.258-.218.472-.431.641-.64.17-.207.349-.462.536-.762.187-.3.34-.628.461-.981a3.5 3.5 0 00.19-1.091c.005-.374-.184-.77-.567-1.192-.382-.42-.957-.806-1.723-1.156-.766-.35-1.648-.617-2.645-.8-.998-.184-2.098-.259-3.302-.225a10.73 10.73 0 00-3.534.707c-1.152.438-2.26 1.068-3.324 1.892-1.063.824-2.046 1.851-2.948 3.082-.902 1.23-1.553 2.393-1.951 3.49-.4 1.095-.574 2.128-.526 3.098.049.97.461 1.784 1.238 2.442.776.657 1.737 1.084 2.882 1.282 1.146.197 2.35.184 3.615-.038a14.522 14.522 0 003.698-1.184c1.2-.567 2.196-1.195 2.985-1.885.79-.69 1.345-1.309 1.667-1.856.474-.808.577-1.634.308-2.479M171.631 203.714l-.762.073M192.207 209.643c.32-.524.542-.98.668-1.37.085-.265.124-.631.117-1.1a2.786 2.786 0 00-.387-1.358c-.25-.437-.609-.847-1.076-1.23a4.689 4.689 0 00-1.587-.853c-.591-.185-1.306-.25-2.146-.194-.839.056-1.853.355-3.04.897-1.19.543-2.373 1.28-3.553 2.21a25.13 25.13 0 00-3.195 2.992c-.95 1.065-1.601 2.084-1.953 3.06-.351.975-.372 1.79-.062 2.449.31.658.981 1.1 2.014 1.327 1.033.227 2.245.279 3.637.154a19.41 19.41 0 004.061-.801c1.317-.41 2.427-.85 3.332-1.317 1.333-.689 2.06-1.628 2.179-2.82M183.358 223.973c-.426.264-.855.5-1.287.71-.288.139-.642.282-1.061.428-.605.212-1.78.494-3.525.847M117.865 169.43l-.157-.244v-.002l.013.02.335.504c.212.318.47.78.773 1.386.439.876 1.078 2.52 1.917 4.934M133.91 186.825c.382-.32.684-.589.905-.806a2 2 0 00.392-.563c.11-.228.179-.501.206-.82.026-.317-.026-.676-.157-1.076-.13-.4-.35-.826-.658-1.278a5.833 5.833 0 00-1.158-1.243c-.464-.377-1.036-.66-1.717-.852-.681-.191-1.482-.296-2.403-.315-.921-.02-1.888.113-2.901.397-1.013.284-2.074.776-3.184 1.476a21.11 21.11 0 00-3.091 2.367c-.95.878-1.668 1.822-2.153 2.83-.485 1.009-.74 1.998-.766 2.967-.026.97.22 1.76.74 2.374.519.613 1.225 1.035 2.117 1.265.893.23 1.914.29 3.062.181 1.149-.11 2.366-.394 3.65-.853a17.682 17.682 0 003.492-1.675c1.042-.657 1.832-1.313 2.37-1.968.805-.98 1.313-2.03 1.523-3.15M125.129 200.914l-.59-.49M139.73 201.868c-.229-.376-.224-.678.014-.905a1.53 1.53 0 01.626-.353c.251-.075.6-.12 1.046-.134.446-.014.905.051 1.376.197a3.68 3.68 0 011.295.714c.392.33.674.718.847 1.164.173.445.235.918.186 1.419-.048.5-.293.98-.733 1.435-.44.456-.983.846-1.63 1.171a10.4 10.4 0 01-1.919.747 9.33 9.33 0 01-1.661.319c-.476.04-.833.05-1.071.032-.238-.018-.38-.07-.427-.153-.047-.084-.028-.163.056-.238.084-.074.255-.127.513-.156a2.54 2.54 0 01.802.04c.278.058.5.236.666.535.166.3.269.697.308 1.19.04.495-.01 1.053-.146 1.676a6.788 6.788 0 01-.677 1.802c-.316.579-.79 1.085-1.426 1.518-.635.434-1.374.724-2.217.87-.844.146-1.742.12-2.695-.079-.953-.198-1.956-.676-3.008-1.433-1.534-1.104-2.86-3.132-3.981-6.084" fill="none" stroke="#7ec636" stroke-width="2.07853766" stroke-linecap="round" stroke-linejoin="round" stroke-miterlimit="10"/></svg>