<svg xmlns="http://www.w3.org/2000/svg" width="250.635" height="257.554"><path d="M4.252 5.67l-.475.048c-.014.001.016.006.09.013l1.31.124c.799.076 2.68.083 5.645.02 2.965-.062 7.929-.095 14.891-.1 6.963-.003 12.505-.038 16.628-.104 4.123-.066 7.311-.109 9.566-.127 2.255-.018 4.478-.053 6.67-.103 2.191-.05 7.354-.153 15.487-.308 8.133-.156 13.674-.276 16.622-.36 2.947-.082 7.505-.228 13.674-.435a8088.74 8088.74 0 0119.318-.626c6.71-.21 11.651-.344 14.822-.403 3.171-.058 6.504-.113 9.998-.163 3.495-.05 6.253-.104 8.276-.16 2.023-.058 3.98-.095 5.873-.111 1.892-.017 6.88-.11 14.962-.28 8.082-.168 14.069-.265 17.96-.288 3.891-.024 7.635-.037 11.232-.039 3.597-.002 5.993.004 7.189.018 1.196.015 3.03.105 5.504.27 2.474.166 4.897.318 7.27.456l6.86.396c3.227.187 7.477.475 12.75.865M247.12 2.527c-.303 1.301-.508 2.407-.615 3.318-.073.619-.122 1.687-.149 3.204-.026 1.518-.04 4.054-.04 7.61 0 3.554.015 6.272.046 8.153.03 1.88.048 7.058.05 15.532.005 8.474.024 14.845.059 19.111.035 4.267.06 7.093.078 8.48.017 1.386.084 4.28.2 8.684.116 4.403.227 9.54.334 15.413.107 5.873.186 10.456.239 13.747.052 3.292.113 6.558.182 9.798.07 3.24.157 8.338.264 15.293.107 6.955.163 19.258.169 36.908.006 17.65 0 28.12-.016 31.41-.017 3.29-.026 6.436-.028 9.44-.001 3.002-.01 5.825-.028 8.47a1872.49 1872.49 0 01-.103 10.383c-.052 4.278-.11 7.11-.173 8.493-.063 1.384-.153 2.498-.27 3.344a7.51 7.51 0 01-1.35 3.405M3.742 7.819c-.019 8.758-.006 14.094.038 16.007.03 1.334.141 2.807.333 4.418.192 1.611.377 3.26.554 4.947.178 1.687.321 3.44.43 5.26.11 1.82.187 3.757.231 5.809.044 2.052.069 4.116.073 6.191.005 2.075.03 4.28.078 6.613s.105 4.732.17 7.199c.067 2.466.111 4.915.134 7.346.024 2.432.036 4.862.039 7.29.002 2.428-.012 4.918-.042 7.472-.03 2.553-.103 5.161-.217 7.824-.114 2.662-.2 5.352-.259 8.07s-.121 5.55-.188 8.495a608.331 608.331 0 01-.253 8.542c-.1 2.75-.188 5.568-.262 8.454a379.05 379.05 0 00-.122 8.771c-.008 2.963-.003 5.95.012 8.965.016 3.014.04 6.002.073 8.962.032 2.96.041 5.988.028 9.084a202.619 202.619 0 01-.235 9.024c-.143 2.92-.26 5.815-.353 8.684-.092 2.87-.176 7.374-.253 13.515-.077 6.14-.172 10.758-.284 13.855a300.325 300.325 0 01-.447 8.88 310.79 310.79 0 00-.424 7.799c-.097 2.374-.15 4.538-.16 6.49-.009 1.952.033 3.795.127 5.531.093 1.736.239 3.405.437 5.008.198 1.603.363 3.044.494 4.323a61.2 61.2 0 01.268 3.594c.073 1.687-.248 2.98-.961 3.88M2.364 255.286c-.448-.347.348-.682 2.388-1.006 2.04-.323 3.604-.544 4.691-.663a66.71 66.71 0 013.823-.292c1.461-.075 4.735-.168 9.823-.28 5.087-.11 8.56-.183 10.418-.216 1.858-.033 3.619-.052 5.282-.055a265.229 265.229 0 0010.708-.228c1.999-.08 3.963-.142 5.893-.183 1.93-.042 4.813-.065 8.648-.07 3.835-.004 6.702-.014 8.601-.029a349.67 349.67 0 005.87-.096c2.015-.05 6.241-.228 12.679-.534 6.437-.307 11.713-.532 15.828-.676 4.115-.144 7.294-.234 9.538-.27 2.245-.037 4.4-.082 6.466-.133 2.066-.052 5.369-.172 9.91-.36 4.541-.187 7.89-.317 10.048-.39 2.158-.074 4.476-.13 6.955-.166a547.04 547.04 0 017.299-.061c2.386-.004 4.856-.023 7.408-.056 2.552-.034 5.174-.084 7.865-.15 2.69-.067 5.469-.15 8.335-.249 2.866-.099 5.684-.178 8.453-.236 2.77-.058 5.575-.121 8.415-.19 2.84-.069 5.676-.13 8.507-.186 2.831-.055 6.993-.085 12.485-.091 5.493-.006 9.376.015 11.651.063a335.17 335.17 0 0010.691.065c1.22-.014 2.199-.054 2.935-.118 1.077-.094 2.54-.163 4.39-.206" fill="none" stroke="#fcfcfc" stroke-width="4.535255719999999" stroke-linecap="round" stroke-linejoin="round" stroke-miterlimit="10"/><path d="M18.697 53.18h153.627V20.838H18.697z" fill="#007aff" fill-opacity=".1"/><path d="M18.697 20.838h153.626V53.18H18.697V20.838" fill="none" stroke="#007aff" stroke-width="1.32290413" stroke-linecap="round" stroke-linejoin="round" stroke-miterlimit="10"/><path d="M32.65 26.843c-.15-.055-.35-.039-.605.05-.167.057-.43.21-.788.455a9.286 9.286 0 00-1.049.84c-.34.314-.675.68-1.003 1.095-.328.416-.648.88-.961 1.392a16.387 16.387 0 00-.903 1.714c-.29.63-.537 1.396-.743 2.296-.206.9-.323 1.912-.352 3.038-.03 1.127.079 2.277.324 3.453.36 1.723 1.28 3.724 2.76 6M38.626 31.598c.006-.308-.008-.52-.04-.636a1.072 1.072 0 00-.134-.275 1.076 1.076 0 00-.266-.279.93.93 0 00-.426-.163 1.758 1.758 0 00-.632.045 2.315 2.315 0 00-.716.295c-.228.142-.528.394-.899.756a7.993 7.993 0 00-1.026 1.236 9.175 9.175 0 00-.876 1.691 16.247 16.247 0 00-.698 2.158 10.8 10.8 0 00-.321 2.387c-.02.82.092 1.564.334 2.235.242.67.587 1.246 1.037 1.73.449.483.963.798 1.542.946.578.147 1.096.122 1.552-.076.456-.198 1.02-.603 1.69-1.216a8.696 8.696 0 001.627-1.967c.416-.699.737-1.42.964-2.165a10.21 10.21 0 00.414-2.394 7.169 7.169 0 00-.27-2.45c-.23-.783-.473-1.403-.732-1.861-.258-.459-.493-.781-.704-.967-.3-.263-.706-.145-1.218.353M43.85 40.329l.06 3.635M50.94 30.964c.002.558.01.994.025 1.31.01.215.047.614.11 1.197.065.582.123 1.265.175 2.047.052.782.083 1.62.092 2.512.014 1.313-.01 2.955-.072 4.925M56.377 28.182c.27.052.52.168.75.347.153.12.35.315.591.585.241.27.519.633.833 1.09.314.457.617.973.91 1.547.294.575.535 1.257.723 2.048.188.79.31 1.652.365 2.586.055.934-.007 1.927-.187 2.98a14.476 14.476 0 01-.82 2.952c-.366.915-.756 1.67-1.168 2.269-.61.884-1.347 1.344-2.208 1.378M66.325 38.068c.09-.109.32-.188.69-.239.371-.05.754-.08 1.15-.09.394-.01.885-.001 1.471.025.854.038 2.122.212 3.805.52M76.269 33.716c.132-.079.33-.045.591.101a11.252 11.252 0 011.293.849c.235.178.45.361.646.55.196.19.363.392.5.606.136.214.237.44.3.678.064.237.1.493.106.766.006.273-.06.584-.2.932a6.4 6.4 0 01-.591 1.105 9.73 9.73 0 01-.739 1c-.352.412-.797.86-1.333 1.343M92.122 28.53a2.448 2.448 0 00-.614-.039c-.14.008-.32.072-.537.191-.218.119-.484.316-.8.59-.316.274-.659.63-1.03 1.069-.37.439-.76.925-1.168 1.458-.409.532-.774 1.18-1.095 1.944a8.933 8.933 0 00-.632 2.461 16.52 16.52 0 00-.049 2.913c.068 1.065.186 1.96.355 2.687.244 1.049 1.164 2.832 2.762 5.35M95.204 34.237c-.01.167-.047.206-.115.118-.05-.064-.084-.18-.105-.35a5.608 5.608 0 01-.033-.606c-.002-.234.015-.48.051-.738a2.68 2.68 0 01.235-.773c.121-.257.249-.464.383-.62.135-.157.272-.25.411-.28.14-.028.28.02.42.149a2 2 0 01.403.565c.128.248.23.564.306.946.075.382.122.872.139 1.472.017.599-.035 1.229-.156 1.89-.12.662-.316 1.336-.586 2.022-.27.686-.581 1.326-.934 1.92-.353.593-.701 1.074-1.044 1.44-.344.368-.668.646-.973.836-.305.19-.568.288-.789.294a.612.612 0 01-.534-.27 1.705 1.705 0 01-.284-.677 3.284 3.284 0 01-.055-.842c.017-.295.092-.576.224-.845.133-.27.279-.454.437-.552.158-.1.324-.065.499.101.174.167.358.448.552.845.193.396.422.795.686 1.196.264.402.566.743.904 1.023.339.28.685.474 1.04.584.355.11.662.17.924.18.261.011.55-.09.866-.3.46-.31.872-.87 1.235-1.682M102.374 40.933c.001.716.123 1.596.365 2.642M106.603 36.846c-.284-.008-.461-.056-.53-.144-.048-.061-.1-.21-.155-.448a4.61 4.61 0 01-.09-.94c-.006-.39.027-.778.1-1.165.071-.388.188-.723.35-1.006.161-.283.343-.477.544-.582a.785.785 0 01.611-.065c.205.063.397.214.576.455.178.242.315.542.41.9.096.36.153.713.17 1.061.019.349.007.662-.036.94a1.996 1.996 0 01-.207.671c-.095.169-.198.282-.31.34-.112.058-.172.058-.181 0-.01-.058.013-.144.066-.258a.643.643 0 01.251-.278c.114-.07.331-.116.65-.136.32-.021.638.031.954.156.316.125.622.286.917.484.294.198.547.434.758.707.21.273.362.579.456.918.093.339.131.702.113 1.089-.019.387-.156.792-.411 1.215a4.547 4.547 0 01-1.011 1.153c-.419.346-.832.611-1.24.795-.6.27-1.079.259-1.436-.035M115.035 29.933c-.038-.1-.01-.156.084-.17.067-.01.168.01.301.058.134.048.293.145.48.29.185.146.419.373.7.682.28.308.588.727.924 1.255.336.527.616 1.112.84 1.753.222.64.392 1.316.51 2.028.117.711.183 1.464.2 2.26.015.794-.039 1.555-.163 2.282-.124.727-.286 1.346-.484 1.857-.296.76-.776 1.342-1.44 1.747M124.672 37.202c.284-.162.526-.269.726-.32.136-.036.322-.067.557-.093.338-.037 1.11.081 2.315.356M130.129 33.876h-.109l.01.002.266.054c.168.034.358.121.572.26.213.14.432.312.656.516.225.204.424.414.595.63.172.215.302.43.392.646.09.216.139.443.148.682.009.239-.065.501-.222.787a5.784 5.784 0 01-.591.866 3.416 3.416 0 01-1.361.997M142.995 29.623c.165-.266.175-.432.03-.5-.102-.047-.244-.042-.425.017-.182.058-.413.185-.693.381-.28.196-.604.48-.972.852a13.47 13.47 0 00-1.157 1.36 7.58 7.58 0 00-.983 1.745c-.252.628-.43 1.584-.533 2.869a16.483 16.483 0 00.082 3.612c.23 1.634 1.357 3.582 3.38 5.846M148.57 33.183c-.118-.081-.19-.212-.214-.392a2.749 2.749 0 00-.087-.428.503.503 0 00-.176-.254.66.66 0 00-.363-.113c-.158-.01-.362.049-.613.179s-.543.346-.876.648c-.333.303-.661.704-.985 1.205a7.79 7.79 0 00-.79 1.607 5.128 5.128 0 00-.303 1.755c.002.6.157 1.17.465 1.71.308.54.72.96 1.234 1.263.515.302 1.076.48 1.683.534a2.99 2.99 0 001.71-.347c.53-.285.959-.722 1.284-1.311.325-.59.537-1.192.638-1.807.1-.615.117-1.184.05-1.707-.068-.524-.22-.943-.457-1.257-.345-.457-.91-.694-1.699-.71M153.713 39.349l.152 2.61M160.794 33.194c.067-.179.095-.31.083-.391-.009-.057-.098-.15-.269-.28-.17-.128-.328-.21-.474-.244a1.629 1.629 0 00-.5-.029c-.187.015-.41.118-.668.31-.258.192-.513.48-.765.865s-.447.857-.585 1.416a6.055 6.055 0 00-.16 1.764c.03.618.17 1.218.417 1.8.247.581.564 1.05.95 1.407.387.356.809.543 1.264.561.455.018.884-.183 1.286-.602.403-.42.756-.934 1.06-1.546a8.983 8.983 0 00.69-1.899c.157-.654.223-1.233.197-1.737-.026-.504-.146-.92-.36-1.246-.215-.327-.438-.568-.668-.722a3.633 3.633 0 00-1.055-.495M166.21 30.293c0-.082.04-.112.12-.088.082.023.183.104.304.241.12.138.285.399.492.784.207.386.413.882.62 1.49.206.609.362 1.303.469 2.083.107.78.136 1.605.087 2.474-.05.87-.216 1.735-.501 2.596-.415 1.251-1.431 2.957-3.049 5.117" fill="none" stroke="#007aff" stroke-width="1.32290413" stroke-linecap="round" stroke-linejoin="round" stroke-miterlimit="10"/><path d="M45.371 147.419h151.222v-32.074H45.37z" fill="#7ec636" fill-opacity=".1"/><path d="M45.371 115.345h151.222v32.074H45.37v-32.074" fill="none" stroke="#7ec636" stroke-width="1.32290413" stroke-linecap="round" stroke-linejoin="round" stroke-miterlimit="10"/><path d="M55.746 123.76a4.799 4.799 0 00-.851-.177 3.686 3.686 0 00-.537.004c-.213.015-.48.114-.8.299-.32.185-.658.46-1.016.824-.357.364-.687.853-.99 1.465-.302.613-.515 1.427-.64 2.441a24.406 24.406 0 00-.159 3.362c.02 1.228.14 2.38.362 3.456.324 1.576 1.315 2.93 2.974 4.063M62.035 126.725a1.12 1.12 0 01-.42-.29 2.054 2.054 0 00-.253-.23 1.522 1.522 0 00-.41-.187 2.247 2.247 0 00-.647-.104 2.504 2.504 0 00-1.677.637c-.286.245-.556.584-.81 1.017-.255.434-.47.953-.648 1.557a8.685 8.685 0 00-.324 1.977 8.379 8.379 0 00.188 2.217c.164.764.401 1.419.711 1.966.31.547.682.927 1.117 1.14.434.211.858.278 1.273.2.415-.077.8-.395 1.156-.954.356-.558.618-1.26.784-2.107a16.02 16.02 0 00.298-2.34c.033-.713.038-1.31.016-1.79-.023-.48-.083-.859-.18-1.137-.146-.418-.363-.715-.651-.891M65.106 135.487a.87.87 0 01.604.193c.18.14.323.281.433.422.11.14.201.304.275.491.106.269.097.918-.027 1.948M73.106 127.863c-.18-.432-.336-.696-.466-.793a.71.71 0 00-.377-.117c-.16-.011-.364.058-.611.209a3.56 3.56 0 00-.746.633c-.25.271-.472.601-.665.99a6.507 6.507 0 00-.482 1.427 9.783 9.783 0 00-.237 1.69c-.03.564.028 1.307.172 2.228.144.922.365 1.615.663 2.079.298.464.585.76.86.89s.519.202.73.216c.213.014.407-.02.585-.103.177-.083.361-.22.552-.41.19-.19.357-.4.5-.632a4.26 4.26 0 00.372-.788c.106-.293.18-.524.222-.69.042-.167.107-.702.195-1.604.088-.902.102-1.61.043-2.124-.087-.761-.391-1.464-.912-2.107M78.21 125.471c.336.075.693.287 1.07.637.249.229.5.533.756.912.256.38.483.835.68 1.366.2.53.335 1.124.408 1.78.072.655.075 1.39.009 2.203a13.33 13.33 0 01-.486 2.57c-.257.9-.55 1.75-.881 2.552a15.148 15.148 0 01-1.872 3.316M87.577 132.764l-.279.171c-.021.013.07.02.276.022l1.486.008c1.2.006 2.187.17 2.962.49M93.476 129.592c.335.02.625.105.87.257.165.103.34.225.524.367.185.141.383.31.595.508.212.198.405.421.578.671.173.25.297.53.372.838a3.2 3.2 0 01.061 1.042c-.034.387-.16.783-.379 1.188a4.3 4.3 0 01-.807 1.07c-.471.453-1.139.838-2.003 1.155M108.417 123.226a1.08 1.08 0 00-.496-.102c-.13 0-.274.03-.43.093a4.478 4.478 0 00-.57.288c-.223.13-.592.413-1.106.848a7.56 7.56 0 00-1.347 1.487c-.383.557-.726 1.295-1.027 2.215-.301.92-.521 1.97-.661 3.153a23.175 23.175 0 00-.113 3.819c.065 1.364.132 2.256.202 2.676.07.42.15.786.24 1.101.13.453.68 1.423 1.649 2.911M115.108 127.45c-.612-.251-1.07-.397-1.375-.435a4.843 4.843 0 00-.73-.029 2.251 2.251 0 00-.86.21 3.047 3.047 0 00-.84.572c-.265.249-.523.6-.775 1.054a7.812 7.812 0 00-.634 1.544 8.584 8.584 0 00-.324 1.922c-.045.707-.032 1.397.038 2.07.07.673.23 1.252.483 1.739.252.486.57.887.95 1.203.383.316.784.508 1.204.576.421.068.864-.018 1.33-.258.467-.239.923-.62 1.368-1.141a7.22 7.22 0 001.127-1.85c.306-.712.529-1.405.67-2.078.14-.674.199-1.261.177-1.763-.021-.503-.151-.923-.39-1.262-.348-.498-.872-1.057-1.57-1.677M119.292 133.81c.02.288.014.787-.02 1.496-.021.442-.043.842-.066 1.2a26.507 26.507 0 00-.051 1.708M125.28 127.175c-.116.135-.175.488-.177 1.06-.001.356.014.798.044 1.325.031.528.054 1.109.068 1.743.014.633.016 1.307.006 2.02a23.021 23.021 0 01-.287 3.282M128.732 125.622c.188 0 .366.085.534.256.167.171.4.493.7.965.3.472.582.987.846 1.546.265.558.494 1.144.689 1.76.194.615.322 1.284.383 2.006a9.834 9.834 0 01-.749 4.623c-.486 1.161-1.352 2.477-2.598 3.948M139.102 132.517c-.06.06-.098.1-.116.119-.012.012.008.015.06.008l.287-.04c.138-.018.37-.041.695-.07.324-.028.689-.054 1.092-.078a36.633 36.633 0 012.404-.038M145.162 128.955c-.117.033-.024.147.28.343.304.195.589.405.856.629.266.223.533.503.8.84.268.335.472.73.615 1.182.143.453.218.93.226 1.431.008.502-.084.968-.277 1.4a3.416 3.416 0 01-.718 1.068c-.416.406-1.103.693-2.061.86M159.47 124.052c-.023-.271-.156-.438-.4-.499a2.174 2.174 0 00-.458-.07 1.775 1.775 0 00-.526.086c-.213.061-.472.211-.776.448a7.264 7.264 0 00-.973.95c-.345.396-.702.925-1.072 1.587-.37.662-.696 1.453-.979 2.373-.282.92-.472 1.914-.568 2.98a23.043 23.043 0 00-.064 3.213c.053 1.077.226 2.045.52 2.907.423 1.248 1.64 2.25 3.648 3.006M162.377 130.656c-.178-.016-.324-.115-.436-.297a1.23 1.23 0 01-.159-.38c-.029-.13-.045-.461-.05-.995-.003-.534.04-.947.13-1.24a3.54 3.54 0 01.367-.818 2.27 2.27 0 01.508-.6c.183-.145.358-.239.523-.28a.69.69 0 01.43.01c.12.05.227.183.318.403.091.22.162.502.213.85.051.346.084.77.1 1.27.014.501-.027 1.03-.124 1.589a8.74 8.74 0 01-.554 1.824c-.273.658-.59 1.345-.953 2.06a21.914 21.914 0 01-1.11 1.95c-.376.585-.733 1.07-1.069 1.453-.336.383-.625.649-.867.797-.242.149-.423.175-.542.08-.12-.095-.166-.312-.141-.651.025-.34.135-.711.332-1.117a7.04 7.04 0 01.677-1.126c.255-.345.513-.585.774-.718a1.18 1.18 0 01.792-.12c.266.055.545.21.834.468.29.257.585.542.886.856.302.313.607.614.914.903.308.288.61.541.908.759.437.32 1 .5 1.688.54M170.274 136.625c-.064.431-.032 1.022.098 1.772M172.71 130.094c-.075-.08-.11-.214-.107-.403.003-.124.039-.308.107-.551.068-.244.173-.532.316-.866a5.24 5.24 0 01.496-.91c.188-.275.399-.499.632-.673.234-.175.446-.289.637-.342.191-.054.345-.042.463.036.118.078.196.247.233.506.038.26.056.557.055.892a5.893 5.893 0 01-.072.93 7.145 7.145 0 01-.182.815c-.074.258-.004.352.209.282.214-.07.463-.104.747-.104.284.001.603.08.956.237a5.58 5.58 0 011.006.582c.318.23.574.47.768.717.195.248.315.539.36.873.046.334-.01.709-.169 1.125-.158.416-.418.823-.78 1.221-.36.398-.719.711-1.075.94-.517.332-1.363.624-2.536.875M182.117 123.697c.31-.02.544.052.705.216.11.113.26.303.448.572.188.268.402.633.64 1.095.239.462.464 1.017.677 1.665.212.649.371 1.35.476 2.107.106.756.161 1.58.167 2.474.005.893-.08 1.764-.258 2.613-.259 1.242-.857 2.838-1.795 4.788" fill="none" stroke="#7ec636" stroke-width="1.32290413" stroke-linecap="round" stroke-linejoin="round" stroke-miterlimit="10"/><path d="M81.48 233.17h152.342v-31.755H81.48z" fill="#f59a23" fill-opacity=".1"/><path d="M81.48 201.415h152.342v31.755H81.48v-31.755" fill="none" stroke="#f59a23" stroke-width="1.32290413" stroke-linecap="round" stroke-linejoin="round" stroke-miterlimit="10"/><path d="M92.253 208.992a1.665 1.665 0 00-.682.327c-.227.173-.496.405-.807.695-.312.29-.672.667-1.08 1.131-.409.464-.83 1.065-1.263 1.802a16.224 16.224 0 00-1.17 2.483c-.347.917-.582 1.83-.707 2.739-.125.908-.096 2.008.087 3.299.266 1.889 1.333 3.47 3.2 4.745M96.445 215.066c-.135.124-.258.137-.367.04a.693.693 0 01-.183-.317 5.49 5.49 0 01-.144-.74 8.852 8.852 0 01-.092-1c-.01-.317-.013-.615-.009-.893a1.802 1.802 0 01.51-1.264.854.854 0 01.452-.24.754.754 0 01.5.093c.17.092.33.284.484.576.154.292.283.662.387 1.11.104.447.187.92.25 1.422.062.5.101.999.119 1.494.017.495-.003.977-.059 1.445-.056.469-.16.918-.313 1.348a8.557 8.557 0 01-1.465 2.567c-.334.4-.653.725-.959.975-.306.249-.587.42-.843.513-.257.094-.481.132-.675.115a.453.453 0 01-.404-.286c-.076-.175-.102-.402-.08-.681a1.67 1.67 0 01.298-.807c.175-.258.366-.437.572-.537a.835.835 0 01.647-.038c.226.074.447.246.663.515.216.27.445.548.686.837.241.289.5.542.775.76.276.217.569.392.879.523.31.132.617.226.92.28.304.055.592.088.864.1.397.015.825-.156 1.283-.514M102.784 219.86c-.131.311-.206.632-.225.964-.018.32.18.835.592 1.542M106.78 216.082c-.232-.233-.405-.58-.519-1.042a6.529 6.529 0 01-.197-1.202c-.018-.339.009-.672.08-.999.07-.327.2-.602.385-.823.186-.221.414-.37.683-.443a1.1 1.1 0 01.79.074c.257.123.451.36.582.713.13.353.208.751.232 1.196.024.444.034.827.03 1.149-.003.322-.026.557-.069.705-.042.148-.076.24-.103.275l-.045.061c-.004.005.003.003.021-.005l.233-.104c.137-.062.342-.104.614-.126.271-.022.575-.005.91.05a3.685 3.685 0 011.953 1.003c.28.278.482.625.604 1.04.123.416.175.891.155 1.426a4.39 4.39 0 01-.37 1.589 6.998 6.998 0 01-.915 1.525c-.557.716-1.632 1.259-3.224 1.629M115.772 209.883c.022-.109.099-.165.23-.17.131-.004.309.052.532.168.224.115.498.323.824.622.326.3.675.702 1.048 1.209.373.506.73 1.107 1.071 1.802.34.696.604 1.395.79 2.099.186.703.298 1.487.338 2.353.04.866-.004 1.738-.13 2.616-.128.877-.341 1.722-.641 2.533-.437 1.181-1.521 2.306-3.252 3.375M127.788 217.677c.863-.053 1.629-.024 2.296.085.654.107 1.806.293 3.458.558M134.962 214.648l-.369.045c-.029.003-.018.018.031.045l.357.193c.188.102.426.245.713.428.287.184.588.392.904.625.317.233.6.49.853.77.253.281.44.584.565.91.124.326.195.67.213 1.034.019.362-.057.724-.228 1.085-.17.361-.386.68-.644.958-.38.408-.928.714-1.643.918M150.747 210.232c-.022-.226-.15-.352-.382-.379a1.27 1.27 0 00-.688.116 4.764 4.764 0 00-.813.511c-.317.236-.684.576-1.103 1.018a8.607 8.607 0 00-1.163 1.579c-.357.61-.67 1.311-.942 2.106-.27.795-.446 1.737-.525 2.828a14.094 14.094 0 00.16 3.323c.186 1.125.492 2.205.92 3.24.624 1.514 1.93 2.939 3.916 4.273M157.257 214.965c.1-.122.155-.31.165-.563.008-.166-.007-.3-.043-.402a.893.893 0 00-.202-.31 1.173 1.173 0 00-.375-.26 1.51 1.51 0 00-.461-.13c-.156-.017-.414.021-.775.114-.361.092-.723.256-1.084.491-.362.235-.71.498-1.045.788-.335.29-.637.604-.906.942-.269.338-.509.715-.72 1.132-.21.417-.373.892-.488 1.426a7.565 7.565 0 00-.172 1.587c0 .524.109 1.03.328 1.517.22.488.537.98.95 1.48.415.5.89.916 1.424 1.249.535.333 1.078.503 1.629.51.55.008 1.076-.17 1.576-.53.5-.361.938-.785 1.312-1.272a6.136 6.136 0 00.901-1.667 7.8 7.8 0 00.429-2.02c.06-.723.048-1.366-.035-1.93-.083-.565-.239-1.001-.468-1.31-.327-.44-.848-.518-1.56-.234M163.588 221.28c.086.257.05 1.688-.108 4.294M173.061 214.851c.157 0 .265-.08.323-.24a1.62 1.62 0 00.1-.488 1.23 1.23 0 00-.05-.437.454.454 0 00-.265-.28 1.595 1.595 0 00-.561-.105c-.24-.01-.502.028-.787.116a3.962 3.962 0 00-1.785 1.16c-.292.32-.555.73-.789 1.23a9.237 9.237 0 00-.59 1.718c-.159.648-.254 1.368-.286 2.16a7.885 7.885 0 00.238 2.298c.19.74.476 1.326.856 1.762.38.436.792.707 1.233.813.441.107.875.06 1.302-.14.426-.199.813-.55 1.159-1.051a6.29 6.29 0 00.823-1.747 8.808 8.808 0 00.372-1.816 6.725 6.725 0 00-.018-1.463 3.689 3.689 0 00-.331-1.136c-.239-.485-.62-1.052-1.145-1.701M178.09 212.618c.136.01.299.07.49.18.19.11.434.297.73.56.297.263.58.643.85 1.141s.482 1.107.635 1.827c.153.72.242 1.464.267 2.232.025.769-.047 1.566-.217 2.392-.17.827-.397 1.593-.68 2.299-.416 1.034-1.245 2.194-2.49 3.482M187.17 219.255c1.66.003 3.018.026 4.07.068M192.564 215.776c-.058.126-.016.206.126.239.142.033.343.103.602.211.26.108.518.264.775.468a2.5 2.5 0 01.62.714c.156.272.263.545.32.818.058.274.08.555.064.844-.015.29-.112.577-.292.863-.259.414-.877 1.047-1.856 1.902M206.963 211.583c.115-.232.03-.338-.257-.32-.21.014-.59.133-1.14.357-.551.225-1.05.457-1.497.697-.446.24-.888.522-1.325.844-.437.323-.84.726-1.21 1.209-.37.483-.68 1.083-.931 1.801a9.327 9.327 0 00-.478 2.365c-.067.858-.05 1.79.054 2.798.103 1.007.306 1.91.61 2.707.443 1.162 1.505 2.233 3.185 3.214M213.315 214.993c-.115-.056-.28-.205-.495-.447a1.35 1.35 0 00-.402-.324 1.682 1.682 0 00-.511-.14 3.251 3.251 0 00-.743.001c-.289.029-.594.147-.917.354-.322.208-.643.531-.963.971-.32.44-.59.962-.81 1.567a6.7 6.7 0 00-.169 4.066c.194.738.5 1.351.918 1.84.418.488.91.788 1.476.9.566.111 1.132-.013 1.696-.374.565-.36 1.049-.905 1.45-1.633.402-.728.68-1.419.836-2.073.155-.654.227-1.236.216-1.747a3.14 3.14 0 00-.331-1.385c-.309-.603-.896-1.227-1.762-1.873M217.887 220.877c-.008 1.687 0 3.25.027 4.69M222.764 215.604c0 .417.037.801.11 1.153.048.237.093.517.135.84.041.322.072.75.093 1.285.029.772-.095 2.255-.37 4.449M227.459 213.199c.675 1.02 1.102 1.725 1.282 2.117.125.271.285.745.481 1.422.196.676.315 1.355.355 2.035.041.68-.008 1.345-.145 1.995-.138.65-.46 1.534-.966 2.651-.741 1.638-2.09 3.517-4.048 5.638" fill="none" stroke="#f59a23" stroke-width="1.32290413" stroke-linecap="round" stroke-linejoin="round" stroke-miterlimit="10"/></svg>