<svg xmlns="http://www.w3.org/2000/svg" width="212.98" height="161.349"><path d="M28.514 2.628a1.33 1.33 0 00-.656-.364 2.057 2.057 0 00-.694-.052c-.209.024-.505.198-.89.523-.383.325-.828.83-1.333 1.515-.506.685-1.021 1.48-1.546 2.386-.526.905-.982 1.957-1.37 3.154a21.988 21.988 0 00-.849 3.665c-.178 1.246-.25 2.614-.215 4.104.035 1.49.222 3.007.562 4.553.34 1.545.71 2.83 1.106 3.853.575 1.483 2.237 3.296 4.986 5.438" fill="none" stroke="#fcfcfc" stroke-width="1.32290413" stroke-linecap="round" stroke-linejoin="round" stroke-miterlimit="10"/><path d="M41.503 12.443c-.193-.37-.384-.788-.571-1.255a16.605 16.605 0 01-.39-1.1c-.137-.425-.282-.86-.435-1.306a72.34 72.34 0 01-.446-1.337 12.462 12.462 0 00-.832-1.97M37.523.661c-.053.322.026.79.235 1.402.135.393.304.856.509 1.39.204.534.432 1.108.683 1.72.252.614.518 1.244.8 1.892.414.955.903 2.139 1.466 3.552M41.398 9.525c-.02-1.297-.01-2.538.03-3.722.029-.793.093-1.53.193-2.213M42.252 2.761a15.423 15.423 0 00-.114 1.757c-.003.395.015.81.055 1.246.04.435.095.888.164 1.36.1.684.232 1.874.394 3.57M42.979 9.088c.171-1.146.332-2.046.481-2.698.15-.65.424-1.592.825-2.827M44.946 2.17c-.247 1.428-.383 2.563-.408 3.404-.017.575-.027 1.607-.029 3.098-.002 1.49-.137 2.813-.406 3.967" fill="none" stroke="#7ec636" stroke-width="1.32290413" stroke-linecap="round" stroke-linejoin="round" stroke-miterlimit="10"/><path d="M43.9 12.688c.068-.541.17-1.132.307-1.772.13-.609.536-1.806 1.218-3.591M47.754 3.396c-.265.68-.56 1.535-.883 2.567a33.3 33.3 0 01-.896 2.55 23.963 23.963 0 01-1.337 2.778" fill="none" stroke="#7ec636" stroke-width="1.32290413" stroke-linecap="round" stroke-linejoin="round" stroke-miterlimit="10"/><path d="M43.85 12.208c.153-.486.32-.955.501-1.405.121-.301.294-.645.517-1.031.223-.386.497-.8.822-1.24.47-.637 1.372-1.676 2.703-3.117M50.538 3.24c-.661 1.444-1.157 2.459-1.487 3.044-.228.403-.524.889-.89 1.456-.528.819-1.511 2.519-2.952 5.1" fill="none" stroke="#7ec636" stroke-width="1.32290413" stroke-linecap="round" stroke-linejoin="round" stroke-miterlimit="10"/><path d="M59.06 1.937c.272.162.68.685 1.223 1.57.332.54.676 1.2 1.032 1.978s.677 1.742.962 2.894c.285 1.152.472 2.461.56 3.928.087 1.466.04 3.05-.143 4.751-.182 1.702-.562 3.458-1.14 5.269A58.47 58.47 0 0159.73 27.3a45.007 45.007 0 01-3.435 6.55M78.746 14.601c2.248.035 3.671.062 4.27.082.615.02 1.316.118 2.101.294M78.063 20.53c1.073.058 2.8.195 5.179.412" fill="none" stroke="#fcfcfc" stroke-width="1.32290413" stroke-linecap="round" stroke-linejoin="round" stroke-miterlimit="10"/><path d="M137.504 12.474c-.077.615-.075 1.312.004 2.089.053.511.128 1.056.225 1.634.096.579.183 1.164.26 1.756.076.592.131 1.194.165 1.806.034.612.05 1.312.047 2.1-.002.79-.016 1.216-.041 1.282l-.053.134c-.009.023-.02-.05-.031-.223l-.067-.966a26.386 26.386 0 01-.052-1.692c-.002-.657.033-1.305.105-1.943a8.123 8.123 0 01.465-1.914c.237-.637.509-1.212.817-1.724.307-.511.601-.892.882-1.14.28-.25.527-.383.74-.401.213-.018.38.153.5.513s.235 1.234.345 2.62c.11 1.386.193 2.456.25 3.208.059.753.137 1.49.236 2.21.099.72.235 1.31.41 1.77.174.461.342.764.504.909.162.145.37.165.623.061.362-.149.723-.928 1.084-2.337M149.574 16.697c.102-.489.035-.809-.2-.958-.164-.105-.404-.185-.719-.24-.315-.054-.576-.066-.784-.034-.208.032-.428.165-.66.398-.232.234-.452.557-.66.969a4.644 4.644 0 00-.431 1.322c-.08.47-.11.939-.092 1.407.018.468.134.9.347 1.296.213.396.47.696.775.901.303.205.605.321.906.349.3.027.706-.142 1.217-.508a6.108 6.108 0 001.29-1.228c.509-.659 1.04-1.725 1.592-3.198" fill="none" stroke="#007aff" stroke-width="1.32290413" stroke-linecap="round" stroke-linejoin="round" stroke-miterlimit="10"/><path d="M151.046 16.211c-.188 1.468-.143 2.618.134 3.45.276.827 1.084 1.654 2.425 2.482M154.977 18.01a9.398 9.398 0 001.044-1.934c.162-.422.399-1.18.71-2.273.31-1.093.561-2.059.752-2.896.191-.838.35-1.677.474-2.518.124-.842.199-1.551.224-2.129.025-.577-.004-1.01-.087-1.3-.083-.29-.21-.458-.383-.507-.173-.049-.354.023-.542.216-.187.193-.344.494-.468.902-.124.408-.2.915-.226 1.523-.026.607-.04 1.284-.043 2.03-.003.747.005 1.516.025 2.309.02.792.055 1.634.103 2.524.049.89.102 1.756.16 2.595.057.84.128 1.569.213 2.187a15.5 15.5 0 00.287 1.573c.106.431.208.747.305.948.098.202.19.29.278.263.087-.027.185-.236.293-.627.108-.391.256-.883.446-1.476.189-.594.454-1.25.796-1.967.342-.718.717-1.357 1.127-1.916.41-.56.767-.913 1.072-1.061.304-.148.508-.08.612.201.103.282.153.796.15 1.542-.004.747-.006 1.496-.006 2.25 0 .752.105 1.42.316 2.003.21.583.507 1.038.89 1.366.383.329.804.52 1.264.572.662.075 1.533-.453 2.615-1.584" fill="none" stroke="#007aff" stroke-width="1.32290413" stroke-linecap="round" stroke-linejoin="round" stroke-miterlimit="10"/><path d="M28.14 129.36c-.047-.283-.141-.48-.282-.588-.097-.074-.335-.116-.713-.126a2.519 2.519 0 00-1.14.253c-.381.178-.801.457-1.26.838-.458.381-.942.973-1.45 1.775-.508.803-1.002 1.82-1.48 3.053-.48 1.232-.839 2.671-1.078 4.317a21.517 21.517 0 00-.165 4.84 15.987 15.987 0 001.002 4.479c.797 2.069 2.274 3.892 4.431 5.469" fill="none" stroke="#fcfcfc" stroke-width="1.32290413" stroke-linecap="round" stroke-linejoin="round" stroke-miterlimit="10"/><path d="M39.364 149.587l-.102.124c-.012.014-.017-.018-.016-.097l.004-.399c.002-.186.033-.45.093-.788.06-.339.118-.749.177-1.23.059-.483.164-1.276.316-2.38a47.54 47.54 0 00.29-2.441c.041-.523.068-1.064.079-1.624.011-.56-.016-.841-.083-.845-.066-.004-.152.14-.256.429-.105.29-.196.643-.273 1.06-.077.418-.146.859-.206 1.323-.06.464-.113.966-.158 1.506s-.08 1.104-.104 1.692a45.602 45.602 0 00-.027 3.167c.013.431.04.821.081 1.171l.066.56c.003.024.005.013.006-.034l.013-1.097c.008-.686.036-1.72.085-3.101.048-1.382.08-2.418.096-3.109.015-.69.023-1.397.025-2.121.001-.724-.055-1.058-.169-1.003-.114.055-.222.27-.322.645-.1.374-.182.794-.245 1.26-.063.465-.1 1.227-.115 2.285a99.373 99.373 0 00.01 3.162c.02 1.05.03 1.688.03 1.913l.002.355v.003l-.001-.077-.02-1.837a302.006 302.006 0 01-.02-2.753 66.137 66.137 0 01.121-4.055c.04-.671.063-1.03.066-1.079.003-.048-.001-.051-.011-.01l-.23.925a18.207 18.207 0 00-.519 3.423c-.035.59-.054 1.236-.057 1.94-.004.704.008 1.361.034 1.973.026.611.056 1.08.091 1.403.036.325.063.52.084.589l.035.118a1.69 1.69 0 00-.002-.23c-.004-.165-.02-.76-.05-1.787a109.368 109.368 0 01-.045-2.638c-.002-.732.039-1.678.122-2.84.084-1.16.127-1.834.13-2.02l.006-.312c0-.023-.006-.006-.019.049l-.179.755c-.106.449-.188.964-.244 1.544-.057.58-.088 1.198-.094 1.856a42.7 42.7 0 00.03 2.004c.026.68.083 1.247.171 1.704.088.456.176.783.264.98.088.197.173.312.254.346.082.034.17-.103.263-.409.094-.306.192-.791.294-1.455a45.66 45.66 0 00.276-2.153c.082-.771.183-1.505.305-2.201.121-.697.224-1.254.307-1.673a23.125 23.125 0 01.303-1.343c.004-.017.005-.02.005-.01l-.01.23c-.005.144-.055.483-.148 1.018a18.266 18.266 0 00-.213 1.744c-.048.628-.075 1.64-.08 3.038-.006 1.398.024 2.323.09 2.776.064.452.134.737.207.855.073.117.143.08.209-.114.066-.193.126-.642.18-1.347.052-.704.095-1.461.127-2.27.031-.807.15-1.99.353-3.546l.26-2.091-.007.028-.262 1.358c-.14.724-.251 1.385-.335 1.983a17.158 17.158 0 00-.157 1.728c-.02.553-.029.992-.024 1.318.004.325.032.524.085.596.054.072.12-.004.198-.227.078-.223.157-.622.238-1.197.08-.576.152-1.182.212-1.82.061-.639.13-1.26.208-1.863.077-.604.156-1.095.237-1.471.08-.377.137-.615.168-.715l.051-.165c.004-.01.005-.005.004.015l-.013.32c-.008.194-.063.587-.163 1.181-.1.594-.188 1.224-.265 1.89a23.512 23.512 0 00-.145 1.938c-.02.626-.032 1.119-.034 1.478-.002.36.024.58.076.663.053.083.127-.004.224-.26s.187-.677.27-1.262c.082-.585.19-1.781.322-3.588l.208-2.854.006-.098-.003.02-.149 1.305a49.744 49.744 0 00-.213 2.308 72.268 72.268 0 00-.145 4.084c-.002.523-.001.853.004.992l.009.226c0 .013.004.006.01-.021.005-.027.037-.188.098-.482.06-.294.11-.797.149-1.507.039-.71.064-1.448.076-2.211a47.037 47.037 0 00-.147-4.529l-.11-1.376c-.016-.186-.028-.273-.038-.26l-.071.097c-.038.051-.12.393-.243 1.026a33.762 33.762 0 00-.354 2.299c-.112.9-.203 1.843-.273 2.829a43.52 43.52 0 00-.116 2.695c-.007.81.005 1.382.038 1.713.031.331.082.468.152.409.07-.059.135-.362.195-.909s.102-1.21.129-1.988c.026-.779.043-1.533.052-2.264a204.344 204.344 0 00.007-4.106c-.006-.503-.03-.823-.07-.96-.042-.136-.123-.017-.245.358s-.255.941-.4 1.698a24.767 24.767 0 00-.326 2.296 39.285 39.285 0 00-.151 2.383c-.028.816-.043 1.49-.045 2.026-.003.536.019.883.065 1.042.046.16.104.146.174-.042.07-.188.124-.61.164-1.27.04-.659.062-1.826.066-3.503.004-1.677.023-3.077.056-4.2l.054-1.834c.003-.098-.001-.126-.014-.083l-.225.8c-.138.49-.288 1.154-.449 1.992-.16.838-.272 1.65-.333 2.44a39.416 39.416 0 00-.112 2.32c-.014.757-.005 1.348.028 1.773.033.425.08.682.143.77.062.09.12-.06.172-.446.053-.387.085-.958.096-1.715.012-.757.015-1.532.01-2.326-.005-.793-.03-1.804-.073-3.03-.043-1.227-.09-1.898-.137-2.014-.049-.116-.144.022-.287.413-.143.39-.28 1.008-.413 1.851a25.637 25.637 0 00-.27 2.498c-.046.823-.079 1.61-.096 2.364-.017.754-.026 1.346-.028 1.778-.002.431.005.59.02.477l.112-.852c.06-.454.109-1.103.147-1.945.038-.842.072-1.711.102-2.606.03-.896.047-1.721.05-2.476a23.97 23.97 0 00-.044-1.779c-.032-.43-.08-.694-.144-.79-.064-.097-.171.097-.322.582-.15.485-.276 1.194-.376 2.125-.1.932-.157 2.227-.168 3.885-.01 1.658.01 2.7.063 3.125.052.426.118.67.196.733.078.062.164-.19.257-.758.093-.567.167-1.271.221-2.111.055-.84.091-1.684.11-2.533.02-.848.031-1.76.033-2.736l.003-1.541-.002-.046-.003.023-.11 1.073c-.069.68-.11 1.433-.124 2.26-.013.828-.018 1.66-.013 2.494.005.834.044 1.603.118 2.305.073.703.153 1.175.24 1.416.086.241.19.233.31-.026.12-.258.236-.777.347-1.554.112-.778.232-1.597.361-2.458.13-.861.256-1.674.38-2.44.125-.766.22-1.411.285-1.936.066-.524.105-.877.118-1.058l.022-.287v-.002l-.007.044-.146 1.084a25.225 25.225 0 00-.194 2.229c-.036.8-.056 1.563-.06 2.289-.003.725.021 1.342.074 1.85.052.508.13.823.235.946.105.123.231-.037.38-.48.148-.442.276-1.048.382-1.817.107-.77.178-1.604.215-2.504.037-.9.048-1.704.033-2.415-.014-.71-.056-1.255-.124-1.636-.068-.38-.125-.613-.171-.696-.046-.083-.127.032-.245.346-.118.314-.229.77-.332 1.368a17.966 17.966 0 00-.22 2.005 42.007 42.007 0 00-.07 2.187c-.004.72.026 1.333.09 1.84.065.507.137.826.217.956.08.13.176 0 .29-.39.113-.39.22-.966.324-1.729.102-.763.18-1.552.23-2.367a65.265 65.265 0 00.13-3.493c.002-.298-.006-.41-.026-.337l-.15.551c-.08.294-.153.732-.222 1.313a50.647 50.647 0 00-.18 1.83c-.052.638-.111 1.246-.177 1.823-.065.577-.124 1-.176 1.268-.051.269-.081.37-.09.302l-.062-.507c-.034-.27-.058-.748-.072-1.432a89.91 89.91 0 00-.138-3.06c-.079-1.358-.13-2.165-.154-2.42-.024-.257-.052-.354-.084-.292l-.244.47c-.13.25-.262.679-.394 1.288a16.726 16.726 0 00-.297 1.933c-.066.68-.105 1.293-.116 1.84l-.02 1.047c-.004.152.007.174.032.066l.173-.748c.09-.39.196-1.273.316-2.65.12-1.376.212-2.31.277-2.798l.105-.78c.004-.032.002-.037-.005-.014l-.174.554c-.109.347-.222.855-.34 1.524-.116.67-.22 1.42-.311 2.252-.091.831-.168 1.601-.23 2.31-.061.71-.095 1.186-.1 1.429l-.009.473c-.001.072.016.042.051-.09l.231-.863c.119-.443.224-1.106.316-1.986a55.468 55.468 0 00.29-4.557c.005-.492 0-.782-.015-.87l-.03-.182c-.004-.033-.022-.016-.052.051l-.161.368c-.078.177-.168.634-.27 1.37a21.714 21.714 0 00-.19 2.36 90.87 90.87 0 00-.04 2.292c-.002.69.027 1.208.087 1.554.06.346.146.513.257.501.112-.011.24-.219.382-.622.209-.585.414-1.514.618-2.786" fill="none" stroke="#f59a23" stroke-width="1.32290413" stroke-linecap="round" stroke-linejoin="round" stroke-miterlimit="10"/><path d="M37.782 131.948c.01.905.14 1.658.387 2.26.168.41.321.733.46.972.205.353.484.731.836 1.135M38.85 131.795c.174.96.343 1.677.506 2.152.112.325.23.626.354.902.125.275.264.533.42.772M40.464 131.51c.027.73.06 1.368.101 1.914.028.37.08.77.155 1.203.076.433.157.793.244 1.08.086.288.237.507.45.657M42.325 133.141c-.153.466-.29 1.08-.415 1.84-.08.493-.121.766-.124.82l-.005.124M43.305 132.844c-.257.515-.466 1.174-.629 1.976-.106.524-.211.988-.316 1.39M45.114 132.472c-.03.377-.258 1.026-.682 1.947-.264.57-.535.917-.813 1.04M45.04 134.661c-.782.645-1.363 1.206-1.742 1.684" fill="none" stroke="#7ec636" stroke-width="1.32290413" stroke-linecap="round" stroke-linejoin="round" stroke-miterlimit="10"/><path d="M54.193 128.612l-.071-.146c-.005-.012.002-.01.023.002l.151.092c.08.049.291.248.632.598s.722.868 1.144 1.555c.422.686.79 1.552 1.102 2.595.312 1.044.517 2.202.615 3.472.098 1.27.04 2.651-.174 4.142a21.39 21.39 0 01-1.125 4.408 25.106 25.106 0 01-1.823 3.92c-1.006 1.727-2.468 3.165-4.386 4.314M76.077 138.015c.82.082 2.203.067 4.15-.044M75.768 142.54c-.221.107-.216.255.017.444.17.139.47.262.904.37.63.155 1.681.278 3.155.367" fill="none" stroke="#fcfcfc" stroke-width="1.32290413" stroke-linecap="round" stroke-linejoin="round" stroke-miterlimit="10"/><path d="M134.507 134.201a.804.804 0 00-.208-.452c-.126-.149-.245-.244-.355-.286-.11-.041-.22-.021-.331.06-.11.083-.19.296-.24.64-.05.345-.058.785-.024 1.32.033.534.144 1.158.332 1.87.188.712.42 1.397.697 2.055.276.658.599 1.144.968 1.46.369.316.764.428 1.184.335.42-.093.861-.44 1.324-1.044.462-.602.898-1.207 1.308-1.815.409-.607.792-1.149 1.15-1.625.357-.476.652-.89.885-1.24.233-.35.371-.625.414-.825.044-.2.018-.343-.077-.428-.095-.085-.232-.122-.412-.111-.18.011-.359.116-.535.315-.176.2-.332.48-.468.842-.135.362-.22.824-.254 1.388a23.503 23.503 0 00-.025 1.928c.017.722.16 1.986.429 3.793.269 1.807.474 3.304.615 4.49.141 1.187.262 2.308.361 3.362.1 1.054.161 2.072.185 3.054.024.982-.033 1.835-.17 2.559-.137.724-.367 1.346-.69 1.867-.322.52-.727.876-1.214 1.066-.487.19-1.005.15-1.555-.12s-1.03-.808-1.44-1.613c-.41-.804-.646-1.774-.707-2.909-.062-1.134.017-2.2.234-3.197.319-1.462 1.098-3.152 2.339-5.07M148.736 135.84c.085-.31.067-.526-.056-.648a1.197 1.197 0 00-.35-.23 2.543 2.543 0 00-1.002-.226 2.551 2.551 0 00-.567.053c-.19.04-.376.127-.56.262a2.38 2.38 0 00-.54.599c-.176.263-.326.613-.45 1.048a6.526 6.526 0 00-.224 1.459 4.634 4.634 0 00.185 1.56c.15.502.364.926.642 1.273.28.347.6.56.965.64.365.08.76.013 1.184-.202.424-.216.845-.568 1.263-1.058a6.572 6.572 0 001.037-1.687 11.68 11.68 0 00.636-1.909c.152-.637.239-1.156.262-1.556.023-.4-.024-.643-.142-.728-.117-.085-.264.019-.44.313s-.31.706-.4 1.237c-.09.531-.136 1.126-.138 1.784-.001.658.07 1.281.215 1.868.144.588.332 1.062.563 1.423.332.516 1.045.638 2.142.365M157.407 134.194a1.677 1.677 0 00-.711-.163 1.085 1.085 0 00-.547.164 1.828 1.828 0 00-.549.51c-.17.23-.296.45-.38.664-.084.214-.14.512-.169.896a7.769 7.769 0 00-.016 1.018c.017.295.092.527.226.695.134.168.336.27.607.307.27.037.604.057.999.06a12 12 0 011.156.066c.376.04.692.157.947.352.254.195.415.444.48.747.066.304.027.648-.119 1.034a2.442 2.442 0 01-.754 1.021 2.996 2.996 0 01-1.163.607c-.62.161-1.152.098-1.598-.19M165.367 133.177c.108-.205.095-.335-.038-.389-.095-.038-.26-.021-.495.051a1.926 1.926 0 00-.687.395c-.222.191-.43.435-.622.731a6.576 6.576 0 00-.495.904c-.138.307-.23.594-.278.862a2.603 2.603 0 00-.04.718c.022.21.126.386.313.526s.554.294 1.1.462c.548.168.933.315 1.158.442.225.127.392.282.501.466.11.184.163.416.16.698-.003.281-.13.6-.38.958-.25.357-.56.686-.927.986-.539.44-1.023.549-1.453.328" fill="none" stroke="#007aff" stroke-width="1.32290413" stroke-linecap="round" stroke-linejoin="round" stroke-miterlimit="10"/><path d="M183.123 132.94c.041.265.324.729.848 1.391.323.408.718.85 1.185 1.325.466.476.977 1.035 1.53 1.676.806.932 2.11 2.395 3.914 4.388M191.965 140.614l-.15.25c-.01.016-.015.01-.014-.017l.004-.223c.003-.121.09-.499.262-1.133.173-.634.393-1.387.66-2.26.267-.874.585-1.888.955-3.043.37-1.154.787-2.29 1.252-3.407a25.69 25.69 0 011.638-3.258c.91-1.53 2.806-3.737 5.69-6.622" fill="none" stroke="#7ec636" stroke-width="1.32290413" stroke-linecap="round" stroke-linejoin="round" stroke-miterlimit="10"/><path d="M180.54 21.829a14.277 14.277 0 012.467-3.499c.65-.672 1.29-1.322 1.92-1.95.628-.627 1.412-1.403 2.351-2.328 1.39-1.368 3.1-2.863 5.133-4.485" fill="none" stroke="#d20000" stroke-width="1.32290413" stroke-linecap="round" stroke-linejoin="round" stroke-miterlimit="10"/><path d="M183.048 10.533a50.182 50.182 0 011.588 2.222c.524.777 1.09 1.714 1.694 2.812.876 1.591 2.59 4.305 5.142 8.142" fill="none" stroke="#d20000" stroke-width="1.32290413" stroke-linecap="round" stroke-linejoin="round" stroke-miterlimit="10"/><path d="M1.598 100.958c-.09.26-.072.387.053.378.09-.006.241-.121.455-.347.214-.226.457-.551.728-.975.271-.424.542-.94.813-1.55.27-.609.525-1.34.763-2.19.238-.851.458-1.738.66-2.66.203-.921.38-1.817.532-2.687.152-.87.262-1.76.33-2.67.068-.911.082-1.758.043-2.542a11.784 11.784 0 00-.352-2.32 19.977 19.977 0 00-.717-2.25 37.278 37.278 0 00-.873-2.081 19.41 19.41 0 01-.788-2.017 16.052 16.052 0 01-.562-2.396 22.267 22.267 0 01-.275-2.78c-.036-.946-.028-1.85.02-2.709.05-.86.186-1.668.408-2.425.327-1.116 1.027-2.146 2.099-3.09" fill="none" stroke="#fcfcfc" stroke-width="1.32290413" stroke-linecap="round" stroke-linejoin="round" stroke-miterlimit="10"/><path d="M1.355 87.708a52.15 52.15 0 002.683-4.026c.452-.751 1.001-1.66 1.647-2.724.948-1.562 2.418-3.381 4.41-5.457M24.909 66.12a2.155 2.155 0 00-1.245.011c-.436.127-.78.292-1.035.496-.254.203-.641.648-1.16 1.334-.519.686-1.028 1.646-1.529 2.88-.5 1.235-.884 2.679-1.151 4.33-.267 1.651-.401 3.483-.401 5.493 0 2.011.203 3.924.611 5.74.6 2.672 2.142 5.058 4.622 7.157" fill="none" stroke="#fcfcfc" stroke-width="1.32290413" stroke-linecap="round" stroke-linejoin="round" stroke-miterlimit="10"/><path d="M41.88 90.41c-.036-1.888-.014-3.32.066-4.298.056-.67.095-1.178.118-1.523.023-.346.058-1.137.103-2.373.046-1.237.116-2.465.21-3.684.096-1.22.144-1.947.146-2.18l.002-.37c0-.012-.002-.005-.007.023l-.143.82a57.29 57.29 0 01-.407 2.038c-.18.84-.307 1.472-.382 1.897a13.97 13.97 0 00-.162 1.235c-.034.398-.053.965-.057 1.7a47.64 47.64 0 01-.069 2.296 46.368 46.368 0 00-.067 2.31c-.002.745.02 1.47.07 2.175l.077 1.117.001.013.003-.16v-3.893c0-2.46.017-4.046.051-4.762.034-.715.065-1.238.094-1.57.028-.33.13-.98.304-1.949.173-.968.27-1.5.29-1.592l.032-.155" fill="none" stroke="#ffce86" stroke-width="1.32290413" stroke-linecap="round" stroke-linejoin="round" stroke-miterlimit="10"/><path d="M38.058 67.949c-.106-.145-.157-.164-.152-.059.003.077.097.251.282.522.185.27.406.604.661 1 .256.396.512.857.767 1.385.373.769.846 1.918 1.42 3.448M40.374 67.019c.012.815.11 1.705.292 2.671.182.967.303 1.566.363 1.8.088.34.276.824.564 1.45M42.999 67.664c-.151.433-.26.872-.328 1.316-.046.297-.08.837-.106 1.62a53.746 53.746 0 00-.029 2.941M44.8 67.933c-.2.282-.352.585-.456.908-.07.217-.128.468-.175.754-.047.285-.105.804-.172 1.557-.115 1.278-.109 2.022.018 2.232" fill="none" stroke="#7ec636" stroke-width="1.32290413" stroke-linecap="round" stroke-linejoin="round" stroke-miterlimit="10"/><path d="M47.801 69.377c-.499.372-.97.757-1.415 1.154a12.35 12.35 0 00-.896.893c-.3.329-.567.635-.802.918a6.98 6.98 0 00-.573.785 1.88 1.88 0 00-.283 1.152M48.485 69.987c-.242.063-.51.211-.8.445a5.5 5.5 0 00-.64.627c-.237.266-.534.676-.894 1.232-.359.556-.61.94-.752 1.152-.21.311-.368.72-.474 1.224" fill="none" stroke="#7ec636" stroke-width="1.32290413" stroke-linecap="round" stroke-linejoin="round" stroke-miterlimit="10"/><path d="M43.554 14.422c.083.542.089 1.104.016 1.687-.048.388-.102.991-.16 1.81-.06.818-.104 1.422-.134 1.811-.03.39-.045 1.365-.046 2.928 0 1.562-.052 2.56-.154 2.994a14.81 14.81 0 00-.231 1.175c-.053.349-.083.648-.09.898l-.012.394v.007l.002-.026c0-.026.011-.287.032-.781.02-.495.034-1.102.041-1.822.008-.72.036-1.324.086-1.811.05-.487.076-1.367.078-2.64.002-1.274.01-2.149.025-2.624.013-.475.02-.893.02-1.254 0-.362.021-.703.063-1.024.042-.32.099-.59.17-.806.11-.33.252-.574.423-.73" fill="none" stroke="#fcfcfc" stroke-width="1.32290413" stroke-linecap="round" stroke-linejoin="round" stroke-miterlimit="10"/><path d="M40.875 80.615l.285.637" fill="none" stroke="#ffe2b7" stroke-width="1.32290413" stroke-linecap="round" stroke-linejoin="round" stroke-miterlimit="10"/><path d="M42.965 77.784c-.103-.129-.22-.032-.35.29-.131.322-.266.754-.406 1.295-.14.542-.273 1.037-.399 1.484-.125.448-.214.815-.266 1.102-.051.287-.094.71-.127 1.269l-.107 1.711c-.038.583-.075 1.178-.11 1.787a14.252 14.252 0 01-.304 2.095c-.167.787-.266 1.1-.296.938-.03-.162-.044-.666-.039-1.511.005-.846.06-1.663.164-2.451.105-.788.18-1.38.224-1.774.044-.395.104-1.215.18-2.463.074-1.248.126-1.995.155-2.243.028-.248.122-.687.283-1.317.16-.63.267-1.006.32-1.127l.092-.21c.009-.02.012-.019.012 0l-.007.224c-.003.128-.082.438-.235.929-.153.49-.27.907-.352 1.25a15.542 15.542 0 00-.373 2.482c-.033.464-.058.917-.073 1.358-.016.441-.053 1.101-.11 1.98a54.905 54.905 0 01-.15 1.938c-.044.414-.09.776-.14 1.087-.048.312-.104.602-.167.87-.062.268-.094.299-.096.09l-.016-1.56a95.021 95.021 0 010-2.156c.007-.606.025-1.104.052-1.494.027-.39.059-.978.096-1.765a44.89 44.89 0 01.107-1.758c.035-.385.08-.748.137-1.09.056-.34.113-.627.172-.859.058-.232.11-.404.155-.517l.085-.21c.01-.027.019 0 .024.078l.045.616c.024.331.036.74.038 1.225.001.485-.019 1.294-.061 2.427-.042 1.133-.065 2.77-.067 4.912-.002 2.142.002 3.257.014 3.345.012.088.019.14.02.157.003.017.015-.03.035-.142l.198-1.057a54.84 54.84 0 00.286-1.662c.08-.514.153-1.07.22-1.669a74.832 74.832 0 01.51-3.702c.103-.617.235-1.384.4-2.301a69.612 69.612 0 01.544-2.78l.003-.016-.006.025-.204.887c-.13.562-.22 1.03-.275 1.404a75.957 75.957 0 00-.268 2.346c-.124 1.19-.215 2.04-.273 2.548a72.924 72.924 0 00-.166 1.618 29.894 29.894 0 00-.107 1.665c-.02.538-.03 1.12-.032 1.745l-.003 1.057c0 .08.004.1.012.063l.104-.505c.061-.3.14-.942.233-1.928.094-.986.185-2.067.274-3.24a152.542 152.542 0 01.408-4.73c.082-.807.128-1.284.14-1.432a207 207 0 01.017-.235v-.002l-.007.044-.156 1.027a37.925 37.925 0 00-.37 3.393c-.044.61-.075 1.271-.094 1.984-.027 1.043-.022 2.481.015 4.315" fill="none" stroke="#ffce86" stroke-width="1.32290413" stroke-linecap="round" stroke-linejoin="round" stroke-miterlimit="10"/><path d="M58.18 66.41c-.14-.363-.08-.524.178-.483.187.029.466.247.836.655.37.408.792.981 1.265 1.72.473.739.937 1.62 1.393 2.642a28.856 28.856 0 011.256 3.446c.382 1.276.651 2.702.808 4.28.156 1.577.073 3.252-.248 5.024a27.946 27.946 0 01-1.565 5.374c-1.06 2.655-3.142 5.524-6.247 8.607M79.248 79.847l-.159.077c-.01.005.03.009.125.012l.762.022c.415.013.811.039 1.19.08.547.057 1.479.35 2.795.878M76.611 86.031c.85.08 1.587.115 2.212.107.424-.005.937-.048 1.539-.128.877-.116 2.25-.218 4.122-.306" fill="none" stroke="#fcfcfc" stroke-width="1.32290413" stroke-linecap="round" stroke-linejoin="round" stroke-miterlimit="10"/><path d="M103.884 73.37c.008-.551.003-.903-.015-1.057a.97.97 0 00-.16-.385 1.959 1.959 0 00-.983-.784 3.025 3.025 0 00-.87-.172c-.339-.024-.733.04-1.183.188-.45.15-.944.423-1.482.82-.539.398-1.043.936-1.512 1.615a9.98 9.98 0 00-1.15 2.218c-.297.8-.493 1.747-.59 2.84a19.027 19.027 0 00-.02 3.2c.084 1.038.288 1.966.61 2.78.324.815.75 1.468 1.277 1.958.527.49 1.12.789 1.78.897.66.109 1.325.023 1.996-.256a5.684 5.684 0 001.84-1.25c.556-.556 1.01-1.25 1.362-2.082.352-.833.588-1.845.709-3.035.12-1.19.127-2.276.02-3.259-.108-.982-.332-1.812-.671-2.49-.34-.678-.691-1.202-1.054-1.574-.532-.544-1.075-.729-1.629-.553M124.345 71.833c-.502-.148-1.422-.235-2.758-.26a51.27 51.27 0 01-1.938-.066 7.502 7.502 0 01-1.226-.164 4.191 4.191 0 01-.931-.32c-.265-.133-.323.116-.174.746.148.63.273 1.184.375 1.664.101.48.19.954.267 1.425.077.47.17 1.094.278 1.871.109.778.127 1.195.054 1.252-.072.057-.122-.014-.15-.212-.027-.197.005-.355.097-.472.091-.118.244-.206.458-.264.214-.058.486-.087.818-.086.332.002.692.084 1.08.249.389.164.757.406 1.105.726.347.32.638.717.871 1.19.233.473.401.997.504 1.571a8.65 8.65 0 01.139 1.68 3.338 3.338 0 01-.422 1.56c-.27.496-.644.943-1.12 1.342a4.356 4.356 0 01-1.615.857c-.601.172-1.126.24-1.574.204-.637-.052-.976-.527-1.016-1.426" fill="none" stroke="#007aff" stroke-width="1.32290413" stroke-linecap="round" stroke-linejoin="round" stroke-miterlimit="10"/><path d="M129.584 87.427c.388.474.637.804.745.99.076.129.14.286.192.47.053.186.092.442.117.77.026.328.023.683-.007 1.065-.03.382-.218.941-.564 1.678-.51 1.088-1.333 2.143-2.467 3.165" fill="none" stroke="#fcfcfc" stroke-width="1.32290413" stroke-linecap="round" stroke-linejoin="round" stroke-miterlimit="10"/><path d="M146.219 81.841c-.03-.241-.136-.498-.319-.77-.12-.18-.25-.338-.39-.475a1.776 1.776 0 00-.516-.345 2.055 2.055 0 00-.734-.163c-.284-.016-.591.077-.922.28-.331.203-.648.526-.952.967a6.703 6.703 0 00-.758 1.49 5.718 5.718 0 00-.353 1.622c-.032.53.029 1.03.184 1.498.155.468.381.844.68 1.127.297.283.649.456 1.054.518s.836-.036 1.292-.294c.457-.258.885-.627 1.286-1.106.401-.48.73-.985.988-1.514.257-.53.448-1.082.573-1.655a9.12 9.12 0 00.216-1.577c.019-.479-.004-.838-.067-1.078-.063-.24-.16-.385-.293-.434-.132-.05-.267.028-.406.234-.14.205-.251.523-.336.952-.086.429-.133.863-.141 1.301-.009.439.036 1.026.132 1.76.097.736.234 1.378.41 1.926.175.548.37.981.585 1.3.215.317.441.489.68.515.339.037.777-.554 1.313-1.772M152.392 81.047c.11-.275.282-.854.517-1.738.234-.884.467-1.952.699-3.203.231-1.25.393-2.223.484-2.919a25.62 25.62 0 00.181-1.79c.03-.498.038-.864.027-1.099-.01-.235-.086-.36-.225-.377-.14-.016-.321.172-.546.566-.225.394-.46 1.006-.706 1.836-.246.83-.45 1.806-.613 2.93a33.458 33.458 0 00-.308 3.724 24.26 24.26 0 00.146 3.733c.14 1.13.388 1.99.745 2.576.357.587.754.976 1.192 1.167.626.274 1.496-.077 2.61-1.052M158.438 79.69c-.089.455-.114 1.002-.073 1.643.026.42.07.87.131 1.354.062.483.132.976.211 1.48.08.503.152.915.22 1.235.066.32.146.602.238.844.092.243.168.313.228.21.06-.104.083-.367.071-.79a46.683 46.683 0 00-.069-1.469 14.525 14.525 0 01.005-1.758c.037-.615.13-1.142.278-1.58.148-.437.285-.76.412-.967.126-.208.232-.312.318-.313.085 0 .202.369.349 1.11.147.74.267 1.337.36 1.79.094.452.233 1.007.417 1.663.184.655.312 1.047.384 1.174.072.127.222-.197.452-.97.229-.773.45-1.431.661-1.974.212-.543.427-.993.646-1.35.218-.356.381-.576.49-.658.109-.082.178-.012.207.21.03.222.03.568 0 1.039-.03.47-.052.962-.067 1.477-.016.515-.002 1.006.042 1.473.043.467.15.869.318 1.205.169.336.354.57.556.704.285.188.673-.012 1.162-.599M171.28 81.472c.217-.006.399-.187.543-.543.098-.241.152-.425.163-.55a1.064 1.064 0 00-.041-.387.638.638 0 00-.27-.344 1.687 1.687 0 00-.54-.231 3.117 3.117 0 00-.709-.093c-.253-.006-.51.09-.771.287-.261.197-.497.493-.708.888-.21.394-.366.865-.467 1.411a9.566 9.566 0 00-.156 1.664 5.587 5.587 0 00.24 1.659 4.75 4.75 0 00.658 1.393c.274.385.596.622.966.713.37.091.765.019 1.184-.216.419-.236.81-.576 1.175-1.02.365-.445.644-.93.839-1.455a6.169 6.169 0 00.36-1.678c.047-.594-.001-1.095-.142-1.504-.203-.586-.712-.87-1.527-.85M177.672 80.136c.082-.164.061-.278-.061-.343a.595.595 0 00-.32-.057c-.127.009-.263.116-.407.321a3.46 3.46 0 00-.397.804c-.12.33-.212.683-.277 1.058-.065.375-.104.71-.116 1.005-.013.294 0 .526.037.694a.542.542 0 00.3.376c.161.083.37.145.623.186.253.041.541.103.863.186.322.084.657.211 1.005.384.35.172.636.392.862.66.226.267.373.572.442.916.07.343.028.703-.123 1.081a1.927 1.927 0 01-.783.92c-.54.343-1.35.496-2.431.458M184.78 74.636c.068.802.114 1.737.138 2.803a236.676 236.676 0 01.038 5.608c-.005 1.03-.022 2.001-.048 2.915-.041 1.389-.094 2.645-.158 3.77" fill="none" stroke="#007aff" stroke-width="1.32290413" stroke-linecap="round" stroke-linejoin="round" stroke-miterlimit="10"/><path d="M183.004 82.426c-.236.176-.259.265-.07.267.138.002.465-.044.98-.135a12.667 12.667 0 001.806-.489c1.007-.341 2.382-.94 4.125-1.794M111.356 86.678l.285-.485M99.455 10.244c-.086-.3-.269-.66-.548-1.081-.28-.42-.512-.714-.697-.878a1.716 1.716 0 00-.641-.361 2.368 2.368 0 00-.874-.076c-.34.025-.674.13-1.005.319-.33.187-.782.59-1.357 1.208a9.989 9.989 0 00-1.48 2.078c-.414.767-.73 1.686-.95 2.758a13.517 13.517 0 00-.262 3.27c.045 1.11.257 2.07.637 2.878.38.81.869 1.455 1.467 1.938.598.482 1.24.757 1.925.825.685.068 1.382-.135 2.09-.608a7.784 7.784 0 001.898-1.83c.558-.745.99-1.617 1.298-2.614.307-.997.499-1.951.574-2.86.076-.91.069-1.638-.022-2.184-.09-.546-.245-.94-.465-1.179-.315-.343-.756-.37-1.322-.083M105.315 20.788l-.351.042M116.819 11.384c.085-.523.07-.977-.05-1.362a3.474 3.474 0 00-.337-.758 2.246 2.246 0 00-.555-.63 1.806 1.806 0 00-.747-.349c-.273-.057-.59-.052-.955.014-.364.067-.745.268-1.143.604A4.917 4.917 0 00112 10.129c-.291.482-.59 1.29-.895 2.427a16.05 16.05 0 00-.534 3.495c-.05 1.193.07 2.272.361 3.235.291.963.736 1.723 1.333 2.28.597.557 1.27.834 2.02.83.75-.003 1.473-.321 2.17-.953.695-.633 1.261-1.445 1.699-2.438.437-.993.714-1.994.83-3.002.117-1.008.086-1.892-.093-2.652-.262-1.11-1.016-2.301-2.262-3.574" fill="none" stroke="#007aff" stroke-width="1.32290413" stroke-linecap="round" stroke-linejoin="round" stroke-miterlimit="10"/><path d="M124.787 22.084c.005-.304.091-.541.26-.711a.782.782 0 01.477-.21c.203-.025.41.053.62.235.212.181.367.495.468.941.1.447.115.993.046 1.638-.1.938-.698 2.023-1.794 3.254" fill="none" stroke="#fcfcfc" stroke-width="1.32290413" stroke-linecap="round" stroke-linejoin="round" stroke-miterlimit="10"/><path d="M204.552 79.805c-.138.123-.265.14-.382.05-.081-.064-.168-.257-.261-.58a3.297 3.297 0 01-.145-.839c-.004-.237.02-.51.073-.816.052-.306.157-.623.314-.95a5.61 5.61 0 01.525-.887c.193-.263.375-.457.546-.582.172-.125.375-.2.61-.222.234-.023.41.039.526.185.116.147.229.356.338.628.11.272.222.586.339.942.116.357.253.74.41 1.152.158.412.343.83.556 1.252.213.423.462.774.747 1.054s.587.453.906.52c.318.068.645.006.98-.185.478-.273.921-1.274 1.329-3M203.968 84.512c-.254.225-.465.347-.635.366-.117.013-.165-.17-.145-.547.02-.378.106-.746.255-1.104a4.43 4.43 0 01.501-.917c.186-.254.36-.423.523-.508a.689.689 0 01.467-.08c.148.031.3.163.454.397.154.234.321.53.501.89s.39.71.632 1.049c.242.34.506.651.794.936.288.284.595.522.92.715.325.192.649.321.972.387.322.066.638.082.946.05.309-.034.594-.137.856-.312.262-.174.481-.372.658-.595a3.14 3.14 0 00.392-.604c.123-.263.21-.646.26-1.147" fill="none" stroke="#d2a500" stroke-width="1.32290413" stroke-linecap="round" stroke-linejoin="round" stroke-miterlimit="10"/><path d="M94.77 139.87c.21-.467.406-.943.59-1.427.124-.323.3-.85.53-1.58.23-.73.435-1.451.616-2.163.181-.712.347-1.44.497-2.184.15-.744.269-1.449.357-2.116.088-.666.142-1.23.163-1.693.022-.463.004-.82-.053-1.07-.057-.251-.163-.41-.32-.474-.156-.065-.334-.04-.534.071-.2.113-.41.382-.629.809-.218.427-.414.968-.586 1.624-.173.656-.29 1.378-.354 2.168-.064.79-.096 1.724-.096 2.805 0 1.081.033 2.276.1 3.584.066 1.308.149 2.59.247 3.847.098 1.258.221 2.4.37 3.428.223 1.556.548 2.957.973 4.204M100.748 147.89l-.196.067M111.455 134.098c-.076-.593-.159-1.018-.249-1.277a3.793 3.793 0 00-.22-.512 3.163 3.163 0 00-.3-.467 1.697 1.697 0 00-.395-.373c-.15-.1-.343-.156-.582-.166-.238-.01-.548.12-.929.388-.38.27-.794.658-1.24 1.167a10.388 10.388 0 00-1.16 1.6c-.327.558-.659 1.49-.995 2.798a17.79 17.79 0 00-.575 3.748c-.046 1.192.08 2.276.378 3.252.298.975.729 1.732 1.292 2.271.564.539 1.2.865 1.908.978.708.113 1.424.004 2.148-.326.724-.331 1.39-.872 1.995-1.623a6.857 6.857 0 001.287-2.465 9.497 9.497 0 00.366-2.668 6.403 6.403 0 00-.508-2.49c-.49-1.145-1.316-2.097-2.477-2.855" fill="none" stroke="#007aff" stroke-width="1.32290413" stroke-linecap="round" stroke-linejoin="round" stroke-miterlimit="10"/><path d="M119.559 146.308c-.021-.419-.008-.7.039-.846.033-.101.176-.203.43-.305.255-.102.547-.102.875 0 .328.1.62.341.876.72.256.38.424.835.502 1.367a5.387 5.387 0 01-.047 1.73c-.16.894-1.017 2.06-2.573 3.496M.904 38.715c-.09.26-.072.386.053.378.09-.006.241-.121.455-.347.214-.226.457-.551.728-.975.271-.424.542-.94.813-1.55.27-.61.525-1.34.763-2.19.238-.851.458-1.738.66-2.66.203-.922.38-1.817.532-2.687.152-.87.262-1.76.33-2.67.068-.911.082-1.759.043-2.542a11.79 11.79 0 00-.352-2.321 19.98 19.98 0 00-.717-2.248 37.278 37.278 0 00-.873-2.082 19.41 19.41 0 01-.788-2.017 16.052 16.052 0 01-.562-2.396 22.267 22.267 0 01-.276-2.78c-.035-.947-.027-1.85.022-2.709.05-.86.185-1.668.407-2.425.327-1.116 1.027-2.146 2.099-3.09" fill="none" stroke="#fcfcfc" stroke-width="1.32290413" stroke-linecap="round" stroke-linejoin="round" stroke-miterlimit="10"/><path d="M.661 25.465a52.087 52.087 0 002.683-4.026c.452-.752 1.001-1.66 1.647-2.724.948-1.562 2.418-3.381 4.41-5.457M1.626 160.309c-.09.26-.071.386.054.378.089-.006.24-.122.455-.347.213-.226.456-.551.727-.975.271-.424.542-.941.813-1.55.27-.61.525-1.34.763-2.19.239-.852.459-1.738.66-2.66.203-.922.38-1.817.533-2.687.152-.87.262-1.76.33-2.67.068-.912.082-1.759.042-2.542a11.784 11.784 0 00-.352-2.321 19.977 19.977 0 00-.717-2.248 37.278 37.278 0 00-.872-2.083 19.415 19.415 0 01-.788-2.016 16.056 16.056 0 01-.563-2.396 22.267 22.267 0 01-.275-2.78c-.035-.947-.028-1.85.021-2.71.05-.858.185-1.667.407-2.424.328-1.116 1.027-2.146 2.1-3.09" fill="none" stroke="#fcfcfc" stroke-width="1.32290413" stroke-linecap="round" stroke-linejoin="round" stroke-miterlimit="10"/><path d="M1.384 147.059a52.15 52.15 0 002.682-4.026c.453-.752 1.002-1.66 1.647-2.724.948-1.562 2.418-3.381 4.41-5.457" fill="none" stroke="#fcfcfc" stroke-width="1.32290413" stroke-linecap="round" stroke-linejoin="round" stroke-miterlimit="10"/></svg>