<svg xmlns="http://www.w3.org/2000/svg" width="250.635" height="257.554"><path d="M4.252 5.67l-.475.048c-.014.001.016.006.09.013l1.31.124c.799.076 2.68.083 5.645.02 2.965-.062 7.929-.095 14.891-.1 6.963-.003 12.505-.038 16.628-.104 4.123-.066 7.311-.108 9.566-.127 2.255-.018 4.478-.053 6.67-.103 2.191-.05 7.354-.153 15.487-.308 8.133-.156 13.674-.276 16.622-.36 2.947-.082 7.505-.228 13.674-.435a8088.74 8088.74 0 0119.318-.626c6.71-.21 11.651-.344 14.822-.403 3.171-.058 6.504-.113 9.998-.163 3.495-.05 6.253-.104 8.276-.16 2.023-.058 3.98-.095 5.873-.111 1.892-.017 6.88-.11 14.962-.28 8.082-.168 14.069-.265 17.96-.288 3.891-.024 7.635-.036 11.232-.039 3.597-.002 5.993.004 7.189.019 1.196.014 3.03.104 5.504.27 2.474.166 4.897.317 7.27.455l6.86.396c3.227.187 7.477.475 12.75.865M247.12 2.527c-.303 1.301-.508 2.407-.615 3.318-.073.619-.122 1.687-.149 3.204-.026 1.518-.04 4.054-.04 7.61 0 3.554.015 6.272.046 8.153.03 1.88.048 7.058.05 15.532.005 8.474.024 14.845.059 19.111.035 4.267.06 7.093.078 8.48.017 1.386.084 4.28.2 8.684.116 4.403.227 9.54.334 15.413.107 5.873.186 10.456.239 13.747.052 3.292.113 6.558.182 9.798.07 3.24.157 8.338.264 15.293.107 6.955.163 19.258.169 36.908.006 17.65 0 28.12-.016 31.41-.017 3.29-.026 6.436-.028 9.44-.001 3.002-.01 5.825-.028 8.47a1872.49 1872.49 0 01-.103 10.383c-.052 4.278-.11 7.11-.173 8.493-.063 1.384-.153 2.498-.27 3.344a7.51 7.51 0 01-1.35 3.405M3.742 7.819c-.019 8.758-.006 14.094.038 16.007.03 1.334.141 2.807.333 4.418.192 1.611.377 3.26.554 4.947.178 1.687.321 3.44.43 5.26.11 1.82.187 3.757.231 5.809.044 2.052.069 4.116.073 6.191.005 2.075.03 4.28.078 6.613s.105 4.732.17 7.199c.067 2.466.111 4.915.134 7.346.024 2.432.036 4.862.039 7.29.002 2.428-.012 4.918-.042 7.472-.03 2.553-.103 5.161-.217 7.824-.114 2.662-.2 5.352-.259 8.07s-.121 5.55-.188 8.495a608.331 608.331 0 01-.253 8.542c-.1 2.75-.188 5.568-.262 8.454a379.05 379.05 0 00-.122 8.771c-.008 2.963-.003 5.95.012 8.965.016 3.014.04 6.002.073 8.962.032 2.96.041 5.988.028 9.084a202.619 202.619 0 01-.235 9.024c-.143 2.92-.26 5.815-.353 8.684-.092 2.87-.176 7.374-.253 13.515-.077 6.14-.172 10.758-.284 13.855a300.325 300.325 0 01-.447 8.88 310.79 310.79 0 00-.424 7.799c-.097 2.374-.15 4.538-.16 6.49-.009 1.952.033 3.795.127 5.531.093 1.736.239 3.405.437 5.008.198 1.603.363 3.044.494 4.323a61.2 61.2 0 01.268 3.594c.073 1.687-.248 2.98-.961 3.88M2.364 255.286c-.448-.347.348-.682 2.388-1.006 2.04-.323 3.604-.544 4.691-.663a66.71 66.71 0 013.823-.292c1.461-.075 4.735-.168 9.823-.28 5.087-.11 8.56-.183 10.418-.216 1.858-.033 3.619-.052 5.282-.055a265.229 265.229 0 0010.708-.228c1.999-.08 3.963-.142 5.893-.183 1.93-.042 4.813-.065 8.648-.07 3.835-.004 6.702-.014 8.601-.029a349.67 349.67 0 005.87-.096c2.015-.05 6.241-.228 12.679-.534 6.437-.307 11.713-.532 15.828-.676 4.115-.144 7.294-.234 9.538-.27 2.245-.037 4.4-.082 6.466-.133 2.066-.052 5.369-.172 9.91-.36 4.541-.187 7.89-.317 10.048-.39 2.158-.074 4.476-.13 6.955-.166a547.04 547.04 0 017.299-.061c2.386-.004 4.856-.023 7.408-.056 2.552-.034 5.174-.084 7.865-.15 2.69-.067 5.469-.15 8.335-.249 2.866-.099 5.684-.178 8.453-.236 2.77-.058 5.575-.121 8.415-.19 2.84-.069 5.676-.13 8.507-.186 2.83-.055 6.993-.085 12.485-.091 5.493-.006 9.376.015 11.651.063a335.17 335.17 0 0010.691.065c1.22-.014 2.199-.054 2.935-.118 1.077-.094 2.54-.163 4.39-.206" fill="none" stroke="#fcfcfc" stroke-width="4.535255719999999" stroke-linecap="round" stroke-linejoin="round" stroke-miterlimit="10"/><path d="M59.61 58.911c.013.316.126.778.34 1.385.212.608.37 1.076.475 1.406.105.33.397 1.198.878 2.603.48 1.404.892 2.614 1.236 3.63.344 1.014.63 1.84.86 2.475.23.635.397 1.11.503 1.425.107.315.344.977.712 1.987.368 1.01.608 1.686.72 2.029.113.343.259.84.437 1.493.261.955.666 2.227 1.213 3.813M45.082 73.167c.41.161.833.296 1.268.403.435.107.855.227 1.26.36.404.133.844.288 1.319.464.474.176 1.155.45 2.04.82.886.37 1.761.707 2.626 1.01.864.303 1.539.544 2.024.722.484.18.924.347 1.318.504.394.157.746.29 1.056.4.31.108.732.281 1.265.518.533.237 1.352.619 2.456 1.146 1.105.527 1.825.868 2.162 1.022.337.154.783.392 1.34.714.556.322.964.542 1.226.66M58.721 59.172c.085-.13.13-.113.132.05.003.122-.056.337-.175.646-.119.308-.268.642-.446 1-.18.357-.32.628-.424.812a7.84 7.84 0 01-.49.73c-.222.304-.63.8-1.223 1.488a48.065 48.065 0 01-1.294 1.459c-.27.284-.631.681-1.087 1.191-.455.51-.863.941-1.222 1.295-.36.353-.681.644-.965.873-.284.229-.492.41-.626.544a5.116 5.116 0 01-.443.39c-.16.128-.528.375-1.101.742-.574.367-1.038.648-1.392.843-.513.283-1.381.832-2.607 1.646" fill="none" stroke="#007aff" stroke-width="1.32290413" stroke-linecap="round" stroke-linejoin="round" stroke-miterlimit="10"/><path d="M199.41 164.108c-.862.369-2.052.842-3.57 1.42-.974.372-1.896.734-2.765 1.087-.87.353-1.82.757-2.854 1.212a88.658 88.658 0 01-3.175 1.325 35.27 35.27 0 01-3 1.045 32.91 32.91 0 01-2.543.647c-1.147.239-2.6.588-4.36 1.046M195.017 186.916a13.794 13.794 0 00-.997-1.095 31.836 31.836 0 00-1.437-1.325 62.392 62.392 0 00-2.059-1.715c-.79-.632-1.638-1.313-2.547-2.042-.909-.728-1.84-1.449-2.793-2.161a181.806 181.806 0 00-3.744-2.705 64.942 64.942 0 00-4.293-2.81M200.251 164.673c-.168.13-.332.367-.491.71-.16.345-.281.64-.366.89a36.19 36.19 0 01-.45 1.211c-.216.56-.467 1.176-.755 1.849a55.743 55.743 0 00-.835 2.07c-.27.709-.528 1.46-.774 2.257-.247.796-.431 1.502-.553 2.118a32.877 32.877 0 00-.362 2.46 32.152 32.152 0 00-.213 2.947c-.034 1.39-.108 3.023-.224 4.9" fill="none" stroke="#7ec636" stroke-width="1.33744953" stroke-linecap="round" stroke-linejoin="round" stroke-miterlimit="10"/><path d="M50.355 218.994c.224-.31.667-1.147 1.33-2.51a636.526 636.526 0 001.558-3.218c.375-.783.745-1.58 1.108-2.39a58.46 58.46 0 011.138-2.392c.396-.785.775-1.526 1.137-2.223.363-.696.724-1.4 1.086-2.109.535-1.05 1.026-2.31 1.474-3.783M58.581 199.141c-.25.138-.595.288-1.034.451-.439.163-.912.343-1.418.54-.507.199-1.1.426-1.782.683-.681.256-1.45.52-2.305.792-.855.271-1.716.55-2.582.836-.866.287-1.712.58-2.54.883-.827.302-1.594.602-2.301.9-.707.298-1.358.583-1.956.855a161.6 161.6 0 00-1.754.814 26.43 26.43 0 01-2.839 1.126M48.773 218.387a8.85 8.85 0 01-.515-.915 25.31 25.31 0 00-.383-.741c-.146-.274-.394-.7-.743-1.278a12.732 12.732 0 00-1.269-1.73 16.34 16.34 0 00-1.612-1.62 30.857 30.857 0 00-1.798-1.456c-.912-.684-2.053-1.617-3.425-2.801" fill="none" stroke="#f59a23" stroke-width="1.2727225" stroke-linecap="round" stroke-linejoin="round" stroke-miterlimit="10"/><path d="M171.28 35.787c-.079.137-.153.302-.22.495s-.202.533-.405 1.02c-.203.486-.329.795-.377.925-.048.13-.162.495-.343 1.092a64.756 64.756 0 01-.594 1.853c-.214.639-.411 1.22-.59 1.744a35.48 35.48 0 01-.56 1.523 84.807 84.807 0 01-.81 1.958c-.346.813-.644 1.497-.893 2.052-.25.555-.443.976-.579 1.265-.136.289-.32.689-.55 1.2-.23.511-.507 1.112-.831 1.803-.325.69-.67 1.463-1.037 2.318-.367.854-.622 1.46-.765 1.815-.218.539-.4 1.04-.544 1.505M161.873 58.974c.332-.108.909-.307 1.73-.6.511-.182 1.177-.417 2-.705.822-.288 1.657-.59 2.503-.905a421.82 421.82 0 002.723-1.026c.969-.368 2.024-.754 3.165-1.156 1.141-.403 2.28-.793 3.413-1.172a169.67 169.67 0 003.058-1.048c.904-.32 1.709-.586 2.414-.795a56.166 56.166 0 002.904-.94M172.736 35.894c-.023.21-.01.447.042.711.052.265.14.573.265.926.126.353.263.7.413 1.04.15.34.316.691.5 1.052.185.362.407.714.667 1.056.26.343.503.621.727.836.224.214.664.573 1.32 1.075.656.503 1.224.904 1.706 1.203A87.27 87.27 0 01181 45.491c.294.201.741.516 1.341.946.6.429 1.032.74 1.295.93.264.192.596.424.998.698.598.406 1.27.788 2.019 1.144" fill="none" stroke="#f65353" stroke-width="1.42763101" stroke-linecap="round" stroke-linejoin="round" stroke-miterlimit="10"/><path d="M191.017 171.69c-.02.425-.02.807.004 1.147.016.23.039.483.069.761a26.299 26.299 0 01.127 1.773c.01.283.021.528.035.736.013.208.029.404.048.59l.041.407M171.725 46.585c.002.08-.038.122-.12.127-.059.002-.102-.036-.131-.115-.03-.08-.046-.26-.05-.54-.003-.28.031-.493.103-.64a1.765 1.765 0 01.685-.738c.147-.084.292-.135.434-.151a.64.64 0 01.41.092c.13.078.254.185.37.32a2.321 2.321 0 01.466.853c.037.135.056.267.06.396a.714.714 0 01-.084.361c-.06.113-.123.209-.189.288a.692.692 0 01-.19.169c-.06.032-.095.052-.105.058-.01.005.002.007.039.004l.366-.03c.207-.018.382-.015.522.008s.28.078.418.164c.138.086.26.207.364.363.105.156.181.334.228.533.048.2.075.409.084.628.008.22-.045.443-.16.672-.114.229-.28.443-.494.64-.216.2-.47.356-.762.472a2.858 2.858 0 01-.817.203c-.252.02-.447-.025-.584-.135-.196-.158-.272-.508-.228-1.05M48.064 208.31a.72.72 0 01-.269-.362 2.725 2.725 0 01-.089-.392c-.026-.162-.06-.45-.101-.864a10.541 10.541 0 00-.125-.936 4.936 4.936 0 00-.14-.555 1.514 1.514 0 00-.158-.36.415.415 0 00-.172-.158c-.061-.027-.093.006-.094.097a.894.894 0 00.098.36c.068.148.159.294.273.437.115.143.228.257.34.343.11.085.287.154.529.207.242.053.485.082.729.088.244.005.485-.014.725-.058.24-.044.468-.1.688-.168a3.3 3.3 0 00.583-.237c.169-.09.306-.19.411-.3a.84.84 0 00.21-.328.97.97 0 00.05-.284c0-.078-.04-.126-.12-.142a.46.46 0 00-.289.057 1.202 1.202 0 00-.346.276 2.16 2.16 0 00-.314.452 3.93 3.93 0 00-.26.643 8.536 8.536 0 00-.23.937c-.072.368-.135.748-.19 1.14-.054.392-.097.76-.131 1.107a14.102 14.102 0 00-.045 2.637M58.355 68.444c.02-.272-.001-.45-.065-.532a.77.77 0 00-.175-.16c-.072-.05-.16-.091-.263-.124a2.466 2.466 0 00-.522-.075 2.698 2.698 0 00-.561.005 1.07 1.07 0 00-.372.135 2.043 2.043 0 00-.67.619 3.585 3.585 0 00-.302.533c-.099.21-.189.448-.27.716a6.471 6.471 0 00-.194.861 7.83 7.83 0 00-.092.894c-.012.29-.003.564.028.82.03.255.107.504.23.745.122.241.28.461.477.66.196.2.412.368.647.503.234.136.49.226.77.272.279.046.565.051.86.016.294-.036.574-.129.84-.28.265-.15.464-.3.597-.446.134-.147.245-.335.335-.565.09-.23.137-.419.142-.566a.51.51 0 00-.14-.38c-.1-.106-.23-.204-.392-.294a2.577 2.577 0 00-.585-.227 3.543 3.543 0 00-.734-.113 2.289 2.289 0 00-1.38.374c-.278.187-.48.379-.604.574" fill="none" stroke="#fcfcfc" stroke-width=".7556335299999999" stroke-linecap="round" stroke-linejoin="round" stroke-miterlimit="10"/><path d="M52.273 107.933c.039-1.738.13-3.174.275-4.309a224.645 224.645 0 011.785-11.049M50.348 91.04c-.072-.387-.071-.733.004-1.037.05-.206.198-.55.44-1.032.244-.482.496-.916.759-1.304.262-.387.547-.73.855-1.029.309-.298.626-.528.953-.687.326-.16.647-.255.962-.285.314-.03.578-.036.79-.017.21.018.446.122.705.312.26.189.488.408.688.658.199.25.392.571.578.964.268.564.735 2.123 1.402 4.676M47.607 174.251v-.433c0-.026-.005-.03-.014-.011l-.086.168c-.049.094-.111.367-.189.82a11.65 11.65 0 00-.14 1.633c-.016.636-.025 1.807-.027 3.513-.001 1.706.002 3.035.01 3.988.013 1.402.168 3.133.464 5.192M42.101 189.261l-.38-.242c-.017-.011.021.046.114.172l1.097 1.488a42.385 42.385 0 001.494 1.938c.357.427.702.784 1.033 1.071.332.287.655.525.97.713.315.188.604.324.867.408.263.084.511.126.747.127.235 0 .48-.104.735-.313.254-.209.502-.504.744-.886.24-.381.478-.8.711-1.256.233-.456.463-.88.688-1.273.335-.582.761-1.196 1.28-1.841" fill="none" stroke="#fcfcfc" stroke-width="1.32290413" stroke-linecap="round" stroke-linejoin="round" stroke-miterlimit="10"/></svg>