<svg xmlns="http://www.w3.org/2000/svg" width="360.567" height="228.22"><path d="M21.927 32.342c.406.335 1.103.709 2.09 1.12.988.413 1.745.738 2.269.975.524.238 1.922.84 4.194 1.808 2.272.968 4.227 1.803 5.864 2.507 1.638.703 2.977 1.266 4.018 1.688 1.04.423 1.814.743 2.322.962.508.218 1.59.661 3.249 1.329 1.658.667 2.762 1.122 3.311 1.364.55.242 1.326.615 2.331 1.12 1.473.74 3.495 1.653 6.066 2.74M23.408 66.16a16.594 16.594 0 001.908-1.12c.616-.42 1.231-.805 1.846-1.157a62.624 62.624 0 012.04-1.116c.746-.39 1.84-.928 3.283-1.612a79.524 79.524 0 004.167-2.125 233.471 233.471 0 013.145-1.7c.76-.4 1.456-.757 2.088-1.07.633-.312 1.189-.6 1.669-.863.48-.262 1.162-.592 2.048-.988.885-.396 2.268-.984 4.148-1.764s3.102-1.292 3.667-1.537c.565-.245 1.356-.533 2.373-.862 1.016-.33 1.743-.592 2.178-.784M21.262 33.732c-.066-.25.004-.286.21-.108.152.133.353.444.603.934.249.49.496 1.045.74 1.664.243.62.421 1.095.533 1.427.112.332.232.805.36 1.417.128.613.287 1.669.479 3.168.191 1.5.313 2.574.366 3.223.052.649.14 1.538.265 2.668.124 1.13.205 2.114.243 2.952.037.837.04 1.559.007 2.164-.032.605-.04 1.065-.024 1.38a8.51 8.51 0 01-.008.98c-.022.34-.125 1.07-.308 2.187a43.562 43.562 0 01-.504 2.66c-.22.947-.508 2.632-.862 5.054" fill="none" stroke="#007aff" stroke-width="2.1999917499999997" stroke-linecap="round" stroke-linejoin="round" stroke-miterlimit="10"/><path d="M115.957 62.338c.636-.1 2.16-.562 4.573-1.384 2.413-.822 4.31-1.473 5.69-1.952 1.38-.48 2.768-.982 4.165-1.507a98.008 98.008 0 014.206-1.474 339.92 339.92 0 014.002-1.276c1.26-.392 2.53-.793 3.805-1.202 1.888-.604 3.976-1.511 6.264-2.721M149.413 48.645c-.461-.136-1.05-.37-1.764-.7-.714-.332-1.49-.684-2.326-1.054-.836-.37-1.811-.811-2.925-1.32a77.801 77.801 0 01-3.677-1.815c-1.337-.7-2.69-1.398-4.057-2.093a147.697 147.697 0 00-4.063-1.988 84.967 84.967 0 00-3.801-1.682 124.054 124.054 0 00-3.339-1.322c-1.032-.39-2.05-.768-3.05-1.133a44.504 44.504 0 01-4.708-2.055M114.808 59.73a14.87 14.87 0 01.482-1.7c.135-.39.279-.836.433-1.335.153-.498.368-1.299.645-2.402.276-1.103.464-2.29.562-3.563.098-1.273.106-2.554.025-3.844a51.89 51.89 0 00-.39-3.874c-.263-1.898-.5-4.367-.712-7.409" fill="none" stroke="#f59a23" stroke-width="2.14108288" stroke-linecap="round" stroke-linejoin="round" stroke-miterlimit="10"/><path d="M74.83 47.295c-.145.118-.183.205-.115.261.049.04.341.064.878.072a34.325 34.325 0 002.854-.068 204.478 204.478 0 014.487-.213c.823-.03 1.659-.049 2.508-.058 1.234-.012 3.244-.028 6.03-.048" fill="none" stroke="#fcfcfc" stroke-width="2.2843550699999997" stroke-linecap="round" stroke-linejoin="round" stroke-miterlimit="10"/><path d="M83.667 40.197c.009.356.043.771.103 1.244.06.474.117 1.128.17 1.962.052.835.088 1.804.108 2.908.029 1.602.092 4.322.188 8.161" fill="none" stroke="#fcfcfc" stroke-width="2.2843550699999997" stroke-linecap="round" stroke-linejoin="round" stroke-miterlimit="10"/><path d="M169.766 48.035c8.706-.07 14.285-.025 16.74.135 2.504.162 5.759.43 9.764.802M193.873 42.415c.172-.052.614.038 1.328.27.428.14 1.052.37 1.87.692.817.321 1.7.735 2.65 1.24 1.392.742 3.11 1.917 5.156 3.527M205.069 49.822c-.83.565-1.584 1.05-2.26 1.454-.455.273-1.13.626-2.025 1.06-1.301.63-3.364 1.565-6.19 2.804" fill="none" stroke="#fcfcfc" stroke-width="1.32290413" stroke-linecap="round" stroke-linejoin="round" stroke-miterlimit="10"/><path d="M323.426 27.187c.405.335 1.102.708 2.09 1.12.988.413 1.744.738 2.268.975.525.237 1.923.84 4.195 1.808 2.271.967 4.226 1.803 5.864 2.506 1.637.703 2.977 1.266 4.017 1.689 1.04.422 1.815.743 2.323.961.507.219 1.59.662 3.248 1.33 1.658.667 2.762 1.122 3.312 1.364.549.242 1.326.615 2.33 1.12 1.473.74 3.495 1.652 6.067 2.739M324.907 61.005a16.594 16.594 0 001.907-1.12c.617-.42 1.232-.806 1.846-1.158a62.624 62.624 0 012.04-1.115c.746-.391 1.84-.929 3.283-1.613a79.524 79.524 0 004.168-2.124 233.471 233.471 0 013.144-1.7c.76-.4 1.457-.758 2.089-1.07.632-.313 1.188-.6 1.668-.863s1.163-.592 2.048-.988c.886-.396 2.269-.984 4.148-1.764 1.88-.78 3.103-1.292 3.667-1.537.565-.245 1.356-.533 2.373-.863 1.017-.33 1.743-.591 2.179-.783M229.577 30.59c-.066-.25.003-.286.209-.107.153.132.354.444.603.934.25.49.496 1.044.74 1.664.244.619.422 1.094.533 1.427.112.332.232.804.36 1.417.128.612.288 1.668.48 3.168.19 1.499.313 2.573.365 3.222.053.649.141 1.538.266 2.669.124 1.13.205 2.113.242 2.951.037.838.04 1.56.008 2.164-.033.605-.04 1.065-.024 1.38a8.51 8.51 0 01-.009.981c-.021.34-.124 1.069-.308 2.187a43.562 43.562 0 01-.504 2.659c-.22.948-.508 2.633-.862 5.054" fill="none" stroke="#007aff" stroke-width="2.1999917499999997" stroke-linecap="round" stroke-linejoin="round" stroke-miterlimit="10"/><path d="M232.397 62.409c.7-.111 2.38-.62 5.04-1.526 2.658-.907 4.748-1.624 6.269-2.153a192.18 192.18 0 004.59-1.66c1.539-.58 3.084-1.122 4.634-1.626 1.551-.504 3.021-.973 4.41-1.406 1.39-.433 2.788-.874 4.194-1.325 2.08-.666 4.38-1.666 6.902-3M269.263 47.314c-.508-.15-1.156-.407-1.943-.772-.788-.365-1.642-.752-2.564-1.16a299.33 299.33 0 01-3.224-1.455 85.712 85.712 0 01-4.052-2 419.452 419.452 0 00-4.471-2.305c-1.507-.765-3-1.495-4.478-2.19a93.707 93.707 0 00-4.19-1.853 137.255 137.255 0 00-3.678-1.457c-1.138-.43-2.259-.845-3.362-1.247a49.05 49.05 0 01-5.189-2.265" fill="none" stroke="#f59a23" stroke-width="2.35926388" stroke-linecap="round" stroke-linejoin="round" stroke-miterlimit="10"/><path d="M322.708 59.433c.147-.668.348-1.368.603-2.098.17-.483.35-1.033.542-1.649.192-.615.462-1.604.809-2.966a26.47 26.47 0 00.711-4.403c.127-1.573.144-3.157.05-4.753a64.175 64.175 0 00-.466-4.791c-.316-2.347-.598-5.401-.845-9.162" fill="none" stroke="#f59a23" stroke-width="2.6472628" stroke-linecap="round" stroke-linejoin="round" stroke-miterlimit="10"/><path d="M283.144 44.154c-.145.118-.183.205-.115.26.049.04.342.064.879.073a34.325 34.325 0 002.853-.068 204.478 204.478 0 014.487-.213c.823-.03 1.66-.05 2.509-.058 1.234-.013 3.244-.029 6.03-.048" fill="none" stroke="#fcfcfc" stroke-width="2.2843550699999997" stroke-linecap="round" stroke-linejoin="round" stroke-miterlimit="10"/><path d="M291.982 37.056c.008.356.043.77.103 1.244.06.473.116 1.127.169 1.962.052.834.089 1.804.108 2.908.03 1.601.092 4.321.189 8.16" fill="none" stroke="#fcfcfc" stroke-width="2.2843550699999997" stroke-linecap="round" stroke-linejoin="round" stroke-miterlimit="10"/><path d="M26.383 139.213c-.066-.25.004-.286.21-.108.152.133.353.444.603.934.249.49.496 1.045.74 1.664.243.62.421 1.095.533 1.427.112.332.232.805.36 1.417.128.613.287 1.669.479 3.168.191 1.5.313 2.574.366 3.223.052.649.14 1.538.265 2.668a46.39 46.39 0 01.243 2.952c.037.837.04 1.559.007 2.164-.032.605-.04 1.065-.024 1.38.016.314.014.641-.008.98-.022.34-.125 1.07-.308 2.187a43.549 43.549 0 01-.504 2.66c-.22.947-.508 2.632-.862 5.054" fill="none" stroke="#007aff" stroke-width="2.1999917499999997" stroke-linecap="round" stroke-linejoin="round" stroke-miterlimit="10"/><path d="M29.203 171.032c.701-.112 2.381-.62 5.04-1.527 2.659-.906 4.749-1.623 6.27-2.152a192.18 192.18 0 004.59-1.661c1.538-.58 3.083-1.121 4.634-1.625 1.55-.505 3.02-.973 4.41-1.406 1.39-.433 2.787-.875 4.193-1.325 2.08-.666 4.38-1.667 6.903-3M66.07 155.936c-.509-.149-1.156-.406-1.944-.771-.787-.366-1.642-.753-2.563-1.16-.922-.41-1.996-.894-3.224-1.456a85.677 85.677 0 01-4.052-1.999 421.52 421.52 0 00-4.472-2.305c-1.507-.765-3-1.496-4.478-2.19a93.67 93.67 0 00-4.189-1.854 137.255 137.255 0 00-3.679-1.456 298.4 298.4 0 00-3.362-1.247 49.05 49.05 0 01-5.188-2.265" fill="none" stroke="#f59a23" stroke-width="2.35926388" stroke-linecap="round" stroke-linejoin="round" stroke-miterlimit="10"/><path d="M26.409 188.028c.405.335 1.102.709 2.09 1.12.988.413 1.744.738 2.269.975.524.238 1.922.84 4.194 1.808 2.271.968 4.226 1.803 5.864 2.506 1.637.704 2.977 1.266 4.017 1.689 1.04.422 1.815.743 2.323.962.507.218 1.59.661 3.248 1.329 1.659.667 2.762 1.122 3.312 1.364.549.242 1.326.615 2.331 1.12 1.472.74 3.494 1.652 6.066 2.74M27.89 221.847a16.594 16.594 0 001.907-1.121c.617-.42 1.232-.805 1.846-1.158a62.624 62.624 0 012.04-1.115c.747-.39 1.84-.929 3.283-1.612a79.524 79.524 0 004.168-2.125 233.471 233.471 0 013.144-1.7c.76-.4 1.457-.757 2.089-1.07.632-.312 1.188-.6 1.668-.863.48-.262 1.163-.592 2.048-.988.886-.396 2.269-.984 4.148-1.764 1.88-.78 3.103-1.292 3.668-1.537.565-.245 1.355-.533 2.372-.863 1.017-.33 1.743-.59 2.179-.783" fill="none" stroke="#007aff" stroke-width="2.1999917499999997" stroke-linecap="round" stroke-linejoin="round" stroke-miterlimit="10"/><path d="M25.69 220.274c.148-.668.35-1.367.604-2.098.17-.483.35-1.033.542-1.648.192-.616.462-1.605.809-2.967a26.47 26.47 0 00.711-4.403c.127-1.573.144-3.157.05-4.753a64.175 64.175 0 00-.466-4.79c-.316-2.348-.598-5.402-.845-9.163" fill="none" stroke="#f59a23" stroke-width="2.6472628" stroke-linecap="round" stroke-linejoin="round" stroke-miterlimit="10"/><path d="M82.293 155.547a66.08 66.08 0 003.24-.094c.581-.034 1.885-.105 3.912-.21 2.026-.107 3.836-.218 5.428-.335 1.592-.116 3.325-.257 5.198-.422 1.874-.165 3.803-.289 5.786-.372 2.907-.12 6.8 0 11.68.361M119.643 149.418l-.118-.08-.001-.001.013.008.281.174c.178.11.406.24.685.392.28.151.603.341.973.571.37.23.754.501 1.153.816.4.314.792.66 1.177 1.038.386.377.727.756 1.024 1.134.298.378.527.724.689 1.036.162.313.256.597.282.854.027.256-.025.485-.154.686-.13.202-.36.411-.69.63-.332.218-.805.47-1.42.755-.616.286-1.334.584-2.154.893-1.196.45-2.95 1.082-5.26 1.893M75.1 208.914a41.392 41.392 0 013.788-.639 53.58 53.58 0 012.56-.259c.812-.06 1.72-.116 2.723-.166 1.004-.05 2.117-.116 3.34-.197 1.222-.082 2.526-.193 3.91-.333 1.386-.14 2.843-.303 4.373-.488 1.53-.184 3.143-.346 4.84-.485 1.696-.139 3.34-.246 4.934-.32 2.329-.11 5.6-.053 9.812.173M116.417 201.091c.53.138 1.268.388 2.211.75.943.36 1.662.652 2.157.875.495.222.992.465 1.494.728.5.264.955.523 1.362.775.407.253.744.51 1.01.77.266.261.447.548.545.86.098.31.119.642.063.992-.057.35-.23.689-.522 1.015a4.93 4.93 0 01-1.108.9c-.447.275-.97.547-1.569.816-.86.387-2.89 1.071-6.087 2.052" fill="none" stroke="#fcfcfc" stroke-width="1.32290413" stroke-linecap="round" stroke-linejoin="round" stroke-miterlimit="10"/><path d="M145.846 138.572c-.066-.25.003-.286.209-.108.153.132.354.444.603.934.25.49.496 1.045.74 1.664s.422 1.095.534 1.427c.112.332.232.804.36 1.417.127.612.287 1.668.479 3.168.191 1.499.313 2.573.366 3.222.052.65.14 1.539.265 2.669.124 1.13.205 2.114.242 2.951.038.838.04 1.56.008 2.165s-.04 1.064-.024 1.379c.016.314.013.642-.008.981-.022.34-.125 1.069-.309 2.187a43.553 43.553 0 01-.504 2.659c-.22.948-.507 2.633-.861 5.054" fill="none" stroke="#007aff" stroke-width="2.1999917499999997" stroke-linecap="round" stroke-linejoin="round" stroke-miterlimit="10"/><path d="M148.666 170.39c.7-.111 2.38-.62 5.04-1.526 2.659-.907 4.748-1.624 6.269-2.152 1.52-.529 3.05-1.083 4.59-1.662 1.539-.579 3.084-1.12 4.635-1.625 1.55-.504 3.02-.973 4.41-1.406 1.39-.433 2.787-.874 4.193-1.325 2.08-.666 4.38-1.666 6.902-3" fill="none" stroke="#f59a23" stroke-width="2.35926388" stroke-linecap="round" stroke-linejoin="round" stroke-miterlimit="10"/><path d="M145.14 136.213c-.165-.196-.096-.283.207-.261.302.021.994.127 2.076.317 1.081.19 2.45.462 4.11.815 1.658.354 3.58.881 5.767 1.581 2.188.7 4.424 1.603 6.709 2.706a51.705 51.705 0 016.54 3.766 60.425 60.425 0 015.872 4.523c2.723 2.38 5.397 5.434 8.022 9.16" fill="none" stroke="#ff8a89" stroke-width="2.07853766" stroke-linecap="round" stroke-linejoin="round" stroke-miterlimit="10"/><path d="M146.335 187.252c.406.335 1.103.708 2.09 1.12.989.413 1.745.738 2.27.975.524.237 1.922.84 4.193 1.808 2.272.967 4.227 1.803 5.864 2.506 1.638.703 2.977 1.266 4.018 1.689 1.04.422 1.815.743 2.322.961.508.219 1.59.662 3.249 1.33 1.658.667 2.762 1.122 3.311 1.364.55.242 1.327.615 2.332 1.12 1.472.74 3.494 1.652 6.065 2.739" fill="none" stroke="#007aff" stroke-width="2.1999917499999997" stroke-linecap="round" stroke-linejoin="round" stroke-miterlimit="10"/><path d="M145.617 219.498c.148-.668.349-1.368.604-2.098.169-.483.35-1.033.541-1.649.193-.615.462-1.604.81-2.966.346-1.363.583-2.83.71-4.403.128-1.573.144-3.157.05-4.753a64.215 64.215 0 00-.465-4.79c-.317-2.348-.598-5.402-.845-9.163" fill="none" stroke="#f59a23" stroke-width="2.6472628" stroke-linecap="round" stroke-linejoin="round" stroke-miterlimit="10"/><path d="M145.597 222.548l-.22.113c-.01.005-.006.006.011.005l.213-.022c.124-.013.915-.27 2.374-.77 1.46-.5 2.663-.95 3.612-1.354.948-.403 1.942-.823 2.982-1.259 1.04-.435 2.144-.939 3.315-1.51a40.578 40.578 0 003.695-2.072c1.293-.81 2.64-1.623 4.038-2.44a261.291 261.291 0 014.08-2.338c1.321-.74 2.578-1.436 3.77-2.088 1.737-.95 4.404-2.263 8.001-3.94" fill="none" stroke="#b9bfff" stroke-width="2.07853766" stroke-linecap="round" stroke-linejoin="round" stroke-miterlimit="10"/><path d="M8.09 1.982c.117-.161.179-.394.185-.698.005-.2-.068-.344-.217-.435A1.424 1.424 0 007.49.673c-.229-.028-.526.001-.892.086-.366.086-.796.274-1.289.564-.493.29-1.01.703-1.547 1.238-.539.535-1.047 1.198-1.525 1.99a10.535 10.535 0 00-1.11 2.554c-.26.91-.413 1.928-.457 3.052a11.34 11.34 0 00.32 3.224c.259 1.024.697 1.908 1.317 2.649.62.74 1.338 1.273 2.157 1.597 1.172.463 3.443-.394 6.814-2.57M16.371 4.566v-.777l.005.031.077.824a121.69 121.69 0 01.378 5.862c.05 1.231.079 2.066.09 2.504.01.439-.042.606-.155.502-.114-.103-.232-.414-.355-.931a11.733 11.733 0 01-.261-1.886c-.05-.74-.078-1.45-.084-2.131-.005-.68.015-1.327.058-1.94a8.355 8.355 0 01.28-1.677c.143-.505.315-.92.516-1.246.202-.326.456-.57.764-.735.307-.164.71-.26 1.211-.289.501-.028 1.07.025 1.708.16.638.135 1.26.266 1.868.39.895.185 1.963.21 3.204.074M34.024 4.293c.008-.65-.011-1.048-.058-1.193a1.207 1.207 0 00-.176-.325.785.785 0 00-.365-.266 1.998 1.998 0 00-.609-.111c-.247-.013-.542.043-.885.166-.342.124-.7.342-1.074.655-.373.313-.719.71-1.037 1.192a8.171 8.171 0 00-.815 1.61 8.064 8.064 0 00-.446 1.579c-.073.46-.113.95-.121 1.471-.008.52 0 .86.025 1.019.025.158.085.367.18.627.096.26.222.52.378.781.157.26.34.496.55.705.21.209.437.395.68.558.244.163.497.305.759.424.261.12.547.212.857.28.31.067.684.102 1.121.104.437.003 1.096-.284 1.976-.86.88-.575 1.431-.967 1.656-1.174.225-.208.469-.494.73-.858a7.68 7.68 0 00.636-1.033c.163-.326.29-.652.382-.978.091-.327.146-.803.162-1.43.017-.627.004-1.022-.04-1.185-.042-.164-.21-.478-.503-.944a3.69 3.69 0 00-1.102-1.135c-.442-.291-.848-.477-1.22-.557-.37-.08-.7-.118-.988-.112a1.843 1.843 0 00-.737.15c-.297.136-.515.415-.654.836M46.261 2.57c.368-.142.586-.33.653-.565.047-.162.038-.289-.026-.38-.065-.091-.203-.15-.416-.179-.213-.028-.46.007-.744.105-.284.098-.565.276-.844.536-.278.26-.525.574-.74.943-.215.37-.39.808-.525 1.314a7.727 7.727 0 00-.25 1.512c-.03.501-.007.911.07 1.23.079.318.187.553.326.705.139.15.303.278.491.381.189.104.54.185 1.053.244.512.06.905.095 1.178.108.273.013.584.044.933.091.35.048.64.106.87.173.23.067.447.143.652.228.205.085.399.189.581.31.183.121.349.26.498.415a2.76 2.76 0 01.686 1.699c.027.4-.065.805-.276 1.214-.21.409-.52.775-.93 1.097a5.1 5.1 0 01-1.245.74 6.51 6.51 0 01-1.017.337 6.526 6.526 0 01-1.017.111c-.421.02-.687.017-.796-.01-.156-.037-.252-.237-.289-.6M57.98 2.587a.886.886 0 00-.306-.569 1.253 1.253 0 00-.457-.26 2.3 2.3 0 00-.6-.111c-.219-.013-.457.058-.716.214-.26.156-.502.397-.728.726a4.24 4.24 0 00-.553 1.217c-.142.484-.23.978-.262 1.483-.034.504-.02.941.04 1.311s.193.664.399.882c.206.218.479.376.818.473.339.096.735.16 1.188.188.454.028.907.063 1.359.103.452.04.869.128 1.251.264.383.135.703.322.96.56.259.238.438.513.539.825.1.312.134.655.1 1.03s-.184.747-.45 1.116c-.265.369-.634.7-1.105.994a6.214 6.214 0 01-1.567.692 8.397 8.397 0 01-1.526.312c-.645.061-1.087-.16-1.327-.661M70.372 4.271c.204-.049.335-.197.391-.444.056-.247.073-.451.05-.614a.885.885 0 00-.218-.455 1.483 1.483 0 00-.473-.355 2.333 2.333 0 00-.674-.205 3.547 3.547 0 00-.854-.02c-.313.027-.648.16-1.005.402a5.308 5.308 0 00-1.01.904 6.21 6.21 0 00-.844 1.253 6.994 6.994 0 00-.573 1.543 7.731 7.731 0 00-.234 1.486c-.02.438.048 1.063.202 1.876.154.812.408 1.566.76 2.26a7.377 7.377 0 001.23 1.774c.467.488.952.835 1.455 1.04.503.206 1.021.279 1.553.218.532-.062 1.056-.305 1.572-.73a6.527 6.527 0 001.368-1.582c.396-.63.714-1.277.954-1.941.24-.664.403-1.174.488-1.53.085-.354.14-.796.165-1.324.024-.528-.108-1.184-.396-1.97-.289-.784-.576-1.348-.86-1.69-.286-.34-.543-.586-.771-.736a2.222 2.222 0 00-.644-.304c-.29-.076-.873-.06-1.75.044M78.547 4.19l-.096-.728c-.005-.035-.001-.042.01-.023l.13.218c.076.126.269.677.58 1.654.31.977.603 1.784.877 2.42.274.638.575 1.308.903 2.01.328.702.661 1.348 1 1.937.34.59.65 1.058.933 1.404.283.346.523.57.721.674.198.103.363.12.497.05.133-.071.346-.653.64-1.748.293-1.094.573-1.99.841-2.69s.537-1.368.809-2.007c.397-.937.94-2.186 1.625-3.748M95.06 8.775a2 2 0 001.06-.332c.324-.21.617-.438.88-.68a3.29 3.29 0 00.666-.88c.182-.345.308-.715.376-1.111.068-.397.09-.772.066-1.124-.024-.352-.131-.64-.322-.863-.191-.223-.468-.364-.83-.424a3.325 3.325 0 00-1.199.042c-.437.088-.84.245-1.209.473-.37.228-.71.512-1.022.854-.313.342-.597.74-.854 1.193-.256.453-.466.92-.629 1.403a6.546 6.546 0 00-.314 1.501 4.499 4.499 0 00.1 1.482c.115.47.35.914.704 1.33.355.416.806.799 1.355 1.147.548.35 1.203.591 1.965.727a8.037 8.037 0 002.27.082c1.086-.116 2.292-1.078 3.62-2.885M105.23 5.46c0-.198.046-.305.136-.318.064-.009.146.02.247.09.1.068.222.281.363.638.14.357.278.782.412 1.274.133.492.262 1.034.388 1.628.125.594.216 1.211.273 1.852.056.64.09 1.18.102 1.62.012.44.01.741-.007.904-.017.164-.083.219-.198.165-.115-.053-.262-.335-.441-.846-.18-.512-.326-1.143-.438-1.895a17.166 17.166 0 01-.194-2.019 8.186 8.186 0 01.102-1.628 6.49 6.49 0 01.386-1.364c.172-.419.391-.765.657-1.038.266-.274.595-.468.985-.583.39-.115.834-.187 1.33-.218.725-.044 1.7-.011 2.925.099M118.019 4.105l.5-.062M118.352 8.086c-.11.154-.222.307-.333.46M5.147 109.177a.811.811 0 00-.352.525c-.049.226-.085.629-.107 1.208-.023.58-.035 1.26-.038 2.045-.002.783.022 1.565.072 2.343.05.78.115 1.548.195 2.308.08.76.142 1.39.187 1.891.045.501.073.86.084 1.073l.017.341v.005l-.005-.04-.104-.961a21.91 21.91 0 01-.117-1.962c-.013-.703.009-1.444.065-2.22.056-.778.171-1.634.345-2.568.173-.934.369-1.732.587-2.396.217-.663.437-1.197.66-1.6.221-.403.434-.704.637-.9.204-.198.39-.32.561-.364.171-.045.34.018.507.189.168.171.338.453.51.846.173.392.344.846.511 1.36.168.515.322 1.076.464 1.684.142.608.304 1.436.485 2.483.181 1.047.29 1.704.328 1.971l.063.45c.005.034.015.01.032-.073l.231-1.112c.137-.66.302-1.35.496-2.072.193-.722.427-1.36.703-1.914.276-.554.559-1.005.85-1.354.291-.35.558-.63.799-.84.241-.21.424-.345.548-.404.125-.059.205.007.243.195.037.188.058 1.002.062 2.44.004 1.438.047 2.61.128 3.518.081.908.238 1.767.472 2.577.233.81.515 1.402.845 1.777.33.375.693.594 1.09.657.566.09 1.316-.5 2.25-1.77M21.757 110.305c-.086-.115-.191-.111-.314.01-.088.086-.158.243-.21.47-.051.228-.096.597-.133 1.107-.038.51-.055 1.094-.051 1.752.004.66.084 1.33.24 2.015.157.685.408 1.39.755 2.116.348.725.76 1.334 1.238 1.825.478.492.973.809 1.485.952.512.143 1 .034 1.463-.328.464-.361.825-.925 1.083-1.693.259-.767.426-1.593.502-2.478.076-.884.118-1.683.125-2.397.008-.713-.006-1.253-.043-1.618-.055-.558-.187-.985-.398-1.28M35.732 102.486l.019-.248v-.002l-.002.03c0 .025-.01.254-.029.686-.019.433-.035 1.464-.049 3.093a662.52 662.52 0 00-.003 10.229c.02 1.844.17 3.479.45 4.905" fill="none" stroke="#fff" stroke-width="1.32290413" stroke-linecap="round" stroke-linejoin="round" stroke-miterlimit="10"/><path d="M32.707 110.532l-.246-.05c-.016-.002.03-.018.137-.044l.92-.227a18.276 18.276 0 011.667-.323c.606-.09 1.277-.181 2.012-.272a36.543 36.543 0 013.564-.25M45.797 114.059c-.144-.362-.263-.618-.357-.77a1.36 1.36 0 00-.266-.302 1.02 1.02 0 00-.467-.209 2.517 2.517 0 00-.74-.021c-.295.028-.614.13-.956.308-.341.177-.69.406-1.043.687-.354.28-.692.597-1.015.95-.322.353-.61.722-.861 1.108a3.642 3.642 0 00-.52 1.247c-.094.446-.077.932.052 1.457.13.526.391 1.024.786 1.497.394.472.902.81 1.523 1.013.621.203 1.313.208 2.075.016.761-.191 1.478-.61 2.15-1.254a9.789 9.789 0 001.65-2.05c.43-.721.698-1.393.804-2.016.106-.622.093-1.168-.041-1.636-.134-.47-.348-.836-.643-1.102-.429-.387-1.136-.67-2.12-.849M48.111 117.267c-.148.302-.21.713-.186 1.233.015.34.101.706.259 1.097.158.39.35.711.578.963.228.25.494.402.798.452.432.072 1.275-.91 2.53-2.948M57.43 104.78c-.198-.262-.32-.265-.369-.01-.035.187-.054.461-.058.825-.003.363.024.838.08 1.424.058.587.13 1.244.216 1.972.087.728.157 1.635.21 2.721.053 1.086.085 2.171.096 3.255.011 1.084.017 2.075.018 2.972a36.86 36.86 0 00.263 4.231" fill="none" stroke="#fff" stroke-width="1.32290413" stroke-linecap="round" stroke-linejoin="round" stroke-miterlimit="10"/><path d="M53.54 112.746c.086-.202.25-.388.493-.56.243-.173.598-.343 1.066-.51a14.147 14.147 0 011.803-.484c.735-.155 1.537-.327 2.405-.517 1.275-.28 2.962-.558 5.06-.838M64.808 114.237a6.08 6.08 0 00-.323 1.95c0 .443.065 1.315.197 2.617.131 1.302.392 2.506.781 3.613M75.188 113.662c.012-.236-.022-.56-.102-.975a2.24 2.24 0 00-.244-.69.864.864 0 00-.437-.397 1.678 1.678 0 00-1.335.092 2.08 2.08 0 00-.634.496c-.186.212-.366.503-.541.875-.175.371-.34.807-.496 1.307a8.748 8.748 0 00-.332 1.604 7.308 7.308 0 00.033 1.822 5.46 5.46 0 00.604 1.853c.315.59.71 1.06 1.187 1.413.477.353.998.563 1.564.63.566.068 1.15-.008 1.752-.227a6.705 6.705 0 001.761-.98 6.319 6.319 0 001.451-1.543 7.093 7.093 0 00.877-1.797c.19-.604.306-1.202.35-1.794a4.71 4.71 0 00-.152-1.652 2.562 2.562 0 00-.813-1.272 3.07 3.07 0 00-1.443-.671c-.83-.16-1.884-.182-3.16-.066M86.686 112.289a9.87 9.87 0 00.08 2.582c.094.568.183 1.153.268 1.754a54.202 54.202 0 01.382 3.589l.061.864.002.02v-.033l-.028-1.12a31.433 31.433 0 010-1.836 6.063 6.063 0 01.255-1.534c.152-.508.335-1.019.55-1.533a13.75 13.75 0 01.75-1.513c.284-.496.593-.91.928-1.24.334-.332.681-.567 1.04-.706.36-.14.707-.22 1.043-.24.337-.02.64.081.911.304.27.224.498.569.681 1.035.183.467.322 1.036.415 1.708.094.672.16 1.391.2 2.159.041.768.082 1.49.125 2.168.042.678.087 1.238.136 1.68.07.637.297.97.68 1M101.909 112.786l-.06-.313M102.203 117.017l-.017.39M194.837 130.339c-.225 0-.43-.26-.616-.78a5.425 5.425 0 01-.317-1.529c-.027-.499.034-1.337.183-2.513.149-1.177.414-2.285.796-3.323a16.716 16.716 0 011.381-2.897 26.609 26.609 0 011.721-2.518c.609-.786 1.176-1.406 1.702-1.861.527-.455.977-.732 1.352-.83.375-.1.644.118.805.653.162.535.256 1.273.28 2.213.025.94.012 1.993-.038 3.16s-.082 2.476-.096 3.926c-.013 1.45-.034 2.973-.063 4.567a254.414 254.414 0 01-.168 5.502c-.082 2.075-.204 4.28-.364 6.616-.16 2.336-.311 4.667-.454 6.995a136.66 136.66 0 00-.247 7.035c-.023 2.362.027 4.324.149 5.884.122 1.56.471 3.135 1.048 4.722.577 1.588 1.243 2.613 1.998 3.075 1.077.66 2.918.018 5.522-1.925M208.7 167.166c-.242.094-.522.299-.841.615a5.962 5.962 0 00-.864 1.099 9.692 9.692 0 00-.652 1.235c-.177.408-.44 1.076-.789 2.003-.348.928-.746 1.97-1.191 3.128-.446 1.158-.892 2.546-1.34 4.164-.446 1.619-.849 3.206-1.208 4.764a53.84 53.84 0 00-.873 4.783 48.604 48.604 0 00-.422 4.758 38.942 38.942 0 00.065 4.356c.102 1.363.279 2.676.531 3.94.253 1.262.49 2.457.71 3.586.222 1.128.38 2.326.473 3.594.094 1.267.146 2.573.155 3.917a19.014 19.014 0 01-.414 4.053 17.5 17.5 0 01-1.331 3.935 10.933 10.933 0 01-2.51 3.373 13.766 13.766 0 01-3.55 2.375c-1.295.6-2.487.822-3.575.667-1.548-.22-2.587-2.437-3.115-6.65M227.632 156.607c.127-.17.082-.49-.135-.96-.144-.312-.28-.532-.412-.662-.13-.13-.32-.208-.567-.235-.248-.027-.575.046-.982.219-.407.173-.845.444-1.315.812-.469.369-.922.818-1.36 1.348-.436.53-.846 1.186-1.228 1.967a8.854 8.854 0 00-.786 2.605c-.142.956-.145 1.812-.01 2.57.136.758.454 1.403.954 1.934.5.531 1.098.891 1.792 1.08.694.188 1.4.208 2.118.058.719-.15 1.423-.456 2.113-.919a6.485 6.485 0 001.751-1.739c.478-.697.795-1.505.953-2.425.158-.92.216-1.787.174-2.601-.043-.814-.241-1.476-.596-1.987-.354-.51-.748-.879-1.18-1.104a3.86 3.86 0 00-1.267-.422c-.61-.082-1.308-.003-2.097.239M237.546 171.272a.616.616 0 01-.456-.405c-.083-.217-.145-.61-.187-1.182a79.031 79.031 0 01-.13-2.585 203.181 203.181 0 00-.212-4.181c-.098-1.634-.149-2.825-.154-3.574-.005-.75.018-1.44.07-2.075.052-.633.16-1.2.328-1.698a4.87 4.87 0 01.667-1.32c.276-.38.594-.646.952-.794.358-.148.69-.15.993-.002.303.147.568.439.792.876.328.636.606 1.642.836 3.016" fill="none" stroke="#fff" stroke-width="1.32290413" stroke-linecap="round" stroke-linejoin="round" stroke-miterlimit="10"/><path d="M235.031 163.212c.224-.156.5-.257.83-.304.473-.067 1.586-.169 3.339-.303M247.033 169.907a4.454 4.454 0 01-.181-1.12 35.994 35.994 0 01-.046-1.308c-.007-.424-.024-.95-.05-1.578a90.009 90.009 0 01-.063-2.205c-.015-.842-.023-1.72-.025-2.637-.001-.916 0-1.739.007-2.467a9.716 9.716 0 01.205-1.99 8.58 8.58 0 01.557-1.7c.241-.536.5-.983.777-1.341.276-.36.552-.598.826-.718a.847.847 0 01.784.026c.356.196.745 1.276 1.168 3.239" fill="none" stroke="#fff" stroke-width="1.32290413" stroke-linecap="round" stroke-linejoin="round" stroke-miterlimit="10"/><path d="M243.998 162.65c.103-.094.359-.178.769-.253.41-.075.872-.184 1.387-.328.758-.212 1.725-.384 2.901-.515M260.461 158.059c.046-1.01.018-1.688-.086-2.033-.072-.239-.183-.419-.332-.54-.15-.122-.346-.191-.589-.21-.243-.017-.523.032-.84.147-.316.115-.63.302-.94.56a3.87 3.87 0 00-.805.932 4.107 4.107 0 00-.5 1.185 6.085 6.085 0 00-.186 1.201c-.017.375.02.668.108.881a.825.825 0 00.477.458c.229.093.502.15.818.172a6.64 6.64 0 001.067-.023c.394-.036.78-.07 1.158-.098a3.29 3.29 0 011.052.078c.324.08.593.285.808.612.214.327.348.74.402 1.24.053.5.02.986-.098 1.458a2.975 2.975 0 01-.622 1.229 2.804 2.804 0 01-1.057.777c-.59.248-1.39.165-2.397-.25M266.7 160.16v-.138h0l-.001.046-.023.926a22.02 22.02 0 00.08 2.191c.07.877.115 1.62.137 2.228.023.609.04 1.326.05 2.152.01.827.028 1.454.055 1.882.04.65.136 1.222.287 1.717M267.27 158.946a10.32 10.32 0 01-.075-1.288c0-.306.033-.55.099-.734.065-.184.188-.396.367-.637.18-.24.36-.42.543-.54.182-.12.374-.196.575-.229.202-.032.402-.05.601-.054.2-.004.452.051.757.165.305.114.626.283.962.507.336.224.694.506 1.075.846.38.34.719.72 1.015 1.143.296.423.491.867.587 1.333.095.466.144.839.149 1.12.004.28-.04.567-.134.857-.094.29-.223.564-.388.818a4.089 4.089 0 01-2.027 1.625 4.148 4.148 0 01-.835.206c-.415.057-.95.066-1.603.027M278.156 157.864v-.17c0-.008.006.009.018.049l.152.503c.089.296.189.694.3 1.193a27.423 27.423 0 01.545 3.707c.05.662.078 1.309.083 1.94.005.631-.043.95-.147.955-.104.005-.273-.187-.505-.577-.232-.39-.464-.958-.695-1.705a20.049 20.049 0 01-.556-2.236c-.14-.744-.23-1.39-.27-1.938a18.713 18.713 0 01-.056-1.432c.002-.405.068-.791.198-1.157.13-.365.32-.696.566-.993.248-.297.559-.512.934-.645a3.494 3.494 0 011.264-.182c.467.012.942.11 1.423.294.699.266 1.857.692 3.476 1.275M289.446 158.208c-.017-.486-.006-.839.031-1.059l.043-.25c.003-.016.009.019.018.105l.154 1.38c.092.835.149 1.61.169 2.326.029 1.046-.01 2.524-.117 4.432M288.49 151.365l.433-.627M297.224 157.8l-.233-.36M296.843 157.377c-.122.093-.187.423-.196.99-.008.566.016 1.195.073 1.886.056.692.128 1.403.215 2.134.087.73.18 1.436.278 2.115.098.679.192 1.226.284 1.64.091.414.156.661.194.74l.08.168c.016.032.03.012.04-.06l.055-.373c.026-.176.053-.613.082-1.312.03-.699.067-1.427.113-2.186.046-.758.144-1.534.294-2.329.15-.794.34-1.537.568-2.228.23-.69.466-1.241.71-1.651.244-.41.492-.718.744-.923.252-.204.472-.307.66-.309.189-.001.34.19.454.574.114.384.193 1.397.238 3.038.045 1.64.126 2.877.243 3.709.116.832.268 1.634.457 2.405.188.772.399 1.395.631 1.868.233.474.487.76.763.859.276.099.554.036.834-.188.403-.322.815-1.215 1.235-2.678M312.761 157.028c-.208-.255-.644-.408-1.308-.46a2.383 2.383 0 00-1.273.26c-.415.208-.836.547-1.262 1.015-.427.47-.787 1.042-1.082 1.72a6.538 6.538 0 00-.536 1.988c-.062.648.004 1.228.2 1.74.196.514.44.9.73 1.16.292.259.743.44 1.353.541.61.102 1.2-.025 1.773-.38.832-.517 1.853-1.552 3.063-3.107" fill="none" stroke="#fff" stroke-width="1.32290413" stroke-linecap="round" stroke-linejoin="round" stroke-miterlimit="10"/><path d="M315.788 157.709c-.435-.234-.85-.169-1.245.196a3.66 3.66 0 00-.724.965c-.21.39-.373.823-.49 1.298a9.15 9.15 0 00-.228 1.597 15.26 15.26 0 00.032 2.061c.059.785.237 1.692.534 2.723.297 1.031.662 2.086 1.096 3.167.434 1.08.817 2.163 1.15 3.249a20.71 20.71 0 01.701 2.975c.134.897.18 1.779.137 2.644-.043.865-.238 1.637-.583 2.316-.346.68-.826 1.198-1.44 1.557-.614.358-1.3.524-2.056.496a4.415 4.415 0 01-2.146-.65 3.677 3.677 0 01-1.491-1.675c-.46-1.019-.057-2.83 1.208-5.433" fill="none" stroke="#fff" stroke-width="1.32290413" stroke-linecap="round" stroke-linejoin="round" stroke-miterlimit="10"/></svg>