<svg xmlns="http://www.w3.org/2000/svg" width="85.544" height="123.963"><path d="M18.02 34.488c.43.32.694.52.791.599a13.327 13.327 0 00.76.558 19.301 19.301 0 01.976.739c.185.15.368.301.547.452.178.15.448.366.809.65.36.282.738.604 1.134.965.395.361.809.734 1.24 1.12.433.385.869.78 1.308 1.185.44.404.886.81 1.338 1.219.453.408.915.817 1.386 1.225.47.408.948.835 1.432 1.281.484.446.97.884 1.46 1.315.488.431.989.875 1.502 1.332.513.457 1.025.928 1.535 1.411.51.484 1.027.97 1.551 1.458s1.053.983 1.584 1.485c.532.502 1.054.99 1.566 1.466.512.475 1.029.962 1.552 1.463a90.995 90.995 0 003.143 2.872M18.685 33.356c.43.32.694.52.791.6.098.078.224.174.38.287.154.114.281.204.38.27a19.401 19.401 0 01.976.739c.186.151.368.302.547.452a34 34 0 00.809.65c.36.283.739.605 1.134.966.395.36.81.734 1.241 1.12.433.385.868.78 1.308 1.184.439.405.885.811 1.338 1.22.452.408.914.816 1.385 1.225.47.408.948.835 1.432 1.28.484.446.97.885 1.46 1.316.488.43.99.875 1.502 1.332.514.457 1.025.927 1.535 1.411s1.027.97 1.551 1.458c.525.488 1.053.983 1.585 1.485.532.501 1.053.99 1.565 1.465.512.475 1.03.963 1.552 1.463a90.99 90.99 0 003.143 2.873M12.612 29.15a.635.635 0 01.028-.222c.027-.116.092-.243.193-.38.1-.139.18-.232.237-.281a.83.83 0 01.24-.133c.101-.04.207-.065.318-.077a.909.909 0 01.31.018c.097.023.18.077.25.163.07.085.124.206.16.365.038.159.058.334.06.528.002.193-.02.397-.067.613-.046.216-.111.431-.194.645a4 4 0 01-.302.618 3.6 3.6 0 01-.912 1.013c-.173.128-.353.22-.54.279a1.693 1.693 0 01-.546.08 1.051 1.051 0 01-.886-.52 2.006 2.006 0 01-.231-.528 2.436 2.436 0 01-.012-1.204c.051-.203.122-.396.212-.58.09-.184.153-.303.188-.357a3.007 3.007 0 01.543-.563 1.38 1.38 0 01.41-.237c.138-.047.279-.072.422-.074a1.08 1.08 0 01.416.078c.134.054.257.13.37.226.112.097.185.165.217.203.033.038.06.075.083.11.023.037.051.09.086.16.034.07.07.194.11.375.04.18.058.37.056.568a1.918 1.918 0 01-.102.59 1.914 1.914 0 01-.287.546 2.266 2.266 0 01-.427.435 1.77 1.77 0 01-1.1.368 1.283 1.283 0 01-.57-.15 1.85 1.85 0 01-.49-.369 1.513 1.513 0 01-.322-.516 1.762 1.762 0 01-.009-1.229 3.062 3.062 0 011.39-1.655 2.63 2.63 0 01.624-.245c.21-.052.407-.07.594-.057.186.013.357.064.513.151.156.087.286.209.39.365.104.156.179.335.225.536a2.233 2.233 0 01-.128 1.351 2.932 2.932 0 01-.91 1.16 2.726 2.726 0 01-.63.362 3.39 3.39 0 01-.435.157c-.07.015-.13.023-.18.024a2.235 2.235 0 01-.226-.009c-.1-.008-.235-.059-.405-.153a1.079 1.079 0 01-.411-.405 2.07 2.07 0 01-.187-.368 1.345 1.345 0 01-.045-.199 3.008 3.008 0 01-.027-.45c0-.112 0-.197.002-.257.002-.059.007-.118.016-.176a2.23 2.23 0 01.036-.18c.015-.062.03-.12.046-.176a1.78 1.78 0 01.055-.16c.02-.05.11-.18.271-.391.161-.212.301-.36.42-.444a1.85 1.85 0 01.25-.16c.05-.021.148-.042.295-.06a.936.936 0 01.443.053c.147.054.267.14.359.26.091.12.176.319.253.598.076.279.119.547.126.806.007.258-.02.513-.084.764a2.42 2.42 0 01-.27.668 1.491 1.491 0 01-.406.454.94.94 0 01-.475.182.866.866 0 01-.493-.118 1.356 1.356 0 01-.412-.345 1.425 1.425 0 01-.232-.396 1.756 1.756 0 01-.081-.274 1.838 1.838 0 01-.017-.24 4.585 4.585 0 01-.002-.216.839.839 0 01.016-.128c.008-.045.02-.089.032-.132a3.68 3.68 0 01.162-.42 2.56 2.56 0 01.16-.286c.03-.044.145-.143.344-.296.2-.153.325-.244.378-.271a.897.897 0 01.133-.06c.035-.01.146.003.33.042.185.039.325.114.42.224.096.11.163.245.202.406.04.161.056.332.049.512-.008.18-.05.37-.126.57a1.744 1.744 0 01-.714.87.71.71 0 01-.428.1.626.626 0 01-.36-.144.976.976 0 01-.18-.186.679.679 0 01-.097-.272 1.825 1.825 0 01-.02-.222 6.12 6.12 0 01-.005-.233c0-.06.007-.117.017-.168a1.685 1.685 0 01.087-.283 2.747 2.747 0 01.134-.296c.024-.044.114-.154.27-.327.157-.174.294-.286.41-.336a.71.71 0 01.335-.064c.107.008.19.04.253.096a.544.544 0 01.123.144c.02.04.04.148.06.323.022.175.024.357.006.546a2.38 2.38 0 01-.126.568c-.066.189-.144.341-.233.456a.634.634 0 01-.274.222.326.326 0 01-.28-.03c-.094-.054-.172-.158-.234-.313a1.539 1.539 0 01-.102-.515 2.02 2.02 0 01.066-.58c.051-.197.121-.383.21-.558.087-.174.186-.322.294-.442a.972.972 0 01.329-.253c.111-.048.21-.046.297.004.088.051.146.148.177.292.031.143.041.318.032.526a2.322 2.322 0 01-.383 1.151c-.11.165-.228.293-.353.385a.764.764 0 01-.366.158.39.39 0 01-.32-.116.687.687 0 01-.19-.389 1.653 1.653 0 01-.002-.543 2.62 2.62 0 01.157-.574c.075-.19.16-.353.255-.49a1.63 1.63 0 01.294-.33c.1-.084.2-.133.301-.149.1-.016.191.013.271.086.08.074.14.19.181.348.041.158.064.337.07.536.004.199-.014.383-.055.552a1.59 1.59 0 01-.162.427.535.535 0 01-.212.226c-.074.035-.144.021-.21-.041a.692.692 0 01-.16-.316 1.977 1.977 0 01-.067-.5 2.686 2.686 0 01.184-.982 2.29 2.29 0 01.13-.272.854.854 0 01.112-.156.334.334 0 01.1-.078c.031-.013.061-.019.09-.016.03.002.06.071.087.207.029.136.036.294.022.475a3.45 3.45 0 01-.269 1.082 2.99 2.99 0 01-.175.334c-.05.08-.093.126-.128.141-.034.015-.063-.024-.085-.117a2.734 2.734 0 01-.025-.898c.024-.177.06-.325.11-.445.049-.12.091-.2.127-.239.036-.04.066-.061.089-.066.023-.005.045.003.065.022.02.02.034.053.042.1a2.686 2.686 0 01-.003.586 9.427 9.427 0 01-.105.6 7.795 7.795 0 01-.163.696 1.37 1.37 0 01-.135.34c-.039.056-.075.062-.107.017s-.056-.15-.071-.318a6.12 6.12 0 01-.025-.523 3.155 3.155 0 01.024-.458c.017-.124.036-.21.057-.255.02-.045.038-.05.055-.012.017.037.029.11.036.217.007.107.013.227.016.362.004.134.007.245.012.331a.797.797 0 00.032.208c.018.053.039.052.062-.002.024-.054.044-.148.061-.283a12.718 12.718 0 00.071-.856 4.684 4.684 0 01.019-.262v.247c0 .154.008.29.023.406a.918.918 0 00.08.288c.037.075.083.117.136.125.054.009.1-.035.14-.132.039-.096.065-.227.077-.391.012-.165.018-.33.02-.495v-.43a25.38 25.38 0 01-.003-.285v-.106-.002.085c0 .054.003.137.008.247a2.627 2.627 0 00.184.765c.045.107.086.168.122.184.037.017.066-.031.088-.145.022-.113.036-.249.04-.407.005-.158.008-.295.008-.41a3.438 3.438 0 00-.056-.615c-.01-.037-.027-.045-.047-.024-.021.02-.042.076-.064.166a1.482 1.482 0 00-.022.554c.015.072.031.12.05.143.017.023.034.018.05-.015a.682.682 0 00.028-.216 2.739 2.739 0 00-.068-.678.984.984 0 00-.059-.163.273.273 0 00-.042-.064c-.011-.011-.023-.014-.036-.008-.013.006-.025.039-.036.099a1.3 1.3 0 00-.013.255 1.377 1.377 0 00.15.586c.035.056.073.086.112.088.04.003.081-.022.124-.075a.837.837 0 00.117-.205 1.644 1.644 0 00.116-.456c.003-.052 0-.086-.008-.1-.008-.016-.022-.002-.041.04a.76.76 0 00-.039.244c-.006.12.004.245.028.375a2.682 2.682 0 00.245.715c.047.085.09.13.13.135.042.005.072-.047.092-.154.02-.108.03-.226.033-.353a6.103 6.103 0 00-.014-.53c-.005-.035-.015-.047-.032-.036a.39.39 0 00-.081.114c-.037.066-.071.14-.103.225a1.184 1.184 0 00-.084.374c-.001.027.004.038.014.03.011-.007.027-.043.049-.107a2.075 2.075 0 00.083-.625c0-.004-.001-.004-.004.001l-.021.04a1.042 1.042 0 00-.049.264c0 .039.003.062.012.07.012.01.07-.107.175-.353" fill="none" stroke="#007aff" stroke-width=".53381618" stroke-linecap="round" stroke-linejoin="round" stroke-miterlimit="10"/><path d="M13.645 29.898c.024-.057.041-.102.05-.133a.253.253 0 00.008-.075c-.001-.028-.012-.043-.031-.043-.02-.001-.044.017-.072.054a.703.703 0 00-.081.15 2.378 2.378 0 00-.081.234 2.218 2.218 0 00-.072.32 3.076 3.076 0 00.001.013c0-.004.007-.022.016-.055.01-.033.03-.118.057-.255.028-.136.046-.214.052-.233a1.28 1.28 0 01.176-.234M13.516 22.073c.153-.086.307-.197.46-.333a4.67 4.67 0 00.437-.444c.138-.16.26-.333.368-.516.107-.184.197-.368.271-.553.074-.186.126-.325.156-.418a2.77 2.77 0 00.067-.243c.015-.07.027-.18.036-.331a3.136 3.136 0 00-.065-.773M15.442 18.4a1.02 1.02 0 01.48.212c.059.043.119.1.18.168.061.07.123.154.185.255s.121.213.179.335c.057.122.105.269.141.441.037.173.06.36.067.561a5.74 5.74 0 01-.006.59c-.018.28-.088.669-.21 1.164M16.529 22.392a.431.431 0 00.094.164c.052.062.124.156.215.282.092.126.167.222.225.288a1.876 1.876 0 00.289.269c.049.036.102.072.16.108.058.035.133.075.224.122.091.046.184.085.278.116.093.032.176.056.247.074.072.017.144.029.215.034.072.006.15.009.237.01a1.637 1.637 0 00.546-.092c.103-.036.228-.084.374-.144.146-.06.317-.137.512-.232s.401-.198.618-.308c.318-.162.766-.365 1.346-.61M17.285 27.47a.37.37 0 01-.057-.234.92.92 0 01.098-.236 2.845 2.845 0 01.29-.457 4.319 4.319 0 01.416-.474 3.822 3.822 0 01.502-.42c.119-.087.269-.194.451-.32.182-.127.37-.26.566-.399.195-.139.343-.241.445-.307.103-.066.206-.125.31-.178.105-.053.253-.112.444-.177a3.42 3.42 0 01.58-.144c.196-.03.404-.048.625-.053.22-.004.42.008.6.034.18.028.364.057.552.089.277.046.62.073 1.03.08M22.181 22.475a3.556 3.556 0 00.408-.338c.057-.054.175-.184.355-.39a9.7 9.7 0 01.61-.632c.362-.345.563-.603.602-.776M24.342 20.55c0 .23.01.446.028.648.012.135.017.288.017.459a1.927 1.927 0 01-.208.876c-.091.177-.255.406-.49.685M23.644 23.473c.018-.095.083-.195.195-.3.074-.069.137-.119.19-.15.053-.031.142-.07.266-.118.124-.047.272-.094.445-.14a9.054 9.054 0 011.152-.192M24.248 24.215c.049.01.106.008.173-.005.067-.013.134-.029.203-.047.068-.018.16-.05.276-.094.115-.045.245-.117.388-.215.207-.142.54-.475 1.002-.998M17.216 27.773c.182.002.339.015.47.04.09.015.212.047.368.095.157.048.35.117.58.209.23.091.432.187.605.286.173.099.336.213.488.343.22.187.613.696 1.18 1.525M18.59 33.134c.019-.015.052-.088.099-.218.027-.076.06-.175.097-.297a13.528 13.528 0 00.243-.924 4.324 4.324 0 00.07-1.652M19.024 29.932l-.07-.017h0l.008.003.157.053c.098.033.213.071.345.113.19.061.63.113 1.318.157M17.559 34.619c-.017.065-.116.19-.299.376-.182.185-.329.328-.44.428-.111.1-.24.205-.386.316-.147.111-.314.24-.5.386a8.56 8.56 0 01-.605.428 3.886 3.886 0 01-1.365.568c-.24.05-.495.084-.763.1a8.31 8.31 0 01-.883-.001c-.465-.023-1.23-.253-2.295-.69M6.648 26.273c.033-.166.06-.322.077-.468.018-.147.029-.296.032-.447a2.85 2.85 0 00-.049-.533 4.34 4.34 0 00-.166-.644 12.979 12.979 0 00-.257-.692 21.88 21.88 0 00-.28-.666 35.395 35.395 0 01-.488-1.17c-.102-.262-.22-.635-.354-1.119M7.035 20.64a.378.378 0 01-.137-.012c-.02-.007-.038-.04-.056-.1-.018-.061-.027-.084-.028-.07a6.026 6.026 0 00-.01.102.848.848 0 00.04.256c.032.116.076.25.133.4.057.15.128.311.211.483.084.172.188.36.31.565.123.204.258.398.403.58.146.182.294.357.443.525.15.168.285.305.406.411.176.155.476.326.902.513" fill="none" stroke="#007aff" stroke-width=".53381618" stroke-linecap="round" stroke-linejoin="round" stroke-miterlimit="10"/><path d="M9.708 24.175c-.011.03-.003.05.024.055.019.004.041.004.066-.002s.095-.052.21-.14a7.627 7.627 0 00.63-.52c.115-.105.24-.213.372-.324.132-.11.282-.223.45-.337l.503-.343a6.04 6.04 0 01.505-.308 3.7 3.7 0 01.51-.23 7.83 7.83 0 01.975-.267M5.053 20.313a23.756 23.756 0 01-.297-1.334 5.068 5.068 0 01-.067-.483 6.133 6.133 0 01-.023-.975c.012-.228.062-.484.148-.768M5.934 18.885a1.265 1.265 0 01-.054-.187 1.095 1.095 0 00-.036-.133 3.473 3.473 0 00-.147-.33c-.08-.168-.149-.316-.205-.447-.056-.131-.112-.262-.166-.394-.081-.2-.18-.368-.295-.504M6.157 19.105a.171.171 0 01-.056-.13c0-.036.009-.075.026-.118a1.64 1.64 0 01.098-.184c.048-.08.109-.17.184-.272.075-.102.167-.198.276-.288.11-.091.223-.166.342-.224.173-.086.438-.135.794-.15M6.955 20.43c-.002.016.017.014.055-.008a.742.742 0 00.126-.091c.045-.04.094-.09.148-.152a2.098 2.098 0 00.34-.557c.056-.13.104-.263.145-.395a7.32 7.32 0 00.11-.396c.048-.19.093-.486.138-.887M9.999 36.584a2.813 2.813 0 01-.25-.07c-.064-.021-.224-.065-.481-.13l-.625-.164-.465-.122a4.53 4.53 0 00-.962-.138c-.171-.006-.35-.009-.535-.006a5.693 5.693 0 00-.59.039 5.166 5.166 0 00-.647.12 6.283 6.283 0 00-.923.339 777.82 777.82 0 00-1.318.574 15.13 15.13 0 01-.949.359M3.445 35.968l.047-.025c.004-.002.001-.002-.007 0a.449.449 0 00-.197.067 1.848 1.848 0 00-.198.132c-.074.056-.16.124-.26.205a20.18 20.18 0 01-.308.248c-.16.126-.304.267-.433.422M3.493 35.752a.887.887 0 01-.358-.019c-.087-.02-.16-.04-.217-.057a9.513 9.513 0 01-.28-.095 2.56 2.56 0 01-.77-.398c-.15-.11-.298-.231-.444-.365-.213-.195-.51-.519-.889-.971M3.218 34.508a3.561 3.561 0 01-.657-.165c-.182-.06-.347-.115-.495-.166a15.16 15.16 0 01-.466-.171 25.684 25.684 0 01-1.333-.559M3.392 34.583c.058-.005.16-.028.308-.072s.288-.093.422-.147c.133-.053.264-.108.393-.164a2.906 2.906 0 00.703-.432c.115-.092.23-.198.345-.316.115-.118.22-.249.313-.393a5.22 5.22 0 00.245-.417c.07-.134.13-.27.178-.408M6.245 31.85a3.34 3.34 0 01-.203-.23 14.196 14.196 0 01-.276-.338 4.77 4.77 0 00-.201-.243 2.5 2.5 0 00-.193-.188 3.29 3.29 0 00-.271-.214 9.929 9.929 0 01-.714-.57c-.122-.107-.24-.21-.355-.307a23.408 23.408 0 01-.696-.62 37.802 37.802 0 00-.367-.339 5.993 5.993 0 01-.4-.4c-.182-.2-.402-.495-.663-.888M3.008 26.915c-.022.013-.03.044-.023.092a.251.251 0 00.032.094c.017.03.048.066.091.111s.156.15.337.318c.182.167.34.306.473.418a3.964 3.964 0 00.947.59c.189.085.372.152.55.202.263.072.58.085.953.036M6.357 28.73a1.386 1.386 0 01.057-.33c.025-.1.047-.195.066-.281.02-.087.053-.28.1-.58.047-.3.074-.506.08-.62a4.803 4.803 0 00-.012-.774 3.53 3.53 0 01-.015-.443M1.836 27.327a.477.477 0 01-.241-.065 1.234 1.234 0 01-.258-.194 4.345 4.345 0 01-.236-.242 3.003 3.003 0 01-.206-.258 7.159 7.159 0 01-.4-.666M.795 25.96a.084.084 0 01.057-.047.659.659 0 01.311.006.952.952 0 01.254.114c.137.083.325.261.565.536M2.158 26.648a.388.388 0 01-.062-.12.643.643 0 01-.02-.12 1.722 1.722 0 01-.009-.157 2.027 2.027 0 01.082-.532 2.37 2.37 0 01.29-.59" fill="none" stroke="#007aff" stroke-width=".53381618" stroke-linecap="round" stroke-linejoin="round" stroke-miterlimit="10"/><path d="M2.843 25.068a.31.31 0 00-.072.138 3.446 3.446 0 00.011.597c.013.127.038.261.075.404.037.144.083.298.138.463.083.247.209.486.377.716M44.6 56.238a.254.254 0 01.078-.071.834.834 0 01.13-.063c.05-.02.158-.054.32-.101.163-.047.291-.085.383-.113.093-.027.19-.055.289-.082a5.485 5.485 0 01.654-.13c.115-.016.35-.036.704-.06.355-.026.59-.04.706-.041a33.461 33.461 0 01.886.003c.227.004.617-.017 1.168-.065M50.024 55.863h.019l-.01.007-.06.032c-.032.017-.086.04-.162.07a13.347 13.347 0 01-.933.314 3.934 3.934 0 01-.316.08c-.104.021-.24.043-.41.065a166.77 166.77 0 00-.7.093c-.105.014-.216.03-.33.05l-.254.047c-.055.01-.135.03-.24.06-.106.03-.184.054-.236.073a2.97 2.97 0 00-.496.237 2.642 2.642 0 00-.17.115 1.234 1.234 0 00-.155.134.599.599 0 00-.145.263M46.508 61.002a.92.92 0 00-.007-.218 2.778 2.778 0 00-.057-.202 9.672 9.672 0 01-.058-.196.556.556 0 00-.11-.213 2.983 2.983 0 01-.099-.152 1.138 1.138 0 01-.062-.122 2.345 2.345 0 00-.103-.196 8.743 8.743 0 00-.113-.192 1.497 1.497 0 01-.134-.276 2.18 2.18 0 01-.062-.19 5.108 5.108 0 01-.087-.382 7.662 7.662 0 01-.08-.525 1.92 1.92 0 01-.01-.181c0-.093.026-.238.079-.435M46.127 60.97a.62.62 0 01-.183-.07 1.154 1.154 0 01-.233-.164 1.825 1.825 0 01-.215-.227 3.472 3.472 0 01-.432-.72 4.292 4.292 0 01-.106-.267 6.73 6.73 0 00-.146-.362 9.452 9.452 0 01-.121-.29 2.76 2.76 0 00-.204-.418 4.84 4.84 0 00-.146-.236 7.8 7.8 0 00-.331-.471 7.82 7.82 0 00-.37-.44" fill="none" stroke="#007aff" stroke-width=".53381618" stroke-linecap="round" stroke-linejoin="round" stroke-miterlimit="10"/><path d="M46.095 85.077c.133.52.213.842.24.965a13.284 13.284 0 00.24.913c.035.114.08.282.137.504.056.222.109.451.16.687.05.235.097.468.142.697.045.23.12.569.222 1.017.103.447.196.937.277 1.467.081.53.169 1.082.263 1.655.095.573.186 1.155.274 1.747.089.592.18 1.19.277 1.793.096.604.199 1.213.31 1.828.11.615.213 1.25.31 1.901.097.653.2 1.3.31 1.945.11.644.222 1.306.334 1.985.113.68.216 1.369.31 2.067.092.699.19 1.403.292 2.114.101.71.202 1.43.3 2.156.1.726.2 1.436.3 2.129.1.692.196 1.399.289 2.118a90.645 90.645 0 00.644 4.22M47.326 84.613c.133.52.213.842.24.965a13.14 13.14 0 00.24.913c.036.114.081.282.137.504.056.223.11.451.16.687.05.235.098.468.143.698.044.23.118.568.222 1.016.103.448.195.937.276 1.467.081.53.17 1.082.264 1.655s.186 1.155.274 1.747c.088.592.18 1.19.276 1.794.096.603.2 1.212.31 1.828.11.615.213 1.248.31 1.9.097.653.2 1.301.31 1.945.11.644.222 1.306.335 1.986.112.68.215 1.368.308 2.066.094.699.191 1.403.293 2.114.102.711.202 1.43.301 2.156.099.726.199 1.436.299 2.129.1.693.196 1.399.29 2.118a91.082 91.082 0 00.643 4.22M45.235 77.509a.635.635 0 01.163-.156c.094-.073.224-.132.39-.176.165-.044.286-.067.361-.07a.83.83 0 01.27.048c.105.033.204.08.297.14.094.06.171.13.232.21a.46.46 0 01.092.284.9.9 0 01-.105.386 2.46 2.46 0 01-.286.449c-.12.152-.266.297-.438.436-.172.14-.358.266-.558.381-.2.115-.408.213-.625.292a3.616 3.616 0 01-1.349.217 1.826 1.826 0 01-.596-.123 1.695 1.695 0 01-.477-.28 1.052 1.052 0 01-.364-.965c.025-.197.076-.383.152-.557a2.443 2.443 0 01.75-.947c.167-.126.344-.232.53-.319a4.4 4.4 0 01.372-.16 3.01 3.01 0 01.778-.098c.175 0 .331.025.469.075.137.049.262.118.375.207.112.089.204.196.275.322.07.127.12.263.146.41.027.146.041.245.043.295.001.05 0 .096-.005.138a1.856 1.856 0 01-.034.178 1.876 1.876 0 01-.15.363 2.525 2.525 0 01-.314.478 1.929 1.929 0 01-1.019.641 2.266 2.266 0 01-.607.07 1.773 1.773 0 01-1.09-.405 1.288 1.288 0 01-.348-.476 1.855 1.855 0 01-.15-.595 1.517 1.517 0 01.072-.606 1.766 1.766 0 01.767-.964 3.069 3.069 0 012.126-.416c.231.042.445.11.64.2a1.9 1.9 0 01.5.33c.137.128.24.276.306.442.067.166.091.342.074.53a1.604 1.604 0 01-.162.56 2.237 2.237 0 01-.95.973 2.949 2.949 0 01-1.44.332 2.736 2.736 0 01-.72-.114 3.399 3.399 0 01-.438-.151 1.04 1.04 0 01-.156-.095c-.04-.031-.097-.081-.17-.15-.073-.068-.146-.193-.22-.374a1.082 1.082 0 01-.066-.575 2.08 2.08 0 01.086-.404c.028-.068.058-.13.09-.184a3.026 3.026 0 01.263-.368 8 8 0 01.163-.199c.039-.045.08-.087.124-.127.044-.04.091-.08.141-.118.05-.039.1-.075.147-.108.048-.034.095-.064.143-.09.047-.027.2-.072.458-.135.259-.064.461-.09.607-.082.145.009.244.02.296.034.052.013.141.06.268.137.126.079.23.185.312.32a.78.78 0 01.116.43c-.003.15-.063.359-.179.625a3.403 3.403 0 01-.409.708 2.804 2.804 0 01-.546.544 2.429 2.429 0 01-.631.35c-.214.078-.415.11-.603.1a.942.942 0 01-.485-.158.868.868 0 01-.31-.402 1.36 1.36 0 01-.105-.53c.002-.177.025-.328.069-.454.043-.126.08-.214.108-.264.03-.05.075-.117.139-.199.063-.081.108-.138.134-.169a.772.772 0 01.093-.09c.035-.03.071-.057.108-.083.038-.026.1-.065.19-.116a2.579 2.579 0 01.507-.232c.05-.015.202-.02.454-.014.251.006.407.015.466.026a.9.9 0 01.14.038c.035.013.112.093.232.24.12.146.182.293.187.439a.959.959 0 01-.099.444c-.07.15-.165.294-.284.43a1.804 1.804 0 01-.458.366 1.748 1.748 0 01-1.104.229.713.713 0 01-.396-.192.628.628 0 01-.19-.34.973.973 0 01-.025-.257.68.68 0 01.096-.274c.027-.048.069-.11.125-.185.056-.076.104-.137.143-.185a.848.848 0 01.119-.12 1.698 1.698 0 01.245-.166 2.717 2.717 0 01.291-.146 2.63 2.63 0 01.418-.086c.23-.037.408-.038.531-.004a.712.712 0 01.302.161.41.41 0 01.136.234.551.551 0 01.005.19c-.01.044-.061.14-.155.29-.094.15-.207.294-.34.43a2.393 2.393 0 01-.455.363c-.171.106-.328.176-.47.21a.64.64 0 01-.353.001.326.326 0 01-.2-.2c-.04-.101-.034-.231.015-.391.05-.16.131-.316.245-.467.113-.151.251-.287.416-.41a2.79 2.79 0 01.515-.304c.178-.08.348-.134.508-.16a.973.973 0 01.416.01c.117.033.193.097.229.191.036.095.02.207-.045.339a2.087 2.087 0 01-.307.43 2.327 2.327 0 01-1.023.657c-.19.06-.363.085-.518.079a.762.762 0 01-.385-.108.39.39 0 01-.178-.292.688.688 0 01.098-.423c.082-.15.196-.292.34-.424.144-.133.306-.249.484-.35.178-.1.347-.174.508-.221.161-.048.307-.072.437-.074.13-.001.24.024.328.074.089.051.141.13.158.238a.7.7 0 01-.078.386c-.068.15-.162.303-.284.461-.121.158-.25.29-.389.397-.138.106-.27.183-.396.231a.536.536 0 01-.308.043c-.08-.02-.125-.074-.137-.165a.694.694 0 01.073-.347 2.348 2.348 0 01.648-.822c.142-.113.267-.2.378-.26.11-.06.2-.104.271-.13a.864.864 0 01.186-.052.333.333 0 01.128.003c.032.008.06.023.08.044.022.02.001.092-.062.216a1.713 1.713 0 01-.283.384 3.462 3.462 0 01-.89.674 3 3 0 01-.348.15c-.089.031-.152.041-.188.03-.036-.01-.034-.058.007-.145s.11-.197.206-.33c.097-.134.21-.262.34-.386.13-.123.252-.216.366-.278a.896.896 0 01.25-.106c.053-.008.09-.006.11.004.022.01.034.03.037.058.004.029-.006.063-.03.105a2.68 2.68 0 01-.37.455 9.43 9.43 0 01-.46.403 7.83 7.83 0 01-.565.44c-.147.1-.253.16-.32.18-.066.019-.097 0-.094-.054.003-.055.051-.153.144-.293.094-.14.197-.282.31-.424a3.21 3.21 0 01.307-.342c.092-.086.16-.14.205-.163.044-.023.061-.014.05.025a.74.74 0 01-.108.192 8.785 8.785 0 01-.215.292c-.082.107-.148.196-.2.266a.786.786 0 00-.105.183c-.02.052-.003.065.05.037.052-.027.127-.088.226-.182a12.491 12.491 0 00.594-.623 5.02 5.02 0 01.15-.167l.036-.035c.002-.001 0 .002-.007.01l-.155.192c-.097.12-.176.23-.238.332a.92.92 0 00-.119.274c-.018.082-.009.143.028.184.036.04.1.035.192-.016.091-.05.193-.136.306-.256.113-.121.222-.246.327-.374a21.126 21.126 0 00.448-.559l.067-.083.002-.002-.001.001-.054.066a5.203 5.203 0 00-.149.198 2.06 2.06 0 00-.194.34 2.622 2.622 0 00-.144.373c-.032.11-.039.184-.02.22.017.036.07.017.16-.057.088-.075.184-.172.287-.293.103-.12.191-.226.264-.315a3.439 3.439 0 00.344-.515c.014-.036.007-.052-.022-.049-.03.003-.08.033-.154.09a1.483 1.483 0 00-.366.418.387.387 0 00-.052.143c0 .029.016.035.049.02a.683.683 0 00.158-.151 2.75 2.75 0 00.374-.571.993.993 0 00.056-.164.267.267 0 00.008-.077c-.002-.016-.01-.026-.023-.03-.014-.003-.044.015-.09.055-.047.04-.104.103-.171.19a1.364 1.364 0 00-.17.293.994.994 0 00-.082.26c-.008.066.003.112.032.14.029.026.077.033.144.018a.835.835 0 00.22-.086 1.645 1.645 0 00.378-.282c.035-.04.054-.067.057-.084.003-.017-.017-.015-.058.006a.765.765 0 00-.183.166c-.08.09-.152.193-.215.31a2.689 2.689 0 00-.259.712c-.017.096-.012.158.017.188.029.029.085.008.168-.064.083-.071.166-.156.248-.254a6.264 6.264 0 00.322-.421c.02-.031.019-.047-.001-.05a.393.393 0 00-.136.039c-.07.028-.143.065-.222.11a1.188 1.188 0 00-.3.24c-.018.02-.02.03-.008.032.013.002.048-.016.106-.053a2.082 2.082 0 00.458-.435c.002-.004.001-.004-.004-.002a.453.453 0 00-.14.09c-.046.04-.08.073-.106.103-.025.03-.037.05-.034.062.002.016.122-.039.359-.165" fill="none" stroke="#007aff" stroke-width=".53527072" stroke-linecap="round" stroke-linejoin="round" stroke-miterlimit="10"/><path d="M45.57 78.742c.056-.03.097-.054.124-.072a.246.246 0 00.053-.054c.017-.022.018-.04.003-.053-.015-.013-.045-.014-.09-.003a.7.7 0 00-.158.066c-.06.032-.13.076-.211.131a2.232 2.232 0 00-.257.204l-.011.013.004-.001.047-.033a4.44 4.44 0 00.205-.162c.108-.089.17-.139.187-.15.024-.016.118-.04.284-.071M50.396 72.556c.174.03.363.04.568.03.205-.01.412-.033.621-.071.21-.038.413-.095.612-.171.199-.076.386-.163.56-.26.175-.099.303-.175.384-.228.081-.054.15-.103.206-.148.055-.044.134-.123.236-.235.151-.167.297-.381.436-.644M54.21 70.904a1.023 1.023 0 01.242.468c.019.07.03.152.035.244.004.092-.001.197-.017.315a3.55 3.55 0 01-.07.374 2.039 2.039 0 01-.168.433 3.31 3.31 0 01-.301.48c-.121.162-.247.314-.377.456-.19.208-.49.466-.896.776M52.546 74.702a.432.432 0 00-.03.188c.002.08-.002.199-.01.355-.008.156-.01.278-.006.366a1.85 1.85 0 00.114.576 3.5 3.5 0 00.098.237c.042.093.09.182.143.265.053.084.102.155.147.214.045.058.094.112.146.162a3.2 3.2 0 00.179.156 1.646 1.646 0 00.484.272c.102.037.23.078.381.124.152.045.334.092.546.14.212.05.438.1.677.15.35.073.827.197 1.433.372M49.939 79.14a.37.37 0 01.102-.22.925.925 0 01.225-.122 2.858 2.858 0 01.515-.173 4.371 4.371 0 01.623-.108 3.812 3.812 0 01.656-.012c.147.007.332.018.553.034.222.016.452.031.692.046.24.014.42.028.542.04.12.013.239.032.353.057.115.024.268.071.458.141.191.07.372.154.544.253.171.1.345.217.52.352.175.135.323.27.446.405.123.134.248.273.375.416.187.21.439.447.754.71M56.903 78.326c.123.005.23.007.322.005.061-.002.131-.006.209-.013a7.96 7.96 0 00.523-.08c.27-.048.561-.084.873-.11.5-.04.82-.116.959-.226M59.801 78.183c-.144.18-.273.355-.386.523a5.023 5.023 0 01-.276.37 1.93 1.93 0 01-.714.552c-.183.08-.454.156-.814.226M57.416 80.025c.074-.063.188-.1.341-.111.1-.008.182-.007.243.002.06.01.155.035.281.076.127.04.272.098.435.17.239.107.579.299 1.02.576M57.42 80.984a.46.46 0 00.138.105c.06.032.123.062.188.091.064.029.156.062.274.1.119.038.265.064.438.077.251.02.721-.03 1.41-.147M49.695 79.333c.14.116.254.225.341.326.06.069.135.171.227.306.092.136.2.312.321.529.123.216.22.417.292.603.073.186.128.378.165.576.054.284.04.928-.04 1.931M47.391 84.38c.024 0 .096-.036.215-.108.069-.042.156-.1.262-.17a13.755 13.755 0 00.772-.569 4.336 4.336 0 001.095-1.245M49.746 82.155a16.13 16.13 0 00-.044-.058h0l.004.008.089.14c.056.088.121.19.198.306.11.167.42.484.93.952M45.652 84.889c-.054.04-.21.076-.47.105-.258.03-.462.049-.612.057-.15.008-.317.009-.501.003-.184-.005-.395-.01-.633-.014a8.422 8.422 0 01-.741-.046 4.158 4.158 0 01-.739-.144 3.893 3.893 0 01-.684-.272 5.22 5.22 0 01-.657-.403 8.345 8.345 0 01-.689-.557c-.348-.31-.8-.97-1.355-1.983M42.394 71.51c.13-.109.25-.214.355-.317.107-.104.209-.213.306-.329a2.84 2.84 0 00.298-.446 4.35 4.35 0 00.275-.607c.083-.223.161-.457.236-.702.075-.245.142-.477.201-.696a35.098 35.098 0 01.356-1.22c.085-.269.228-.634.428-1.095M46.242 67.36a.375.375 0 01-.099-.096c-.01-.018-.004-.057.02-.115s.031-.082.022-.072l-.072.074a.838.838 0 00-.13.225c-.049.11-.098.242-.148.395-.05.154-.097.324-.14.51-.043.188-.08.4-.113.636-.033.237-.05.472-.05.706-.002.234.004.464.014.689.011.225.03.417.058.576.04.231.166.554.38.968" fill="none" stroke="#007aff" stroke-width=".53527072" stroke-linecap="round" stroke-linejoin="round" stroke-miterlimit="10"/><path d="M46.102 71.799c-.028.017-.033.036-.016.058.013.015.03.029.053.04a1 1 0 00.251.023 7.916 7.916 0 00.82-.01c.156-.008.32-.014.494-.017.173-.003.36.004.564.02l.608.05c.202.017.398.042.587.077.19.035.371.082.544.141.254.088.563.223.928.406M44.903 65.856c.047-.107.111-.246.194-.416a23.409 23.409 0 01.414-.811c.068-.13.152-.27.25-.42.1-.15.198-.287.295-.413.097-.127.198-.247.302-.362.153-.17.353-.338.599-.505M46.488 65.297c.026-.074.051-.134.076-.18.017-.032.036-.075.056-.127.02-.052.051-.17.093-.35.043-.181.083-.34.121-.478.039-.137.078-.275.12-.412.061-.207.09-.4.086-.579M46.524 65.609a.173.173 0 01.038-.137.304.304 0 01.095-.075c.04-.022.104-.05.192-.082.087-.033.192-.065.315-.097.122-.032.255-.05.397-.051.142-.002.278.011.407.04.19.043.427.17.714.384M46.313 67.144c-.012.012.004.022.047.03.044.007.096.01.156.007.06-.002.13-.011.21-.025a2.11 2.11 0 00.617-.22c.126-.067.247-.14.362-.218.115-.077.227-.157.335-.239.157-.12.379-.32.665-.605M38.517 81.663a2.84 2.84 0 01-.15-.212 11.244 11.244 0 00-.294-.405 73.327 73.327 0 01-.384-.521 44.845 44.845 0 00-.287-.388 4.53 4.53 0 00-.663-.713 10.97 10.97 0 00-.413-.342 5.66 5.66 0 00-.485-.34 5.184 5.184 0 00-.58-.315 6.311 6.311 0 00-.934-.316 838.4 838.4 0 00-1.39-.382 15.216 15.216 0 01-.965-.317M33.792 77.057c.03.005.048.008.053.01.004 0 .002-.002-.004-.006l-.054-.03a.457.457 0 00-.142-.042 1.856 1.856 0 00-.238-.02 7.801 7.801 0 00-.332-.004h-.397a2.901 2.901 0 00-.604.056M33.966 76.918a.889.889 0 01-.267-.24 3.355 3.355 0 01-.134-.182 9.185 9.185 0 01-.158-.249 2.568 2.568 0 01-.35-.794 5.146 5.146 0 01-.117-.566c-.044-.287-.071-.726-.082-1.317M34.535 75.774a3.57 3.57 0 01-.41-.543 30.76 30.76 0 01-.28-.44 15.165 15.165 0 01-.257-.427 25.536 25.536 0 01-.688-1.275M34.623 75.942c.048.034.143.08.286.138.142.059.283.11.42.151.139.042.276.082.41.12a2.915 2.915 0 00.822.106c.147 0 .303-.01.468-.03.164-.02.328-.056.491-.11.164-.054.315-.11.454-.171.139-.06.271-.13.396-.206M38.569 75.607a3.257 3.257 0 01-.014-.308 12.78 12.78 0 01-.002-.438c.002-.131 0-.236-.004-.315a2.48 2.48 0 00-.032-.269 3.283 3.283 0 00-.077-.337 9.945 9.945 0 01-.198-.895 33.7 33.7 0 00-.083-.462 23.81 23.81 0 01-.153-.921l-.073-.496a6.01 6.01 0 01-.06-.565 7.79 7.79 0 01.042-1.11M39.15 69.719c-.025-.004-.05.015-.075.057a.257.257 0 00-.034.094.629.629 0 000 .143c.006.063.027.216.064.46.036.245.071.453.105.625a3.985 3.985 0 00.368 1.056c.093.185.194.353.302.504.159.222.399.431.72.628M40.62 73.243c.031-.043.115-.117.252-.221.084-.063.16-.123.23-.178.07-.056.217-.186.442-.39.226-.204.377-.348.453-.433a4.802 4.802 0 00.478-.611c.097-.145.186-.264.267-.356M37.977 69.302a.48.48 0 01-.147-.202 1.235 1.235 0 01-.079-.314 4.4 4.4 0 01-.032-.337 2.97 2.97 0 01.002-.33c.01-.172.046-.43.107-.773M38.026 67.58a.084.084 0 01.073 0 .633.633 0 01.24.2.956.956 0 01.126.249c.055.151.089.409.103.774M38.656 68.975a.384.384 0 01.027-.133.65.65 0 01.059-.105c.028-.043.059-.086.093-.128a2.04 2.04 0 01.399-.364c.137-.097.336-.19.596-.277" fill="none" stroke="#007aff" stroke-width=".53527072" stroke-linecap="round" stroke-linejoin="round" stroke-miterlimit="10"/><path d="M40.184 68.174a.31.31 0 00-.142.062 3.403 3.403 0 00-.367.473c-.07.107-.135.228-.196.363a6.728 6.728 0 00-.184.448 2.64 2.64 0 00-.157.796M53.137 118.777a.255.255 0 01.106-.006c.04.005.088.016.14.032.054.016.158.058.315.123l.37.154.276.118a4.45 4.45 0 01.593.309c.098.06.294.193.587.396.292.204.484.342.576.414a31.6 31.6 0 01.689.56c.175.146.492.374.952.683M57.604 121.9l.015.011-.011-.001-.067-.013a1.639 1.639 0 01-.17-.047 13.18 13.18 0 01-.926-.342 3.952 3.952 0 01-.297-.137 5.97 5.97 0 01-.361-.207 129.744 129.744 0 00-.604-.368 7.59 7.59 0 00-.29-.169 3.35 3.35 0 00-.452-.228 3.557 3.557 0 00-.23-.092 2.97 2.97 0 00-.537-.127 2.716 2.716 0 00-.205-.017 1.26 1.26 0 00-.205.007.6.6 0 00-.279.113M51.627 123.695a.942.942 0 00.131-.175 2.92 2.92 0 00.083-.193l.078-.189a.547.547 0 00.048-.236c.007-.076.013-.137.02-.181.006-.044.015-.09.028-.134a2.34 2.34 0 00.042-.218c.016-.1.027-.173.033-.22a1.49 1.49 0 01.07-.3c.024-.072.048-.135.071-.187a5.118 5.118 0 01.172-.353 7.724 7.724 0 01.268-.46 1.91 1.91 0 01.107-.148c.058-.073.17-.17.335-.29M51.35 123.43a.622.622 0 01-.099-.17 1.137 1.137 0 01-.078-.275 1.752 1.752 0 01-.025-.313 3.471 3.471 0 01.116-.833c.017-.065.045-.157.085-.275.04-.118.078-.242.115-.373.036-.131.065-.232.087-.303a2.759 2.759 0 00.104-.455 7.739 7.739 0 00.073-.852c.005-.129 0-.32-.012-.576" fill="none" stroke="#007aff" stroke-width=".53527072" stroke-linecap="round" stroke-linejoin="round" stroke-miterlimit="10"/><path d="M66.384 37.524c.205-.509.334-.822.386-.938a13.617 13.617 0 00.355-.896c.04-.116.104-.281.193-.498.088-.216.183-.436.284-.66.101-.225.203-.445.305-.66.102-.216.246-.54.432-.97.186-.43.406-.889.66-1.374.255-.485.516-.991.785-1.52.27-.527.546-1.062.832-1.602.286-.54.572-1.087.858-1.64.286-.555.57-1.118.852-1.69.281-.573.58-1.157.895-1.751.314-.595.622-1.19.92-1.787.3-.596.61-1.207.928-1.834.318-.626.65-1.255.997-1.886.345-.63.692-1.268 1.038-1.914.346-.646.699-1.297 1.057-1.954s.706-1.3 1.043-1.93c.336-.63.684-1.27 1.043-1.917a92.8 92.8 0 002.024-3.858M65.09 37.16c.206-.508.335-.821.388-.938a13.617 13.617 0 00.355-.896c.04-.115.104-.281.192-.497.088-.217.183-.437.284-.661.101-.224.203-.444.305-.66.102-.216.246-.54.432-.97.186-.43.407-.888.66-1.374.255-.485.517-.991.786-1.52.268-.527.546-1.061.831-1.601.286-.54.572-1.087.859-1.642.286-.554.57-1.117.851-1.69.282-.572.58-1.155.895-1.75.315-.595.622-1.19.921-1.787.3-.595.608-1.207.927-1.833.319-.627.65-1.256.997-1.886.346-.63.692-1.269 1.038-1.915.347-.646.699-1.297 1.057-1.954s.706-1.3 1.043-1.93c.337-.63.685-1.27 1.044-1.917a92.96 92.96 0 002.023-3.858M62.51 44.265a.647.647 0 01-.227.03 1.118 1.118 0 01-.427-.092 1.845 1.845 0 01-.34-.162.852.852 0 01-.193-.201 1.267 1.267 0 01-.159-.296.928.928 0 01-.063-.312.468.468 0 01.096-.29.915.915 0 01.32-.253c.147-.078.316-.144.506-.196.191-.053.4-.084.625-.094a4.374 4.374 0 011.379.163 3.687 3.687 0 011.24.638c.171.138.31.292.416.462.106.17.18.342.222.519a1.078 1.078 0 01-.284 1.013c-.14.146-.294.268-.462.366a2.49 2.49 0 01-1.189.325 3.014 3.014 0 01-.629-.06 4.486 4.486 0 01-.402-.092 3.073 3.073 0 01-.698-.39 1.416 1.416 0 01-.342-.346 1.354 1.354 0 01-.182-.397 1.102 1.102 0 01-.032-.432c.019-.147.061-.288.128-.425s.114-.226.143-.268a.963.963 0 01.089-.11 1.83 1.83 0 01.135-.127c.06-.052.174-.12.342-.207.169-.086.351-.153.548-.203a1.966 1.966 0 011.225.09c.199.08.38.183.542.309a1.808 1.808 0 01.65.993c.047.193.046.394 0 .602a1.893 1.893 0 01-.237.58c-.11.18-.253.33-.427.454a1.803 1.803 0 01-1.214.329 3.128 3.128 0 01-2-.945 2.691 2.691 0 01-.404-.553 1.941 1.941 0 01-.211-.573 1.25 1.25 0 01.016-.548 1.15 1.15 0 01.26-.48 1.64 1.64 0 01.471-.362 2.283 2.283 0 011.37-.225 3.008 3.008 0 011.384.598c.203.157.377.333.523.528.147.195.236.325.269.39.033.066.056.123.071.173.015.05.031.125.05.226.018.1.002.247-.047.44a1.103 1.103 0 01-.293.512 2.12 2.12 0 01-.316.281c-.064.04-.125.071-.185.096a2.956 2.956 0 01-.438.145 8.12 8.12 0 01-.255.064c-.059.014-.119.024-.179.03a3.681 3.681 0 01-.373.011 1.828 1.828 0 01-.172-.012c-.055-.007-.208-.062-.459-.167-.25-.104-.433-.204-.547-.3a1.89 1.89 0 01-.224-.206 1.245 1.245 0 01-.136-.276.957.957 0 01-.063-.451.796.796 0 01.164-.423c.094-.122.269-.257.525-.406.256-.149.511-.26.765-.335.254-.075.513-.113.778-.116.264-.003.508.028.73.094.224.065.41.16.557.283a.962.962 0 01.303.422.886.886 0 01.012.519 1.388 1.388 0 01-.235.498 1.46 1.46 0 01-.331.332 1.803 1.803 0 01-.25.152 1.89 1.89 0 01-.233.08 5.21 5.21 0 01-.213.057.799.799 0 01-.13.018c-.048.003-.094.004-.14.003a3.108 3.108 0 01-.226-.02 2.656 2.656 0 01-.557-.116c-.051-.018-.179-.106-.382-.263a3.977 3.977 0 01-.367-.303.944.944 0 01-.093-.116c-.02-.032-.036-.144-.045-.337a.754.754 0 01.112-.474.98.98 0 01.35-.306c.149-.08.313-.141.493-.181.18-.04.379-.048.598-.024a1.786 1.786 0 011.046.48c.116.117.186.25.21.397a.64.64 0 01-.049.394.992.992 0 01-.136.227.687.687 0 01-.11.093.923.923 0 01-.134.074 1.856 1.856 0 01-.215.077c-.092.028-.168.05-.229.065a.861.861 0 01-.17.027 1.667 1.667 0 01-.303-.012 2.786 2.786 0 01-.328-.056 2.692 2.692 0 01-.395-.182c-.212-.11-.358-.216-.439-.319a.728.728 0 01-.15-.315.418.418 0 01.03-.275.56.56 0 01.11-.159c.034-.03.135-.078.303-.144a2.62 2.62 0 01.54-.148c.191-.031.39-.04.594-.023.204.016.375.054.512.112.138.06.235.13.291.213.057.083.071.178.043.285-.028.107-.111.211-.249.313-.138.101-.299.18-.483.236-.184.055-.38.084-.59.084-.209.001-.411-.02-.607-.06a2.066 2.066 0 01-.515-.177.995.995 0 01-.335-.26c-.077-.098-.101-.196-.073-.295.027-.1.108-.184.242-.251.133-.068.304-.124.512-.168.208-.044.418-.059.631-.044.214.016.416.056.608.123.192.066.35.149.473.249.124.1.208.206.251.32a.398.398 0 01-.03.348.702.702 0 01-.336.289c-.16.074-.338.122-.537.143-.199.021-.402.02-.609-.006a2.489 2.489 0 01-.552-.125 1.663 1.663 0 01-.403-.204.65.65 0 01-.225-.26.32.32 0 01.014-.29.715.715 0 01.297-.27 2.45 2.45 0 01.513-.208c.195-.057.382-.087.56-.09.177-.004.332.012.465.049a.548.548 0 01.279.151c.054.064.058.137.013.218-.045.082-.135.162-.27.241-.136.08-.295.145-.478.196a2.777 2.777 0 01-1.02.073 2.347 2.347 0 01-.302-.056.877.877 0 01-.183-.07.343.343 0 01-.104-.08.188.188 0 01-.04-.085c-.005-.03.056-.077.183-.14a1.75 1.75 0 01.464-.145 3.54 3.54 0 011.14-.016c.16.029.285.058.377.087.092.03.15.059.173.09.023.03-.008.068-.094.115a2.821 2.821 0 01-.882.258 1.857 1.857 0 01-.469.007.915.915 0 01-.27-.064c-.048-.025-.077-.049-.088-.07-.01-.022-.01-.045.005-.07.014-.026.044-.048.088-.068a2.71 2.71 0 01.58-.15c.11-.016.317-.033.622-.053.306-.019.55-.025.73-.02.181.006.305.022.372.046.066.024.081.058.045.101-.036.044-.135.095-.296.154a6.24 6.24 0 01-.51.16c-.18.05-.333.08-.46.096a1.11 1.11 0 01-.267.01c-.05-.008-.06-.025-.027-.052a.756.756 0 01.205-.091c.104-.035.222-.072.354-.11l.325-.098a.807.807 0 00.197-.087c.048-.031.042-.051-.018-.06a1.211 1.211 0 00-.296.013 12.786 12.786 0 00-.865.152 5.08 5.08 0 01-.225.046l-.05.007.01-.003.244-.065c.153-.04.285-.083.397-.129a.936.936 0 00.264-.153c.064-.057.094-.112.088-.168-.005-.055-.06-.09-.167-.103a1.354 1.354 0 00-.407.025c-.166.031-.331.068-.495.11a21.741 21.741 0 00-.707.188 46.85 46.85 0 00-.105.028h-.003.001l.085-.022a5.41 5.41 0 00.242-.072 2.686 2.686 0 00.709-.381c.093-.073.144-.129.15-.17.007-.04-.048-.056-.166-.048-.118.007-.256.03-.413.066-.158.037-.294.07-.408.1a3.5 3.5 0 00-.595.214c-.033.02-.036.039-.01.054.025.015.085.021.18.02.094-.003.193-.015.296-.038.104-.022.19-.05.258-.085a.394.394 0 00.129-.086c.018-.024.008-.039-.028-.046a.71.71 0 00-.221.028 2.805 2.805 0 00-.653.244c-.07.042-.119.076-.146.1a.286.286 0 00-.053.06c-.008.013-.007.026.002.037.009.011.044.015.106.01.063-.004.148-.022.256-.053.109-.032.214-.077.317-.138.104-.06.178-.115.224-.164.047-.05.066-.094.059-.134-.008-.04-.044-.074-.108-.103a.854.854 0 00-.232-.062 1.667 1.667 0 00-.482.003c-.053.01-.085.022-.098.035-.012.012.005.022.052.03.047.009.13 0 .25-.025a1.62 1.62 0 00.364-.126 2.751 2.751 0 00.644-.428c.073-.068.106-.123.1-.165-.006-.041-.065-.058-.176-.05a2.208 2.208 0 00-.358.06 6.436 6.436 0 00-.52.151c-.034.014-.044.028-.028.042.015.014.06.03.134.05.074.02.157.034.25.044a1.199 1.199 0 00.391-.015c.027-.006.036-.014.027-.022-.01-.01-.05-.016-.12-.02a1.539 1.539 0 00-.235.005 2.14 2.14 0 00-.373.065l-.032.01c-.004 0-.003.002.003.003l.044.01a1.067 1.067 0 00.274-.02c.039-.01.06-.019.066-.03.007-.015-.124-.042-.395-.082" fill="none" stroke="#007aff" stroke-width=".54617977" stroke-linecap="round" stroke-linejoin="round" stroke-miterlimit="10"/><path d="M62.982 43.048a1.238 1.238 0 00-.146-.015.254.254 0 00-.075.012c-.028.008-.04.022-.035.042.004.02.028.039.072.057a.72.72 0 00.17.041 2.636 2.636 0 00.487.018c.057-.004.09-.008.1-.01l.017-.005h-.003l-.06-.002c-.035 0-.123.003-.266.01a4.788 4.788 0 01-.244.01 1.324 1.324 0 01-.277-.113M55.272 45.213a2.707 2.707 0 00-.449-.368 4.77 4.77 0 00-.553-.317 3.543 3.543 0 00-.607-.23c-.21-.058-.415-.1-.618-.125a7.154 7.154 0 00-.453-.045 2.899 2.899 0 00-.258-.003c-.073.003-.185.02-.338.05a3.21 3.21 0 00-.747.266M51.136 44.263a1.042 1.042 0 01.085-.53c.028-.07.068-.143.12-.222.052-.078.12-.161.204-.249.084-.088.179-.176.284-.264.106-.089.24-.174.4-.255.161-.082.34-.152.538-.212.197-.06.393-.11.586-.147.282-.056.684-.088 1.206-.096M54.803 42.149a.441.441 0 00.138-.137c.048-.067.122-.162.223-.286.101-.123.177-.222.227-.297a1.953 1.953 0 00.19-.356 2.02 2.02 0 00.065-.186c.02-.067.04-.151.063-.254.022-.102.036-.204.043-.305.006-.1.01-.188.008-.264a1.393 1.393 0 00-.022-.222 3.287 3.287 0 00-.053-.236 1.674 1.674 0 00-.233-.517 6.98 6.98 0 00-.238-.332 9.57 9.57 0 00-.364-.446c-.144-.169-.3-.346-.466-.532-.242-.272-.56-.663-.953-1.173M59.632 40.078a.377.377 0 01-.217.118.923.923 0 01-.26-.035 2.918 2.918 0 01-.527-.17 4.513 4.513 0 01-1.125-.674 24.48 24.48 0 01-.433-.363c-.173-.147-.353-.3-.542-.456a13.225 13.225 0 01-.42-.361 3.432 3.432 0 01-.257-.26c-.079-.09-.176-.221-.29-.394a3.504 3.504 0 01-.294-.537 4.77 4.77 0 01-.215-.604 3.63 3.63 0 01-.122-.602c-.02-.185-.039-.375-.056-.57a7.23 7.23 0 00-.19-1.04M53.414 36.534a3.677 3.677 0 00-.44-.316 8.214 8.214 0 00-.479-.25 9.933 9.933 0 01-.784-.438c-.436-.269-.744-.4-.925-.394M50.946 34.897c.228-.06.44-.126.634-.196.131-.047.281-.093.45-.136a1.97 1.97 0 01.92-.023c.2.045.469.147.807.307M54.02 34.827c-.098.006-.214-.032-.347-.115a1.157 1.157 0 01-.198-.15 2.03 2.03 0 01-.186-.231 4.603 4.603 0 01-.254-.404c-.132-.232-.295-.595-.49-1.09M54.597 34.036a.464.464 0 00-.05-.17 2.875 2.875 0 00-.098-.188 3.022 3.022 0 00-.166-.249 1.972 1.972 0 00-.313-.328c-.194-.168-.61-.412-1.248-.732M59.95 40.067a2.895 2.895 0 01-.085-.475 3.64 3.64 0 01-.001-.389c.007-.167.025-.376.056-.628.03-.252.072-.476.125-.673.053-.197.124-.388.213-.573.128-.266.528-.787 1.202-1.563M64.896 37.313c-.02-.015-.1-.029-.242-.041a6.697 6.697 0 00-.318-.019 14.03 14.03 0 00-.979 0 4.424 4.424 0 00-1.653.361M61.615 37.717l.001.074h0v-.009l.013-.17.022-.37c.01-.204-.052-.652-.188-1.345M66.634 37.946c.069 0 .219.065.45.198.23.132.41.24.537.324.128.084.266.184.414.3.148.116.319.248.512.395a8.8 8.8 0 01.581.486c.195.177.368.365.52.565.153.2.285.412.398.638.112.225.21.468.296.729.085.26.162.552.23.874.098.466.07 1.282-.086 2.45M61.216 50.915c-.172.01-.334.026-.483.046-.15.02-.3.048-.45.085-.15.036-.323.098-.516.187-.193.088-.39.199-.593.332a13.25 13.25 0 00-.618.434c-.21.156-.406.306-.587.45a36.026 36.026 0 01-1.03.789c-.233.168-.571.382-1.015.64M55.543 51.999a.385.385 0 01.023.138c-.002.021-.031.049-.086.082-.055.033-.075.049-.062.047l.104-.018a.858.858 0 00.243-.106c.107-.062.228-.14.361-.236.134-.095.275-.207.424-.335a7.58 7.58 0 00.478-.454c.17-.174.326-.357.468-.55.143-.19.277-.383.405-.574.127-.192.227-.361.301-.509.107-.214.198-.556.273-1.026" fill="none" stroke="#007aff" stroke-width=".54617977" stroke-linecap="round" stroke-linejoin="round" stroke-miterlimit="10"/><path d="M58.344 48.434c.033.003.05-.01.048-.038a.156.156 0 00-.02-.065 1.024 1.024 0 00-.192-.171 7.794 7.794 0 00-.68-.488 11.507 11.507 0 01-.416-.284 5.99 5.99 0 01-.452-.358l-.47-.409a6.18 6.18 0 01-.436-.419 3.79 3.79 0 01-.361-.445 8.019 8.019 0 01-.517-.895M55.734 54.045a24.104 24.104 0 01-1.243.641c-.135.065-.288.13-.46.192a6.223 6.223 0 01-.959.277 3.381 3.381 0 01-.798.053M54.092 53.545a1.299 1.299 0 01-.172.102c-.033.016-.074.04-.122.07a3.562 3.562 0 00-.289.232c-.144.123-.273.23-.388.32-.115.089-.23.178-.347.266a1.917 1.917 0 00-.422.423M54.252 53.267a.175.175 0 01-.115.09.316.316 0 01-.123.005 1.695 1.695 0 01-.208-.05 3.345 3.345 0 01-.317-.11 1.706 1.706 0 01-.357-.199 1.77 1.77 0 01-.31-.28c-.13-.149-.248-.398-.355-.747M55.354 52.133c.017-.003.01-.02-.021-.053a.762.762 0 00-.124-.1 1.657 1.657 0 00-.188-.107 2.159 2.159 0 00-.64-.192 4.078 4.078 0 00-.43-.04c-.141-.007-.281-.009-.42-.007a7.647 7.647 0 00-.912.095M70.547 44.915c.003.07 0 .16-.005.265-.004.07-.005.24-.004.511s.002.492.001.66l.001.493a4.55 4.55 0 00.114.987c.038.171.082.348.132.531.05.183.115.375.193.574.078.199.173.402.287.61.113.207.305.482.576.824a1040.118 1040.118 0 00.911 1.154c.153.196.354.477.602.846M71.644 51.56a27.697 27.697 0 01-.038-.04c-.003-.002-.002 0 0 .007l.026.058a.464.464 0 00.092.12c.048.049.109.102.183.161a8.5 8.5 0 00.271.203c.106.077.215.157.326.24.166.126.343.232.53.32M71.417 51.57c.046.099.07.218.074.358a3.606 3.606 0 01-.02.53 2.622 2.622 0 01-.193.865c-.07.178-.152.357-.247.537-.137.262-.38.639-.729 1.132M70.257 52.165c.023.155.026.386.008.694-.012.195-.023.373-.036.532-.012.16-.027.328-.047.506a26.149 26.149 0 01-.206 1.464M70.286 51.973a1.746 1.746 0 00-.151-.286 4.901 4.901 0 00-.255-.379 14.964 14.964 0 00-.265-.346 2.967 2.967 0 00-.61-.584 4.012 4.012 0 00-.403-.258 2.61 2.61 0 00-.47-.207 5.328 5.328 0 00-.477-.134 3.23 3.23 0 00-.45-.07M66.84 49.862a3.44 3.44 0 01-.175.261c-.094.134-.182.254-.263.361a4.855 4.855 0 00-.188.262c-.043.067-.089.147-.136.24a3.38 3.38 0 00-.14.324 10.233 10.233 0 01-.378.855 34.23 34.23 0 00-.212.43 24.777 24.777 0 01-.432.85c-.068.126-.148.277-.24.453-.092.175-.19.342-.292.5-.15.23-.386.526-.707.886M62.799 54.35c.018.019.05.018.097-.002a.26.26 0 00.085-.056.643.643 0 00.086-.119c.033-.054.108-.193.226-.416.118-.223.215-.415.292-.577a4.06 4.06 0 00.336-1.09c.036-.21.054-.408.057-.598.003-.278-.067-.596-.212-.951M63.723 50.563a1.423 1.423 0 01-.34.03c-.107.001-.206.004-.297.008-.09.003-.29.02-.6.052-.308.031-.52.059-.633.082a4.866 4.866 0 00-.763.213 3.63 3.63 0 01-.435.131M63.512 55.403a.493.493 0 01-.001.255 1.262 1.262 0 01-.125.305c-.06.11-.12.209-.178.297a3.059 3.059 0 01-.202.27 7.302 7.302 0 01-.555.571M62.43 56.788a.086.086 0 01-.061-.044.644.644 0 01-.075-.31c0-.078.014-.171.046-.28.047-.157.175-.39.384-.698M62.756 55.26a.4.4 0 01-.103.093.66.66 0 01-.112.051c-.049.018-.1.035-.154.05a2.08 2.08 0 01-.548.058 2.433 2.433 0 01-.658-.134" fill="none" stroke="#007aff" stroke-width=".54617977" stroke-linecap="round" stroke-linejoin="round" stroke-miterlimit="10"/><path d="M61.015 54.994c.061.028.113.04.155.035a3.501 3.501 0 00.587-.167c.122-.045.25-.105.381-.179.132-.073.273-.16.422-.257.223-.146.426-.332.61-.559M80.985 5.562a.262.262 0 01-.09-.06.864.864 0 01-.096-.111 4.436 4.436 0 01-.184-.292l-.21-.35a11.287 11.287 0 01-.157-.264 5.631 5.631 0 01-.3-.612 16.24 16.24 0 01-.243-.682 15.702 15.702 0 01-.223-.688 31.709 31.709 0 01-.228-.877 12.81 12.81 0 00-.369-1.138M79.203.292l-.006-.02.01.009.046.05c.026.028.063.075.112.143a13.399 13.399 0 01.554.842c.06.097.113.195.161.291.048.097.105.227.172.389a142.244 142.244 0 00.273.668 16.39 16.39 0 00.248.554c.025.05.066.125.123.221.056.097.1.168.133.215a3.026 3.026 0 00.363.43c.05.045.103.092.16.137.056.046.113.085.172.118a.613.613 0 00.297.076M85.203 2.432a.967.967 0 00-.214.065 3.015 3.015 0 00-.185.108l-.179.109a.56.56 0 00-.182.164 3.044 3.044 0 01-.125.137 1.162 1.162 0 01-.105.094c-.037.03-.092.08-.166.153a9.004 9.004 0 00-.161.161 1.513 1.513 0 01-.238.204c-.064.045-.121.082-.172.111a5.181 5.181 0 01-.355.186 7.833 7.833 0 01-.5.217c-.054.02-.113.039-.176.056a1.877 1.877 0 01-.451.036M85.27 2.818a.653.653 0 01-.022.199c-.018.07-.034.122-.048.158a1.167 1.167 0 01-.053.115 1.833 1.833 0 01-.169.272 3.562 3.562 0 01-.6.615 4.406 4.406 0 01-.237.175c-.104.073-.21.152-.32.238a9.677 9.677 0 01-.255.196 2.838 2.838 0 00-.36.31 7.857 7.857 0 00-.576.656 7.966 7.966 0 00-.339.482" fill="none" stroke="#007aff" stroke-width=".54617977" stroke-linecap="round" stroke-linejoin="round" stroke-miterlimit="10"/><path d="M49.768 55.288l.17.466M52.207 54.786l.073.773M46.026 61.06c.065.04.13.04.195.002.064-.038.162-.13.294-.274M46.475 62.865c.156.067.275.11.355.13.08.019.172.088.275.206" fill="none" stroke="#f59a23" stroke-width=".7556335299999999" stroke-linecap="round" stroke-linejoin="round" stroke-miterlimit="10"/></svg>