<svg xmlns="http://www.w3.org/2000/svg" width="217.898" height="81.722"><path d="M51.502 1.932a.971.971 0 00-.066-.323.648.648 0 00-.175-.223 1.948 1.948 0 00-.336-.237 5.402 5.402 0 00-.44-.226 2.946 2.946 0 00-1.144-.26 2.31 2.31 0 00-.757.12 6.98 6.98 0 00-.903.359c-.322.152-.654.322-.997.51-.342.189-.687.403-1.034.644-.347.24-.687.502-1.02.783a19.37 19.37 0 00-.997.91c-.333.326-.646.668-.941 1.027-.295.36-.558.745-.79 1.156-.23.411-.43.83-.597 1.256a6.16 6.16 0 00-.354 1.31 7.931 7.931 0 00-.079 1.453c.016.521.103 1.053.26 1.594.158.542.38 1.14.668 1.795.287.655.63 1.289 1.027 1.903.397.613.823 1.205 1.277 1.776.454.57.926 1.08 1.416 1.529.49.449.997.823 1.522 1.122.526.299 1.07.527 1.63.684.562.158 1.018.248 1.369.273.35.024.933-.044 1.747-.203.814-.16 1.51-.388 2.088-.684a8.722 8.722 0 001.649-1.106c.521-.44 1.016-.953 1.486-1.536.47-.583.896-1.153 1.28-1.71a10.46 10.46 0 00.999-1.83c.283-.663.493-1.312.632-1.946.14-.634.216-1.288.23-1.962a8.639 8.639 0 00-.217-2.071 10.55 10.55 0 00-.62-1.93 7.472 7.472 0 00-.937-1.588 10.835 10.835 0 00-1.22-1.329 7.576 7.576 0 00-1.39-1.024 11.39 11.39 0 00-1.47-.705 7.513 7.513 0 00-1.492-.418 6.411 6.411 0 00-1.447-.086c-.685.04-1.47.245-2.354.616M50.823 33.844c.046-.08.019-.268-.08-.565a2.134 2.134 0 00-.187-.43c-.062-.1-.14-.203-.235-.308a3.126 3.126 0 00-.346-.325 8.899 8.899 0 00-.447-.34 2.285 2.285 0 00-2.108-.308c-.304.1-.62.259-.947.477a9.72 9.72 0 00-.869.646c-.25.211-.574.515-.968.912-.395.396-.74.807-1.038 1.231a11.876 11.876 0 00-1.39 2.64 5.98 5.98 0 00-.32 1.33c-.057.467-.084.93-.08 1.391.003.461.054.942.153 1.442.098.5.238.995.417 1.486.18.49.426.956.737 1.397.312.44.682.85 1.111 1.23.43.38.894.715 1.394 1.005.499.29 1.042.536 1.627.742.586.205 1.16.383 1.72.534.562.15 1.148.258 1.759.322.61.064 1.222.07 1.835.018a9.117 9.117 0 001.793-.336 8.746 8.746 0 001.659-.674 7.83 7.83 0 001.492-1.042 9.45 9.45 0 001.25-1.328c.36-.47.682-1.031.963-1.685.281-.654.506-1.312.674-1.975.168-.662.272-1.317.312-1.965a6.717 6.717 0 00-.126-1.831 9.286 9.286 0 00-.61-1.813 9.375 9.375 0 00-1.005-1.743 13.03 13.03 0 00-1.314-1.52 5.495 5.495 0 00-1.625-1.132 5.425 5.425 0 00-1.9-.466 9.888 9.888 0 00-2.032.081c-.68.098-1.35.239-2.01.424-.659.186-1.284.415-1.874.689-.591.273-1.125.546-1.602.818-.478.272-.835.497-1.071.674-.378.282-.605.508-.684.677M54.023 61.636c-.034-.074-.114-.158-.242-.253a1.18 1.18 0 00-.32-.158 2.08 2.08 0 00-.482-.094c-.189-.017-.399-.022-.63-.014-.231.008-.48.045-.75.111-.267.066-.563.15-.887.25-.323.102-.661.216-1.014.344a12.15 12.15 0 00-1.047.436 9.861 9.861 0 00-1.72 1.029c-.238.177-.41.31-.52.4-.108.09-.308.274-.6.554-.293.28-.586.595-.88.945-.293.35-.624.805-.992 1.367a28.46 28.46 0 00-1.018 1.67 8.228 8.228 0 00-.728 1.725 7.687 7.687 0 00-.308 1.748 6.22 6.22 0 00.16 1.741c.136.592.359 1.175.667 1.75.308.575.671 1.158 1.09 1.747.42.59.863 1.11 1.332 1.56.47.45.986.847 1.548 1.19a9.74 9.74 0 001.756.843c.608.22 1.223.367 1.845.441a13.2 13.2 0 001.893.089 8.465 8.465 0 001.928-.275c.645-.168 1.059-.286 1.24-.355.183-.07.351-.144.506-.223.155-.079.603-.396 1.343-.952.74-.556 1.198-.934 1.373-1.133.174-.2.315-.382.42-.55.106-.166.244-.408.415-.725.17-.317.396-.782.678-1.394.281-.612.503-1.167.665-1.666.162-.499.269-.848.32-1.049.053-.2.126-.609.219-1.226.092-.617.149-1.271.168-1.962.02-.692-.039-1.433-.174-2.223a9.176 9.176 0 00-.732-2.328 10.83 10.83 0 00-1.302-2.127c-.515-.657-1.07-1.157-1.667-1.5-.596-.343-1.175-.555-1.738-.634a6.164 6.164 0 00-1.598-.03c-.504.06-.978.149-1.424.266-.66.174-1.4.384-2.222.63M112.177 17.429c-.337-.35-.569-.572-.696-.666a2.557 2.557 0 00-.283-.181c-.1-.056-.22-.109-.361-.16a2.56 2.56 0 00-.516-.119 5.286 5.286 0 00-.727-.041c-.282 0-.593.04-.934.119-.34.078-.679.183-1.013.315a8.448 8.448 0 00-1.027.491c-.35.196-.72.45-1.107.76-.388.31-.759.668-1.114 1.074-.354.406-.68.8-.977 1.184a8.067 8.067 0 00-.798 1.264c-.236.46-.43.937-.58 1.434-.15.496-.254.973-.311 1.43a9.028 9.028 0 00-.061 1.426c.016.492.08.917.189 1.273.109.357.197.612.264.765.067.153.23.466.488.937.258.472.562.954.914 1.445.352.49.762.97 1.232 1.437.47.467.96.896 1.474 1.289a8.951 8.951 0 001.65 1c.588.275 1.203.496 1.845.663a12.52 12.52 0 001.893.346c.62.063 1.221.07 1.805.02a5.598 5.598 0 001.649-.39c.516-.21.992-.51 1.428-.9a7.73 7.73 0 001.18-1.334c.351-.5.663-1.022.936-1.568a10.38 10.38 0 00.671-1.698c.174-.587.298-1.18.37-1.781.073-.6.097-1.208.072-1.823a6.881 6.881 0 00-.32-1.813 12.617 12.617 0 00-.708-1.752 13.651 13.651 0 00-2.067-3.07 5.78 5.78 0 00-1.251-1.069 5.872 5.872 0 00-1.432-.64 7.518 7.518 0 00-3.252-.205c-.535.083-1.055.207-1.559.369a7.957 7.957 0 00-2.129 1.06M111.77 48.938a10.12 10.12 0 00-1.1-.695 2.783 2.783 0 00-.659-.27 3.579 3.579 0 00-.678-.087 3.232 3.232 0 00-.851.09c-.31.07-.62.179-.931.326a5.856 5.856 0 00-.945.572c-.319.233-.648.539-.986.918-.339.379-.66.806-.966 1.282-.305.475-.587.957-.845 1.445-.26.488-.478.994-.657 1.52a9.922 9.922 0 00-.388 1.474c-.08.457-.11.948-.089 1.474.021.525.117 1.049.285 1.572.17.523.386 1.055.65 1.597.265.541.583 1.064.956 1.569.374.504.8.96 1.281 1.365.48.406.979.762 1.493 1.067.515.305 1.07.552 1.668.739.597.187 1.214.321 1.85.401a15.4 15.4 0 001.889.124 7.49 7.49 0 001.794-.208 6.15 6.15 0 001.61-.637 5.71 5.71 0 001.32-1.034 6.859 6.859 0 001.008-1.386c.29-.52.549-1.077.777-1.671.228-.594.417-1.19.567-1.787a10.925 10.925 0 00.273-3.646 5.366 5.366 0 00-.399-1.622 4.757 4.757 0 00-.823-1.297c-.341-.381-.74-.75-1.199-1.109a14.19 14.19 0 00-1.534-1.036c-.565-.333-1.16-.64-1.784-.921a12.024 12.024 0 00-1.847-.666c-.608-.162-1.15-.243-1.63-.243-.478 0-.921.077-1.328.231-.601.227-1.24.588-1.915 1.08M172.163 31.863c-.044-.074-.141-.145-.291-.214a3.2 3.2 0 00-.403-.157 3.244 3.244 0 00-.422-.092 5.732 5.732 0 00-.586-.058 5.079 5.079 0 00-.768.023c-.283.029-.584.101-.903.218a6.81 6.81 0 00-1.016.482c-.359.204-.735.45-1.13.738-.395.288-.77.59-1.126.906-.357.315-.717.65-1.083 1a10.48 10.48 0 00-1.043 1.173c-.33.43-.616.857-.858 1.283-.242.425-.457.853-.644 1.284-.187.43-.342.9-.465 1.406a9.081 9.081 0 00-.238 1.462c-.036.468-.024.967.035 1.497a5.52 5.52 0 00.404 1.545c.211.5.481.984.81 1.452.328.468.711.93 1.148 1.384a9.56 9.56 0 001.427 1.22c.514.359 1.063.69 1.646.993.583.303 1.188.578 1.814.824a9.92 9.92 0 001.958.543 9.965 9.965 0 001.963.148 5.663 5.663 0 001.833-.358 6.771 6.771 0 001.671-.912c.523-.388.965-.766 1.327-1.134.362-.369.612-.643.75-.824.137-.18.38-.553.726-1.12.346-.566.682-1.18 1.007-1.84.325-.66.602-1.329.83-2.005.23-.676.394-1.38.494-2.114.1-.733.143-1.443.127-2.13a7.379 7.379 0 00-.315-1.986 6.035 6.035 0 00-.81-1.701 7.251 7.251 0 00-1.246-1.37 6.332 6.332 0 00-1.622-1.008 7.782 7.782 0 00-1.954-.542 13.102 13.102 0 00-4.488.124c-.773.155-1.486.314-2.138.476-.976.242-1.97.347-2.982.314" fill="none" stroke="#007aff" stroke-width="1.32290413" stroke-linecap="round" stroke-linejoin="round" stroke-miterlimit="10"/><path d="M125.149 25.714c-.05-.11.028-.161.231-.156.203.006.604.048 1.203.126.6.078 1.413.195 2.44.35 1.028.156 1.927.289 2.698.398.77.11 1.597.244 2.478.404.881.16 1.825.364 2.831.612 1.007.247 2.032.552 3.077.913 1.045.362 2.094.74 3.147 1.134 1.054.394 2.136.797 3.246 1.208 1.11.41 2.235.877 3.373 1.4 1.139.521 2.15 1.04 3.034 1.556.883.515 1.663.984 2.337 1.407a19.96 19.96 0 012.942 2.273M125.561 55.027c-.045.123-.018.24.081.35a.82.82 0 00.333.196c.154.056.376.11.666.165.29.054.653.103 1.09.148.435.045.941.07 1.518.074.577.005 1.176-.032 1.798-.11.622-.079 1.929-.343 3.92-.792 1.992-.449 3.332-.753 4.019-.912a41.545 41.545 0 002.058-.531c.685-.196 1.368-.395 2.048-.598a101.306 101.306 0 004.14-1.33c.728-.249 1.463-.53 2.205-.843a174.73 174.73 0 002.252-.97 21.59 21.59 0 002.205-1.12c.71-.414 1.357-.832 1.94-1.253a25.844 25.844 0 002.661-2.237" fill="none" stroke="#7ec636" stroke-width="1.32290413" stroke-linecap="round" stroke-linejoin="round" stroke-miterlimit="10"/><path d="M185.252 41.37c.23-.12.457-.206.68-.255.151-.032.38-.064.689-.093.308-.03.78-.063 1.414-.101a95.51 95.51 0 014.872-.157c.949-.006 1.982-.015 3.1-.025 1.119-.01 2.366-.029 3.74-.056 1.376-.027 2.816-.044 4.322-.05 1.505-.007 3.05-.002 4.635.014 2.333.024 5.178.354 8.533.989M.713 11.242c-.088-.153-.06-.257.088-.31.106-.038.445-.095 1.018-.172.573-.077 1.081-.147 1.524-.208.443-.06.931-.119 1.466-.173.534-.055 1.143-.113 1.827-.175.683-.062 1.382-.118 2.097-.168.715-.05 1.87-.135 3.467-.255s2.87-.202 3.823-.248a85.636 85.636 0 012.737-.089c.872-.014 1.71-.021 2.516-.023.804-.001 1.6.01 2.384.032a106.9 106.9 0 012.29.088c1.082.054 2.686.299 4.812.733M3.196 41.65c-.124-.113-.168-.244-.132-.392.024-.102.16-.164.408-.184a68.135 68.135 0 012.065-.14 97.17 97.17 0 013.995-.134c.81-.011 1.661-.017 2.551-.018.89-.002 1.864-.004 2.92-.009 1.055-.005 2.693-.007 4.912-.008 2.22 0 3.88-.007 4.982-.02 1.102-.013 2.13-.023 3.084-.028 1.398-.007 3.226.293 5.484.901M5.57 73.109c.143.014.321.008.534-.02.139-.017.84-.06 2.103-.127 1.264-.067 2.274-.115 3.03-.144a77.24 77.24 0 002.435-.132c.866-.06 1.762-.12 2.689-.178a66.745 66.745 0 013.03-.116c1.093-.019 2.22-.03 3.378-.031a68.09 68.09 0 013.38.075c1.095.053 2.108.145 3.04.277 1.385.195 2.879.532 4.483 1.01" fill="none" stroke="#90d300" stroke-width="1.32290413" stroke-linecap="round" stroke-linejoin="round" stroke-miterlimit="10"/><path d="M95.912 26.404c-.173.38-.83 1.524-1.972 3.435a78.735 78.735 0 00-1.657 2.892c-.448.829-.952 1.724-1.512 2.687a42.266 42.266 0 01-1.85 2.893 82.55 82.55 0 00-2.059 3.109 123.44 123.44 0 00-1.918 3.133c-.58.982-1.458 2.44-2.634 4.378-1.176 1.936-2.118 3.42-2.828 4.45-.71 1.03-1.42 2.105-2.132 3.225a119.755 119.755 0 00-2.086 3.408c-.988 1.676-2.766 4.112-5.333 7.307M95.086 26.26c-.71-.017-1.433.167-2.169.551s-1.48.754-2.234 1.11c-.753.356-1.73.775-2.928 1.258a74.779 74.779 0 00-3.737 1.628 91.71 91.71 0 00-4.074 2.035c-1.424.754-2.87 1.542-4.339 2.366-1.47.825-2.87 1.605-4.205 2.342-1.98 1.095-4 2.526-6.057 4.295M96.526 24.926c-.28-.01-.642-.115-1.086-.315-.445-.2-1.345-.561-2.702-1.084a151.145 151.145 0 01-3.784-1.513 150.751 150.751 0 01-3.741-1.623 467.24 467.24 0 01-3.995-1.816 138.318 138.318 0 00-3.776-1.674 100.924 100.924 0 01-4.43-2.04c-1.771-.86-3.412-1.542-4.92-2.048" fill="none" stroke="#ff00a2" stroke-width="1.32290413" stroke-linecap="round" stroke-linejoin="round" stroke-miterlimit="10"/><path d="M94.42 56.218c-.257.193-.856.535-1.797 1.027-.94.492-1.747.897-2.42 1.216-.673.318-1.52.705-2.543 1.16-1.022.456-2.12.93-3.295 1.424-1.175.493-2.353.98-3.534 1.46-1.181.482-2.317.985-3.406 1.511-1.614.78-3.381 1.772-5.303 2.978M66.952 40.313c.156.275.794.67 1.913 1.184 1.12.514 2.358 1.071 3.716 1.672 1.359.6 2.9 1.25 4.624 1.95 1.724.7 3.435 1.421 5.134 2.162 1.7.741 3.123 1.38 4.27 1.917 1.673.782 4.235 1.93 7.686 3.445" fill="none" stroke="#fcfcfc" stroke-width="1.32290413" stroke-linecap="round" stroke-linejoin="round" stroke-miterlimit="10"/><path d="M69.27 13.926c.518.907 1.19 2.03 2.016 3.368a43.707 43.707 0 001.926 2.831c.747 1.02 1.555 2.14 2.425 3.359.87 1.22 1.794 2.569 2.775 4.048a73.678 73.678 0 013.04 5.065 3054.06 3054.06 0 003.289 5.94 410.252 410.252 0 003.438 6.075c1.687 2.921 4.083 6.42 7.188 10.496" fill="none" stroke="#fcfcfc" stroke-width="1.32290413" stroke-linecap="round" stroke-linejoin="round" stroke-miterlimit="10"/></svg>