<svg xmlns="http://www.w3.org/2000/svg" width="150.068" height="65.463"><path d="M48.237 2.587c.068-.287.091-.478.069-.573-.016-.066-.092-.143-.228-.232a1.779 1.779 0 00-.576-.218 6.444 6.444 0 00-.933-.124 15.319 15.319 0 00-1.302-.029 8.43 8.43 0 00-1.604.193 24.84 24.84 0 00-1.737.433 8.97 8.97 0 00-1.587.613c-.475.24-.905.578-1.291 1.013-.386.435-.728 1.054-1.026 1.857-.298.804-.491 1.758-.578 2.863-.088 1.105-.03 2.298.175 3.579.205 1.28.57 2.5 1.095 3.659.525 1.158 1.175 2.162 1.95 3.012.776.85 1.63 1.46 2.56 1.83.932.372 1.92.588 2.965.651a8.986 8.986 0 003.083-.348 6.99 6.99 0 002.65-1.424 7.31 7.31 0 001.793-2.32c.44-.893.726-1.88.858-2.963a11.34 11.34 0 00-.023-3.082c-.147-.971-.491-1.988-1.031-3.048a17.513 17.513 0 00-1.938-2.998 68.2 68.2 0 00-2.09-2.5c-.642-.727-1.196-1.24-1.66-1.536-.664-.424-1.33-.277-1.998.44M48.845 48.032a2.36 2.36 0 00-.578-.338 9.489 9.489 0 00-.653-.241 6.913 6.913 0 00-.978-.244 8.739 8.739 0 00-1.223-.126 4.83 4.83 0 00-1.401.167 5.72 5.72 0 00-1.49.64c-.5.3-.987.694-1.458 1.181-.472.488-.906 1.099-1.302 1.834a10.24 10.24 0 00-.919 2.415 9.142 9.142 0 00-.262 2.63c.04.879.237 1.75.589 2.613a9.738 9.738 0 001.501 2.486 13.889 13.889 0 002.117 2.098c.762.605 1.52 1.039 2.272 1.301a6.34 6.34 0 002.35.348 4.8 4.8 0 002.263-.651c.695-.404 1.284-.987 1.765-1.751.48-.764.873-1.672 1.176-2.726.303-1.054.498-2.095.586-3.122a10.001 10.001 0 00-.16-2.927 6.744 6.744 0 00-1.047-2.477c-.503-.727-1.037-1.301-1.602-1.722-.565-.421-1.087-.72-1.565-.897-.478-.178-.881-.286-1.21-.325-.475-.055-.768.084-.882.418" fill="none" stroke="#007aff" stroke-width="1.32290413" stroke-linecap="round" stroke-linejoin="round" stroke-miterlimit="10"/><path d="M57.95 11.17c-.028-.166-.003-.258.076-.274a1.34 1.34 0 01.303-.005c.145.008.499.078 1.062.21.562.131 1.039.24 1.43.325.391.086.815.172 1.272.26.457.088.953.186 1.488.294a20.99 20.99 0 011.673.413c.58.168 1.193.367 1.84.598.646.231 1.33.48 2.054.747l2.21.814c.752.275 1.522.6 2.311.975.79.375 1.6.77 2.43 1.183.832.414 1.66.876 2.487 1.386.826.51 1.651 1.038 2.475 1.586.823.548 1.619 1.112 2.386 1.693a34.25 34.25 0 012.08 1.696c.92.817 1.919 1.756 2.997 2.82M56.779 54.682c.038.053.136.079.293.077.157-.002.341-.027.551-.076.21-.048.43-.093.658-.134.228-.041.603-.093 1.124-.155l1.416-.167c.422-.05.862-.104 1.32-.162.457-.059 1-.137 1.627-.234a65.717 65.717 0 001.459-.24 64.349 64.349 0 002.085-.415c.27-.06.598-.143.984-.246a35.26 35.26 0 001.292-.375c.475-.147.912-.287 1.313-.42.4-.133 1.154-.419 2.261-.857 1.108-.439 1.927-.783 2.459-1.034.531-.25 1.068-.521 1.611-.812.543-.29 1.08-.566 1.613-.827.532-.26 1.053-.52 1.562-.777.508-.258 1.021-.54 1.538-.845a48.274 48.274 0 001.522-.939c.497-.32.987-.675 1.47-1.067.482-.392.976-.826 1.482-1.305.833-.786 1.386-1.305 1.658-1.556" fill="none" stroke="#7ec636" stroke-width="1.32290413" stroke-linecap="round" stroke-linejoin="round" stroke-miterlimit="10"/><path d="M104.519 25.695a1.675 1.675 0 00-.52-.397c-.13-.062-.318-.098-.565-.109a4.83 4.83 0 00-.924.07 6.56 6.56 0 00-1.218.328c-.443.161-.922.355-1.436.58a16.65 16.65 0 00-1.595.812 6.881 6.881 0 00-1.548 1.231 9.342 9.342 0 00-1.324 1.802c-.401.696-.72 1.458-.956 2.286a9.373 9.373 0 00-.372 2.441 5.25 5.25 0 00.47 2.275 8.048 8.048 0 001.356 2.043 7.94 7.94 0 001.92 1.581 6.69 6.69 0 002.235.819 6.662 6.662 0 002.45-.045 6.425 6.425 0 002.38-1.004 7.557 7.557 0 001.935-1.917 11.67 11.67 0 001.295-2.322 7.557 7.557 0 00.557-2.306c.056-.764-.045-1.556-.303-2.374-.257-.819-.653-1.653-1.186-2.501-.533-.849-1.006-1.483-1.42-1.903-.415-.42-.9-.76-1.457-1.02-.828-.386-1.567-.437-2.217-.153" fill="none" stroke="#007aff" stroke-width="1.32290413" stroke-linecap="round" stroke-linejoin="round" stroke-miterlimit="10"/><path d="M1.002 10.688c-.105-.035-.16-.076-.166-.123-.004-.034.165-.094.508-.182.342-.088.704-.17 1.087-.242.382-.073.813-.14 1.292-.202a27.078 27.078 0 011.567-.152c.567-.04 1.501-.087 2.804-.142 1.303-.055 2.314-.095 3.034-.12.72-.027 1.47-.048 2.25-.064.781-.017 1.57-.029 2.365-.037.797-.009 1.998-.013 3.604-.014 1.607 0 2.815.007 3.623.024.809.017 1.635.033 2.478.048a76.39 76.39 0 012.505.087c.827.042 1.55.12 2.171.232.926.167 1.857.463 2.792.886M.661 55.664a4.39 4.39 0 01.904-.085 79.111 79.111 0 002.098-.052l1.49-.054a215.727 215.727 0 013.489-.092c.61-.012 2.288-.018 5.033-.02a801.92 801.92 0 015.31.008 162.376 162.376 0 014.933.122c.81.033 1.583.063 2.322.09.738.027 1.437.059 2.098.096.969.054 2.2.262 3.694.625M117.271 33.858l-.14-.038a.538.538 0 01.122-.016l.894-.088c.507-.05.963-.094 1.366-.135.403-.04.877-.091 1.422-.153.545-.061 1.148-.127 1.81-.198a75.51 75.51 0 012.168-.198c.784-.06 1.624-.108 2.518-.14.895-.034 1.81-.059 2.747-.076a470.48 470.48 0 012.883-.043c.984-.012 2.007-.022 3.068-.03 1.06-.007 2.101-.014 3.121-.018 1.02-.004 2.028-.01 3.02-.017.994-.007 1.932-.01 2.814-.012 1.306 0 2.747.2 4.323.602" fill="none" stroke="#7ec636" stroke-width="1.32290413" stroke-linecap="round" stroke-linejoin="round" stroke-miterlimit="10"/></svg>