<svg xmlns="http://www.w3.org/2000/svg" width="98.259" height="45.2"><path d="M1.833.95C1.804.784 1.83.693 1.91.676c.056-.012.157-.014.302-.005.146.008.5.078 1.062.21.563.131 1.04.24 1.43.325.392.086.816.172 1.273.26.456.088.952.186 1.488.294.535.108 1.093.246 1.673.413.58.168 1.192.367 1.839.598.647.231 1.331.48 2.055.747l2.21.814c.751.275 1.521.6 2.31.975.79.375 1.6.77 2.431 1.183.831.414 1.66.876 2.486 1.386.827.51 1.652 1.038 2.475 1.586.824.548 1.62 1.112 2.387 1.693.767.58 1.461 1.146 2.08 1.696a80.1 80.1 0 012.997 2.82M.661 44.462c.039.053.137.079.294.077.157-.002.34-.027.55-.076.21-.048.43-.093.658-.134.229-.041.604-.093 1.125-.155l1.416-.167c.422-.05.862-.104 1.32-.162.457-.059 1-.137 1.627-.234a65.367 65.367 0 001.458-.24 64.379 64.379 0 002.085-.415c.27-.06.599-.143.985-.246a35.25 35.25 0 001.291-.375c.475-.147.913-.287 1.313-.42.4-.133 1.154-.419 2.262-.857 1.107-.439 1.927-.783 2.458-1.034.532-.25 1.069-.521 1.612-.812.543-.29 1.08-.566 1.613-.827.532-.26 1.052-.52 1.561-.777.509-.258 1.022-.54 1.539-.845a48.14 48.14 0 001.521-.939c.498-.32.988-.675 1.47-1.067.482-.392.976-.826 1.483-1.305.833-.786 1.385-1.305 1.657-1.556" fill="none" stroke="#7ec636" stroke-width="1.32290413" stroke-linecap="round" stroke-linejoin="round" stroke-miterlimit="10"/><path d="M48.401 15.475a1.677 1.677 0 00-.52-.397c-.129-.062-.317-.098-.565-.109a4.837 4.837 0 00-.924.07 6.566 6.566 0 00-1.217.328c-.443.161-.922.355-1.436.58-.514.226-1.046.497-1.596.812a6.881 6.881 0 00-1.548 1.231 9.345 9.345 0 00-1.324 1.802c-.4.696-.719 1.458-.955 2.286a9.376 9.376 0 00-.373 2.441 5.25 5.25 0 00.47 2.275 8.05 8.05 0 001.356 2.043 7.936 7.936 0 001.921 1.581 6.692 6.692 0 002.235.819 6.66 6.66 0 002.45-.045 6.425 6.425 0 002.38-1.004 7.557 7.557 0 001.935-1.917 11.67 11.67 0 001.294-2.322 7.552 7.552 0 00.557-2.306c.057-.764-.044-1.556-.302-2.374-.258-.819-.653-1.653-1.186-2.501-.533-.849-1.007-1.483-1.421-1.903-.415-.42-.9-.76-1.457-1.02-.828-.386-1.567-.437-2.216-.153" fill="none" stroke="#007aff" stroke-width="1.32290413" stroke-linecap="round" stroke-linejoin="round" stroke-miterlimit="10"/><path d="M61.154 23.638l-.14-.038a.54.54 0 01.121-.016 3872.691 3872.691 0 002.26-.223c.404-.04.878-.091 1.423-.153a308.21 308.21 0 011.809-.198c.661-.071 1.384-.137 2.169-.198.784-.06 1.623-.108 2.518-.14.894-.034 1.81-.059 2.747-.076a643.44 643.44 0 015.95-.073c1.061-.007 2.102-.014 3.122-.018 1.02-.004 2.027-.01 3.02-.017.994-.007 1.931-.01 2.813-.012 1.307 0 2.748.2 4.323.602M27.623 17.72c.42-.002.753.016 1.002.052.17.024.406.069.71.133.303.065.636.147.998.247.363.1.712.2 1.048.3.337.1.647.173.93.22a13.024 13.024 0 001.62.176c.32.018.545.033.675.045.131.012.214-.049.25-.181.034-.133.055-.32.06-.56.005-.24.006-.537.003-.892a97.161 97.161 0 00-.015-1.116c-.008-.388-.01-.809-.008-1.262.002-.453.032-.896.087-1.329.056-.432.113-.79.17-1.076.087-.429.157-.859.21-1.29M27.148 30.13l-.067-.019c-.008-.002.038-.02.137-.054l.52-.18c.249-.085.512-.164.79-.236.279-.072.61-.143.993-.213a20.683 20.683 0 012.16-.272c.268-.015.701-.024 1.3-.026.599-.001.979.01 1.14.035.162.024.317.06.464.107.147.047.292.104.434.17.143.068.273.15.392.247.118.097.21.205.273.325.064.12.094.26.09.417-.005.157-.084.367-.24.632-.156.264-.372.606-.647 1.027-.275.42-.561.852-.858 1.295-.431.642-1.057 1.738-1.877 3.287" fill="none" stroke="#7ec636" stroke-width="1.32290413" stroke-linecap="round" stroke-linejoin="round" stroke-miterlimit="10"/><path d="M91.486 17.423c.011.121.12.284.328.488.133.13.304.282.514.454.21.173.445.352.705.538.26.186.688.471 1.286.854.598.383 1.037.667 1.316.853.28.185.534.361.762.529.228.167.405.318.531.452.127.134.217.252.27.356.055.103.109.224.162.364.054.14.104.259.151.355a.888.888 0 01.085.32c.009.116-.01.22-.058.31s-.121.2-.22.33c-.098.13-.247.281-.448.453-.2.172-.46.368-.78.59-.32.22-.692.463-1.115.727-.423.265-.883.52-1.38.768-.499.247-.979.46-1.44.636-.704.27-1.313.53-1.827.78" fill="none" stroke="#7ec636" stroke-width="1.32290413" stroke-linecap="round" stroke-linejoin="round" stroke-miterlimit="10"/></svg>