<svg xmlns="http://www.w3.org/2000/svg" width="93.951" height="45.201"><path d="M1.833.95C1.804.784 1.83.693 1.91.676A1.34 1.34 0 012.21.67c.146.008.5.079 1.062.21.563.132 1.04.24 1.43.325.392.086.816.172 1.273.26.456.088.952.186 1.488.294.535.108 1.093.246 1.673.413.58.168 1.192.367 1.839.598.647.232 1.332.48 2.055.747l2.21.814c.751.276 1.521.6 2.31.976.79.374 1.6.769 2.431 1.183.831.413 1.66.875 2.487 1.385.826.51 1.65 1.038 2.474 1.586a48.29 48.29 0 012.387 1.693 34.25 34.25 0 012.08 1.696c.92.817 1.918 1.756 2.997 2.82M.661 44.462c.04.053.137.079.294.077.157-.001.34-.027.55-.076.21-.048.43-.093.658-.134a21.49 21.49 0 011.125-.155l1.416-.167c.422-.05.862-.104 1.32-.162.457-.059 1-.137 1.627-.234a65.78 65.78 0 001.458-.24 64.11 64.11 0 002.085-.415c.27-.06.599-.143.985-.246a35.29 35.29 0 001.291-.375c.475-.147.913-.287 1.313-.42.4-.133 1.154-.419 2.262-.857 1.107-.439 1.927-.783 2.458-1.034.532-.25 1.069-.521 1.612-.812.543-.29 1.08-.566 1.613-.827.532-.26 1.052-.52 1.561-.777.509-.258 1.022-.54 1.539-.845a48.191 48.191 0 001.521-.939c.498-.32.988-.675 1.47-1.067.482-.392.976-.826 1.483-1.305a246.74 246.74 0 011.657-1.556" fill="none" stroke="#7ec636" stroke-width="1.32290413" stroke-linecap="round" stroke-linejoin="round" stroke-miterlimit="10"/><path d="M48.401 15.475a1.675 1.675 0 00-.52-.397c-.129-.062-.317-.098-.565-.109a4.838 4.838 0 00-.924.07 6.568 6.568 0 00-1.217.328c-.443.161-.922.355-1.436.58-.514.226-1.046.497-1.596.812a6.883 6.883 0 00-1.548 1.231 9.342 9.342 0 00-1.324 1.802c-.4.696-.719 1.458-.955 2.286a9.376 9.376 0 00-.373 2.441 5.25 5.25 0 00.47 2.275 8.05 8.05 0 001.356 2.044 7.937 7.937 0 001.921 1.58 6.689 6.689 0 002.235.819 6.662 6.662 0 002.45-.045 6.427 6.427 0 002.38-1.004 7.559 7.559 0 001.935-1.917c.547-.775.979-1.549 1.294-2.322a7.557 7.557 0 00.558-2.306c.056-.764-.045-1.555-.303-2.374-.258-.819-.653-1.653-1.186-2.501-.533-.849-1.007-1.483-1.421-1.903-.415-.42-.9-.76-1.457-1.02-.828-.386-1.566-.437-2.216-.153" fill="none" stroke="#007aff" stroke-width="1.32290413" stroke-linecap="round" stroke-linejoin="round" stroke-miterlimit="10"/><path d="M61.154 23.638l-.14-.038a.54.54 0 01.121-.016l.895-.088c.507-.05.962-.094 1.366-.135.403-.04.877-.091 1.422-.153.544-.061 1.147-.127 1.809-.198.661-.07 1.384-.137 2.169-.198.784-.06 1.623-.108 2.518-.14.894-.034 1.81-.059 2.747-.076a464.8 464.8 0 012.882-.043c.985-.012 2.008-.022 3.068-.03l3.122-.018c1.02-.004 2.027-.01 3.02-.017.994-.007 1.931-.01 2.813-.012 1.307 0 2.748.2 4.323.602" fill="none" stroke="#7ec636" stroke-width="1.32290413" stroke-linecap="round" stroke-linejoin="round" stroke-miterlimit="10"/><path d="M40.653 24.476c.06.02.139.005.24-.042.1-.048.26-.104.482-.169a6.27 6.27 0 011.238-.203M44.213 21.617l-.008-.25v-.004.097c0 .06.007.161.022.303.014.141.043.33.086.565a25.477 25.477 0 01.248 1.695c.054.482.155.968.303 1.456M46.052 25.068l-.008.146M48.461 21.279c-.035-.198-.074-.333-.118-.405a.223.223 0 00-.134-.1c-.06-.017-.134-.004-.225.04-.09.045-.191.146-.303.304a3.546 3.546 0 00-.565 1.388c-.05.285-.068.596-.053.936.014.339.078.629.191.87.113.24.26.42.442.539a.888.888 0 00.602.14c.22-.024.42-.136.6-.335.18-.2.304-.45.373-.752a2.75 2.75 0 00.041-.957 2.85 2.85 0 00-.244-.883 2.503 2.503 0 00-.753-.93" fill="none" stroke="#fff" stroke-width=".7556335299999999" stroke-linecap="round" stroke-linejoin="round" stroke-miterlimit="10"/></svg>