<svg xmlns="http://www.w3.org/2000/svg" width="93.95" height="47.63"><path d="M1.833 3.38c-.029-.166-.003-.258.076-.274.056-.012.157-.014.302-.005.146.008.5.078 1.062.21.563.131 1.04.24 1.43.325.392.085.816.172 1.273.26.456.088.952.186 1.488.294.535.108 1.093.245 1.673.413.58.168 1.192.367 1.839.598.647.231 1.331.48 2.055.747l2.21.814c.751.275 1.521.6 2.31.975.79.375 1.6.77 2.431 1.183.831.414 1.66.876 2.486 1.386.827.51 1.652 1.038 2.475 1.586.824.548 1.62 1.112 2.387 1.693.767.58 1.461 1.146 2.08 1.696a80.1 80.1 0 012.997 2.82M.661 46.892c.039.053.137.079.294.077.157-.002.34-.027.55-.076.21-.048.43-.093.658-.134.229-.041.604-.093 1.125-.155l1.416-.167c.422-.05.862-.104 1.32-.162.457-.059 1-.137 1.627-.234a65.367 65.367 0 001.458-.24 64.379 64.379 0 002.085-.415c.27-.06.599-.143.985-.246a35.25 35.25 0 001.291-.375c.475-.147.913-.287 1.313-.42.4-.133 1.154-.419 2.262-.857 1.107-.439 1.927-.783 2.458-1.034.532-.25 1.069-.521 1.612-.812.543-.29 1.08-.566 1.613-.827.532-.26 1.052-.52 1.561-.777.509-.258 1.022-.54 1.539-.845a48.14 48.14 0 001.521-.939c.498-.32.988-.675 1.47-1.067.482-.392.976-.826 1.483-1.305.833-.786 1.385-1.305 1.657-1.556" fill="none" stroke="#7ec636" stroke-width="1.32290413" stroke-linecap="round" stroke-linejoin="round" stroke-miterlimit="10"/><path d="M48.401 17.905a1.677 1.677 0 00-.52-.397c-.129-.062-.317-.098-.565-.109a4.837 4.837 0 00-.924.07 6.566 6.566 0 00-1.217.328c-.443.161-.922.355-1.436.58-.514.226-1.046.496-1.596.812a6.881 6.881 0 00-1.548 1.231 9.345 9.345 0 00-1.324 1.802c-.4.696-.719 1.458-.955 2.286a9.376 9.376 0 00-.373 2.441 5.25 5.25 0 00.47 2.275 8.05 8.05 0 001.356 2.043 7.936 7.936 0 001.921 1.581 6.692 6.692 0 002.235.819 6.66 6.66 0 002.45-.045 6.425 6.425 0 002.38-1.004A7.557 7.557 0 0050.69 30.7a11.67 11.67 0 001.294-2.322 7.552 7.552 0 00.557-2.306c.057-.764-.044-1.556-.302-2.374-.258-.819-.653-1.653-1.186-2.501-.533-.849-1.007-1.483-1.421-1.903-.415-.42-.9-.76-1.457-1.02-.828-.386-1.567-.437-2.216-.153" fill="none" stroke="#007aff" stroke-width="1.32290413" stroke-linecap="round" stroke-linejoin="round" stroke-miterlimit="10"/><path d="M61.154 26.068l-.14-.038a.54.54 0 01.121-.016 3872.691 3872.691 0 002.26-.223c.404-.04.878-.091 1.423-.153a308.21 308.21 0 011.809-.198c.661-.071 1.384-.137 2.169-.198.784-.06 1.623-.108 2.518-.14.894-.034 1.81-.059 2.747-.076a643.44 643.44 0 015.95-.073c1.061-.008 2.102-.014 3.122-.018 1.02-.004 2.027-.01 3.02-.017.994-.007 1.931-.01 2.813-.012 1.307 0 2.748.2 4.323.602" fill="none" stroke="#7ec636" stroke-width="1.32290413" stroke-linecap="round" stroke-linejoin="round" stroke-miterlimit="10"/><path d="M76.12 17.431v-.347l.001-.004v.01l.013.297c.008.19.023.427.045.716.032.413.099 1.507.201 3.282M72.52 20.567c.522-.603.92-1.06 1.196-1.373" fill="none" stroke="#fff" stroke-width=".7556335299999999" stroke-linecap="round" stroke-linejoin="round" stroke-miterlimit="10"/><path d="M72.425 19.257c.088.164.191.325.31.485.171.233.403.6.695 1.099M11.542 2.308c.235-.21.417-.364.548-.46.09-.065.21-.136.359-.211.22-.112.498-.22.835-.323" fill="none" stroke="#fff" stroke-width=".7556335299999999" stroke-linecap="round" stroke-linejoin="round" stroke-miterlimit="10"/><path d="M12.058.866c0 .158.01.32.031.483.03.237.129.687.297 1.348M7.051 42.721c.185-.458.494-.973.926-1.544" fill="none" stroke="#fff" stroke-width=".7556335299999999" stroke-linecap="round" stroke-linejoin="round" stroke-miterlimit="10"/><path d="M6.526 41.406c.231.166.428.316.591.451.159.132.483.464.972.997M78.345 21.215l-.084.075M81.543 17.553c-.021-.05-.084-.104-.188-.162a1.035 1.035 0 00-.187-.083.988.988 0 00-.246-.034.642.642 0 00-.3.058.805.805 0 00-.265.209 1.464 1.464 0 00-.233.408c-.072.176-.133.39-.183.641-.05.252-.083.51-.097.774-.015.264.006.524.062.78.057.255.147.47.27.642a.858.858 0 00.451.34c.177.053.36.039.552-.043.19-.082.361-.244.51-.486.15-.242.26-.517.33-.826.07-.309.097-.598.08-.868a1.577 1.577 0 00-.18-.681 1.467 1.467 0 00-.34-.426 2.154 2.154 0 00-.613-.35M17.487 1.724c.088-.193.143-.404.165-.633a.828.828 0 00-.016-.338.443.443 0 00-.16-.2.88.88 0 00-.302-.14 1.117 1.117 0 00-.4-.029 1.065 1.065 0 00-.47.186c-.169.11-.334.256-.496.438a2.94 2.94 0 00-.436.674c-.13.266-.228.565-.297.895a6.06 6.06 0 00-.124.937 2.71 2.71 0 00.056.764.802.802 0 00.314.488c.157.11.348.151.574.121.226-.03.44-.143.644-.339.203-.196.375-.436.517-.721.14-.285.25-.599.327-.941.076-.342.124-.647.144-.916.02-.268.015-.468-.015-.601a.618.618 0 00-.186-.33M18.336 5.87l-.057-.403M22.682 3.377a.353.353 0 00.179-.177c.02-.049.034-.14.043-.276a.815.815 0 00-.036-.34.604.604 0 00-.164-.238.652.652 0 00-.274-.147.903.903 0 00-.377-.008c-.146.024-.316.1-.512.231-.196.13-.396.312-.602.545-.205.232-.4.527-.585.883-.185.356-.323.74-.416 1.149-.093.41-.126.757-.1 1.041.027.284.118.507.276.669.157.16.358.263.603.305.246.043.51.003.792-.121.282-.124.532-.318.748-.584.216-.265.382-.566.495-.901.114-.336.188-.672.224-1.01.052-.5.034-1.06-.053-1.676M11.453 39.43c.084-.117.106-.227.065-.328a.561.561 0 00-.115-.181.492.492 0 00-.17-.116.673.673 0 00-.216-.047.77.77 0 00-.257.031.895.895 0 00-.279.14 1.366 1.366 0 00-.27.268 1.92 1.92 0 00-.242.421c-.074.17-.131.373-.172.607-.041.234-.056.493-.046.777.01.284.07.554.18.809.109.255.26.469.452.642.192.173.41.296.654.368.243.073.482.107.716.102.234-.005.445-.065.633-.179a.992.992 0 00.41-.491c.087-.214.121-.477.103-.79a2.645 2.645 0 00-.204-.887 2.763 2.763 0 00-.396-.683 1.822 1.822 0 00-.832-.568M14.37 41.483l-.226.097M15.36 38.426c-.05-.01-.102-.07-.154-.185a1.266 1.266 0 01-.104-.35.968.968 0 010-.318.478.478 0 01.138-.249.865.865 0 01.285-.184 1.23 1.23 0 01.381-.089.874.874 0 01.289.01.367.367 0 01.16.116c.052.06.086.118.103.171.017.054.028.164.034.33.006.168.007.318.005.453s-.013.25-.03.345c-.02.095 0 .125.059.088a1.456 1.456 0 01.538-.178c.101-.013.193-.02.275-.021a.677.677 0 01.232.035c.073.024.144.06.214.104.07.045.136.097.195.155a.974.974 0 01.262.461c.022.09.036.207.039.35.004.141-.06.323-.19.544a1.55 1.55 0 01-.5.529c-.293.188-.665.155-1.115-.1" fill="none" stroke="#fff" stroke-width=".7556335299999999" stroke-linecap="round" stroke-linejoin="round" stroke-miterlimit="10"/></svg>