<svg xmlns="http://www.w3.org/2000/svg" width="150.068" height="68.095"><path d="M48.237 5.22c.068-.287.091-.478.069-.573-.016-.066-.092-.143-.228-.233a1.779 1.779 0 00-.576-.217 6.444 6.444 0 00-.933-.124 15.319 15.319 0 00-1.302-.029 8.43 8.43 0 00-1.604.193 24.84 24.84 0 00-1.737.433 8.97 8.97 0 00-1.587.612c-.475.241-.905.579-1.291 1.014-.386.435-.728 1.054-1.026 1.857-.298.804-.491 1.758-.578 2.863-.088 1.104-.03 2.297.175 3.579.205 1.28.57 2.5 1.095 3.658s1.175 2.163 1.95 3.012c.776.85 1.63 1.46 2.56 1.832.932.37 1.92.587 2.965.65a8.986 8.986 0 003.083-.348 6.99 6.99 0 002.65-1.425 7.31 7.31 0 001.793-2.32c.44-.892.726-1.88.858-2.962a11.34 11.34 0 00-.023-3.082c-.147-.972-.491-1.988-1.031-3.048a17.513 17.513 0 00-1.938-2.998 68.2 68.2 0 00-2.09-2.5c-.642-.727-1.196-1.24-1.66-1.537-.664-.423-1.33-.276-1.998.441M48.845 50.665a2.36 2.36 0 00-.578-.338 9.489 9.489 0 00-.653-.242 6.913 6.913 0 00-.978-.243 8.739 8.739 0 00-1.223-.126 4.83 4.83 0 00-1.401.166 5.72 5.72 0 00-1.49.641c-.5.3-.987.693-1.458 1.18-.472.488-.906 1.1-1.302 1.835a10.24 10.24 0 00-.919 2.415 9.142 9.142 0 00-.262 2.63c.04.878.237 1.75.589 2.613a9.738 9.738 0 001.501 2.485 13.889 13.889 0 002.117 2.099c.762.605 1.52 1.039 2.272 1.301a6.34 6.34 0 002.35.348 4.8 4.8 0 002.263-.652c.695-.403 1.284-.987 1.765-1.75.48-.764.873-1.673 1.176-2.727.303-1.054.498-2.094.586-3.121a10.001 10.001 0 00-.16-2.927 6.744 6.744 0 00-1.047-2.477c-.503-.727-1.037-1.302-1.602-1.723-.565-.42-1.087-.72-1.565-.897-.478-.177-.881-.285-1.21-.324-.475-.056-.768.084-.882.418" fill="none" stroke="#007aff" stroke-width="1.32290413" stroke-linecap="round" stroke-linejoin="round" stroke-miterlimit="10"/><path d="M57.95 13.803c-.028-.166-.003-.258.076-.275a1.34 1.34 0 01.303-.005c.145.009.499.08 1.062.21.562.132 1.039.24 1.43.326.391.085.815.172 1.272.26.457.087.953.185 1.488.293a20.99 20.99 0 011.673.414c.58.167 1.193.367 1.84.598.646.231 1.33.48 2.054.747l2.211.814c.75.275 1.52.6 2.31.975s1.6.77 2.43 1.183c.832.414 1.66.876 2.487 1.385.826.51 1.651 1.039 2.475 1.587.823.547 1.619 1.112 2.386 1.692a34.25 34.25 0 012.08 1.697c.92.816 1.919 1.756 2.997 2.819M56.779 57.315c.038.053.136.078.293.077.157-.002.341-.027.551-.076.21-.049.43-.093.658-.134.228-.042.603-.093 1.124-.155l1.416-.167c.422-.05.862-.104 1.32-.163.457-.058 1-.136 1.627-.234a65.717 65.717 0 001.459-.24 64.349 64.349 0 002.085-.415c.27-.06.598-.142.984-.245a35.26 35.26 0 001.292-.375c.475-.147.912-.287 1.313-.42.4-.133 1.154-.419 2.261-.858 1.108-.438 1.927-.783 2.459-1.033.531-.25 1.068-.521 1.611-.812.543-.29 1.08-.566 1.613-.827.532-.261 1.053-.52 1.562-.778.508-.257 1.021-.539 1.538-.844a48.274 48.274 0 001.522-.939c.497-.32.987-.676 1.47-1.067.482-.392.976-.827 1.482-1.305.833-.787 1.386-1.305 1.658-1.557" fill="none" stroke="#7ec636" stroke-width="1.32290413" stroke-linecap="round" stroke-linejoin="round" stroke-miterlimit="10"/><path d="M104.519 28.327a1.675 1.675 0 00-.52-.396c-.13-.062-.318-.098-.565-.109a4.83 4.83 0 00-.924.07 6.56 6.56 0 00-1.218.328c-.443.161-.922.355-1.436.58a16.65 16.65 0 00-1.595.812 6.881 6.881 0 00-1.548 1.231 9.342 9.342 0 00-1.324 1.802c-.401.696-.72 1.458-.956 2.286a9.373 9.373 0 00-.372 2.441 5.25 5.25 0 00.47 2.275 8.048 8.048 0 001.356 2.043 7.94 7.94 0 001.92 1.581 6.69 6.69 0 002.235.819 6.662 6.662 0 002.45-.045 6.425 6.425 0 002.38-1.005 7.557 7.557 0 001.935-1.916 11.67 11.67 0 001.295-2.322 7.557 7.557 0 00.557-2.306c.056-.764-.045-1.556-.303-2.375-.257-.818-.653-1.652-1.186-2.5-.533-.85-1.006-1.484-1.42-1.904-.415-.42-.9-.76-1.457-1.02-.828-.385-1.567-.436-2.217-.152" fill="none" stroke="#007aff" stroke-width="1.32290413" stroke-linecap="round" stroke-linejoin="round" stroke-miterlimit="10"/><path d="M1.002 13.32c-.105-.034-.16-.075-.166-.123-.004-.033.165-.094.508-.182.342-.088.704-.168 1.087-.241.382-.073.813-.14 1.292-.203a27.078 27.078 0 011.567-.152c.567-.04 1.501-.087 2.804-.141 1.303-.055 2.314-.095 3.034-.121.72-.026 1.47-.047 2.25-.064.781-.016 1.57-.028 2.365-.037.797-.008 1.998-.012 3.604-.013 1.607-.001 2.815.007 3.623.024l2.478.048a76.39 76.39 0 012.505.086c.827.043 1.55.12 2.171.232.926.168 1.857.464 2.792.887M.661 58.297a4.39 4.39 0 01.904-.085 79.111 79.111 0 002.098-.052 215.727 215.727 0 014.978-.146c.612-.012 2.29-.019 5.034-.02a801.92 801.92 0 015.31.008 162.376 162.376 0 014.933.122l2.322.09c.738.027 1.437.059 2.098.095.969.055 2.2.263 3.694.626M117.271 36.49l-.14-.038a.538.538 0 01.122-.016l.894-.087c.507-.05.963-.094 1.366-.135.403-.04.877-.092 1.422-.153.545-.062 1.148-.128 1.81-.198a75.51 75.51 0 012.168-.198c.784-.061 1.624-.108 2.518-.141.895-.033 1.81-.058 2.747-.075a470.48 470.48 0 012.883-.044 1020.421 1020.421 0 016.19-.048c1.02-.004 2.027-.01 3.02-.016.993-.008 1.93-.011 2.813-.012 1.306 0 2.747.2 4.323.602" fill="none" stroke="#7ec636" stroke-width="1.32290413" stroke-linecap="round" stroke-linejoin="round" stroke-miterlimit="10"/><path d="M6.452 6.634c.188-.231.389-.516.603-.855.31-.488.964-1.411 1.963-2.769" fill="none" stroke="#fff" stroke-width=".7556335299999999" stroke-linecap="round" stroke-linejoin="round" stroke-miterlimit="10"/><path d="M6.452 3.446c.084.005.192.07.324.197.133.125.291.297.474.515l.607.715c.322.378.751.99 1.289 1.834M13.06 2.145a.955.955 0 00-.052-.535 1.406 1.406 0 00-.217-.386 1.238 1.238 0 00-.283-.28.913.913 0 00-.32-.128 1.245 1.245 0 00-.399-.013.914.914 0 00-.434.186 1.823 1.823 0 00-.41.438 2.597 2.597 0 00-.326.723c-.09.297-.148.644-.176 1.04-.028.396-.026.802.007 1.217.033.415.116.815.251 1.2s.302.719.502 1.001c.2.282.415.497.646.645.232.147.462.239.691.276.229.037.448.007.657-.088.208-.096.4-.293.575-.592.176-.298.314-.654.415-1.065.102-.412.169-.823.2-1.234.033-.41.033-.793.001-1.149-.046-.52-.301-1.026-.766-1.515M16.533 6.644l-.149-.17M19.125 2.779c-.022.09-.094.127-.218.111-.087-.011-.156-.062-.209-.153-.052-.09-.099-.21-.14-.357a3.592 3.592 0 01-.096-.499 4.872 4.872 0 01-.04-.56c-.002-.189.021-.353.07-.494a.806.806 0 01.175-.314.446.446 0 01.23-.127.466.466 0 01.258.025.666.666 0 01.267.214c.089.11.172.266.249.47.077.202.138.441.183.716.046.274.074.563.086.866.011.304.003.635-.025.992-.027.358-.089.728-.185 1.11a9.071 9.071 0 01-.307 1.007c-.11.289-.212.513-.306.674-.094.161-.171.264-.232.308-.06.045-.11.064-.15.06-.038-.006-.065-.044-.082-.115a1.174 1.174 0 01-.028-.247.583.583 0 01.036-.232c.026-.061.067-.098.124-.11.057-.012.135.039.233.153.1.114.223.253.37.415.149.162.319.305.51.427.192.122.396.209.61.26.216.05.417.078.605.083.188.005.355-.029.503-.102a.947.947 0 00.35-.285c.128-.175.243-.36.346-.558M7.697 53.805c.084-.187.231-.448.444-.781.212-.333.41-.632.596-.897.185-.264.377-.508.575-.73.3-.336.617-.596.953-.778" fill="none" stroke="#fff" stroke-width=".7556335299999999" stroke-linecap="round" stroke-linejoin="round" stroke-miterlimit="10"/><path d="M7.889 50.465c.092.131.248.418.469.861.22.443.399.805.534 1.086.199.41.52.98.965 1.71M13.806 48.261l-.018-.124v.118l-.001 1.925c0 1.203.038 2.39.117 3.562M15.797 54.071v.085M19.638 49.595a.668.668 0 00-.04-.392 1.54 1.54 0 00-.146-.256.576.576 0 00-.23-.199.62.62 0 00-.328-.049c-.125.012-.26.083-.408.212-.147.13-.284.3-.412.508-.127.209-.235.47-.325.782-.09.313-.144.688-.162 1.124-.018.436.031.847.148 1.234.117.387.276.681.476.884.201.202.424.319.668.349.245.03.489-.047.732-.23s.426-.446.55-.789c.124-.342.198-.731.22-1.167a4.49 4.49 0 00-.06-1.109c-.062-.303-.147-.542-.256-.717a1.052 1.052 0 00-.709-.484M39.602 14.312c.447-.185 1.046-.207 1.797-.066M44.757 12.434c.029-.096-.024-.173-.158-.23a.933.933 0 00-.301-.09.788.788 0 00-.217.026.496.496 0 00-.24.168 1.76 1.76 0 00-.208.288c-.056.1-.122.263-.195.49a5.144 5.144 0 00-.245 1.323c-.01.21-.002.404.026.584.028.18.1.348.216.504a1.347 1.347 0 00.95.543c.185.02.366-.002.543-.064.177-.063.329-.173.457-.331.128-.159.218-.346.27-.562.051-.216.081-.455.09-.715a3.526 3.526 0 00-.065-.785 4.035 4.035 0 00-.196-.7 2.162 2.162 0 00-.252-.486 1.501 1.501 0 00-.396-.397M46.751 15.42l-.13-.033M48.152 12.217c-.077-.003-.117-.04-.118-.112a.44.44 0 01.066-.199c.045-.083.1-.162.166-.237.067-.076.15-.143.25-.203.1-.06.206-.104.316-.132a.836.836 0 01.303-.028.29.29 0 01.22.148.843.843 0 01.109.339c.018.138.027.275.03.412 0 .136-.006.258-.022.366a1.158 1.158 0 01-.06.25.36.36 0 01-.082.134l-.068.062c-.014.013 0 .019.041.019h.21c.098 0 .204.004.317.011a.717.717 0 01.331.108c.108.066.208.153.3.263a1.566 1.566 0 01.343.755c.021.14.02.277-.003.414-.024.136-.108.276-.253.419-.145.142-.34.272-.587.39a2.754 2.754 0 01-.756.238c-.378.06-.724-.043-1.037-.309M41.086 59.69c.259.04.744-.002 1.456-.123" fill="none" stroke="#fff" stroke-width=".7556335299999999" stroke-linecap="round" stroke-linejoin="round" stroke-miterlimit="10"/><path d="M41.98 57.759c-.007.79-.003 1.335.011 1.635.015.304.072.695.171 1.173M45.397 57.795c-.052-.227-.142-.39-.268-.487a.639.639 0 00-.335-.12.866.866 0 00-.304.008c-.066.02-.157.101-.273.245a1.961 1.961 0 00-.3.553 3.084 3.084 0 00-.165.792c-.027.303-.025.607.008.913.033.305.118.58.254.823.135.244.29.447.466.611.175.164.36.263.555.3.196.035.376 0 .541-.107a1.07 1.07 0 00.389-.467c.094-.205.152-.445.174-.72.023-.276.02-.552-.007-.829a4.62 4.62 0 00-.123-.722 3.609 3.609 0 00-.143-.45.263.263 0 00-.197-.169M47.396 60.56l-.018.126c0 .003 0 .002-.001 0l-.031-.135M49.842 57.543c.013-.24-.012-.394-.075-.466a.625.625 0 00-.222-.14.741.741 0 00-.256-.07c-.066-.001-.132.03-.198.094a1.265 1.265 0 00-.216.325c-.078.152-.151.337-.22.556-.07.22-.128.445-.173.677a4.194 4.194 0 00-.08.649 1.4 1.4 0 00.099.579.928.928 0 00.374.445c.176.112.37.177.586.196.214.018.418-.02.61-.112a.979.979 0 00.449-.438c.106-.2.17-.45.19-.747a3.033 3.033 0 00-.073-.894 5.221 5.221 0 00-.234-.773 2.663 2.663 0 00-.516-.831M68.905 12.41c.067.013.266-.063.598-.228.195-.098.392-.192.593-.282.2-.09.438-.194.714-.31.404-.17.943-.353 1.614-.55" fill="none" stroke="#fff" stroke-width=".7556335299999999" stroke-linecap="round" stroke-linejoin="round" stroke-miterlimit="10"/><path d="M70.29 10.117c.049.357.121.676.217.957.064.19.139.384.223.584.122.29.302.774.54 1.452M76.696 11.658a2.05 2.05 0 00-.226-.38.576.576 0 00-.17-.13.885.885 0 00-.27-.085 2.023 2.023 0 00-.374-.023 1.35 1.35 0 00-.414.074 1.641 1.641 0 00-.396.203c-.13.089-.262.214-.397.375a3.723 3.723 0 00-.398.591c-.13.233-.231.471-.304.714a3.312 3.312 0 00-.135.72c-.017.236-.004.486.04.748.043.262.12.506.228.73.108.224.218.394.33.51.112.117.278.209.497.276.22.068.43.1.633.097.202-.003.404-.054.606-.153.201-.1.381-.228.539-.385.157-.157.3-.345.43-.563.128-.218.237-.439.324-.66a4.032 4.032 0 00.285-1.43 1.984 1.984 0 00-.097-.706 1.18 1.18 0 00-.273-.472.694.694 0 00-.361-.195.625.625 0 00-.53.157M77.73 16.378a41.544 41.544 0 01-.04-.081M83.17 15.018c.01-.236.004-.39-.017-.463a.374.374 0 00-.09-.147.78.78 0 00-.178-.138 1.172 1.172 0 00-.253-.108 1.309 1.309 0 00-.326-.05 1.493 1.493 0 00-.836.215c-.15.087-.296.202-.438.344a5.776 5.776 0 00-.832 1.06c-.129.208-.24.428-.338.661a3.15 3.15 0 00-.203.71c-.039.242-.047.47-.024.687.023.218.087.403.193.558.106.154.225.266.36.338.133.071.26.111.38.12.12.01.275-.016.468-.078s.367-.149.524-.261c.157-.112.28-.233.368-.363.088-.13.144-.257.167-.38a.913.913 0 00.01-.327.373.373 0 00-.163-.24c-.09-.065-.21-.12-.36-.165a3.577 3.577 0 00-.437-.103 2.729 2.729 0 00-.399-.04 1.203 1.203 0 00-.323.033c-.135.035-.216.107-.245.216M66.411 51.718c.115-.18.3-.597.558-1.25.238-.602.511-1.076.82-1.422" fill="none" stroke="#fff" stroke-width=".7556335299999999" stroke-linecap="round" stroke-linejoin="round" stroke-miterlimit="10"/><path d="M66.094 49.816c.457.303.793.538 1.01.704.217.168.512.387.883.657M70.913 47.483a.521.521 0 00-.147-.274.453.453 0 00-.193-.09.936.936 0 00-.436-.011c-.068.015-.162.07-.282.169-.12.098-.227.233-.321.404-.095.172-.17.354-.228.547a2.553 2.553 0 00-.102.612c-.01.215.024.446.105.695.081.248.2.498.359.75.158.25.345.466.56.646.216.18.45.316.704.409.254.092.488.139.704.138.215 0 .382-.048.5-.145.119-.097.218-.317.297-.663a4.13 4.13 0 00.109-1.014 3.469 3.469 0 00-.134-.916 4.34 4.34 0 00-.302-.764 2.838 2.838 0 00-.353-.547 1.005 1.005 0 00-.322-.268c-.144-.066-.275-.063-.393.01M73.704 50.295a83.185 83.185 0 00-.127-.097M75.755 45.092a.828.828 0 01-.095.378c-.04.074-.091.149-.153.224a1.225 1.225 0 01-.8.435c-.099.013-.184.02-.254.022a.392.392 0 01-.179-.033 24.983 24.983 0 01-.079-.039l.056.016a.37.37 0 01.138.103c.057.06.117.138.181.235.064.098.126.207.188.328.061.12.129.272.203.455.074.182.129.322.165.421.037.1.07.15.102.15.032.002.064-.023.097-.071.033-.05.08-.106.138-.172.06-.065.128-.124.206-.176a.806.806 0 01.244-.112c.085-.022.172-.036.26-.043.088-.008.173-.009.254-.005.08.005.163.026.246.064.083.04.17.094.26.166.09.072.178.164.264.277a2.12 2.12 0 01.369.779c.03.136.04.289.029.456a1.328 1.328 0 01-.157.52 1.655 1.655 0 01-.367.472c-.152.136-.313.22-.486.253a2.61 2.61 0 01-.33.05c-.069.002-.229-.204-.48-.616M129.192 32.576c.26-.402.485-.743.678-1.023.13-.19.298-.418.503-.686.205-.267.422-.525.651-.775.338-.367.775-.778 1.31-1.23" fill="none" stroke="#fff" stroke-width=".7556335299999999" stroke-linecap="round" stroke-linejoin="round" stroke-miterlimit="10"/><path d="M129.773 29.2c.084.01.205.12.362.328.1.13.34.54.723 1.226.382.686.74 1.308 1.072 1.864M135.678 26.321v-.068h0l.002.02.035.413a28.274 28.274 0 01.097 2.05c.007.588.005 1.672-.006 3.251M138.02 31.868l-.098.41M142.086 27.404a3.24 3.24 0 00.041-.456c-.003-.047-.06-.092-.17-.136a.894.894 0 00-.311-.068.74.74 0 00-.343.102 2.01 2.01 0 00-.427.318 2.844 2.844 0 00-.43.524 3.791 3.791 0 00-.352.693 2.873 2.873 0 00-.099 1.8c.087.342.224.64.412.892a1.715 1.715 0 001.393.721c.247-.002.472-.084.676-.247.205-.162.37-.389.497-.68.126-.292.21-.606.248-.943.04-.337.04-.662 0-.975a2.454 2.454 0 00-.255-.838c-.19-.362-.533-.652-1.03-.871M96.223 37.085c.72-.006 1.231.012 1.533.054" fill="none" stroke="#fff" stroke-width=".7556335299999999" stroke-linecap="round" stroke-linejoin="round" stroke-miterlimit="10"/><path d="M97.093 35.784c.004.164.019.358.042.583.023.211.065.76.127 1.649M100.836 35.431a1.177 1.177 0 00-.054-.267.209.209 0 00-.083-.085.639.639 0 00-.236-.065 1.31 1.31 0 00-.288-.013.58.58 0 00-.242.086 1.076 1.076 0 00-.26.233c-.087.105-.168.215-.243.332a2.07 2.07 0 00-.312.89 4.076 4.076 0 00-.026.589c.005.205.042.398.11.58.068.182.156.331.264.448.108.118.226.203.355.256.13.053.27.085.424.098a1.015 1.015 0 00.88-.347 1.7 1.7 0 00.331-.605c.089-.259.148-.53.179-.813.03-.284.04-.53.028-.74a1.003 1.003 0 00-.16-.523.898.898 0 00-.334-.306.978.978 0 00-.352-.11c-.154-.012-.269.055-.345.203M102.72 37.868l-.185-.024M103.927 35.914a.939.939 0 01-.089-.335 2.757 2.757 0 01-.012-.293.67.67 0 01.048-.224.882.882 0 01.12-.215c.051-.067.106-.13.164-.187.058-.058.114-.104.168-.138a.423.423 0 01.147-.065.287.287 0 01.12 0c.035.01.086.078.15.208a2.305 2.305 0 01.22.643 3.27 3.27 0 01.072.679c.001.122-.013.26-.042.415a3.151 3.151 0 01-.332.924 2.57 2.57 0 01-.256.387 1.03 1.03 0 01-.26.24.53.53 0 01-.207.082c-.055.006-.092-.02-.111-.074a.408.408 0 01-.008-.207.38.38 0 01.107-.209.383.383 0 01.185-.108.254.254 0 01.192.033.769.769 0 01.197.184 1.678 1.678 0 00.504.422c.084.044.198.083.34.116.144.034.274.052.393.055.171.005.402-.086.692-.274" fill="none" stroke="#fff" stroke-width=".7556335299999999" stroke-linecap="round" stroke-linejoin="round" stroke-miterlimit="10"/></svg>