<svg xmlns="http://www.w3.org/2000/svg" width="169.728" height="68.095"><path d="M5.287 11.608a6.302 6.302 0 00-.42-.692 1.144 1.144 0 00-.227-.23c-.083-.062-.232-.122-.446-.18a3.065 3.065 0 00-.673-.102 2.087 2.087 0 00-.726.104c-.25.079-.505.225-.767.439a4.166 4.166 0 00-.735.793c-.228.315-.42.66-.576 1.034-.155.374-.259.771-.31 1.19a4.17 4.17 0 00.054 1.31c.088.452.236.853.446 1.2.21.348.458.62.745.815.286.195.595.317.926.365.331.048.69.028 1.077-.06.387-.087.763-.278 1.128-.573.365-.295.678-.664.94-1.11.263-.444.446-.896.549-1.355.103-.46.139-.9.108-1.32a3.549 3.549 0 00-.285-1.176 4.225 4.225 0 00-.529-.915A2.367 2.367 0 005 10.6c-.264-.168-.455-.18-.573-.039M8.326 15.66l.12-.388M14.01 9.675c-.068-.087-.33-.153-.786-.197a11.305 11.305 0 00-1.035-.044c-.412-.001-.624.073-.636.222-.013.15-.01.309.005.476.016.168.04.344.07.53.03.185.094.44.194.766s.168.565.206.718c.037.153.06.364.07.632.01.269.008.431-.004.489l-.02.09v.002-.004l.024-.133a.54.54 0 01.12-.247.747.747 0 01.266-.2 2.777 2.777 0 01.795-.232c.147-.02.287-.03.422-.032a.797.797 0 01.387.093c.123.063.246.149.371.256.126.108.233.213.322.316.09.103.183.249.28.436.097.188.158.377.184.57.026.192.02.402-.018.63a1.91 1.91 0 01-.268.686c-.14.228-.33.436-.57.624-.24.188-.51.317-.813.388a2.44 2.44 0 01-.83.063c-.25-.028-.437-.115-.559-.259-.176-.209-.219-.54-.128-.995M5.177 55.706a2.963 2.963 0 00-.417-.533.867.867 0 00-.319-.182 1.778 1.778 0 00-.486-.079 5.126 5.126 0 00-.646.017 3.53 3.53 0 00-.71.135 2.73 2.73 0 00-.687.315c-.221.14-.421.33-.6.57-.18.239-.325.533-.435.883-.11.35-.178.75-.206 1.2-.027.45-.007.91.058 1.377.066.467.199.906.399 1.315.2.41.432.754.698 1.032.266.279.563.484.89.617.329.132.679.205 1.05.218a2.13 2.13 0 001.095-.268c.359-.192.691-.49.997-.891.306-.402.543-.81.71-1.224a4.67 4.67 0 00.319-1.258c.045-.424.045-.845.002-1.262a2.698 2.698 0 00-.32-1.07c-.17-.295-.394-.49-.672-.583a1.812 1.812 0 00-.853-.077c-.443.066-.738.19-.884.376M9.79 61.876l-.257-.107M14.384 55.703c-.02-.243-.057-.422-.11-.539a.83.83 0 00-.17-.235.684.684 0 00-.283-.168 1.48 1.48 0 00-.374-.065c-.136-.007-.27.01-.4.054a.73.73 0 00-.336.235c-.094.113-.161.25-.203.41-.041.16-.065.443-.07.85-.005.407.025.696.09.865a2.125 2.125 0 00.591.851c.13.116.376.283.737.502.36.219.635.398.823.538.188.14.354.286.498.438.144.151.264.313.359.485.095.172.16.346.198.52.037.175.057.339.06.493.005.154-.021.301-.077.442a1.18 1.18 0 01-.285.407c-.135.13-.3.24-.494.33-.194.089-.41.148-.647.178-.236.03-.47.035-.699.017a1.77 1.77 0 01-.62-.156c-.184-.086-.34-.2-.468-.34a1.115 1.115 0 01-.258-.524 2.505 2.505 0 01-.056-.626 1.6 1.6 0 01.14-.6c.085-.19.188-.36.31-.507a4.391 4.391 0 01.886-.818c.188-.134.39-.282.606-.445.216-.162.419-.336.61-.522.19-.185.34-.38.447-.584a1.66 1.66 0 00.19-.655 1.274 1.274 0 00-.139-.683 1.78 1.78 0 00-.497-.594 8.704 8.704 0 00-1.276-.81" fill="none" stroke="#ffd300" stroke-width=".7556335299999999" stroke-linecap="round" stroke-linejoin="round" stroke-miterlimit="10"/><path d="M67.896 5.22c.07-.287.092-.478.07-.573-.016-.066-.092-.143-.229-.233a1.78 1.78 0 00-.576-.217 6.435 6.435 0 00-.932-.124 15.286 15.286 0 00-1.302-.029 8.425 8.425 0 00-1.604.193 24.84 24.84 0 00-1.738.433A8.975 8.975 0 0060 5.282c-.475.241-.906.58-1.291 1.014-.386.435-.728 1.054-1.026 1.857-.298.804-.491 1.758-.579 2.863-.087 1.104-.029 2.297.176 3.579.204 1.28.57 2.5 1.094 3.658.526 1.159 1.176 2.163 1.951 3.013.776.85 1.629 1.46 2.56 1.83.932.371 1.92.588 2.965.651a8.99 8.99 0 003.083-.348 6.992 6.992 0 002.65-1.425 7.307 7.307 0 001.793-2.32c.44-.892.725-1.88.857-2.962.133-1.083.125-2.11-.022-3.082s-.491-1.988-1.032-3.048a17.513 17.513 0 00-1.937-2.998 68.323 68.323 0 00-2.09-2.5c-.642-.727-1.196-1.24-1.66-1.537-.664-.423-1.33-.276-1.998.441M68.505 50.665a2.357 2.357 0 00-.578-.338 9.444 9.444 0 00-.653-.242 6.913 6.913 0 00-.979-.243 8.75 8.75 0 00-1.222-.126 4.829 4.829 0 00-1.401.166 5.718 5.718 0 00-1.49.641 7.14 7.14 0 00-1.459 1.18c-.471.488-.905 1.1-1.301 1.835a10.24 10.24 0 00-.919 2.415 9.142 9.142 0 00-.263 2.63c.041.878.238 1.75.59 2.613a9.74 9.74 0 001.501 2.486 13.891 13.891 0 002.117 2.098c.762.605 1.519 1.039 2.271 1.301a6.342 6.342 0 002.35.348 4.8 4.8 0 002.264-.652c.695-.403 1.283-.987 1.764-1.75.482-.764.874-1.673 1.177-2.727.303-1.054.498-2.094.586-3.121a10.002 10.002 0 00-.16-2.927 6.743 6.743 0 00-1.047-2.477c-.504-.727-1.038-1.302-1.603-1.723-.565-.42-1.086-.72-1.564-.897-.478-.177-.882-.285-1.211-.324-.474-.056-.768.084-.88.418" fill="none" stroke="#007aff" stroke-width="1.32290413" stroke-linecap="round" stroke-linejoin="round" stroke-miterlimit="10"/><path d="M77.61 13.803c-.029-.166-.003-.258.076-.275.056-.011.157-.013.302-.005.146.009.5.08 1.062.21.563.132 1.04.24 1.43.326.392.085.816.172 1.273.26.457.087.953.185 1.488.293.535.108 1.093.246 1.673.414.58.168 1.193.367 1.84.598.646.231 1.33.48 2.054.747l2.21.814c.751.275 1.521.6 2.31.975.79.375 1.6.77 2.431 1.183.832.414 1.66.876 2.487 1.385.826.51 1.65 1.039 2.474 1.587.824.547 1.62 1.112 2.387 1.692.768.581 1.461 1.146 2.08 1.697.92.816 1.919 1.756 2.997 2.819M76.439 57.315c.038.053.136.078.293.077.157-.002.34-.027.55-.076.21-.049.43-.093.658-.134.229-.042.604-.093 1.125-.155l1.416-.167c.422-.05.862-.104 1.32-.163.457-.058 1-.136 1.627-.234a65.8 65.8 0 001.459-.24 64.379 64.379 0 002.085-.415c.27-.06.598-.142.984-.245.386-.103.816-.228 1.291-.375.476-.147.913-.287 1.313-.42.4-.133 1.154-.419 2.262-.858 1.107-.438 1.927-.783 2.458-1.033.532-.25 1.07-.521 1.612-.812.543-.29 1.08-.566 1.613-.827.532-.26 1.052-.52 1.561-.778.51-.257 1.022-.539 1.539-.844a48.358 48.358 0 001.522-.939c.497-.32.987-.676 1.47-1.067.482-.392.976-.827 1.482-1.305.833-.787 1.385-1.305 1.657-1.557" fill="none" stroke="#7ec636" stroke-width="1.32290413" stroke-linecap="round" stroke-linejoin="round" stroke-miterlimit="10"/><path d="M124.178 28.327a1.675 1.675 0 00-.52-.396c-.129-.062-.317-.098-.565-.109a4.837 4.837 0 00-.923.07 6.561 6.561 0 00-1.218.328c-.443.161-.922.355-1.436.58-.514.226-1.046.496-1.596.812a6.882 6.882 0 00-1.548 1.231 9.344 9.344 0 00-1.324 1.802c-.4.696-.719 1.458-.955 2.286a9.373 9.373 0 00-.372 2.441c-.012.8.145 1.557.47 2.275a8.048 8.048 0 001.356 2.043 7.936 7.936 0 001.92 1.581 6.693 6.693 0 002.235.819 6.66 6.66 0 002.45-.045 6.425 6.425 0 002.38-1.005 7.559 7.559 0 001.935-1.916 11.67 11.67 0 001.294-2.322 7.556 7.556 0 00.558-2.306c.056-.764-.045-1.556-.303-2.375-.258-.818-.653-1.652-1.186-2.5-.533-.85-1.007-1.483-1.421-1.904-.415-.42-.9-.76-1.457-1.02-.828-.385-1.566-.436-2.216-.152" fill="none" stroke="#007aff" stroke-width="1.32290413" stroke-linecap="round" stroke-linejoin="round" stroke-miterlimit="10"/><path d="M20.661 13.32c-.104-.034-.16-.075-.165-.123-.004-.033.165-.094.507-.182.343-.088.705-.168 1.088-.241.382-.073.813-.14 1.291-.203a27.146 27.146 0 011.568-.152c.566-.04 1.501-.087 2.804-.141a557.04 557.04 0 013.034-.121c.72-.026 1.47-.047 2.25-.064.78-.016 1.57-.028 2.365-.037.796-.008 1.998-.012 3.604-.013 1.607 0 2.814.007 3.623.024l2.478.048c.844.015 1.679.044 2.505.086.826.043 1.55.12 2.171.232a11.93 11.93 0 012.792.887M20.321 58.297c.235-.053.536-.082.903-.085a79.111 79.111 0 002.1-.052 212.208 212.208 0 014.978-.146 404.5 404.5 0 015.033-.02c2.744-.001 4.514.002 5.31.008a161.456 161.456 0 014.933.122l2.321.09c.739.027 1.438.059 2.098.096.97.054 2.201.262 3.695.625M136.931 36.49l-.14-.038a.543.543 0 01.122-.016 4380.263 4380.263 0 002.26-.222c.403-.04.877-.092 1.422-.153.544-.062 1.147-.128 1.809-.198a75.51 75.51 0 012.169-.198c.784-.061 1.623-.108 2.518-.141.895-.033 1.81-.058 2.747-.075a476.364 476.364 0 015.95-.073c1.061-.008 2.102-.014 3.122-.018 1.02-.005 2.027-.01 3.02-.017.994-.008 1.931-.011 2.813-.012 1.307-.001 2.748.2 4.323.602" fill="none" stroke="#7ec636" stroke-width="1.32290413" stroke-linecap="round" stroke-linejoin="round" stroke-miterlimit="10"/><path d="M26.112 6.634a9.16 9.16 0 00.603-.855c.31-.488.964-1.411 1.962-2.769" fill="none" stroke="#fff" stroke-width=".7556335299999999" stroke-linecap="round" stroke-linejoin="round" stroke-miterlimit="10"/><path d="M26.112 3.446c.083.005.191.07.324.197.133.125.29.297.474.515l.607.715c.322.378.751.99 1.288 1.834M32.72 2.145a.955.955 0 00-.053-.535 1.407 1.407 0 00-.216-.386 1.237 1.237 0 00-.283-.28.913.913 0 00-.32-.128 1.245 1.245 0 00-.4-.013.914.914 0 00-.434.186 1.825 1.825 0 00-.41.438 2.595 2.595 0 00-.325.723c-.09.297-.149.644-.177 1.04a8.16 8.16 0 00.008 1.217c.032.415.116.815.251 1.2s.302.719.502 1.001c.199.282.414.497.646.645.232.147.462.239.69.276.23.037.448.007.657-.088.21-.096.401-.293.576-.592.175-.298.314-.654.415-1.065.102-.412.168-.823.2-1.234.032-.41.033-.793.001-1.149-.046-.52-.301-1.026-.766-1.515M36.193 6.644l-.149-.17M38.784 2.779c-.02.09-.093.127-.217.111-.087-.011-.156-.062-.209-.153-.052-.09-.1-.21-.14-.357a3.588 3.588 0 01-.097-.499 4.872 4.872 0 01-.039-.56c-.002-.189.02-.353.069-.494a.806.806 0 01.176-.314.446.446 0 01.23-.127.466.466 0 01.258.025.666.666 0 01.266.214c.09.11.172.266.25.47.076.202.138.441.183.716.046.274.074.563.085.866.012.304.004.635-.024.992-.028.358-.09.728-.185 1.11a9.065 9.065 0 01-.308 1.007c-.109.289-.21.513-.305.674-.094.161-.171.264-.232.308-.061.045-.11.064-.15.06-.038-.006-.066-.044-.082-.115a1.174 1.174 0 01-.028-.247.583.583 0 01.036-.232c.025-.061.067-.098.124-.11.057-.012.135.039.233.153.099.114.222.253.37.415.149.162.319.305.51.427.192.122.396.209.61.26.216.05.417.078.605.083.188.005.355-.029.503-.102a.947.947 0 00.35-.285c.128-.175.243-.36.346-.558M27.357 53.805a6.53 6.53 0 01.443-.781c.213-.333.411-.632.596-.897.185-.264.377-.508.576-.73.3-.336.617-.596.953-.778" fill="none" stroke="#fff" stroke-width=".7556335299999999" stroke-linecap="round" stroke-linejoin="round" stroke-miterlimit="10"/><path d="M27.549 50.465c.092.131.248.418.469.861.22.443.398.805.534 1.086.199.41.52.98.965 1.71M33.466 48.261l-.018-.124-.001.118v1.925c0 1.203.038 2.39.116 3.562M35.457 54.071v.085M39.298 49.595a.667.667 0 00-.041-.392 1.55 1.55 0 00-.145-.256.577.577 0 00-.231-.199.62.62 0 00-.327-.049c-.125.012-.261.083-.408.212a2.2 2.2 0 00-.412.508c-.127.209-.236.47-.326.782-.09.313-.143.688-.161 1.124-.018.436.03.847.148 1.234.117.387.276.681.476.884.2.202.424.319.668.349.245.03.489-.047.732-.23s.426-.446.55-.789c.124-.342.197-.731.22-1.167a4.49 4.49 0 00-.06-1.109c-.062-.303-.148-.542-.257-.717a1.052 1.052 0 00-.708-.484M59.261 14.312c.448-.185 1.047-.207 1.797-.066M64.417 12.434c.029-.096-.024-.173-.159-.23a.931.931 0 00-.3-.09.817.817 0 00-.217.026.495.495 0 00-.24.168 1.76 1.76 0 00-.208.288c-.057.1-.122.263-.195.49a5.144 5.144 0 00-.246 1.323c-.01.21-.001.404.027.584.028.18.1.348.216.504a1.346 1.346 0 00.95.543c.185.02.366-.002.543-.064.176-.063.329-.173.457-.331.128-.159.218-.346.27-.562.05-.216.08-.455.089-.715a3.526 3.526 0 00-.064-.785 4.035 4.035 0 00-.196-.7 2.16 2.16 0 00-.252-.486 1.501 1.501 0 00-.397-.397M66.411 15.42l-.13-.033M67.812 12.217c-.077-.003-.117-.04-.118-.112 0-.05.02-.116.066-.199.045-.083.1-.162.166-.237.066-.076.15-.144.25-.203.1-.06.205-.104.316-.132a.836.836 0 01.303-.028.29.29 0 01.22.148.842.842 0 01.109.339c.017.138.027.275.029.412.001.136-.005.258-.021.366a1.16 1.16 0 01-.06.25.36.36 0 01-.083.134l-.068.062c-.013.013 0 .019.042.019h.21c.098 0 .203.004.316.011a.717.717 0 01.332.108c.108.066.207.153.299.263a1.566 1.566 0 01.343.755c.022.14.021.277-.003.414-.023.136-.107.276-.252.419-.145.142-.34.272-.587.39a2.753 2.753 0 01-.756.238c-.378.06-.724-.043-1.037-.309M60.746 59.69c.258.04.744-.002 1.456-.123" fill="none" stroke="#fff" stroke-width=".7556335299999999" stroke-linecap="round" stroke-linejoin="round" stroke-miterlimit="10"/><path d="M61.64 57.759c-.007.79-.003 1.335.011 1.635.015.304.072.695.171 1.173M65.057 57.795c-.052-.227-.142-.39-.268-.487a.64.64 0 00-.335-.12.868.868 0 00-.304.008c-.066.02-.157.101-.274.245a1.96 1.96 0 00-.299.553 3.08 3.08 0 00-.165.792c-.028.303-.025.607.008.913.033.305.118.58.253.823.136.244.291.447.466.611.175.164.36.263.556.3.196.035.376 0 .541-.107a1.07 1.07 0 00.389-.467 2.13 2.13 0 00.174-.72c.023-.276.02-.552-.007-.829a4.62 4.62 0 00-.123-.722 3.621 3.621 0 00-.143-.45.263.263 0 00-.197-.169M67.055 60.56a127.76 127.76 0 00-.019.126c0-.004-.01-.05-.03-.135M69.502 57.543c.013-.24-.012-.394-.076-.466a.625.625 0 00-.222-.14.74.74 0 00-.255-.07c-.066-.001-.132.03-.199.094a1.267 1.267 0 00-.215.325c-.078.152-.151.337-.22.556-.07.22-.128.445-.173.677a4.175 4.175 0 00-.08.649c-.008.2.025.393.099.579a.928.928 0 00.374.445c.175.112.37.177.585.196.215.018.419-.02.611-.112a.978.978 0 00.449-.438c.106-.2.169-.45.19-.747a3.035 3.035 0 00-.073-.894 5.22 5.22 0 00-.234-.773 2.662 2.662 0 00-.516-.831M88.565 12.41c.066.013.266-.063.598-.228.195-.098.392-.192.592-.282.2-.09.439-.194.714-.31.405-.17.943-.354 1.615-.55" fill="none" stroke="#fff" stroke-width=".7556335299999999" stroke-linecap="round" stroke-linejoin="round" stroke-miterlimit="10"/><path d="M89.95 10.117c.049.357.121.676.217.957.064.19.138.384.222.584.123.29.303.774.541 1.452M96.356 11.658a2.054 2.054 0 00-.226-.38.576.576 0 00-.17-.13.884.884 0 00-.27-.085 2.017 2.017 0 00-.374-.023 1.35 1.35 0 00-.414.074 1.643 1.643 0 00-.396.203c-.13.089-.262.214-.398.375a3.727 3.727 0 00-.397.591c-.13.233-.231.471-.304.714a3.316 3.316 0 00-.136.72c-.017.236-.003.486.04.748.044.262.12.506.229.73.108.224.218.394.33.51.112.117.278.209.497.276.219.068.43.1.632.097.203-.003.405-.054.607-.153.201-.1.38-.228.538-.385.158-.157.301-.345.43-.563.129-.218.237-.439.325-.66a4.024 4.024 0 00.285-1.43 1.984 1.984 0 00-.097-.706 1.179 1.179 0 00-.274-.472.693.693 0 00-.36-.195.625.625 0 00-.531.157M97.39 16.378l-.04-.081M102.83 15.018c.01-.236.004-.39-.017-.463a.374.374 0 00-.09-.147.78.78 0 00-.178-.138 1.173 1.173 0 00-.58-.159 1.491 1.491 0 00-.836.215c-.149.088-.295.203-.438.345a5.768 5.768 0 00-.832 1.06c-.128.208-.24.428-.337.661-.097.233-.165.47-.203.71-.039.242-.047.47-.024.687.023.218.087.403.193.558.105.154.225.266.36.338.133.071.26.111.38.12.119.01.275-.016.468-.078.192-.062.367-.149.524-.261.157-.113.28-.233.368-.363a1.01 1.01 0 00.167-.38.913.913 0 00.009-.327.373.373 0 00-.162-.24c-.09-.065-.21-.12-.36-.165a3.592 3.592 0 00-.437-.103 2.727 2.727 0 00-.4-.04 1.2 1.2 0 00-.322.033c-.135.035-.217.107-.246.216M86.07 51.718c.115-.18.302-.597.56-1.25.237-.602.51-1.076.82-1.422" fill="none" stroke="#fff" stroke-width=".7556335299999999" stroke-linecap="round" stroke-linejoin="round" stroke-miterlimit="10"/><path d="M85.754 49.816c.456.303.793.538 1.01.704.217.168.512.387.883.657M90.573 47.483a.52.52 0 00-.147-.274.453.453 0 00-.193-.09.935.935 0 00-.436-.011c-.068.014-.162.07-.282.169-.12.098-.227.233-.321.404-.095.172-.17.354-.229.547a2.558 2.558 0 00-.102.612c-.01.215.025.446.106.695.08.248.2.498.358.75.158.25.345.466.561.646.216.18.45.316.704.409.253.092.488.139.704.138.215 0 .382-.048.5-.145.119-.097.217-.317.297-.663a4.13 4.13 0 00.109-1.014 3.466 3.466 0 00-.134-.916 4.333 4.333 0 00-.303-.764 2.841 2.841 0 00-.352-.547 1.007 1.007 0 00-.322-.268c-.145-.066-.276-.063-.393.01M93.363 50.295a83.185 83.185 0 01-.127-.097M95.414 45.092a.828.828 0 01-.095.378 1.41 1.41 0 01-.153.224 1.227 1.227 0 01-.799.435c-.099.013-.184.02-.255.022a.392.392 0 01-.178-.033l-.078-.037a2.734 2.734 0 01.055.014.37.37 0 01.137.103c.058.06.118.138.182.235.064.098.126.207.188.328.061.121.129.272.203.455.074.182.129.322.165.421.037.1.07.15.102.15.031.002.064-.022.097-.071.033-.05.079-.106.138-.172a1.09 1.09 0 01.205-.176.807.807 0 01.245-.111c.085-.023.172-.037.26-.044.088-.008.172-.009.253-.005.081.005.163.026.246.065.084.038.17.093.26.165.09.072.179.164.265.277a2.12 2.12 0 01.369.779c.03.136.04.289.028.457a1.326 1.326 0 01-.156.519 1.655 1.655 0 01-.367.472c-.152.136-.314.22-.486.253s-.282.05-.33.05c-.07.001-.229-.204-.48-.616M148.852 32.576c.259-.402.485-.743.677-1.023.131-.19.299-.419.504-.686.205-.267.422-.525.651-.775.338-.367.774-.778 1.31-1.23" fill="none" stroke="#fff" stroke-width=".7556335299999999" stroke-linecap="round" stroke-linejoin="round" stroke-miterlimit="10"/><path d="M149.432 29.2c.085.01.206.12.363.328.1.13.34.54.722 1.226.383.686.74 1.308 1.072 1.864M155.338 26.321v-.068h0l.002.02.035.413a28.255 28.255 0 01.097 2.05c.007.588.005 1.672-.006 3.251M157.68 31.868l-.099.41M161.746 27.404c.031-.236.045-.388.041-.456-.003-.047-.06-.092-.17-.136a.892.892 0 00-.311-.068.739.739 0 00-.343.102c-.133.07-.275.175-.427.318a2.85 2.85 0 00-.43.524 3.785 3.785 0 00-.353.693 2.873 2.873 0 00-.099 1.8c.088.342.225.64.413.892a1.714 1.714 0 001.393.721c.247-.002.472-.084.676-.247.204-.162.37-.389.496-.68.127-.292.21-.606.25-.943a4.03 4.03 0 00-.002-.975 2.453 2.453 0 00-.254-.838c-.19-.362-.533-.652-1.031-.871M115.882 37.085c.72-.006 1.232.012 1.534.054" fill="none" stroke="#fff" stroke-width=".7556335299999999" stroke-linecap="round" stroke-linejoin="round" stroke-miterlimit="10"/><path d="M116.752 35.784c.005.164.02.358.043.583.022.211.065.76.127 1.649M120.496 35.431a1.182 1.182 0 00-.054-.267.209.209 0 00-.083-.085.639.639 0 00-.237-.065 1.31 1.31 0 00-.287-.013.58.58 0 00-.242.086 1.08 1.08 0 00-.26.233 3.07 3.07 0 00-.243.332 2.07 2.07 0 00-.312.89 4.087 4.087 0 00-.026.589c.005.205.041.398.11.58.068.182.156.331.264.448.108.118.226.203.355.256.129.053.27.085.423.098a1.015 1.015 0 00.88-.347 1.7 1.7 0 00.332-.605c.089-.259.148-.53.178-.813.03-.284.04-.53.03-.74a1.004 1.004 0 00-.16-.523.899.899 0 00-.335-.306.977.977 0 00-.352-.11c-.154-.012-.269.055-.345.203M122.38 37.868l-.185-.024M123.587 35.914a.939.939 0 01-.09-.335 2.761 2.761 0 01-.01-.293.67.67 0 01.046-.224.884.884 0 01.12-.215c.052-.067.107-.13.165-.187.058-.058.114-.104.168-.138a.423.423 0 01.147-.065.286.286 0 01.12 0c.035.01.085.078.15.208a2.295 2.295 0 01.22.643 3.312 3.312 0 01.072.679c.001.122-.013.26-.042.415a3.077 3.077 0 01-.332.924c-.08.146-.166.275-.256.387a1.03 1.03 0 01-.26.24.531.531 0 01-.208.082c-.054.006-.09-.02-.11-.074a.407.407 0 01-.008-.207.38.38 0 01.107-.209.382.382 0 01.185-.108.254.254 0 01.192.033.767.767 0 01.197.184 1.674 1.674 0 00.504.422c.084.044.197.083.34.116.144.033.274.052.392.055.172.005.403-.086.692-.274" fill="none" stroke="#fff" stroke-width=".7556335299999999" stroke-linecap="round" stroke-linejoin="round" stroke-miterlimit="10"/></svg>