<svg xmlns="http://www.w3.org/2000/svg" width="66.479" height="57.942"><path d="M.378 31.218h63.33M32.12 31.267V2.437M30.122 2.904c-.06.114-.096.195-.108.246a68.678 68.678 0 00-.009.048l.091-.176a7.838 7.838 0 01.488-.815 6.595 6.595 0 011.042-1.199c.104-.09.254-.2.45-.332a6.19 6.19 0 01.378-.243.458.458 0 01.176-.054c.062-.006.134.029.217.103.084.075.183.188.297.34.115.152.232.333.352.544.174.306.48.813.916 1.52M64.929 29.91l-.022-.05c-.001-.003.008.004.028.02l.189.163c.106.091.203.176.29.255.086.079.172.161.255.249.084.087.159.184.225.292.065.108.115.224.148.349.033.124.053.26.058.407.006.148-.02.3-.077.457a2.16 2.16 0 01-.229.45 4.25 4.25 0 01-.32.422c-.171.2-.451.483-.84.848M17.055 30.144c-.006.397-.003.764.008 1.103.01.328-.013.99-.072 1.984M13.687 36.612c.119.078.24.13.365.157.083.019.213.031.388.038.261.01.53.02.803.034M17.35 35.323c-.008.692-.02 1.427-.039 2.206M32.713 34.15c-.038-.139-.079-.232-.124-.28a.513.513 0 00-.119-.09.698.698 0 00-.181-.066 1.525 1.525 0 00-.243-.036c-.09-.006-.186 0-.289.018a.706.706 0 00-.329.183 1.59 1.59 0 00-.322.42 2.525 2.525 0 00-.327 1.165c-.008.213.019.428.081.644.062.217.15.397.266.54.114.141.25.233.405.274.156.04.317.029.483-.034.165-.064.312-.173.439-.33.127-.156.224-.329.29-.518.065-.189.104-.369.115-.54a1.393 1.393 0 00-.258-.91.918.918 0 00-.277-.256 1.697 1.697 0 00-.455-.172M32.19 30.672c-.049.064-.067.233-.055.506.01.244.057.702.139 1.374M47.774 30.45c-.031.171-.047.354-.047.548 0 .28.002.799.008 1.554M44.83 35.942c.126.03.271.045.435.044.242-.002.506-.042.793-.12" fill="none" stroke="#fff" stroke-width=".7556335299999999" stroke-linecap="round" stroke-linejoin="round" stroke-miterlimit="10"/><path d="M45.677 34.745a14.527 14.527 0 00.032 1.292c.018.265.027.61.027 1.036M47.944 34.615c-.043.267-.071 1.098-.085 2.494" fill="none" stroke="#fff" stroke-width=".7556335299999999" stroke-linecap="round" stroke-linejoin="round" stroke-miterlimit="10"/><path d="M.378 31.218l31.742.05M32.12 31.267L62.523 1.344" fill="none" stroke="#7ec636" stroke-width=".7556335299999999" stroke-linecap="round" stroke-linejoin="round" stroke-miterlimit="10"/><path d="M30.982 16.013a.741.741 0 01.246-.077c.098-.015.226-.03.383-.043.226-.02.725-.014 1.497.015M34.295 16.072c.36-.11.716-.203 1.068-.282" fill="none" stroke="#fff" stroke-width=".7556335299999999" stroke-linecap="round" stroke-linejoin="round" stroke-miterlimit="10"/><path d="M34.93 14.67c0 .335.015.673.043 1.013.043.525.073.963.09 1.313M36.652 14.689c.105.37.18.717.221 1.043.041.32.06.792.053 1.416" fill="none" stroke="#fff" stroke-width=".7556335299999999" stroke-linecap="round" stroke-linejoin="round" stroke-miterlimit="10"/><path d="M9.545 47.852c-.076-.036-.135-.01-.179.075a.935.935 0 00-.072.281 4.574 4.574 0 00-.025.575c0 .256.026.5.077.734.05.233.116.472.196.718.08.245.172.47.277.672.105.203.219.36.342.469.124.11.257.17.4.18.143.011.284-.045.424-.17.14-.124.284-.291.433-.502.218-.308.487-.749.809-1.322" fill="none" stroke="#7ec636" stroke-width=".7556335299999999" stroke-linecap="round" stroke-linejoin="round" stroke-miterlimit="10"/><path d="M12.517 48.399c.031-.206.015-.303-.05-.293-.045.007-.097.06-.155.156a1.52 1.52 0 00-.15.38 3.199 3.199 0 00-.091.531c-.018.197-.029.655-.03 1.374-.003.72-.001 1.318.003 1.795.004.477.02.968.048 1.472.039.73.112 1.98.218 3.75" fill="none" stroke="#7ec636" stroke-width=".7556335299999999" stroke-linecap="round" stroke-linejoin="round" stroke-miterlimit="10"/><path d="M16.517 48.675a18.192 18.192 0 011.315-.084c.218-.005.453.033.705.115M16.285 50.548c.392.086.75.142 1.071.168.318.026.744-.017 1.278-.129" fill="none" stroke="#fefefe" stroke-width=".7556335299999999" stroke-linecap="round" stroke-linejoin="round" stroke-miterlimit="10"/><path d="M54.348 1.303a.45.45 0 00-.08.186c-.013.07-.02.16-.022.271-.001.111.018.235.056.371.039.137.09.262.154.377.064.115.138.21.222.284a.612.612 0 00.264.144c.132.032.375-.07.728-.305M56.164 1.665c-.076-.063-.122-.017-.14.139a6.222 6.222 0 00-.033.497c-.005.175-.009.499-.01.97 0 .47-.002.843-.004 1.117-.002.275-.008.51-.018.706-.015.303-.035.552-.06.749" fill="none" stroke="#7ec636" stroke-width=".7556335299999999" stroke-linecap="round" stroke-linejoin="round" stroke-miterlimit="10"/><path d="M21.399 47.919c-.026-.089-.054-.126-.083-.112-.021.01-.024.1-.01.269.015.168.049.349.103.54.055.193.11.417.17.673.057.256.128.601.212 1.036a75.444 75.444 0 01.183.973v-.08c0-.05-.015-.16-.046-.333-.031-.172-.06-.354-.084-.547a7.87 7.87 0 01-.048-.779c-.008-.326-.01-.601-.009-.827.003-.225.018-.407.047-.546.03-.138.062-.238.099-.297.036-.06.078-.096.126-.106.047-.01.1.013.16.073s.123.151.19.275c.066.124.134.27.203.436.07.167.136.337.198.51.062.174.12.32.171.439.053.118.096.198.13.239.034.04.063.056.085.046.023-.01.071-.197.144-.56.073-.364.15-.65.232-.86.081-.21.176-.4.283-.57.107-.171.209-.309.307-.413.097-.104.178-.164.243-.182.065-.018.115.033.15.152.036.12.058.28.067.483.009.202.013.426.014.67.001.245.01.498.027.762.017.263.063.512.137.746.074.234.168.42.284.56.116.14.25.224.401.255.218.043.476-.108.776-.453M27.85 48.057a.57.57 0 00-.202-.28.742.742 0 00-.185-.122.628.628 0 00-.168-.04.869.869 0 00-.199.004c-.07.01-.137.053-.205.13a1.13 1.13 0 00-.183.335 1.96 1.96 0 00-.109.526 2.793 2.793 0 00.246 1.361c.103.213.22.376.351.489a.675.675 0 00.412.18.59.59 0 00.378-.106c.108-.076.23-.247.367-.513.135-.266.24-.541.31-.826a7.28 7.28 0 00.21-1.293c.006-.12.007-.19.005-.21-.003-.02-.006-.035-.006-.043-.002-.008-.008 0-.02.024-.01.025-.03.067-.058.126-.027.06-.053.166-.076.32-.023.152-.035.32-.035.501 0 .182.028.362.084.54.055.177.122.32.2.43.113.16.3.273.562.34M29.672 50.498a.645.645 0 00.178-.165c.065-.081.154-.204.266-.37.113-.164.245-.345.396-.543a11.827 11.827 0 011.536-1.627c.237-.205.516-.44.835-.706" fill="none" stroke="#fefefe" stroke-width=".7556335299999999" stroke-linecap="round" stroke-linejoin="round" stroke-miterlimit="10"/><path d="M30.686 47.2c.214.34.425.667.63.978.139.209.29.442.453.699.239.375.592.96 1.06 1.754M37.268 44.11c.05-.063.027-.1-.07-.108a.472.472 0 00-.264.08c-.105.06-.239.182-.401.364-.163.183-.34.414-.533.696a5.539 5.539 0 00-.527.991c-.16.38-.28.807-.364 1.279a7.361 7.361 0 00-.101 1.507c.016.533.12 1.048.312 1.544.28.724.939 1.547 1.978 2.467M40.592 46.466a.293.293 0 00-.104-.29.582.582 0 00-.29-.109 1.099 1.099 0 00-.343-.006 1.085 1.085 0 00-.33.124c-.124.067-.25.153-.378.259-.128.105-.25.245-.366.42a3.493 3.493 0 00-.316.603c-.094.228-.16.468-.198.72a3.837 3.837 0 00-.041.749c.01.247.072.468.184.664s.252.344.42.443c.168.1.357.157.567.171.21.015.435-.029.675-.131.24-.102.47-.252.69-.45.22-.2.398-.421.536-.665.138-.245.229-.501.274-.77.045-.268.046-.542.003-.822a1.774 1.774 0 00-.307-.762c-.16-.228-.325-.39-.494-.485a.926.926 0 00-.747-.1M43.084 49.825c.073.094.128.18.166.26.025.054.053.13.081.23.029.1.052.245.07.436.025.277-.094.679-.358 1.205M46.678 49.483c.114-.167.299-.38.555-.64.257-.26.493-.492.707-.694.312-.293.862-.786 1.651-1.478" fill="none" stroke="#fefefe" stroke-width=".7556335299999999" stroke-linecap="round" stroke-linejoin="round" stroke-miterlimit="10"/><path d="M47.1 46.718a.68.68 0 01.244.158c.102.09.204.187.306.29.102.104.233.246.392.427.16.182.32.403.479.665.234.382.5.935.796 1.657M52.12 44.16c.153.117.309.272.467.464.104.127.208.277.31.451.102.174.203.403.303.686.1.283.185.605.257.966a10.752 10.752 0 01.213 1.994c.006.326-.022.65-.083.972a4.092 4.092 0 01-.303.943c-.14.305-.285.583-.436.831-.22.363-.648.834-1.287 1.415" fill="none" stroke="#fefefe" stroke-width=".7556335299999999" stroke-linecap="round" stroke-linejoin="round" stroke-miterlimit="10"/></svg>