<svg xmlns="http://www.w3.org/2000/svg" width="169.728" height="77.528"><path d="M5.287 21.04a6.302 6.302 0 00-.42-.691 1.144 1.144 0 00-.227-.23c-.083-.063-.232-.123-.446-.18a3.065 3.065 0 00-.673-.103 2.087 2.087 0 00-.726.104c-.25.08-.505.226-.767.44a4.166 4.166 0 00-.735.792c-.228.315-.42.66-.576 1.034-.155.375-.259.771-.31 1.19a4.17 4.17 0 00.054 1.31c.088.452.236.853.446 1.2.21.348.458.62.745.815.286.196.595.317.926.365.331.048.69.028 1.077-.06.387-.087.763-.278 1.128-.573.365-.294.678-.664.94-1.11.263-.444.446-.896.549-1.355.103-.46.139-.899.108-1.319a3.549 3.549 0 00-.285-1.176 4.225 4.225 0 00-.529-.916A2.367 2.367 0 005 20.032c-.264-.168-.455-.18-.573-.038M8.326 25.093l.12-.39M14.01 19.107c-.068-.087-.33-.152-.786-.197a11.305 11.305 0 00-1.035-.043c-.412-.002-.624.072-.636.222-.013.15-.01.308.005.476.016.167.04.344.07.53.03.184.094.44.194.765.1.326.168.565.206.718.037.153.06.364.07.632.01.269.008.432-.004.489l-.02.09v.003-.005l.024-.133a.54.54 0 01.12-.247.747.747 0 01.266-.199 2.777 2.777 0 01.795-.232c.147-.02.287-.031.422-.033a.797.797 0 01.387.093c.123.064.246.15.371.257.126.107.233.212.322.316.09.103.183.248.28.435.097.188.158.378.184.57.026.192.02.403-.018.631a1.91 1.91 0 01-.268.685c-.14.228-.33.437-.57.624-.24.188-.51.318-.813.388a2.44 2.44 0 01-.83.064c-.25-.029-.437-.115-.559-.26-.176-.209-.219-.54-.128-.994M5.177 65.138a2.963 2.963 0 00-.417-.533.867.867 0 00-.319-.182 1.778 1.778 0 00-.486-.079 5.126 5.126 0 00-.646.017 3.53 3.53 0 00-.71.135 2.73 2.73 0 00-.687.315c-.221.14-.421.33-.6.57-.18.239-.325.534-.435.883-.11.35-.178.75-.206 1.2-.027.45-.007.91.058 1.377.066.468.199.906.399 1.316.2.41.432.753.698 1.032.266.278.563.484.89.616.329.133.679.205 1.05.219a2.13 2.13 0 001.095-.269c.359-.192.691-.489.997-.89.306-.403.543-.81.71-1.225a4.67 4.67 0 00.319-1.258c.045-.424.045-.844.002-1.262a2.698 2.698 0 00-.32-1.069c-.17-.296-.394-.49-.672-.584a1.812 1.812 0 00-.853-.076c-.443.065-.738.19-.884.375M9.79 71.308l-.257-.107M14.384 65.135c-.02-.242-.057-.422-.11-.539a.83.83 0 00-.17-.234.684.684 0 00-.283-.169 1.48 1.48 0 00-.374-.065c-.136-.007-.27.011-.4.054a.73.73 0 00-.336.235c-.094.113-.161.25-.203.41-.041.16-.065.443-.07.85-.005.408.025.696.09.865a2.125 2.125 0 00.591.852c.13.115.376.282.737.5.36.22.635.4.823.54.188.14.354.286.498.437.144.151.264.313.359.485.095.173.16.346.198.52.037.175.057.34.06.493.005.154-.021.301-.077.442a1.18 1.18 0 01-.285.407c-.135.13-.3.24-.494.33-.194.089-.41.148-.647.178-.236.03-.47.035-.699.018a1.77 1.77 0 01-.62-.156c-.184-.087-.34-.2-.468-.342a1.115 1.115 0 01-.258-.522 2.505 2.505 0 01-.056-.627 1.6 1.6 0 01.14-.6c.085-.19.188-.36.31-.507a4.391 4.391 0 01.886-.818c.188-.134.39-.282.606-.444.216-.163.419-.337.61-.523.19-.185.339-.38.447-.583a1.66 1.66 0 00.19-.656 1.274 1.274 0 00-.139-.682 1.78 1.78 0 00-.497-.594 8.704 8.704 0 00-1.276-.81" fill="none" stroke="#ffd300" stroke-width=".7556335299999999" stroke-linecap="round" stroke-linejoin="round" stroke-miterlimit="10"/><path d="M67.896 14.652c.07-.287.092-.478.07-.573-.016-.066-.092-.143-.229-.232a1.78 1.78 0 00-.576-.218 6.435 6.435 0 00-.932-.124 15.286 15.286 0 00-1.302-.029 8.425 8.425 0 00-1.604.193 24.84 24.84 0 00-1.738.433 8.975 8.975 0 00-1.586.613c-.475.24-.906.578-1.291 1.013-.386.435-.728 1.054-1.026 1.857-.298.804-.491 1.758-.579 2.863-.087 1.105-.029 2.298.176 3.579.204 1.28.57 2.5 1.094 3.659.526 1.158 1.176 2.162 1.951 3.012.776.85 1.629 1.46 2.56 1.83.932.372 1.92.588 2.965.651a8.99 8.99 0 003.083-.348 6.992 6.992 0 002.65-1.424 7.307 7.307 0 001.793-2.32c.44-.893.725-1.88.857-2.963.133-1.082.125-2.11-.022-3.082s-.491-1.988-1.032-3.048a17.513 17.513 0 00-1.937-2.998 68.323 68.323 0 00-2.09-2.5c-.642-.727-1.196-1.24-1.66-1.537-.664-.423-1.33-.276-1.998.442M68.505 60.097a2.357 2.357 0 00-.578-.338 9.444 9.444 0 00-.653-.241 6.913 6.913 0 00-.979-.244 8.75 8.75 0 00-1.222-.126 4.829 4.829 0 00-1.401.167 5.718 5.718 0 00-1.49.64 7.14 7.14 0 00-1.459 1.181c-.471.488-.905 1.099-1.301 1.834a10.24 10.24 0 00-.919 2.415 9.142 9.142 0 00-.263 2.63c.041.879.238 1.75.59 2.613a9.74 9.74 0 001.501 2.486 13.891 13.891 0 002.117 2.098c.762.605 1.519 1.039 2.271 1.301a6.342 6.342 0 002.35.348 4.8 4.8 0 002.264-.651c.695-.404 1.283-.988 1.764-1.751.482-.763.874-1.672 1.177-2.726.303-1.054.498-2.095.586-3.122a10.002 10.002 0 00-.16-2.927 6.743 6.743 0 00-1.047-2.477c-.504-.727-1.038-1.301-1.603-1.722-.565-.421-1.086-.72-1.564-.897-.478-.178-.882-.286-1.211-.325-.474-.055-.768.084-.88.418" fill="none" stroke="#007aff" stroke-width="1.32290413" stroke-linecap="round" stroke-linejoin="round" stroke-miterlimit="10"/><path d="M77.61 23.235c-.029-.166-.003-.258.076-.274.056-.012.157-.014.302-.005.146.008.5.078 1.062.21.563.131 1.04.24 1.43.325.392.086.816.172 1.273.26.457.088.953.186 1.488.294.535.108 1.093.246 1.673.413.58.168 1.193.367 1.84.598.646.231 1.33.48 2.054.747l2.21.814c.751.275 1.521.6 2.31.975.79.375 1.6.77 2.431 1.183.832.414 1.66.876 2.487 1.386.826.51 1.65 1.038 2.474 1.586.824.548 1.62 1.112 2.387 1.693.768.58 1.461 1.146 2.08 1.696.92.817 1.919 1.756 2.997 2.82M76.439 66.747c.038.053.136.079.293.077.157-.002.34-.027.55-.076.21-.048.43-.093.658-.134.229-.041.604-.093 1.125-.155l1.416-.167c.422-.05.862-.104 1.32-.162.457-.059 1-.137 1.627-.234a65.8 65.8 0 001.459-.24 64.379 64.379 0 002.085-.415c.27-.06.598-.143.984-.246.386-.103.816-.228 1.291-.375.476-.147.913-.287 1.313-.42.4-.133 1.154-.419 2.262-.857 1.107-.439 1.927-.783 2.458-1.034.532-.25 1.07-.521 1.612-.812.543-.29 1.08-.566 1.613-.827.532-.26 1.052-.52 1.561-.777.51-.258 1.022-.54 1.539-.845a48.358 48.358 0 001.522-.939c.497-.32.987-.675 1.47-1.067.482-.392.976-.826 1.482-1.305.833-.786 1.385-1.305 1.657-1.556" fill="none" stroke="#7ec636" stroke-width="1.32290413" stroke-linecap="round" stroke-linejoin="round" stroke-miterlimit="10"/><path d="M124.178 37.76a1.675 1.675 0 00-.52-.397c-.129-.062-.317-.098-.565-.109a4.837 4.837 0 00-.923.07 6.561 6.561 0 00-1.218.328c-.443.161-.922.355-1.436.58-.514.226-1.046.497-1.596.812a6.882 6.882 0 00-1.548 1.231 9.344 9.344 0 00-1.324 1.802c-.4.696-.719 1.458-.955 2.286a9.373 9.373 0 00-.372 2.441c-.012.8.145 1.558.47 2.275a8.048 8.048 0 001.356 2.043 7.936 7.936 0 001.92 1.581 6.693 6.693 0 002.235.819 6.66 6.66 0 002.45-.045 6.425 6.425 0 002.38-1.004 7.559 7.559 0 001.935-1.917 11.67 11.67 0 001.294-2.322 7.556 7.556 0 00.558-2.306c.056-.764-.045-1.556-.303-2.374-.258-.819-.653-1.653-1.186-2.501-.533-.849-1.007-1.483-1.421-1.903-.415-.42-.9-.76-1.457-1.02-.828-.386-1.566-.437-2.216-.153" fill="none" stroke="#007aff" stroke-width="1.32290413" stroke-linecap="round" stroke-linejoin="round" stroke-miterlimit="10"/><path d="M20.661 22.753c-.104-.035-.16-.076-.165-.123-.004-.034.165-.094.507-.182.343-.089.705-.169 1.088-.242.382-.073.813-.14 1.291-.202a27.146 27.146 0 011.568-.152c.566-.04 1.501-.087 2.804-.142a557.04 557.04 0 013.034-.12c.72-.027 1.47-.048 2.25-.064.78-.017 1.57-.029 2.365-.037.796-.008 1.998-.013 3.604-.014 1.607 0 2.814.007 3.623.024.809.017 1.635.033 2.478.048.844.015 1.679.044 2.505.087.826.042 1.55.12 2.171.232a11.93 11.93 0 012.792.886M20.321 67.73c.235-.054.536-.082.903-.086a79.111 79.111 0 002.1-.052l1.488-.054a212.208 212.208 0 013.49-.092 404.5 404.5 0 015.033-.02c2.744-.001 4.514.002 5.31.008a161.456 161.456 0 014.933.122c.81.033 1.583.063 2.321.09.739.027 1.438.059 2.098.096.97.054 2.201.262 3.695.625M136.931 45.923l-.14-.038a.543.543 0 01.122-.016 4380.263 4380.263 0 002.26-.223c.403-.04.877-.091 1.422-.153.544-.061 1.147-.127 1.809-.198a75.51 75.51 0 012.169-.198c.784-.06 1.623-.108 2.518-.14.895-.034 1.81-.059 2.747-.076a476.364 476.364 0 015.95-.073c1.061-.007 2.102-.014 3.122-.018 1.02-.004 2.027-.01 3.02-.017.994-.007 1.931-.01 2.813-.012 1.307-.001 2.748.2 4.323.602" fill="none" stroke="#7ec636" stroke-width="1.32290413" stroke-linecap="round" stroke-linejoin="round" stroke-miterlimit="10"/><path d="M26.112 16.066a9.16 9.16 0 00.603-.854c.31-.489.964-1.412 1.962-2.77" fill="none" stroke="#fff" stroke-width=".7556335299999999" stroke-linecap="round" stroke-linejoin="round" stroke-miterlimit="10"/><path d="M26.112 12.878c.083.006.191.071.324.197.133.125.29.297.474.515l.607.716c.322.377.751.989 1.288 1.833M32.72 11.577a.955.955 0 00-.053-.535 1.407 1.407 0 00-.216-.386 1.237 1.237 0 00-.283-.28.913.913 0 00-.32-.128 1.245 1.245 0 00-.4-.013.914.914 0 00-.434.187 1.825 1.825 0 00-.41.438 2.595 2.595 0 00-.325.722c-.09.298-.149.644-.177 1.04a8.16 8.16 0 00.008 1.217c.032.415.116.815.251 1.2s.302.719.502 1.001c.199.283.414.497.646.645.232.147.462.24.69.276.23.037.448.008.657-.088.21-.096.401-.293.576-.591.175-.3.314-.654.415-1.066.102-.411.168-.822.2-1.233.032-.411.033-.794.001-1.15-.046-.52-.301-1.025-.766-1.514M36.193 16.076l-.149-.17M38.784 12.211c-.02.09-.093.127-.217.111-.087-.01-.156-.062-.209-.153-.052-.09-.1-.21-.14-.357a3.588 3.588 0 01-.097-.499 4.872 4.872 0 01-.039-.56c-.002-.188.02-.353.069-.494a.806.806 0 01.176-.314.446.446 0 01.23-.127.466.466 0 01.258.025.666.666 0 01.266.215c.09.11.172.265.25.468.076.204.138.442.183.717.046.274.074.563.085.867.012.303.004.634-.024.991-.028.358-.09.728-.185 1.11a9.065 9.065 0 01-.308 1.007c-.109.289-.21.513-.305.674-.094.161-.171.264-.232.308-.061.045-.11.065-.15.06-.038-.006-.066-.044-.082-.115a1.174 1.174 0 01-.028-.247.583.583 0 01.036-.232c.025-.06.067-.098.124-.11.057-.012.135.039.233.153.099.115.222.253.37.415.149.163.319.305.51.427.192.122.396.209.61.26.216.05.417.078.605.083.188.006.355-.028.503-.102a.947.947 0 00.35-.285c.128-.174.243-.36.346-.558M27.357 63.237a6.53 6.53 0 01.443-.78c.213-.334.411-.633.596-.897.185-.265.377-.508.576-.731.3-.336.617-.595.953-.778" fill="none" stroke="#fff" stroke-width=".7556335299999999" stroke-linecap="round" stroke-linejoin="round" stroke-miterlimit="10"/><path d="M27.549 59.897c.092.132.248.419.469.862.22.443.398.804.534 1.085.199.41.52.98.965 1.711M33.466 57.693l-.018-.123-.001.117v1.925c0 1.203.038 2.39.116 3.562M35.457 63.504v.085M39.298 59.028a.667.667 0 00-.041-.393 1.55 1.55 0 00-.145-.255.577.577 0 00-.231-.2.62.62 0 00-.327-.048c-.125.011-.261.082-.408.212a2.2 2.2 0 00-.412.507c-.127.209-.236.47-.326.783-.09.312-.143.687-.161 1.123-.018.436.03.848.148 1.234.117.387.276.682.476.884.2.203.424.319.668.349.245.03.489-.047.732-.23s.426-.446.55-.788c.124-.343.197-.732.22-1.168a4.49 4.49 0 00-.06-1.108c-.062-.304-.148-.543-.257-.718a1.052 1.052 0 00-.708-.484M59.261 23.744c.448-.184 1.047-.206 1.797-.066M64.417 21.866c.029-.096-.024-.173-.159-.23a.931.931 0 00-.3-.09.817.817 0 00-.217.026.495.495 0 00-.24.168 1.76 1.76 0 00-.208.288c-.057.1-.122.263-.195.49a5.144 5.144 0 00-.246 1.323c-.01.21-.001.405.027.584.028.18.1.348.216.505a1.346 1.346 0 00.95.543c.185.02.366-.003.543-.065.176-.063.329-.173.457-.331.128-.158.218-.345.27-.562.05-.216.08-.454.089-.715a3.526 3.526 0 00-.064-.785 4.035 4.035 0 00-.196-.7 2.16 2.16 0 00-.252-.486 1.501 1.501 0 00-.397-.397M66.411 24.852l-.13-.033M67.812 21.65c-.077-.004-.117-.041-.118-.112 0-.05.02-.117.066-.2.045-.082.1-.161.166-.237.066-.076.15-.143.25-.203.1-.06.205-.103.316-.132a.836.836 0 01.303-.028.29.29 0 01.22.148.842.842 0 01.109.34c.017.137.027.274.029.41.001.137-.005.26-.021.367a1.16 1.16 0 01-.06.251.36.36 0 01-.083.133l-.068.063c-.013.012 0 .018.042.018h.21c.098.001.203.005.316.012a.717.717 0 01.332.108c.108.065.207.152.299.262a1.566 1.566 0 01.343.756c.022.139.021.276-.003.413-.023.137-.107.276-.252.419-.145.143-.34.273-.587.39a2.753 2.753 0 01-.756.238c-.378.06-.724-.043-1.037-.309M60.746 69.122c.258.04.744-.001 1.456-.122" fill="none" stroke="#fff" stroke-width=".7556335299999999" stroke-linecap="round" stroke-linejoin="round" stroke-miterlimit="10"/><path d="M61.64 67.191c-.007.79-.003 1.336.011 1.635.015.304.072.695.171 1.173M65.057 67.227c-.052-.227-.142-.389-.268-.487a.64.64 0 00-.335-.12.868.868 0 00-.304.008c-.066.02-.157.101-.274.245a1.96 1.96 0 00-.299.553 3.08 3.08 0 00-.165.792c-.028.303-.025.608.008.913.033.306.118.58.253.824.136.243.291.447.466.61.175.164.36.264.556.3.196.035.376 0 .541-.107a1.07 1.07 0 00.389-.467 2.13 2.13 0 00.174-.72c.023-.276.02-.552-.007-.829a4.62 4.62 0 00-.123-.722 3.621 3.621 0 00-.143-.45.263.263 0 00-.197-.169M67.055 69.992a127.76 127.76 0 00-.019.126l-.03-.135M69.502 66.975c.013-.239-.012-.394-.076-.465a.625.625 0 00-.222-.141.74.74 0 00-.255-.07c-.066-.001-.132.03-.199.094a1.267 1.267 0 00-.215.325c-.078.152-.151.338-.22.557-.07.219-.128.444-.173.676a4.175 4.175 0 00-.08.65c-.008.2.025.393.099.578a.928.928 0 00.374.446c.175.112.37.177.585.195.215.018.419-.02.611-.112a.978.978 0 00.449-.438c.106-.2.169-.449.19-.747a3.035 3.035 0 00-.073-.894 5.22 5.22 0 00-.234-.773 2.662 2.662 0 00-.516-.83M88.565 21.842c.066.014.266-.062.598-.228.195-.097.392-.192.592-.282.2-.09.439-.194.714-.31.405-.17.943-.353 1.615-.55" fill="none" stroke="#fff" stroke-width=".7556335299999999" stroke-linecap="round" stroke-linejoin="round" stroke-miterlimit="10"/><path d="M89.95 19.55c.049.356.121.675.217.956.064.19.138.385.222.584.123.29.303.775.541 1.452M96.356 21.09a2.054 2.054 0 00-.226-.38.576.576 0 00-.17-.129.884.884 0 00-.27-.085 2.017 2.017 0 00-.374-.023 1.35 1.35 0 00-.414.073 1.643 1.643 0 00-.396.203c-.13.09-.262.214-.398.375a3.727 3.727 0 00-.397.591c-.13.233-.231.471-.304.714a3.316 3.316 0 00-.136.72c-.017.236-.003.486.04.748.044.263.12.506.229.73.108.224.218.394.33.51.112.117.278.21.497.277.219.067.43.1.632.096.203-.003.405-.054.607-.153.201-.1.38-.227.538-.385.158-.157.301-.345.43-.563.129-.218.237-.438.325-.66a4.024 4.024 0 00.285-1.43 1.984 1.984 0 00-.097-.705 1.179 1.179 0 00-.274-.472.693.693 0 00-.36-.196.625.625 0 00-.531.157M97.39 25.81l-.04-.08M102.83 24.45c.01-.236.004-.39-.017-.463a.374.374 0 00-.09-.147.78.78 0 00-.178-.137 1.173 1.173 0 00-.58-.16 1.491 1.491 0 00-.836.215c-.149.089-.295.203-.438.345a5.768 5.768 0 00-.832 1.06c-.128.208-.24.429-.337.662-.097.233-.165.47-.203.71-.039.24-.047.47-.024.687.023.217.087.403.193.557.105.154.225.267.36.338.133.071.26.112.38.12.119.01.275-.016.468-.078.192-.062.367-.149.524-.26.157-.113.28-.234.368-.364a1.01 1.01 0 00.167-.38.913.913 0 00.009-.327.373.373 0 00-.162-.24c-.09-.064-.21-.12-.36-.164a3.592 3.592 0 00-.437-.104 2.727 2.727 0 00-.4-.04 1.2 1.2 0 00-.322.033c-.135.035-.217.107-.246.216M86.07 61.15c.115-.18.302-.597.56-1.25.237-.602.51-1.076.82-1.422" fill="none" stroke="#fff" stroke-width=".7556335299999999" stroke-linecap="round" stroke-linejoin="round" stroke-miterlimit="10"/><path d="M85.754 59.248c.456.304.793.538 1.01.705.217.167.512.386.883.656M90.573 56.916a.52.52 0 00-.147-.275.453.453 0 00-.193-.09.935.935 0 00-.436-.011c-.068.015-.162.071-.282.17-.12.097-.227.232-.321.403-.095.172-.17.354-.229.547a2.558 2.558 0 00-.102.612c-.01.215.025.447.106.695.08.248.2.498.358.75.158.25.345.467.561.646.216.18.45.317.704.41.253.092.488.138.704.138.215 0 .382-.049.5-.146.119-.096.217-.317.297-.662a4.13 4.13 0 00.109-1.014 3.466 3.466 0 00-.134-.916 4.333 4.333 0 00-.303-.765 2.841 2.841 0 00-.352-.547 1.007 1.007 0 00-.322-.268c-.145-.065-.276-.062-.393.01M93.363 59.727a83.185 83.185 0 01-.127-.096M95.414 54.524a.828.828 0 01-.095.379 1.41 1.41 0 01-.153.223 1.227 1.227 0 01-.799.435c-.099.013-.184.02-.255.022a.392.392 0 01-.178-.033l-.078-.037a2.734 2.734 0 01.055.014.37.37 0 01.137.103c.058.06.118.138.182.235.064.098.126.207.188.328.061.121.129.273.203.455.074.182.129.323.165.422.037.098.07.148.102.15.031.001.064-.023.097-.072.033-.049.079-.106.138-.171a1.09 1.09 0 01.205-.177.807.807 0 01.245-.111c.085-.022.172-.037.26-.044.088-.007.172-.008.253-.004.081.004.163.025.246.064.084.039.17.094.26.165.09.072.179.164.265.278a2.12 2.12 0 01.369.778c.03.137.04.289.028.457a1.326 1.326 0 01-.156.519 1.655 1.655 0 01-.367.472c-.152.136-.314.22-.486.254-.172.032-.282.05-.33.05-.07 0-.229-.205-.48-.617M148.852 42.008c.259-.402.485-.743.677-1.023.131-.19.299-.418.504-.686.205-.267.422-.525.651-.774.338-.368.774-.778 1.31-1.231" fill="none" stroke="#fff" stroke-width=".7556335299999999" stroke-linecap="round" stroke-linejoin="round" stroke-miterlimit="10"/><path d="M149.432 38.632c.085.01.206.12.363.328.1.131.34.54.722 1.226.383.686.74 1.308 1.072 1.864M155.338 35.754v-.069h0l.002.02.035.413a28.255 28.255 0 01.097 2.05c.007.588.005 1.672-.006 3.251M157.68 41.3l-.099.41M161.746 36.836c.031-.236.045-.388.04-.456-.002-.047-.059-.092-.17-.136a.892.892 0 00-.31-.068.739.739 0 00-.343.102c-.133.07-.275.176-.427.318a2.85 2.85 0 00-.43.524 3.785 3.785 0 00-.353.694 2.873 2.873 0 00-.099 1.8c.088.342.225.64.413.892a1.714 1.714 0 001.393.72c.247-.002.472-.084.676-.246.204-.163.37-.39.496-.681.127-.292.21-.606.25-.943a4.03 4.03 0 00-.002-.974 2.453 2.453 0 00-.254-.84c-.19-.36-.533-.65-1.031-.87M115.882 46.517c.72-.006 1.232.012 1.534.054" fill="none" stroke="#fff" stroke-width=".7556335299999999" stroke-linecap="round" stroke-linejoin="round" stroke-miterlimit="10"/><path d="M116.752 45.217c.005.163.02.357.043.582.022.211.065.761.127 1.649M120.496 44.863a1.182 1.182 0 00-.054-.267.209.209 0 00-.083-.085.639.639 0 00-.237-.065 1.31 1.31 0 00-.287-.013.58.58 0 00-.242.087 1.08 1.08 0 00-.26.233 3.07 3.07 0 00-.243.331 2.07 2.07 0 00-.312.89 4.087 4.087 0 00-.026.59c.005.204.041.397.11.58.068.181.156.33.264.448.108.117.226.202.355.255.129.053.27.086.423.098a1.015 1.015 0 00.88-.347 1.7 1.7 0 00.332-.605c.089-.258.148-.53.178-.813.03-.284.04-.53.03-.74a1.004 1.004 0 00-.16-.523.899.899 0 00-.335-.305.977.977 0 00-.352-.11c-.154-.013-.269.054-.345.202M122.38 47.3l-.185-.023M123.587 45.346a.939.939 0 01-.09-.335 2.761 2.761 0 01-.01-.293.67.67 0 01.046-.224.884.884 0 01.12-.214c.052-.068.107-.13.165-.188.058-.057.114-.103.168-.138a.423.423 0 01.147-.065.286.286 0 01.12.001c.035.009.085.078.15.207a2.295 2.295 0 01.22.644 3.312 3.312 0 01.072.678c.001.122-.013.26-.042.415a3.077 3.077 0 01-.332.925c-.08.146-.166.274-.256.386a1.03 1.03 0 01-.26.241.531.531 0 01-.208.082c-.054.005-.09-.02-.11-.075a.407.407 0 01-.008-.207.38.38 0 01.107-.209.382.382 0 01.185-.108.254.254 0 01.192.033.767.767 0 01.197.184 1.674 1.674 0 00.504.423c.084.044.197.082.34.115.144.034.274.052.392.056.172.005.403-.087.692-.275" fill="none" stroke="#fff" stroke-width=".7556335299999999" stroke-linecap="round" stroke-linejoin="round" stroke-miterlimit="10"/><path d="M68.001 9.422a187.734 187.734 0 01.002.137l.028-.167c.018-.104.063-.268.135-.49.072-.223.153-.432.244-.627.137-.294.296-.545.476-.751M69.633 10.5c0-.121.032-.276.095-.464.064-.188.13-.354.198-.498a5.48 5.48 0 01.731-1.2M70.087 1.475c.056-.15.046-.264-.028-.342a.89.89 0 00-.21-.157A2.485 2.485 0 0068.744.67a.536.536 0 00-.372.134c-.116.095-.223.23-.32.407a3.042 3.042 0 00-.257.68 4.73 4.73 0 00-.141.946c-.02.355-.014.678.018.97.033.291.109.53.227.716.12.186.271.325.456.418.186.092.396.145.632.157.236.012.463-.023.682-.105.219-.082.402-.212.549-.39.147-.178.25-.41.31-.697.058-.287.086-.597.083-.93a3.395 3.395 0 00-.12-.903 3.654 3.654 0 00-.593-1.17M71.928 4.426l-.073-.128M74.904.739a1.8 1.8 0 00-.5-.193.747.747 0 00-.287.014.708.708 0 00-.322.194c-.11.105-.214.24-.315.408-.1.168-.179.368-.234.599a3.464 3.464 0 00-.096.67c-.008.215.013.494.063.835.05.342.157.612.319.81.161.197.35.338.564.421.215.084.418.128.609.134a.668.668 0 00.507-.212c.148-.147.251-.366.311-.656.06-.29.093-.603.1-.94a4.61 4.61 0 00-.068-.915c-.074-.402-.226-.912-.457-1.53M68.062 56.668a10.74 10.74 0 01.898-1.991c.219-.38.47-.744.752-1.091M69.723 57.613c.195-.318.48-.826.857-1.525.372-.688.664-1.221.879-1.6M70.113 48.127a.654.654 0 00-.146-.233.976.976 0 00-.21-.182 1.456 1.456 0 00-.57-.182 1.115 1.115 0 00-.387.03.908.908 0 00-.389.216 1.818 1.818 0 00-.355.47 3.06 3.06 0 00-.278.72 4.152 4.152 0 00-.13.823c-.015.27.004.514.057.733.052.218.138.412.256.581.117.17.258.3.422.393.163.092.344.146.542.16.197.015.393-.024.588-.116.194-.092.37-.229.53-.41a2.965 2.965 0 00.655-1.23 3.14 3.14 0 00.099-.713 1.713 1.713 0 00-.108-.667 1.284 1.284 0 00-.29-.468c-.166-.16-.4-.196-.701-.107M71.968 51.404l-.163.132M74.5 47.579a.728.728 0 00-.012-.227.213.213 0 00-.056-.097.35.35 0 00-.117-.072.48.48 0 00-.166-.033c-.06-.003-.123.025-.185.08a.789.789 0 00-.166.219c-.048.089-.083.19-.105.301a2.042 2.042 0 00-.007.728c.021.116.063.231.124.346a2.064 2.064 0 00.544.642c.117.09.236.175.359.255.121.08.238.166.348.257.11.092.202.194.274.31.072.114.127.237.163.369a1.939 1.939 0 01.048.813.85.85 0 01-.134.346.7.7 0 01-.249.229.842.842 0 01-.333.093 1.102 1.102 0 01-.383-.039.891.891 0 01-.347-.184.97.97 0 01-.343-.658 1.746 1.746 0 01-.002-.357.723.723 0 01.102-.304c.057-.094.13-.18.217-.258.087-.078.187-.154.301-.228.114-.075.228-.157.342-.247.114-.09.221-.2.321-.327.1-.126.178-.277.235-.452.056-.174.09-.349.101-.523.011-.174.002-.33-.026-.468a.654.654 0 00-.161-.33c-.115-.12-.345-.262-.692-.429" fill="none" stroke="#ffc900" stroke-width=".7556335299999999" stroke-linecap="round" stroke-linejoin="round" stroke-miterlimit="10"/></svg>