<svg xmlns="http://www.w3.org/2000/svg" width="184.7" height="36.493"><path d="M235.65 418.894c-.263.145-.4.292-.413.439-.01.102.165.26.524.476.358.215.773.377 1.245.484a8.757 8.757 0 0 0 3.64.01c.713-.144 1.43-.45 2.15-.92a8.577 8.577 0 0 0 1.932-1.738 9.044 9.044 0 0 0 1.385-2.328c.357-.864.61-1.829.763-2.896a28 28 0 0 0 .265-3.376 14.866 14.866 0 0 0-.279-3.307 9.069 9.069 0 0 0-1.09-2.832 23.263 23.263 0 0 0-1.782-2.568 503 503 0 0 1-2.053-2.601 32.477 32.477 0 0 1-1.895-2.676 16.64 16.64 0 0 1-1.355-2.581 12.865 12.865 0 0 1-.759-2.762 22.812 22.812 0 0 1-.295-3.145c-.028-1.082.083-2.065.334-2.95.25-.884.62-1.685 1.11-2.405a9.104 9.104 0 0 1 1.652-1.854c.614-.518 1.262-.885 1.945-1.1.998-.317 2.275-.29 3.83.081" style="fill:none;stroke:#fff;stroke-width:1.8189;stroke-linecap:round;stroke-linejoin:round;stroke-miterlimit:10;stroke-dasharray:none;stroke-opacity:1" transform="matrix(.72727 0 0 .72727 -170.418 -273.18)"/><path d="M239.234 405.664c.148-.546.56-1.188 1.234-1.926.436-.477.972-1.011 1.607-1.602.916-.852 2.916-2.523 6-5.014M267.029 377.472c-.306-.547-.664-.855-1.073-.924a1.393 1.393 0 0 0-.863.146c-.292.144-.69.51-1.194 1.096-.505.587-1.098 1.39-1.779 2.41-.68 1.02-1.41 2.343-2.186 3.969-.776 1.625-1.49 3.465-2.141 5.52-.651 2.054-1.12 4.378-1.407 6.97a66.329 66.329 0 0 0-.388 7.987c.029 2.732.292 5.215.791 7.449.732 3.277 2.709 6.644 5.932 10.102" style="fill:none;stroke:#fff;stroke-width:1.8189;stroke-linecap:round;stroke-linejoin:round;stroke-miterlimit:10;stroke-dasharray:none;stroke-opacity:1" transform="matrix(.72727 0 0 .72727 -170.418 -273.18)"/><path d="M274.097 391.301a8.488 8.488 0 0 0 .769-2.242c.11-.55.19-1.162.24-1.837.05-.676.063-1.319.038-1.93-.025-.61-.155-1.087-.39-1.429a1.483 1.483 0 0 0-.927-.639c-.382-.084-.806-.008-1.272.227-.465.235-.89.612-1.275 1.13a7.553 7.553 0 0 0-.957 1.743 9.365 9.365 0 0 0-.534 1.892c-.103.617-.16 1.17-.17 1.659-.01.488-.001.917.027 1.287.029.369.112.674.25.915.137.24.31.407.518.498.208.09.473.146.796.165.322.02.728.06 1.217.12.49.06 1.04.18 1.65.36.612.182 1.243.494 1.896.94a6.801 6.801 0 0 1 1.732 1.738c.502.715.84 1.467 1.017 2.256.175.79.19 1.529.043 2.218a2.946 2.946 0 0 1-1 1.69c-.52.437-1.11.702-1.772.796-.95.134-2.13-.605-3.54-2.216M283.286 390.32c-.08.51-.121 1.753-.124 3.727-.005 3.073-.132 5.486-.38 7.24M283.48 380.773c-.254-.03-.403-.148-.445-.352M293.133 391.98a1.112 1.112 0 0 1-1.036-.191 2.752 2.752 0 0 0-.67-.374 3.089 3.089 0 0 0-.798-.174c-.304-.03-.63.004-.98.098-.351.095-.689.346-1.014.753a3.464 3.464 0 0 0-.667 1.312c-.12.467-.16 1.161-.125 2.082.036.92.225 1.708.567 2.362.342.654.763 1.18 1.263 1.576.5.396 1.058.632 1.672.71.614.077 1.257-.069 1.929-.438.671-.37 1.27-.913 1.793-1.63.524-.717.977-1.49 1.359-2.317.381-.827.639-1.535.773-2.124.134-.588.18-1.018.135-1.289-.043-.271-.203-.435-.48-.491a1.374 1.374 0 0 0-.85.11c-.29.13-.527.341-.712.636-.184.294-.29.645-.318 1.053-.027.408.035.948.188 1.62.153.67.411 1.442.776 2.315.365.873 1.004 2.251 1.918 4.137.914 1.885 1.53 3.323 1.85 4.313.32.99.535 1.942.645 2.857.11.915.117 1.724.02 2.427-.096.703-.338 1.279-.725 1.726-.386.447-.895.713-1.525.797-.63.084-1.288-.102-1.973-.56-.985-.659-1.628-2.31-1.93-4.957M300.103 392.061c.192.085.43.014.715-.213s.542-.544.77-.95c.229-.406.447-.93.655-1.572.208-.642.39-1.408.545-2.296.155-.889.27-1.77.346-2.646.075-.875.125-1.614.15-2.216.027-.601.017-1.058-.029-1.37-.045-.312-.148-.522-.308-.63a1.137 1.137 0 0 0-.51-.195c-.18-.021-.347.06-.5.243-.153.183-.282.477-.386.883-.104.405-.186.973-.244 1.702-.059.73-.09 1.587-.097 2.571-.006.985.035 2.012.12 3.082a31.3 31.3 0 0 0 .434 3.234c.203 1.085.412 2.25.626 3.495.215 1.245.415 2.356.601 3.334.186.978.362 1.74.526 2.284.165.545.304.893.416 1.044.113.15.224.146.333-.014.11-.16.262-.607.458-1.34.196-.735.45-1.618.76-2.651.309-1.033.669-2.004 1.08-2.913.41-.909.78-1.583 1.111-2.024.332-.44.577-.702.735-.786.16-.083.242.128.249.634.007.505-.033 1.264-.12 2.276a24.15 24.15 0 0 0-.07 3.01c.04.993.236 1.811.59 2.454.353.643.785 1.084 1.296 1.323a2.67 2.67 0 0 0 1.57.235c.535-.083.975-.371 1.321-.866s.556-1.136.63-1.922c.108-1.16-.068-2.46-.528-3.9M320.02 380.711l-.027-.614v-.002l-.008.11-.122 2.426a167.782 167.782 0 0 0-.219 8.425c-.003 1.396.01 2.891.036 4.485.027 1.595.08 2.982.161 4.16.124 1.816.108 3.316-.046 4.5" style="fill:none;stroke:#007aff;stroke-width:1.8189;stroke-linecap:round;stroke-linejoin:round;stroke-miterlimit:10;stroke-dasharray:none;stroke-opacity:1" transform="matrix(.72727 0 0 .72727 -167.936 -266.622)"/><path d="M316.076 392.61c.86-.432 1.85-.689 2.97-.77 1.071-.077 3.267-.105 6.587-.083" style="fill:none;stroke:#007aff;stroke-width:1.8189;stroke-linecap:round;stroke-linejoin:round;stroke-miterlimit:10;stroke-dasharray:none;stroke-opacity:1" transform="matrix(.72727 0 0 .72727 -167.936 -266.622)"/><path d="M334.901 368.807c.115-.202.319-.229.613-.08.294.149.627.488.999 1.017.371.53.809 1.253 1.312 2.17.503.916 1.028 2.056 1.574 3.42a46.759 46.759 0 0 1 1.467 4.256c.431 1.475.742 3.155.931 5.04.19 1.885.27 3.853.24 5.904a45.878 45.878 0 0 1-.5 6.135 73.634 73.634 0 0 1-1.054 5.65 61.02 61.02 0 0 1-1.27 4.713 16.91 16.91 0 0 1-3.056 5.673" style="fill:none;stroke:#fff;stroke-width:1.8189;stroke-linecap:round;stroke-linejoin:round;stroke-miterlimit:10;stroke-dasharray:none;stroke-opacity:1" transform="matrix(.72727 0 0 .72727 -172.368 -264.318)"/><path d="M349.357 391.839c-.37.06-.565.09-.583.094h-.004l.066-.002 1.294-.078a17.12 17.12 0 0 1 3.48.13M347.326 397.602c1.474-.348 3.33-.748 5.572-1.2" style="fill:none;stroke:#fff;stroke-width:1.8189;stroke-linecap:round;stroke-linejoin:round;stroke-miterlimit:10;stroke-dasharray:none;stroke-opacity:1" transform="matrix(.72727 0 0 .72727 -167.936 -266.622)"/><path d="M372.417 388.991c-.1-.183-.206-.185-.315-.004-.11.18-.167.885-.173 2.114-.006 1.228.02 2.28.079 3.156.058.875.125 2.035.2 3.482.077 1.446.117 2.344.12 2.696l.005.555v.008l-.002-.052-.05-1.431a102.79 102.79 0 0 1-.051-3.203c-.003-1.23.023-2.374.081-3.434s.196-2.036.415-2.93c.218-.893.445-1.623.682-2.19.236-.566.444-.943.622-1.13.179-.188.355-.225.53-.114.174.112.34.453.496 1.023.157.57.292 1.24.407 2.012.114.772.235 1.554.362 2.346.128.792.242 1.605.344 2.439.102.833.2 1.555.292 2.164.094.61.186 1.072.276 1.387.09.315.186.5.286.557.1.056.25-.11.45-.497.199-.388.46-1.049.784-1.984a127.7 127.7 0 0 1 1.038-2.885c.37-.989.732-1.864 1.088-2.627.356-.763.63-1.298.822-1.605.192-.307.288-.412.288-.315v.728c-.001.389-.074.953-.219 1.692a22.914 22.914 0 0 0-.325 2.278c-.072.78-.108 1.575-.105 2.384.002.81.11 1.53.323 2.162.213.632.535 1.151.966 1.558.432.407.924.68 1.478.82a3.41 3.41 0 0 0 1.604.034c.515-.117.97-.42 1.367-.909.582-.719 1.043-1.694 1.381-2.924M395.042 390.376c-.143-.335-.405-.624-.787-.866a3.737 3.737 0 0 0-.726-.367 3.194 3.194 0 0 0-.846-.16c-.334-.025-.698.073-1.094.292-.395.22-.784.57-1.168 1.052a9.945 9.945 0 0 0-1.065 1.682 6.58 6.58 0 0 0-.65 2.079 9.763 9.763 0 0 0-.026 2.387c.088.846.329 1.636.722 2.369.394.733.866 1.3 1.416 1.703.55.403 1.168.636 1.855.701.688.065 1.402-.183 2.144-.743.742-.56 1.367-1.35 1.876-2.368.51-1.017.85-2 1.023-2.947.173-.947.228-1.719.164-2.314s-.231-1.062-.5-1.401c-.27-.34-.574-.62-.912-.843-.493-.324-1.057-.946-1.695-1.865M400.742 390.843c-.183-.412-.278-.794-.287-1.146l-.01-.404c0-.032.026.024.08.167l.7 1.837c.412 1.082.782 2.069 1.111 2.96.329.89.69 1.8 1.082 2.727.392.927.789 1.704 1.19 2.33.4.627.79 1.083 1.166 1.367.376.285.74.42 1.091.407.351-.014.654-.251.91-.713.255-.46.441-1.108.558-1.942.116-.833.181-1.942.194-3.325.013-1.384.194-2.398.546-3.044M415.801 395.473c.452.02.91-.15 1.376-.51.31-.24.608-.504.894-.791a8.68 8.68 0 0 0 .78-.893c.233-.308.403-.589.507-.842.105-.252.166-.498.184-.737a.85.85 0 0 0-.213-.639 1.879 1.879 0 0 0-.648-.47 2.693 2.693 0 0 0-.915-.233c-.338-.028-.718.034-1.139.188-.42.154-.832.415-1.236.783-.404.367-.765.837-1.084 1.407-.319.57-.552 1.238-.7 2a9.598 9.598 0 0 0-.169 2.283 4.4 4.4 0 0 0 .601 2.064c.366.619.85 1.094 1.453 1.427.603.333 1.291.487 2.065.463 1.114-.036 2.917-.985 5.41-2.847M427.543 390.852c-.116-.084-.212.114-.287.594-.076.48-.12.98-.13 1.498a22.488 22.488 0 0 0 .346 4.193c.144.828.293 1.595.447 2.302.153.706.283 1.226.39 1.56.106.332.17.474.191.424l.161-.373c.086-.199.156-.683.209-1.45.053-.769.136-1.668.247-2.698.112-1.03.276-2.01.492-2.943.216-.932.45-1.72.702-2.363.252-.643.456-1.075.612-1.296.157-.22.292-.285.407-.193.114.093.206.386.275.88.07.493.137 1.081.202 1.763.065.681.154 1.41.267 2.184.113.774.248 1.521.406 2.24.159.718.324 1.27.496 1.653.173.383.366.615.58.694.215.079.465-.066.75-.436.284-.369.58-.876.886-1.52a41.65 41.65 0 0 0 .901-2.036c.294-.713.628-1.504 1.004-2.372.376-.868.547-1.226.514-1.072l-.248 1.153a10.726 10.726 0 0 0-.23 1.922c-.02.667.034 1.305.164 1.914.13.61.348 1.088.657 1.436.309.348.663.597 1.064.746.4.15.821.182 1.263.099.443-.084.837-.303 1.184-.658.53-.542.87-1.052 1.02-1.531M449.196 395.08c-.067.137-.01.2.171.193.133-.006.315-.116.548-.33.233-.214.481-.509.744-.884s.474-.804.632-1.285c.157-.481.256-.96.295-1.434a5.496 5.496 0 0 0-.035-1.3c-.061-.393-.222-.679-.482-.857a1.901 1.901 0 0 0-.91-.319 2.387 2.387 0 0 0-1.088.166c-.379.145-.756.393-1.13.744-.374.35-.74.814-1.1 1.39a9.16 9.16 0 0 0-.91 2.01 10.36 10.36 0 0 0-.474 2.333 7.607 7.607 0 0 0 .124 2.242c.15.702.446 1.335.888 1.899a3.3 3.3 0 0 0 1.69 1.151c.685.205 1.472.186 2.362-.056 1.293-.352 2.827-1.492 4.602-3.42M458.716 389.487c-.162.152-.249.61-.26 1.374-.007.477.068 1.035.225 1.674.158.64.306 1.376.445 2.21.138.833.26 1.706.364 2.618.105.913.203 1.687.295 2.32.092.634.156 1.039.194 1.214.038.176.06.274.063.293.004.02.007-.023.01-.128l.033-1.555c.02-.932.067-1.928.142-2.989.076-1.06.244-2.008.505-2.845.261-.837.54-1.515.837-2.034.297-.519.547-.845.75-.978.204-.133.357-.01.458.37.102.38.19.983.267 1.81.076.827.175 1.75.3 2.77.123 1.02.28 1.97.473 2.85.192.881.43 1.63.711 2.244.283.614.577 1.059.884 1.333.306.275.615.394.926.356.311-.038.61-.28.894-.728.411-.648.937-1.89 1.577-3.729M474.494 380.477c.03 1.211.07 2.327.123 3.346.036.685.06 1.641.07 2.867a76.379 76.379 0 0 1-.068 3.883 133.076 133.076 0 0 1-.23 4.048c-.146 2.01-.29 3.964-.434 5.864" style="fill:none;stroke:#7ec636;stroke-width:1.8189;stroke-linecap:round;stroke-linejoin:round;stroke-miterlimit:10;stroke-dasharray:none;stroke-opacity:1" transform="matrix(.72727 0 0 .72727 -167.936 -266.622)"/><path d="M470.223 389.078c.697.1 2 .085 3.91-.046 1.702-.116 4.98-.67 9.833-1.661" style="fill:none;stroke:#7ec636;stroke-width:1.8189;stroke-linecap:round;stroke-linejoin:round;stroke-miterlimit:10;stroke-dasharray:none;stroke-opacity:1" transform="matrix(.72727 0 0 .72727 -167.936 -266.622)"/></svg>