<svg xmlns="http://www.w3.org/2000/svg" width="257.886" height="170.979"><path d="M249.622 402.04c.08-1.117.008-1.863-.215-2.239a2.333 2.333 0 0 0-.676-.704c-.296-.21-.679-.372-1.15-.488a8.277 8.277 0 0 0-1.682-.206c-.65-.022-1.37.158-2.156.539-.787.381-1.56 1.004-2.32 1.868-.759.864-1.388 1.878-1.887 3.042a11.704 11.704 0 0 0-.911 3.62c-.109 1.249.028 2.425.41 3.53.383 1.103.935 2.027 1.657 2.772.721.745 1.55 1.23 2.486 1.458a6.083 6.083 0 0 0 2.858 0c.968-.226 1.78-.6 2.433-1.121.653-.522 1.324-1.39 2.014-2.604.69-1.214 1.15-2.386 1.382-3.517.232-1.13.306-2.343.223-3.636-.083-1.294-.392-2.453-.927-3.476-.536-1.023-1.18-1.71-1.935-2.063-.755-.351-1.593-.4-2.514-.147-.922.253-1.784.824-2.586 1.713a11.213 11.213 0 0 0-1.931 2.965 12.466 12.466 0 0 0-.97 3.395 8.892 8.892 0 0 0 .178 3.424c.28 1.106.741 1.97 1.385 2.589.643.62 1.381.98 2.214 1.08.834.102 1.705-.165 2.614-.8.908-.634 1.716-1.458 2.422-2.471a15.395 15.395 0 0 0 1.739-3.286 13.63 13.63 0 0 0 .848-3.758c.114-1.329-.002-2.473-.345-3.432-.344-.959-.918-1.654-1.721-2.086-.804-.432-1.73-.635-2.781-.61-1.05.024-2.06.379-3.03 1.063-.969.684-1.756 1.618-2.362 2.8a10.906 10.906 0 0 0-1.142 3.622 8.357 8.357 0 0 0 .29 3.545c.348 1.133.905 2.087 1.67 2.863.766.777 1.614 1.257 2.546 1.44a4.1 4.1 0 0 0 2.646-.332c.833-.405 1.54-1.064 2.124-1.98.583-.916.97-1.972 1.162-3.168.192-1.195.197-2.376.015-3.543-.183-1.166-.56-2.158-1.136-2.975-.574-.817-1.27-1.338-2.088-1.564-.817-.226-1.651-.048-2.502.535-.85.583-1.611 1.408-2.282 2.474a14.74 14.74 0 0 0-1.538 3.198 9.21 9.21 0 0 0-.483 3.203c.033 1.069.218 1.944.556 2.626.338.682.966 1.225 1.884 1.629.918.404 1.797.43 2.638.076.84-.353 1.595-1.013 2.265-1.98.67-.966 1.173-2.03 1.51-3.192.335-1.162.477-2.291.425-3.388-.052-1.097-.331-2.012-.836-2.746a3.374 3.374 0 0 0-2.072-1.412c-.876-.207-1.795-.081-2.758.378-.963.46-1.829 1.192-2.597 2.198s-1.314 2.04-1.64 3.1a7.298 7.298 0 0 0-.249 3.234c.16 1.095.55 2.038 1.17 2.83.62.79 1.364 1.284 2.233 1.478.87.195 1.737.057 2.602-.412.865-.469 1.614-1.174 2.248-2.115a9.574 9.574 0 0 0 1.348-2.921c.265-1.007.344-1.973.237-2.9a5.303 5.303 0 0 0-.94-2.494 3.86 3.86 0 0 0-2.082-1.501 4.128 4.128 0 0 0-2.63.066c-.886.31-1.666.922-2.34 1.836-.675.915-1.127 1.855-1.357 2.82-.23.965-.227 1.86.01 2.686.237.826.66 1.434 1.27 1.824.61.39 1.314.49 2.115.3.8-.19 1.572-.647 2.315-1.368a11.429 11.429 0 0 0 1.86-2.327 7.14 7.14 0 0 0 .95-2.724c.135-.986.06-1.897-.225-2.735-.285-.839-.773-1.434-1.464-1.788-.691-.354-1.494-.418-2.41-.194-.914.224-1.734.77-2.46 1.637-.724.867-1.223 1.782-1.497 2.744-.274.962-.3 1.89-.078 2.783.221.894.68 1.73 1.376 2.51.696.78 1.353 1.329 1.97 1.648.617.319 1.416.379 2.398.18.983-.199 1.739-.659 2.269-1.38.53-.72.866-1.51 1.007-2.371.141-.86.094-1.8-.143-2.817-.237-1.018-.631-1.89-1.182-2.615-.55-.726-1.195-1.145-1.933-1.257-.738-.111-1.452.202-2.14.94-.69.74-1.198 1.64-1.524 2.703-.327 1.063-.507 2.022-.54 2.878-.032.856.185 2.004.652 3.443.468 1.44 1.032 2.496 1.694 3.169.662.673 1.357.986 2.086.938.729-.048 1.379-.541 1.95-1.48.57-.937.941-2.086 1.114-3.447.172-1.361.151-2.671-.062-3.93-.214-1.26-.633-2.317-1.258-3.174-.625-.857-1.324-1.367-2.097-1.529-.773-.162-1.53.061-2.27.67a7.68 7.68 0 0 0-1.854 2.27 7.96 7.96 0 0 0-.936 2.835c-.126.984-.11 2.035.05 3.15.158 1.117.434 1.99.825 2.621.392.63.857.973 1.396 1.026.539.053 1.099-.236 1.68-.865.58-.629 1.054-1.464 1.42-2.506.365-1.042.59-2.066.674-3.072.084-1.007-.003-1.916-.262-2.727-.258-.812-.737-1.431-1.437-1.858-.7-.428-1.594-.557-2.682-.39-1.087.168-2.07.63-2.948 1.386-.878.757-1.513 1.542-1.906 2.358a5.272 5.272 0 0 0-.506 2.642c.055.947.326 1.838.81 2.672.486.834 1.099 1.466 1.84 1.895.74.43 1.517.598 2.33.505.814-.092 1.574-.528 2.28-1.305a9 9 0 0 0 1.683-2.724c.416-1.037.665-2.03.745-2.98.08-.948-.01-1.834-.272-2.659a3.686 3.686 0 0 0-1.438-1.965c-.698-.486-1.5-.676-2.407-.57-.906.105-1.712.571-2.415 1.398-.704.826-1.168 1.732-1.392 2.717a6.721 6.721 0 0 0 .003 2.994c.227 1.011.552 1.88.978 2.605.425.725 1.043 1.326 1.855 1.802.811.477 1.56.556 2.248.24.687-.318 1.295-.988 1.823-2.01a11.46 11.46 0 0 0 1.101-3.313c.207-1.186.254-2.4.141-3.644-.113-1.243-.382-2.287-.807-3.133-.425-.845-.985-1.386-1.678-1.623-.694-.238-1.446-.022-2.255.646-.809.669-1.45 1.569-1.925 2.701-.474 1.132-.707 2.26-.698 3.382a6.09 6.09 0 0 0 .88 3.132c.578.966 1.25 1.655 2.019 2.069.768.414 1.531.531 2.291.352.76-.18 1.399-.638 1.916-1.377a5.708 5.708 0 0 0 .982-2.384c.137-.851.121-1.766-.048-2.745-.17-.98-.464-1.859-.884-2.638-.42-.78-.88-1.29-1.384-1.531-.503-.241-1.054-.124-1.651.35-.598.475-1.09 1.207-1.475 2.196-.386.988-.555 1.974-.507 2.957a5.95 5.95 0 0 0 .784 2.715c.475.828 1.034 1.399 1.676 1.712.642.314 1.27.314 1.88 0 .613-.312 1.083-.874 1.414-1.684.33-.81.507-1.644.531-2.504a4.88 4.88 0 0 0-.506-2.367c-.362-.719-.807-1.273-1.334-1.662s-1.052-.498-1.575-.326c-.523.171-.94.645-1.253 1.423-.312.777-.508 1.679-.587 2.707-.078 1.027-.016 1.977.19 2.848.204.871.508 1.494.91 1.87.403.375.855.472 1.357.289s.946-.668 1.333-1.455.629-1.517.724-2.191c.095-.674.062-1.487-.1-2.438-.163-.951-.435-1.725-.815-2.32-.38-.596-.777-.956-1.19-1.082-.414-.126-.795.089-1.144.643-.35.553-.57 1.271-.661 2.153a7.933 7.933 0 0 0 .151 2.592c.192.846.48 1.58.863 2.203.384.622.772 1.027 1.166 1.215.393.188.748.113 1.066-.225.318-.337.56-.907.727-1.709.168-.802.245-1.646.233-2.532-.013-.886-.14-1.667-.38-2.342-.242-.676-.509-1.172-.802-1.49-.293-.316-.594-.418-.901-.306-.308.113-.597.482-.867 1.107a7.3 7.3 0 0 0-.535 2.113 6.814 6.814 0 0 0 .09 2.186c.144.674.412 1.145.802 1.414.39.27.816.302 1.278.099.462-.204.84-.619 1.135-1.245a5.917 5.917 0 0 0 .545-1.926c.068-.658.013-1.25-.163-1.775-.177-.526-.413-.916-.708-1.17-.296-.254-.594-.385-.892-.392-.3-.007-.583.187-.853.58-.27.392-.465.877-.587 1.454a8.202 8.202 0 0 0-.188 1.644c-.003.52.1.925.31 1.218.21.293.47.454.781.483.31.03.62-.161.93-.572a4.95 4.95 0 0 0 .74-1.485 7.093 7.093 0 0 0 .333-1.675c.036-.538-.015-.993-.154-1.363-.138-.372-.35-.604-.632-.7-.283-.094-.554.022-.813.348-.26.327-.445.76-.557 1.302-.112.542-.179 1.31-.201 2.306-.023.995.114 1.875.41 2.637.297.763.637 1.284 1.022 1.562s.755.325 1.11.14c.355-.183.623-.587.803-1.21a7.72 7.72 0 0 0 .297-1.95c.018-.677-.083-1.29-.302-1.838-.22-.548-.47-.994-.75-1.337-.28-.343-.516-.56-.71-.652-.192-.092-.37.016-.532.324-.161.308-.27.76-.324 1.358-.055.597-.061 1.18-.02 1.749.043.568.171.982.386 1.24.214.26.477.268.788.026.31-.243.592-.655.842-1.237.25-.582.418-1.061.502-1.437.083-.375.032-.509-.154-.4-.186.108-.325.291-.419.55-.127.353-.015.481.337.385" style="fill:none;stroke:#7ec636;stroke-width:1.8189;stroke-linecap:round;stroke-linejoin:round;stroke-miterlimit:10;stroke-dasharray:none;stroke-opacity:1" transform="matrix(.72727 0 0 .72727 24.868 -249.502)"/><path d="M164.73 367.44c25.088 28.74 24.895 57.22-.58 85.442M144.576 409.008c.22.059.386-.039.497-.293.078-.178.062-.392-.05-.643a1.62 1.62 0 0 0-.488-.63 4.643 4.643 0 0 0-.697-.451 2.473 2.473 0 0 0-.79-.262 2.414 2.414 0 0 0-.828.017c-.276.054-.558.228-.846.521a4.42 4.42 0 0 0-.777 1.134c-.23.462-.38.941-.45 1.439a8.405 8.405 0 0 0-.076 1.513c.02.51.152.989.396 1.433.244.445.53.79.86 1.037.33.246.676.396 1.037.45.36.053.717.025 1.07-.085.353-.11.662-.382.928-.815.266-.434.455-.932.568-1.494.112-.563.179-1.112.2-1.648.02-.536-.066-.985-.256-1.346-.19-.36-.434-.626-.731-.796a2.41 2.41 0 0 0-.921-.31c-.317-.038-.592-.01-.825.083-.233.092-.419.288-.558.585-.138.298-.23.693-.272 1.184-.044.49-.053 1.01-.028 1.558.025.548.149 1.065.37 1.553.223.487.49.86.801 1.12.312.259.622.406.932.442.309.036.59-.126.843-.487.252-.361.434-.863.545-1.505a14.15 14.15 0 0 0 .197-2.01c.02-.699-.03-1.308-.153-1.83-.122-.52-.3-.894-.534-1.119a1.358 1.358 0 0 0-.888-.371c-.359-.023-.748.1-1.168.367-.42.268-.758.54-1.012.816-.255.276-.453.644-.594 1.104-.14.46-.18.89-.117 1.291.063.4.228.765.494 1.094.267.328.571.557.915.686.343.13.67.182.983.156.313-.026.591-.185.835-.476.244-.29.436-.666.575-1.126.14-.46.221-.925.244-1.395.024-.47-.022-.863-.135-1.178-.113-.315-.314-.526-.603-.634a1.666 1.666 0 0 0-.926-.064c-.327.066-.623.29-.886.67-.264.382-.437.856-.52 1.421a5.392 5.392 0 0 0 .006 1.654c.087.537.284.961.591 1.275.307.313.635.5.982.56.347.06.678-.055.99-.346.313-.291.562-.72.747-1.287a7.084 7.084 0 0 0 .336-1.744c.04-.596-.041-1.125-.24-1.587a1.851 1.851 0 0 0-.978-.993 2.386 2.386 0 0 0-1.38-.186c-.469.077-.874.325-1.217.745-.343.42-.556.934-.638 1.542a6.151 6.151 0 0 0-.006 1.712c.078.532.236.96.475 1.28.238.322.498.522.78.602.282.08.562.056.841-.07.28-.126.557-.435.834-.928.277-.492.497-1.076.66-1.75a9.921 9.921 0 0 0 .283-1.917c.026-.605-.033-1.082-.175-1.43-.142-.35-.364-.56-.665-.633-.302-.072-.645.066-1.03.413-.386.347-.708.822-.968 1.423a6.05 6.05 0 0 0-.474 1.929c-.055.684-.013 1.282.126 1.793.139.511.365.863.677 1.057.313.194.633.272.96.235.328-.036.609-.22.843-.551.234-.331.407-.734.518-1.208.112-.474.173-.961.184-1.461.012-.5-.06-.9-.212-1.2-.153-.3-.343-.488-.57-.565-.229-.078-.45-.01-.665.203-.215.212-.381.497-.497.855-.117.357-.196.832-.237 1.426-.04.594-.04 1.054.004 1.382.044.327.144.556.303.685.158.13.322.186.491.17.17-.016.32-.188.453-.517.132-.329.229-.73.29-1.204.06-.474.1-.98.12-1.518.019-.538-.02-.8-.118-.786-.097.015-.198.167-.302.457-.105.29-.174.74-.208 1.352-.034.612-.027.968.021 1.069.049.1.109.085.18-.047.072-.133.139-.445.202-.938l.11-.862c.01-.082.032-.118.066-.108l.659.186" style="fill:none;stroke:#000;stroke-width:1.8189;stroke-linecap:round;stroke-linejoin:round;stroke-miterlimit:10;stroke-dasharray:none;stroke-opacity:1" transform="matrix(.72727 0 0 .72727 24.868 -249.502)"/><path d="M166.276 486.733c.194-.461.441-1.283.74-2.466.3-1.182.574-2.252.823-3.209.25-.957.521-1.834.815-2.63.295-.797.62-1.5.974-2.108.355-.609.704-1.126 1.048-1.552.343-.425.68-.722 1.01-.89.33-.168.677-.232 1.038-.191.36.04.76.241 1.199.602.439.36.892.779 1.358 1.256.467.477.94 1.013 1.419 1.609.478.595.938 1.22 1.38 1.876.66.98 1.345 1.97 2.054 2.969" style="fill:none;stroke:#fff;stroke-width:1.8189;stroke-linecap:round;stroke-linejoin:round;stroke-miterlimit:10;stroke-dasharray:none;stroke-opacity:1" transform="matrix(.72727 0 0 .72727 32.237 -245.993)"/><path d="M173.181 480.775c.198.947.361 1.852.49 2.715.087.578.16 1.233.218 1.964.058.732.09 2.068.097 4.01.01 3.067.036 5.357.078 6.872M165.577 511.764a244.38 244.38 0 0 0 1.296 3.673c.2.548.354.993.46 1.336.106.343.191.715.255 1.115s.062.55-.004.45l-.5-.758c-.265-.404-.537-1.003-.814-1.797a32.27 32.27 0 0 1-.728-2.377 18.036 18.036 0 0 1-.446-2.17 14.956 14.956 0 0 1-.146-1.671c-.009-.46.006-.813.043-1.06a.86.86 0 0 1 .334-.583c.184-.14.478-.24.881-.302s.87-.105 1.401-.13c.774-.036 1.946-.029 3.518.022M178.46 509.027c-.069.204.036.3.316.289a.667.667 0 0 0 .48-.2c.116-.125.223-.3.321-.524.098-.225.168-.572.211-1.042.043-.47-.008-.788-.152-.954-.144-.166-.462-.29-.954-.369-.492-.08-.879-.078-1.16.006-.283.084-.568.289-.856.615-.289.325-.529.768-.72 1.328-.192.56-.308 1.229-.347 2.006-.04.777.073 1.583.338 2.42a8.03 8.03 0 0 0 1.103 2.243c.47.66.963 1.144 1.48 1.449.518.305 1.004.42 1.458.346.649-.107 1.201-1.045 1.658-2.815M184.844 501.904l.026-1.707v.037c-.005.138-.015.482-.03 1.033-.017.55-.001 1.225.047 2.023.047.798.159 2.148.334 4.05.176 1.902.317 3.276.424 4.123.162 1.283.435 2.412.821 3.386" style="fill:none;stroke:#fff;stroke-width:1.8189;stroke-linecap:round;stroke-linejoin:round;stroke-miterlimit:10;stroke-dasharray:none;stroke-opacity:1" transform="matrix(.72727 0 0 .72727 32.237 -245.993)"/><path d="M182.56 508.126a7.292 7.292 0 0 1 2.333-.775c.821-.132 2.204-.303 4.149-.516M192.497 507.219c.059.512.195 1.145.41 1.897.313 1.103.603 2.615.87 4.536M194.133 501.683l-.867-.096M198.182 504.915c-.35-.162-.545-.148-.584.044-.028.137-.008.34.06.61.068.271.286.939.656 2.003.37 1.065.723 2.104 1.06 3.119.336 1.014.54 1.57.613 1.666.072.097.133-.144.183-.722.05-.577.076-1.216.077-1.917 0-.7.052-1.412.156-2.135a9.638 9.638 0 0 1 .477-1.956c.214-.581.413-1.006.598-1.275.184-.268.328-.412.433-.43.104-.018.266.457.487 1.425.22.969.433 1.766.639 2.392.205.626.438 1.24.699 1.84.26.6.519 1.088.775 1.463.257.376.518.578.783.607.377.042.876-.906 1.5-2.843M212.615 503.89a2.454 2.454 0 0 0-.232-.915 2.03 2.03 0 0 0-.364-.516 1.687 1.687 0 0 0-.556-.383c-.216-.094-.54-.157-.969-.189-.43-.032-.73.072-.904.312-.174.24-.317.602-.429 1.088a9.678 9.678 0 0 0-.216 1.694c-.031.644-.02 1.315.036 2.014.056.699.221 1.366.496 2.003.274.636.593 1.154.955 1.554.362.4.764.653 1.205.76.441.109.87.014 1.288-.282.417-.296.78-.757 1.092-1.382.31-.625.602-1.338.872-2.14.271-.803.512-1.556.722-2.26.21-.705.36-1.178.448-1.42l.16-.439c.02-.05.03-.027.034.07l.033.844c.018.465.06.973.129 1.523.068.55.235 1.03.502 1.442.267.411.615.724 1.044.938.616.307 1.7.043 3.252-.792" style="fill:none;stroke:#fff;stroke-width:1.8189;stroke-linecap:round;stroke-linejoin:round;stroke-miterlimit:10;stroke-dasharray:none;stroke-opacity:1" transform="matrix(.72727 0 0 .72727 32.237 -245.993)"/><path d="M275.993 368.63c-.04-.215-.19-.33-.45-.344-.258-.013-.511.082-.76.286-.249.205-1 1.14-2.251 2.805-1.823 2.425-4.576 6.202-8.26 11.333M257.907 382.393l.082-.221a1.289 1.289 0 0 1-.013.17l-.162 1.64a35.262 35.262 0 0 0-.17 2.45 22.87 22.87 0 0 0 .016 1.785c.028.527.167.923.419 1.186.251.263.62.422 1.107.477.698.08 2.238-.324 4.618-1.21M283.969 374.938c-.048.55.02 1.035.202 1.458.123.286.19.402.2.346l.074-.415c.04-.221.055-.63.046-1.226-.009-.596-.214-1.827-.615-3.692-.4-1.866-.729-3.4-.984-4.606a85.11 85.11 0 0 1-.635-3.284 24.19 24.19 0 0 1-.321-2.791 40.592 40.592 0 0 1-.063-2.369c.004-.701.075-1.294.21-1.778a4.33 4.33 0 0 1 .541-1.232c.224-.336.467-.583.73-.741.261-.158.55-.25.866-.275.316-.026.642.075.979.303.337.228.667.584.99 1.069.465.697.972 2.333 1.52 4.908" style="fill:none;stroke:#fff;stroke-width:1.8189;stroke-linecap:round;stroke-linejoin:round;stroke-miterlimit:10;stroke-dasharray:none;stroke-opacity:1" transform="matrix(.72727 0 0 .72727 26.973 -255.643)"/><path d="M280.185 365.713c.27.262.637.403 1.101.42.667.025 2.248-.307 4.743-.995M293.87 363.18c.137-.501.177-.887.121-1.158a1.59 1.59 0 0 0-.236-.551 1.276 1.276 0 0 0-.471-.43 1.764 1.764 0 0 0-.709-.187c-.277-.02-.555.03-.834.154-.279.124-.533.336-.762.636-.23.301-.398.721-.507 1.26a9.559 9.559 0 0 0-.166 1.854 6.3 6.3 0 0 0 .356 2.086c.24.694.545 1.248.915 1.664.37.415.78.672 1.231.772.451.099.862-.063 1.233-.485.37-.423.651-1.006.842-1.749.19-.742.302-1.606.333-2.59.03-.984-.003-1.657-.1-2.02M302.35 361.89c-.25-.044-.597-.262-1.04-.655-.28-.249-.52-.418-.72-.508-.2-.09-.4-.15-.6-.18-.202-.029-.408.027-.62.169-.213.14-.411.415-.595.823s-.32.891-.406 1.451c-.086.56-.134 1.194-.142 1.903-.01.71.102 1.388.332 2.036.23.647.562 1.166.996 1.557.435.39.928.624 1.48.702.553.079 1.073-.07 1.56-.446.487-.375.862-.928 1.123-1.658a8.01 8.01 0 0 0 .458-2.254c.045-.774.006-1.459-.113-2.055-.12-.597-.257-1.055-.412-1.374-.154-.319-.385-.442-.692-.37M310.605 361.884c.199-.52.136-.858-.188-1.016-.228-.111-.576-.155-1.044-.132-.468.023-.806.113-1.015.271-.21.158-.455.47-.736.938-.28.467-.454.96-.521 1.478a5.496 5.496 0 0 0 .006 1.501c.07.483.243.878.52 1.186.276.308.596.491.96.55.365.06.763-.04 1.193-.303.43-.262.848-.704 1.255-1.325.408-.622.785-1.324 1.134-2.107.348-.783.66-1.68.934-2.69.274-1.009.513-2.026.714-3.05.202-1.023.351-1.908.448-2.653a24.04 24.04 0 0 0 .174-1.647c.019-.353-.038-.508-.17-.467-.13.04-.314.337-.549.89-.235.551-.417 1.306-.547 2.264-.13.957-.19 1.926-.183 2.905.007.98.116 1.903.327 2.77.211.866.477 1.664.796 2.393.468 1.067 1.296 1.73 2.483 1.989" style="fill:none;stroke:#fff;stroke-width:1.8189;stroke-linecap:round;stroke-linejoin:round;stroke-miterlimit:10;stroke-dasharray:none;stroke-opacity:1" transform="matrix(.72727 0 0 .72727 26.973 -255.643)"/><path d="M146.714 406.587c1.025-.474 1.677-.816 1.957-1.027M153.95 403.201l.897-.447M161.413 399.232l.219-.192M165.318 396.546l.445-.164M170.633 394.273l.928-.385M175.308 391.65l.603-.42M179.432 389.755l.55-.639M184.94 386.63c-.21-.015-.32.094-.327.326M191.57 383.484h.03M197.141 381.02l.03-.261M202.969 376.761l.513-.514M209.046 373.59c-.123-.145-.061-.213.185-.206M216.44 368.672a.545.545 0 0 1 .464-.338M222.209 365.232c-.107-.119-.002-.214.315-.285M228.729 361.28c.195-.11.24-.191.135-.246-.075-.039-.086-.048-.033-.028l.717.276M236.744 357.52l.445-.611M243.235 353.757c-.06-.262.075-.418.406-.468M250.637 350.652c.16-.427.407-.76.738-1a1.243 1.243 0 0 1 1.098-.197M145.144 413.447l.64.384M151.838 416.297l.03-.029M152.125 416.172l.769.831M158.05 419.882l.415.288M163.78 422.827l.928.64M172.073 425.836l.928.548M179.243 429.234l.8.35M184.688 431.864c-.082-.342-.21-.525-.387-.55-.173-.026-.242.398-.205 1.271M191.282 433.986c.385-.17.822-.076 1.308.28M199.855 437.149c.276.343.662.638 1.158.885M206.638 441.17c.253-.082.486.036.697.352M214.489 444.919l.837.447M223.846 448.16c.301-.066.598-.008.892.174M231.362 452.928c.428-.018.677-.006.747.035M240.454 456.991l1.153.543M250.255 460.604l.346.034M258.412 465.92l.324-.385" style="fill:none;stroke:#000;stroke-width:1.8189;stroke-linecap:round;stroke-linejoin:round;stroke-miterlimit:10;stroke-dasharray:none;stroke-opacity:1" transform="matrix(.72727 0 0 .72727 24.868 -249.502)"/><path d="M179.646 390.856c.522.62.9 1.138 1.132 1.552.16.283.304.492.435.628.132.135.245.363.341.685.096.321.234.732.414 1.233.18.5.308 1.045.386 1.633.078.588.175 1.153.293 1.695.118.543.188 1.213.211 2.01.023.797.066 1.356.128 1.678.063.322.096.753.098 1.293.003.54.034 1.025.095 1.453.06.429.15.938.266 1.527.117.588.198 1.22.243 1.895.045.674.068 1.855.07 3.54 0 1.686-.015 2.706-.046 3.06a8.73 8.73 0 0 1-.222 1.251 16.78 16.78 0 0 0-.304 1.66 15.92 15.92 0 0 0-.145 1.38c-.012.296-.076.788-.193 1.476a23.542 23.542 0 0 1-.446 2.063c-.18.687-.309 1.187-.384 1.499-.076.312-.213.66-.411 1.043-.199.384-.483.863-.851 1.44l-.77 1.204M146.317 408.168c.094.727.143 1.526.144 2.397.002.872-.15 1.389-.456 1.551" style="fill:none;stroke:#7ec636;stroke-width:1.8189;stroke-linecap:round;stroke-linejoin:round;stroke-miterlimit:10;stroke-dasharray:none;stroke-opacity:1" transform="matrix(.72727 0 0 .72727 24.868 -249.502)"/><path d="M189.362 405.246c.746-.022 1.502.03 2.268.16a14.13 14.13 0 0 1 1.98.46c.553.178 1.104.394 1.651.647.548.253.986.525 1.314.816.329.291.534.602.616.934.082.331.018.684-.192 1.058-.302.537-1.196 1.65-2.682 3.34M191.663 409.688c-.494.037-1.083.165-1.77.383a72.83 72.83 0 0 1-1.937.59c-.606.174-1.327.346-2.165.515-.838.17-1.795.32-2.872.45s-2.24.235-3.49.313a76.73 76.73 0 0 1-3.596.144 85.662 85.662 0 0 1-5.468-.101" style="fill:none;stroke:#fff;stroke-width:1.8189;stroke-linecap:round;stroke-linejoin:round;stroke-miterlimit:10;stroke-dasharray:none;stroke-opacity:1" transform="matrix(.72727 0 0 .72727 -25.054 -246.22)"/><path d="M39.952 381.938c-.035.798-.025 2.156.031 4.076.056 1.92.094 3.26.112 4.021.028 1.169.128 2.139.3 2.91M39.965 381.587c-.127-.155-.195-.488-.203-1a2.007 2.007 0 0 1 .16-.862c.113-.25.275-.46.488-.626.212-.166.464-.288.755-.364a4.776 4.776 0 0 1 1.01-.138c.382-.015.809.058 1.28.22a5.6 5.6 0 0 1 1.365.698c.437.302.79.655 1.057 1.06.268.404.441.885.521 1.441.08.557.049 1.137-.093 1.74a5.516 5.516 0 0 1-.719 1.702c-.5.788-1.192 1.5-2.077 2.138M50.311 376.121c-.022-.324-.04-.478-.055-.464l-.074.076c-.04.04-.062.62-.064 1.74-.003 1.12.022 2.005.075 2.654s.12 1.317.199 2.003c.079.687.15 1.327.21 1.92.06.592.12 1.064.18 1.416.059.352.127.596.205.734.078.138.142.009.19-.386.05-.395.128-.793.237-1.193.109-.4.27-.826.484-1.28.213-.452.443-.85.688-1.195.246-.344.463-.586.652-.725.188-.139.345-.208.47-.207.124 0 .268.302.432.905.163.602.358 1.313.586 2.132.228.82.4 1.35.518 1.59.117.241.238.404.363.489.176.12.57-.204 1.18-.971M61.518 381.4c.322-.233.54-.45.654-.653.078-.14.109-.334.091-.586-.017-.252-.09-.425-.22-.52a1.135 1.135 0 0 0-.498-.189 2.724 2.724 0 0 0-.693-.009c-.26.026-.526.138-.8.336a3.044 3.044 0 0 0-.73.776c-.215.32-.381.704-.5 1.156a8.262 8.262 0 0 0-.23 1.622c-.034.63-.02 1.238.044 1.825.063.587.23 1.071.499 1.453.27.381.609.635 1.018.762.41.127.83.144 1.259.053.429-.092.82-.33 1.17-.714.352-.383.631-.879.838-1.486a8.089 8.089 0 0 0 .396-1.913c.057-.668.044-1.223-.04-1.664-.122-.636-.478-.982-1.07-1.04M69.648 373.1a39.874 39.874 0 0 0 .108 3.685c.048.646.08 1.35.1 2.111.026 1.09-.025 4.444-.155 10.06" style="fill:none;stroke:#fff;stroke-width:1.8189;stroke-linecap:round;stroke-linejoin:round;stroke-miterlimit:10;stroke-dasharray:none;stroke-opacity:1" transform="matrix(.72727 0 0 .72727 -28.256 -224.79)"/><path d="M66.497 379.918c.075.186.431.279 1.067.279.636 0 1.216-.065 1.74-.193.764-.187 1.968-.373 3.612-.558M78.134 382.312c.172-.15.26-.37.266-.662a1.484 1.484 0 0 0-.072-.514.7.7 0 0 0-.243-.344.921.921 0 0 0-.43-.16 1.79 1.79 0 0 0-.637.052c-.25.059-.52.181-.805.367a4.359 4.359 0 0 0-.811.687 3.665 3.665 0 0 0-.621.9c-.16.328-.274.85-.343 1.563-.068.715-.02 1.355.146 1.921.166.566.44 1.05.824 1.45.384.401.815.696 1.295.886.48.19.953.249 1.42.178.468-.071.872-.335 1.212-.79.34-.456.578-1.055.716-1.798.138-.743.218-1.481.239-2.214a7.763 7.763 0 0 0-.54-3.121M84.503 382.04l.152-.541c.01-.037.022-.017.033.06l.094.626c.05.34.26 1.27.627 2.792.367 1.521.582 2.389.645 2.602l.105.355c.007.023.003-.013-.01-.11l-.208-1.493a29.244 29.244 0 0 1-.245-2.368 38.217 38.217 0 0 1-.063-1.854c-.004-.555.035-.965.116-1.231.08-.266.2-.435.358-.506.158-.072.38-.1.666-.085.285.016.614.05.987.105.54.079 1.472.147 2.795.203M96.522 383.227c.166.05.357-.004.572-.165.144-.108.283-.254.417-.438a3.65 3.65 0 0 0 .312-.494c.074-.146.137-.364.19-.655a4.97 4.97 0 0 0 .088-.75.87.87 0 0 0-.137-.526 1.262 1.262 0 0 0-.408-.368 2.405 2.405 0 0 0-.615-.249 3.79 3.79 0 0 0-.781-.114c-.287-.014-.582.075-.888.268-.306.193-.564.49-.774.892-.21.402-.371.89-.483 1.461a8.468 8.468 0 0 0-.138 1.855c.02.665.154 1.258.405 1.781.25.523.567.938.95 1.246.383.308.816.499 1.297.573.692.107 1.87-.288 3.53-1.188M106.19 380.223c.114-.084.155-.19.123-.318-.022-.09-.105-.168-.248-.236a1.866 1.866 0 0 0-.562-.147 6.052 6.052 0 0 0-.82-.038c-.317.004-.648.07-.993.198a2.45 2.45 0 0 0-.91.594c-.26.267-.451.631-.574 1.093-.123.462-.188 1.023-.193 1.683a5.1 5.1 0 0 0 .386 1.965c.262.65.638 1.198 1.129 1.645.49.447 1.036.742 1.64.885.868.205 2.05-.265 3.548-1.41M114.157 383.175c.327-.224.632-.483.915-.776.188-.196.359-.412.511-.649.154-.236.268-.464.343-.684.075-.22.12-.41.135-.574.014-.164-.138-.396-.456-.697-.318-.3-.591-.515-.82-.643a2.466 2.466 0 0 0-.704-.267c-.24-.05-.492-.04-.756.029-.264.07-.52.257-.771.565-.25.307-.452.72-.604 1.237-.152.518-.24 1.128-.264 1.832a6.345 6.345 0 0 0 .23 1.982c.177.617.455 1.113.833 1.49.377.377.807.636 1.287.778.691.205 1.923-.11 3.694-.945M122.256 381.44c-.05.349-.076.726-.076 1.131 0 .406.067 1.311.202 2.716.135 1.406.25 2.534.348 3.384.098.85.218 1.55.362 2.1.144.549.385.953.723 1.213" style="fill:none;stroke:#fff;stroke-width:1.8189;stroke-linecap:round;stroke-linejoin:round;stroke-miterlimit:10;stroke-dasharray:none;stroke-opacity:1" transform="matrix(.72727 0 0 .72727 -28.256 -224.79)"/><path d="M121.565 381.881c-.207-.768-.3-1.491-.28-2.167.013-.456.065-.787.156-.993.092-.206.266-.427.522-.665.256-.238.539-.38.849-.426.31-.046.663-.012 1.06.103.399.114.801.29 1.208.526.407.236.807.49 1.2.761.394.271.73.562 1.01.874.279.312.466.659.56 1.042.096.383.106.815.033 1.295s-.267.943-.582 1.388a3.914 3.914 0 0 1-1.09 1.061c-.615.392-1.217.536-1.806.43M132.255 371.75a53.717 53.717 0 0 0 .026 2.9c.023.572.102 1.61.238 3.117.135 1.507.222 2.72.26 3.638.054 1.355.073 3.005.056 4.953" style="fill:none;stroke:#fff;stroke-width:1.8189;stroke-linecap:round;stroke-linejoin:round;stroke-miterlimit:10;stroke-dasharray:none;stroke-opacity:1" transform="matrix(.72727 0 0 .72727 -28.256 -224.79)"/><path d="m128.601 377.846-.15.101c-.013.009.023.01.11.004l.535-.042c.27-.02.682-.09 1.236-.205a16.558 16.558 0 0 1 1.903-.267 12.984 12.984 0 0 1 2.046-.027c.949.066 2.212.312 3.79.737M143.243 380.587a1.23 1.23 0 0 0-.043-.559c-.037-.1-.19-.216-.459-.345-.268-.13-.5-.228-.696-.295a3.246 3.246 0 0 0-.639-.144 2.99 2.99 0 0 0-.714-.002c-.247.028-.515.162-.802.405-.288.242-.558.574-.81.995a4.664 4.664 0 0 0-.553 1.483 8.794 8.794 0 0 0-.169 1.79c.003.625.12 1.19.354 1.695.233.504.54.91.924 1.215.383.306.823.492 1.318.56.495.068.984-.008 1.468-.226.483-.218.891-.577 1.224-1.078.332-.5.571-1.076.718-1.725.146-.65.234-1.247.264-1.793.045-.803-.201-1.565-.739-2.285M149.353 380.915c-.03-.276-.048-.424-.05-.442-.002-.013.005 0 .018.043l.241.74c.147.451.29.981.43 1.59.14.61.284 1.221.434 1.837.15.615.288 1.13.416 1.543.128.413.217.677.267.79l.096.22c.014.032.017.008.011-.071l-.044-.537c-.022-.279-.144-.762-.366-1.451a39.78 39.78 0 0 1-.556-1.869c-.149-.557-.25-1.031-.301-1.423a6.955 6.955 0 0 1-.076-.907c.002-.212.104-.373.305-.483.202-.11.482-.201.84-.273.36-.072.759-.126 1.199-.162.44-.036.906-.094 1.4-.173.73-.117 1.564-.315 2.5-.595M161.614 379.768c.2-.06.317-.198.35-.413.033-.215.045-.388.036-.52-.009-.13-.083-.222-.225-.273-.142-.052-.333-.05-.573.006-.24.055-.48.213-.722.473-.24.26-.44.567-.599.922-.158.356-.275.731-.35 1.127a6.443 6.443 0 0 0-.126 1.011c-.008.28.022.489.088.63.067.14.193.236.38.287.186.05.434.079.744.084.31.005.657-.01 1.04-.047a4.076 4.076 0 0 1 1.208.074 2.05 2.05 0 0 1 1.11.649c.32.346.532.76.638 1.244.106.483.112.948.019 1.394a1.873 1.873 0 0 1-.684 1.106c-.519.417-1.307.353-2.363-.192" style="fill:none;stroke:#fff;stroke-width:1.8189;stroke-linecap:round;stroke-linejoin:round;stroke-miterlimit:10;stroke-dasharray:none;stroke-opacity:1" transform="matrix(.72727 0 0 .72727 -28.256 -224.79)"/><path d="M382.713 295.733c.028 1.312.042 3.302.042 5.969v2.974M393.852 320.035c-.175-.067-.268-.201-.277-.4-.01-.2-.004-.374.016-.522.02-.148.086-.314.197-.498.11-.184.241-.363.394-.537a2.98 2.98 0 0 1 .454-.427c.151-.112.291-.18.42-.206a.68.68 0 0 1 .377.03.84.84 0 0 1 .353.287c.114.146.21.315.288.505.078.19.135.406.17.648a6.58 6.58 0 0 1-.038 1.985c-.066.425-.154.84-.262 1.248-.108.408-.239.821-.391 1.24a9.31 9.31 0 0 1-1.235 2.337c-.275.38-.428.607-.46.68-.032.074.364.11 1.188.112.824.001 1.375.043 1.653.124s.51.166.693.255c.276.134.544.19.806.167M385.116 347.307c-.132.016-.203-.09-.213-.318a4.225 4.225 0 0 1 .026-.682c.027-.227.1-.457.216-.69.118-.232.28-.461.487-.688.208-.226.434-.397.68-.514.244-.117.473-.178.685-.182.213-.005.404.104.575.327.17.223.298.504.382.844.084.34.137.688.16 1.045.023.358.028.686.016.985-.012.3-.081.67-.208 1.112-.127.44-.05.664.229.67.28.006.593.052.941.14.349.086.638.205.868.356.23.15.412.301.543.451.131.15.26.354.389.613.127.258.218.569.272.933.054.363.03.752-.073 1.167a2.217 2.217 0 0 1-.666 1.1 2.686 2.686 0 0 1-1.13.646c-.601.165-1.209.004-1.822-.482" style="fill:none;stroke:#007aff;stroke-width:1.8189;stroke-linecap:round;stroke-linejoin:round;stroke-miterlimit:10;stroke-dasharray:none;stroke-opacity:1" transform="matrix(.72727 0 0 .72727 -140.407 -187.467)"/><path d="M192.063 485.213c-.034.82-.015 1.517.056 2.09.049.39.182 1.223.398 2.5.217 1.277.359 2.137.425 2.58.067.443.138.848.214 1.215.075.366.115.56.12.579.003.02.001.017-.006-.006l-.224-.707c-.141-.447-.277-.92-.406-1.42a18.82 18.82 0 0 1-.336-1.59 86.02 86.02 0 0 1-.57-4.092 34.221 34.221 0 0 1-.232-3.654c-.003-.466.044-.863.143-1.191.099-.328.24-.6.423-.813.183-.214.399-.368.649-.464.25-.096.54-.153.87-.171.33-.018.734.033 1.213.156.478.122 1.018.333 1.62.634.602.301 1.173.657 1.711 1.068.539.41.988.885 1.347 1.422.36.537.599 1.113.718 1.728.12.615.136 1.222.049 1.82-.088.598-.3 1.1-.64 1.506-.34.405-.754.699-1.243.881-.726.27-1.401.27-2.025 0M204.408 481.328v-.228c0-.01.011.018.034.085l.28.838c.164.492.318 1.044.464 1.655.145.612.27 1.303.376 2.075.106.771.181 1.476.225 2.115.043.639.071 1.193.083 1.662l.02.785c.001.054-.004.054-.017 0l-.19-.795a22.122 22.122 0 0 1-.335-1.8c-.11-.723-.214-1.717-.312-2.98a159.493 159.493 0 0 1-.18-2.453 9.517 9.517 0 0 1-.02-.85.58.58 0 0 1 .222-.457c.14-.11.37-.183.69-.218.32-.036.73-.043 1.233-.022.502.021 1.03.074 1.585.16.553.085 1.068.152 1.544.201.7.073 1.564.071 2.593-.005M224.554 472.425a22.86 22.86 0 0 0-2.2-.173 13.508 13.508 0 0 1-1.792-.195c-.647-.111-1-.011-1.057.3-.059.31-.094.896-.105 1.758-.012.861-.01 1.507.006 1.937.015.43.087 1.207.214 2.33s.204 1.861.231 2.215c.027.354.043 1.233.046 2.639.003 1.405.018 2.377.045 2.917.027.539.04 1.171.042 1.897 0 .726-.043 1.295-.13 1.708a8.876 8.876 0 0 1-.208.843c-.05.15.047.29.291.42.245.13.534.224.868.281.334.057.935.114 1.803.172.867.057 1.937.168 3.21.333 1.272.165 2.02-.04 2.245-.613" style="fill:none;stroke:#fff;stroke-width:1.8189;stroke-linecap:round;stroke-linejoin:round;stroke-miterlimit:10;stroke-dasharray:none;stroke-opacity:1" transform="matrix(.72727 0 0 .72727 -136.447 -246.576)"/><path d="M231.848 477.395a3253.3 3253.3 0 0 1-.025-.69v-.002l.005.067.117 1.616c.074 1.023.165 2.004.272 2.944.108.94.23 1.824.368 2.65.138.828.258 1.472.362 1.934.103.462.165.755.184.877l.038.25" style="fill:none;stroke:#007aff;stroke-width:1.8189;stroke-linecap:round;stroke-linejoin:round;stroke-miterlimit:10;stroke-dasharray:none;stroke-opacity:1" transform="matrix(.72727 0 0 .72727 -136.447 -246.576)"/><path d="m238.674 473.209-.553.108c-.014.003.01.004.073.004h1.344c.834 0 1.52.028 2.058.085.538.057 1.124.143 1.757.259.633.115.922.352.868.71-.054.358-.088.91-.101 1.656a156.169 156.169 0 0 0 .003 5.126c.016.576.057 1.136.125 1.681.068.545.176 1.034.324 1.468.15.434.405 1.065.769 1.893.363.83.668 1.555.915 2.177a18.8 18.8 0 0 0 .67 1.53c.2.396.274.646.219.75-.055.104-.242.179-.561.225a12.05 12.05 0 0 1-1.095.099c-.412.02-1.01.08-1.797.18-.787.099-1.338-.11-1.652-.627M257.864 480.466c1.047-.06 2.042.007 2.987.203M257.125 485.866c1.442.082 2.697.06 3.764-.067" style="fill:none;stroke:#fff;stroke-width:1.8189;stroke-linecap:round;stroke-linejoin:round;stroke-miterlimit:10;stroke-dasharray:none;stroke-opacity:1" transform="matrix(.72727 0 0 .72727 -136.447 -246.576)"/><path d="M279.726 395.079c.121-.03.253-.233.395-.606.091-.238.14-.51.144-.816.005-.306-.05-.541-.167-.707a1.65 1.65 0 0 0-.454-.43 2.814 2.814 0 0 0-.652-.305 3.595 3.595 0 0 0-.853-.16 4.195 4.195 0 0 0-1.054.064c-.382.068-.792.275-1.23.621-.437.346-.828.881-1.172 1.606-.344.724-.605 1.582-.782 2.574-.177.99-.229 2.094-.154 3.31.075 1.214.3 2.355.675 3.423.375 1.067.862 2 1.463 2.796.6.796 1.267 1.325 2 1.585.735.26 1.43.267 2.089.02.658-.248 1.244-.718 1.759-1.41a6.922 6.922 0 0 0 1.118-2.283c.232-.83.365-1.76.4-2.79a12.285 12.285 0 0 0-.329-3.191 25.506 25.506 0 0 0-.829-2.888c-.298-.826-.572-1.434-.821-1.823s-.465-.608-.648-.658c-.259-.07-.43.31-.515 1.14M287.343 404.956l-.107-.329M297.243 394.692c.056-.15-.004-.392-.183-.722a2.012 2.012 0 0 0-.333-.476 1.046 1.046 0 0 0-.403-.238 2.275 2.275 0 0 0-.622-.098c-.252-.01-.538.058-.858.205-.32.147-.65.414-.989.8-.338.387-.65.887-.937 1.5a9.965 9.965 0 0 0-.652 1.814c-.149.598-.23 1.506-.245 2.725-.015 1.22.124 2.254.418 3.103.293.85.671 1.566 1.133 2.15.463.583.96.978 1.494 1.183.533.205 1.064.162 1.592-.128.529-.29.987-.806 1.373-1.546.387-.74.662-1.588.827-2.543.165-.956.242-1.927.232-2.914-.01-.988-.154-1.861-.43-2.622-.275-.76-.585-1.34-.93-1.74-.503-.583-1.156-.845-1.957-.787" style="fill:none;stroke:#007aff;stroke-width:1.8189;stroke-linecap:round;stroke-linejoin:round;stroke-miterlimit:10;stroke-dasharray:none;stroke-opacity:1" transform="matrix(.72727 0 0 .72727 -140.407 -187.467)"/><path d="M199.897 455.764c-.141.07-.282-.004-.423-.224a4.004 4.004 0 0 1-.299-.587c-.101-.238-.25-.641-.448-1.208a27.334 27.334 0 0 1-.567-1.856 24.224 24.224 0 0 1-.483-2.26 26.299 26.299 0 0 1-.3-2.426 34.81 34.81 0 0 1-.096-2.325c-.006-.77.02-1.494.077-2.172.058-.678.167-1.245.328-1.7.16-.454.371-.834.632-1.138.261-.305.58-.56.954-.765a4.027 4.027 0 0 1 1.16-.425c.4-.079.801-.096 1.203-.051.402.044.795.182 1.177.412.383.23.751.564 1.106 1 .355.436.637.973.848 1.611.21.638.332 1.306.365 2.003.033.697-.058 1.32-.274 1.867a4.41 4.41 0 0 1-.947 1.466c-.415.429-.877.765-1.384 1.009-.74.356-1.573.33-2.5-.08M210.412 448.737c-.137-.018-.268-.196-.393-.534a15.57 15.57 0 0 1-.312-.978c-.125-.43-.25-.934-.371-1.513a32.327 32.327 0 0 1-.564-3.858 24.01 24.01 0 0 1-.082-1.592c-.005-.436.012-.78.051-1.03.04-.25.119-.434.238-.55.12-.116.505-.188 1.157-.214a35.87 35.87 0 0 1 1.861-.03c.853.01 2.342-.261 4.468-.811M231.426 432.59c-1.23.006-2.504.003-3.819-.01-.873-.007-1.362.016-1.466.07-.104.052-.164.208-.181.466-.017.258-.026.633-.026 1.126 0 .492.043 1.09.13 1.794.088.704.19 1.77.306 3.196.115 1.427.22 2.673.313 3.738s.151 1.8.175 2.206c.024.406.037.784.04 1.135a8.1 8.1 0 0 1-.055 1.015 5.25 5.25 0 0 1-.19.916 4.915 4.915 0 0 1-.262.693c-.086.177-.158.292-.217.347-.058.055-.081.053-.07-.005.012-.058.1-.131.262-.22.163-.09.4-.151.713-.187.313-.035 1.251-.054 2.815-.058 1.563-.004 2.626.01 3.188.042.827.047 1.881.148 3.163.303M250.226 433.562c.012-.185.115-.29.308-.312a10.64 10.64 0 0 1 1.026-.033c.491 0 1.079.005 1.764.017l1.234.02c.138.003.198.014.18.032-.017.02-.07.076-.158.17a1.169 1.169 0 0 0-.23.435c-.064.196-.104.639-.12 1.328a17.49 17.49 0 0 0 .027 1.683c.033.434.078.856.133 1.266a14.822 14.822 0 0 0 .466 2.218c.105.365.201.74.29 1.126.088.386.191.903.31 1.552.119.65.25 1.27.395 1.863.145.593.234 1.043.267 1.35.033.308.012.527-.066.656-.077.13-.246.256-.506.379-.26.122-.588.235-.982.337a17.284 17.284 0 0 1-2.062.409c-.396.05-.702.036-.917-.046M266.317 438.152c.328.097.706.153 1.135.169.283.01.558.032.825.066.396.051.769.203 1.118.458M265.47 442.368c.926.18 2.301.218 4.124.115" style="fill:none;stroke:#fff;stroke-width:1.8189;stroke-linecap:round;stroke-linejoin:round;stroke-miterlimit:10;stroke-dasharray:none;stroke-opacity:1" transform="matrix(.72727 0 0 .72727 -141.226 -187.467)"/><path d="M200.272 496.009a21.96 21.96 0 0 1-.596-2.06c-.092-.401-.19-.865-.296-1.39a91.829 91.829 0 0 1-.432-2.403 72.31 72.31 0 0 1-.374-2.371 19.089 19.089 0 0 1-.14-1.549 34.654 34.654 0 0 1-.043-1.55c-.003-.504.035-.96.112-1.366.077-.407.194-.763.351-1.068a4.222 4.222 0 0 1 1.277-1.488c.249-.174.505-.309.769-.404a2.868 2.868 0 0 1 1.638-.096c.286.063.56.185.82.364.262.18.518.402.77.667.251.264.493.561.725.891.232.33.46.699.684 1.106.224.407.405.774.543 1.098.138.325.247.714.326 1.166.079.453.064.857-.045 1.212-.11.356-.347.697-.712 1.023a5.88 5.88 0 0 1-1.28.86 8.39 8.39 0 0 1-1.475.58c-.495.14-.91.225-1.243.251-.476.038-.75-.144-.824-.546M210.253 488.926v.197a.252.252 0 0 1-.02-.064l-.246-.87a11.53 11.53 0 0 1-.324-1.483 28.769 28.769 0 0 1-.176-1.588 43.162 43.162 0 0 1-.152-3.231c-.003-.4.012-.74.044-1.02.031-.278.08-.512.148-.702.067-.19.15-.34.247-.449.098-.109.243-.178.434-.209.19-.03.666-.023 1.428.021 1.101.064 3.084.091 5.948.081M231.027 473.62c-.667-.234-1.244-.355-1.732-.361-.331-.004-.688.01-1.07.044-.383.033-.832.051-1.348.053-.516.002-.815.052-.896.152-.08.1-.147.334-.2.704-.052.37-.08.858-.082 1.466-.002.608.035 1.516.11 2.724.077 1.208.146 2.01.206 2.408.06.398.18.992.355 1.78.176.79.297 1.408.364 1.856.067.448.135 1.045.206 1.79.07.745.106 1.4.11 1.966.003.567-.024 1.1-.082 1.603-.057.503.01.806.199.909.19.103.425.193.706.27.281.077.584.145.909.204.325.059.95.091 1.876.098.925.007 1.689-.042 2.29-.146M251.478 473.38a8.285 8.285 0 0 1 1.77-.19 9.16 9.16 0 0 1 1.187.068c.373.047.643.072.81.074a.864.864 0 0 0 .408-.077c.104-.054.17.072.197.379.027.306.04.767.04 1.38 0 .614.01 1.122.028 1.524.018.403.09 1.053.214 1.953.125.899.27 1.79.432 2.675.162.885.338 1.965.528 3.24.19 1.276.317 2.082.38 2.42.064.336.151.721.261 1.154.11.432.175.808.193 1.128.019.32-.02.545-.116.676a1.158 1.158 0 0 1-.45.344 3.04 3.04 0 0 1-.812.228c-.336.054-.924.088-1.762.101-.838.014-1.387.017-1.648.01-.375-.01-.633-.24-.776-.692M268.722 480.189c1.621-.058 2.697.027 3.228.254M268.056 484.298c-.04.108.144.207.549.299.582.13 1.953.187 4.112.169" style="fill:none;stroke:#fff;stroke-width:1.8189;stroke-linecap:round;stroke-linejoin:round;stroke-miterlimit:10;stroke-dasharray:none;stroke-opacity:1" transform="matrix(.72727 0 0 .72727 -141.882 -190.416)"/><path d="M240.017 437.868c-.108.016-.194-.096-.26-.336-.065-.241-.107-.643-.124-1.205-.018-.563.009-.97.08-1.224.072-.253.169-.473.292-.66.123-.188.249-.32.378-.397a1.087 1.087 0 0 1 .763-.142.93.93 0 0 1 .358.154c.115.08.225.186.328.317.102.132.19.3.265.508.074.207.138.437.19.69.054.254.096.529.127.825.031.295.052.883.062 1.762.01.879-.016 1.468-.08 1.766a5.418 5.418 0 0 1-.338 1.006 8.44 8.44 0 0 1-.616 1.148 8.031 8.031 0 0 1-.799 1.065 4.316 4.316 0 0 1-.787.716c-.241.16-.442.258-.601.294-.16.035-.28.048-.362.04-.081-.01-.129-.07-.143-.18a.922.922 0 0 1 .054-.396.525.525 0 0 1 .316-.33c.16-.067.37-.107.631-.12.261-.015.58.036.956.151a8.06 8.06 0 0 1 1.19.481c.419.206.837.406 1.254.601.608.284 1.535.396 2.781.337" style="fill:none;stroke:#007aff;stroke-width:1.8189;stroke-linecap:round;stroke-linejoin:round;stroke-miterlimit:10;stroke-dasharray:none;stroke-opacity:1" transform="matrix(.72727 0 0 .72727 -141.226 -187.467)"/><path d="M239.407 480.412a.862.862 0 0 1-.5-.548 2.35 2.35 0 0 1-.093-.71 3.654 3.654 0 0 1 .414-1.738c.148-.288.343-.543.585-.764.241-.222.51-.37.804-.445.295-.074.574-.063.836.033s.471.295.627.595c.155.301.26.628.313.98.054.354.087.674.098.961.011.288.012.523 0 .706-.01.183-.098.366-.262.551-.164.185-.276.291-.336.318l-.099.043c-.006.003.002.003.025 0 .022-.001.148-.014.375-.038.228-.023.485-.035.77-.037.284-.002.592.048.924.15.33.103.674.253 1.03.45.356.198.69.43 1.004.696.314.266.58.564.8.894.218.33.367.68.447 1.048.08.369.065.794-.042 1.277-.108.483-.358 1.014-.751 1.592a7.433 7.433 0 0 1-1.373 1.525c-.524.438-1.037.757-1.541.956-.719.284-1.357-.034-1.916-.954" style="fill:none;stroke:#007aff;stroke-width:1.8189;stroke-linecap:round;stroke-linejoin:round;stroke-miterlimit:10;stroke-dasharray:none;stroke-opacity:1" transform="matrix(.72727 0 0 .72727 -141.882 -190.416)"/><path d="M283.02 433.346c.002-.456-.06-.778-.185-.967a1.217 1.217 0 0 0-.375-.35 1.813 1.813 0 0 0-.58-.229 4.477 4.477 0 0 0-.775-.091 3.285 3.285 0 0 0-.91.097 5 5 0 0 0-.963.348 3.61 3.61 0 0 0-.92.636c-.286.268-.55.625-.79 1.072-.242.446-.43.98-.564 1.6-.133.62-.21 1.248-.23 1.885-.019.637.015 1.252.103 1.845s.253 1.213.494 1.86c.242.647.559 1.24.951 1.776.392.537.84.926 1.346 1.167.505.24 1.044.354 1.618.34.574-.015 1.121-.23 1.643-.646a5.229 5.229 0 0 0 1.248-1.403c.31-.52.566-1.187.766-2.001.2-.814.316-1.588.348-2.32.032-.734.008-1.438-.072-2.112-.08-.675-.203-1.214-.366-1.617-.247-.61-.543-.977-.887-1.1M290.173 441.25l-.418.398M297.47 435.346c-.138.086-.259-.085-.362-.512a11.838 11.838 0 0 1-.241-1.372 63.278 63.278 0 0 0-.192-1.462c-.07-.488-.157-.934-.261-1.338a5.007 5.007 0 0 0-.327-.948c-.114-.229-.229-.388-.344-.477-.116-.089-.166.032-.152.364.015.332.098.645.249.94.15.295.363.565.636.807.274.243.606.423.995.538.39.116.814.182 1.273.2.459.017.911.01 1.357-.02.446-.03.856-.095 1.229-.195.373-.1.689-.198.947-.292.258-.095.44-.175.549-.24l.212-.13c.034-.02.04-.03.019-.031l-.135-.004c-.068-.002-.187.032-.357.102-.17.07-.358.2-.562.389-.204.188-.41.43-.618.727-.207.296-.399.678-.575 1.147a13.485 13.485 0 0 0-.502 1.782c-.16.72-.308 1.435-.448 2.147-.139.712-.251 1.345-.336 1.9-.126.814-.27 1.889-.433 3.224" style="fill:none;stroke:#007aff;stroke-width:1.8189;stroke-linecap:round;stroke-linejoin:round;stroke-miterlimit:10;stroke-dasharray:none;stroke-opacity:1" transform="matrix(.72727 0 0 .72727 -141.226 -187.467)"/><path d="M285.258 478.413c.054-.34.024-.633-.09-.877a3.133 3.133 0 0 0-.38-.587 3.613 3.613 0 0 0-.484-.523 1.736 1.736 0 0 0-.533-.3c-.21-.076-.476-.108-.8-.096-.323.012-.654.118-.99.319-.337.2-.638.47-.905.807a5.752 5.752 0 0 0-.72 1.224 8.421 8.421 0 0 0-.508 1.518 8.495 8.495 0 0 0-.206 1.77 7.13 7.13 0 0 0 .28 2.048c.2.718.478 1.374.834 1.968.356.594.788 1.038 1.295 1.33.508.292 1.035.44 1.584.443a2.462 2.462 0 0 0 1.514-.509 4.844 4.844 0 0 0 1.205-1.33c.343-.544.593-1.06.75-1.546.158-.487.265-1.09.32-1.812.055-.72.056-1.33.002-1.829a5.576 5.576 0 0 0-.271-1.278c-.187-.52-.527-1.085-1.018-1.692M291.227 485.332l-.04.244M303.037 477.516c-.007-.296-.045-.52-.114-.672a1.448 1.448 0 0 0-.278-.372c-.138-.143-.35-.268-.635-.374a4.792 4.792 0 0 0-.775-.225 4.018 4.018 0 0 0-.661-.072c-.21-.004-.507.135-.89.419a4.323 4.323 0 0 0-1.03 1.117c-.302.46-.567.985-.792 1.575a6.92 6.92 0 0 0-.428 1.708c-.06.55-.03 1.14.094 1.77.123.63.356 1.218.696 1.766.341.548.739.969 1.193 1.262.454.293.95.445 1.486.455.537.01 1.094-.204 1.671-.643a6.784 6.784 0 0 0 1.523-1.633c.438-.651.753-1.287.946-1.908.193-.62.286-1.201.28-1.741-.007-.54-.107-1.019-.301-1.434a3.934 3.934 0 0 0-.699-1.054c-.394-.416-.968-1.177-1.722-2.283" style="fill:none;stroke:#007aff;stroke-width:1.8189;stroke-linecap:round;stroke-linejoin:round;stroke-miterlimit:10;stroke-dasharray:none;stroke-opacity:1" transform="matrix(.72727 0 0 .72727 -141.882 -190.416)"/></svg>