<svg xmlns="http://www.w3.org/2000/svg" width="269.85" height="71.846"><path d="M176.743 588.317c-.146-.094-.317-.08-.513.04-.195.121-.328.244-.398.37-.07.125-.12.32-.153.588-.033.267-.05.61-.054 1.03-.003.42.068.906.214 1.458.145.553.362 1.14.65 1.76.286.62.617 1.162.992 1.625.374.463.772.823 1.194 1.078.422.256.86.424 1.312.504.452.08.906.094 1.361.039.456-.055.893-.245 1.312-.571.42-.326.81-.729 1.172-1.207a9.17 9.17 0 0 0 .951-1.57c.273-.569.505-1.164.698-1.786.192-.622.339-1.302.44-2.039.1-.737.165-1.493.192-2.27a73.25 73.25 0 0 0 .045-2.318c.003-.77-.05-1.509-.16-2.216-.109-.706-.265-1.4-.467-2.081a37.087 37.087 0 0 0-1.802-4.78 21.308 21.308 0 0 0-1.353-2.526 18.085 18.085 0 0 0-1.543-2.113 61.52 61.52 0 0 1-1.574-1.922c-.51-.648-.995-1.3-1.456-1.958a38.115 38.115 0 0 1-1.35-2.068 22.676 22.676 0 0 1-1.066-1.93c-.272-.564-.549-1.295-.832-2.19a12.31 12.31 0 0 1-.534-2.763 28.153 28.153 0 0 1-.066-2.97c.03-1.034.163-2 .402-2.897.24-.897.562-1.788.968-2.671.406-.884.863-1.703 1.37-2.456.506-.754 1.03-1.388 1.573-1.901.542-.513 1.07-.904 1.581-1.173.76-.4 1.568-.55 2.425-.45" style="fill:none;stroke:#fff;stroke-width:1.8189;stroke-linecap:round;stroke-linejoin:round;stroke-miterlimit:10;stroke-dasharray:none;stroke-opacity:1" transform="matrix(.72727 0 0 .72727 -125.842 -394.941)"/><path d="M177.775 579.055a39.405 39.405 0 0 1 1.677-4.523c.412-.92.88-1.837 1.405-2.75.524-.914 1.082-1.859 1.673-2.834.867-1.43 2.057-3.332 3.571-5.707M201.53 550.13c-.248-.332-.85-.445-1.807-.338-.632.071-1.158.22-1.576.448-.418.227-.872.57-1.36 1.032-.489.46-1.013 1.146-1.573 2.057s-1.091 2.11-1.594 3.598c-.503 1.487-.934 3.253-1.293 5.298a43.715 43.715 0 0 0-.635 6.275 34.553 34.553 0 0 0 .455 6.592c.367 2.256.906 4.313 1.617 6.172 1.057 2.762 2.619 5.493 4.687 8.194" style="fill:none;stroke:#fff;stroke-width:1.8189;stroke-linecap:round;stroke-linejoin:round;stroke-miterlimit:10;stroke-dasharray:none;stroke-opacity:1" transform="matrix(.72727 0 0 .72727 -125.842 -394.941)"/><path d="M211.223 573.437c0-.57.037-1.346.112-2.326a35.6 35.6 0 0 0 .117-2.395 6.554 6.554 0 0 0-.174-1.63c-.12-.473-.3-.807-.543-1.004a1.253 1.253 0 0 0-.819-.293c-.303 0-.605.161-.906.48-.3.32-.54.75-.718 1.29a7.872 7.872 0 0 0-.353 1.715c-.058.602-.09 1.193-.096 1.773-.006.58.06 1.148.199 1.704.138.557.333 1.037.587 1.442.253.404.547.726.883.966.335.24.933.456 1.792.65a32.3 32.3 0 0 1 2.033.515c.495.148.972.35 1.43.604.459.255.81.604 1.056 1.049.245.445.356.963.33 1.555-.024.593-.213 1.163-.565 1.71-.352.547-.79.953-1.314 1.217-.524.264-1.041.39-1.552.378-.728-.017-1.337-.764-1.824-2.239M220.062 570.712v-.35l-.002.041c0 .035-.012.273-.03.714-.02.442-.03 1.654-.03 3.637 0 1.984.083 3.761.249 5.333M220.728 562.333l-.564.663M229.505 572.773c-.19-.348-.511-.65-.967-.906-.456-.256-.845-.42-1.167-.493a2.553 2.553 0 0 0-1.053.001c-.38.074-.735.319-1.064.735a4.21 4.21 0 0 0-.737 1.48 6.746 6.746 0 0 0-.253 1.777c-.007.616.129 1.194.408 1.735.279.54.642.992 1.09 1.354.449.363.94.587 1.473.675.533.087 1.051-.01 1.553-.292s.958-.731 1.367-1.348c.41-.617.769-1.334 1.078-2.154.308-.819.533-1.569.675-2.25.141-.68.219-1.184.233-1.512.014-.327-.068-.521-.245-.584-.177-.063-.37.008-.577.211-.208.203-.387.535-.537.994-.15.459-.243.99-.28 1.595-.035.604-.025 1.226.033 1.866.057.64.203 1.35.436 2.132.234.78.71 2.198 1.429 4.253a316.018 316.018 0 0 1 1.506 4.376c.286.862.478 1.64.577 2.335.099.694.118 1.27.057 1.729-.06.458-.273.795-.638 1.01-.366.215-.862.3-1.488.252-.626-.047-1.32-.313-2.08-.797-.76-.484-1.367-1.034-1.82-1.652-.657-.892-.673-2.034-.049-3.426M235.525 574.235c.127.11.27.05.432-.179.162-.229.33-.589.507-1.08a15.24 15.24 0 0 0 .501-1.813c.159-.717.383-1.825.673-3.324.29-1.5.456-2.534.5-3.102a7.65 7.65 0 0 0 0-1.432c-.046-.386-.161-.648-.346-.785-.186-.137-.352-.213-.5-.227-.148-.013-.304.158-.47.514-.164.356-.27.777-.314 1.262-.045.484-.07 1.04-.074 1.669-.005.628.002 1.362.021 2.202.019.84.088 1.775.21 2.807.122 1.031.273 2.038.455 3.018.18.98.366 1.909.556 2.786.19.876.352 1.662.489 2.358.136.695.251 1.228.345 1.597.093.369.156.524.19.465.032-.06.115-.207.246-.442.132-.236.308-.696.529-1.38.22-.685.501-1.385.843-2.102.341-.717.68-1.345 1.014-1.886.335-.54.604-.908.806-1.102.203-.195.348-.066.434.387.087.453.146.975.178 1.566.031.59.098 1.22.2 1.886.101.667.263 1.304.485 1.91.221.605.487 1.038.799 1.297.31.26.626.348.946.265.32-.083.576-.339.768-.766a4.29 4.29 0 0 0 .344-1.47c.056-.813-.061-1.757-.352-2.83M249.637 573.891c.355-.786.66-1.626.911-2.522.168-.596.314-1.227.439-1.894.125-.667.263-1.649.414-2.945.152-1.296.236-2.202.253-2.718.017-.515.011-.884-.017-1.107-.03-.222-.12-.319-.274-.29-.153.029-.326.234-.52.616a4.771 4.771 0 0 0-.426 1.332c-.09.507-.135 1.772-.135 3.795 0 2.023.03 3.73.092 5.122.062 1.393.14 2.692.236 3.899.096 1.206.188 2.253.277 3.14.156 1.546.304 2.424.445 2.635" style="fill:none;stroke:#007aff;stroke-width:1.8189;stroke-linecap:round;stroke-linejoin:round;stroke-miterlimit:10;stroke-dasharray:none;stroke-opacity:1" transform="matrix(.72727 0 0 .72727 -128.758 -397.128)"/><path d="M246.546 571.345c.502.198 1.07.315 1.706.351.42.024 1.021.033 1.8.026.78-.007 1.608-.125 2.485-.357a129.96 129.96 0 0 0 4.707-1.358" style="fill:none;stroke:#007aff;stroke-width:1.8189;stroke-linecap:round;stroke-linejoin:round;stroke-miterlimit:10;stroke-dasharray:none;stroke-opacity:1" transform="matrix(.72727 0 0 .72727 -128.758 -397.128)"/><path d="M256.491 582.16c-.08-.207.03-.358.327-.454.211-.068.457-.04.736.083.28.124.509.476.687 1.058.178.581.28 1.295.308 2.14.04 1.243-.324 2.615-1.092 4.115" style="fill:none;stroke:#fff;stroke-width:1.8189;stroke-linecap:round;stroke-linejoin:round;stroke-miterlimit:10;stroke-dasharray:none;stroke-opacity:1" transform="matrix(.72727 0 0 .72727 -128.758 -397.128)"/><path d="M272.442 573.936c.058-3.05.073-4.863.044-5.442-.02-.404-.12-.696-.3-.876a1.127 1.127 0 0 0-.612-.328c-.227-.04-.467.009-.72.144a1.58 1.58 0 0 0-.611.583c-.155.253-.29.671-.407 1.255a10.604 10.604 0 0 0-.206 1.592c-.021.478-.008.915.04 1.311.046.397.168.765.363 1.104.195.34.457.675.786 1.009.33.333.952.755 1.867 1.265.916.51 1.551.95 1.906 1.323.356.373.622.822.799 1.35.176.526.273 1.06.29 1.6a2.489 2.489 0 0 1-.407 1.477c-.29.443-.658.787-1.105 1.03-.65.354-1.454.355-2.411.003M278.368 571.08c-.18.291-.261.925-.246 1.9.01.608.238 1.858.685 3.751.446 1.894.705 2.712.777 2.454.072-.257.113-.696.125-1.316.012-.62.049-1.297.111-2.028.062-.732.181-1.483.357-2.254.175-.77.371-1.44.588-2.006.217-.567.392-.948.524-1.144.132-.196.245-.249.338-.16.093.09.207.83.34 2.22.135 1.39.275 2.462.422 3.216.147.754.323 1.412.528 1.976.205.563.403.983.592 1.26.19.276.37.419.539.427.169.008.346-.227.532-.705.187-.479.369-1.05.547-1.717.178-.666.366-1.317.562-1.953a36.3 36.3 0 0 1 .522-1.582c.151-.42.232-.643.243-.671.01-.029.01-.018.002.032-.01.05-.08.446-.21 1.187a12.71 12.71 0 0 0-.211 1.99c-.01.586.09 1.131.298 1.637s.473.904.794 1.195c.322.29.643.45.964.478.456.042.903-.69 1.34-2.195M293.055 575.02c.157.2.405.205.744.018.235-.13.454-.337.656-.62.202-.282.364-.597.485-.944s.193-.682.214-1.006c.022-.323-.036-.597-.172-.82a.907.907 0 0 0-.57-.425 1.9 1.9 0 0 0-.808-.01c-.294.053-.586.227-.873.522-.288.294-.542.7-.76 1.217a5.63 5.63 0 0 0-.408 1.752 6.874 6.874 0 0 0 .153 2.03 5.59 5.59 0 0 0 .886 1.998c.436.628.9 1.109 1.392 1.441.492.333.977.486 1.453.459.68-.038 1.427-1.097 2.243-3.178M298.757 577.1c.194.127.46.053.797-.223.231-.189.464-.517.698-.985.235-.468.468-1.085.7-1.85.233-.766.456-1.646.67-2.64.213-.995.395-1.95.546-2.867a25.134 25.134 0 0 0 .362-3.872c.004-.365-.087-.586-.275-.663-.187-.077-.42.026-.7.31-.28.283-.538.697-.775 1.243-.237.546-.437 1.266-.599 2.16-.162.892-.267 1.976-.313 3.251a42.274 42.274 0 0 0 .028 3.782c.066 1.246.266 2.35.602 3.311.335.962.744 1.645 1.226 2.051.482.407.983.485 1.5.235.744-.36 1.539-1.67 2.385-3.935M308.091 575.014c.377-.302.647-.966.808-1.99.105-.662.252-1.874.441-3.636.19-1.763.3-2.961.33-3.596.03-.634.027-1.088-.01-1.362-.037-.273-.137-.388-.3-.347-.164.041-.339.283-.524.726s-.327 1.021-.426 1.735c-.098.714-.152 1.614-.162 2.702-.01 1.088.03 2.34.117 3.756.089 1.416.326 2.663.713 3.742.387 1.079.86 1.951 1.417 2.618.798.953 2.168 1.043 4.111.272" style="fill:none;stroke:#007aff;stroke-width:1.8189;stroke-linecap:round;stroke-linejoin:round;stroke-miterlimit:10;stroke-dasharray:none;stroke-opacity:1" transform="matrix(.72727 0 0 .72727 -128.758 -397.128)"/><path d="M320.2 580.725a.914.914 0 0 1 .802.233c.157.142.309.403.456.786.147.382.237.886.271 1.513.048.903-.57 2.388-1.853 4.457" style="fill:none;stroke:#fff;stroke-width:1.8189;stroke-linecap:round;stroke-linejoin:round;stroke-miterlimit:10;stroke-dasharray:none;stroke-opacity:1" transform="matrix(.72727 0 0 .72727 -128.758 -397.128)"/><path d="M334.098 576.432c.32-.282.602-.654.848-1.116.246-.461.515-1.164.808-2.109.293-.944.549-1.913.768-2.906.22-.993.4-1.993.542-3 .142-1.006.23-1.988.262-2.947a14.273 14.273 0 0 0-.125-2.599c-.117-.774-.325-1.389-.626-1.845-.3-.456-.6-.747-.897-.872-.298-.125-.562-.114-.791.032-.23.146-.396.496-.498 1.05-.103.553-.155 1.262-.156 2.126 0 .864.14 2.532.422 5.004.282 2.472.545 4.374.789 5.706.244 1.332.493 2.559.748 3.68.254 1.122.49 2.072.705 2.852.216.78.38 1.319.49 1.617.11.298.18.4.207.307l.204-.701c.109-.374.217-.955.324-1.743.107-.788.266-1.56.476-2.317.21-.757.45-1.408.72-1.952.27-.544.534-.898.792-1.062.257-.164.487-.074.692.269.204.343.367.955.488 1.837.122.882.268 1.796.44 2.742s.371 1.69.597 2.234c.226.544.546.967.958 1.27.58.426 1.235-.458 1.965-2.653M347.457 576.228c.577-.842 1.011-1.51 1.302-2.006.198-.338.363-.69.493-1.053s.217-.742.26-1.136a8.18 8.18 0 0 0 .059-1.025c-.005-.29-.103-.473-.294-.552-.19-.078-.435-.012-.734.199-.299.21-.598.56-.898 1.05-.3.49-.554 1.054-.763 1.693a8.373 8.373 0 0 0-.39 1.967c-.05.671-.044 1.37.022 2.096.065.726.23 1.354.495 1.885.265.53.605.912 1.022 1.145.416.233.865.33 1.346.294.69-.052 1.579-.793 2.665-2.222M356.812 573.709c-.286-.084-.494-.231-.622-.441-.088-.144-.382-.272-.882-.385-.5-.113-.868-.17-1.1-.174-.233-.003-.48.05-.743.16-.263.111-.498.322-.705.633-.207.31-.35.665-.43 1.064-.08.4-.113.838-.1 1.317.014.479.14.976.378 1.492.239.517.545.956.919 1.318.374.361.799.585 1.275.67.477.086.959-.002 1.446-.263.487-.26.923-.673 1.31-1.236.387-.564.71-1.208.97-1.934s.456-1.41.59-2.051c.134-.642.213-1.104.235-1.386.023-.283-.038-.374-.184-.274-.146.1-.306.451-.48 1.051-.174.6-.28 1.199-.32 1.796a8.347 8.347 0 0 0 .057 1.705c.076.539.233 1.024.47 1.457.238.433.484.77.738 1.012.361.345.892.249 1.592-.288M361.76 573.302c.08-.244.234-.232.464.036s.433.681.608 1.238c.175.557.327 1.148.455 1.773s.218 1.253.27 1.884c.053.632.087 1.144.103 1.536l.024.627c0 .026-.005-.002-.018-.086l-.31-2.007c-.193-1.255-.297-2.174-.31-2.76-.014-.585.004-1.057.054-1.415.05-.358.163-.63.337-.815.174-.185.41-.333.707-.44.296-.11.837-.222 1.62-.34 1.194-.179 2.204-.148 3.033.093M372.353 573.676a10.91 10.91 0 0 0-.184 2.054c-.001.508.032 1.066.102 1.675.104.897.346 1.975.727 3.233M372.102 565.557l-.305.2M376.69 573.736v-.319l.001.016.014.431c.01.273.152 1.235.43 2.884.277 1.65.46 2.659.55 3.028.09.37.174.598.254.684.079.087.163-.03.25-.351.088-.321.181-.807.28-1.457.097-.65.242-1.312.432-1.985s.436-1.322.734-1.948c.299-.626.562-1.11.789-1.452.227-.343.392-.487.494-.431.103.055.16.795.171 2.22.011 1.424.032 2.476.063 3.155.03.68.163 1.207.396 1.583.233.376.495.613.786.71.291.098.591.037.9-.182.443-.315.942-1.313 1.497-2.994M388.743 575.132c.102-.739.134-1.226.094-1.46-.027-.164-.218-.298-.573-.403a1.054 1.054 0 0 0-.984.185c-.301.227-.591.577-.87 1.047-.28.47-.483.993-.612 1.568a6.717 6.717 0 0 0-.153 1.774c.027.608.177 1.106.45 1.496.272.39.642.65 1.109.779.466.129.987.11 1.562-.057.575-.167 1.12-.528 1.636-1.084a8.317 8.317 0 0 0 1.302-1.86c.352-.685.58-1.36.683-2.025.103-.666.15-1.252.142-1.76-.008-.506-.088-.84-.24-1-.15-.16-.327-.137-.53.067-.203.204-.37.575-.5 1.114a8.221 8.221 0 0 0-.23 1.59 6.3 6.3 0 0 0 .124 1.552c.106.513.295 1.058.566 1.638.271.58.585 1.268.94 2.064.357.796.942 2.269 1.755 4.418.814 2.15 1.371 3.713 1.673 4.691.302.978.497 1.874.586 2.689.089.814.013 1.547-.227 2.198-.24.65-.681 1.173-1.323 1.567-.642.395-1.384.617-2.228.667-.844.05-1.667-.177-2.468-.681-.8-.505-1.411-1.136-1.832-1.894-.604-1.09-.311-2.734.88-4.931" style="fill:none;stroke:#007aff;stroke-width:1.8189;stroke-linecap:round;stroke-linejoin:round;stroke-miterlimit:10;stroke-dasharray:none;stroke-opacity:1" transform="matrix(.72727 0 0 .72727 -128.758 -397.128)"/><path d="M398.73 581.681c.223 0 .449.09.677.27.229.18.475.523.737 1.03.262.509.467 1.107.613 1.795.214 1.01.214 2.316-.001 3.92" style="fill:none;stroke:#fff;stroke-width:1.8189;stroke-linecap:round;stroke-linejoin:round;stroke-miterlimit:10;stroke-dasharray:none;stroke-opacity:1" transform="matrix(.72727 0 0 .72727 -128.758 -397.128)"/><path d="M413.764 563.36c-.007-.293-.07-.428-.191-.403-.086.018-.152.259-.197.722-.045.464-.07 1.007-.074 1.631-.004.625.022 1.392.08 2.301.058.91.115 1.974.17 3.193.055 1.218.092 2.482.109 3.791.017 1.31.027 2.588.028 3.835a64.15 64.15 0 0 1-.18 5.155" style="fill:none;stroke:#007aff;stroke-width:1.8189;stroke-linecap:round;stroke-linejoin:round;stroke-miterlimit:10;stroke-dasharray:none;stroke-opacity:1" transform="matrix(.72727 0 0 .72727 -128.758 -397.128)"/><path d="M407.462 570.553c.52.147 2.648.174 6.38.08 3.296-.084 5.791-.326 7.487-.727M421.27 575.84c-.05-.402-.28-.738-.692-1.008-.277-.182-.534-.287-.77-.313a2.862 2.862 0 0 0-.78.03c-.284.047-.569.212-.856.495-.287.283-.52.648-.699 1.095a4.602 4.602 0 0 0-.309 1.487 3.504 3.504 0 0 0 .314 1.615c.237.533.547.962.93 1.284.383.323.848.506 1.393.55.546.042 1.12-.14 1.725-.546.604-.406 1.176-.958 1.716-1.656.54-.697.965-1.37 1.278-2.02.312-.65.514-1.176.606-1.579.093-.403.088-.64-.013-.71-.1-.07-.301.08-.6.452a5.08 5.08 0 0 0-.747 1.3 4.52 4.52 0 0 0-.329 1.523 2.75 2.75 0 0 0 .341 1.455c.247.45.557.827.93 1.131.538.44 1.388.547 2.55.322M432.916 574.399c.045-.94.018-1.637-.08-2.09a2.153 2.153 0 0 0-.325-.782.923.923 0 0 0-.571-.393c-.233-.05-.501-.004-.804.14-.303.146-.565.35-.785.615-.22.264-.437.699-.65 1.303-.212.604-.333 1.137-.364 1.597-.03.46.043.838.22 1.132.179.294.44.522.787.681.347.16.984.3 1.91.42.928.12 1.6.285 2.017.492a2.676 2.676 0 0 1 1.49 2.133c.057.475.004.971-.16 1.487a3.19 3.19 0 0 1-.808 1.33c-.534.527-1.29.422-2.266-.315M440.751 565.322c-.105 1.06-.159 3.517-.161 7.372-.002 3.855.122 6.902.374 9.14" style="fill:none;stroke:#007aff;stroke-width:1.8189;stroke-linecap:round;stroke-linejoin:round;stroke-miterlimit:10;stroke-dasharray:none;stroke-opacity:1" transform="matrix(.72727 0 0 .72727 -128.758 -397.128)"/><path d="M436.93 572.781c1.912-.063 3.841-.104 5.789-.122M447.34 577.01c.402.094.753.113 1.054.056.204-.039.441-.155.71-.35.27-.193.507-.474.713-.842.205-.369.338-.79.399-1.266.06-.475.049-.922-.035-1.34-.083-.417-.284-.71-.602-.881-.318-.17-.693-.174-1.124-.012-.431.163-.847.586-1.247 1.27-.4.684-.706 1.46-.917 2.326a10.459 10.459 0 0 0-.272 2.806c.03 1.004.276 1.906.738 2.704.46.798 1.048 1.386 1.76 1.766 1.028.546 2.566.31 4.616-.706" style="fill:none;stroke:#007aff;stroke-width:1.8189;stroke-linecap:round;stroke-linejoin:round;stroke-miterlimit:10;stroke-dasharray:none;stroke-opacity:1" transform="matrix(.72727 0 0 .72727 -128.758 -397.128)"/><path d="M458.6 582.1a.802.802 0 0 1 .606-.348c.179-.02.363.07.552.267.19.197.388.535.595 1.014.206.48.335 1.038.387 1.674.074.922-.258 2.351-.995 4.287" style="fill:none;stroke:#fff;stroke-width:1.8189;stroke-linecap:round;stroke-linejoin:round;stroke-miterlimit:10;stroke-dasharray:none;stroke-opacity:1" transform="matrix(.72727 0 0 .72727 -128.758 -397.128)"/><path d="M478.357 562.667c.034-1.554.009-2.231-.076-2.032-.06.142-.109.51-.143 1.106a40.34 40.34 0 0 0-.058 2.134c-.003.827.046 1.811.146 2.95a110.133 110.133 0 0 1 .382 7.902c.024 1.977-.01 4.542-.104 7.698" style="fill:none;stroke:#007aff;stroke-width:1.8189;stroke-linecap:round;stroke-linejoin:round;stroke-miterlimit:10;stroke-dasharray:none;stroke-opacity:1" transform="matrix(.72727 0 0 .72727 -128.758 -397.128)"/><path d="M474.284 570.63c.593-.055 1.407-.17 2.441-.346.663-.112 1.397-.249 2.2-.41 1.175-.235 2.859-.388 5.052-.458M488.534 575.562c.16-.353.075-.774-.258-1.265a6.134 6.134 0 0 0-.689-.856 2.827 2.827 0 0 0-.853-.588 3.108 3.108 0 0 0-1.103-.267c-.402-.026-.794.154-1.175.541-.38.387-.684.894-.91 1.52a6.104 6.104 0 0 0-.344 2.053c-.004.74.158 1.497.487 2.269a8.693 8.693 0 0 0 1.306 2.142c.543.657 1.125 1.097 1.748 1.322.623.224 1.21.233 1.76.026.55-.206.969-.614 1.254-1.223.286-.61.452-1.293.5-2.052a7.702 7.702 0 0 0-.148-2.134 11.04 11.04 0 0 0-.477-1.65 4.995 4.995 0 0 0-.667-1.194M492.741 574.218c-.754-.388-1.107-.17-1.06.65.033.599.146 1.236.338 1.913.192.678.442 1.3.75 1.866.308.566.668.997 1.079 1.293.411.296.811.44 1.2.43.389-.008.708-.213.959-.614.25-.4.457-1.111.62-2.13.259-1.61.62-2.604 1.085-2.98M502.508 574.872c.162-.442.058-.783-.313-1.024a1.245 1.245 0 0 0-.833-.205c-.296.031-.6.264-.908.697-.31.433-.56 1.005-.75 1.716a9.03 9.03 0 0 0-.3 2.235c-.01.78.175 1.423.554 1.93.38.509.847.848 1.402 1.018.554.17 1.13.21 1.725.115.854-.134 1.68-1.17 2.478-3.105M506.418 574.81c.483.43.908.54 1.275.327.256-.15.522-.46.796-.933.275-.473.526-1.057.753-1.753.227-.695.417-1.492.572-2.39.154-.897.283-1.82.388-2.767a81.67 81.67 0 0 0 .261-2.79c.07-.912.113-1.713.132-2.403.018-.69-.027-1.2-.135-1.528-.109-.328-.268-.528-.479-.602-.21-.073-.421-.018-.632.165-.212.183-.388.508-.529.976-.14.467-.267 1.073-.38 1.817a54.824 54.824 0 0 0-.546 5.781 53.702 53.702 0 0 0-.04 3.432 15.85 15.85 0 0 0 .398 3.274c.241 1.04.51 2.057.804 3.05.294.991.565 1.836.813 2.534.248.698.46 1.172.635 1.422s.311.217.408-.096c.098-.313.207-.91.327-1.79a20.1 20.1 0 0 1 .585-2.753c.27-.955.564-1.75.88-2.384.316-.635.61-1.074.88-1.317.272-.243.496-.237.674.02.177.255.295.794.352 1.616.058.821.165 1.687.32 2.598.157.91.427 1.695.812 2.355.384.66.849 1.088 1.395 1.284.775.28 1.99-.808 3.644-3.261" style="fill:none;stroke:#007aff;stroke-width:1.8189;stroke-linecap:round;stroke-linejoin:round;stroke-miterlimit:10;stroke-dasharray:none;stroke-opacity:1" transform="matrix(.72727 0 0 .72727 -128.758 -397.128)"/><path d="M525.948 550.149c-.125-.448.006-.593.396-.434.284.115.638.514 1.062 1.197.424.682.876 1.65 1.358 2.904a58.273 58.273 0 0 1 1.44 4.298c.477 1.613.88 3.422 1.207 5.427.327 2.006.557 4.126.688 6.362.131 2.235.154 4.472.069 6.71-.125 3.26-1.074 8.059-2.85 14.397M537.036 568.176c2.13-.514 3.784-.84 4.964-.981.808-.096 1.581-.169 2.32-.217 1.081-.07 2.543-.031 4.384.118M536.56 574.87a42.532 42.532 0 0 0 3.793-.27c1.437-.16 2.63-.288 3.58-.385 1.378-.142 3.629-.486 6.75-1.033" style="fill:none;stroke:#fff;stroke-width:1.8189;stroke-linecap:round;stroke-linejoin:round;stroke-miterlimit:10;stroke-dasharray:none;stroke-opacity:1" transform="matrix(.72727 0 0 .72727 -131.309 -395.306)"/><path d="M201.49 629.592c.601.191 1.296.294 2.085.308.79.015 1.712-.008 2.768-.066 1.056-.059 2.08-.126 3.074-.202a37.048 37.048 0 0 1 4.66-.051M200.833 636.112c1.942-.254 3.55-.458 4.824-.61.866-.104 1.887-.216 3.061-.336 1.737-.177 3.75-.42 6.04-.73M227.89 612.62c-.577-.034-1.052-.015-1.426.058-.255.049-.58.256-.973.62-.395.364-.836.979-1.324 1.843-.488.865-.985 2.023-1.492 3.477-.507 1.453-.9 3.11-1.182 4.972a45.194 45.194 0 0 0-.477 5.927c-.038 2.09.116 4.149.46 6.174.51 3.006 1.674 5.988 3.492 8.945" style="fill:none;stroke:#fff;stroke-width:1.8189;stroke-linecap:round;stroke-linejoin:round;stroke-miterlimit:10;stroke-dasharray:none;stroke-opacity:1" transform="matrix(.72727 0 0 .72727 -99.674 -398.274)"/><path d="M279.033 622.748c.058-.193-.045-.345-.307-.456a1.516 1.516 0 0 0-.525-.126 1.548 1.548 0 0 0-.557.094c-.206.07-.43.21-.67.422-.242.212-.474.5-.698.866-.223.366-.408.79-.555 1.275-.146.484-.24.987-.282 1.51-.041.521-.029.979.037 1.37.065.393.19.694.375.906.184.211.428.342.732.39.304.05.65.033 1.036-.05a6.19 6.19 0 0 0 1.172-.377c.394-.17.777-.323 1.15-.459.374-.136.74-.234 1.102-.295.36-.062.691-.085.991-.07.3.015.56.117.779.307.219.19.394.456.523.799.13.343.223.744.28 1.203.055.46.075.977.06 1.551a6.059 6.059 0 0 1-.328 1.764 7.937 7.937 0 0 1-.826 1.729c-.35.55-.644.963-.884 1.24-.24.275-.528.538-.863.787-.335.25-.638.44-.907.57-.27.13-.53.219-.778.266-.25.048-.51.074-.781.08-.272.004-.462-.012-.571-.05-.11-.038-.266-.14-.472-.307-.205-.167-.337-.293-.395-.378a2.233 2.233 0 0 1-.209-.471c-.116-.33-.069-.956.142-1.878M289.05 627.32c-.176-.306-.314-.426-.412-.363-.07.045-.13.14-.18.284-.05.144-.085.442-.107.893-.022.45.002 1.014.071 1.69.07.675.164 1.446.284 2.31.12.866.237 1.727.352 2.585.114.857.22 1.627.318 2.31.098.684.179 1.206.242 1.566.063.36.107.578.13.657l.043.136c.004.01.006.008.006-.011l.004-.22c.002-.13-.023-.487-.076-1.074-.053-.586-.11-1.26-.17-2.019-.06-.759-.097-1.575-.114-2.449-.016-.873-.025-1.741-.026-2.605-.002-.863.024-1.593.077-2.192a8.512 8.512 0 0 1 .257-1.528 4.42 4.42 0 0 1 .431-1.058c.17-.285.362-.498.578-.64.217-.142.46-.23.728-.265.27-.035.573.024.913.176.339.153.7.393 1.084.72a6.96 6.96 0 0 1 1.055 1.13c.319.426.524.89.616 1.39.091.502.058 1.072-.1 1.709a6.264 6.264 0 0 1-.844 1.893c-.405.624-.831 1.115-1.28 1.474-.45.358-.842.574-1.18.648-.471.104-.7-.24-.686-1.031M301.306 630.425c.026.128.161.194.406.2a1.33 1.33 0 0 0 .528-.108c.184-.075.395-.223.634-.446s.457-.507.653-.853c.197-.346.345-.743.446-1.193.101-.45.148-.883.142-1.3-.006-.417-.11-.77-.31-1.06-.2-.288-.484-.477-.855-.565-.37-.088-.79-.013-1.258.226-.468.239-.925.634-1.37 1.186a7.444 7.444 0 0 0-1.107 1.922 7.934 7.934 0 0 0-.53 2.4c-.063.87.045 1.67.325 2.397.28.727.668 1.34 1.165 1.84.497.499 1.043.811 1.637.936.595.125 1.234-.027 1.917-.456.99-.62 2.121-2.121 3.395-4.502M312.257 630.374c.248.047.556-.144.924-.571a5.72 5.72 0 0 0 .628-.879c.174-.303.322-.645.442-1.025.12-.38.197-.773.23-1.178a2.808 2.808 0 0 0-.09-1.063 1.233 1.233 0 0 0-.512-.696c-.247-.16-.571-.213-.973-.16-.401.054-.827.294-1.277.72-.45.426-.873.97-1.268 1.632-.395.663-.707 1.426-.934 2.29a9.548 9.548 0 0 0-.328 2.54c.01.83.179 1.537.508 2.121.33.585.802.987 1.418 1.207.615.22 1.293.212 2.034-.024 1.077-.345 2.325-1.306 3.745-2.885M324.49 627.583c.215-.274.382-.607.502-.998.079-.259.123-.464.132-.616a.442.442 0 0 0-.163-.379c-.117-.1-.297-.167-.541-.2a1.958 1.958 0 0 0-.799.078c-.288.083-.73.382-1.325.897a9.793 9.793 0 0 0-1.556 1.697 8.738 8.738 0 0 0-1.102 2.135 9.016 9.016 0 0 0-.529 2.348c-.06.759.027 1.43.263 2.012.237.582.598 1.013 1.085 1.293s1.07.396 1.75.348c.679-.048 1.33-.23 1.952-.548.902-.459 1.844-1.626 2.827-3.502M330.005 630.432c.228-.433.49-.958.782-1.576.192-.402.408-.942.647-1.618.24-.676.497-1.477.77-2.402.272-.925.524-1.87.756-2.835.232-.966.41-1.88.536-2.741a25.59 25.59 0 0 0 .24-2.197c.035-.603.01-1.075-.073-1.416-.082-.341-.212-.556-.388-.643-.175-.088-.363-.058-.564.09-.2.147-.394.414-.582.8-.187.386-.328.862-.421 1.429-.094.567-.16 1.248-.197 2.043a100.12 100.12 0 0 0-.084 2.493c-.02.867-.033 1.817-.041 2.852a448.325 448.325 0 0 0-.014 3.065c0 1.008.007 2.005.024 2.99.016.985.036 1.77.06 2.352.023.583.044 1.032.064 1.347.02.314.048.609.083.883.035.275.064.467.089.576.024.109.04.147.046.115l.046-.242a4.57 4.57 0 0 0 .054-.607c.012-.276.043-.588.094-.936.051-.349.123-.743.216-1.183.094-.44.383-1.215.868-2.325s.972-1.976 1.462-2.6c.49-.622.911-1.057 1.262-1.303s.604-.297.758-.155c.155.143.234.524.238 1.141.004.618-.031 1.408-.106 2.369a37.823 37.823 0 0 0-.123 2.41 5.49 5.49 0 0 0 .36 1.972c.246.669.587 1.114 1.021 1.337.435.223.927.254 1.477.094.79-.231 1.82-1.282 3.089-3.153" style="fill:none;stroke:#7ec636;stroke-width:1.8189;stroke-linecap:round;stroke-linejoin:round;stroke-miterlimit:10;stroke-dasharray:none;stroke-opacity:1" transform="matrix(.72727 0 0 .72727 -128.758 -397.128)"/><path d="M348.184 636.098c.072-.35.18-.59.322-.72a.973.973 0 0 1 .348-.205c.134-.046.442-.037.925.028.483.065.9.265 1.248.6.35.337.574.774.673 1.314.1.54.08 1.096-.062 1.667-.204.828-.928 1.816-2.17 2.963" style="fill:none;stroke:#fff;stroke-width:1.8189;stroke-linecap:round;stroke-linejoin:round;stroke-miterlimit:10;stroke-dasharray:none;stroke-opacity:1" transform="matrix(.72727 0 0 .72727 -128.758 -397.128)"/><path d="M366.26 624.891c-.164.1-.262.3-.295.6-.034.3-.052.718-.055 1.252-.004.534.044 1.186.143 1.956.098.77.198 1.623.3 2.558.1.934.184 1.774.25 2.519.067.744.13 1.362.188 1.851l.093.78.003.02v-.03l-.048-.944a54.843 54.843 0 0 1-.05-2.435c-.002-1.03.041-2.082.132-3.158s.235-1.994.433-2.754c.197-.76.397-1.348.6-1.762.202-.413.39-.674.566-.78a.52.52 0 0 1 .552-.005c.193.105.389.323.589.655.2.333.388.783.565 1.353.178.569.358 1.216.54 1.942.183.725.415 1.774.697 3.147.281 1.373.453 2.196.515 2.467.062.272.172.308.33.108.157-.2.345-.671.563-1.412.218-.741.445-1.54.683-2.398.237-.858.487-1.64.75-2.344.262-.705.473-1.212.631-1.521.158-.31.272-.51.34-.602l.147-.195c.028-.038.044-.025.047.04l.015.327c.007.154-.047.543-.16 1.167-.114.623-.21 1.375-.287 2.254-.077.88-.116 1.771-.116 2.675 0 .903.12 1.64.358 2.207.24.568.54.968.901 1.198.362.23.763.332 1.203.305.44-.026.884-.272 1.332-.736.648-.672 1.324-2.1 2.029-4.286M387.631 627.375c.324-.334.476-.588.457-.76-.014-.12-.08-.255-.197-.405a1.905 1.905 0 0 0-.492-.422 2.711 2.711 0 0 0-.827-.315c-.342-.079-.773-.098-1.295-.056-.521.042-1.03.27-1.528.687-.496.416-.918 1.045-1.265 1.887-.347.84-.562 1.786-.645 2.836-.083 1.05-.048 1.978.107 2.783.155.806.43 1.41.827 1.812.396.403.873.645 1.431.726.558.08 1.158.018 1.8-.188.643-.206 1.264-.558 1.865-1.056a7.152 7.152 0 0 0 1.57-1.876c.446-.752.725-1.474.835-2.167.111-.693.065-1.3-.137-1.824-.203-.524-.487-.895-.853-1.112-.53-.314-1.269-.294-2.217.06M393.98 627.254a7.937 7.937 0 0 1-.31-1.073l-.053-.29c-.004-.023.01 0 .042.068l.418.89c.247.525.514 1.204.8 2.039.288.834.59 1.663.905 2.488.317.825.626 1.501.93 2.03.303.527.602.872.897 1.032.294.161.584.2.87.117.286-.083.559-.393.819-.93.26-.537.509-1.203.748-1.998.24-.795.442-1.493.606-2.092.163-.6.299-1.07.407-1.411.162-.514.374-.974.637-1.38M407.438 630.883c.249-.018.482-.105.7-.262.219-.156.59-.488 1.115-.995.524-.507.9-.911 1.128-1.214.227-.302.397-.6.51-.894.111-.294.182-.567.21-.82a.95.95 0 0 0-.15-.662c-.13-.19-.332-.332-.61-.425-.276-.093-.623-.12-1.04-.08-.415.04-.858.227-1.327.56a5.969 5.969 0 0 0-1.306 1.306c-.403.538-.727 1.179-.973 1.925a10.01 10.01 0 0 0-.467 2.355c-.066.825-.011 1.588.163 2.29.174.7.525 1.26 1.053 1.677.528.417 1.178.67 1.95.762 1.108.13 3.06-.667 5.855-2.395M418.271 627.995c-.03.834.024 1.678.164 2.53.093.569.222 1.404.388 2.505.166 1.1.28 1.755.344 1.962l.105.348c.008.026.013-.019.014-.135 0-.117.006-.64.015-1.568a24.04 24.04 0 0 1 .164-2.637c.1-.83.237-1.57.412-2.223.175-.652.35-1.15.525-1.496.175-.345.32-.559.434-.643.115-.084.232-.06.352.071.12.132.244.39.37.774.127.385.328 1.12.603 2.209.275 1.088.472 1.924.593 2.508.12.585.232 1.076.333 1.474.101.397.179.657.231.778.053.122.213-.157.479-.834.265-.678.537-1.465.814-2.36.276-.896.564-1.673.864-2.33.3-.658.555-1.123.765-1.396.21-.272.356-.41.435-.412.08-.002.128.822.145 2.473.018 1.652.105 2.778.262 3.379.158.6.38 1.1.668 1.497.287.398.62.655.996.769.376.114.752.07 1.128-.133.54-.292 1.036-1.206 1.49-2.742M437.064 630.582c.485-.213.874-.468 1.164-.764.197-.2.376-.418.535-.652.16-.234.28-.47.363-.708.082-.237.143-.586.184-1.047.042-.46.048-.87.019-1.23-.03-.36-.144-.63-.345-.815-.201-.185-.49-.262-.865-.23-.375.03-.796.262-1.26.693-.465.431-.874.982-1.227 1.653a8.037 8.037 0 0 0-.767 2.22 12.902 12.902 0 0 0-.237 2.472c0 .84.157 1.55.472 2.128a4.01 4.01 0 0 0 1.235 1.402c.51.355 1.09.57 1.744.647.937.11 2.533-.676 4.789-2.356M445.898 627.198c-.176-.09-.266.022-.269.336-.003.314.133 1.03.41 2.146.276 1.117.546 2.236.808 3.357.263 1.12.428 1.749.495 1.885l.137.28c.024.05.05-.079.079-.384l.158-1.71c.078-.834.219-1.674.423-2.518.204-.844.47-1.589.794-2.234.326-.645.64-1.132.945-1.462.305-.33.546-.531.724-.605.178-.074.309.017.393.274.084.256.13 1.114.14 2.573.008 1.46.018 2.53.028 3.213.01.683.105 1.257.287 1.722.182.464.417.81.707 1.04.29.228.602.353.936.376.334.023.654-.076.96-.296a3.09 3.09 0 0 0 .788-.847c.221-.344.392-.657.513-.939.179-.416.287-.933.326-1.553M461.157 617.414c-.068.538-.11 1.176-.129 1.915-.018.738-.045 1.643-.08 2.714a349.171 349.171 0 0 1-.228 5.191c-.185 3.754-.327 6.61-.427 8.566" style="fill:none;stroke:#7ec636;stroke-width:1.8189;stroke-linecap:round;stroke-linejoin:round;stroke-miterlimit:10;stroke-dasharray:none;stroke-opacity:1" transform="matrix(.72727 0 0 .72727 -128.758 -397.128)"/><path d="M457.386 627.31c.222-.166.715-.359 1.477-.578.471-.135 1.076-.276 1.817-.422 1.079-.213 2.701-.41 4.866-.592" style="fill:none;stroke:#7ec636;stroke-width:1.8189;stroke-linecap:round;stroke-linejoin:round;stroke-miterlimit:10;stroke-dasharray:none;stroke-opacity:1" transform="matrix(.72727 0 0 .72727 -128.758 -397.128)"/><path d="M468.854 610.923c.342.299.68.69 1.013 1.175.334.485.743 1.118 1.23 1.9.485.783.963 1.63 1.433 2.542.47.911.856 2.014 1.157 3.308.302 1.294.493 2.716.573 4.264.081 1.548.03 3.237-.152 5.067a32.772 32.772 0 0 1-1.006 5.418c-.716 2.615-2.186 5.726-4.408 9.333" style="fill:none;stroke:#fff;stroke-width:1.8189;stroke-linecap:round;stroke-linejoin:round;stroke-miterlimit:10;stroke-dasharray:none;stroke-opacity:1" transform="matrix(.72727 0 0 .72727 -128.758 -397.128)"/></svg>