<svg xmlns="http://www.w3.org/2000/svg" width="250.635" height="257.554"><path d="m202.59 262.482-.654.065c-.019.002.023.008.125.018l1.801.17c1.098.105 3.686.114 7.762.028 4.076-.086 10.901-.131 20.475-.137 9.573-.005 17.194-.053 22.863-.144 5.669-.09 10.053-.149 13.153-.174 3.1-.025 6.157-.072 9.17-.141 3.015-.069 10.113-.21 21.296-.425 11.184-.214 18.802-.379 22.855-.493 4.053-.114 10.32-.314 18.802-.6 8.481-.285 17.335-.572 26.562-.86 9.228-.29 16.021-.474 20.381-.554 4.36-.08 8.942-.155 13.747-.224 4.805-.07 8.598-.143 11.38-.222 2.781-.078 5.473-.129 8.075-.152 2.601-.022 9.459-.15 20.572-.383 11.114-.233 19.345-.365 24.696-.397 5.35-.032 10.498-.05 15.443-.053 4.946-.003 8.241.005 9.885.025 1.644.02 4.167.144 7.568.372 3.402.227 6.734.436 9.997.625l9.432.545c4.437.256 10.281.653 17.532 1.189M536.534 258.16c-.417 1.788-.7 3.31-.847 4.562-.1.85-.168 2.319-.204 4.405-.036 2.087-.054 5.574-.054 10.463 0 4.888.02 8.625.062 11.211.042 2.586.065 9.705.07 21.357.005 11.652.031 20.411.08 26.278.047 5.866.083 9.753.107 11.659.024 1.906.115 5.886.275 11.94.16 6.055.312 13.12.46 21.194.146 8.075.255 14.376.327 18.903.073 4.526.156 9.017.251 13.471.095 4.455.216 11.464.363 21.028.147 9.564.224 26.48.232 50.748.008 24.269 0 38.665-.022 43.189-.023 4.524-.036 8.85-.038 12.98-.002 4.128-.015 8.01-.038 11.646-.023 3.636-.07 8.395-.142 14.277-.072 5.883-.151 9.775-.238 11.678-.087 1.903-.21 3.435-.372 4.598-.241 1.736-.86 3.296-1.855 4.681M201.889 265.435c-.026 12.044-.01 19.38.051 22.01.042 1.835.195 3.86.459 6.076.264 2.215.518 4.482.762 6.801.244 2.32.441 4.73.591 7.234.15 2.502.257 5.165.317 7.986.061 2.822.095 5.66.1 8.513.007 2.854.043 5.884.108 9.092.066 3.208.144 6.508.235 9.9.09 3.39.151 6.758.183 10.1.032 3.344.05 6.685.053 10.024.003 3.338-.016 6.763-.058 10.274a347.755 347.755 0 0 1-.298 10.758c-.157 3.66-.275 7.36-.356 11.096-.08 3.737-.167 7.63-.259 11.68s-.208 7.966-.347 11.747c-.139 3.78-.26 7.655-.36 11.623a521.193 521.193 0 0 0-.169 12.06c-.01 4.074-.004 8.183.018 12.328.022 4.144.055 8.252.099 12.322.044 4.07.057 8.234.039 12.49a278.6 278.6 0 0 1-.323 12.408 709.407 709.407 0 0 0-.485 11.941c-.127 3.946-.243 10.14-.349 18.583-.106 8.443-.236 14.793-.39 19.05-.154 4.258-.359 8.328-.615 12.211-.256 3.884-.45 7.458-.583 10.723a252.55 252.55 0 0 0-.218 8.924c-.014 2.684.044 5.219.173 7.605.128 2.387.329 4.682.601 6.887.273 2.204.499 4.185.679 5.943.18 1.758.303 3.405.369 4.942.1 2.32-.341 4.097-1.322 5.335M199.993 605.703c-.616-.477.479-.938 3.284-1.382 2.806-.445 4.956-.749 6.45-.913a91.726 91.726 0 0 1 5.257-.401c2.009-.103 6.511-.231 13.506-.384s11.77-.252 14.325-.298c2.555-.046 4.976-.071 7.264-.076a364.69 364.69 0 0 0 14.723-.313c2.748-.111 5.449-.196 8.103-.253 2.654-.057 6.617-.088 11.89-.095 5.274-.006 9.216-.02 11.827-.04 2.611-.02 5.302-.064 8.072-.133 2.77-.068 8.58-.313 17.432-.734 8.852-.421 16.106-.73 21.764-.929 5.658-.198 10.03-.322 13.115-.372 3.086-.05 6.05-.111 8.89-.182 2.84-.072 7.383-.236 13.627-.494 6.244-.258 10.85-.437 13.816-.538 2.966-.101 6.154-.177 9.563-.228 3.41-.05 6.755-.079 10.036-.084 3.281-.005 6.677-.03 10.186-.077a945.1 945.1 0 0 0 10.814-.206c3.7-.091 7.52-.205 11.461-.342 3.94-.136 7.815-.244 11.623-.324 3.808-.08 7.665-.167 11.57-.262 3.906-.094 7.805-.18 11.698-.255 3.892-.076 9.615-.118 17.167-.126 7.552-.008 12.892.02 16.02.087a460.858 460.858 0 0 0 14.7.09c1.678-.02 3.023-.075 4.035-.163 1.482-.13 3.494-.224 6.037-.283" style="fill:none;stroke:#fcfcfc;stroke-width:6.23622;stroke-linecap:round;stroke-linejoin:round;stroke-miterlimit:10;stroke-dasharray:none;stroke-opacity:1" transform="matrix(.72727 0 0 .72727 -143.086 -185.225)"/><path d="M278.707 335.688c.018.434.174 1.069.466 1.904.293.836.51 1.48.655 1.934.144.453.546 1.646 1.206 3.578.66 1.931 1.228 3.595 1.7 4.99.473 1.396.867 2.53 1.182 3.404.316.873.547 1.527.693 1.96.146.432.472 1.343.978 2.732.506 1.388.837 2.318.991 2.79.155.471.355 1.155.6 2.052.36 1.314.916 3.062 1.669 5.244M258.731 355.29c.564.221 1.145.406 1.744.553.598.147 1.175.313 1.732.496.556.183 1.16.396 1.813.638s1.588.618 2.806 1.127 2.42.972 3.61 1.388c1.188.417 2.116.748 2.783.994.666.246 1.27.477 1.812.693.542.216 1.026.399 1.453.549.427.15 1.006.387 1.74.713.732.326 1.858.85 3.377 1.576a264.06 264.06 0 0 0 2.972 1.405c.463.212 1.077.54 1.841.982.765.443 1.327.745 1.686.907M277.485 336.047c.117-.18.178-.156.182.069.003.167-.078.463-.241.887-.164.424-.368.883-.614 1.375s-.44.864-.583 1.116a10.78 10.78 0 0 1-.672 1.005c-.306.417-.867 1.099-1.683 2.045a66.089 66.089 0 0 1-1.78 2.006c-.37.391-.868.937-1.494 1.638a38.347 38.347 0 0 1-1.68 1.78c-.495.487-.937.887-1.327 1.202-.39.314-.677.563-.862.747a7.035 7.035 0 0 1-.608.538c-.22.174-.726.514-1.515 1.019-.789.504-1.426.891-1.913 1.16-.705.388-1.9 1.142-3.584 2.263" style="fill:none;stroke:#007aff;stroke-width:1.8189;stroke-linecap:round;stroke-linejoin:round;stroke-miterlimit:10;stroke-dasharray:none;stroke-opacity:1" transform="matrix(.72727 0 0 .72727 -143.086 -185.225)"/><path d="M374.156 448.402c-.018-.382-.162-.74-.434-1.07-.273-.332-.51-.598-.713-.797a2.374 2.374 0 0 0-1.534-.675c-.283-.012-.592.1-.927.34a5.146 5.146 0 0 0-1 .974c-.331.411-.6.866-.805 1.363a5.21 5.21 0 0 0-.376 1.576 5.035 5.035 0 0 0 .146 1.671c.143.56.383 1.075.72 1.544.337.469.717.798 1.14.987.422.189.861.255 1.318.198.458-.057.878-.291 1.263-.702.385-.411.72-.902 1.007-1.473.287-.57.506-1.227.658-1.97.151-.743.251-1.523.3-2.342.049-.818.034-1.533-.045-2.145-.078-.611-.282-1.064-.611-1.357a1.82 1.82 0 0 0-1.152-.471c-.44-.022-.883.157-1.332.537-.448.38-.852.907-1.211 1.582-.36.674-.64 1.392-.842 2.153-.203.761-.326 1.494-.372 2.2a6.766 6.766 0 0 0 .15 1.981c.144.616.422 1.125.834 1.528.412.402.887.631 1.425.687.538.056 1.094-.17 1.67-.676.575-.507 1.094-1.146 1.556-1.917.462-.771.832-1.605 1.109-2.5s.413-1.677.408-2.345c-.004-.668-.205-1.18-.603-1.537s-.885-.558-1.463-.601c-.577-.044-1.155.11-1.735.46a5.18 5.18 0 0 0-1.512 1.41 8.03 8.03 0 0 0-.995 1.78c-.234.597-.363 1.148-.386 1.654-.024.506.087.916.333 1.232.246.315.572.526.978.631.406.106.84.098 1.301-.024.461-.122.889-.404 1.283-.844.394-.441.722-1.044.985-1.808a9.804 9.804 0 0 0 .495-2.428c.067-.854-.016-1.572-.249-2.154-.232-.582-.609-.98-1.129-1.197-.52-.216-1.078-.21-1.675.018-.597.228-1.124.675-1.581 1.343a7.053 7.053 0 0 0-1.002 2.194 8.436 8.436 0 0 0-.3 2.29c.012.733.171 1.36.479 1.88.308.522.68.895 1.115 1.12.435.226.906.325 1.413.297.507-.028.993-.238 1.458-.628.466-.39.875-.94 1.227-1.65.351-.708.59-1.525.716-2.45.126-.923.142-1.745.048-2.465-.095-.72-.35-1.247-.765-1.584-.415-.337-.916-.49-1.503-.457-.586.033-1.19.323-1.811.872-.621.549-1.17 1.26-1.647 2.132a8.833 8.833 0 0 0-.96 2.633c-.164.882-.166 1.661-.008 2.338.157.676.467 1.209.93 1.598s.97.612 1.52.668c.55.056 1.096-.14 1.64-.59.542-.45 1.032-1.054 1.467-1.81a8.827 8.827 0 0 0 .954-2.428c.2-.862.272-1.617.218-2.264-.055-.647-.316-1.123-.785-1.427-.469-.305-1.032-.422-1.691-.354-.66.07-1.278.363-1.857.883a5.164 5.164 0 0 0-1.314 1.812c-.297.688-.457 1.36-.478 2.016-.02.655.113 1.247.4 1.776.287.53.627.91 1.02 1.145.392.234.814.318 1.267.252.453-.067.888-.335 1.306-.805.417-.47.792-1.055 1.123-1.755.33-.7.562-1.452.695-2.258.132-.806.16-1.478.083-2.014-.078-.537-.348-.89-.812-1.058-.463-.168-1.003-.154-1.619.044-.616.197-1.166.599-1.65 1.205a5.594 5.594 0 0 0-1.035 2.054 6.482 6.482 0 0 0-.202 2.304c.072.771.268 1.494.589 2.167.321.673.68 1.156 1.076 1.447.396.291.824.347 1.286.168.462-.18.885-.625 1.27-1.336.386-.711.713-1.574.982-2.588.27-1.014.451-2.014.545-3.002.095-.988.1-1.746.018-2.275-.083-.53-.33-.874-.744-1.034-.413-.16-.88-.145-1.402.045-.522.19-.999.564-1.43 1.12a5.49 5.49 0 0 0-.95 1.924 7.843 7.843 0 0 0-.295 2.153c.005.71.153 1.311.444 1.805.291.494.633.831 1.026 1.013.393.182.832.195 1.317.04s.946-.485 1.385-.99a5.354 5.354 0 0 0 1.008-1.749c.234-.662.366-1.282.397-1.86.03-.58-.11-1.035-.42-1.367-.311-.333-.722-.532-1.232-.599-.51-.066-1.002.052-1.476.353-.473.3-.857.73-1.153 1.288a4.932 4.932 0 0 0-.55 1.765 7.376 7.376 0 0 0-.004 1.74c.067.54.224.984.47 1.328.247.344.536.57.867.68.332.108.696.093 1.093-.044s.772-.444 1.126-.922a5.273 5.273 0 0 0 .807-1.632c.184-.61.29-1.161.315-1.653.026-.491-.125-.869-.453-1.132-.327-.264-.739-.409-1.235-.435-.496-.026-.96.116-1.39.427-.43.31-.763.706-.996 1.185-.233.48-.369.962-.408 1.448-.04.486.021.93.182 1.334.162.403.387.716.676.94.29.223.593.354.911.392.318.038.622-.074.91-.335.29-.261.548-.62.776-1.074.227-.454.39-.92.487-1.396a8.34 8.34 0 0 0 .171-1.244c.017-.353-.085-.602-.307-.746-.222-.145-.534-.178-.936-.101-.402.077-.78.305-1.134.685a4.2 4.2 0 0 0-.821 1.272 4.505 4.505 0 0 0-.343 1.343c-.035.427-.002.81.101 1.151.104.34.264.603.482.787a.944.944 0 0 0 .718.24c.262-.025.522-.22.78-.584.259-.365.466-.818.624-1.359a7.384 7.384 0 0 0 .286-1.6c.033-.525-.015-.972-.145-1.34-.13-.368-.358-.611-.685-.73a1.726 1.726 0 0 0-1.061-.023c-.38.103-.734.362-1.062.778a4.78 4.78 0 0 0-.75 1.342c-.173.48-.268.914-.285 1.3-.018.387.05.704.205.952.155.247.372.407.652.48.28.074.587.06.922-.04.335-.1.672-.349 1.01-.748.34-.4.592-.851.759-1.355.167-.503.259-.937.275-1.301.017-.364-.103-.638-.358-.823-.255-.184-.594-.29-1.015-.319a2.476 2.476 0 0 0-2.156.955c-.268.34-.457.73-.567 1.169-.11.439-.163.846-.158 1.221.005.375.112.693.32.955.207.261.45.426.726.493.277.067.557.017.842-.15.285-.166.557-.499.818-.996.26-.498.462-1.107.604-1.827.141-.72.219-1.409.233-2.067.014-.658-.115-1.178-.386-1.56-.272-.38-.616-.627-1.032-.74-.416-.112-.872-.041-1.37.213-.497.253-.98.674-1.451 1.263a7.51 7.51 0 0 0-1.088 1.8c-.254.612-.37 1.168-.345 1.667.024.5.211.92.561 1.26.35.34.762.569 1.236.687.473.117.907.09 1.302-.08.395-.172.728-.498.998-.979.27-.48.46-1.058.57-1.734.111-.675.151-1.332.122-1.97-.03-.638-.171-1.164-.422-1.576-.252-.413-.556-.69-.912-.83-.357-.14-.743-.135-1.159.017-.415.151-.8.533-1.156 1.144a7.485 7.485 0 0 0-.8 2.013c-.177.731-.237 1.394-.18 1.987.056.593.258 1.048.604 1.364.49.45 1.63.014 3.415-1.306" style="fill:none;stroke:#7ec636;stroke-width:1.8189;stroke-linecap:round;stroke-linejoin:round;stroke-miterlimit:10;stroke-dasharray:none;stroke-opacity:1" transform="matrix(.72727 0 0 .72727 -143.086 -185.225)"/></svg>