<svg xmlns="http://www.w3.org/2000/svg" width="250.635" height="257.554"><path d="m202.59 262.482-.654.065c-.019.002.023.008.125.018l1.801.17c1.098.105 3.686.114 7.762.028 4.076-.086 10.901-.131 20.475-.137 9.573-.005 17.194-.053 22.863-.144 5.669-.09 10.053-.149 13.153-.174 3.1-.025 6.157-.072 9.17-.141 3.015-.069 10.113-.21 21.296-.425 11.184-.214 18.802-.379 22.855-.493 4.053-.114 10.32-.314 18.802-.6 8.481-.285 17.335-.572 26.562-.86 9.228-.29 16.021-.474 20.381-.554 4.36-.08 8.942-.155 13.747-.224 4.805-.07 8.598-.143 11.38-.222 2.781-.078 5.473-.129 8.075-.152 2.601-.022 9.459-.15 20.572-.383 11.114-.233 19.345-.365 24.696-.397 5.35-.032 10.498-.05 15.443-.053 4.946-.003 8.241.005 9.885.025 1.644.02 4.167.144 7.568.372 3.402.227 6.734.436 9.997.625l9.432.545c4.437.256 10.281.653 17.532 1.189M536.534 258.16c-.417 1.788-.7 3.31-.847 4.562-.1.85-.168 2.319-.204 4.405-.036 2.087-.054 5.574-.054 10.463 0 4.888.02 8.625.062 11.211.042 2.586.065 9.705.07 21.357.005 11.652.031 20.411.08 26.278.047 5.866.083 9.753.107 11.659.024 1.906.115 5.886.275 11.94.16 6.055.312 13.12.46 21.194.146 8.075.255 14.376.327 18.903.073 4.526.156 9.017.251 13.471.095 4.455.216 11.464.363 21.028.147 9.564.224 26.48.232 50.748.008 24.269 0 38.665-.022 43.189-.023 4.524-.036 8.85-.038 12.98-.002 4.128-.015 8.01-.038 11.646-.023 3.636-.07 8.395-.142 14.277-.072 5.883-.151 9.775-.238 11.678-.087 1.903-.21 3.435-.372 4.598-.241 1.736-.86 3.296-1.855 4.681M201.889 265.435c-.026 12.044-.01 19.38.051 22.01.042 1.835.195 3.86.459 6.076.264 2.215.518 4.482.762 6.801.244 2.32.441 4.73.591 7.234.15 2.502.257 5.165.317 7.986.061 2.822.095 5.66.1 8.513.007 2.854.043 5.884.108 9.092.066 3.208.144 6.508.235 9.9.09 3.39.151 6.758.183 10.1.032 3.344.05 6.685.053 10.024.003 3.338-.016 6.763-.058 10.274a347.755 347.755 0 0 1-.298 10.758c-.157 3.66-.275 7.36-.356 11.096-.08 3.737-.167 7.63-.259 11.68s-.208 7.966-.347 11.747c-.139 3.78-.26 7.655-.36 11.623a521.193 521.193 0 0 0-.169 12.06c-.01 4.074-.004 8.183.018 12.328.022 4.144.055 8.252.099 12.322.044 4.07.057 8.234.039 12.49a278.6 278.6 0 0 1-.323 12.408 709.407 709.407 0 0 0-.485 11.941c-.127 3.946-.243 10.14-.349 18.583-.106 8.443-.236 14.793-.39 19.05-.154 4.258-.359 8.328-.615 12.211-.256 3.884-.45 7.458-.583 10.723a252.55 252.55 0 0 0-.218 8.924c-.014 2.684.044 5.219.173 7.605.128 2.387.329 4.682.601 6.887.273 2.204.499 4.185.679 5.943.18 1.758.303 3.405.369 4.942.1 2.32-.341 4.097-1.322 5.335M199.993 605.703c-.616-.477.479-.938 3.284-1.382 2.806-.445 4.956-.749 6.45-.913a91.726 91.726 0 0 1 5.257-.401c2.009-.103 6.511-.231 13.506-.384s11.77-.252 14.325-.298c2.555-.046 4.976-.071 7.264-.076a364.69 364.69 0 0 0 14.723-.313c2.748-.111 5.449-.196 8.103-.253 2.654-.057 6.617-.088 11.89-.095 5.274-.006 9.216-.02 11.827-.04 2.611-.02 5.302-.064 8.072-.133 2.77-.068 8.58-.313 17.432-.734 8.852-.421 16.106-.73 21.764-.929 5.658-.198 10.03-.322 13.115-.372 3.086-.05 6.05-.111 8.89-.182 2.84-.072 7.383-.236 13.627-.494 6.244-.258 10.85-.437 13.816-.538 2.966-.101 6.154-.177 9.563-.228 3.41-.05 6.755-.079 10.036-.084 3.281-.005 6.677-.03 10.186-.077a945.1 945.1 0 0 0 10.814-.206c3.7-.091 7.52-.205 11.461-.342 3.94-.136 7.815-.244 11.623-.324 3.808-.08 7.665-.167 11.57-.262 3.906-.094 7.805-.18 11.698-.255 3.892-.076 9.615-.118 17.167-.126 7.552-.008 12.892.02 16.02.087a460.858 460.858 0 0 0 14.7.09c1.678-.02 3.023-.075 4.035-.163 1.482-.13 3.494-.224 6.037-.283" style="fill:none;stroke:#fcfcfc;stroke-width:6.23622;stroke-linecap:round;stroke-linejoin:round;stroke-miterlimit:10;stroke-dasharray:none;stroke-opacity:1" transform="matrix(.72727 0 0 .72727 -143.086 -185.225)"/><path d="M278.707 335.688c.018.434.174 1.069.466 1.904.293.836.51 1.48.655 1.934.144.453.546 1.646 1.206 3.578.66 1.931 1.228 3.595 1.7 4.99.473 1.396.867 2.53 1.182 3.404.316.873.547 1.527.693 1.96.146.432.472 1.343.978 2.732.506 1.388.837 2.318.991 2.79.155.471.355 1.155.6 2.052.36 1.314.916 3.062 1.669 5.244M258.731 355.29c.564.221 1.145.406 1.744.553.598.147 1.175.313 1.732.496.556.183 1.16.396 1.813.638s1.588.618 2.806 1.127 2.42.972 3.61 1.388c1.188.417 2.116.748 2.783.994.666.246 1.27.477 1.812.693.542.216 1.026.399 1.453.549.427.15 1.006.387 1.74.713.732.326 1.858.85 3.377 1.576a264.06 264.06 0 0 0 2.972 1.405c.463.212 1.077.54 1.841.982.765.443 1.327.745 1.686.907M277.485 336.047c.117-.18.178-.156.182.069.003.167-.078.463-.241.887-.164.424-.368.883-.614 1.375s-.44.864-.583 1.116a10.78 10.78 0 0 1-.672 1.005c-.306.417-.867 1.099-1.683 2.045a66.089 66.089 0 0 1-1.78 2.006c-.37.391-.868.937-1.494 1.638a38.347 38.347 0 0 1-1.68 1.78c-.495.487-.937.887-1.327 1.202-.39.314-.677.563-.862.747a7.035 7.035 0 0 1-.608.538c-.22.174-.726.514-1.515 1.019-.789.504-1.426.891-1.913 1.16-.705.388-1.9 1.142-3.584 2.263" style="fill:none;stroke:#007aff;stroke-width:1.8189;stroke-linecap:round;stroke-linejoin:round;stroke-miterlimit:10;stroke-dasharray:none;stroke-opacity:1" transform="matrix(.72727 0 0 .72727 -143.086 -185.225)"/><path d="M374.156 448.402c-.018-.382-.162-.74-.434-1.07-.273-.332-.51-.598-.713-.797a2.374 2.374 0 0 0-1.534-.675c-.283-.012-.592.1-.927.34a5.146 5.146 0 0 0-1 .974c-.331.411-.6.866-.805 1.363a5.21 5.21 0 0 0-.376 1.576 5.035 5.035 0 0 0 .146 1.671c.143.56.383 1.075.72 1.544.337.469.717.798 1.14.987.422.189.861.255 1.318.198.458-.057.878-.291 1.263-.702.385-.411.72-.902 1.007-1.473.287-.57.506-1.227.658-1.97.151-.743.251-1.523.3-2.342.049-.818.034-1.533-.045-2.145-.078-.611-.282-1.064-.611-1.357a1.82 1.82 0 0 0-1.152-.471c-.44-.022-.883.157-1.332.537-.448.38-.852.907-1.211 1.582-.36.674-.64 1.392-.842 2.153-.203.761-.326 1.494-.372 2.2a6.766 6.766 0 0 0 .15 1.981c.144.616.422 1.125.834 1.528.412.402.887.631 1.425.687.538.056 1.094-.17 1.67-.676.575-.507 1.094-1.146 1.556-1.917.462-.771.832-1.605 1.109-2.5s.413-1.677.408-2.345c-.004-.668-.205-1.18-.603-1.537s-.885-.558-1.463-.601c-.577-.044-1.155.11-1.735.46a5.18 5.18 0 0 0-1.512 1.41 8.03 8.03 0 0 0-.995 1.78c-.234.597-.363 1.148-.386 1.654-.024.506.087.916.333 1.232.246.315.572.526.978.631.406.106.84.098 1.301-.024.461-.122.889-.404 1.283-.844.394-.441.722-1.044.985-1.808a9.804 9.804 0 0 0 .495-2.428c.067-.854-.016-1.572-.249-2.154-.232-.582-.609-.98-1.129-1.197-.52-.216-1.078-.21-1.675.018-.597.228-1.124.675-1.581 1.343a7.053 7.053 0 0 0-1.002 2.194 8.436 8.436 0 0 0-.3 2.29c.012.733.171 1.36.479 1.88.308.522.68.895 1.115 1.12.435.226.906.325 1.413.297.507-.028.993-.238 1.458-.628.466-.39.875-.94 1.227-1.65.351-.708.59-1.525.716-2.45.126-.923.142-1.745.048-2.465-.095-.72-.35-1.247-.765-1.584-.415-.337-.916-.49-1.503-.457-.586.033-1.19.323-1.811.872-.621.549-1.17 1.26-1.647 2.132a8.833 8.833 0 0 0-.96 2.633c-.164.882-.166 1.661-.008 2.338.157.676.467 1.209.93 1.598s.97.612 1.52.668c.55.056 1.096-.14 1.64-.59.542-.45 1.032-1.054 1.467-1.81a8.827 8.827 0 0 0 .954-2.428c.2-.862.272-1.617.218-2.264-.055-.647-.316-1.123-.785-1.427-.469-.305-1.032-.422-1.691-.354-.66.07-1.278.363-1.857.883a5.164 5.164 0 0 0-1.314 1.812c-.297.688-.457 1.36-.478 2.016-.02.655.113 1.247.4 1.776.287.53.627.91 1.02 1.145.392.234.814.318 1.267.252.453-.067.888-.335 1.306-.805.417-.47.792-1.055 1.123-1.755.33-.7.562-1.452.695-2.258.132-.806.16-1.478.083-2.014-.078-.537-.348-.89-.812-1.058-.463-.168-1.003-.154-1.619.044-.616.197-1.166.599-1.65 1.205a5.594 5.594 0 0 0-1.035 2.054 6.482 6.482 0 0 0-.202 2.304c.072.771.268 1.494.589 2.167.321.673.68 1.156 1.076 1.447.396.291.824.347 1.286.168.462-.18.885-.625 1.27-1.336.386-.711.713-1.574.982-2.588.27-1.014.451-2.014.545-3.002.095-.988.1-1.746.018-2.275-.083-.53-.33-.874-.744-1.034-.413-.16-.88-.145-1.402.045-.522.19-.999.564-1.43 1.12a5.49 5.49 0 0 0-.95 1.924 7.843 7.843 0 0 0-.295 2.153c.005.71.153 1.311.444 1.805.291.494.633.831 1.026 1.013.393.182.832.195 1.317.04s.946-.485 1.385-.99a5.354 5.354 0 0 0 1.008-1.749c.234-.662.366-1.282.397-1.86.03-.58-.11-1.035-.42-1.367-.311-.333-.722-.532-1.232-.599-.51-.066-1.002.052-1.476.353-.473.3-.857.73-1.153 1.288a4.932 4.932 0 0 0-.55 1.765 7.376 7.376 0 0 0-.004 1.74c.067.54.224.984.47 1.328.247.344.536.57.867.68.332.108.696.093 1.093-.044s.772-.444 1.126-.922a5.273 5.273 0 0 0 .807-1.632c.184-.61.29-1.161.315-1.653.026-.491-.125-.869-.453-1.132-.327-.264-.739-.409-1.235-.435-.496-.026-.96.116-1.39.427-.43.31-.763.706-.996 1.185-.233.48-.369.962-.408 1.448-.04.486.021.93.182 1.334.162.403.387.716.676.94.29.223.593.354.911.392.318.038.622-.074.91-.335.29-.261.548-.62.776-1.074.227-.454.39-.92.487-1.396a8.34 8.34 0 0 0 .171-1.244c.017-.353-.085-.602-.307-.746-.222-.145-.534-.178-.936-.101-.402.077-.78.305-1.134.685a4.2 4.2 0 0 0-.821 1.272 4.505 4.505 0 0 0-.343 1.343c-.035.427-.002.81.101 1.151.104.34.264.603.482.787a.944.944 0 0 0 .718.24c.262-.025.522-.22.78-.584.259-.365.466-.818.624-1.359a7.384 7.384 0 0 0 .286-1.6c.033-.525-.015-.972-.145-1.34-.13-.368-.358-.611-.685-.73a1.726 1.726 0 0 0-1.061-.023c-.38.103-.734.362-1.062.778a4.78 4.78 0 0 0-.75 1.342c-.173.48-.268.914-.285 1.3-.018.387.05.704.205.952.155.247.372.407.652.48.28.074.587.06.922-.04.335-.1.672-.349 1.01-.748.34-.4.592-.851.759-1.355.167-.503.259-.937.275-1.301.017-.364-.103-.638-.358-.823-.255-.184-.594-.29-1.015-.319a2.476 2.476 0 0 0-2.156.955c-.268.34-.457.73-.567 1.169-.11.439-.163.846-.158 1.221.005.375.112.693.32.955.207.261.45.426.726.493.277.067.557.017.842-.15.285-.166.557-.499.818-.996.26-.498.462-1.107.604-1.827.141-.72.219-1.409.233-2.067.014-.658-.115-1.178-.386-1.56-.272-.38-.616-.627-1.032-.74-.416-.112-.872-.041-1.37.213-.497.253-.98.674-1.451 1.263a7.51 7.51 0 0 0-1.088 1.8c-.254.612-.37 1.168-.345 1.667.024.5.211.92.561 1.26.35.34.762.569 1.236.687.473.117.907.09 1.302-.08.395-.172.728-.498.998-.979.27-.48.46-1.058.57-1.734.111-.675.151-1.332.122-1.97-.03-.638-.171-1.164-.422-1.576-.252-.413-.556-.69-.912-.83-.357-.14-.743-.135-1.159.017-.415.151-.8.533-1.156 1.144a7.485 7.485 0 0 0-.8 2.013c-.177.731-.237 1.394-.18 1.987.056.593.258 1.048.604 1.364.49.45 1.63.014 3.415-1.306M457.02 303.677c.11-.775.151-1.29.126-1.548-.018-.178-.105-.363-.263-.554-.158-.191-.386-.33-.684-.415-.298-.085-.656-.086-1.074-.004-.419.083-.823.319-1.212.707-.39.388-.686.88-.89 1.473a6.866 6.866 0 0 0-.35 1.959c-.03.712.041 1.36.212 1.943.171.584.44 1.04.804 1.372a2.49 2.49 0 0 0 1.272.622c.484.084.973.001 1.469-.247.495-.25.945-.68 1.35-1.29a8.497 8.497 0 0 0 .99-2.113c.254-.798.432-1.497.532-2.099.1-.602.105-1.09.016-1.463-.09-.374-.353-.633-.792-.778-.438-.144-.948-.183-1.53-.115a4.097 4.097 0 0 0-1.704.62 6.136 6.136 0 0 0-1.437 1.227c-.403.473-.74.985-1.011 1.537-.271.552-.445 1.07-.522 1.556-.077.486-.078.906-.002 1.26.075.354.265.604.57.748.304.145.732.133 1.283-.036.552-.169 1.13-.534 1.73-1.096a9.47 9.47 0 0 0 1.515-1.796 8.316 8.316 0 0 0 .92-1.891c.206-.627.307-1.187.303-1.68-.004-.493-.197-.88-.58-1.161-.38-.281-.88-.427-1.497-.438a3.14 3.14 0 0 0-1.762.515 4.826 4.826 0 0 0-1.406 1.354 6.19 6.19 0 0 0-.846 1.763 7.804 7.804 0 0 0-.32 1.889c-.026.633.061 1.158.265 1.576.203.418.497.714.883.888.385.175.841.22 1.368.139.526-.082 1.039-.346 1.537-.793.498-.446.921-1.006 1.27-1.68a8.054 8.054 0 0 0 .735-2.018c.143-.67.164-1.25.063-1.738s-.385-.864-.85-1.13c-.467-.264-1.008-.401-1.626-.41a3.384 3.384 0 0 0-1.751.455c-.55.313-1.013.7-1.39 1.162-.376.462-.629.947-.759 1.457a3.871 3.871 0 0 0-.076 1.548c.08.523.288.992.626 1.409.338.416.76.719 1.266.909.505.19 1.04.253 1.603.19a2.554 2.554 0 0 0 1.5-.711c.436-.412.762-.912.98-1.5a6.194 6.194 0 0 0 .385-1.702c.04-.545-.05-1.032-.27-1.458a1.842 1.842 0 0 0-1.02-.903 2.665 2.665 0 0 0-1.467-.116c-.518.097-.977.358-1.376.783-.4.424-.71.914-.933 1.469a6.492 6.492 0 0 0-.429 1.783 8.805 8.805 0 0 0 .008 1.864c.068.609.222 1.105.461 1.49.24.384.531.62.877.706.345.088.75-.013 1.216-.3.465-.287.916-.74 1.35-1.356.436-.617.791-1.271 1.067-1.962.276-.691.444-1.294.503-1.81.06-.514-.031-.9-.274-1.159-.242-.258-.652-.404-1.23-.437a4.73 4.73 0 0 0-1.76.242c-.595.196-1.092.44-1.49.732-.4.292-.668.576-.807.853-.14.277-.196.548-.169.816.027.267.166.53.417.788.251.259.571.45.96.576.39.125.785.19 1.188.195.402.005.802-.146 1.199-.451a4.08 4.08 0 0 0 1.027-1.2 5.736 5.736 0 0 0 .624-1.522c.128-.52.161-.956.1-1.306-.062-.35-.303-.563-.724-.64-.422-.075-.934.06-1.539.407-.604.347-1.152.832-1.642 1.455-.49.623-.83 1.272-1.018 1.946-.19.673-.26 1.263-.214 1.769.047.505.217.875.511 1.109.294.233.659.345 1.094.336.436-.01.857-.19 1.264-.54.408-.35.756-.78 1.045-1.295.29-.514.501-1.029.637-1.544.136-.515.206-.964.213-1.346.006-.383-.115-.68-.362-.892-.248-.211-.575-.335-.981-.372a1.918 1.918 0 0 0-1.179.284c-.379.226-.695.521-.948.884a3.412 3.412 0 0 0-.529 1.208c-.1.442-.154.87-.164 1.286-.01.417.046.778.17 1.085.123.306.298.508.525.605.227.097.488.087.784-.028.296-.114.596-.393.898-.835.303-.442.552-.937.748-1.486a6.399 6.399 0 0 0 .36-1.49c.043-.444-.019-.77-.188-.978-.17-.208-.44-.315-.812-.32-.372-.005-.738.124-1.098.388-.36.265-.645.576-.855.933-.21.358-.338.745-.384 1.16-.046.416-.025.797.06 1.145.087.347.246.613.478.798.232.184.484.29.755.316.272.026.528-.055.77-.243s.45-.482.623-.88c.173-.399.298-.804.373-1.216.076-.412.122-.77.136-1.077.015-.306-.075-.52-.27-.642-.197-.123-.44-.177-.734-.164-.292.013-.57.14-.831.381a2.83 2.83 0 0 0-.629.845 2.618 2.618 0 0 0-.273.94 2.94 2.94 0 0 0 .02.763c.04.204.127.354.264.45a.714.714 0 0 0 .486.121c.188-.015.381-.14.581-.373.2-.233.381-.527.543-.882.161-.354.27-.69.328-1.005.057-.316.068-.552.033-.709-.036-.156-.138-.25-.308-.284-.17-.033-.363-.002-.579.094-.216.096-.42.27-.614.521a2.871 2.871 0 0 0-.445.824 3.324 3.324 0 0 0-.183.839c-.019.261-.02.463-.005.604.016.14.086.222.21.244.124.022.267-.053.429-.224.161-.17.335-.454.521-.85.187-.396.288-.637.305-.725.016-.088-.036-.138-.156-.152a.567.567 0 0 0-.366.093c-.124.076-.234.18-.328.312-.095.132-.102.182-.02.15l1.103-.431M301.085 368.23a1.548 1.548 0 0 0-.36.286 7.209 7.209 0 0 0-.439.476 19.66 19.66 0 0 0-.438.54 14.554 14.554 0 0 1-1.01 1.158 9.941 9.941 0 0 0-.578.659c-.163.205-.285.363-.367.476-.082.112-.264.324-.545.635-.282.312-.48.536-.596.673-.115.137-.281.318-.498.543a25.6 25.6 0 0 1-.769.76 8.713 8.713 0 0 0-.659.68c-.143.173-.29.35-.443.532-.151.181-.299.343-.442.487-.143.143-.32.325-.53.547-.21.222-.394.406-.55.55-.154.145-.329.314-.522.508-.194.193-.338.339-.433.437a6.66 6.66 0 0 0-.434.523 39.04 39.04 0 0 0-.423.556c-.088.12-.158.227-.21.324-.054.096-.106.157-.158.184" style="fill:none;stroke:#7ec636;stroke-width:1.8189;stroke-linecap:round;stroke-linejoin:round;stroke-miterlimit:10;stroke-dasharray:none;stroke-opacity:1" transform="matrix(.72727 0 0 .72727 -143.086 -185.225)"/><path d="m299.813 355.966-.01-.203-.002.011-.017.258c-.01.16-.014.298-.01.415.002.117.037.397.102.84.065.443.116.842.154 1.198.038.355.064.618.079.79a23.635 23.635 0 0 0 .148 1.308c.04.285.074.556.105.812.03.257.064.53.1.821.036.29.058.563.067.817.01.253.02.522.035.806.014.283.048.618.102 1.005.054.386.139.795.253 1.226.115.431.19.745.226.941l.057.312v.005l-.004-.038-.134-.88-.198-1.313c-.048-.324-.09-.636-.124-.937-.034-.3-.075-.742-.123-1.324-.048-.583-.085-1.057-.11-1.424a23.91 23.91 0 0 1-.052-.943 17.025 17.025 0 0 0-.148-1.853l-.12-.92a10.555 10.555 0 0 0-.11-.661 25.09 25.09 0 0 1-.134-.738c-.041-.25-.073-.493-.096-.732a13.46 13.46 0 0 0-.057-.518 4.4 4.4 0 0 1-.033-.409c-.007-.165-.023-.275-.05-.329a35.604 35.604 0 0 1-.05-.102c-.007-.015-.013-.005-.017.029l-.056.434" style="fill:none;stroke:#000;stroke-width:1.8189;stroke-linecap:round;stroke-linejoin:round;stroke-miterlimit:10;stroke-dasharray:none;stroke-opacity:1" transform="matrix(.72727 0 0 .72727 -143.086 -185.225)"/><path d="M291.431 342.377c-.038.1.026.238.192.413.111.116.198.21.26.282.06.071.152.203.274.396.121.192.247.381.375.567.13.186.257.383.382.59.126.208.328.523.608.944.279.421.478.707.598.859.12.15.224.308.314.47.09.164.16.301.21.413.05.111.107.22.168.324.061.104.223.327.485.67.262.342.457.624.585.846.127.222.266.44.416.654.15.214.315.438.493.672.178.234.345.476.5.727.157.25.28.445.368.582.089.137.164.276.224.417.06.142.148.306.265.493l.282.455c.07.116.157.233.26.352.104.12.11.158.021.116" style="fill:none;stroke:#7ec636;stroke-width:1.8189;stroke-linecap:round;stroke-linejoin:round;stroke-miterlimit:10;stroke-dasharray:none;stroke-opacity:1" transform="matrix(.72727 0 0 .72727 -143.086 -185.225)"/><path d="M289.416 380.142c-1.033.025-1.756.01-2.17-.044a9.512 9.512 0 0 0-.81-.072 20.286 20.286 0 0 0-.86-.017c-.321 0-.664-.015-1.029-.047a14.78 14.78 0 0 1-.796-.084c-.165-.024-.586-.037-1.262-.038-.677-.001-1.127-.013-1.35-.035a9.832 9.832 0 0 1-.59-.075c-.168-.028-.478-.044-.928-.05-.45-.006-.788-.017-1.015-.03a3.96 3.96 0 0 1-.56-.068l-.238-.05c-.012-.004-.005-.005.022-.004l.528.005c.326.003.74.022 1.244.055.503.033.982.085 1.437.155.455.07.832.122 1.13.155.299.034.667.088 1.105.164.438.076.784.12 1.038.13.255.012.579.04.972.086.394.046.745.07 1.055.072.309.002.591.009.846.023.256.014.422.067.5.159M276.86 379.043c-.179-.174-.419-.383-.719-.627s-.578-.482-.835-.713a27.694 27.694 0 0 1-.825-.78c-.294-.288-.593-.57-.896-.845a17.061 17.061 0 0 0-.836-.717 31.174 31.174 0 0 0-.873-.668c-.327-.243-.749-.536-1.265-.88a20.155 20.155 0 0 1-1.048-.733 3.72 3.72 0 0 1-.51-.485 3.633 3.633 0 0 0-.368-.38 1.353 1.353 0 0 1-.221-.229l-.114-.152c-.016-.021-.01-.021.02 0l.208.154c.11.081.279.225.508.43.228.205.572.488 1.031.848a49.21 49.21 0 0 0 1.731 1.308c.23.166.433.33.612.493.18.163.474.451.884.865.41.414.695.69.856.83.161.139.324.263.488.372.165.109.433.339.805.688.373.35.71.627 1.013.829" style="fill:none;stroke:#000;stroke-width:1.8189;stroke-linecap:round;stroke-linejoin:round;stroke-miterlimit:10;stroke-dasharray:none;stroke-opacity:1" transform="matrix(.72727 0 0 .72727 -143.086 -185.225)"/></svg>