<svg xmlns="http://www.w3.org/2000/svg" width="250.635" height="257.554"><path d="m202.59 262.482-.654.065c-.019.002.023.008.125.018l1.801.17c1.098.105 3.686.114 7.762.028 4.076-.086 10.901-.131 20.475-.137 9.573-.005 17.194-.053 22.863-.144 5.669-.09 10.053-.149 13.153-.174 3.1-.025 6.157-.072 9.17-.141 3.015-.069 10.113-.21 21.296-.425 11.184-.214 18.802-.379 22.855-.493 4.053-.114 10.32-.314 18.802-.6 8.481-.285 17.335-.572 26.562-.86 9.228-.29 16.021-.474 20.381-.554 4.36-.08 8.942-.155 13.747-.224 4.805-.07 8.598-.143 11.38-.222 2.781-.078 5.473-.129 8.075-.152 2.601-.022 9.459-.15 20.572-.383 11.114-.233 19.345-.365 24.696-.397 5.35-.032 10.498-.05 15.443-.053 4.946-.003 8.241.005 9.885.025 1.644.02 4.167.144 7.568.372 3.402.227 6.734.436 9.997.625l9.432.545c4.437.256 10.281.653 17.532 1.189M536.534 258.16c-.417 1.788-.7 3.31-.847 4.562-.1.85-.168 2.319-.204 4.405-.036 2.087-.054 5.574-.054 10.463 0 4.888.02 8.625.062 11.211.042 2.586.065 9.705.07 21.357.005 11.652.031 20.411.08 26.278.047 5.866.083 9.753.107 11.659.024 1.906.115 5.886.275 11.94.16 6.055.312 13.12.46 21.194.146 8.075.255 14.376.327 18.903.073 4.526.156 9.017.251 13.471.095 4.455.216 11.464.363 21.028.147 9.564.224 26.48.232 50.748.008 24.269 0 38.665-.022 43.189-.023 4.524-.036 8.85-.038 12.98-.002 4.128-.015 8.01-.038 11.646-.023 3.636-.07 8.395-.142 14.277-.072 5.883-.151 9.775-.238 11.678-.087 1.903-.21 3.435-.372 4.598-.241 1.736-.86 3.296-1.855 4.681M201.889 265.435c-.026 12.044-.01 19.38.051 22.01.042 1.835.195 3.86.459 6.076.264 2.215.518 4.482.762 6.801.244 2.32.441 4.73.591 7.234.15 2.502.257 5.165.317 7.986.061 2.822.095 5.66.1 8.513.007 2.854.043 5.884.108 9.092.066 3.208.144 6.508.235 9.9.09 3.39.151 6.758.183 10.1.032 3.344.05 6.685.053 10.024.003 3.338-.016 6.763-.058 10.274a347.755 347.755 0 0 1-.298 10.758c-.157 3.66-.275 7.36-.356 11.096-.08 3.737-.167 7.63-.259 11.68s-.208 7.966-.347 11.747c-.139 3.78-.26 7.655-.36 11.623a521.193 521.193 0 0 0-.169 12.06c-.01 4.074-.004 8.183.018 12.328.022 4.144.055 8.252.099 12.322.044 4.07.057 8.234.039 12.49a278.6 278.6 0 0 1-.323 12.408 709.407 709.407 0 0 0-.485 11.941c-.127 3.946-.243 10.14-.349 18.583-.106 8.443-.236 14.793-.39 19.05-.154 4.258-.359 8.328-.615 12.211-.256 3.884-.45 7.458-.583 10.723a252.55 252.55 0 0 0-.218 8.924c-.014 2.684.044 5.219.173 7.605.128 2.387.329 4.682.601 6.887.273 2.204.499 4.185.679 5.943.18 1.758.303 3.405.369 4.942.1 2.32-.341 4.097-1.322 5.335M199.993 605.703c-.616-.477.479-.938 3.284-1.382 2.806-.445 4.956-.749 6.45-.913a91.726 91.726 0 0 1 5.257-.401c2.009-.103 6.511-.231 13.506-.384s11.77-.252 14.325-.298c2.555-.046 4.976-.071 7.264-.076a364.69 364.69 0 0 0 14.723-.313c2.748-.111 5.449-.196 8.103-.253 2.654-.057 6.617-.088 11.89-.095 5.274-.006 9.216-.02 11.827-.04 2.611-.02 5.302-.064 8.072-.133 2.77-.068 8.58-.313 17.432-.734 8.852-.421 16.106-.73 21.764-.929 5.658-.198 10.03-.322 13.115-.372 3.086-.05 6.05-.111 8.89-.182 2.84-.072 7.383-.236 13.627-.494 6.244-.258 10.85-.437 13.816-.538 2.966-.101 6.154-.177 9.563-.228 3.41-.05 6.755-.079 10.036-.084 3.281-.005 6.677-.03 10.186-.077a945.1 945.1 0 0 0 10.814-.206c3.7-.091 7.52-.205 11.461-.342 3.94-.136 7.815-.244 11.623-.324 3.808-.08 7.665-.167 11.57-.262 3.906-.094 7.805-.18 11.698-.255 3.892-.076 9.615-.118 17.167-.126 7.552-.008 12.892.02 16.02.087a460.858 460.858 0 0 0 14.7.09c1.678-.02 3.023-.075 4.035-.163 1.482-.13 3.494-.224 6.037-.283" style="fill:none;stroke:#fcfcfc;stroke-width:6.23622;stroke-linecap:round;stroke-linejoin:round;stroke-miterlimit:10;stroke-dasharray:none;stroke-opacity:1" transform="matrix(.72727 0 0 .72727 -143.086 -185.225)"/><path d="M278.707 335.688c.018.434.174 1.069.466 1.904.293.836.51 1.48.655 1.934.144.453.546 1.646 1.206 3.578.66 1.931 1.228 3.595 1.7 4.99.473 1.396.867 2.53 1.182 3.404.316.873.547 1.527.693 1.96.146.432.472 1.343.978 2.732.506 1.388.837 2.318.991 2.79.155.471.355 1.155.6 2.052.36 1.314.916 3.062 1.669 5.244M258.731 355.29c.564.221 1.145.406 1.744.553.598.147 1.175.313 1.732.496.556.183 1.16.396 1.813.638s1.588.618 2.806 1.127 2.42.972 3.61 1.388c1.188.417 2.116.748 2.783.994.666.246 1.27.477 1.812.693.542.216 1.026.399 1.453.549.427.15 1.006.387 1.74.713.732.326 1.858.85 3.377 1.576a264.06 264.06 0 0 0 2.972 1.405c.463.212 1.077.54 1.841.982.765.443 1.327.745 1.686.907M277.485 336.047c.117-.18.178-.156.182.069.003.167-.078.463-.241.887-.164.424-.368.883-.614 1.375s-.44.864-.583 1.116a10.78 10.78 0 0 1-.672 1.005c-.306.417-.867 1.099-1.683 2.045a66.089 66.089 0 0 1-1.78 2.006c-.37.391-.868.937-1.494 1.638a38.347 38.347 0 0 1-1.68 1.78c-.495.487-.937.887-1.327 1.202-.39.314-.677.563-.862.747a7.035 7.035 0 0 1-.608.538c-.22.174-.726.514-1.515 1.019-.789.504-1.426.891-1.913 1.16-.705.388-1.9 1.142-3.584 2.263" style="fill:none;stroke:#007aff;stroke-width:1.8189;stroke-linecap:round;stroke-linejoin:round;stroke-miterlimit:10;stroke-dasharray:none;stroke-opacity:1" transform="matrix(.72727 0 0 .72727 -143.086 -185.225)"/></svg>