<svg xmlns="http://www.w3.org/2000/svg" width="23.225" height="24.321"><path d="M278.707 335.688c.018.434.174 1.069.466 1.904.293.836.51 1.48.655 1.934.144.453.546 1.646 1.206 3.578.66 1.931 1.228 3.595 1.7 4.99.473 1.396.867 2.53 1.182 3.404.316.873.547 1.527.693 1.96.146.432.472 1.343.978 2.732.506 1.388.837 2.318.991 2.79.155.471.355 1.155.6 2.052.36 1.314.916 3.062 1.669 5.244M258.731 355.29c.564.221 1.145.406 1.744.553.598.147 1.175.313 1.732.496.556.183 1.16.396 1.813.638s1.588.618 2.806 1.127 2.42.972 3.61 1.388c1.188.417 2.116.748 2.783.994.666.246 1.27.477 1.812.693.542.216 1.026.399 1.453.549.427.15 1.006.387 1.74.713.732.326 1.858.85 3.377 1.576a264.06 264.06 0 0 0 2.972 1.405c.463.212 1.077.54 1.841.982.765.443 1.327.745 1.686.907M277.485 336.047c.117-.18.178-.156.182.069.003.167-.078.463-.241.887-.164.424-.368.883-.614 1.375s-.44.864-.583 1.116a10.78 10.78 0 0 1-.672 1.005c-.306.417-.867 1.099-1.683 2.045a66.089 66.089 0 0 1-1.78 2.006c-.37.391-.868.937-1.494 1.638a38.347 38.347 0 0 1-1.68 1.78c-.495.487-.937.887-1.327 1.202-.39.314-.677.563-.862.747a7.035 7.035 0 0 1-.608.538c-.22.174-.726.514-1.515 1.019-.789.504-1.426.891-1.913 1.16-.705.388-1.9 1.142-3.584 2.263" style="fill:none;stroke:#007aff;stroke-width:1.8189;stroke-linecap:round;stroke-linejoin:round;stroke-miterlimit:10;stroke-dasharray:none;stroke-opacity:1" transform="matrix(.72727 0 0 .72727 -187.507 -243.475)"/></svg>