<svg xmlns="http://www.w3.org/2000/svg" width="311.971" height="327.444"><path d="M469.789 156.116c.225 5.845 2.284 14.392 6.178 25.64 3.893 11.248 6.796 19.926 8.709 26.035 1.913 6.108 7.264 22.169 16.055 48.18a24474.5 24474.5 0 0 1 22.619 67.21c6.289 18.794 11.533 34.072 15.733 45.833 4.2 11.761 7.271 20.557 9.216 26.387 1.944 5.83 6.285 18.095 13.024 36.795 6.739 18.7 11.137 31.224 13.196 37.573 2.058 6.348 4.714 15.56 7.968 27.635 4.767 17.69 12.16 41.226 22.181 70.605M200.172 418.78a184.466 184.466 0 0 0 23.421 7.528c8.04 2.01 15.797 4.26 23.269 6.75 7.471 2.49 15.59 5.38 24.358 8.671 8.767 3.29 21.327 8.388 37.681 15.294 16.355 6.906 32.515 13.19 48.483 18.85 15.967 5.662 28.427 10.163 37.381 13.503 8.955 3.34 17.069 6.475 24.343 9.407 7.274 2.932 13.777 5.416 19.51 7.452 5.733 2.037 13.52 5.262 23.363 9.677 9.841 4.415 24.956 11.534 45.343 21.357 20.386 9.823 33.688 16.171 39.904 19.044 6.217 2.872 14.458 7.305 24.723 13.297 10.266 5.993 17.81 10.086 22.63 12.278M453.332 160.888c1.587-2.4 2.402-2.089 2.444.936.032 2.251-1.062 6.225-3.281 11.923-2.22 5.696-4.997 11.848-8.33 18.455-3.332 6.607-5.961 11.604-7.888 14.991-1.926 3.387-4.957 7.88-9.092 13.477-4.136 5.597-11.715 14.74-22.737 27.43-11.022 12.688-19.03 21.653-24.026 26.894-4.995 5.24-11.721 12.558-20.177 21.956-8.455 9.398-16.02 17.352-22.693 23.865-6.674 6.511-12.64 11.873-17.9 16.085-5.258 4.211-9.133 7.549-11.622 10.013a94.524 94.524 0 0 1-8.204 7.198c-2.98 2.335-9.788 6.878-20.425 13.63-10.637 6.752-19.234 11.92-25.79 15.503-9.499 5.19-25.604 15.28-48.315 30.27" style="fill:none;stroke:#007aff;stroke-width:24.4634;stroke-linecap:round;stroke-linejoin:round;stroke-miterlimit:10;stroke-dasharray:none;stroke-opacity:1" transform="matrix(.72727 0 0 .72727 -136.684 -104.643)"/><path d="M457.403 268.27c.755-.497 1.238-1.208 1.451-2.134.144-.625.204-1.29.179-1.994-.025-.705-.12-1.252-.286-1.643-.166-.39-.435-.822-.807-1.295-.372-.474-.86-.917-1.464-1.329-.605-.412-1.316-.745-2.135-.999-.818-.254-1.785-.418-2.899-.494a23.475 23.475 0 0 0-3.433.026 14.811 14.811 0 0 0-3.565.745c-1.202.405-2.44.9-3.714 1.488a29.2 29.2 0 0 0-3.8 2.123 24.428 24.428 0 0 0-3.688 3.006 33.142 33.142 0 0 0-3.208 3.626c-.94 1.24-1.609 2.46-2.008 3.656-.4 1.197-.538 2.382-.415 3.554.122 1.173.63 2.198 1.524 3.075.894.877 2.211 1.546 3.95 2.008 1.739.461 3.662.735 5.77.823a35.957 35.957 0 0 0 6.18-.267c2.012-.264 3.863-.688 5.552-1.27 1.689-.583 3.129-1.308 4.32-2.177 1.192-.868 2.12-1.887 2.785-3.057a8.884 8.884 0 0 0 1.158-3.693 8.239 8.239 0 0 0-.567-3.77 32.343 32.343 0 0 0-1.437-3.171c-.75-1.417-1.278-2.466-1.581-3.147M438.26 292.052l-.81.065M460.204 296.825c-.11-.272-.074-.564.105-.876.122-.211.427-.47.916-.775a19.99 19.99 0 0 1 1.869-1.005 28.594 28.594 0 0 1 2.325-.996 16 16 0 0 1 2.235-.677c.697-.151 1.257-.239 1.682-.263.425-.024.735.07.93.28.195.21.343.482.443.816.1.334.166.71.195 1.127.029.418-.04.921-.21 1.51-.168.59-.534 1.278-1.097 2.066-.563.788-1.282 1.576-2.158 2.363a17.512 17.512 0 0 1-3.04 2.164 20.403 20.403 0 0 1-3.723 1.643c-1.331.44-2.777.747-4.338.924a48.075 48.075 0 0 1-4.896.29c-1.704.018-3.253-.054-4.648-.215-1.396-.16-2.553-.466-3.472-.917-.92-.45-1.526-1.002-1.82-1.655-.295-.653-.214-1.285.243-1.898.457-.612 1.174-1.09 2.152-1.434.977-.344 1.899-.548 2.764-.613.866-.064 1.6-.005 2.204.18.604.185.956.515 1.057.99.101.474-.116 1.033-.652 1.678-.536.644-1.13 1.348-1.782 2.112a14.082 14.082 0 0 0-1.712 2.52 9.43 9.43 0 0 0-.99 2.894 8.54 8.54 0 0 0-.01 2.914 4.24 4.24 0 0 0 1.258 2.373c.674.65 1.445 1.1 2.314 1.347 1.274.363 2.89.401 4.85.113M453.602 325.43c.184.516.008 1.05-.529 1.6-.365.376-.915.775-1.65 1.197-1.06.608-3.408 1.2-7.045 1.774M470.489 342.878l-.157-.31h0l.038.06.747 1.195c.676 1.083 1.934 3.5 3.774 7.254M493.154 361.982c.119.124.262.12.431-.01.118-.09.24-.257.363-.498.124-.242.207-.561.248-.96a6.958 6.958 0 0 0-.007-1.34 4.641 4.641 0 0 0-.427-1.517 7.094 7.094 0 0 0-.983-1.533c-.417-.506-.975-.967-1.675-1.382-.7-.415-1.57-.735-2.613-.958-1.043-.224-2.238-.348-3.587-.37a13.048 13.048 0 0 0-4.049.585 17.64 17.64 0 0 0-3.926 1.759c-1.268.76-2.442 1.74-3.522 2.938-1.08 1.199-1.861 2.506-2.344 3.922-.482 1.416-.62 2.747-.416 3.992.204 1.244.798 2.43 1.782 3.558.983 1.127 2.202 2.082 3.657 2.863 1.455.781 3.06 1.257 4.814 1.426 1.754.17 3.422-.031 5.004-.603 1.582-.571 2.903-1.32 3.962-2.248 1.06-.928 1.815-1.828 2.266-2.7.452-.873.725-1.67.82-2.394.143-1.08.121-2.195-.063-3.345M479.126 382.76c.19-.069.381-.136.572-.204M505.508 383.04c-.218-.195-.512-.235-.883-.12-.252.078-.633.278-1.145.6-.511.323-1.294.784-2.35 1.383-1.054.599-2.393 1.263-4.017 1.991a92.582 92.582 0 0 1-5.261 2.157c-2.802 1.055-5.738 2.406-8.808 4.051M486.074 402.073c.072.23.037.502-.103.82-.093.21-.346.492-.758.847-.412.356-1.003.703-1.774 1.043-1.113.49-3.272.807-6.477.95M504.982 423.627c.083-.124.167-.117.25.019.085.136.217.534.397 1.195.26.954.965 2.756 2.115 5.405M529.885 435.367c-.649.183-1.515.587-2.599 1.213a120.18 120.18 0 0 0-3.2 1.915c-1.05.65-2.427 1.383-4.132 2.197a318.246 318.246 0 0 1-5.426 2.526c-1.913.87-3.795 1.744-5.645 2.621a45.666 45.666 0 0 0-7.779 4.672M506.3 455.814l-1.453-.238M533.293 461.825c.725-.005 1.233-.098 1.524-.28.2-.125.381-.286.542-.48.16-.196.325-.495.494-.899.168-.404.297-.86.385-1.366.089-.507.111-.998.067-1.472-.043-.475-.31-.923-.797-1.346-.489-.423-1.214-.762-2.176-1.017-.961-.255-2.122-.41-3.482-.467-1.36-.056-2.902.056-4.628.335-1.726.278-3.46.826-5.2 1.642a18.548 18.548 0 0 0-4.711 3.154c-1.4 1.287-2.422 2.577-3.067 3.87-.646 1.292-.89 2.539-.733 3.741.158 1.202.811 2.228 1.962 3.077 1.15.85 2.668 1.393 4.555 1.63 1.886.237 3.845.175 5.876-.185a22.106 22.106 0 0 0 5.84-1.902c1.862-.906 3.362-1.962 4.5-3.167 1.137-1.204 1.92-2.357 2.348-3.46.625-1.607.417-3.291-.626-5.052M522.701 481.964c-.494.083-1.067.42-1.718 1.014a9.956 9.956 0 0 1-2.317 1.551c-1.305.644-3.238 1.267-5.797 1.868M407.564 335.01c.346-.061.697-.236 1.053-.525.356-.289.656-.553.9-.79a7.42 7.42 0 0 0 .781-.927c.277-.38.47-.796.58-1.249a5.27 5.27 0 0 0 .132-1.444c-.02-.51-.243-1.029-.67-1.555-.426-.527-1.07-1.004-1.933-1.432-.863-.428-1.894-.74-3.093-.934-1.2-.195-2.603-.287-4.21-.276-1.608.01-3.343.3-5.206.868a19.789 19.789 0 0 0-5.276 2.516 29.33 29.33 0 0 0-4.475 3.669c-1.33 1.335-2.319 2.8-2.969 4.392-.65 1.592-.926 3.035-.83 4.328.098 1.292.759 2.352 1.984 3.178 1.226.827 2.837 1.46 4.833 1.898 1.996.438 4.075.654 6.236.646 2.162-.008 4.181-.29 6.06-.848 1.877-.557 3.385-1.262 4.524-2.117 1.139-.855 1.836-1.842 2.09-2.96.255-1.12.097-2.205-.474-3.257-.848-1.565-2.005-3.018-3.47-4.36M394.78 353.937l-.978.375M418.57 351.237c-.451.022-1.136.251-2.054.69-.92.437-1.805.88-2.659 1.327-.854.447-1.744.921-2.67 1.422-.927.5-1.77.978-2.53 1.432-.761.454-1.357.886-1.788 1.296-.431.41-.714.834-.847 1.27-.134.436-.101.904.097 1.403.2.5.572 1.002 1.118 1.508.799.74 2.008 1.716 3.628 2.932" style="fill:none;stroke:#7ec636;stroke-width:2.85827;stroke-linecap:round;stroke-linejoin:round;stroke-miterlimit:10;stroke-dasharray:none;stroke-opacity:1" transform="matrix(.72727 0 0 .72727 -136.684 -104.643)"/><path d="M413.945 361.768c-.369.06-1.508.635-3.416 1.723-2.815 1.605-6.328 3.28-10.537 5.024M406.519 379.82c.187.71-.054 1.456-.724 2.238-.452.528-1.055 1.04-1.808 1.538-1.094.723-3.014 1.504-5.76 2.343M438.688 405.788c.354.03.802-.184 1.345-.644.354-.3.648-.593.881-.879.234-.286.48-.636.736-1.049.257-.413.469-.863.635-1.349.167-.486.253-.986.26-1.5.007-.513-.252-1.06-.778-1.638-.526-.579-1.316-1.11-2.37-1.59-1.054-.482-2.266-.85-3.637-1.101-1.372-.252-2.885-.355-4.54-.309-1.656.047-3.276.37-4.86.972-1.584.602-3.107 1.47-4.57 2.602-1.462 1.133-2.813 2.546-4.053 4.238-1.24 1.692-2.135 3.29-2.683 4.797-.549 1.507-.79 2.927-.723 4.261.067 1.335.634 2.454 1.702 3.358 1.067.904 2.388 1.491 3.963 1.762 1.576.271 3.232.254 4.97-.052a19.968 19.968 0 0 0 5.085-1.627c1.651-.78 3.02-1.644 4.105-2.593 1.086-.948 1.85-1.799 2.292-2.552.652-1.11.794-2.246.424-3.408M423.933 423.99l-1.049.102M452.225 432.143c.44-.72.745-1.347.917-1.883.118-.364.171-.868.161-1.512a3.831 3.831 0 0 0-.53-1.868c-.345-.6-.838-1.165-1.48-1.691a6.447 6.447 0 0 0-2.183-1.172c-.813-.255-1.796-.344-2.95-.268-1.154.077-2.548.488-4.182 1.234-1.634.746-3.262 1.759-4.884 3.038a34.553 34.553 0 0 0-4.393 4.115c-1.306 1.463-2.201 2.865-2.685 4.206-.483 1.34-.512 2.463-.086 3.368.426.905 1.35 1.513 2.77 1.825 1.42.312 3.087.383 5 .212a26.689 26.689 0 0 0 5.585-1.102c1.81-.564 3.337-1.168 4.58-1.81 1.834-.948 2.832-2.24 2.997-3.877M440.057 451.848c-.586.362-1.176.687-1.77.974-.396.192-.882.389-1.458.59-.833.292-2.449.68-4.848 1.165M350.004 376.851l-.216-.336v-.002l.018.028c.016.023.17.253.46.692.293.438.647 1.073 1.064 1.906.603 1.204 1.481 3.466 2.636 6.784M372.066 400.768c.526-.44.94-.809 1.245-1.107a2.75 2.75 0 0 0 .538-.775c.152-.313.246-.689.283-1.126.037-.437-.035-.93-.215-1.48-.18-.55-.481-1.136-.904-1.757a8.02 8.02 0 0 0-1.593-1.71c-.638-.518-1.425-.908-2.362-1.171-.936-.263-2.037-.408-3.304-.434-1.266-.026-2.596.156-3.988.547-1.392.39-2.852 1.067-4.379 2.028a29.027 29.027 0 0 0-4.25 3.255c-1.306 1.208-2.292 2.505-2.96 3.892-.666 1.387-1.018 2.746-1.053 4.08-.036 1.332.303 2.42 1.017 3.263s1.685 1.423 2.912 1.74c1.228.317 2.631.4 4.21.25 1.58-.151 3.253-.543 5.02-1.175 1.767-.632 3.367-1.4 4.8-2.303 1.433-.903 2.519-1.805 3.258-2.705 1.107-1.349 1.806-2.793 2.095-4.332M359.992 420.14l-.81-.673M380.068 421.452c-.314-.516-.307-.93.02-1.243.23-.22.516-.38.861-.485.345-.104.824-.166 1.438-.185a5.77 5.77 0 0 1 1.892.27c.648.2 1.241.528 1.78.983.54.454.928.987 1.165 1.6.238.612.323 1.262.256 1.951-.067.689-.402 1.347-1.007 1.973-.606.627-1.353 1.164-2.243 1.61-.89.448-1.77.79-2.638 1.028-.868.238-1.63.384-2.284.438-.654.054-1.145.069-1.473.044-.327-.025-.523-.095-.587-.21-.064-.116-.038-.224.077-.327.116-.103.35-.175.705-.215.355-.04.723-.022 1.104.056.381.078.686.323.915.735.229.412.37.958.424 1.637.054.68-.013 1.447-.2 2.304a9.334 9.334 0 0 1-.932 2.478c-.434.795-1.087 1.49-1.96 2.087-.873.596-1.89.995-3.05 1.196-1.16.2-2.395.164-3.705-.109s-2.689-.93-4.136-1.97c-2.108-1.518-3.933-4.306-5.473-8.365" style="fill:none;stroke:#7ec636;stroke-width:2.85827;stroke-linecap:round;stroke-linejoin:round;stroke-miterlimit:10;stroke-dasharray:none;stroke-opacity:1" transform="matrix(.72727 0 0 .72727 -136.684 -104.643)"/></svg>