<svg xmlns="http://www.w3.org/2000/svg" width="250.635" height="257.554"><path d="m202.59 262.482-.654.065c-.019.002.023.008.125.018l1.801.17c1.098.105 3.686.114 7.762.028 4.076-.086 10.901-.131 20.475-.137 9.573-.005 17.194-.053 22.863-.144 5.669-.09 10.053-.149 13.153-.174 3.1-.025 6.157-.072 9.17-.141 3.015-.069 10.113-.21 21.296-.425 11.184-.214 18.802-.379 22.855-.493 4.053-.114 10.32-.314 18.802-.6 8.481-.285 17.335-.572 26.562-.86 9.228-.29 16.021-.474 20.381-.554 4.36-.08 8.942-.155 13.747-.224 4.805-.07 8.598-.143 11.38-.222 2.781-.078 5.473-.129 8.075-.152 2.601-.022 9.459-.15 20.572-.383 11.114-.233 19.345-.365 24.696-.397 5.35-.032 10.498-.05 15.443-.053 4.946-.003 8.241.005 9.885.025 1.644.02 4.167.144 7.568.372 3.402.227 6.734.436 9.997.625l9.432.545c4.437.256 10.281.653 17.532 1.189M536.534 258.16c-.417 1.788-.7 3.31-.847 4.562-.1.85-.168 2.319-.204 4.405-.036 2.087-.054 5.574-.054 10.463 0 4.888.02 8.625.062 11.211.042 2.586.065 9.705.07 21.357.005 11.652.031 20.411.08 26.278.047 5.866.083 9.753.107 11.659.024 1.906.115 5.886.275 11.94.16 6.055.312 13.12.46 21.194.146 8.075.255 14.376.327 18.903.073 4.526.156 9.017.251 13.471.095 4.455.216 11.464.363 21.028.147 9.564.224 26.48.232 50.748.008 24.269 0 38.665-.022 43.189-.023 4.524-.036 8.85-.038 12.98-.002 4.128-.015 8.01-.038 11.646-.023 3.636-.07 8.395-.142 14.277-.072 5.883-.151 9.775-.238 11.678-.087 1.903-.21 3.435-.372 4.598-.241 1.736-.86 3.296-1.855 4.681M201.889 265.435c-.026 12.044-.01 19.38.051 22.01.042 1.835.195 3.86.459 6.076.264 2.215.518 4.482.762 6.801.244 2.32.441 4.73.591 7.234.15 2.502.257 5.165.317 7.986.061 2.822.095 5.66.1 8.513.007 2.854.043 5.884.108 9.092.066 3.208.144 6.508.235 9.9.09 3.39.151 6.758.183 10.1.032 3.344.05 6.685.053 10.024.003 3.338-.016 6.763-.058 10.274a347.755 347.755 0 0 1-.298 10.758c-.157 3.66-.275 7.36-.356 11.096-.08 3.737-.167 7.63-.259 11.68s-.208 7.966-.347 11.747c-.139 3.78-.26 7.655-.36 11.623a521.193 521.193 0 0 0-.169 12.06c-.01 4.074-.004 8.183.018 12.328.022 4.144.055 8.252.099 12.322.044 4.07.057 8.234.039 12.49a278.6 278.6 0 0 1-.323 12.408 709.407 709.407 0 0 0-.485 11.941c-.127 3.946-.243 10.14-.349 18.583-.106 8.443-.236 14.793-.39 19.05-.154 4.258-.359 8.328-.615 12.211-.256 3.884-.45 7.458-.583 10.723a252.55 252.55 0 0 0-.218 8.924c-.014 2.684.044 5.219.173 7.605.128 2.387.329 4.682.601 6.887.273 2.204.499 4.185.679 5.943.18 1.758.303 3.405.369 4.942.1 2.32-.341 4.097-1.322 5.335M199.993 605.703c-.616-.477.479-.938 3.284-1.382 2.806-.445 4.956-.749 6.45-.913a91.726 91.726 0 0 1 5.257-.401c2.009-.103 6.511-.231 13.506-.384s11.77-.252 14.325-.298c2.555-.046 4.976-.071 7.264-.076a364.69 364.69 0 0 0 14.723-.313c2.748-.111 5.449-.196 8.103-.253 2.654-.057 6.617-.088 11.89-.095 5.274-.006 9.216-.02 11.827-.04 2.611-.02 5.302-.064 8.072-.133 2.77-.068 8.58-.313 17.432-.734 8.852-.421 16.106-.73 21.764-.929 5.658-.198 10.03-.322 13.115-.372 3.086-.05 6.05-.111 8.89-.182 2.84-.072 7.383-.236 13.627-.494 6.244-.258 10.85-.437 13.816-.538 2.966-.101 6.154-.177 9.563-.228 3.41-.05 6.755-.079 10.036-.084 3.281-.005 6.677-.03 10.186-.077a945.1 945.1 0 0 0 10.814-.206c3.7-.091 7.52-.205 11.461-.342 3.94-.136 7.815-.244 11.623-.324 3.808-.08 7.665-.167 11.57-.262 3.906-.094 7.805-.18 11.698-.255 3.892-.076 9.615-.118 17.167-.126 7.552-.008 12.892.02 16.02.087a460.858 460.858 0 0 0 14.7.09c1.678-.02 3.023-.075 4.035-.163 1.482-.13 3.494-.224 6.037-.283" style="fill:none;stroke:#fcfcfc;stroke-width:6.23622;stroke-linecap:round;stroke-linejoin:round;stroke-miterlimit:10;stroke-dasharray:none;stroke-opacity:1" transform="matrix(.72727 0 0 .72727 -143.086 -185.225)"/><path d="M146.395 435.888h115.22v24.258h-115.22Z" style="fill:#007aff;fill-opacity:.1;fill-rule:nonzero;stroke:none" transform="matrix(1.33333 0 0 -1.33333 -176.497 634.365)"/><path d="M267.828 243.102h211.237v44.472H267.828v-44.472" style="fill:none;stroke:#007aff;stroke-width:1.8189;stroke-linecap:round;stroke-linejoin:round;stroke-miterlimit:10;stroke-dasharray:none;stroke-opacity:1" transform="matrix(.72727 0 0 .72727 -176.087 -155.964)"/><path d="M287.013 251.36c-.205-.077-.482-.054-.831.067-.23.08-.59.288-1.084.626-.493.338-.973.723-1.442 1.156-.468.432-.927.934-1.379 1.505-.45.572-.891 1.21-1.322 1.914-.43.705-.844 1.49-1.242 2.357-.397.867-.738 1.92-1.02 3.156-.283 1.237-.445 2.63-.485 4.179-.04 1.548.109 3.13.446 4.747.495 2.37 1.76 5.12 3.795 8.25M295.231 257.897c.008-.424-.01-.715-.056-.874a1.474 1.474 0 0 0-.184-.378 1.48 1.48 0 0 0-.365-.384 1.278 1.278 0 0 0-.586-.224c-.238-.036-.528-.016-.87.061-.341.077-.669.212-.983.407-.314.194-.726.54-1.236 1.04a10.99 10.99 0 0 0-1.412 1.698c-.43.635-.832 1.41-1.204 2.326a22.34 22.34 0 0 0-.96 2.966 14.85 14.85 0 0 0-.441 3.283c-.027 1.127.126 2.151.46 3.072a6.878 6.878 0 0 0 1.425 2.379c.618.664 1.324 1.098 2.12 1.3.796.203 1.507.169 2.135-.103.627-.272 1.401-.83 2.322-1.672.922-.842 1.668-1.744 2.239-2.705a13.55 13.55 0 0 0 1.325-2.976c.312-1.024.502-2.12.57-3.292a9.857 9.857 0 0 0-.372-3.37c-.316-1.075-.651-1.928-1.006-2.558-.356-.63-.678-1.074-.969-1.33-.412-.361-.97-.2-1.675.486M302.413 269.902l.083 5M312.162 257.026c.003.767.015 1.367.035 1.8.014.297.065.845.152 1.646.088.801.168 1.74.24 2.815.072 1.075.114 2.227.127 3.454.02 1.806-.014 4.063-.1 6.772M319.639 253.2c.37.072.714.23 1.03.477.21.165.482.433.814.804.331.372.713.871 1.144 1.5.432.628.85 1.337 1.253 2.127.404.79.735 1.728.993 2.815a20.6 20.6 0 0 1 .502 3.556c.075 1.284-.01 2.65-.258 4.098a19.904 19.904 0 0 1-1.126 4.059c-.504 1.257-1.04 2.297-1.607 3.12-.84 1.216-1.851 1.847-3.036 1.895M333.317 266.793c.123-.15.44-.259.95-.328s1.036-.11 1.58-.123a30.12 30.12 0 0 1 2.023.033c1.174.053 2.918.292 5.232.717M346.99 260.809c.181-.108.452-.061.813.14a15.472 15.472 0 0 1 1.778 1.167c.322.244.619.496.888.757.27.26.499.538.687.832.188.294.326.605.413.932.088.327.136.678.145 1.054.009.375-.083.803-.276 1.282a8.8 8.8 0 0 1-.812 1.519c-.349.533-.687.992-1.015 1.375a20.485 20.485 0 0 1-1.834 1.847M368.788 253.68a3.366 3.366 0 0 0-.844-.055c-.194.011-.44.099-.739.263-.299.163-.666.434-1.1.81a13.38 13.38 0 0 0-1.415 1.47 55.368 55.368 0 0 0-1.607 2.005c-.562.733-1.064 1.624-1.506 2.674a12.283 12.283 0 0 0-.869 3.384c-.138 1.206-.16 2.54-.067 4.005.093 1.464.256 2.696.488 3.695.335 1.442 1.6 3.894 3.797 7.355M373.025 261.526c-.012.23-.065.284-.158.162-.068-.088-.116-.249-.143-.481a7.71 7.71 0 0 1-.046-.833c-.003-.322.02-.66.07-1.016.05-.355.157-.71.323-1.062.166-.353.342-.638.527-.853.185-.215.373-.343.565-.384.191-.04.383.028.577.204.193.177.378.435.554.777.176.342.316.775.42 1.3.104.526.168 1.2.192 2.024.023.824-.048 1.69-.214 2.6a14.92 14.92 0 0 1-.806 2.78c-.37.944-.8 1.824-1.284 2.64-.486.816-.964 1.476-1.436 1.98-.472.505-.918.888-1.337 1.15-.42.261-.781.396-1.085.403a.84.84 0 0 1-.735-.37 2.345 2.345 0 0 1-.39-.932 4.515 4.515 0 0 1-.076-1.158c.023-.404.126-.792.309-1.162.182-.37.382-.623.6-.759.217-.136.446-.089.686.14.24.23.493.616.758 1.161.266.545.58 1.094.944 1.646.364.552.778 1.02 1.244 1.405.465.385.942.653 1.43.803.487.15.91.234 1.27.249.359.015.756-.123 1.19-.414.634-.424 1.2-1.195 1.698-2.312M382.884 270.733c.002.984.169 2.195.502 3.632M388.699 265.113c-.39-.01-.634-.077-.729-.198-.066-.084-.137-.29-.212-.615-.076-.326-.117-.757-.125-1.293a8.095 8.095 0 0 1 .137-1.602c.099-.533.26-.994.482-1.383.222-.39.472-.657.749-.801a1.08 1.08 0 0 1 .84-.089c.282.086.546.295.79.626.246.332.434.744.566 1.238.131.493.21.98.234 1.458.025.48.008.91-.051 1.293-.06.383-.154.69-.284.922-.13.232-.273.388-.426.467-.154.08-.237.08-.25.001-.012-.08.019-.198.092-.355a.884.884 0 0 1 .345-.382c.157-.097.455-.16.894-.188.439-.028.876.043 1.311.215.435.172.855.394 1.26.666.406.272.753.596 1.043.971.29.376.498.797.627 1.263.129.466.18.965.155 1.497-.025.532-.213 1.09-.564 1.67a6.252 6.252 0 0 1-1.39 1.587c-.576.475-1.145.84-1.706 1.093-.825.371-1.483.355-1.975-.05M400.293 255.608c-.052-.137-.013-.215.116-.234.093-.014.23.013.414.08.184.066.403.2.659.4.255.2.576.512.962.936.386.425.81 1 1.272 1.725.462.726.846 1.53 1.153 2.41.307.882.541 1.812.702 2.79.161.978.253 2.013.275 3.106a16.625 16.625 0 0 1-.223 3.139c-.17 1-.393 1.85-.666 2.554-.407 1.044-1.066 1.845-1.98 2.401M413.544 265.603c.39-.223.724-.37.998-.442a5.59 5.59 0 0 1 .766-.126c.465-.052 1.526.112 3.184.49M421.048 261.029h-.15l.014.004.365.074c.23.047.493.166.786.358.293.192.594.428.903.709.31.28.582.569.818.865.236.296.415.592.539.889.123.296.19.609.203.937.012.329-.09.69-.305 1.083s-.486.79-.813 1.19c-.484.596-1.108 1.053-1.871 1.372M438.739 255.181c.225-.365.24-.594.041-.686-.14-.065-.335-.058-.585.022-.25.08-.567.255-.952.525-.386.269-.831.66-1.337 1.17a18.522 18.522 0 0 0-1.59 1.872 10.422 10.422 0 0 0-1.353 2.398c-.347.864-.591 2.178-.733 3.945-.141 1.766-.104 3.422.114 4.967.316 2.246 1.864 4.925 4.646 8.038M446.404 260.077c-.162-.112-.26-.292-.295-.54a3.78 3.78 0 0 0-.12-.587.692.692 0 0 0-.241-.35c-.116-.09-.282-.142-.5-.156-.216-.014-.497.068-.842.247-.346.178-.747.476-1.205.891-.458.416-.91.968-1.353 1.656a10.71 10.71 0 0 0-1.087 2.21 7.051 7.051 0 0 0-.416 2.414c.003.825.215 1.609.64 2.35a4.64 4.64 0 0 0 1.696 1.737 5.45 5.45 0 0 0 2.314.734 4.11 4.11 0 0 0 2.35-.477c.73-.391 1.32-.992 1.766-1.803.447-.81.74-1.638.878-2.484.138-.846.16-1.628.068-2.348-.094-.72-.303-1.295-.629-1.728-.473-.628-1.251-.953-2.335-.976M453.475 268.555l.21 3.588M463.212 260.091c.092-.245.13-.424.113-.538-.011-.078-.134-.206-.368-.383-.234-.178-.452-.29-.652-.337a2.24 2.24 0 0 0-.687-.04c-.258.021-.564.163-.92.427-.355.263-.705.66-1.051 1.19-.347.53-.615 1.178-.804 1.946a8.326 8.326 0 0 0-.222 2.426 7.21 7.21 0 0 0 .574 2.474c.34.8.776 1.445 1.308 1.935s1.11.747 1.737.772c.626.025 1.215-.251 1.769-.828.553-.576 1.038-1.285 1.455-2.126.417-.84.734-1.711.95-2.61.216-.9.306-1.696.27-2.389-.035-.693-.2-1.264-.495-1.714-.295-.45-.601-.78-.918-.992a4.995 4.995 0 0 0-1.45-.681M470.658 256.103c0-.113.055-.154.167-.121.111.032.25.143.416.332.167.188.392.548.677 1.078.285.53.569 1.212.852 2.049.283.836.499 1.79.646 2.863.147 1.072.186 2.206.12 3.402a13.773 13.773 0 0 1-.69 3.569c-.57 1.72-1.967 4.066-4.192 7.036" style="fill:none;stroke:#007aff;stroke-width:1.8189;stroke-linecap:round;stroke-linejoin:round;stroke-miterlimit:10;stroke-dasharray:none;stroke-opacity:1" transform="matrix(.72727 0 0 .72727 -176.087 -155.964)"/><path d="M166.401 365.21h113.416v24.055H166.401Z" style="fill:#7ec636;fill-opacity:.1;fill-rule:nonzero;stroke:none" transform="matrix(1.33333 0 0 -1.33333 -176.497 634.365)"/><path d="M269.277 303.165h207.929v44.101h-207.93v-44.1" style="fill:none;stroke:#7ec636;stroke-width:1.8189;stroke-linecap:round;stroke-linejoin:round;stroke-miterlimit:10;stroke-dasharray:none;stroke-opacity:1" transform="matrix(.72727 0 0 .72727 -150.466 -105.139)"/><path d="M283.541 314.735c-.488-.138-.878-.218-1.17-.242a5.068 5.068 0 0 0-.738.005c-.293.02-.66.157-1.1.41-.439.254-.905.632-1.396 1.133-.492.501-.946 1.173-1.361 2.016-.416.842-.71 1.96-.882 3.355-.172 1.395-.245 2.936-.218 4.624.027 1.687.193 3.271.497 4.751.446 2.167 1.81 4.03 4.09 5.586M292.19 318.812a1.54 1.54 0 0 1-.578-.399 2.824 2.824 0 0 0-.349-.315c-.112-.084-.3-.17-.564-.257a3.09 3.09 0 0 0-.888-.144 3.419 3.419 0 0 0-1.104.178c-.408.128-.808.36-1.202.697-.394.338-.765.804-1.115 1.4-.35.596-.646 1.31-.89 2.14-.244.83-.392 1.737-.445 2.72-.053.982.033 1.998.258 3.047.225 1.05.551 1.951.977 2.704.427.752.938 1.274 1.536 1.566.597.291 1.18.383 1.75.276.571-.107 1.101-.544 1.59-1.311.49-.768.85-1.734 1.078-2.898.229-1.165.366-2.237.41-3.217.045-.98.052-1.8.021-2.46-.03-.661-.113-1.183-.247-1.565-.2-.575-.5-.983-.895-1.226M296.412 330.86c.308-.017.585.071.83.265.247.194.445.387.596.58.15.194.276.419.378.676.145.37.133 1.262-.037 2.678M307.412 320.377c-.248-.594-.462-.957-.64-1.09-.125-.092-.298-.146-.519-.161-.221-.016-.501.08-.84.287-.34.207-.682.497-1.026.87a5.77 5.77 0 0 0-.914 1.362c-.265.535-.486 1.189-.664 1.962a13.452 13.452 0 0 0-.326 2.324c-.04.776.04 1.797.237 3.064.198 1.267.502 2.22.912 2.857.41.639.804 1.047 1.183 1.225.378.178.713.277 1.004.297.292.02.56-.028.803-.142.244-.114.497-.302.759-.563.262-.262.491-.551.687-.87.196-.318.367-.679.513-1.083.146-.403.247-.72.305-.95.057-.229.147-.964.268-2.204.12-1.24.14-2.214.06-2.92-.12-1.047-.539-2.013-1.254-2.898M314.429 317.088c.462.103.953.395 1.473.876.341.315.688.733 1.039 1.254.351.522.663 1.147.936 1.878.272.73.459 1.546.559 2.447.1.9.104 1.91.012 3.03a18.33 18.33 0 0 1-.667 3.534 33.129 33.129 0 0 1-1.212 3.51 20.828 20.828 0 0 1-2.574 4.558M327.31 327.116l-.384.235c-.03.018.097.028.379.03l2.043.011c1.65.01 3.007.234 4.073.674M335.42 322.755c.461.026.86.144 1.196.353.228.141.468.31.722.504.253.195.526.428.817.7.292.27.557.578.795.922.237.344.408.728.512 1.152a4.4 4.4 0 0 1 .084 1.433c-.048.532-.221 1.077-.521 1.634-.3.557-.67 1.047-1.11 1.47-.648.623-1.566 1.152-2.755 1.589M355.964 314.002a1.485 1.485 0 0 0-.682-.142c-.18 0-.377.043-.591.129a6.158 6.158 0 0 0-.783.396c-.308.18-.815.568-1.522 1.166a10.396 10.396 0 0 0-1.851 2.045c-.528.766-.998 1.78-1.412 3.046-.415 1.264-.718 2.709-.91 4.334-.192 1.625-.244 3.375-.155 5.251.09 1.876.182 3.103.277 3.68.096.577.206 1.081.331 1.514.18.622.935 1.956 2.267 4.003M365.164 319.81c-.841-.346-1.471-.546-1.89-.6a6.659 6.659 0 0 0-1.004-.039c-.381.01-.775.107-1.182.288a4.19 4.19 0 0 0-1.156.787c-.364.342-.72.826-1.064 1.45a10.74 10.74 0 0 0-.873 2.122c-.236.79-.385 1.671-.446 2.643-.06.972-.043 1.921.053 2.846.095.926.317 1.723.664 2.392a5.26 5.26 0 0 0 1.308 1.654c.524.435 1.076.699 1.654.792.579.093 1.189-.025 1.83-.354.641-.33 1.268-.852 1.88-1.57.612-.717 1.128-1.565 1.549-2.544.42-.978.727-1.93.92-2.857.194-.926.275-1.734.245-2.424-.03-.69-.208-1.27-.535-1.735-.48-.684-1.2-1.453-2.16-2.305M370.917 328.554c.028.397.02 1.083-.027 2.058-.029.607-.06 1.157-.091 1.65-.047.735-.07 1.518-.07 2.348M379.15 319.432c-.158.184-.24.67-.242 1.457-.002.489.018 1.096.06 1.822.043.726.074 1.524.093 2.396.02.871.023 1.797.01 2.779a31.654 31.654 0 0 1-.396 4.51M383.897 317.295c.26 0 .504.118.734.353.23.235.552.678.963 1.327.412.65.8 1.357 1.164 2.125.364.767.68 1.574.946 2.42.267.846.443 1.766.527 2.759a13.522 13.522 0 0 1-1.03 6.357c-.667 1.596-1.858 3.405-3.571 5.427M398.156 326.776l-.16.163c-.016.018.012.022.084.012l.394-.054c.19-.026.508-.058.955-.097a57.34 57.34 0 0 1 1.502-.107c.814-.049 1.915-.066 3.306-.053M406.49 321.879c-.163.045-.035.202.383.47.418.27.81.558 1.177.866.367.307.734.692 1.101 1.154.368.462.65 1.004.846 1.627.196.622.3 1.278.31 1.967a4.49 4.49 0 0 1-.38 1.926c-.266.594-.595 1.083-.988 1.467-.572.56-1.517.953-2.834 1.182M426.163 315.138c-.032-.374-.216-.603-.55-.687a2.99 2.99 0 0 0-.631-.096c-.188-.006-.429.033-.722.118-.294.084-.65.29-1.067.616-.418.327-.864.762-1.338 1.306-.475.544-.966 1.272-1.475 2.182-.509.91-.957 1.998-1.346 3.264a20.076 20.076 0 0 0-.78 4.096 31.684 31.684 0 0 0-.089 4.419c.074 1.48.311 2.812.714 3.997.583 1.715 2.255 3.093 5.017 4.132M430.16 324.217c-.246-.022-.446-.158-.6-.408a1.69 1.69 0 0 1-.219-.522c-.04-.178-.062-.635-.067-1.369-.005-.734.053-1.302.176-1.703.123-.402.291-.777.505-1.126a3.12 3.12 0 0 1 .7-.825c.252-.2.491-.328.718-.385.227-.057.424-.052.591.014.167.067.313.252.438.553.125.302.223.691.293 1.168.07.477.116 1.06.137 1.748a10.85 10.85 0 0 1-.17 2.184c-.134.768-.388 1.604-.762 2.509a40.697 40.697 0 0 1-1.31 2.832 30.132 30.132 0 0 1-1.526 2.682c-.518.804-1.008 1.47-1.47 1.997-.462.527-.86.892-1.193 1.096-.333.204-.581.24-.745.11-.164-.131-.229-.43-.194-.896.034-.466.187-.977.456-1.535a9.68 9.68 0 0 1 .931-1.549c.351-.474.706-.803 1.065-.987a1.623 1.623 0 0 1 1.089-.163c.366.074.749.288 1.147.642.398.353.804.745 1.219 1.176.414.431.833.845 1.256 1.242.423.397.839.745 1.248 1.044.6.44 1.375.687 2.322.742M441.018 332.425c-.089.593-.044 1.405.134 2.436M444.368 323.444c-.104-.11-.153-.294-.147-.553.004-.17.052-.423.146-.758a9.87 9.87 0 0 1 .434-1.19c.196-.459.423-.876.682-1.253.259-.377.549-.685.87-.925.32-.24.613-.396.875-.47.263-.074.476-.057.637.05.162.107.27.34.321.696.052.357.077.765.076 1.226-.002.46-.035.887-.1 1.279a9.825 9.825 0 0 1-.25 1.12c-.102.355-.006.484.287.388a3.289 3.289 0 0 1 1.027-.142c.392 0 .83.11 1.315.326.485.216.946.483 1.383.8.437.316.79.645 1.057.986.267.34.432.74.495 1.2.062.458-.016.974-.233 1.547-.218.572-.575 1.132-1.072 1.679-.496.547-.99.977-1.478 1.292-.712.457-1.875.858-3.488 1.203M457.301 314.649c.426-.028.75.071.97.297.151.155.357.417.616.786.26.37.553.871.88 1.506.329.635.639 1.398.93 2.29.293.891.512 1.857.656 2.896.145 1.04.22 2.173.229 3.402a17.005 17.005 0 0 1-.354 3.593c-.356 1.708-1.18 3.903-2.469 6.583" style="fill:none;stroke:#7ec636;stroke-width:1.8189;stroke-linecap:round;stroke-linejoin:round;stroke-miterlimit:10;stroke-dasharray:none;stroke-opacity:1" transform="matrix(.72727 0 0 .72727 -150.466 -105.139)"/><path d="M193.483 300.897H307.74v23.816H193.483Z" style="fill:#f59a23;fill-opacity:.1;fill-rule:nonzero;stroke:none" transform="matrix(1.33333 0 0 -1.33333 -176.497 634.365)"/><path d="M267.969 366.25h209.47v43.662h-209.47V366.25" style="fill:none;stroke:#f59a23;stroke-width:1.8189;stroke-linecap:round;stroke-linejoin:round;stroke-miterlimit:10;stroke-dasharray:none;stroke-opacity:1" transform="matrix(.72727 0 0 .72727 -113.406 -64.948)"/><path d="M282.78 376.667c-.311.062-.624.212-.936.45-.312.238-.683.557-1.11.956a22.42 22.42 0 0 0-1.486 1.555c-.562.638-1.14 1.464-1.736 2.478a22.308 22.308 0 0 0-1.608 3.413 17.29 17.29 0 0 0-.973 3.767c-.171 1.249-.132 2.761.12 4.536.366 2.597 1.833 4.772 4.4 6.524M288.546 385.02c-.187.17-.356.188-.506.055-.106-.095-.19-.24-.25-.436-.062-.197-.128-.536-.199-1.017-.07-.481-.112-.94-.126-1.376a26.911 26.911 0 0 1-.013-1.227c.005-.382.077-.722.215-1.02.138-.298.3-.537.487-.718.187-.181.394-.292.621-.332.228-.04.457.003.688.13.232.125.453.389.664.79.212.403.39.911.532 1.526.144.616.258 1.267.344 1.956.085.689.14 1.373.164 2.054.024.68-.003 1.343-.08 1.988a8.59 8.59 0 0 1-.43 1.853 11.766 11.766 0 0 1-2.016 3.53 9.84 9.84 0 0 1-1.318 1.34c-.42.342-.807.578-1.16.706-.352.128-.661.181-.927.158a.623.623 0 0 1-.556-.394c-.105-.24-.141-.552-.11-.936.033-.384.17-.754.41-1.109.24-.355.503-.601.786-.739.284-.137.58-.155.89-.053.31.102.614.339.911.709.297.37.612.754.944 1.15.331.398.687.746 1.066 1.045.379.3.782.54 1.208.72.426.182.848.31 1.266.386.417.075.813.12 1.187.136.546.022 1.134-.214 1.764-.707M297.261 391.612c-.18.427-.283.869-.309 1.325-.025.44.246 1.147.814 2.12M302.755 386.416c-.318-.32-.556-.797-.712-1.433-.157-.635-.248-1.186-.272-1.652a5.175 5.175 0 0 1 .11-1.374c.097-.45.274-.827.53-1.131a1.84 1.84 0 0 1 .938-.61c.37-.101.732-.068 1.086.101.354.17.621.497.8.982.18.485.287 1.033.32 1.644.033.61.047 1.137.042 1.58-.005.442-.037.765-.095.969-.058.203-.106.33-.142.379l-.062.084c-.005.007.005.004.03-.007.024-.011.13-.06.32-.144.188-.085.469-.142.843-.172s.791-.008 1.253.068c.461.076.928.229 1.4.459.472.23.9.537 1.285.92.384.383.661.86.83 1.431.17.572.24 1.225.213 1.96a6.035 6.035 0 0 1-.508 2.184 9.622 9.622 0 0 1-1.259 2.098c-.767.984-2.244 1.73-4.433 2.24M315.12 377.893c.03-.15.136-.228.316-.233.18-.006.425.07.732.23.307.159.685.444 1.133.855.448.412.928.966 1.441 1.662s1.004 1.523 1.472 2.479c.469.956.83 1.918 1.086 2.885.256.967.41 2.046.465 3.236.054 1.191-.006 2.39-.18 3.596a17.02 17.02 0 0 1-.88 3.484c-.601 1.624-2.092 3.171-4.472 4.64M331.642 388.61c1.187-.073 2.239-.034 3.157.117.899.147 2.484.403 4.754.766M341.506 384.444l-.507.062c-.04.005-.025.026.043.063l.49.265c.259.14.585.336.98.589.395.252.81.539 1.244.859.435.32.826.674 1.173 1.06.347.385.605.802.776 1.25.17.448.268.922.294 1.42.025.5-.08.997-.314 1.494-.235.496-.53.935-.887 1.317-.523.56-1.275.981-2.258 1.262M363.21 378.372c-.03-.31-.205-.484-.525-.52a1.746 1.746 0 0 0-.946.16c-.31.143-.684.377-1.118.702-.435.324-.94.791-1.517 1.4a11.834 11.834 0 0 0-1.599 2.17c-.49.838-.922 1.804-1.295 2.896-.372 1.093-.613 2.389-.722 3.888a19.38 19.38 0 0 0 .22 4.57 20.335 20.335 0 0 0 1.264 4.455c.86 2.082 2.654 4.04 5.386 5.875M372.162 384.88c.137-.168.212-.426.227-.773a1.51 1.51 0 0 0-.06-.554 1.228 1.228 0 0 0-.277-.427 1.613 1.613 0 0 0-.516-.357 2.077 2.077 0 0 0-.634-.177c-.214-.024-.57.028-1.066.155a5.049 5.049 0 0 0-1.49.676c-.498.323-.977.684-1.437 1.083-.46.399-.875.83-1.245 1.295-.37.465-.7.984-.99 1.557a8.117 8.117 0 0 0-.671 1.96 10.402 10.402 0 0 0-.238 2.183c0 .721.15 1.416.452 2.086.302.67.738 1.349 1.307 2.035a8.088 8.088 0 0 0 1.958 1.717c.735.458 1.481.692 2.238.702.757.01 1.48-.233 2.168-.73a8.649 8.649 0 0 0 1.804-1.748 8.437 8.437 0 0 0 1.24-2.293c.31-.859.507-1.785.589-2.778.082-.993.066-1.878-.048-2.654s-.329-1.375-.644-1.8c-.45-.605-1.166-.713-2.146-.322M380.866 393.565c.118.352.07 2.32-.147 5.902M393.893 384.724c.215 0 .363-.11.444-.331.08-.22.126-.444.136-.67a1.69 1.69 0 0 0-.07-.601.624.624 0 0 0-.363-.384c-.185-.083-.442-.131-.771-.146a3.213 3.213 0 0 0-1.082.16 5.448 5.448 0 0 0-2.454 1.594c-.402.442-.763 1.006-1.085 1.691a12.7 12.7 0 0 0-.81 2.364c-.22.89-.35 1.88-.395 2.97-.044 1.09.065 2.143.327 3.16.262 1.015.655 1.823 1.178 2.422.523.599 1.088.971 1.695 1.118a2.649 2.649 0 0 0 1.79-.192c.587-.274 1.118-.756 1.594-1.446.475-.69.853-1.49 1.13-2.402.28-.911.45-1.744.513-2.498.064-.753.055-1.424-.025-2.01a5.072 5.072 0 0 0-.455-1.562c-.328-.667-.853-1.447-1.574-2.34M400.807 381.654c.187.013.41.095.673.247.262.152.597.409 1.005.77.408.361.797.884 1.169 1.569.372.685.662 1.522.873 2.511.21.99.332 2.013.367 3.07a14.022 14.022 0 0 1-.3 3.29 18.477 18.477 0 0 1-.935 3.16c-.57 1.421-1.711 3.017-3.422 4.787M413.29 390.78c2.285.004 4.151.035 5.598.093M420.708 385.996c-.08.173-.022.283.173.328.196.045.472.142.83.29.356.149.711.363 1.064.644.353.28.637.608.852.982.215.374.362.75.441 1.125.08.376.109.762.088 1.16-.021.398-.155.793-.401 1.186-.356.569-1.207 1.44-2.553 2.615M440.507 380.23c.159-.318.041-.465-.353-.439-.289.019-.812.182-1.569.49-.756.309-1.442.628-2.057.958-.614.33-1.222.718-1.822 1.161-.601.444-1.155.998-1.663 1.662-.508.664-.935 1.49-1.28 2.477-.347.987-.566 2.071-.658 3.251-.092 1.18-.068 2.463.074 3.848.142 1.385.422 2.625.84 3.722.608 1.597 2.068 3.07 4.378 4.42M449.241 384.919c-.158-.078-.385-.282-.68-.615a1.856 1.856 0 0 0-.553-.446 2.313 2.313 0 0 0-.703-.192 4.47 4.47 0 0 0-1.022.002c-.396.04-.816.202-1.26.487-.443.285-.884.73-1.324 1.335-.44.604-.811 1.322-1.114 2.154a9.438 9.438 0 0 0-.544 2.657c-.06.941.044 1.919.312 2.934.267 1.015.688 1.858 1.262 2.53.575.67 1.251 1.083 2.03 1.237.778.154 1.555-.018 2.332-.514.776-.496 1.441-1.244 1.994-2.245.552-1.001.935-1.951 1.148-2.85.213-.9.312-1.7.298-2.403a4.318 4.318 0 0 0-.456-1.905c-.424-.828-1.232-1.687-2.423-2.575M455.528 393.01c-.012 2.319 0 4.469.036 6.45M462.234 385.758c0 .574.05 1.103.15 1.587.066.326.129.71.186 1.154.058.443.1 1.032.128 1.768.04 1.061-.13 3.1-.51 6.116M468.689 382.452c.928 1.401 1.516 2.372 1.763 2.91.171.374.392 1.026.662 1.956.27.93.432 1.863.488 2.798.056.935-.01 1.85-.2 2.743-.19.894-.632 2.11-1.328 3.646-1.02 2.252-2.875 4.836-5.567 7.751" style="fill:none;stroke:#f59a23;stroke-width:1.8189;stroke-linecap:round;stroke-linejoin:round;stroke-miterlimit:10;stroke-dasharray:none;stroke-opacity:1" transform="matrix(.72727 0 0 .72727 -113.406 -64.948)"/></svg>