<svg xmlns="http://www.w3.org/2000/svg" width="212.98" height="161.349"><path d="M242.85 185.994a1.828 1.828 0 0 0-.9-.5 2.829 2.829 0 0 0-.955-.072c-.287.033-.695.273-1.223.72-.528.446-1.14 1.14-1.834 2.083a35.948 35.948 0 0 0-2.126 3.28c-.723 1.245-1.35 2.69-1.883 4.337a30.234 30.234 0 0 0-1.168 5.04c-.245 1.713-.344 3.594-.296 5.642.048 2.048.306 4.135.774 6.26s.974 3.891 1.52 5.3c.791 2.038 3.076 4.53 6.856 7.476" style="fill:none;stroke:#fcfcfc;stroke-width:1.8189;stroke-linecap:round;stroke-linejoin:round;stroke-miterlimit:10;stroke-dasharray:none;stroke-opacity:1" transform="matrix(.72727 0 0 .72727 -148.105 -132.64)"/><path d="M260.711 199.49a19.052 19.052 0 0 1-.786-1.726c-.17-.424-.349-.928-.537-1.513a89.995 89.995 0 0 0-.597-1.795 99.467 99.467 0 0 1-.613-1.838 17.135 17.135 0 0 0-1.144-2.708M255.239 183.29c-.073.442.034 1.085.323 1.927.185.54.418 1.178.699 1.912.28.734.594 1.523.94 2.366.346.843.712 1.71 1.099 2.6.57 1.313 1.242 2.94 2.016 4.884M260.566 195.478c-.028-1.784-.014-3.49.043-5.118.038-1.09.126-2.105.264-3.044M261.74 186.178c-.097.794-.149 1.599-.156 2.415-.005.543.021 1.114.076 1.713.055.598.13 1.222.225 1.87.138.94.319 2.577.542 4.909M262.74 194.877c.236-1.577.457-2.813.662-3.71.205-.894.583-2.19 1.134-3.887M265.444 185.365c-.339 1.963-.526 3.523-.56 4.68-.024.79-.037 2.21-.04 4.26-.003 2.05-.189 3.867-.559 5.454" style="fill:none;stroke:#7ec636;stroke-width:1.8189;stroke-linecap:round;stroke-linejoin:round;stroke-miterlimit:10;stroke-dasharray:none;stroke-opacity:1" transform="matrix(.72727 0 0 .72727 -148.105 -132.64)"/><path d="M264.007 199.827a29.02 29.02 0 0 1 .421-2.437c.179-.837.737-2.483 1.675-4.938M269.307 187.05c-.365.935-.77 2.111-1.215 3.53-.446 1.419-.857 2.588-1.232 3.507a32.949 32.949 0 0 1-1.839 3.818" style="fill:none;stroke:#7ec636;stroke-width:1.8189;stroke-linecap:round;stroke-linejoin:round;stroke-miterlimit:10;stroke-dasharray:none;stroke-opacity:1" transform="matrix(.72727 0 0 .72727 -148.105 -132.64)"/><path d="M263.938 199.166c.21-.668.44-1.312.689-1.931.167-.415.404-.887.71-1.418.307-.531.684-1.1 1.13-1.705.648-.876 1.887-2.305 3.718-4.286M273.134 186.837c-.91 1.985-1.591 3.38-2.045 4.184-.313.554-.72 1.222-1.223 2.002-.726 1.126-2.079 3.463-4.059 7.012" style="fill:none;stroke:#7ec636;stroke-width:1.8189;stroke-linecap:round;stroke-linejoin:round;stroke-miterlimit:10;stroke-dasharray:none;stroke-opacity:1" transform="matrix(.72727 0 0 .72727 -148.105 -132.64)"/><path d="M284.851 185.045c.375.222.936.942 1.682 2.157.457.744.93 1.65 1.42 2.72.489 1.07.93 2.396 1.322 3.98s.649 3.384.77 5.4c.12 2.017.054 4.194-.196 6.534s-.773 4.754-1.568 7.244a80.397 80.397 0 0 1-2.506 6.84 61.885 61.885 0 0 1-4.724 9.006M311.92 202.457c3.09.048 5.048.086 5.87.113.847.027 1.81.162 2.89.403M310.981 210.61c1.476.079 3.85.268 7.12.566" style="fill:none;stroke:#fcfcfc;stroke-width:1.8189;stroke-linecap:round;stroke-linejoin:round;stroke-miterlimit:10;stroke-dasharray:none;stroke-opacity:1" transform="matrix(.72727 0 0 .72727 -148.105 -132.64)"/><path d="M342.646 202.491c-.106.846-.104 1.803.006 2.872.072.703.175 1.452.308 2.248.133.795.252 1.6.357 2.413.105.814.181 1.642.228 2.483.047.842.068 1.805.065 2.89-.003 1.084-.023 1.67-.057 1.76l-.072.185c-.013.032-.028-.07-.044-.307l-.092-1.327a36.281 36.281 0 0 1-.071-2.327c-.003-.903.045-1.794.145-2.672.1-.877.313-1.754.639-2.63.325-.878.7-1.668 1.123-2.371.423-.704.827-1.227 1.213-1.57.386-.342.725-.525 1.017-.55.293-.025.522.21.688.706.166.495.324 1.696.474 3.602.15 1.906.266 3.377.345 4.412.08 1.035.188 2.047.323 3.037.136.99.324 1.802.564 2.435.24.633.47 1.05.693 1.25.223.199.508.227.857.083.498-.204.994-1.275 1.49-3.213M359.242 208.298c.14-.673.048-1.112-.275-1.318-.226-.144-.555-.254-.988-.33-.433-.075-.793-.09-1.08-.046-.285.044-.588.226-.906.547-.32.322-.622.766-.907 1.332a6.385 6.385 0 0 0-.593 1.818 9.327 9.327 0 0 0-.127 1.934c.025.644.184 1.238.477 1.782.293.545.648.958 1.065 1.24.418.281.833.441 1.246.479.413.038.971-.195 1.674-.699a8.398 8.398 0 0 0 1.774-1.687c.7-.907 1.429-2.372 2.189-4.398" style="fill:none;stroke:#007aff;stroke-width:1.8189;stroke-linecap:round;stroke-linejoin:round;stroke-miterlimit:10;stroke-dasharray:none;stroke-opacity:1" transform="matrix(.72727 0 0 .72727 -111.693 -134.792)"/><path d="M361.267 207.63c-.26 2.017-.198 3.598.184 4.743.379 1.137 1.49 2.275 3.334 3.412M366.671 210.104c.627-.912 1.105-1.8 1.436-2.66.222-.58.547-1.622.975-3.125a79.074 79.074 0 0 0 1.035-3.983 45.63 45.63 0 0 0 .651-3.462c.171-1.157.274-2.133.308-2.927.035-.794-.006-1.39-.12-1.788-.113-.398-.289-.63-.526-.697-.238-.067-.486.032-.744.297-.259.266-.473.679-.644 1.24-.171.56-.275 1.259-.311 2.094a70.52 70.52 0 0 0-.06 2.792c-.004 1.026.008 2.084.035 3.174.028 1.09.075 2.247.142 3.471.066 1.225.14 2.414.219 3.569.079 1.154.177 2.156.294 3.006.116.85.248 1.571.394 2.164.146.592.286 1.026.42 1.303.134.277.261.397.381.36.12-.035.255-.323.403-.86.149-.539.353-1.216.613-2.031.26-.816.626-1.717 1.095-2.704.47-.987.987-1.866 1.55-2.635.563-.769 1.054-1.255 1.474-1.458.419-.204.7-.112.841.276.142.388.211 1.095.206 2.12a634.448 634.448 0 0 0-.008 3.093c0 1.035.144 1.954.434 2.755.29.801.699 1.428 1.225 1.879.526.451 1.105.713 1.738.785.91.104 2.108-.622 3.596-2.177" style="fill:none;stroke:#007aff;stroke-width:1.8189;stroke-linecap:round;stroke-linejoin:round;stroke-miterlimit:10;stroke-dasharray:none;stroke-opacity:1" transform="matrix(.72727 0 0 .72727 -111.693 -134.792)"/><path d="M240.496 287.22c-.065-.39-.194-.66-.388-.809-.133-.102-.46-.16-.98-.173a3.463 3.463 0 0 0-1.567.347c-.525.245-1.102.63-1.733 1.153-.63.524-1.295 1.338-1.994 2.441-.699 1.104-1.377 2.503-2.036 4.198-.659 1.694-1.152 3.673-1.48 5.935a29.586 29.586 0 0 0-.229 6.656c.177 2.176.636 4.228 1.38 6.158 1.095 2.845 3.126 5.351 6.092 7.52" style="fill:none;stroke:#fcfcfc;stroke-width:1.8189;stroke-linecap:round;stroke-linejoin:round;stroke-miterlimit:10;stroke-dasharray:none;stroke-opacity:1" transform="matrix(.72727 0 0 .72727 -146.766 -79.527)"/><path d="m255.93 315.031-.141.17c-.017.02-.024-.024-.023-.132l.006-.549c.003-.256.046-.617.128-1.083.081-.466.163-1.03.243-1.693.081-.662.226-1.753.435-3.272s.342-2.637.399-3.356c.057-.719.093-1.463.108-2.232.016-.77-.022-1.157-.113-1.162-.092-.005-.21.191-.353.59a9.38 9.38 0 0 0-.375 1.458c-.106.574-.2 1.18-.284 1.818a44.936 44.936 0 0 0-.217 2.071 62.703 62.703 0 0 0-.18 6.681c.018.593.055 1.13.112 1.61l.091.77c.004.033.006.018.007-.046l.018-1.51c.011-.942.05-2.363.117-4.263s.11-3.325.132-4.274c.02-.95.033-1.922.035-2.917.002-.995-.075-1.455-.233-1.379-.157.076-.304.371-.442.886s-.25 1.093-.337 1.733c-.086.64-.139 1.688-.158 3.142-.019 1.455-.014 2.904.013 4.348a266.6 266.6 0 0 1 .042 2.63l.002.489v.004l-.001-.106-.027-2.526c-.017-1.6-.026-2.861-.027-3.785a90.939 90.939 0 0 1 .166-5.577l.09-1.483c.004-.066-.001-.07-.015-.014l-.317 1.273a25.035 25.035 0 0 0-.713 4.705c-.047.811-.074 1.7-.078 2.668-.005.968.01 1.872.046 2.713.036.84.078 1.484.126 1.93.049.446.087.715.115.809l.049.163c.005.015.004-.09-.003-.317-.006-.226-.03-1.045-.068-2.457a150.38 150.38 0 0 1-.063-3.627c-.003-1.007.053-2.308.168-3.904.115-1.597.175-2.522.179-2.778l.008-.43c0-.03-.008-.008-.026.067l-.246 1.04a16.038 16.038 0 0 0-.336 2.121c-.078.798-.121 1.649-.129 2.552-.008.904.006 1.823.042 2.757.035.933.113 1.714.234 2.342.121.628.242 1.077.363 1.348.12.27.237.43.35.476.112.046.233-.142.361-.563.129-.42.263-1.087.404-2 .141-.913.268-1.9.38-2.96.112-1.061.252-2.07.419-3.028.167-.957.308-1.724.422-2.3a31.796 31.796 0 0 1 .416-1.846c.006-.023.008-.028.008-.013l-.013.316c-.008.197-.076.663-.205 1.4a25.116 25.116 0 0 0-.293 2.398c-.066.862-.103 2.255-.11 4.177-.007 1.922.034 3.194.123 3.816.09.622.185 1.014.286 1.176.1.16.196.109.287-.157.091-.265.174-.882.247-1.851.073-.97.131-2.01.175-3.121.043-1.111.205-2.737.486-4.877l.358-2.875-.01.039-.36 1.867a53.578 53.578 0 0 0-.461 2.727 23.593 23.593 0 0 0-.215 2.375c-.029.76-.04 1.365-.035 1.812.006.447.045.72.118.82.074.099.164-.005.271-.312.108-.307.217-.856.328-1.646.111-.791.209-1.625.292-2.503.084-.877.18-1.731.286-2.562a25.6 25.6 0 0 1 .326-2.022c.11-.518.188-.846.23-.982l.071-.227c.005-.014.006-.008.005.02 0 .029-.007.176-.018.441-.011.266-.086.807-.223 1.623-.138.817-.26 1.683-.365 2.598a32.33 32.33 0 0 0-.2 2.665 81.7 81.7 0 0 0-.046 2.033c-.003.494.032.798.105.912.072.113.175-.006.308-.358s.256-.93.37-1.735c.113-.805.261-2.45.443-4.934l.287-3.924.008-.135-.004.028-.205 1.795a68.398 68.398 0 0 0-.293 3.173 99.368 99.368 0 0 0-.2 5.615c-.003.719-.001 1.173.006 1.363l.012.312c0 .018.005.008.013-.03l.135-.662c.083-.404.151-1.095.205-2.072.054-.977.09-1.99.105-3.04a64.676 64.676 0 0 0-.202-6.227l-.153-1.893c-.02-.256-.037-.375-.05-.357l-.098.133c-.053.07-.164.541-.335 1.41-.17.87-.333 1.924-.486 3.162a74.526 74.526 0 0 0-.376 3.89 59.84 59.84 0 0 0-.159 3.706c-.01 1.115.007 1.9.052 2.355.043.456.113.643.21.562.096-.08.185-.497.267-1.25.082-.751.141-1.663.177-2.733.036-1.07.06-2.108.072-3.113a280.973 280.973 0 0 0 .01-5.646c-.009-.692-.041-1.132-.098-1.32-.056-.187-.168-.023-.336.493-.168.515-.35 1.294-.549 2.334a34.054 34.054 0 0 0-.448 3.157c-.101 1.064-.17 2.157-.208 3.277-.038 1.121-.059 2.05-.063 2.786-.004.736.027 1.214.09 1.433.064.22.144.2.24-.058s.17-.84.225-1.746c.055-.906.085-2.512.09-4.817.007-2.306.032-4.231.078-5.776l.074-2.52c.004-.136-.002-.174-.018-.115l-.31 1.1c-.19.674-.396 1.587-.618 2.739a30.109 30.109 0 0 0-.457 3.355 54.197 54.197 0 0 0-.155 3.19c-.019 1.04-.006 1.853.039 2.438.045.584.11.937.196 1.06.085.122.164-.083.237-.615.073-.531.117-1.318.133-2.358.015-1.04.02-2.106.013-3.198-.007-1.091-.04-2.48-.1-4.167-.06-1.687-.123-2.61-.19-2.769-.066-.159-.197.03-.394.568-.196.538-.385 1.386-.567 2.546a35.25 35.25 0 0 0-.37 3.435 93.48 93.48 0 0 0-.134 3.25 138.413 138.413 0 0 0-.039 2.444c-.002.593.007.812.028.656l.154-1.171c.082-.625.15-1.516.202-2.674.052-1.159.099-2.353.14-3.584.042-1.231.065-2.366.069-3.405a32.959 32.959 0 0 0-.06-2.445c-.045-.592-.11-.954-.198-1.087-.088-.133-.236.134-.443.801-.207.667-.38 1.64-.518 2.922-.138 1.281-.214 3.061-.23 5.341-.015 2.28.014 3.712.086 4.298.073.585.163.92.27 1.007.108.085.226-.262.354-1.042.128-.78.23-1.748.304-2.903.075-1.155.125-2.316.152-3.483.027-1.166.041-2.42.044-3.762l.004-2.119-.002-.062-.005.03-.15 1.476c-.096.935-.152 1.97-.171 3.109-.019 1.137-.025 2.28-.018 3.428a32.57 32.57 0 0 0 .162 3.17c.1.966.21 1.615.33 1.947.118.331.26.32.426-.036.165-.356.325-1.068.478-2.138.153-1.069.318-2.195.496-3.38.177-1.183.352-2.301.523-3.354a73.59 73.59 0 0 0 .391-2.662c.09-.72.144-1.206.163-1.455l.03-.394v-.004l-.01.061c-.006.052-.074.549-.201 1.491a34.684 34.684 0 0 0-.266 3.064c-.05 1.1-.077 2.15-.082 3.148-.005.998.028 1.846.1 2.544.072.698.18 1.132.324 1.301.144.17.318-.05.522-.66.204-.608.38-1.442.526-2.5.146-1.057.245-2.204.296-3.441.05-1.238.066-2.344.045-3.321-.02-.977-.078-1.726-.171-2.25-.094-.523-.172-.842-.235-.957-.063-.115-.175.044-.337.476-.162.431-.314 1.059-.456 1.881a24.704 24.704 0 0 0-.302 2.756 57.76 57.76 0 0 0-.097 3.007c-.006.99.035 1.834.124 2.53.09.698.188 1.136.298 1.315.109.178.241 0 .397-.536.156-.536.305-1.328.447-2.377.141-1.049.247-2.134.316-3.255a89.739 89.739 0 0 0 .18-4.802c.002-.41-.01-.565-.037-.464l-.205.758c-.11.404-.212 1.005-.306 1.804a69.64 69.64 0 0 0-.248 2.516 78.094 78.094 0 0 1-.243 2.508c-.09.794-.17 1.375-.241 1.744-.071.369-.113.507-.124.414l-.086-.697c-.046-.372-.079-1.028-.098-1.968-.02-.94-.083-2.343-.191-4.21a157.333 157.333 0 0 0-.211-3.327c-.033-.352-.072-.485-.117-.4l-.335.645c-.179.344-.36.934-.541 1.772a22.999 22.999 0 0 0-.409 2.658c-.09.935-.144 1.778-.159 2.53l-.029 1.44c-.004.21.011.24.046.09l.238-1.028c.124-.536.269-1.75.433-3.643.165-1.893.292-3.176.382-3.848l.143-1.073c.006-.044.004-.05-.006-.02l-.239.762c-.15.477-.305 1.176-.466 2.097-.162.92-.305 1.952-.43 3.095-.125 1.144-.23 2.203-.315 3.178-.085.975-.13 1.63-.137 1.964l-.013.65c-.002.1.022.059.07-.123l.318-1.187c.163-.61.308-1.52.434-2.731a76.268 76.268 0 0 0 .398-6.266c.007-.676 0-1.075-.02-1.196l-.04-.25c-.007-.046-.032-.023-.073.07l-.221.506c-.107.244-.231.872-.372 1.883a29.856 29.856 0 0 0-.26 3.246 124.947 124.947 0 0 0-.056 3.152c-.003.949.037 1.66.12 2.137.083.475.2.705.354.689.153-.017.328-.302.525-.856.286-.805.57-2.083.849-3.832" style="fill:none;stroke:#f59a23;stroke-width:1.8189;stroke-linecap:round;stroke-linejoin:round;stroke-miterlimit:10;stroke-dasharray:none;stroke-opacity:1" transform="matrix(.72727 0 0 .72727 -146.766 -79.527)"/><path d="M253.753 290.778c.015 1.244.193 2.28.533 3.108.231.562.442 1.008.632 1.336.282.486.665 1.006 1.15 1.56M255.222 290.567c.24 1.32.472 2.307.696 2.96.153.447.316.86.487 1.24.171.379.363.733.577 1.061M257.442 290.176c.036 1.003.083 1.88.139 2.632.038.508.109 1.059.213 1.654s.216 1.09.335 1.485c.119.396.326.697.62.904M260 292.418c-.21.641-.4 1.485-.57 2.53-.11.678-.167 1.053-.17 1.128l-.008.17M261.348 292.01c-.353.708-.641 1.614-.864 2.717-.146.72-.291 1.358-.435 1.912M263.836 291.499c-.042.519-.355 1.41-.939 2.676-.362.785-.734 1.262-1.117 1.43M263.734 294.509c-1.075.886-1.874 1.658-2.395 2.315" style="fill:none;stroke:#7ec636;stroke-width:1.8189;stroke-linecap:round;stroke-linejoin:round;stroke-miterlimit:10;stroke-dasharray:none;stroke-opacity:1" transform="matrix(.72727 0 0 .72727 -146.766 -79.527)"/><path d="m276.319 286.192-.098-.202c-.007-.016.003-.015.031.003l.209.127c.11.067.4.34.869.822.469.48.993 1.193 1.573 2.138.58.944 1.085 2.134 1.514 3.569.43 1.435.712 3.026.846 4.773.135 1.747.055 3.645-.238 5.696-.294 2.05-.81 4.07-1.547 6.06-.738 1.992-1.574 3.788-2.507 5.39-1.384 2.375-3.394 4.352-6.031 5.932" style="fill:none;stroke:#fcfcfc;stroke-width:1.8189;stroke-linecap:round;stroke-linejoin:round;stroke-miterlimit:10;stroke-dasharray:none;stroke-opacity:1" transform="matrix(.72727 0 0 .72727 -146.766 -79.527)"/><path d="M302.106 299.782c1.127.113 3.03.093 5.707-.06M301.68 306.005c-.304.146-.296.35.023.61.234.191.648.36 1.244.508.866.214 2.312.382 4.339.505" style="fill:none;stroke:#fcfcfc;stroke-width:1.8189;stroke-linecap:round;stroke-linejoin:round;stroke-miterlimit:10;stroke-dasharray:none;stroke-opacity:1" transform="matrix(.72727 0 0 .72727 -143.636 -80.009)"/><path d="M335.111 295.222c-.017-.21-.112-.417-.286-.622-.174-.205-.336-.336-.488-.393-.152-.058-.304-.03-.455.083-.152.112-.262.405-.33.88-.07.473-.08 1.077-.034 1.813.047.735.2 1.593.458 2.572.258.98.578 1.92.958 2.825.38.905.823 1.574 1.33 2.009.508.434 1.05.587 1.628.46.578-.128 1.185-.606 1.82-1.435a50.06 50.06 0 0 0 1.8-2.496c.562-.835 1.09-1.58 1.58-2.235.492-.654.898-1.222 1.218-1.704.32-.481.51-.86.57-1.135.06-.276.024-.472-.106-.589-.131-.117-.32-.168-.568-.153-.248.016-.493.16-.735.434s-.457.66-.643 1.157c-.187.498-.303 1.134-.35 1.909a32.317 32.317 0 0 0-.034 2.65c.023.994.22 2.732.59 5.217.37 2.484.651 4.542.845 6.174.195 1.631.36 3.172.497 4.622.137 1.45.221 2.85.254 4.199.033 1.35-.045 2.523-.233 3.518-.19.996-.505 1.852-.949 2.568-.443.715-1 1.204-1.669 1.466-.67.262-1.382.207-2.138-.165s-1.417-1.112-1.98-2.218c-.565-1.106-.889-2.439-.973-4-.084-1.56.023-3.025.322-4.396.438-2.01 1.51-4.335 3.215-6.972M354.675 297.473c.118-.425.093-.722-.076-.89a1.646 1.646 0 0 0-.481-.316 3.46 3.46 0 0 0-1.377-.31c-.26-.005-.52.019-.78.073a1.97 1.97 0 0 0-.77.36c-.252.186-.5.46-.743.823-.242.363-.449.843-.618 1.44a8.973 8.973 0 0 0-.308 2.008c-.036.74.048 1.454.254 2.144.205.69.5 1.274.883 1.75.383.478.825.772 1.327.882.501.11 1.043.017 1.627-.28.583-.296 1.163-.78 1.737-1.453a9.037 9.037 0 0 0 1.425-2.32 16.06 16.06 0 0 0 .876-2.625c.208-.876.328-1.59.36-2.14.03-.55-.034-.883-.195-1-.161-.118-.363.025-.605.43-.243.404-.426.971-.55 1.701a14.84 14.84 0 0 0-.19 2.453c-.002.905.096 1.761.295 2.568.198.808.456 1.46.775 1.957.455.71 1.437.877 2.944.501M366.598 295.212a2.306 2.306 0 0 0-.977-.225c-.233-.003-.484.072-.753.225-.268.154-.52.388-.753.702a3.99 3.99 0 0 0-.524.913c-.115.294-.192.704-.231 1.231-.04.527-.047.994-.023 1.4.023.407.127.725.31.956.185.231.463.372.835.422.373.05.83.078 1.374.083a16.5 16.5 0 0 1 1.59.09c.517.055.95.217 1.301.485.35.268.571.61.662 1.027.09.418.035.891-.165 1.42-.2.53-.545.999-1.037 1.405a4.12 4.12 0 0 1-1.598.834c-.852.222-1.585.135-2.197-.26M377.543 293.813c.15-.282.132-.46-.052-.535-.13-.052-.357-.029-.68.07-.324.1-.639.281-.944.544-.306.263-.591.598-.856 1.005a9.042 9.042 0 0 0-.681 1.243 5.133 5.133 0 0 0-.382 1.185 3.579 3.579 0 0 0-.054.987c.03.29.173.53.43.723.257.192.761.404 1.513.635.752.23 1.282.434 1.591.608.31.175.54.388.69.64.15.254.223.573.219.96-.004.387-.178.826-.522 1.318a6.733 6.733 0 0 1-1.275 1.356c-.74.604-1.407.754-1.998.451" style="fill:none;stroke:#007aff;stroke-width:1.8189;stroke-linecap:round;stroke-linejoin:round;stroke-miterlimit:10;stroke-dasharray:none;stroke-opacity:1" transform="matrix(.72727 0 0 .72727 -109.21 -80.505)"/><path d="M401.959 293.487c.056.365.445 1.002 1.166 1.913.444.56.986 1.167 1.628 1.822a50.14 50.14 0 0 1 2.106 2.304c1.107 1.281 2.9 3.293 5.38 6.034M414.115 304.038l-.205.343c-.014.024-.02.016-.02-.022l.006-.306c.003-.167.124-.686.36-1.558.238-.872.54-1.908.907-3.109.368-1.2.805-2.595 1.314-4.182a58.948 58.948 0 0 1 1.721-4.686c.64-1.537 1.39-3.03 2.253-4.48 1.25-2.103 3.858-5.138 7.823-9.105" style="fill:none;stroke:#7ec636;stroke-width:1.8189;stroke-linecap:round;stroke-linejoin:round;stroke-miterlimit:10;stroke-dasharray:none;stroke-opacity:1" transform="matrix(.72727 0 0 .72727 -109.21 -80.505)"/><path d="M401.819 215.354c.928-1.829 2.059-3.432 3.393-4.81a219.59 219.59 0 0 1 2.639-2.681c.864-.863 1.943-1.93 3.234-3.203 1.91-1.88 4.263-3.936 7.057-6.167" style="fill:none;stroke:#d20000;stroke-width:1.8189;stroke-linecap:round;stroke-linejoin:round;stroke-miterlimit:10;stroke-dasharray:none;stroke-opacity:1" transform="matrix(.72727 0 0 .72727 -111.693 -134.792)"/><path d="M405.268 199.821a69 69 0 0 1 2.184 3.056c.721 1.068 1.498 2.357 2.33 3.867 1.204 2.187 3.56 5.919 7.07 11.196" style="fill:none;stroke:#d20000;stroke-width:1.8189;stroke-linecap:round;stroke-linejoin:round;stroke-miterlimit:10;stroke-dasharray:none;stroke-opacity:1" transform="matrix(.72727 0 0 .72727 -111.693 -134.792)"/><path d="M202.2 319.543c-.123.358-.099.531.073.52.123-.008.331-.168.625-.478.295-.31.628-.757 1.001-1.34.373-.584.746-1.294 1.118-2.131.372-.838.722-1.842 1.05-3.012.327-1.17.63-2.39.907-3.657.279-1.267.522-2.499.731-3.695.21-1.195.36-2.42.454-3.672.094-1.252.113-2.417.058-3.494a16.203 16.203 0 0 0-.483-3.192 27.469 27.469 0 0 0-.986-3.091c-.39-1.01-.79-1.965-1.2-2.863a26.688 26.688 0 0 1-1.083-2.773c-.312-.95-.57-2.049-.774-3.294a30.617 30.617 0 0 1-.378-3.822 39.565 39.565 0 0 1 .03-3.726c.067-1.181.253-2.293.559-3.334.45-1.535 1.412-2.951 2.886-4.25" style="fill:none;stroke:#fcfcfc;stroke-width:1.8189;stroke-linecap:round;stroke-linejoin:round;stroke-miterlimit:10;stroke-dasharray:none;stroke-opacity:1" transform="matrix(.72727 0 0 .72727 -145.456 -131.437)"/><path d="M201.866 301.324a70.926 70.926 0 0 0 3.688-5.535c.622-1.034 1.377-2.283 2.265-3.746 1.304-2.148 3.325-4.65 6.064-7.503" style="fill:none;stroke:#fcfcfc;stroke-width:1.8189;stroke-linecap:round;stroke-linejoin:round;stroke-miterlimit:10;stroke-dasharray:none;stroke-opacity:1" transform="matrix(.72727 0 0 .72727 -145.456 -131.437)"/><path d="M237.894 273.294c-.544-.163-1.114-.157-1.712.017-.599.174-1.073.401-1.423.681-.35.28-.881.891-1.595 1.835-.713.943-1.414 2.263-2.102 3.961s-1.216 3.682-1.583 5.953c-.368 2.27-.552 4.788-.552 7.553 0 2.765.28 5.396.84 7.891.827 3.675 2.946 6.955 6.356 9.842" style="fill:none;stroke:#fcfcfc;stroke-width:1.8189;stroke-linecap:round;stroke-linejoin:round;stroke-miterlimit:10;stroke-dasharray:none;stroke-opacity:1" transform="matrix(.72727 0 0 .72727 -148.105 -132.64)"/><path d="M261.23 306.694c-.05-2.595-.02-4.565.09-5.909.077-.921.13-1.62.162-2.095.032-.475.08-1.563.142-3.263.063-1.7.16-3.388.29-5.065.13-1.678.196-2.677.199-2.998l.004-.508c0-.017-.003-.007-.01.031l-.198 1.127a78.774 78.774 0 0 1-.559 2.803 77.658 77.658 0 0 0-.525 2.608c-.102.584-.177 1.15-.223 1.699a31.524 31.524 0 0 0-.078 2.337 65.505 65.505 0 0 1-.095 3.157 63.756 63.756 0 0 0-.092 3.178c-.003 1.023.028 2.02.095 2.99l.107 1.535.002.018.004-.22v-5.354c0-3.38.023-5.563.07-6.547.046-.983.09-1.703.129-2.158.039-.454.178-1.348.417-2.68.24-1.332.372-2.062.399-2.19l.044-.213" style="fill:none;stroke:#ffce86;stroke-width:1.8189;stroke-linecap:round;stroke-linejoin:round;stroke-miterlimit:10;stroke-dasharray:none;stroke-opacity:1" transform="matrix(.72727 0 0 .72727 -148.105 -132.64)"/><path d="M255.974 275.81c-.146-.199-.216-.226-.21-.08.005.106.134.345.389.717.254.372.557.83.91 1.375.351.544.702 1.18 1.053 1.904.513 1.058 1.163 2.638 1.953 4.741M259.158 274.532c.017 1.12.151 2.344.402 3.673.25 1.328.417 2.153.5 2.474.12.469.378 1.133.775 1.994M262.767 275.418c-.207.596-.358 1.2-.45 1.81-.063.41-.111 1.152-.146 2.228-.052 1.668-.066 3.016-.04 4.044M265.244 275.788a4.583 4.583 0 0 0-.627 1.25 7.294 7.294 0 0 0-.24 1.035c-.066.393-.145 1.107-.237 2.141-.158 1.759-.15 2.781.025 3.069" style="fill:none;stroke:#7ec636;stroke-width:1.8189;stroke-linecap:round;stroke-linejoin:round;stroke-miterlimit:10;stroke-dasharray:none;stroke-opacity:1" transform="matrix(.72727 0 0 .72727 -148.105 -132.64)"/><path d="M269.37 277.774a28.285 28.285 0 0 0-1.946 1.587 16.98 16.98 0 0 0-1.23 1.227c-.413.453-.78.873-1.103 1.263-.323.39-.586.749-.789 1.079a2.586 2.586 0 0 0-.389 1.584M270.31 278.613c-.332.086-.7.29-1.1.612-.261.21-.555.497-.88.862-.324.365-.734.93-1.228 1.694-.493.765-.838 1.292-1.034 1.583-.29.429-.506.99-.652 1.684" style="fill:none;stroke:#7ec636;stroke-width:1.8189;stroke-linecap:round;stroke-linejoin:round;stroke-miterlimit:10;stroke-dasharray:none;stroke-opacity:1" transform="matrix(.72727 0 0 .72727 -148.105 -132.64)"/><path d="M263.531 202.211c.115.745.122 1.518.022 2.32-.067.533-.14 1.363-.221 2.488-.08 1.125-.142 1.956-.183 2.49-.041.536-.063 1.877-.064 4.026 0 2.149-.071 3.521-.211 4.118-.14.596-.246 1.134-.318 1.614-.072.48-.113.892-.124 1.236l-.016.542v.009l.002-.036c0-.036.016-.394.045-1.074.028-.68.047-1.515.056-2.505.01-.99.049-1.82.118-2.49.068-.67.104-1.88.108-3.631.003-1.752.014-2.954.033-3.607.02-.653.029-1.228.029-1.725 0-.497.029-.966.086-1.407.057-.441.136-.81.235-1.109.15-.454.345-.789.58-1.004" style="fill:none;stroke:#fcfcfc;stroke-width:1.8189;stroke-linecap:round;stroke-linejoin:round;stroke-miterlimit:10;stroke-dasharray:none;stroke-opacity:1" transform="matrix(.72727 0 0 .72727 -148.105 -132.64)"/><path d="m259.848 293.227.391.875" style="fill:none;stroke:#ffe2b7;stroke-width:1.8189;stroke-linecap:round;stroke-linejoin:round;stroke-miterlimit:10;stroke-dasharray:none;stroke-opacity:1" transform="matrix(.72727 0 0 .72727 -148.105 -132.64)"/><path d="M262.721 289.333c-.142-.176-.303-.043-.482.4-.18.442-.365 1.036-.557 1.78a99.34 99.34 0 0 1-.549 2.041c-.172.616-.294 1.12-.365 1.515-.071.395-.13.976-.176 1.744-.046.769-.095 1.553-.147 2.354-.052.8-.102 1.62-.151 2.456-.049.837-.188 1.797-.418 2.88-.23 1.084-.365 1.514-.407 1.291-.042-.222-.06-.915-.053-2.078.007-1.163.082-2.286.225-3.37.144-1.084.247-1.897.308-2.44.061-.542.143-1.67.247-3.386.103-1.715.174-2.743.213-3.084.04-.341.169-.945.39-1.811.22-.866.367-1.383.44-1.55l.127-.29c.011-.025.016-.024.016.003l-.01.306c-.004.177-.112.603-.323 1.278-.21.674-.372 1.248-.484 1.72a21.37 21.37 0 0 0-.307 1.58 21.375 21.375 0 0 0-.206 1.831 52.998 52.998 0 0 0-.1 1.868c-.023.607-.073 1.514-.151 2.722a75.495 75.495 0 0 1-.207 2.665c-.06.569-.123 1.067-.191 1.495-.068.428-.145.827-.23 1.196-.086.369-.13.41-.133.125l-.022-2.146a130.654 130.654 0 0 1 0-2.965c.01-.833.034-1.517.071-2.053.038-.537.082-1.346.132-2.428.051-1.081.1-1.887.148-2.417.048-.53.11-1.029.188-1.498.077-.469.156-.863.236-1.181.08-.32.152-.557.214-.712l.116-.289c.015-.037.026 0 .034.108l.061.847c.033.455.05 1.017.053 1.684.002.667-.026 1.779-.084 3.337-.058 1.558-.089 3.81-.092 6.754-.003 2.945.003 4.478.019 4.6l.029.216c.003.023.018-.042.047-.195l.272-1.454c.152-.816.284-1.578.393-2.285.11-.707.211-1.472.303-2.295a102.894 102.894 0 0 1 .702-5.09c.14-.848.323-1.903.548-3.165a95.717 95.717 0 0 1 .75-3.822l.003-.022-.008.034-.28 1.22a24.79 24.79 0 0 0-.379 1.93c-.074.514-.197 1.59-.368 3.226a421.173 421.173 0 0 1-.376 3.503c-.08.698-.156 1.44-.228 2.225a41.105 41.105 0 0 0-.147 2.29c-.027.74-.041 1.54-.044 2.4l-.004 1.453c0 .11.005.138.016.086l.143-.695c.085-.41.192-1.294.32-2.65.13-1.357.255-2.842.377-4.456.122-1.614.218-2.825.288-3.632.07-.807.161-1.765.273-2.872.113-1.108.176-1.764.192-1.968l.025-.323v-.003l-.01.06c-.007.05-.08.52-.214 1.413a52.146 52.146 0 0 0-.311 2.374c-.072.689-.138 1.453-.199 2.292-.06.838-.103 1.747-.129 2.727-.036 1.434-.03 3.412.02 5.934" style="fill:none;stroke:#ffce86;stroke-width:1.8189;stroke-linecap:round;stroke-linejoin:round;stroke-miterlimit:10;stroke-dasharray:none;stroke-opacity:1" transform="matrix(.72727 0 0 .72727 -148.105 -132.64)"/><path d="M283.64 273.695c-.192-.5-.11-.721.247-.665.257.04.64.34 1.15.9.508.561 1.088 1.35 1.738 2.366.65 1.016 1.289 2.227 1.915 3.633.626 1.405 1.202 2.985 1.728 4.739.525 1.753.895 3.714 1.11 5.884.215 2.169.101 4.471-.34 6.908-.442 2.436-1.16 4.9-2.153 7.39-1.456 3.65-4.32 7.595-8.59 11.833M312.61 292.17l-.219.106c-.014.007.043.013.172.016l1.048.031c.57.017 1.115.053 1.636.109.753.08 2.034.483 3.843 1.208M308.984 300.673c1.168.11 2.182.158 3.042.147a18.221 18.221 0 0 0 2.116-.176c1.205-.16 3.094-.3 5.668-.42" style="fill:none;stroke:#fcfcfc;stroke-width:1.8189;stroke-linecap:round;stroke-linejoin:round;stroke-miterlimit:10;stroke-dasharray:none;stroke-opacity:1" transform="matrix(.72727 0 0 .72727 -148.105 -132.64)"/><path d="M346.485 283.263c.01-.756.004-1.24-.02-1.452-.018-.148-.091-.324-.22-.53a2.694 2.694 0 0 0-1.351-1.077 4.16 4.16 0 0 0-1.198-.237c-.466-.032-1.008.054-1.626.26-.619.204-1.298.58-2.039 1.127-.74.547-1.433 1.287-2.079 2.22a13.723 13.723 0 0 0-1.58 3.05c-.409 1.1-.679 2.401-.811 3.905a26.162 26.162 0 0 0-.027 4.399c.115 1.428.394 2.703.839 3.824.444 1.12 1.03 2.017 1.754 2.691.725.674 1.541 1.085 2.448 1.234.907.15 1.821.032 2.744-.352.923-.383 1.766-.957 2.53-1.72.765-.763 1.39-1.717 1.873-2.863.484-1.145.809-2.535.975-4.172.165-1.636.174-3.13.027-4.48-.148-1.351-.455-2.493-.923-3.425-.467-.932-.95-1.653-1.449-2.164-.73-.748-1.477-1.002-2.24-.76M374.619 281.151c-.691-.203-1.956-.323-3.793-.358a70.497 70.497 0 0 1-2.664-.09 10.315 10.315 0 0 1-1.686-.226 5.763 5.763 0 0 1-1.28-.44c-.365-.182-.444.16-.24 1.026.204.866.376 1.628.516 2.288.139.659.261 1.312.367 1.959.106.647.233 1.504.382 2.573.15 1.07.174 1.643.075 1.721-.1.079-.168-.018-.205-.29-.038-.272.006-.49.131-.65.126-.162.336-.283.63-.363.294-.08.67-.12 1.125-.118.456.002.952.116 1.486.342.534.225 1.04.558 1.518.998.478.44.878.986 1.198 1.637.321.65.552 1.37.693 2.16.141.79.205 1.56.191 2.31a4.59 4.59 0 0 1-.58 2.145 6.438 6.438 0 0 1-1.539 1.845 5.99 5.99 0 0 1-2.221 1.178c-.827.237-1.549.33-2.165.28-.876-.07-1.342-.724-1.397-1.96" style="fill:none;stroke:#007aff;stroke-width:1.8189;stroke-linecap:round;stroke-linejoin:round;stroke-miterlimit:10;stroke-dasharray:none;stroke-opacity:1" transform="matrix(.72727 0 0 .72727 -148.105 -132.64)"/><path d="M381.822 302.593c.534.651.876 1.105 1.025 1.36.104.178.192.394.264.648.072.255.126.607.16 1.058.036.452.032.94-.01 1.465-.04.525-.299 1.294-.775 2.306-.702 1.496-1.833 2.947-3.392 4.353" style="fill:none;stroke:#fcfcfc;stroke-width:1.8189;stroke-linecap:round;stroke-linejoin:round;stroke-miterlimit:10;stroke-dasharray:none;stroke-opacity:1" transform="matrix(.72727 0 0 .72727 -148.105 -132.64)"/><path d="M411.75 293.775c-.041-.332-.187-.686-.438-1.06a4.105 4.105 0 0 0-.536-.653 2.443 2.443 0 0 0-.71-.473 2.825 2.825 0 0 0-1.009-.225c-.39-.023-.814.106-1.269.385-.455.28-.89.723-1.308 1.33a9.217 9.217 0 0 0-1.043 2.048 7.862 7.862 0 0 0-.485 2.23c-.044.73.04 1.416.253 2.06.213.644.524 1.161.934 1.55.41.39.893.627 1.45.712.557.085 1.15-.05 1.777-.404.628-.355 1.217-.862 1.769-1.521a10.176 10.176 0 0 0 1.357-2.082 10.13 10.13 0 0 0 .789-2.275c.172-.788.27-1.511.296-2.17.026-.657-.005-1.151-.092-1.481-.087-.33-.22-.529-.402-.597-.182-.068-.368.039-.56.322-.19.283-.344.719-.461 1.309a10.18 10.18 0 0 0-.194 1.79c-.012.602.05 1.41.182 2.42.134 1.01.321 1.893.563 2.647.241.754.51 1.35.805 1.787.295.437.606.673.935.709.466.05 1.068-.761 1.805-2.436M420.238 292.683c.151-.378.388-1.175.71-2.39.323-1.216.644-2.684.962-4.404.318-1.72.54-3.058.665-4.014.126-.956.209-1.777.25-2.461.04-.685.052-1.188.037-1.511-.015-.323-.118-.496-.31-.519-.191-.022-.442.237-.75.779-.31.542-.634 1.383-.972 2.524-.338 1.14-.62 2.484-.843 4.03a46.005 46.005 0 0 0-.423 5.12c-.059 1.866.008 3.577.2 5.132.193 1.555.535 2.735 1.025 3.542.491.807 1.037 1.342 1.64 1.605.86.376 2.056-.106 3.587-1.447M428.552 290.817c-.123.625-.157 1.378-.102 2.26.036.576.097 1.196.182 1.86.084.665.18 1.343.29 2.035.108.692.209 1.258.3 1.699.093.44.202.827.328 1.16.127.334.231.43.314.288.082-.142.115-.504.098-1.085a64.189 64.189 0 0 0-.094-2.02 19.971 19.971 0 0 1 .007-2.417c.05-.846.178-1.57.381-2.172.204-.601.392-1.045.566-1.33.174-.286.32-.43.438-.431.117-.001.278.507.48 1.525.202 1.019.368 1.839.496 2.462.128.622.319 1.385.572 2.287.253.901.429 1.44.528 1.614.099.175.306-.27.621-1.333.316-1.063.619-1.968.91-2.714.291-.747.587-1.365.887-1.856.3-.49.525-.793.675-.906.149-.113.244-.017.285.289.04.305.04.782 0 1.428a61.59 61.59 0 0 0-.094 2.032c-.02.708-.002 1.383.058 2.025.06.642.206 1.194.438 1.657.232.462.487.785.764.967.393.259.926-.015 1.599-.822M446.208 293.266c.3-.008.55-.257.748-.746.134-.332.209-.584.223-.757a1.463 1.463 0 0 0-.056-.53c-.051-.181-.175-.339-.37-.474a2.32 2.32 0 0 0-.744-.318 4.286 4.286 0 0 0-.974-.128c-.348-.008-.702.124-1.06.395-.36.271-.684.678-.974 1.22-.29.543-.504 1.19-.641 1.942-.138.752-.21 1.514-.215 2.287a7.682 7.682 0 0 0 .33 2.28c.226.748.527 1.387.904 1.916.377.53.82.856 1.329.981.51.125 1.052.026 1.627-.298.576-.323 1.115-.79 1.616-1.402a6.948 6.948 0 0 0 1.154-2 8.482 8.482 0 0 0 .496-2.308c.063-.816-.003-1.505-.197-2.067-.278-.806-.978-1.196-2.1-1.17M454.998 291.43c.113-.225.085-.383-.084-.472a.817.817 0 0 0-.44-.078c-.175.012-.361.159-.56.442-.199.282-.38.65-.545 1.105a8.471 8.471 0 0 0-.382 1.454c-.089.516-.142.977-.16 1.382-.017.405 0 .723.052.954.052.23.189.404.412.518.222.114.508.2.857.256.349.056.744.141 1.186.256.443.114.904.29 1.383.527.48.237.875.54 1.185.907.31.368.513.788.608 1.26.095.472.039.967-.17 1.487-.208.519-.566.94-1.076 1.264-.742.472-1.856.682-3.343.63M464.772 283.867c.094 1.104.157 2.389.189 3.854a325.429 325.429 0 0 1 .053 7.711c-.007 1.416-.03 2.752-.067 4.009-.056 1.909-.129 3.637-.217 5.183" style="fill:none;stroke:#007aff;stroke-width:1.8189;stroke-linecap:round;stroke-linejoin:round;stroke-miterlimit:10;stroke-dasharray:none;stroke-opacity:1" transform="matrix(.72727 0 0 .72727 -153.236 -131.813)"/><path d="M462.329 294.579c-.324.242-.355.364-.095.367.19.002.639-.06 1.347-.186.708-.127 1.535-.35 2.483-.672 1.385-.47 3.276-1.292 5.672-2.467" style="fill:none;stroke:#007aff;stroke-width:1.8189;stroke-linecap:round;stroke-linejoin:round;stroke-miterlimit:10;stroke-dasharray:none;stroke-opacity:1" transform="matrix(.72727 0 0 .72727 -153.236 -131.813)"/><path d="m356.76 301.563.39-.666M340.395 196.466c-.118-.412-.37-.908-.754-1.487-.385-.578-.704-.98-.958-1.207a2.359 2.359 0 0 0-.881-.496c-.335-.104-.736-.14-1.202-.105-.467.035-.927.18-1.382.439-.454.257-1.076.811-1.866 1.661s-1.469 1.802-2.036 2.857c-.568 1.055-1.003 2.319-1.305 3.792a18.585 18.585 0 0 0-.36 4.498c.06 1.525.353 2.844.875 3.957.523 1.112 1.195 2 2.018 2.664.822.663 1.704 1.041 2.646 1.135.942.093 1.9-.186 2.873-.837.974-.652 1.844-1.49 2.611-2.515.767-1.025 1.362-2.224 1.785-3.595.422-1.372.685-2.683.79-3.934.103-1.25.093-2.251-.03-3.002-.125-.75-.338-1.29-.64-1.62-.434-.472-1.04-.51-1.819-.115M348.453 210.964l-.484.058M364.27 198.033c.118-.718.095-1.342-.067-1.873a4.776 4.776 0 0 0-.465-1.042 3.088 3.088 0 0 0-.763-.865 2.483 2.483 0 0 0-1.027-.48c-.375-.079-.812-.072-1.313.02-.5.09-1.024.367-1.571.83a6.76 6.76 0 0 0-1.421 1.686c-.4.662-.81 1.774-1.23 3.336a22.069 22.069 0 0 0-.735 4.806c-.07 1.64.096 3.123.496 4.448.4 1.324 1.012 2.37 1.832 3.135.821.766 1.748 1.147 2.78 1.142 1.03-.005 2.025-.442 2.981-1.312.957-.87 1.736-1.987 2.337-3.352a14.28 14.28 0 0 0 1.143-4.128c.16-1.386.117-2.601-.13-3.645-.36-1.527-1.396-3.165-3.11-4.915" style="fill:none;stroke:#007aff;stroke-width:1.8189;stroke-linecap:round;stroke-linejoin:round;stroke-miterlimit:10;stroke-dasharray:none;stroke-opacity:1" transform="matrix(.72727 0 0 .72727 -148.105 -132.64)"/><path d="M375.226 212.746c.007-.418.126-.744.358-.978.16-.16.378-.256.656-.29.278-.033.563.075.853.324.29.25.504.682.642 1.295.138.614.16 1.365.064 2.252-.138 1.29-.96 2.781-2.467 4.474" style="fill:none;stroke:#fcfcfc;stroke-width:1.8189;stroke-linecap:round;stroke-linejoin:round;stroke-miterlimit:10;stroke-dasharray:none;stroke-opacity:1" transform="matrix(.72727 0 0 .72727 -148.105 -132.64)"/><path d="M484.903 292.112c-.19.17-.365.192-.525.068-.112-.086-.232-.352-.36-.795-.127-.444-.193-.828-.198-1.155-.005-.326.028-.7.1-1.122.072-.421.216-.857.432-1.307.217-.45.457-.856.722-1.218.265-.362.515-.629.75-.801.236-.172.515-.274.838-.305.323-.032.565.053.724.255.16.201.315.489.465.862.15.374.306.806.466 1.296.16.49.348 1.018.565 1.584.217.566.471 1.14.764 1.721.292.582.635 1.065 1.027 1.45.392.384.807.623 1.245.715.438.093.887.008 1.347-.254.659-.377 1.268-1.752 1.828-4.127M484.1 298.585c-.348.309-.64.476-.873.503-.161.018-.227-.233-.2-.753a4.57 4.57 0 0 1 .35-1.518 6.09 6.09 0 0 1 .69-1.26c.256-.35.495-.582.72-.698.223-.116.437-.153.64-.11.205.042.413.224.625.545.212.321.442.73.69 1.224.247.494.537.975.869 1.442.332.467.696.896 1.091 1.287.396.39.818.718 1.265.983.447.265.892.442 1.336.533.444.09.878.113 1.302.068a2.595 2.595 0 0 0 1.177-.428c.36-.24.661-.513.904-.818.243-.306.423-.583.539-.83.17-.364.289-.89.358-1.579" style="fill:none;stroke:#d2a500;stroke-width:1.8189;stroke-linecap:round;stroke-linejoin:round;stroke-miterlimit:10;stroke-dasharray:none;stroke-opacity:1" transform="matrix(.72727 0 0 .72727 -148.105 -132.64)"/><path d="M333.953 374.703c.288-.644.558-1.298.812-1.964.17-.443.412-1.167.728-2.171.315-1.004.598-1.996.847-2.975.249-.979.477-1.98.683-3.003.206-1.022.37-1.992.49-2.909.122-.917.197-1.693.226-2.329.029-.635.005-1.126-.074-1.47-.078-.346-.224-.563-.439-.652-.215-.089-.46-.056-.735.098-.276.154-.564.525-.864 1.112-.3.586-.57 1.33-.807 2.232-.237.902-.399 1.896-.487 2.982a48.776 48.776 0 0 0-.132 3.857c0 1.486.046 3.129.138 4.927.091 1.798.205 3.562.34 5.29.135 1.73.304 3.3.507 4.713.308 2.14.755 4.067 1.34 5.781M342.173 385.73l-.27.091M356.895 366.765c-.105-.814-.219-1.4-.342-1.755a5.216 5.216 0 0 0-.304-.704 4.348 4.348 0 0 0-.411-.642 2.333 2.333 0 0 0-.544-.513c-.205-.139-.472-.215-.8-.229-.328-.014-.753.164-1.277.534-.523.37-1.092.905-1.705 1.604-.614.7-1.145 1.433-1.595 2.2-.45.768-.906 2.05-1.369 3.847-.463 1.797-.726 3.515-.79 5.154-.063 1.64.11 3.13.52 4.471.41 1.342 1.002 2.383 1.777 3.123.774.741 1.649 1.19 2.622 1.345.974.156 1.958.006 2.954-.449.996-.455 1.91-1.199 2.744-2.231a9.429 9.429 0 0 0 1.769-3.39c.345-1.226.513-2.449.503-3.667a8.804 8.804 0 0 0-.699-3.425c-.673-1.574-1.808-2.882-3.405-3.925" style="fill:none;stroke:#007aff;stroke-width:1.8189;stroke-linecap:round;stroke-linejoin:round;stroke-miterlimit:10;stroke-dasharray:none;stroke-opacity:1" transform="matrix(.72727 0 0 .72727 -148.105 -132.64)"/><path d="M368.037 383.554c-.028-.575-.01-.963.054-1.164.045-.139.243-.278.593-.419.35-.14.75-.14 1.202 0 .45.14.852.47 1.205.99.352.522.582 1.149.69 1.88.107.733.086 1.525-.066 2.378-.218 1.23-1.397 2.833-3.537 4.808M204.887 235.614c-.123.358-.098.531.073.52.123-.008.332-.168.626-.478.294-.31.628-.757 1-1.34.373-.584.746-1.294 1.118-2.131.373-.838.722-1.842 1.05-3.012.327-1.17.63-2.39.908-3.657s.522-2.499.73-3.695c.21-1.195.361-2.42.455-3.672.093-1.252.113-2.417.058-3.494a16.212 16.212 0 0 0-.484-3.192 27.474 27.474 0 0 0-.986-3.091c-.39-1.01-.79-1.965-1.2-2.863a26.688 26.688 0 0 1-1.083-2.773c-.312-.95-.57-2.049-.774-3.294a30.617 30.617 0 0 1-.378-3.822 39.598 39.598 0 0 1 .03-3.726c.067-1.181.254-2.293.56-3.334.45-1.535 1.411-2.951 2.885-4.249" style="fill:none;stroke:#fcfcfc;stroke-width:1.8189;stroke-linecap:round;stroke-linejoin:round;stroke-miterlimit:10;stroke-dasharray:none;stroke-opacity:1" transform="matrix(.72727 0 0 .72727 -148.105 -132.64)"/><path d="M204.554 217.395a71.62 71.62 0 0 0 3.688-5.536c.622-1.033 1.377-2.282 2.265-3.745 1.303-2.148 3.324-4.65 6.063-7.503M205.88 402.805c-.123.358-.098.532.074.52.122-.008.331-.167.625-.478.294-.31.628-.757 1-1.34.374-.583.746-1.293 1.119-2.13.372-.839.722-1.842 1.049-3.013.327-1.17.63-2.389.908-3.656.278-1.268.522-2.5.731-3.695.21-1.196.36-2.42.454-3.672.093-1.253.113-2.418.058-3.495a16.203 16.203 0 0 0-.484-3.191 27.469 27.469 0 0 0-.986-3.092c-.39-1.01-.789-1.965-1.2-2.863a26.695 26.695 0 0 1-1.082-2.772c-.312-.951-.57-2.05-.774-3.295a30.617 30.617 0 0 1-.379-3.822 39.565 39.565 0 0 1 .03-3.725c.067-1.182.254-2.293.56-3.335.45-1.534 1.412-2.95 2.886-4.249" style="fill:none;stroke:#fcfcfc;stroke-width:1.8189;stroke-linecap:round;stroke-linejoin:round;stroke-miterlimit:10;stroke-dasharray:none;stroke-opacity:1" transform="matrix(.72727 0 0 .72727 -148.105 -132.64)"/><path d="M205.547 384.586a70.926 70.926 0 0 0 3.688-5.535c.622-1.034 1.377-2.282 2.265-3.746 1.303-2.148 3.324-4.649 6.064-7.503" style="fill:none;stroke:#fcfcfc;stroke-width:1.8189;stroke-linecap:round;stroke-linejoin:round;stroke-miterlimit:10;stroke-dasharray:none;stroke-opacity:1" transform="matrix(.72727 0 0 .72727 -148.105 -132.64)"/></svg>