<svg xmlns="http://www.w3.org/2000/svg" width="250.635" height="257.554"><path d="m202.59 262.482-.654.065c-.019.002.023.008.125.018l1.801.17c1.098.105 3.686.114 7.762.028 4.076-.086 10.901-.131 20.475-.137 9.573-.005 17.194-.053 22.863-.144 5.669-.09 10.053-.149 13.153-.174 3.1-.025 6.157-.072 9.17-.141 3.015-.069 10.113-.21 21.296-.425 11.184-.214 18.802-.379 22.855-.493 4.053-.114 10.32-.314 18.802-.6 8.481-.285 17.335-.572 26.562-.86 9.228-.29 16.021-.474 20.381-.554 4.36-.08 8.942-.155 13.747-.224 4.805-.07 8.598-.143 11.38-.222 2.781-.078 5.473-.129 8.075-.152 2.601-.022 9.459-.15 20.572-.383 11.114-.233 19.345-.365 24.696-.397 5.35-.032 10.498-.05 15.443-.053 4.946-.003 8.241.005 9.885.025 1.644.02 4.167.144 7.568.372 3.402.227 6.734.436 9.997.625l9.432.545c4.437.256 10.281.653 17.532 1.189M536.534 258.16c-.417 1.788-.7 3.31-.847 4.562-.1.85-.168 2.319-.204 4.405-.036 2.087-.054 5.574-.054 10.463 0 4.888.02 8.625.062 11.211.042 2.586.065 9.705.07 21.357.005 11.652.031 20.411.08 26.278.047 5.866.083 9.753.107 11.659.024 1.906.115 5.886.275 11.94.16 6.055.312 13.12.46 21.194.146 8.075.255 14.376.327 18.903.073 4.526.156 9.017.251 13.471.095 4.455.216 11.464.363 21.028.147 9.564.224 26.48.232 50.748.008 24.269 0 38.665-.022 43.189-.023 4.524-.036 8.85-.038 12.98-.002 4.128-.015 8.01-.038 11.646-.023 3.636-.07 8.395-.142 14.277-.072 5.883-.151 9.775-.238 11.678-.087 1.903-.21 3.435-.372 4.598-.241 1.736-.86 3.296-1.855 4.681M201.889 265.435c-.026 12.044-.01 19.38.051 22.01.042 1.835.195 3.86.459 6.076.264 2.215.518 4.482.762 6.801.244 2.32.441 4.73.591 7.234.15 2.502.257 5.165.317 7.986.061 2.822.095 5.66.1 8.513.007 2.854.043 5.884.108 9.092.066 3.208.144 6.508.235 9.9.09 3.39.151 6.758.183 10.1.032 3.344.05 6.685.053 10.024.003 3.338-.016 6.763-.058 10.274a347.755 347.755 0 0 1-.298 10.758c-.157 3.66-.275 7.36-.356 11.096-.08 3.737-.167 7.63-.259 11.68s-.208 7.966-.347 11.747c-.139 3.78-.26 7.655-.36 11.623a521.193 521.193 0 0 0-.169 12.06c-.01 4.074-.004 8.183.018 12.328.022 4.144.055 8.252.099 12.322.044 4.07.057 8.234.039 12.49a278.6 278.6 0 0 1-.323 12.408 709.407 709.407 0 0 0-.485 11.941c-.127 3.946-.243 10.14-.349 18.583-.106 8.443-.236 14.793-.39 19.05-.154 4.258-.359 8.328-.615 12.211-.256 3.884-.45 7.458-.583 10.723a252.55 252.55 0 0 0-.218 8.924c-.014 2.684.044 5.219.173 7.605.128 2.387.329 4.682.601 6.887.273 2.204.499 4.185.679 5.943.18 1.758.303 3.405.369 4.942.1 2.32-.341 4.097-1.322 5.335M199.993 605.703c-.616-.477.479-.938 3.284-1.382 2.806-.445 4.956-.749 6.45-.913a91.726 91.726 0 0 1 5.257-.401c2.009-.103 6.511-.231 13.506-.384s11.77-.252 14.325-.298c2.555-.046 4.976-.071 7.264-.076a364.69 364.69 0 0 0 14.723-.313c2.748-.111 5.449-.196 8.103-.253 2.654-.057 6.617-.088 11.89-.095 5.274-.006 9.216-.02 11.827-.04 2.611-.02 5.302-.064 8.072-.133 2.77-.068 8.58-.313 17.432-.734 8.852-.421 16.106-.73 21.764-.929 5.658-.198 10.03-.322 13.115-.372 3.086-.05 6.05-.111 8.89-.182 2.84-.072 7.383-.236 13.627-.494 6.244-.258 10.85-.437 13.816-.538 2.966-.101 6.154-.177 9.563-.228 3.41-.05 6.755-.079 10.036-.084 3.281-.005 6.677-.03 10.186-.077a945.1 945.1 0 0 0 10.814-.206c3.7-.091 7.52-.205 11.461-.342 3.94-.136 7.815-.244 11.623-.324 3.808-.08 7.665-.167 11.57-.262 3.906-.094 7.805-.18 11.698-.255 3.892-.076 9.615-.118 17.167-.126 7.552-.008 12.892.02 16.02.087a460.858 460.858 0 0 0 14.7.09c1.678-.02 3.023-.075 4.035-.163 1.482-.13 3.494-.224 6.037-.283" style="fill:none;stroke:#fcfcfc;stroke-width:6.23622;stroke-linecap:round;stroke-linejoin:round;stroke-miterlimit:10;stroke-dasharray:none;stroke-opacity:1" transform="matrix(.72727 0 0 .72727 -143.086 -185.225)"/><path d="M278.707 335.688c.018.434.174 1.069.466 1.904.293.836.51 1.48.655 1.934.144.453.546 1.646 1.206 3.578.66 1.931 1.228 3.595 1.7 4.99.473 1.396.867 2.53 1.182 3.404.316.873.547 1.527.693 1.96.146.432.472 1.343.978 2.732.506 1.388.837 2.318.991 2.79.155.471.355 1.155.6 2.052.36 1.314.916 3.062 1.669 5.244M258.731 355.29c.564.221 1.145.406 1.744.553.598.147 1.175.313 1.732.496.556.183 1.16.396 1.813.638s1.588.618 2.806 1.127 2.42.972 3.61 1.388c1.188.417 2.116.748 2.783.994.666.246 1.27.477 1.812.693.542.216 1.026.399 1.453.549.427.15 1.006.387 1.74.713.732.326 1.858.85 3.377 1.576a264.06 264.06 0 0 0 2.972 1.405c.463.212 1.077.54 1.841.982.765.443 1.327.745 1.686.907M277.485 336.047c.117-.18.178-.156.182.069.003.167-.078.463-.241.887-.164.424-.368.883-.614 1.375s-.44.864-.583 1.116a10.78 10.78 0 0 1-.672 1.005c-.306.417-.867 1.099-1.683 2.045a66.089 66.089 0 0 1-1.78 2.006c-.37.391-.868.937-1.494 1.638a38.347 38.347 0 0 1-1.68 1.78c-.495.487-.937.887-1.327 1.202-.39.314-.677.563-.862.747a7.035 7.035 0 0 1-.608.538c-.22.174-.726.514-1.515 1.019-.789.504-1.426.891-1.913 1.16-.705.388-1.9 1.142-3.584 2.263" style="fill:none;stroke:#007aff;stroke-width:1.8189;stroke-linecap:round;stroke-linejoin:round;stroke-miterlimit:10;stroke-dasharray:none;stroke-opacity:1" transform="matrix(.72727 0 0 .72727 -143.086 -185.225)"/><path d="M515.198 483.283c-1.185.507-2.821 1.158-4.909 1.953a190.9 190.9 0 0 0-3.802 1.494 146.44 146.44 0 0 0-3.924 1.667c-1.421.626-2.876 1.233-4.366 1.822a48.497 48.497 0 0 1-4.124 1.437 45.25 45.25 0 0 1-3.498.89c-1.576.328-3.575.807-5.994 1.438M509.157 514.644c-.398-.49-.854-.992-1.37-1.505a43.775 43.775 0 0 0-1.977-1.822 85.79 85.79 0 0 0-2.83-2.358l-3.503-2.808a142.762 142.762 0 0 0-3.84-2.972c-1.311-.98-3.027-2.22-5.148-3.718-2.121-1.5-4.088-2.788-5.903-3.865M516.354 484.06c-.231.178-.456.504-.676.977-.219.473-.386.88-.502 1.222-.117.342-.323.898-.62 1.667-.296.769-.642 1.616-1.037 2.541a76.647 76.647 0 0 0-1.149 2.848c-.37.974-.725 2.008-1.065 3.102a29.07 29.07 0 0 0-.76 2.912c-.167.846-.333 1.974-.497 3.383a44.21 44.21 0 0 0-.293 4.053 183.01 183.01 0 0 1-.307 6.738" style="fill:none;stroke:#7ec636;stroke-width:1.83889;stroke-linecap:round;stroke-linejoin:round;stroke-miterlimit:10;stroke-dasharray:none;stroke-opacity:1" transform="matrix(.72727 0 0 .72727 -175.279 -187.37)"/><path d="M331.542 493.774c.308-.428.917-1.578 1.829-3.452a875.223 875.223 0 0 0 2.142-4.425 142.565 142.565 0 0 0 1.523-3.284c.5-1.113 1.021-2.21 1.566-3.29.544-1.08 1.065-2.099 1.563-3.056.498-.958.996-1.925 1.493-2.9.736-1.444 1.411-3.178 2.026-5.202M342.853 466.476c-.344.19-.818.396-1.422.62-.603.224-1.253.471-1.95.743-.697.272-1.513.585-2.45.938-.937.353-1.994.716-3.17 1.09-1.176.373-2.359.756-3.55 1.15-1.19.393-2.354.798-3.492 1.213a69.324 69.324 0 0 0-3.164 1.238c-.972.41-1.868.801-2.689 1.176-.82.375-1.625.747-2.413 1.118a36.342 36.342 0 0 1-3.903 1.55M329.367 492.939a12.17 12.17 0 0 1-.709-1.258c-.15-.303-.325-.643-.526-1.02-.2-.376-.541-.961-1.022-1.757a17.506 17.506 0 0 0-1.745-2.377 22.466 22.466 0 0 0-2.216-2.228 42.429 42.429 0 0 0-2.473-2.003c-1.253-.94-2.822-2.223-4.709-3.851" style="fill:none;stroke:#f59a23;stroke-width:1.75008;stroke-linecap:round;stroke-linejoin:round;stroke-miterlimit:10;stroke-dasharray:none;stroke-opacity:1" transform="matrix(.72727 0 0 .72727 -190.766 -140.114)"/><path d="M476.52 306.842c-.11.188-.211.415-.304.68-.092.266-.278.734-.557 1.403-.28.669-.452 1.093-.518 1.272-.066.18-.223.68-.472 1.501a89.04 89.04 0 0 1-.816 2.549c-.295.878-.566 1.676-.813 2.397-.246.72-.503 1.418-.77 2.094a116.61 116.61 0 0 1-1.113 2.692c-.476 1.118-.885 2.06-1.228 2.822a111.05 111.05 0 0 1-.795 1.74c-.187.396-.44.946-.756 1.65-.317.702-.698 1.529-1.144 2.479-.446.95-.92 2.012-1.425 3.187a142.523 142.523 0 0 0-1.053 2.495c-.299.74-.548 1.43-.748 2.07M463.584 338.723c.457-.147 1.25-.422 2.38-.824.701-.25 1.617-.573 2.748-.97 1.131-.395 2.279-.81 3.443-1.244 1.164-.434 2.412-.904 3.744-1.41a191.945 191.945 0 0 1 4.351-1.59c1.57-.554 3.134-1.091 4.693-1.611 1.56-.52 2.961-1 4.205-1.442a67.616 67.616 0 0 1 3.32-1.093 77.228 77.228 0 0 0 3.992-1.293M478.52 306.989c-.031.289-.012.615.059.978.07.364.192.788.364 1.273.173.485.362.962.568 1.43.205.468.435.95.688 1.447.254.497.56.98.917 1.451.357.472.69.855.999 1.15.308.295.913.788 1.815 1.479a30.064 30.064 0 0 0 2.346 1.654 119.996 119.996 0 0 1 3.608 2.334c.404.277 1.018.71 1.844 1.3.825.59 1.418 1.017 1.78 1.28.363.263.82.583 1.372.958.822.56 1.747 1.084 2.776 1.575" style="fill:none;stroke:#f65353;stroke-width:1.96336;stroke-linecap:round;stroke-linejoin:round;stroke-miterlimit:10;stroke-dasharray:none;stroke-opacity:1" transform="matrix(.72727 0 0 .72727 -175.279 -187.37)"/><path d="M480.205 362.21c-.029.583-.026 1.109.006 1.577.022.315.053.664.094 1.046a36.16 36.16 0 0 1 .175 2.438c.014.388.03.725.047 1.011.019.286.04.557.067.812l.057.56M453.678 190.19c.003.11-.052.168-.165.174-.08.004-.14-.048-.18-.158-.04-.11-.063-.356-.068-.742-.005-.385.042-.678.14-.88a2.427 2.427 0 0 1 .943-1.014c.202-.117.4-.186.597-.209a.88.88 0 0 1 .563.128c.18.107.35.253.51.44.16.185.294.381.403.586.109.206.188.401.238.586.05.186.077.367.082.544a.982.982 0 0 1-.116.497 2.332 2.332 0 0 1-.26.396.95.95 0 0 1-.26.232l-.146.08c-.014.007.003.01.054.005l.503-.042c.285-.024.525-.02.718.012.194.032.385.108.575.226.19.118.357.285.501.499.144.214.249.458.314.732a4.5 4.5 0 0 1 .114.864 1.89 1.89 0 0 1-.219.924 3.074 3.074 0 0 1-.68.881 3.336 3.336 0 0 1-1.048.648 3.93 3.93 0 0 1-1.124.28c-.346.027-.613-.035-.801-.186-.27-.217-.376-.699-.314-1.445M283.644 412.562a.989.989 0 0 1-.37-.499 3.747 3.747 0 0 1-.121-.537 21.85 21.85 0 0 1-.14-1.189c-.057-.57-.114-.998-.171-1.286a6.787 6.787 0 0 0-.193-.763 2.082 2.082 0 0 0-.217-.495.571.571 0 0 0-.236-.219c-.085-.036-.128.008-.13.134-.002.126.042.29.135.495.093.204.218.404.376.601a2.8 2.8 0 0 0 .465.471c.153.118.396.213.729.286.332.072.667.112 1.002.12.335.007.668-.02.997-.08.329-.06.644-.137.946-.23.301-.093.568-.202.801-.327.233-.124.422-.261.567-.411.144-.15.24-.301.287-.453.046-.151.07-.281.069-.389 0-.108-.056-.173-.166-.196-.11-.022-.241.004-.396.08a1.653 1.653 0 0 0-.475.378 2.97 2.97 0 0 0-.433.621 5.403 5.403 0 0 0-.357.885c-.112.352-.217.78-.316 1.288a28.66 28.66 0 0 0-.26 1.568 37.955 37.955 0 0 0-.182 1.522c-.046.476-.08.935-.1 1.378a19.39 19.39 0 0 0 .039 2.247M297.795 220.246c.028-.375-.002-.619-.09-.732a1.059 1.059 0 0 0-.24-.22c-.1-.068-.22-.125-.362-.17-.141-.045-.38-.08-.718-.103a3.71 3.71 0 0 0-.771.007 1.47 1.47 0 0 0-.512.185 2.809 2.809 0 0 0-.922.85c-.141.202-.28.446-.415.734a7.31 7.31 0 0 0-.37.986c-.112.368-.201.763-.268 1.183-.066.42-.108.83-.125 1.23-.017.399-.004.774.038 1.126.042.352.147.693.315 1.025.168.331.387.634.657.908.27.275.566.505.889.691.323.186.676.311 1.06.374.383.063.777.07 1.182.022.405-.05.79-.177 1.154-.385.365-.207.639-.411.822-.613.184-.202.337-.461.46-.777.123-.317.188-.576.195-.778a.702.702 0 0 0-.193-.523 2.178 2.178 0 0 0-.538-.405 3.543 3.543 0 0 0-.804-.312 4.871 4.871 0 0 0-1.01-.154 3.147 3.147 0 0 0-1.897.515c-.382.256-.66.52-.83.788" style="fill:none;stroke:#fcfcfc;stroke-width:1.03937;stroke-linecap:round;stroke-linejoin:round;stroke-miterlimit:10;stroke-dasharray:none;stroke-opacity:1" transform="matrix(.72727 0 0 .72727 -158.223 -91.735)"/><path d="M289.432 274.543c.053-2.389.179-4.363.378-5.924a308.888 308.888 0 0 1 2.454-15.192M286.786 251.316c-.1-.533-.099-1.009.005-1.426.07-.283.272-.756.606-1.419.334-.663.681-1.26 1.042-1.793a8.943 8.943 0 0 1 1.176-1.414c.424-.411.86-.727 1.31-.946.449-.22.89-.35 1.322-.392a6.11 6.11 0 0 1 1.086-.023c.29.025.615.168.97.428.357.26.672.562.946.905.274.344.54.786.796 1.327.367.775 1.01 2.918 1.927 6.43M283.017 365.73v-.595c0-.035-.007-.04-.02-.015l-.119.231c-.066.13-.153.505-.259 1.127-.106.621-.17 1.37-.192 2.245-.023.876-.035 2.486-.037 4.832-.002 2.345.002 4.173.013 5.483.018 1.928.23 4.307.639 7.139M275.446 386.37l-.522-.334c-.024-.015.028.064.156.237l1.508 2.046c.878 1.19 1.562 2.08 2.054 2.666.491.586.965 1.076 1.42 1.472.456.395.901.721 1.334.98.434.259.831.445 1.192.56.361.116.704.174 1.027.175.324.001.66-.142 1.01-.43.351-.287.692-.693 1.024-1.217.331-.525.658-1.101.978-1.728.32-.628.636-1.211.946-1.75.46-.8 1.046-1.644 1.759-2.532" style="fill:none;stroke:#fcfcfc;stroke-width:1.8189;stroke-linecap:round;stroke-linejoin:round;stroke-miterlimit:10;stroke-dasharray:none;stroke-opacity:1" transform="matrix(.72727 0 0 .72727 -158.223 -91.735)"/></svg>