<svg xmlns="http://www.w3.org/2000/svg" width="360.567" height="228.22"><path d="M115.815 449.806c.558.46 1.516.974 2.874 1.54 1.359.567 2.398 1.014 3.12 1.34.72.327 2.643 1.155 5.767 2.486 3.123 1.33 5.81 2.48 8.063 3.446a313.04 313.04 0 0 0 5.523 2.322c1.431.581 2.496 1.022 3.194 1.322.698.301 2.187.91 4.467 1.828s3.798 1.543 4.553 1.876c.755.333 1.823.846 3.205 1.54 2.025 1.017 4.805 2.272 8.34 3.766M117.852 496.306a22.816 22.816 0 0 0 2.623-1.541 39.025 39.025 0 0 1 2.538-1.591c.845-.485 1.78-.996 2.805-1.534 1.026-.538 2.53-1.277 4.514-2.217 1.983-.94 3.894-1.914 5.73-2.921a321.023 321.023 0 0 1 4.324-2.337 124.42 124.42 0 0 1 2.872-1.472c.87-.43 1.634-.825 2.294-1.186.66-.362 1.598-.815 2.816-1.36 1.217-.544 3.119-1.352 5.703-2.424a439.061 439.061 0 0 0 5.043-2.114c.777-.337 1.864-.733 3.262-1.186 1.398-.454 2.397-.813 2.996-1.077M114.9 451.717c-.09-.344.006-.394.288-.148.21.182.487.61.83 1.284a26.39 26.39 0 0 1 1.017 2.288c.335.851.58 1.505.734 1.962.154.456.318 1.106.494 1.948.176.842.396 2.294.66 4.356.262 2.062.43 3.539.503 4.43.072.893.193 2.116.364 3.67.171 1.554.282 2.907.334 4.059.051 1.152.054 2.144.01 2.975-.044.832-.055 1.465-.033 1.897a11.7 11.7 0 0 1-.011 1.35c-.03.467-.172 1.469-.424 3.006-.253 1.537-.484 2.756-.693 3.656-.303 1.304-.698 3.62-1.185 6.95" style="fill:none;stroke:#007aff;stroke-width:3.025;stroke-linecap:round;stroke-linejoin:round;stroke-miterlimit:10;stroke-dasharray:none;stroke-opacity:1" transform="matrix(.72727 0 0 .72727 -62.302 -294.79)"/><path d="M245.106 491.05c.874-.139 2.97-.773 6.288-1.904 3.318-1.13 5.926-2.025 7.823-2.684 1.898-.659 3.807-1.35 5.727-2.072a134.76 134.76 0 0 1 5.784-2.026 467.39 467.39 0 0 1 5.503-1.754c1.733-.54 3.477-1.09 5.232-1.653 2.595-.83 5.466-2.078 8.613-3.742M291.108 472.222c-.634-.187-1.442-.508-2.425-.964-.982-.456-2.048-.938-3.198-1.448a377.13 377.13 0 0 1-4.022-1.816c-1.532-.7-3.217-1.532-5.056-2.495a523.012 523.012 0 0 0-5.579-2.877 203.083 203.083 0 0 0-5.586-2.734 116.83 116.83 0 0 0-5.227-2.313c-1.64-.675-3.17-1.28-4.59-1.817a370.898 370.898 0 0 0-4.195-1.558c-2.047-.746-4.205-1.688-6.473-2.826M243.526 487.463c.16-.744.382-1.523.662-2.336.186-.538.385-1.15.596-1.836.21-.685.507-1.786.887-3.303.38-1.516.638-3.15.773-4.9.135-1.75.146-3.511.035-5.285a71.349 71.349 0 0 0-.537-5.327c-.362-2.61-.688-6.005-.978-10.186" style="fill:none;stroke:#f59a23;stroke-width:2.94399;stroke-linecap:round;stroke-linejoin:round;stroke-miterlimit:10;stroke-dasharray:none;stroke-opacity:1" transform="matrix(.72727 0 0 .72727 -62.302 -294.79)"/><path d="M188.556 470.366c-.199.163-.252.282-.158.359.067.055.47.088 1.208.1.739.01 1.43.007 2.072-.011.642-.019 1.26-.047 1.851-.084a281.158 281.158 0 0 1 6.17-.293c1.132-.04 2.281-.067 3.45-.08 1.696-.017 4.46-.039 8.29-.065" style="fill:none;stroke:#fcfcfc;stroke-width:3.14115;stroke-linecap:round;stroke-linejoin:round;stroke-miterlimit:10;stroke-dasharray:none;stroke-opacity:1" transform="matrix(.72727 0 0 .72727 -62.302 -294.79)"/><path d="M200.708 460.606c.011.49.059 1.06.141 1.711.083.65.16 1.55.233 2.697.072 1.148.122 2.481.15 4 .039 2.201.125 5.941.258 11.22" style="fill:none;stroke:#fcfcfc;stroke-width:3.14115;stroke-linecap:round;stroke-linejoin:round;stroke-miterlimit:10;stroke-dasharray:none;stroke-opacity:1" transform="matrix(.72727 0 0 .72727 -62.302 -294.79)"/><path d="M307.312 451.622c11.97-.097 19.643-.035 23.017.184 3.444.224 7.92.591 13.427 1.103M340.459 443.894c.236-.072.845.052 1.826.371.59.192 1.447.509 2.57.95 1.125.443 2.34 1.011 3.646 1.707 1.913 1.02 4.276 2.636 7.089 4.85M355.854 454.078a64.74 64.74 0 0 1-3.107 2c-.627.375-1.555.86-2.785 1.457-1.789.867-4.626 2.152-8.51 3.856" style="fill:none;stroke:#fcfcfc;stroke-width:1.8189;stroke-linecap:round;stroke-linejoin:round;stroke-miterlimit:10;stroke-dasharray:none;stroke-opacity:1" transform="matrix(.72727 0 0 .72727 -53.734 -280.417)"/><path d="M115.815 449.806c.558.46 1.516.974 2.874 1.54 1.359.567 2.398 1.014 3.12 1.34.72.327 2.643 1.155 5.767 2.486 3.123 1.33 5.81 2.48 8.063 3.446a313.04 313.04 0 0 0 5.523 2.322c1.431.581 2.496 1.022 3.194 1.322.698.301 2.187.91 4.467 1.828s3.798 1.543 4.553 1.876c.755.333 1.823.846 3.205 1.54 2.025 1.017 4.805 2.272 8.34 3.766M117.852 496.306a22.816 22.816 0 0 0 2.623-1.541 39.025 39.025 0 0 1 2.538-1.591c.845-.485 1.78-.996 2.805-1.534 1.026-.538 2.53-1.277 4.514-2.217 1.983-.94 3.894-1.914 5.73-2.921a321.023 321.023 0 0 1 4.324-2.337 124.42 124.42 0 0 1 2.872-1.472c.87-.43 1.634-.825 2.294-1.186.66-.362 1.598-.815 2.816-1.36 1.217-.544 3.119-1.352 5.703-2.424a439.061 439.061 0 0 0 5.043-2.114c.777-.337 1.864-.733 3.262-1.186 1.398-.454 2.397-.813 2.996-1.077" style="fill:none;stroke:#007aff;stroke-width:3.025;stroke-linecap:round;stroke-linejoin:round;stroke-miterlimit:10;stroke-dasharray:none;stroke-opacity:1" transform="matrix(.72727 0 0 .72727 239.196 -299.945)"/><path d="M114.9 451.717c-.09-.344.006-.394.288-.148.21.182.487.61.83 1.284a26.39 26.39 0 0 1 1.017 2.288c.335.851.58 1.505.734 1.962.154.456.318 1.106.494 1.948.176.842.396 2.294.66 4.356.262 2.062.43 3.539.503 4.43.072.893.193 2.116.364 3.67.171 1.554.282 2.907.334 4.059.051 1.152.054 2.144.01 2.975-.044.832-.055 1.465-.033 1.897a11.7 11.7 0 0 1-.011 1.35c-.03.467-.172 1.469-.424 3.006-.253 1.537-.484 2.756-.693 3.656-.303 1.304-.698 3.62-1.185 6.95" style="fill:none;stroke:#007aff;stroke-width:3.025;stroke-linecap:round;stroke-linejoin:round;stroke-miterlimit:10;stroke-dasharray:none;stroke-opacity:1" transform="matrix(.72727 0 0 .72727 146.012 -297.93)"/><path d="M393.43 471.385c.963-.153 3.273-.852 6.929-2.099 3.656-1.246 6.53-2.232 8.62-2.959 2.091-.726 4.195-1.488 6.311-2.284 2.117-.796 4.241-1.541 6.373-2.234a514.02 514.02 0 0 1 6.064-1.934c1.91-.595 3.833-1.202 5.766-1.822 2.86-.915 6.023-2.29 9.49-4.125M444.121 450.63c-.699-.206-1.59-.56-2.672-1.062a225.854 225.854 0 0 0-3.525-1.596 411.578 411.578 0 0 1-4.433-2 117.854 117.854 0 0 1-5.572-2.748 576.746 576.746 0 0 0-6.148-3.17 223.684 223.684 0 0 0-6.157-3.012 128.848 128.848 0 0 0-5.76-2.548 188.726 188.726 0 0 0-5.059-2.003 411.023 411.023 0 0 0-4.622-1.715c-2.257-.822-4.635-1.86-7.135-3.114" style="fill:none;stroke:#f59a23;stroke-width:3.24427;stroke-linecap:round;stroke-linejoin:round;stroke-miterlimit:10;stroke-dasharray:none;stroke-opacity:1" transform="matrix(.72727 0 0 .72727 -53.734 -280.417)"/><path d="M517.607 467.293c.203-.919.48-1.88.83-2.884.232-.665.48-1.42.745-2.267.264-.847.634-2.207 1.112-4.08.477-1.873.803-3.89.978-6.054a46.73 46.73 0 0 0 .068-6.534 88.24 88.24 0 0 0-.64-6.588c-.435-3.228-.823-7.427-1.162-12.598" style="fill:none;stroke:#f59a23;stroke-width:3.63966;stroke-linecap:round;stroke-linejoin:round;stroke-miterlimit:10;stroke-dasharray:none;stroke-opacity:1" transform="matrix(.72727 0 0 .72727 -53.734 -280.417)"/><path d="M188.556 470.366c-.199.163-.252.282-.158.359.067.055.47.088 1.208.1.739.01 1.43.007 2.072-.011.642-.019 1.26-.047 1.851-.084a281.158 281.158 0 0 1 6.17-.293c1.132-.04 2.281-.067 3.45-.08 1.696-.017 4.46-.039 8.29-.065" style="fill:none;stroke:#fcfcfc;stroke-width:3.14115;stroke-linecap:round;stroke-linejoin:round;stroke-miterlimit:10;stroke-dasharray:none;stroke-opacity:1" transform="matrix(.72727 0 0 .72727 146.012 -297.93)"/><path d="M200.708 460.606c.011.49.059 1.06.141 1.711.083.65.16 1.55.233 2.697.072 1.148.122 2.481.15 4 .039 2.201.125 5.941.258 11.22" style="fill:none;stroke:#fcfcfc;stroke-width:3.14115;stroke-linecap:round;stroke-linejoin:round;stroke-miterlimit:10;stroke-dasharray:none;stroke-opacity:1" transform="matrix(.72727 0 0 .72727 146.012 -297.93)"/><path d="M106.245 595.452c-.091-.344.005-.394.287-.149.21.183.487.61.83 1.285.343.673.682 1.436 1.017 2.287.335.852.58 1.506.734 1.963.154.456.319 1.106.495 1.948.176.842.395 2.294.658 4.356.264 2.061.431 3.538.504 4.43.072.893.193 2.116.364 3.67.171 1.554.282 2.907.334 4.058.051 1.152.055 2.144.01 2.976-.044.832-.055 1.464-.033 1.897.022.432.019.882-.011 1.35-.03.467-.172 1.469-.424 3.006-.253 1.537-.484 2.756-.693 3.656-.303 1.304-.698 3.62-1.185 6.95" style="fill:none;stroke:#007aff;stroke-width:3.025;stroke-linecap:round;stroke-linejoin:round;stroke-miterlimit:10;stroke-dasharray:none;stroke-opacity:1" transform="matrix(.72727 0 0 .72727 -50.886 -293.843)"/><path d="M110.122 639.202c.964-.153 3.274-.853 6.93-2.099 3.656-1.246 6.53-2.232 8.62-2.959 2.091-.727 4.195-1.488 6.311-2.284 2.117-.796 4.241-1.541 6.373-2.235a515.892 515.892 0 0 1 6.064-1.933c1.91-.595 3.832-1.203 5.766-1.822 2.86-.916 6.023-2.29 9.49-4.125M160.814 618.446c-.699-.205-1.59-.559-2.672-1.061a224.005 224.005 0 0 0-3.525-1.596 411.775 411.775 0 0 1-4.433-2 117.806 117.806 0 0 1-5.572-2.749 579.59 579.59 0 0 0-6.148-3.17 223.971 223.971 0 0 0-6.157-3.011 128.797 128.797 0 0 0-5.76-2.549 188.726 188.726 0 0 0-5.059-2.002 410.3 410.3 0 0 0-4.622-1.715c-2.257-.822-4.635-1.86-7.135-3.114" style="fill:none;stroke:#f59a23;stroke-width:3.24427;stroke-linecap:round;stroke-linejoin:round;stroke-miterlimit:10;stroke-dasharray:none;stroke-opacity:1" transform="matrix(.72727 0 0 .72727 -50.886 -293.843)"/><path d="M115.815 449.806c.558.46 1.516.974 2.874 1.54 1.359.567 2.398 1.014 3.12 1.34.72.327 2.643 1.155 5.767 2.486 3.123 1.33 5.81 2.48 8.063 3.446a313.04 313.04 0 0 0 5.523 2.322c1.431.581 2.496 1.022 3.194 1.322.698.301 2.187.91 4.467 1.828s3.798 1.543 4.553 1.876c.755.333 1.823.846 3.205 1.54 2.025 1.017 4.805 2.272 8.34 3.766M117.852 496.306a22.816 22.816 0 0 0 2.623-1.541 39.025 39.025 0 0 1 2.538-1.591c.845-.485 1.78-.996 2.805-1.534 1.026-.538 2.53-1.277 4.514-2.217 1.983-.94 3.894-1.914 5.73-2.921a321.023 321.023 0 0 1 4.324-2.337 124.42 124.42 0 0 1 2.872-1.472c.87-.43 1.634-.825 2.294-1.186.66-.362 1.598-.815 2.816-1.36 1.217-.544 3.119-1.352 5.703-2.424a439.061 439.061 0 0 0 5.043-2.114c.777-.337 1.864-.733 3.262-1.186 1.398-.454 2.397-.813 2.996-1.077" style="fill:none;stroke:#007aff;stroke-width:3.025;stroke-linecap:round;stroke-linejoin:round;stroke-miterlimit:10;stroke-dasharray:none;stroke-opacity:1" transform="matrix(.72727 0 0 .72727 -57.82 -139.103)"/><path d="M517.607 467.293c.203-.919.48-1.88.83-2.884.232-.665.48-1.42.745-2.267.264-.847.634-2.207 1.112-4.08.477-1.873.803-3.89.978-6.054a46.73 46.73 0 0 0 .068-6.534 88.24 88.24 0 0 0-.64-6.588c-.435-3.228-.823-7.427-1.162-12.598" style="fill:none;stroke:#f59a23;stroke-width:3.63966;stroke-linecap:round;stroke-linejoin:round;stroke-miterlimit:10;stroke-dasharray:none;stroke-opacity:1" transform="matrix(.72727 0 0 .72727 -350.75 -119.575)"/><path d="M183.122 617.911a90.86 90.86 0 0 0 4.454-.129c.8-.048 2.592-.144 5.378-.29a362.8 362.8 0 0 0 7.464-.46c2.19-.16 4.572-.354 7.148-.58 2.577-.227 5.229-.398 7.956-.511 3.996-.166 9.349 0 16.059.496M234.477 609.484l-.163-.112h0l.017.01a19.291 19.291 0 0 0 1.329.779c.383.208.83.47 1.337.785.508.316 1.037.69 1.586 1.122.55.432 1.089.907 1.619 1.427s.999 1.04 1.408 1.56c.409.52.724.995.946 1.425.223.43.352.82.389 1.173.036.353-.034.667-.212.944-.178.277-.495.565-.95.865-.456.3-1.106.647-1.953 1.04-.846.393-1.833.802-2.96 1.226-1.645.62-4.056 1.488-7.232 2.604M173.23 691.29a56.914 56.914 0 0 1 5.21-.878 73.673 73.673 0 0 1 3.52-.356c1.116-.084 2.364-.16 3.744-.229 1.38-.069 2.91-.159 4.591-.271 1.68-.112 3.473-.265 5.378-.458 1.904-.192 3.908-.416 6.012-.67 2.103-.254 4.32-.476 6.654-.667 2.333-.191 4.594-.338 6.785-.441 3.202-.151 7.699-.072 13.49.238M230.04 680.534c.731.19 1.745.534 3.042 1.03a61.22 61.22 0 0 1 2.965 1.204c.68.305 1.365.639 2.054 1.002.689.363 1.313.718 1.873 1.065s1.023.7 1.389 1.059c.365.359.615.753.75 1.18.134.43.163.884.085 1.366-.077.482-.316.947-.717 1.396-.4.448-.909.86-1.523 1.238-.615.377-1.334.75-2.157 1.12-1.184.533-3.974 1.474-8.37 2.823" style="fill:none;stroke:#fcfcfc;stroke-width:1.8189;stroke-linecap:round;stroke-linejoin:round;stroke-miterlimit:10;stroke-dasharray:none;stroke-opacity:1" transform="matrix(.72727 0 0 .72727 -50.886 -293.843)"/><path d="M270.506 594.57c-.09-.344.005-.394.288-.149.21.183.487.61.83 1.285.342.674.681 1.436 1.016 2.288.336.851.58 1.505.734 1.962.154.456.319 1.106.495 1.948.176.842.395 2.294.659 4.356.263 2.062.43 3.539.503 4.43.072.893.194 2.116.365 3.67a63.79 63.79 0 0 1 .333 4.058c.051 1.152.055 2.144.01 2.976-.044.832-.055 1.464-.033 1.897.023.432.019.882-.01 1.35-.03.467-.172 1.469-.425 3.006-.253 1.537-.484 2.756-.693 3.656-.303 1.304-.698 3.62-1.185 6.95" style="fill:none;stroke:#007aff;stroke-width:3.025;stroke-linecap:round;stroke-linejoin:round;stroke-miterlimit:10;stroke-dasharray:none;stroke-opacity:1" transform="matrix(.72727 0 0 .72727 -50.886 -293.843)"/><path d="M274.384 638.32c.963-.153 3.273-.853 6.93-2.099 3.655-1.246 6.529-2.232 8.62-2.959a263.81 263.81 0 0 0 6.31-2.284 148.85 148.85 0 0 1 6.374-2.235 515.816 515.816 0 0 1 6.064-1.933 765.26 765.26 0 0 0 5.765-1.822c2.86-.916 6.024-2.29 9.49-4.125" style="fill:none;stroke:#f59a23;stroke-width:3.24427;stroke-linecap:round;stroke-linejoin:round;stroke-miterlimit:10;stroke-dasharray:none;stroke-opacity:1" transform="matrix(.72727 0 0 .72727 -50.886 -293.843)"/><path d="M269.534 591.326c-.226-.269-.13-.388.286-.359.416.03 1.367.175 2.854.436s3.37.635 5.651 1.122c2.28.486 4.924 1.21 7.931 2.174 3.007.962 6.082 2.202 9.224 3.72a71.094 71.094 0 0 1 8.993 5.178 83.084 83.084 0 0 1 8.074 6.219c3.744 3.274 7.421 7.472 11.03 12.594" style="fill:none;stroke:#ff8a89;stroke-width:2.85827;stroke-linecap:round;stroke-linejoin:round;stroke-miterlimit:10;stroke-dasharray:none;stroke-opacity:1" transform="matrix(.72727 0 0 .72727 -50.886 -293.843)"/><path d="M271.18 661.505c.557.46 1.515.974 2.873 1.54 1.359.568 2.398 1.014 3.12 1.34.72.327 2.643 1.156 5.767 2.486 3.123 1.33 5.81 2.48 8.063 3.447a311.2 311.2 0 0 0 5.524 2.321c1.43.581 2.495 1.022 3.193 1.323.698.3 2.187.91 4.467 1.827 2.28.918 3.798 1.543 4.553 1.876.755.333 1.824.846 3.205 1.54 2.025 1.017 4.805 2.272 8.34 3.767" style="fill:none;stroke:#007aff;stroke-width:3.025;stroke-linecap:round;stroke-linejoin:round;stroke-miterlimit:10;stroke-dasharray:none;stroke-opacity:1" transform="matrix(.72727 0 0 .72727 -50.886 -293.843)"/><path d="M270.192 705.844c.202-.92.48-1.881.83-2.885.232-.665.48-1.42.744-2.267s.635-2.206 1.112-4.08c.478-1.873.804-3.89.979-6.053.175-2.163.197-4.341.067-6.535a88.296 88.296 0 0 0-.639-6.588c-.435-3.227-.823-7.427-1.162-12.598" style="fill:none;stroke:#f59a23;stroke-width:3.63966;stroke-linecap:round;stroke-linejoin:round;stroke-miterlimit:10;stroke-dasharray:none;stroke-opacity:1" transform="matrix(.72727 0 0 .72727 -50.886 -293.843)"/><path d="m270.163 710.037-.302.155c-.013.007-.008.01.016.007l.292-.03c.17-.018 1.259-.37 3.265-1.058 2.007-.687 3.662-1.308 4.966-1.863a863.84 863.84 0 0 1 4.1-1.73c1.43-.6 2.949-1.292 4.558-2.078a55.794 55.794 0 0 0 5.081-2.848 214.551 214.551 0 0 1 5.552-3.355 359.276 359.276 0 0 1 5.61-3.214 555.99 555.99 0 0 1 5.184-2.871c2.388-1.306 6.056-3.112 11.002-5.418" style="fill:none;stroke:#b9bfff;stroke-width:2.85827;stroke-linecap:round;stroke-linejoin:round;stroke-miterlimit:10;stroke-dasharray:none;stroke-opacity:1" transform="matrix(.72727 0 0 .72727 -50.886 -293.843)"/><path d="M85.224 390.46c.16-.223.245-.543.255-.96.006-.275-.094-.475-.3-.599a1.958 1.958 0 0 0-.78-.243c-.313-.038-.722.002-1.225.12-.504.117-1.095.375-1.773.775-.678.399-1.387.966-2.127 1.702-.74.735-1.44 1.647-2.097 2.735a14.485 14.485 0 0 0-1.525 3.512c-.36 1.253-.57 2.652-.63 4.197-.06 1.546.087 3.023.442 4.433.354 1.409.958 2.623 1.81 3.642.85 1.019 1.84 1.75 2.966 2.196 1.61.637 4.733-.542 9.369-3.535M96.61 394.011v-1.058l.001-.01.006.043.106 1.133a167.323 167.323 0 0 1 .52 8.06c.067 1.693.108 2.84.122 3.444.015.602-.056.832-.212.69-.156-.142-.319-.57-.488-1.281-.17-.711-.29-1.576-.359-2.593a48.24 48.24 0 0 1-.115-2.93c-.007-.936.02-1.825.08-2.667.06-.843.188-1.612.385-2.306.196-.695.433-1.267.71-1.714a2.755 2.755 0 0 1 1.049-1.01c.422-.226.978-.358 1.666-.398.689-.039 1.471.035 2.348.22.877.186 1.733.365 2.568.537 1.232.254 2.7.288 4.406.102M120.883 393.636c.011-.895-.015-1.442-.08-1.64a1.66 1.66 0 0 0-.242-.447 1.08 1.08 0 0 0-.502-.366 2.747 2.747 0 0 0-.836-.153c-.34-.017-.746.059-1.217.229-.472.17-.964.47-1.477.9-.513.43-.989.977-1.427 1.64a11.236 11.236 0 0 0-1.12 2.214c-.31.814-.514 1.537-.614 2.17-.1.633-.155 1.307-.166 2.023-.011.716 0 1.183.035 1.4.034.219.117.506.248.864.131.357.304.715.52 1.073.214.358.466.681.755.969.29.288.601.544.936.768.335.224.682.419 1.042.583.36.164.753.292 1.18.384.425.092.94.14 1.54.144.602.004 1.507-.39 2.717-1.182 1.21-.791 1.969-1.33 2.278-1.616.31-.285.644-.678 1.003-1.179.36-.5.651-.973.875-1.42.224-.448.399-.896.525-1.345.126-.45.2-1.105.223-1.966.022-.862.005-1.405-.054-1.63-.059-.225-.29-.657-.693-1.298a5.074 5.074 0 0 0-1.515-1.56c-.607-.4-1.166-.655-1.677-.766a5.945 5.945 0 0 0-1.359-.154c-.395.008-.733.076-1.014.205-.408.189-.708.572-.898 1.151M137.709 391.268c.506-.196.805-.455.898-.778.065-.223.052-.397-.036-.522-.09-.126-.28-.208-.572-.246-.293-.039-.634.01-1.023.144-.39.134-.777.38-1.16.736-.383.357-.723.79-1.018 1.298-.296.508-.536 1.11-.722 1.806-.185.697-.3 1.39-.343 2.08-.042.688-.01 1.252.097 1.69.107.438.256.761.447.97.191.207.416.382.675.524.26.142.742.254 1.447.335.705.081 1.245.131 1.62.15.375.017.803.059 1.284.125.48.065.879.144 1.195.236.316.093.615.198.897.315.282.117.548.259.8.425.25.167.478.357.684.571.205.215.404.52.598.916.194.396.309.87.345 1.42.037.55-.09 1.107-.38 1.67-.29.562-.715 1.065-1.277 1.508a7.011 7.011 0 0 1-1.713 1.017c-.58.235-1.047.39-1.399.464-.352.075-.818.126-1.397.153-.58.027-.945.022-1.095-.014-.215-.05-.347-.326-.398-.825M153.823 391.29c-.03-.29-.17-.55-.422-.781a1.722 1.722 0 0 0-.628-.36 3.163 3.163 0 0 0-.825-.152c-.3-.017-.629.081-.985.295-.356.214-.69.547-1 .998-.312.451-.565 1.01-.76 1.674a9.414 9.414 0 0 0-.361 2.038c-.046.694-.028 1.295.055 1.804.082.508.265.912.549 1.212.284.3.658.517 1.124.65a7.75 7.75 0 0 0 1.635.259c.623.039 1.246.086 1.867.142a7.004 7.004 0 0 1 1.721.363c.526.186.967.443 1.321.77s.601.705.74 1.134c.138.429.184.901.137 1.417-.046.515-.253 1.026-.618 1.533-.365.508-.872.964-1.52 1.368a8.544 8.544 0 0 1-2.154.95c-.788.23-1.487.373-2.099.43-.886.084-1.494-.219-1.824-.909M170.861 393.606c.281-.067.46-.27.538-.61.078-.34.1-.621.068-.844a1.217 1.217 0 0 0-.3-.626 2.039 2.039 0 0 0-.649-.489 3.208 3.208 0 0 0-.928-.281 4.877 4.877 0 0 0-1.174-.028c-.43.037-.89.221-1.381.553-.49.332-.954.746-1.39 1.242a8.54 8.54 0 0 0-1.16 1.724c-.337.653-.6 1.36-.787 2.12-.188.762-.295 1.443-.322 2.045-.027.601.066 1.461.278 2.578.212 1.118.56 2.154 1.045 3.109.485.955 1.049 1.768 1.69 2.439.643.671 1.31 1.148 2.002 1.43a4.269 4.269 0 0 0 2.135.299c.732-.084 1.452-.418 2.161-1.003.71-.584 1.336-1.309 1.88-2.176.546-.866.983-1.756 1.313-2.669.33-.913.554-1.614.671-2.102.118-.488.193-1.095.227-1.821s-.148-1.629-.545-2.708c-.396-1.08-.79-1.854-1.183-2.324-.392-.47-.745-.807-1.06-1.013a3.056 3.056 0 0 0-.885-.418c-.398-.104-1.2-.084-2.406.06M182.102 393.495l-.132-1.001c-.006-.048-.001-.059.014-.032l.18.3c.103.173.368.93.796 2.274.427 1.343.83 2.452 1.206 3.328.377.877.79 1.797 1.241 2.763.451.966.91 1.854 1.376 2.664.467.81.894 1.454 1.283 1.93.389.476.72.785.991.927.272.141.5.164.683.067.183-.096.476-.897.88-2.401.403-1.505.788-2.738 1.157-3.7.368-.961.739-1.881 1.112-2.76a479.757 479.757 0 0 1 2.235-5.153M204.807 399.798a2.751 2.751 0 0 0 1.457-.455c.446-.29.85-.603 1.21-.937.36-.334.666-.738.917-1.21.25-.472.423-.981.517-1.527.094-.545.124-1.06.091-1.545-.033-.484-.18-.88-.443-1.186-.263-.307-.643-.501-1.142-.584-.498-.082-1.047-.063-1.648.058-.6.121-1.155.338-1.663.65a6.583 6.583 0 0 0-1.405 1.175c-.43.47-.821 1.017-1.174 1.64a11.09 11.09 0 0 0-.865 1.93 9.001 9.001 0 0 0-.432 2.063 6.186 6.186 0 0 0 .139 2.039c.157.647.48 1.256.967 1.828.488.572 1.109 1.098 1.862 1.578.754.48 1.655.812 2.702.998 1.048.186 2.089.224 3.123.114 1.492-.16 3.151-1.482 4.977-3.968M218.79 395.241c.002-.273.064-.419.189-.437.087-.013.2.028.339.122.138.095.304.388.499.879.194.49.383 1.074.566 1.75.183.677.361 1.424.534 2.24.172.817.297 1.665.375 2.546.078.88.125 1.623.14 2.228.017.604.013 1.019-.01 1.243-.022.225-.113.3-.27.227-.159-.073-.361-.461-.608-1.164-.247-.703-.447-1.571-.602-2.605a23.604 23.604 0 0 1-.266-2.776c-.024-.817.023-1.564.14-2.24.117-.675.294-1.3.53-1.875.237-.575.538-1.05.904-1.427a3.048 3.048 0 0 1 1.354-.801 8.298 8.298 0 0 1 1.828-.3c.998-.06 2.34-.015 4.022.136M236.375 393.378l.69-.086M236.835 398.852l-.46.633" style="fill:none;stroke:#fff;stroke-width:1.8189;stroke-linecap:round;stroke-linejoin:round;stroke-miterlimit:10;stroke-dasharray:none;stroke-opacity:1" transform="matrix(.72727 0 0 .72727 -53.89 -281.988)"/><path d="M80.961 535.692c-.255.17-.416.41-.484.72-.067.312-.116.865-.147 1.662a79.3 79.3 0 0 0-.052 2.812c-.003 1.077.03 2.152.098 3.222.069 1.071.158 2.129.269 3.173.11 1.045.196 1.911.257 2.6.062.69.1 1.182.115 1.476l.023.469v.007l-.006-.056-.143-1.321c-.09-.832-.144-1.731-.161-2.698-.018-.967.012-1.985.09-3.053.077-1.07.235-2.246.473-3.53.239-1.284.508-2.382.807-3.294.3-.913.602-1.646.907-2.2.306-.555.598-.968.878-1.24.28-.27.537-.437.771-.499.235-.062.467.025.697.26.23.235.464.623.702 1.163.237.54.471 1.164.702 1.87.23.708.443 1.48.638 2.316.195.836.418 1.974.667 3.414.249 1.44.399 2.343.45 2.71l.087.62c.007.045.021.012.045-.101l.317-1.53c.188-.906.415-1.856.681-2.849.266-.992.588-1.87.967-2.63.38-.762.77-1.383 1.17-1.864.4-.48.766-.865 1.098-1.154.331-.29.583-.475.754-.555.17-.081.282.009.333.268.052.259.08 1.377.086 3.354.006 1.978.064 3.59.176 4.838.111 1.248.327 2.43.648 3.543.321 1.114.709 1.928 1.162 2.444.453.515.953.816 1.499.902.779.124 1.81-.687 3.094-2.433M103.8 537.242c-.119-.157-.263-.152-.432.014-.121.119-.217.335-.288.647-.07.313-.132.82-.184 1.521a30.835 30.835 0 0 0-.07 2.41c.005.906.115 1.829.33 2.77.216.942.562 1.911 1.04 2.909.476.998 1.044 1.835 1.701 2.51.657.676 1.338 1.112 2.042 1.308.703.197 1.374.047 2.012-.45.637-.497 1.133-1.273 1.489-2.328.355-1.055.585-2.19.69-3.407.104-1.216.161-2.314.172-3.296.01-.981-.01-1.723-.059-2.225-.076-.767-.258-1.354-.548-1.76M123.015 526.491l.026-.341v-.002l-.002.042c0 .033-.015.347-.04.942s-.048 2.012-.067 4.252a910.966 910.966 0 0 0-.005 14.065c.028 2.536.234 4.784.618 6.745" style="fill:none;stroke:#fff;stroke-width:1.8189;stroke-linecap:round;stroke-linejoin:round;stroke-miterlimit:10;stroke-dasharray:none;stroke-opacity:1" transform="matrix(.72727 0 0 .72727 -53.734 -280.417)"/><path d="M118.856 537.555a240.7 240.7 0 0 0-.338-.069c-.022-.004.041-.025.188-.061l1.265-.312a25.13 25.13 0 0 1 2.293-.444c.833-.124 1.755-.25 2.766-.374 1.504-.186 3.138-.3 4.9-.344M136.855 542.403c-.198-.497-.362-.85-.491-1.057a1.87 1.87 0 0 0-.366-.416c-.155-.134-.369-.23-.641-.287-.273-.058-.613-.068-1.019-.03-.406.04-.844.18-1.314.424-.47.244-.948.559-1.434.945-.487.385-.952.821-1.395 1.306-.444.485-.839.993-1.185 1.523a5.007 5.007 0 0 0-.714 1.716c-.13.613-.106 1.28.072 2.003.177.722.537 1.408 1.08 2.057.541.65 1.24 1.114 2.094 1.393.854.28 1.805.287 2.853.023 1.047-.263 2.032-.838 2.955-1.724.923-.887 1.68-1.826 2.27-2.818.591-.993.96-1.917 1.106-2.773.146-.855.127-1.605-.057-2.25s-.478-1.15-.884-1.515c-.59-.532-1.561-.92-2.914-1.167M140.037 546.815c-.204.415-.289.98-.257 1.696.021.467.14.97.357 1.507.217.538.482.979.795 1.324.314.346.68.553 1.098.623.593.098 1.752-1.253 3.477-4.054M152.85 529.645c-.272-.36-.44-.364-.507-.013-.048.256-.075.634-.08 1.133-.005.5.032 1.153.111 1.96.079.806.177 1.71.297 2.71.119 1.002.215 2.25.288 3.742.072 1.493.116 2.985.132 4.476.015 1.49.024 2.852.025 4.086.002 1.84.123 3.778.36 5.818" style="fill:none;stroke:#fff;stroke-width:1.8189;stroke-linecap:round;stroke-linejoin:round;stroke-miterlimit:10;stroke-dasharray:none;stroke-opacity:1" transform="matrix(.72727 0 0 .72727 -53.734 -280.417)"/><path d="M147.502 540.598c.117-.277.343-.533.677-.77.334-.238.823-.471 1.466-.702.642-.23 1.47-.451 2.48-.664 1.01-.213 2.112-.45 3.307-.712 1.753-.383 4.072-.767 6.957-1.15M162.995 542.649a8.361 8.361 0 0 0-.444 2.682c0 .608.09 1.807.27 3.597.181 1.79.54 3.446 1.075 4.968M177.267 541.857c.017-.323-.03-.77-.14-1.339a3.08 3.08 0 0 0-.335-.949c-.153-.267-.353-.45-.601-.546a2.196 2.196 0 0 0-.86-.132c-.324.01-.65.095-.976.258-.326.163-.616.39-.872.682-.255.291-.503.692-.743 1.203-.24.51-.468 1.11-.682 1.797a12.028 12.028 0 0 0-.457 2.206c-.09.782-.076 1.618.045 2.505.12.888.398 1.738.83 2.548.434.81.978 1.458 1.633 1.943a4.444 4.444 0 0 0 2.15.867c.779.092 1.582-.012 2.41-.313.826-.3 1.634-.75 2.421-1.348a8.688 8.688 0 0 0 1.996-2.121 9.752 9.752 0 0 0 1.205-2.47c.26-.831.421-1.653.482-2.467a6.477 6.477 0 0 0-.21-2.272 3.523 3.523 0 0 0-1.118-1.75c-.545-.465-1.206-.772-1.983-.922-1.143-.22-2.591-.25-4.347-.09M193.077 539.97a13.572 13.572 0 0 0 .111 3.55c.129.782.251 1.586.367 2.413a74.528 74.528 0 0 1 .526 4.934c.053.751.08 1.147.084 1.188l.003.028v-.046l-.04-1.54a43.22 43.22 0 0 1 0-2.524 8.336 8.336 0 0 1 .351-2.11c.21-.698.462-1.4.758-2.107.297-.706.64-1.4 1.03-2.081.39-.682.815-1.25 1.276-1.705.46-.456.937-.78 1.43-.97a4.773 4.773 0 0 1 1.435-.33c.462-.028.88.111 1.252.418s.685.781.936 1.423c.252.641.443 1.424.571 2.348.129.924.22 1.913.276 2.969.055 1.055.112 2.049.17 2.98.058.933.12 1.703.187 2.31.096.877.409 1.336.937 1.376M214.009 540.654l-.081-.43M214.414 546.471l-.025.536M341.785 564.788c-.31 0-.593-.357-.847-1.072a7.46 7.46 0 0 1-.437-2.101c-.037-.687.047-1.839.252-3.457.205-1.617.57-3.14 1.094-4.569a22.984 22.984 0 0 1 1.9-3.983 36.587 36.587 0 0 1 2.367-3.462c.836-1.08 1.616-1.934 2.34-2.559.724-.625 1.343-1.006 1.859-1.142.516-.137.885.163 1.107.899.223.736.35 1.75.385 3.043a63.422 63.422 0 0 1-.053 4.345 161.62 161.62 0 0 0-.131 5.398 719.362 719.362 0 0 1-.087 6.279 349.82 349.82 0 0 1-.23 7.566 321.14 321.14 0 0 1-.502 9.097c-.22 3.212-.428 6.418-.623 9.618-.196 3.2-.31 6.424-.341 9.673-.031 3.248.037 5.946.205 8.091.168 2.146.648 4.31 1.441 6.493.794 2.183 1.71 3.592 2.747 4.228 1.482.906 4.012.024 7.593-2.647M360.847 615.426c-.333.129-.719.41-1.157.846a8.197 8.197 0 0 0-1.188 1.51 13.326 13.326 0 0 0-.896 1.7c-.244.56-.606 1.479-1.085 2.754a584.068 584.068 0 0 1-1.638 4.3c-.613 1.592-1.227 3.5-1.841 5.726a156.827 156.827 0 0 0-1.662 6.55 74.03 74.03 0 0 0-1.2 6.576 66.831 66.831 0 0 0-.58 6.543c-.08 2.12-.05 4.116.089 5.99.14 1.874.383 3.68.73 5.416.347 1.736.673 3.38.977 4.931.304 1.551.52 3.198.65 4.942.128 1.743.2 3.538.212 5.386a26.145 26.145 0 0 1-.57 5.573 24.061 24.061 0 0 1-1.83 5.41c-.827 1.739-1.977 3.285-3.45 4.638a18.928 18.928 0 0 1-4.882 3.267c-1.78.824-3.42 1.13-4.916.916-2.128-.303-3.556-3.35-4.283-9.144M386.878 600.908c.174-.234.112-.674-.186-1.321-.197-.428-.386-.731-.566-.91-.18-.179-.44-.286-.78-.323-.34-.037-.79.064-1.35.301-.56.238-1.163.61-1.808 1.117a12.236 12.236 0 0 0-1.869 1.854c-.601.729-1.164 1.63-1.69 2.703-.524 1.074-.885 2.268-1.08 3.582-.196 1.315-.2 2.493-.013 3.535.186 1.042.623 1.928 1.311 2.659a5.195 5.195 0 0 0 2.463 1.485c.955.259 1.926.285 2.913.08.988-.207 1.956-.628 2.905-1.264a8.917 8.917 0 0 0 2.408-2.391c.657-.959 1.094-2.07 1.31-3.335.218-1.265.297-2.457.24-3.577-.06-1.119-.332-2.03-.82-2.731-.487-.702-1.028-1.208-1.622-1.518-.593-.31-1.175-.504-1.743-.58-.837-.114-1.798-.005-2.883.328M400.51 621.072a.847.847 0 0 1-.628-.557c-.113-.298-.199-.84-.257-1.625-.058-.784-.118-1.97-.179-3.555-.06-1.586-.158-3.502-.291-5.749-.134-2.246-.204-3.884-.211-4.914-.007-1.03.025-1.98.096-2.852.07-.872.221-1.65.451-2.335s.536-1.29.916-1.815c.381-.524.818-.889 1.31-1.092.493-.204.948-.205 1.365-.003.418.202.78.603 1.09 1.204.45.875.833 2.258 1.148 4.147" style="fill:none;stroke:#fff;stroke-width:1.8189;stroke-linecap:round;stroke-linejoin:round;stroke-miterlimit:10;stroke-dasharray:none;stroke-opacity:1" transform="matrix(.72727 0 0 .72727 -53.734 -280.417)"/><path d="M397.052 609.99c.307-.215.687-.354 1.14-.419.651-.092 2.182-.231 4.592-.417M413.554 619.194c-.134-.412-.216-.925-.249-1.54a49.492 49.492 0 0 1-.063-1.797 87.812 87.812 0 0 0-.07-2.17c-.036-.864-.065-1.874-.086-3.032-.02-1.157-.031-2.366-.033-3.626-.002-1.26 0-2.39.009-3.392.008-1.002.102-1.914.281-2.737.18-.823.436-1.602.767-2.338.332-.736.687-1.35 1.068-1.843.38-.494.759-.823 1.135-.987.377-.165.737-.152 1.08.036.488.27 1.024 1.754 1.605 4.453" style="fill:none;stroke:#fff;stroke-width:1.8189;stroke-linecap:round;stroke-linejoin:round;stroke-miterlimit:10;stroke-dasharray:none;stroke-opacity:1" transform="matrix(.72727 0 0 .72727 -53.734 -280.417)"/><path d="M409.38 609.216c.142-.128.495-.244 1.058-.347.563-.103 1.2-.254 1.908-.452 1.042-.291 2.372-.527 3.989-.707M432.019 602.903c.063-1.388.023-2.32-.12-2.794-.099-.328-.25-.576-.456-.743-.206-.167-.476-.263-.81-.288-.334-.024-.718.043-1.154.201a4.376 4.376 0 0 0-1.292.77 5.32 5.32 0 0 0-1.108 1.283 5.646 5.646 0 0 0-.688 1.628 8.366 8.366 0 0 0-.255 1.652c-.023.515.026.918.148 1.211.122.293.34.503.655.63.315.128.69.206 1.126.236.436.03.925.02 1.467-.03a96.6 96.6 0 0 1 1.592-.136 4.524 4.524 0 0 1 1.447.107c.445.111.815.392 1.11.841.295.45.48 1.019.553 1.706a5.686 5.686 0 0 1-.134 2.005 4.091 4.091 0 0 1-.856 1.69 3.856 3.856 0 0 1-1.452 1.068c-.813.341-1.912.226-3.297-.344M440.597 605.792v-.19 0l-.002.064-.032 1.274c-.02.804.017 1.808.111 3.013.095 1.205.157 2.225.188 3.062.031.837.054 1.824.068 2.96.014 1.137.039 1.999.076 2.588.056.893.187 1.68.395 2.36M441.381 604.123a14.19 14.19 0 0 1-.104-1.77c0-.421.045-.758.136-1.01.09-.253.259-.545.505-.876.247-.33.495-.578.746-.742.25-.165.514-.27.791-.314.277-.046.553-.07.827-.076.274-.005.621.071 1.04.228.42.157.86.389 1.323.697.462.308.955.696 1.478 1.163.523.467.989.99 1.396 1.572.407.582.676 1.192.806 1.832.131.64.2 1.154.205 1.54.006.387-.055.78-.184 1.18-.129.399-.306.774-.533 1.124a5.622 5.622 0 0 1-2.786 2.234c-.378.135-.76.23-1.15.283-.57.079-1.305.091-2.203.037M456.348 602.636v-.235c0-.01.008.013.025.068l.209.692c.122.407.26.954.412 1.64.153.687.299 1.48.438 2.381.14.9.244 1.806.312 2.716.069.91.107 1.8.115 2.668.007.868-.06 1.305-.204 1.313-.143.007-.374-.257-.693-.793-.32-.535-.638-1.317-.956-2.344a27.567 27.567 0 0 1-.765-3.075 24.376 24.376 0 0 1-.37-2.665 25.73 25.73 0 0 1-.078-1.968 4.78 4.78 0 0 1 .273-1.591c.18-.502.439-.958.779-1.366.34-.409.767-.704 1.283-.887.516-.183 1.095-.266 1.738-.25.643.016 1.295.151 1.957.404.96.366 2.554.951 4.78 1.754M471.872 603.11c-.023-.67-.009-1.155.043-1.457l.059-.345c.004-.021.012.027.025.145l.211 1.898c.128 1.148.205 2.214.232 3.198.04 1.439-.013 3.47-.16 6.094M470.557 593.7l.596-.863M482.567 602.548l-.32-.495M482.043 601.966c-.168.128-.257.581-.269 1.36-.011.78.022 1.645.1 2.595.077.951.176 1.929.296 2.934.12 1.005.247 1.974.382 2.908.134.934.264 1.685.39 2.255.126.57.215.91.267 1.018l.111.23c.022.045.04.018.054-.082l.076-.512c.035-.242.073-.844.113-1.805.04-.96.091-1.962.154-3.005s.198-2.11.405-3.203c.206-1.092.467-2.113.782-3.063.314-.95.64-1.707.975-2.271.336-.564.677-.986 1.023-1.268.346-.281.649-.423.908-.425.26-.002.467.26.624.789.157.528.266 1.92.328 4.177.062 2.256.173 3.956.333 5.1.16 1.144.37 2.246.628 3.307.26 1.061.55 1.917.87 2.569.32.651.669 1.045 1.048 1.18.38.136.761.05 1.146-.258.554-.443 1.12-1.67 1.7-3.683M503.93 601.486c-.286-.35-.886-.561-1.798-.633a3.276 3.276 0 0 0-1.75.359c-.571.286-1.15.751-1.736 1.395-.586.645-1.082 1.433-1.488 2.364-.406.932-.651 1.843-.737 2.734-.086.891.006 1.69.276 2.394.269.705.604 1.236 1.004 1.593.401.357 1.02.605 1.86.745.838.14 1.65-.034 2.437-.523 1.144-.71 2.548-2.134 4.212-4.272" style="fill:none;stroke:#fff;stroke-width:1.8189;stroke-linecap:round;stroke-linejoin:round;stroke-miterlimit:10;stroke-dasharray:none;stroke-opacity:1" transform="matrix(.72727 0 0 .72727 -53.734 -280.417)"/><path d="M508.092 602.423c-.598-.322-1.168-.232-1.71.27-.376.347-.708.79-.997 1.326a7.53 7.53 0 0 0-.672 1.785 12.58 12.58 0 0 0-.316 2.196c-.05.811-.035 1.756.045 2.834s.326 2.326.734 3.744c.408 1.417.91 2.869 1.507 4.354a56.177 56.177 0 0 1 1.581 4.467c.458 1.494.78 2.857.964 4.091.185 1.234.248 2.446.189 3.635-.06 1.19-.327 2.252-.803 3.185-.475.934-1.135 1.648-1.98 2.14-.843.494-1.786.722-2.826.684a6.07 6.07 0 0 1-2.95-.895 5.055 5.055 0 0 1-2.051-2.302c-.632-1.402-.078-3.892 1.662-7.471" style="fill:none;stroke:#fff;stroke-width:1.8189;stroke-linecap:round;stroke-linejoin:round;stroke-miterlimit:10;stroke-dasharray:none;stroke-opacity:1" transform="matrix(.72727 0 0 .72727 -53.734 -280.417)"/></svg>