<svg xmlns="http://www.w3.org/2000/svg" width="217.898" height="81.722"><path d="M249.413 314.336a1.335 1.335 0 0 0-.09-.444.891.891 0 0 0-.241-.307 2.68 2.68 0 0 0-.462-.327 7.427 7.427 0 0 0-.606-.31 4.051 4.051 0 0 0-1.572-.358 3.176 3.176 0 0 0-1.04.165c-.386.12-.8.285-1.243.494-.442.21-.899.443-1.37.702a16.07 16.07 0 0 0-1.423.885c-.477.33-.944.69-1.4 1.077-.457.388-.914.805-1.372 1.252-.458.447-.89.917-1.295 1.411a11.062 11.062 0 0 0-1.085 1.59 13.685 13.685 0 0 0-.822 1.726 8.47 8.47 0 0 0-.486 1.802c-.095.615-.131 1.28-.109 1.998.022.717.142 1.447.359 2.192.216.745.522 1.567.917 2.467.394.9.865 1.773 1.412 2.617a30.884 30.884 0 0 0 1.756 2.442 18.356 18.356 0 0 0 1.947 2.102 11.578 11.578 0 0 0 2.093 1.543c.723.411 1.47.725 2.242.941.772.216 1.399.341 1.881.375.482.033 1.283-.06 2.403-.279 1.119-.22 2.076-.533 2.87-.94.795-.409 1.55-.916 2.268-1.521a15.389 15.389 0 0 0 2.043-2.112 39.06 39.06 0 0 0 1.76-2.352c.527-.767.985-1.606 1.373-2.517a15.01 15.01 0 0 0 .87-2.674c.191-.872.296-1.771.316-2.698.019-.926-.08-1.876-.299-2.848a14.506 14.506 0 0 0-.85-2.654c-.35-.798-.78-1.525-1.29-2.183a14.898 14.898 0 0 0-1.676-1.827 10.417 10.417 0 0 0-1.912-1.409 15.66 15.66 0 0 0-2.022-.97 10.33 10.33 0 0 0-2.052-.574 8.815 8.815 0 0 0-1.99-.118c-.941.055-2.02.338-3.236.847M248.48 358.215c.063-.11.026-.369-.112-.778a2.934 2.934 0 0 0-.256-.59 2.99 2.99 0 0 0-.323-.424 4.298 4.298 0 0 0-.476-.447c-.187-.153-.392-.309-.613-.467a3.436 3.436 0 0 0-.756-.404 3.143 3.143 0 0 0-.97-.196 3.18 3.18 0 0 0-1.173.175 5.427 5.427 0 0 0-1.303.658c-.45.3-.849.596-1.194.887-.345.29-.79.709-1.332 1.254a12.845 12.845 0 0 0-1.426 1.693c-.409.584-.777 1.19-1.104 1.818a15.483 15.483 0 0 0-.81 1.81 8.223 8.223 0 0 0-.437 1.83c-.08.642-.117 1.28-.112 1.914.005.634.075 1.294.21 1.981.137.688.328 1.369.575 2.044a8.195 8.195 0 0 0 1.013 1.92c.429.606.938 1.17 1.528 1.693.59.523 1.23.983 1.916 1.38.687.399 1.433.739 2.238 1.021.805.282 1.594.527 2.365.735.772.207 1.578.355 2.418.443.84.088 1.681.096 2.523.024a12.536 12.536 0 0 0 2.466-.461 12.026 12.026 0 0 0 2.28-.927c.718-.383 1.402-.86 2.052-1.433a12.992 12.992 0 0 0 1.719-1.827c.496-.645.937-1.417 1.324-2.316.387-.9.696-1.805.927-2.716.23-.91.374-1.811.428-2.701a9.235 9.235 0 0 0-.172-2.518c-.17-.79-.45-1.62-.839-2.493a12.89 12.89 0 0 0-1.382-2.397 17.915 17.915 0 0 0-1.807-2.09 7.556 7.556 0 0 0-2.234-1.556 7.46 7.46 0 0 0-2.613-.641 13.596 13.596 0 0 0-2.793.112c-.936.133-1.857.328-2.764.583-.906.255-1.765.57-2.577.946-.813.376-1.547.751-2.203 1.126-.656.374-1.147.683-1.473.926-.518.388-.832.699-.94.93" style="fill:none;stroke:#007aff;stroke-width:1.8189;stroke-linecap:round;stroke-linejoin:round;stroke-miterlimit:10;stroke-dasharray:none;stroke-opacity:1" transform="matrix(.72727 0 0 .72727 -129.89 -226.676)"/><path d="M248.822 398.233c-.047-.103-.158-.219-.333-.348a1.624 1.624 0 0 0-.44-.219 2.86 2.86 0 0 0-.663-.128 6.94 6.94 0 0 0-.866-.02 5.076 5.076 0 0 0-1.03.153c-.369.091-.776.206-1.22.345-.445.139-.91.296-1.395.472-.486.176-.965.375-1.44.599a13.559 13.559 0 0 0-2.366 1.415c-.326.244-.563.427-.713.55-.15.123-.425.377-.827.762-.402.385-.804.818-1.208 1.3a20.344 20.344 0 0 0-1.365 1.879 39.131 39.131 0 0 0-1.4 2.297c-.427.76-.76 1.55-1 2.37a10.57 10.57 0 0 0-.424 2.405c-.042.782.031 1.58.22 2.394.187.813.493 1.616.917 2.406.423.791.923 1.592 1.5 2.403a15.01 15.01 0 0 0 1.83 2.144c.646.62 1.355 1.165 2.129 1.635.774.471 1.578.858 2.415 1.16.836.302 1.681.505 2.536.607a18.15 18.15 0 0 0 2.603.122 11.64 11.64 0 0 0 2.65-.378c.888-.23 1.456-.394 1.707-.489a7.06 7.06 0 0 0 .695-.305c.213-.109.829-.545 1.847-1.31 1.017-.765 1.646-1.284 1.887-1.558.24-.273.433-.525.578-.755.146-.23.336-.562.57-.998.235-.436.545-1.074.932-1.916.387-.842.692-1.605.915-2.291.222-.686.37-1.167.441-1.442.072-.276.172-.838.3-1.686.127-.849.204-1.748.23-2.699.028-.95-.052-1.969-.237-3.056a12.617 12.617 0 0 0-1.007-3.2 14.89 14.89 0 0 0-1.79-2.926c-.709-.903-1.473-1.59-2.293-2.062-.82-.472-1.616-.762-2.39-.872a8.475 8.475 0 0 0-2.198-.041 14.38 14.38 0 0 0-1.957.365c-.908.24-1.926.528-3.055.867" style="fill:none;stroke:#007aff;stroke-width:1.8189;stroke-linecap:round;stroke-linejoin:round;stroke-miterlimit:10;stroke-dasharray:none;stroke-opacity:1" transform="matrix(.72727 0 0 .72727 -126.938 -227.987)"/><path d="M332.841 335.644c-.463-.482-.782-.787-.957-.916a3.516 3.516 0 0 0-.388-.249 3.511 3.511 0 0 0-.497-.22 3.52 3.52 0 0 0-.71-.163 7.268 7.268 0 0 0-1-.057c-.386.001-.814.055-1.283.163a9.78 9.78 0 0 0-1.394.434c-.46.181-.93.406-1.412.676a11.928 11.928 0 0 0-3.053 2.521 36.253 36.253 0 0 0-1.344 1.628 11.092 11.092 0 0 0-1.098 1.738c-.324.632-.59 1.289-.796 1.971-.207.682-.35 1.338-.428 1.968-.079.629-.107 1.282-.084 1.96.023.677.109 1.26.26 1.75.15.49.27.84.363 1.052.092.21.315.64.67 1.289.355.649.774 1.31 1.258 1.986a15.652 15.652 0 0 0 1.693 1.976 20.7 20.7 0 0 0 2.027 1.773c.706.54 1.463.998 2.27 1.375.807.378 1.653.681 2.537.912.883.23 1.751.388 2.602.475.852.086 1.679.095 2.481.027a7.697 7.697 0 0 0 2.268-.536 6.777 6.777 0 0 0 1.964-1.237 10.63 10.63 0 0 0 1.623-1.835c.482-.687.91-1.405 1.286-2.156.376-.75.684-1.528.923-2.335.24-.807.41-1.623.51-2.448.1-.826.132-1.662.098-2.508a9.461 9.461 0 0 0-.44-2.491 17.349 17.349 0 0 0-.973-2.41 18.67 18.67 0 0 0-1.31-2.253 18.77 18.77 0 0 0-1.533-1.969 7.949 7.949 0 0 0-1.72-1.468 8.074 8.074 0 0 0-1.969-.882 9.864 9.864 0 0 0-2.21-.385 10.337 10.337 0 0 0-2.26.103c-.737.116-1.452.285-2.145.508a10.941 10.941 0 0 0-2.927 1.457M332.282 378.969a13.914 13.914 0 0 0-1.512-.956 3.827 3.827 0 0 0-.906-.37 4.92 4.92 0 0 0-.934-.12 4.444 4.444 0 0 0-1.17.122 6.2 6.2 0 0 0-1.28.45 8.052 8.052 0 0 0-1.3.785c-.437.321-.89.742-1.355 1.263a13.955 13.955 0 0 0-1.327 1.762c-.42.654-.808 1.316-1.163 1.987a14.25 14.25 0 0 0-.903 2.09 13.643 13.643 0 0 0-.534 2.027 9.514 9.514 0 0 0-.122 2.027c.03.722.16 1.442.392 2.161.233.72.53 1.451.894 2.196.364.745.802 1.464 1.315 2.157.513.694 1.1 1.32 1.76 1.878a15.2 15.2 0 0 0 2.054 1.467c.707.42 1.472.758 2.293 1.016.82.258 1.67.442 2.545.552.876.11 1.74.167 2.596.17a10.3 10.3 0 0 0 2.467-.286 8.456 8.456 0 0 0 2.213-.876 7.851 7.851 0 0 0 1.816-1.421 9.431 9.431 0 0 0 1.386-1.907c.398-.715.754-1.48 1.067-2.297.314-.816.574-1.636.78-2.458.208-.822.341-1.657.402-2.507.061-.85.052-1.684-.026-2.506a7.378 7.378 0 0 0-.548-2.23 6.541 6.541 0 0 0-1.133-1.784 12.619 12.619 0 0 0-1.647-1.524 19.51 19.51 0 0 0-2.11-1.424 25.399 25.399 0 0 0-2.453-1.267 16.534 16.534 0 0 0-2.54-.915c-.835-.223-1.582-.334-2.24-.334a5.12 5.12 0 0 0-1.827.317c-.827.313-1.705.808-2.633 1.486M415.323 355.49c-.062-.1-.195-.198-.401-.293a4.4 4.4 0 0 0-.554-.216 4.46 4.46 0 0 0-.58-.128 7.881 7.881 0 0 0-.806-.079 6.983 6.983 0 0 0-1.056.033c-.39.038-.803.138-1.242.299-.438.16-.904.381-1.397.662s-1.01.62-1.554 1.015a20.84 20.84 0 0 0-1.548 1.245c-.49.435-.986.893-1.488 1.377a14.41 14.41 0 0 0-1.435 1.612c-.454.59-.847 1.179-1.18 1.763a18.31 18.31 0 0 0-.885 1.766c-.257.593-.47 1.237-.64 1.934-.17.696-.279 1.366-.327 2.01-.049.643-.033 1.33.048 2.058a7.59 7.59 0 0 0 .556 2.125c.29.687.661 1.353 1.113 1.996.452.644.978 1.278 1.58 1.904a13.145 13.145 0 0 0 1.961 1.677c.707.493 1.461.948 2.263 1.365.802.417 1.634.795 2.495 1.133a13.64 13.64 0 0 0 2.692.747c.934.16 1.834.228 2.7.203a7.786 7.786 0 0 0 2.519-.492 9.31 9.31 0 0 0 2.298-1.255 15.504 15.504 0 0 0 1.825-1.559c.497-.507.84-.884 1.03-1.132.19-.248.522-.761.999-1.54.476-.778.938-1.622 1.385-2.53.447-.909.828-1.828 1.142-2.757.314-.93.54-1.898.679-2.907.138-1.008.196-1.985.174-2.93a10.145 10.145 0 0 0-.433-2.73 8.298 8.298 0 0 0-1.113-2.339 9.97 9.97 0 0 0-1.714-1.883 8.706 8.706 0 0 0-2.23-1.387 10.7 10.7 0 0 0-2.687-.745 18.015 18.015 0 0 0-6.17.172c-1.064.213-2.044.43-2.941.653a14.942 14.942 0 0 1-4.1.433" style="fill:none;stroke:#007aff;stroke-width:1.8189;stroke-linecap:round;stroke-linejoin:round;stroke-miterlimit:10;stroke-dasharray:none;stroke-opacity:1" transform="matrix(.72727 0 0 .72727 -129.89 -226.676)"/><path d="M350.677 347.036c-.067-.15.04-.222.318-.214.28.008.831.065 1.655.173.824.107 1.942.268 3.355.482 1.413.214 2.65.396 3.71.546 1.06.15 2.195.336 3.406.556 1.212.22 2.51.5 3.893.84 1.384.341 2.794.76 4.23 1.257 1.437.497 2.88 1.016 4.329 1.559 1.449.542 2.936 1.095 4.463 1.66a66.49 66.49 0 0 1 4.637 1.925 48.19 48.19 0 0 1 4.172 2.14c1.215.709 2.286 1.354 3.213 1.935 1.383.867 2.731 1.91 4.046 3.126M351.245 387.34c-.063.17-.026.33.11.482.094.103.247.194.459.27.211.076.516.152.916.227.399.074.898.142 1.497.204.599.061 1.295.095 2.088.101a18.66 18.66 0 0 0 2.473-.152c.855-.108 2.652-.47 5.39-1.088 2.74-.618 4.58-1.036 5.525-1.254a57.124 57.124 0 0 0 2.83-.73c.942-.27 1.881-.544 2.816-.823a139.295 139.295 0 0 0 5.694-1.828c1-.343 2.01-.73 3.03-1.16 1.02-.43 2.053-.874 3.098-1.332a29.687 29.687 0 0 0 3.032-1.541 32.403 32.403 0 0 0 2.666-1.723 35.535 35.535 0 0 0 3.66-3.076" style="fill:none;stroke:#7ec636;stroke-width:1.8189;stroke-linecap:round;stroke-linejoin:round;stroke-miterlimit:10;stroke-dasharray:none;stroke-opacity:1" transform="matrix(.72727 0 0 .72727 -129.89 -226.676)"/><path d="M433.32 368.564a3.71 3.71 0 0 1 .936-.351c.206-.045.522-.088.946-.129a59.43 59.43 0 0 1 1.944-.138 131.326 131.326 0 0 1 6.699-.216c1.305-.01 2.726-.021 4.264-.035 1.537-.014 3.251-.04 5.142-.077 1.89-.037 3.871-.06 5.941-.07a440.23 440.23 0 0 1 6.374.02c3.208.034 7.12.487 11.733 1.36M179.579 327.137c-.122-.21-.082-.353.12-.426.145-.052.612-.132 1.4-.237.788-.106 1.487-.201 2.096-.285.609-.084 1.28-.164 2.015-.24a213.74 213.74 0 0 1 2.512-.24c.94-.085 1.9-.162 2.884-.23.983-.07 2.572-.186 4.767-.351a205.65 205.65 0 0 1 5.257-.34 117.75 117.75 0 0 1 3.763-.123c1.2-.02 2.352-.03 3.459-.032 1.107-.002 2.2.013 3.278.043 1.08.03 2.129.072 3.15.122 1.487.074 3.693.41 6.616 1.008M182.993 368.949c-.17-.157-.231-.337-.182-.54.033-.14.22-.225.56-.253.342-.029.733-.058 1.174-.09a123.415 123.415 0 0 1 4.08-.213c.939-.034 1.965-.059 3.08-.074 1.114-.015 2.284-.023 3.508-.025 1.224-.002 2.562-.005 4.013-.012 1.452-.007 3.703-.01 6.755-.01 3.051-.001 5.335-.01 6.85-.029a651.59 651.59 0 0 1 4.241-.038c1.922-.01 4.435.403 7.54 1.239M186.256 412.204c.197.02.442.011.735-.026.19-.025 1.154-.083 2.892-.176 1.738-.093 3.126-.159 4.167-.198 1.04-.039 2.155-.1 3.346-.182 1.192-.082 2.424-.164 3.698-.244a91.775 91.775 0 0 1 4.167-.16c1.503-.026 3.051-.04 4.644-.043a93.622 93.622 0 0 1 4.647.104c1.506.072 2.9.198 4.181.38 1.904.27 3.958.732 6.165 1.39" style="fill:none;stroke:#90d300;stroke-width:1.8189;stroke-linecap:round;stroke-linejoin:round;stroke-miterlimit:10;stroke-dasharray:none;stroke-opacity:1" transform="matrix(.72727 0 0 .72727 -129.89 -226.676)"/><path d="M310.477 347.985c-.238.52-1.142 2.095-2.712 4.722a108.26 108.26 0 0 0-2.278 3.977c-.616 1.14-1.309 2.371-2.08 3.695a58.116 58.116 0 0 1-2.543 3.977 113.506 113.506 0 0 0-2.83 4.275 169.73 169.73 0 0 0-2.638 4.308 632.255 632.255 0 0 1-3.622 6.02c-1.616 2.663-2.913 4.702-3.888 6.119a143.511 143.511 0 0 0-2.931 4.434 164.663 164.663 0 0 0-2.87 4.686c-1.358 2.305-3.802 5.654-7.332 10.047M309.341 347.786c-.976-.023-1.97.23-2.982.758a86.189 86.189 0 0 1-3.072 1.527c-1.036.49-2.378 1.066-4.026 1.728-1.649.663-3.362 1.41-5.139 2.24-1.777.83-3.644 1.763-5.601 2.798a278.263 278.263 0 0 0-5.966 3.254c-2.02 1.133-3.948 2.206-5.782 3.22-2.723 1.505-5.499 3.473-8.328 5.905M311.321 345.952c-.384-.013-.882-.157-1.493-.432-.611-.275-1.85-.772-3.715-1.491-1.865-.719-3.6-1.412-5.204-2.08a207.283 207.283 0 0 1-5.143-2.232 642.455 642.455 0 0 1-5.494-2.497 190.187 190.187 0 0 0-5.191-2.303c-1.624-.689-3.654-1.624-6.09-2.805-2.437-1.181-4.692-2.12-6.767-2.815" style="fill:none;stroke:#ff00a2;stroke-width:1.8189;stroke-linecap:round;stroke-linejoin:round;stroke-miterlimit:10;stroke-dasharray:none;stroke-opacity:1" transform="matrix(.72727 0 0 .72727 -129.89 -226.676)"/><path d="M308.426 388.979c-.354.265-1.178.735-2.471 1.412a96.19 96.19 0 0 1-3.328 1.671c-.925.439-2.09.97-3.496 1.597a231.527 231.527 0 0 1-4.531 1.956 480.54 480.54 0 0 1-4.86 2.01 81.086 81.086 0 0 0-4.682 2.076c-2.22 1.072-4.65 2.437-7.292 4.095M270.657 367.11c.214.378 1.091.92 2.63 1.627 1.54.707 3.243 1.474 5.11 2.3 1.868.825 3.987 1.72 6.357 2.682a297.95 297.95 0 0 1 7.06 2.972 253.831 253.831 0 0 1 5.872 2.636c2.3 1.075 5.823 2.654 10.568 4.737" style="fill:none;stroke:#fcfcfc;stroke-width:1.8189;stroke-linecap:round;stroke-linejoin:round;stroke-miterlimit:10;stroke-dasharray:none;stroke-opacity:1" transform="matrix(.72727 0 0 .72727 -129.89 -226.676)"/><path d="M273.845 330.828c.71 1.246 1.635 2.79 2.772 4.63a60.098 60.098 0 0 0 2.647 3.894 440.998 440.998 0 0 1 3.335 4.617 197.718 197.718 0 0 1 3.815 5.567c1.347 2.033 2.741 4.355 4.181 6.963 1.44 2.61 2.947 5.332 4.521 8.168 1.574 2.837 3.15 5.62 4.728 8.353 2.32 4.018 5.614 8.829 9.884 14.433" style="fill:none;stroke:#fcfcfc;stroke-width:1.8189;stroke-linecap:round;stroke-linejoin:round;stroke-miterlimit:10;stroke-dasharray:none;stroke-opacity:1" transform="matrix(.72727 0 0 .72727 -129.89 -226.676)"/></svg>