<svg xmlns="http://www.w3.org/2000/svg" width="85.544" height="123.963"><path d="M276.423 317.056c.591.44.954.715 1.088.824a18.325 18.325 0 0 0 1.044.767c.135.091.328.232.58.42.25.19.504.388.76.596.258.208.509.415.754.621.246.207.617.505 1.113.894.496.39 1.015.832 1.56 1.328.543.497 1.112 1.01 1.706 1.54.594.53 1.193 1.073 1.797 1.629.604.556 1.218 1.114 1.84 1.676.622.561 1.257 1.123 1.905 1.685a89.169 89.169 0 0 1 1.97 1.761c.665.613 1.334 1.215 2.006 1.808.672.593 1.36 1.204 2.066 1.832a91.323 91.323 0 0 1 2.11 1.94c.702.665 1.413 1.334 2.134 2.005.72.67 1.447 1.351 2.178 2.041.731.69 1.449 1.362 2.152 2.015.704.654 1.415 1.324 2.134 2.012a132.05 132.05 0 0 0 4.322 3.95M277.338 315.5c.591.441.954.716 1.087.824a18.29 18.29 0 0 0 1.044.767c.136.092.329.232.58.42.251.19.505.388.762.596.256.208.508.415.753.622.246.206.617.504 1.113.893.496.39 1.015.832 1.559 1.329.543.496 1.112 1.009 1.707 1.539.594.53 1.193 1.073 1.797 1.629.604.556 1.218 1.115 1.84 1.676a129.7 129.7 0 0 0 1.905 1.685 89.195 89.195 0 0 1 1.97 1.761c.665.613 1.334 1.216 2.006 1.809.672.592 1.36 1.203 2.066 1.831a91.118 91.118 0 0 1 2.11 1.94c.701.666 1.412 1.334 2.133 2.005.721.671 1.448 1.352 2.179 2.042.731.69 1.449 1.361 2.152 2.015.704.653 1.415 1.324 2.134 2.012a132.49 132.49 0 0 0 4.322 3.95M268.986 309.718c-.01-.046.002-.148.04-.307.037-.159.126-.333.265-.523s.247-.318.326-.386a1.14 1.14 0 0 1 .329-.182c.14-.054.286-.09.438-.106a1.25 1.25 0 0 1 .427.024.63.63 0 0 1 .344.224c.096.117.17.285.22.503.051.218.078.46.081.725a3.79 3.79 0 0 1-.091.844 5.923 5.923 0 0 1-.267.887 5.5 5.5 0 0 1-.416.85 4.951 4.951 0 0 1-1.254 1.393 2.506 2.506 0 0 1-.742.383c-.257.08-.507.117-.75.111a1.445 1.445 0 0 1-1.22-.717 2.758 2.758 0 0 1-.317-.725 3.35 3.35 0 0 1-.017-1.656c.071-.279.168-.545.293-.797.124-.253.21-.417.258-.491a3 3 0 0 1 .27-.33c.13-.146.29-.294.477-.445.187-.15.375-.259.564-.325.19-.065.382-.1.58-.102.196-.002.387.034.57.108.185.074.355.177.51.31.155.134.254.227.3.279a1.3 1.3 0 0 1 .113.152c.031.05.07.123.118.219.047.096.097.268.152.516.054.248.08.508.076.78-.003.273-.05.544-.14.814-.09.27-.222.519-.395.75-.173.23-.369.43-.587.598a2.433 2.433 0 0 1-.72.384 2.313 2.313 0 0 1-.793.122 1.764 1.764 0 0 1-.782-.208 2.544 2.544 0 0 1-.674-.506 2.08 2.08 0 0 1-.444-.71 2.423 2.423 0 0 1-.157-.82 2.594 2.594 0 0 1 .146-.87 4.21 4.21 0 0 1 1.912-2.276c.282-.153.568-.265.856-.336.288-.071.56-.098.817-.079.256.019.492.088.706.208.214.12.393.287.536.502.143.214.246.46.31.737a3.071 3.071 0 0 1-.177 1.858 4.032 4.032 0 0 1-1.25 1.594 3.748 3.748 0 0 1-.866.499 4.662 4.662 0 0 1-.6.215c-.095.02-.178.032-.248.034a3.073 3.073 0 0 1-.31-.013c-.137-.011-.322-.081-.557-.211a1.484 1.484 0 0 1-.565-.556c-.142-.241-.228-.41-.257-.506a1.85 1.85 0 0 1-.061-.274 4.136 4.136 0 0 1-.038-.618c0-.154 0-.272.003-.354.003-.081.01-.162.022-.243.013-.08.029-.163.05-.247.02-.085.04-.165.063-.242.023-.077.047-.15.075-.219.028-.069.152-.249.373-.539.222-.29.414-.493.577-.61.163-.115.278-.188.345-.219.068-.03.203-.058.405-.084.202-.025.405 0 .608.074.204.074.368.193.494.357.126.164.242.438.348.822.106.383.163.753.174 1.108.01.356-.029.706-.115 1.05-.087.345-.21.652-.372.919a2.05 2.05 0 0 1-.559.625c-.21.15-.428.233-.652.25a1.19 1.19 0 0 1-.678-.162 1.865 1.865 0 0 1-.567-.475 1.959 1.959 0 0 1-.32-.544 2.414 2.414 0 0 1-.11-.376 2.527 2.527 0 0 1-.024-.331 6.305 6.305 0 0 1-.002-.296c.002-.056.01-.115.021-.177.012-.062.027-.122.044-.182a4.04 4.04 0 0 1 .103-.286 3.521 3.521 0 0 1 .223-.49c.037-.07.077-.134.119-.195.04-.06.198-.195.472-.406.273-.21.447-.335.52-.373.073-.039.134-.066.182-.081.049-.016.2.003.454.056.254.054.446.157.578.308.13.151.223.338.277.56.054.22.076.455.067.702-.01.247-.068.509-.174.785a2.398 2.398 0 0 1-.425.723 2.184 2.184 0 0 1-.556.473.977.977 0 0 1-.588.137.86.86 0 0 1-.496-.198 1.342 1.342 0 0 1-.248-.255.934.934 0 0 1-.082-.174 1.24 1.24 0 0 1-.05-.2 2.509 2.509 0 0 1-.027-.306 8.416 8.416 0 0 1-.007-.32c0-.084.009-.16.024-.23a2.316 2.316 0 0 1 .118-.39 3.777 3.777 0 0 1 .185-.407c.032-.061.156-.211.371-.45.216-.239.404-.393.565-.462a.977.977 0 0 1 .46-.088c.146.01.262.055.347.132a.748.748 0 0 1 .169.199c.027.054.055.202.084.443.03.241.032.492.007.752-.024.26-.082.52-.173.78a2.21 2.21 0 0 1-.321.627c-.123.159-.248.26-.376.306a.448.448 0 0 1-.385-.042c-.13-.074-.236-.217-.321-.43a2.116 2.116 0 0 1-.141-.709 2.778 2.778 0 0 1 .091-.796c.07-.272.166-.528.287-.768a2.78 2.78 0 0 1 .406-.609c.148-.165.3-.281.452-.347.153-.066.29-.064.409.006.12.07.2.203.243.4.042.198.057.439.043.724a3.193 3.193 0 0 1-.526 1.583 2.091 2.091 0 0 1-.485.53 1.05 1.05 0 0 1-.503.217.535.535 0 0 1-.442-.16c-.13-.124-.218-.302-.26-.534a2.272 2.272 0 0 1-.003-.747c.04-.265.113-.529.216-.79.103-.26.22-.485.352-.674a2.24 2.24 0 0 1 .403-.454.873.873 0 0 1 .414-.204.428.428 0 0 1 .373.118c.11.101.193.261.25.479.055.218.087.463.094.737.007.273-.018.526-.074.758-.056.232-.13.428-.224.588-.092.16-.19.263-.291.311-.102.048-.198.029-.289-.057-.09-.087-.164-.231-.22-.434a2.718 2.718 0 0 1-.091-.688 3.694 3.694 0 0 1 .253-1.35c.066-.16.125-.284.177-.374.053-.09.104-.161.154-.214a.46.46 0 0 1 .139-.108.252.252 0 0 1 .124-.022c.04.003.08.098.12.285.038.186.048.404.029.653-.02.249-.063.51-.131.782a3.981 3.981 0 0 1-.48 1.165c-.07.109-.128.174-.175.194-.047.02-.087-.033-.118-.162a3.759 3.759 0 0 1-.034-1.234c.033-.243.083-.447.15-.612a1.23 1.23 0 0 1 .176-.328c.05-.054.09-.084.122-.091.032-.007.062.004.09.03.027.028.047.074.058.138.01.065.017.18.019.342.002.163-.006.318-.023.464-.017.146-.065.422-.145.826-.08.404-.154.722-.224.955-.07.233-.131.389-.185.467-.054.078-.103.086-.147.024-.045-.061-.077-.207-.099-.437a8.416 8.416 0 0 1-.034-.719c-.002-.249.009-.459.033-.63.024-.17.05-.288.078-.35.028-.062.053-.068.076-.017.023.051.04.15.05.298.01.147.017.313.022.498.005.185.01.337.016.455.006.12.02.215.045.287.024.072.052.071.085-.003.032-.074.06-.204.083-.39.024-.185.045-.387.062-.605.017-.218.03-.409.037-.571a6.44 6.44 0 0 1 .024-.377v.017l.001.338c0 .213.011.399.032.56.021.16.058.292.11.395.05.103.113.16.187.172.073.012.137-.048.191-.181a1.81 1.81 0 0 0 .107-.539c.016-.226.025-.452.027-.68.002-.227.002-.425 0-.592a34.897 34.897 0 0 1-.003-.39v-.149.117c0 .074.004.187.011.34.008.152.036.329.086.53.05.202.106.375.167.521.062.146.117.23.168.254.05.022.09-.044.12-.2.031-.156.05-.342.056-.56.006-.218.01-.406.01-.564a4.728 4.728 0 0 0-.076-.846c-.016-.05-.037-.06-.066-.032-.028.028-.057.104-.087.227a2.037 2.037 0 0 0-.031.762c.02.1.043.166.068.197.025.031.048.025.07-.02.02-.046.033-.145.039-.298a3.766 3.766 0 0 0-.02-.501 2.452 2.452 0 0 0-.074-.43 1.353 1.353 0 0 0-.08-.224.375.375 0 0 0-.06-.089c-.015-.015-.031-.019-.049-.01-.018.007-.034.052-.05.135-.015.082-.02.2-.017.35.004.152.027.305.07.46.043.154.088.27.137.347.048.077.1.117.154.121.054.004.11-.03.17-.104.06-.073.113-.167.16-.281a2.26 2.26 0 0 0 .16-.627c.005-.072.001-.118-.01-.139-.012-.02-.03-.002-.058.057-.027.058-.044.17-.052.334-.008.165.005.337.038.516a3.688 3.688 0 0 0 .337.983c.064.118.124.18.18.186.055.007.097-.064.124-.212.028-.148.043-.31.046-.485a8.392 8.392 0 0 0-.003-.459c-.005-.13-.01-.22-.016-.269-.006-.049-.02-.066-.044-.05a.537.537 0 0 0-.112.157c-.05.09-.097.193-.142.309a1.627 1.627 0 0 0-.089.316 1.99 1.99 0 0 0-.025.198c-.002.038.005.052.02.042.014-.01.036-.06.066-.148.03-.09.054-.192.073-.308a2.853 2.853 0 0 0 .041-.551c0-.006-.002-.005-.006.002l-.028.053a.629.629 0 0 0-.044.164c-.014.08-.022.146-.024.2 0 .053.004.085.017.096.017.015.097-.147.241-.485" style="fill:none;stroke:#007aff;stroke-width:.734143;stroke-linecap:round;stroke-linejoin:round;stroke-miterlimit:10;stroke-dasharray:none;stroke-opacity:1" transform="matrix(.72727 0 0 .72727 -183.015 -196.099)"/><path d="M270.407 310.746c.034-.08.057-.14.07-.184a.348.348 0 0 0 .01-.103c-.001-.038-.016-.058-.043-.06-.027 0-.06.025-.098.075a.967.967 0 0 0-.112.207 3.27 3.27 0 0 0-.112.322 3.05 3.05 0 0 0-.078.305 1.352 1.352 0 0 0-.02.157l.001-.005.023-.075c.013-.046.04-.163.078-.35.039-.188.062-.295.07-.321.012-.038.093-.145.243-.322M270.23 299.986c.211-.118.422-.27.632-.457.21-.187.41-.39.6-.612.191-.22.36-.457.507-.71.148-.251.272-.505.374-.76.101-.255.172-.446.213-.574a3.81 3.81 0 0 0 .093-.334 3.2 3.2 0 0 0 .05-.455 4.312 4.312 0 0 0-.09-1.063M272.878 294.936c.18.033.324.08.43.14.074.042.15.092.23.151.081.06.163.137.248.232.084.094.169.211.254.35.085.14.167.293.246.46.08.168.144.37.195.607.05.237.081.494.092.771.01.278.008.548-.01.812-.024.386-.12.919-.287 1.6M274.373 300.424c.015.066.059.14.13.226.07.085.17.215.295.388.126.173.229.305.309.396.08.09.15.162.208.215a2.842 2.842 0 0 0 .41.303c.08.048.182.104.308.167.125.064.253.117.381.16.129.044.242.078.341.102.099.024.197.04.296.047.098.008.207.012.325.013a2.251 2.251 0 0 0 .751-.126c.142-.05.313-.115.514-.198.2-.082.435-.189.704-.319.268-.13.552-.271.85-.424a29.489 29.489 0 0 1 1.85-.837M275.413 307.407a.508.508 0 0 1-.08-.322c.01-.064.055-.173.135-.324a3.913 3.913 0 0 1 .4-.629 5.938 5.938 0 0 1 .572-.651c.115-.115.219-.21.31-.286.09-.076.217-.174.38-.293.163-.12.37-.266.62-.44s.51-.356.778-.547c.268-.191.472-.332.613-.423.14-.09.282-.172.426-.245a5.05 5.05 0 0 1 .61-.243c.264-.09.53-.156.799-.198a6.39 6.39 0 0 1 .858-.072c.303-.006.578.01.825.047s.5.078.759.12c.381.065.853.101 1.416.11M282.145 300.54a4.889 4.889 0 0 0 .56-.465c.078-.075.241-.253.49-.537.247-.284.527-.573.838-.87.498-.473.774-.829.828-1.066M285.116 297.89c0 .318.013.615.038.892.017.187.024.397.023.632a2.65 2.65 0 0 1-.285 1.204c-.126.244-.35.558-.674.942M284.156 301.911c.025-.13.115-.268.269-.412.1-.095.188-.164.26-.207.074-.042.196-.096.366-.161.17-.066.374-.13.612-.193.346-.092.874-.18 1.585-.265M284.987 302.931a.62.62 0 0 0 .238-.007c.092-.018.184-.039.278-.064a3.99 3.99 0 0 0 .38-.13c.159-.061.337-.16.534-.295.284-.196.743-.653 1.378-1.372M275.318 307.824c.25.003.465.02.646.053.123.023.291.067.506.132.215.065.481.161.798.287.317.126.594.257.832.393.237.136.46.294.67.472.303.258.843.957 1.622 2.097M277.207 315.195c.026-.02.071-.12.136-.3.037-.104.081-.24.133-.408a18.601 18.601 0 0 0 .335-1.271c.055-.25.1-.518.133-.807.05-.426.037-.915-.037-1.465M277.803 310.792l-.096-.023h0l.011.004.216.073c.135.046.293.097.475.156.26.083.865.155 1.812.215M275.79 317.236c-.024.09-.16.263-.411.517-.251.255-.453.451-.606.589-.153.137-.33.282-.531.435-.202.153-.431.33-.688.53-.258.201-.535.397-.831.59-.296.192-.6.353-.912.482-.312.13-.633.23-.965.299-.33.069-.68.114-1.049.135-.368.021-.773.021-1.214 0-.639-.032-1.69-.348-3.156-.95M260.787 305.761c.046-.228.08-.442.106-.644.024-.202.039-.406.043-.614a3.918 3.918 0 0 0-.066-.733 5.967 5.967 0 0 0-.23-.885 17.846 17.846 0 0 0-.352-.952c-.131-.326-.26-.631-.385-.916a48.669 48.669 0 0 1-.358-.834c-.114-.271-.218-.53-.314-.776a17.03 17.03 0 0 1-.486-1.536M261.318 298.017a.52.52 0 0 1-.187-.017c-.027-.01-.053-.057-.077-.14-.025-.082-.038-.114-.04-.096a8.286 8.286 0 0 0-.012.141c-.006.075.012.193.055.352.043.16.103.344.182.55.078.207.175.429.29.665.116.237.258.495.427.776.169.281.354.547.554.798.2.25.404.49.61.722.205.23.39.42.557.565.242.213.655.448 1.24.706" style="fill:none;stroke:#007aff;stroke-width:.734143;stroke-linecap:round;stroke-linejoin:round;stroke-miterlimit:10;stroke-dasharray:none;stroke-opacity:1" transform="matrix(.72727 0 0 .72727 -183.015 -196.099)"/><path d="M264.994 302.876c-.016.043-.004.068.033.076a.204.204 0 0 0 .091-.003c.034-.008.13-.072.288-.191.157-.12.302-.233.432-.34.13-.106.276-.231.435-.376.158-.145.329-.293.511-.445.182-.152.389-.307.62-.465l.691-.47c.23-.157.462-.298.694-.424.232-.127.466-.232.702-.318.347-.125.794-.247 1.34-.366M258.594 297.566c-.042-.155-.092-.36-.15-.611a32.665 32.665 0 0 1-.258-1.223 6.969 6.969 0 0 1-.093-.664 8.433 8.433 0 0 1-.032-1.341c.017-.313.085-.665.204-1.056M259.805 295.603c-.036-.1-.061-.187-.074-.258a1.505 1.505 0 0 0-.05-.183 4.775 4.775 0 0 0-.202-.454c-.11-.23-.204-.434-.282-.614-.077-.18-.153-.36-.228-.542a2.575 2.575 0 0 0-.406-.693M260.111 295.906a.235.235 0 0 1-.076-.18c0-.05.011-.103.036-.162.024-.058.069-.142.134-.253.066-.11.15-.235.253-.374.103-.14.23-.272.38-.397.15-.124.306-.227.47-.307.238-.118.602-.186 1.092-.205M261.209 297.726c-.003.023.023.02.075-.01.053-.03.11-.071.173-.126.062-.054.13-.124.203-.208a2.885 2.885 0 0 0 .469-.767c.077-.18.143-.36.2-.543.056-.182.106-.364.15-.544.066-.262.129-.668.19-1.219M265.394 319.94a3.868 3.868 0 0 1-.343-.098 15.352 15.352 0 0 0-.662-.18c-.353-.09-.64-.165-.86-.224-.219-.059-.432-.114-.64-.167a6.23 6.23 0 0 0-1.322-.19c-.235-.01-.48-.012-.735-.01-.255.004-.525.021-.81.055a7.104 7.104 0 0 0-.892.164c-.308.077-.73.233-1.268.467a1069.503 1069.503 0 0 0-1.812.79c-.306.132-.74.296-1.305.493M256.383 319.092l.064-.035c.005-.002.002-.003-.009-.001l-.084.013a.617.617 0 0 0-.187.079 2.54 2.54 0 0 0-.272.183c-.102.076-.22.17-.357.282-.136.112-.278.226-.424.341-.22.173-.418.367-.596.58M256.448 318.795a1.22 1.22 0 0 1-.491-.026 4.645 4.645 0 0 1-.3-.08 13.08 13.08 0 0 1-.383-.129 3.521 3.521 0 0 1-1.058-.547 7.093 7.093 0 0 1-.613-.503c-.293-.268-.7-.713-1.221-1.335M256.07 317.084c-.209-.023-.51-.099-.904-.227-.25-.082-.476-.158-.679-.229-.203-.07-.417-.148-.642-.234a34.755 34.755 0 0 1-.67-.265 35.316 35.316 0 0 1-1.162-.503M256.31 317.187a2.4 2.4 0 0 0 .423-.099c.203-.06.396-.127.58-.201.184-.074.364-.15.54-.226a3.995 3.995 0 0 0 .968-.594c.158-.127.316-.272.474-.435.158-.162.301-.342.43-.54.128-.199.24-.39.337-.574.096-.184.178-.371.245-.561M260.233 313.43a4.591 4.591 0 0 1-.28-.316 19.52 19.52 0 0 1-.38-.466 6.559 6.559 0 0 0-.276-.333 3.437 3.437 0 0 0-.265-.26 4.524 4.524 0 0 0-.373-.293 13.652 13.652 0 0 1-.982-.784c-.168-.148-.33-.288-.487-.422a32.186 32.186 0 0 1-.957-.852c-.14-.131-.308-.287-.505-.467a8.24 8.24 0 0 1-.55-.55c-.25-.274-.553-.681-.911-1.221M255.782 306.644c-.031.017-.042.06-.032.127a.346.346 0 0 0 .044.128.86.86 0 0 0 .125.153c.06.062.214.207.464.437s.466.421.65.576a5.45 5.45 0 0 0 1.302.81c.26.117.512.21.757.278.36.1.797.117 1.31.05M260.387 309.14c-.005-.073.02-.224.078-.453.034-.14.065-.269.091-.388.026-.12.072-.385.137-.797a9.86 9.86 0 0 0 .11-.852 6.605 6.605 0 0 0-.016-1.064 4.853 4.853 0 0 1-.022-.61M254.17 307.21a.655.655 0 0 1-.331-.089 1.697 1.697 0 0 1-.355-.267 5.975 5.975 0 0 1-.325-.332 4.129 4.129 0 0 1-.282-.355 9.843 9.843 0 0 1-.552-.917M252.739 305.33a.115.115 0 0 1 .078-.064.871.871 0 0 1 .428.008c.102.026.218.078.348.156.19.115.448.36.777.738M254.613 306.277a.533.533 0 0 1-.086-.166.884.884 0 0 1-.028-.163 2.368 2.368 0 0 1-.01-.217 2.788 2.788 0 0 1 .112-.732c.063-.222.196-.492.398-.81" style="fill:none;stroke:#007aff;stroke-width:.734143;stroke-linecap:round;stroke-linejoin:round;stroke-miterlimit:10;stroke-dasharray:none;stroke-opacity:1" transform="matrix(.72727 0 0 .72727 -183.015 -196.099)"/><path d="M255.554 304.104a.427.427 0 0 0-.098.19c-.006.038-.01.14-.01.308-.002.167.007.338.025.512.018.175.053.36.103.557.05.197.114.409.19.636.114.34.287.667.518.985M312.97 346.962a.35.35 0 0 1 .108-.097c.048-.03.107-.059.178-.087.07-.028.218-.074.441-.139.224-.064.4-.116.527-.154.127-.038.26-.076.396-.113.138-.037.282-.071.434-.103.152-.031.307-.057.465-.077.158-.02.481-.048.969-.083.488-.034.811-.053.97-.055a46.009 46.009 0 0 1 1.218.004c.314.006.849-.024 1.606-.09M320.428 346.448h.026c.002 0-.003.003-.013.009l-.082.044a2.347 2.347 0 0 1-.223.096 18.352 18.352 0 0 1-1.283.432c-.148.044-.293.08-.435.11-.142.03-.33.06-.563.09a229.308 229.308 0 0 0-.962.127c-.146.02-.297.042-.455.07l-.35.063a4.563 4.563 0 0 0-.33.083 4.82 4.82 0 0 0-.324.1 4.083 4.083 0 0 0-.682.326 3.633 3.633 0 0 0-.234.159c-.079.058-.15.12-.212.184a.824.824 0 0 0-.2.36M315.595 353.514a1.264 1.264 0 0 0-.011-.3 3.82 3.82 0 0 0-.078-.278 13.3 13.3 0 0 1-.08-.269.765.765 0 0 0-.04-.111 1.49 1.49 0 0 0-.111-.183 4.102 4.102 0 0 1-.136-.21 1.564 1.564 0 0 1-.085-.167 3.224 3.224 0 0 0-.142-.268c-.07-.12-.12-.209-.155-.265a2.782 2.782 0 0 1-.09-.158 2.998 2.998 0 0 1-.179-.483 7.024 7.024 0 0 1-.12-.524 10.535 10.535 0 0 1-.11-.723 2.64 2.64 0 0 1-.014-.249c0-.128.035-.327.108-.598M315.07 353.469a.853.853 0 0 1-.251-.096 1.982 1.982 0 0 1-.19-.117 1.587 1.587 0 0 1-.13-.109 2.51 2.51 0 0 1-.296-.312 4.775 4.775 0 0 1-.478-.748 5.67 5.67 0 0 1-.116-.24 5.902 5.902 0 0 1-.146-.37 9.254 9.254 0 0 0-.2-.496c-.075-.171-.13-.304-.168-.399a3.796 3.796 0 0 0-.123-.281 6.654 6.654 0 0 0-.357-.619 10.726 10.726 0 0 0-.456-.647 10.751 10.751 0 0 0-.51-.605" style="fill:none;stroke:#007aff;stroke-width:.734143;stroke-linecap:round;stroke-linejoin:round;stroke-miterlimit:10;stroke-dasharray:none;stroke-opacity:1" transform="matrix(.72727 0 0 .72727 -183.015 -196.099)"/><path d="M315.442 385.506c.183.716.293 1.159.33 1.328a18.266 18.266 0 0 0 .331 1.256 26.344 26.344 0 0 1 .407 1.637c.07.323.135.643.196.958.062.316.164.782.306 1.398a27.7 27.7 0 0 1 .38 2.018c.111.729.232 1.487.362 2.275.13.787.256 1.588.377 2.402.121.814.248 1.636.38 2.466.132.83.274 1.668.425 2.514.152.845.295 1.717.428 2.614.133.897.276 1.788.427 2.673.151.886.304 1.796.459 2.73.155.935.296 1.882.424 2.842.129.96.263 1.93.403 2.907.14.977.278 1.965.414 2.964.136.998.273 1.974.41 2.927.138.953.27 1.923.398 2.912a131.87 131.87 0 0 0 .885 5.802M317.135 384.869c.184.716.293 1.158.33 1.327.036.169.088.381.157.637.068.256.126.462.174.618.048.157.11.388.187.693.077.306.15.62.22.944.07.324.135.644.196.96.062.315.164.781.306 1.397s.268 1.289.38 2.018c.112.73.232 1.488.362 2.275.13.788.256 1.589.377 2.403.121.814.248 1.636.38 2.466.132.83.274 1.667.425 2.513.152.846.295 1.717.428 2.614.133.897.276 1.788.427 2.674.151.885.304 1.795.459 2.73.155.934.296 1.881.424 2.842.129.96.263 1.929.403 2.906.14.977.278 1.965.414 2.964.136.999.273 1.974.41 2.927.138.953.27 1.924.398 2.913a133.226 133.226 0 0 0 .885 5.802M314.26 375.1c.02-.042.094-.114.224-.214a1.5 1.5 0 0 1 .536-.242c.228-.06.393-.092.497-.095.104-.003.228.019.371.065.144.045.28.11.409.193.128.083.234.179.318.288.084.109.126.239.127.39.001.153-.047.33-.144.532a3.382 3.382 0 0 1-.394.617c-.165.209-.365.409-.602.6a5.932 5.932 0 0 1-.767.524c-.275.158-.561.292-.86.4a4.973 4.973 0 0 1-1.855.299 2.511 2.511 0 0 1-.82-.169 2.33 2.33 0 0 1-.655-.386 1.447 1.447 0 0 1-.5-1.326c.034-.27.104-.526.21-.766a3.359 3.359 0 0 1 1.028-1.302c.231-.173.475-.32.73-.438a6.05 6.05 0 0 1 .511-.22c.085-.028.225-.058.418-.089.194-.03.411-.046.652-.046.241 0 .456.035.645.102.189.068.36.163.516.285.155.122.28.27.378.444.098.174.165.361.202.563.036.201.056.336.058.405.002.07 0 .133-.007.191-.007.058-.022.14-.046.244a2.58 2.58 0 0 1-.206.499 3.472 3.472 0 0 1-.432.657c-.174.21-.381.392-.621.546-.24.153-.5.265-.78.336-.28.07-.558.103-.835.097a2.437 2.437 0 0 1-.803-.153 2.318 2.318 0 0 1-.696-.404 1.772 1.772 0 0 1-.479-.655 2.55 2.55 0 0 1-.207-.819c-.023-.282.01-.56.1-.833.091-.273.222-.52.394-.74.172-.22.393-.415.661-.586a4.22 4.22 0 0 1 2.924-.572c.317.06.61.151.88.277.27.126.5.277.687.453.189.176.329.378.42.607.092.229.126.471.102.729a2.206 2.206 0 0 1-.223.77 3.076 3.076 0 0 1-1.306 1.338 4.054 4.054 0 0 1-1.98.456 3.762 3.762 0 0 1-.989-.156 4.673 4.673 0 0 1-.603-.208 1.43 1.43 0 0 1-.215-.13 3.25 3.25 0 0 1-.233-.206c-.1-.095-.2-.266-.302-.515a1.488 1.488 0 0 1-.091-.79c.04-.278.08-.463.118-.557.038-.093.08-.177.124-.251a4.16 4.16 0 0 1 .36-.507c.097-.12.172-.212.225-.274.054-.061.11-.12.171-.175.06-.055.125-.11.194-.162.069-.053.136-.103.202-.149a2.39 2.39 0 0 1 .196-.123c.065-.037.275-.099.63-.186.356-.087.634-.124.834-.112.2.012.336.027.408.046.071.019.194.082.368.19.174.107.317.254.429.44.112.185.165.382.16.59-.005.207-.087.493-.246.859s-.346.69-.563.974a3.856 3.856 0 0 1-.75.747 3.34 3.34 0 0 1-.869.482c-.294.107-.57.153-.829.137a1.296 1.296 0 0 1-.666-.216 1.194 1.194 0 0 1-.427-.553 1.871 1.871 0 0 1-.143-.728 1.96 1.96 0 0 1 .093-.625c.06-.173.11-.294.15-.364.04-.069.103-.16.19-.272.087-.113.149-.19.185-.233.037-.042.08-.084.128-.124a2.07 2.07 0 0 1 .149-.114 4.09 4.09 0 0 1 .26-.16 3.546 3.546 0 0 1 .482-.242c.073-.03.145-.055.215-.076.07-.02.279-.028.625-.02s.56.02.64.036c.081.016.146.034.194.052.048.018.154.128.318.33.164.201.25.403.257.603.007.201-.038.405-.136.612a2.536 2.536 0 0 1-.39.59 2.48 2.48 0 0 1-.63.503c-.256.15-.518.248-.787.296a2.187 2.187 0 0 1-.73.02.98.98 0 0 1-.546-.264.863.863 0 0 1-.262-.467 1.337 1.337 0 0 1-.033-.355.934.934 0 0 1 .045-.188c.021-.059.05-.122.087-.187.037-.066.094-.151.172-.255.077-.105.142-.19.196-.254.054-.065.108-.12.164-.165a2.334 2.334 0 0 1 .337-.23 3.736 3.736 0 0 1 .4-.2c.065-.028.256-.067.574-.118.318-.05.562-.052.731-.005a.98.98 0 0 1 .415.221c.107.1.17.208.187.322.018.115.02.202.007.261-.013.06-.085.193-.214.4a3.532 3.532 0 0 1-.467.59 3.29 3.29 0 0 1-.626.5 2.22 2.22 0 0 1-.646.287c-.195.046-.357.046-.485.002a.449.449 0 0 1-.274-.275c-.055-.139-.048-.318.02-.538.069-.22.18-.434.336-.642.155-.207.346-.395.572-.563.226-.168.462-.307.708-.418.246-.111.479-.184.7-.22.22-.035.41-.03.57.014.161.045.266.132.316.262.05.13.029.285-.062.466a2.87 2.87 0 0 1-.422.591 3.2 3.2 0 0 1-1.407.904c-.26.081-.498.117-.712.108a1.048 1.048 0 0 1-.53-.148.537.537 0 0 1-.243-.402c-.024-.18.02-.373.133-.58a2.27 2.27 0 0 1 .468-.585c.199-.182.42-.342.666-.48.244-.138.477-.24.699-.305.221-.065.421-.098.6-.1.18-.003.33.031.452.101a.43.43 0 0 1 .216.327c.022.149-.013.325-.107.53a3.294 3.294 0 0 1-.39.635c-.167.217-.345.4-.535.545-.19.146-.372.252-.544.318-.173.066-.315.086-.424.059-.11-.027-.172-.102-.189-.226-.016-.125.018-.284.101-.478.084-.194.205-.392.362-.594a3.702 3.702 0 0 1 1.048-.894c.152-.083.276-.143.374-.18.097-.036.182-.06.254-.07a.458.458 0 0 1 .176.004.252.252 0 0 1 .112.06c.03.028 0 .127-.087.297-.087.17-.217.346-.388.529a4.76 4.76 0 0 1-.595.528 3.99 3.99 0 0 1-1.107.606c-.123.041-.21.055-.259.041-.05-.014-.047-.08.01-.2a3.792 3.792 0 0 1 .75-.984c.18-.17.347-.297.503-.383.157-.086.271-.134.344-.145.072-.011.123-.01.152.005.03.014.046.041.05.08.006.039-.008.087-.04.144a2.57 2.57 0 0 1-.2.279 3.684 3.684 0 0 1-.31.347c-.106.104-.317.288-.633.553-.317.265-.575.467-.777.605-.2.138-.347.22-.438.247-.092.027-.135.002-.13-.073.004-.076.07-.21.198-.404.128-.193.27-.387.426-.582.155-.196.296-.352.422-.47.127-.119.22-.194.282-.225.06-.03.084-.02.07.035a1.016 1.016 0 0 1-.15.263 12.08 12.08 0 0 1-.296.403 22.07 22.07 0 0 0-.274.365 1.08 1.08 0 0 0-.145.252c-.026.072-.004.089.068.051.072-.038.176-.121.311-.251s.278-.275.43-.434c.15-.16.28-.3.387-.422.108-.122.177-.199.208-.23l.049-.048-.01.013c-.01.01-.08.099-.213.264a4.377 4.377 0 0 0-.327.457c-.085.138-.14.264-.164.377-.025.113-.012.197.038.253.05.055.137.048.263-.021.126-.07.267-.188.422-.354.155-.166.305-.337.45-.513.145-.176.269-.33.373-.462a38.4 38.4 0 0 1 .335-.421l.003-.003-.002.002-.074.091a7.154 7.154 0 0 0-.205.272c-.09.124-.179.28-.267.468-.087.189-.153.36-.197.512-.045.152-.054.253-.03.303.026.05.099.023.22-.08.122-.102.254-.236.396-.402.142-.166.263-.31.364-.433a4.728 4.728 0 0 0 .472-.708c.02-.049.01-.071-.03-.067-.04.004-.11.045-.212.123a2.039 2.039 0 0 0-.503.575.532.532 0 0 0-.071.196c0 .04.022.05.066.028.045-.022.118-.091.218-.207.1-.117.201-.251.301-.404.1-.153.171-.28.213-.382.042-.101.068-.177.078-.226a.367.367 0 0 0 .01-.106c-.003-.021-.013-.034-.032-.04-.019-.004-.06.02-.124.075a1.794 1.794 0 0 0-.235.263c-.092.12-.17.254-.234.402a1.367 1.367 0 0 0-.112.357c-.01.09.004.154.044.192.04.037.106.045.198.026.092-.02.193-.06.302-.119a2.261 2.261 0 0 0 .52-.388c.05-.054.075-.092.08-.115.003-.023-.024-.02-.081.008-.058.028-.142.104-.252.228-.11.124-.209.266-.295.426a3.697 3.697 0 0 0-.356.98c-.024.131-.016.217.023.258.04.04.117.011.231-.087.115-.099.228-.215.341-.35.113-.135.208-.255.286-.36.078-.104.13-.178.157-.22.027-.042.026-.064-.002-.067a.54.54 0 0 0-.186.053 2.335 2.335 0 0 0-.305.151 1.633 1.633 0 0 0-.269.19c-.071.065-.12.111-.144.14-.025.028-.029.043-.011.044.017.002.066-.023.145-.073.08-.051.163-.116.25-.194a2.862 2.862 0 0 0 .38-.404c.003-.005.002-.005-.006-.002a.623.623 0 0 0-.193.124c-.061.053-.11.1-.144.14-.035.041-.05.07-.048.086.004.022.169-.053.494-.227" style="fill:none;stroke:#007aff;stroke-width:.735932;stroke-linecap:round;stroke-linejoin:round;stroke-miterlimit:10;stroke-dasharray:none;stroke-opacity:1" transform="matrix(.72727 0 0 .72727 -183.318 -195.292)"/><path d="M314.721 376.797a1.7 1.7 0 0 0 .17-.1.338.338 0 0 0 .072-.074c.024-.031.025-.056.004-.073-.02-.018-.061-.02-.123-.004a.963.963 0 0 0-.217.09c-.083.045-.18.105-.29.181a3.07 3.07 0 0 0-.253.19c-.058.05-.092.08-.1.09l-.016.019.005-.002.065-.045c.04-.027.134-.102.282-.224.148-.122.234-.19.257-.206.033-.022.163-.055.391-.098M321.357 368.29c.239.042.499.055.78.042.282-.013.567-.046.854-.098.288-.053.568-.131.842-.235.273-.104.53-.224.77-.359.24-.134.416-.239.528-.313.112-.073.206-.14.282-.202a3.2 3.2 0 0 0 .326-.324c.208-.229.407-.524.599-.886M326.602 366.018c.12.14.202.267.247.381.031.078.06.166.085.263.025.097.04.209.047.336.006.127-.001.271-.023.433a4.88 4.88 0 0 1-.097.514c-.044.18-.12.38-.23.596a4.55 4.55 0 0 1-.414.66 7.977 7.977 0 0 1-.518.627c-.262.285-.673.64-1.232 1.067M324.313 371.241a.594.594 0 0 0-.041.258 7.86 7.86 0 0 1-.014.489c-.011.214-.014.382-.008.503a2.543 2.543 0 0 0 .077.538c.021.082.047.167.079.255s.077.196.135.325c.058.128.123.25.196.365.074.114.14.212.203.293.061.08.128.155.2.223.072.068.154.14.246.215a2.263 2.263 0 0 0 .666.374c.14.051.316.108.524.17.21.062.46.126.75.194.292.067.602.135.93.204.482.102 1.139.272 1.972.512M320.728 377.343a.508.508 0 0 1 .14-.301c.05-.044.152-.1.31-.168a3.93 3.93 0 0 1 .708-.239 6.01 6.01 0 0 1 .856-.148 5.24 5.24 0 0 1 .421-.028c.119-.002.28 0 .482.01.202.01.455.026.76.048.305.022.622.043.951.063.33.02.578.038.745.056.166.018.329.043.486.077.158.034.368.099.63.195.262.095.511.211.747.347.236.137.474.298.715.484.24.187.445.372.614.557.17.184.341.375.516.572.257.29.602.615 1.036.977M330.303 376.224a4.862 4.862 0 0 0 .73-.01c.107-.01.347-.047.72-.112.371-.065.772-.115 1.2-.15.687-.056 1.127-.16 1.318-.31M334.288 376.028c-.199.247-.376.487-.531.72-.105.155-.231.324-.38.507a2.654 2.654 0 0 1-.98.759c-.252.111-.625.215-1.12.31M331.009 378.56c.101-.086.258-.137.469-.153.138-.01.25-.009.333.004.084.013.213.047.387.104.174.056.374.135.599.235.328.146.795.41 1.402.791M331.015 379.878c.043.053.107.1.19.145.082.044.168.086.257.125.09.04.215.086.378.138.162.052.363.087.602.106.345.026.99-.042 1.939-.203M320.392 377.609c.193.16.35.309.47.448.081.095.185.235.312.421.126.187.274.429.441.727.168.297.302.574.402.83.1.255.175.519.226.79.074.391.055 1.277-.056 2.657M317.225 384.548c.033 0 .131-.05.295-.149a9.18 9.18 0 0 0 .36-.234 18.913 18.913 0 0 0 1.062-.78c.2-.16.404-.342.612-.546.307-.302.604-.69.893-1.167M320.462 381.489a22.18 22.18 0 0 0-.06-.08h0l.005.01.123.194c.076.12.167.26.272.42.15.23.577.666 1.278 1.31M314.834 385.248c-.075.056-.29.104-.646.145-.356.04-.637.067-.843.078a8.283 8.283 0 0 1-.688.005 82.015 82.015 0 0 0-.871-.02 11.58 11.58 0 0 1-1.019-.063 5.717 5.717 0 0 1-1.015-.198 5.352 5.352 0 0 1-.94-.374 7.177 7.177 0 0 1-.904-.555c-.301-.215-.617-.47-.947-.765-.479-.426-1.1-1.335-1.865-2.727M310.354 366.851c.18-.148.342-.294.488-.435a6.11 6.11 0 0 0 .42-.452c.135-.16.272-.364.41-.614.14-.25.266-.528.379-.834.113-.306.22-.628.324-.965.103-.337.195-.656.277-.957.081-.301.163-.593.245-.876.082-.283.163-.55.243-.802.118-.37.314-.87.589-1.505M315.644 361.145a.515.515 0 0 1-.136-.132c-.014-.024-.005-.077.028-.157s.043-.113.03-.1l-.098.103a1.153 1.153 0 0 0-.18.309 5.833 5.833 0 0 0-.204.543c-.068.211-.132.445-.191.702-.06.257-.111.548-.156.874a7.25 7.25 0 0 0-.07.97c0 .322.006.638.02.948.016.31.042.573.08.792.054.318.229.761.523 1.331" style="fill:none;stroke:#007aff;stroke-width:.735932;stroke-linecap:round;stroke-linejoin:round;stroke-miterlimit:10;stroke-dasharray:none;stroke-opacity:1" transform="matrix(.72727 0 0 .72727 -183.318 -195.292)"/><path d="M315.452 367.25c-.038.023-.046.05-.022.08.018.02.042.039.074.054.031.016.146.027.344.032a10.884 10.884 0 0 0 1.127-.013c.215-.012.442-.02.68-.024.237-.004.496.005.775.028l.836.068c.278.023.547.058.808.106.26.047.51.112.747.194.35.12.775.307 1.276.559M313.803 359.078c.065-.148.154-.338.267-.571a32.187 32.187 0 0 1 .569-1.117c.094-.178.21-.37.345-.576.136-.206.271-.395.405-.569.134-.174.272-.34.415-.497.21-.234.485-.466.823-.695M315.983 358.309c.035-.102.07-.184.105-.248.023-.044.049-.102.076-.174a4.78 4.78 0 0 0 .129-.481c.058-.249.113-.468.166-.657.053-.189.107-.378.164-.566a2.58 2.58 0 0 0 .119-.796M316.032 358.738a.238.238 0 0 1 .053-.188.418.418 0 0 1 .13-.104c.055-.03.143-.068.264-.113.12-.044.265-.089.433-.133.168-.043.35-.067.546-.07a2.38 2.38 0 0 1 .56.056c.26.059.587.234.981.527M315.742 360.85c-.017.015.006.029.065.039.06.01.131.014.214.01.083-.003.18-.014.29-.034a2.9 2.9 0 0 0 .848-.303c.173-.092.338-.191.497-.298.159-.107.312-.217.46-.33.217-.163.522-.44.916-.831M305.023 380.812a3.905 3.905 0 0 1-.206-.292c-.051-.078-.186-.263-.404-.556-.219-.294-.395-.532-.53-.716a61.661 61.661 0 0 0-.393-.534 6.228 6.228 0 0 0-.912-.98 15.084 15.084 0 0 0-.568-.47 7.784 7.784 0 0 0-.666-.469 7.128 7.128 0 0 0-.799-.432c-.289-.134-.716-.28-1.283-.434a1152.8 1152.8 0 0 0-1.91-.525c-.323-.09-.765-.235-1.33-.437M298.526 374.479l.072.013c.005 0 .003-.001-.006-.007l-.073-.043a.629.629 0 0 0-.196-.056c-.09-.015-.2-.025-.327-.029-.128-.004-.28-.006-.456-.004-.177.001-.359.001-.546-.001a3.989 3.989 0 0 0-.83.077M298.764 374.288a1.222 1.222 0 0 1-.366-.33 4.613 4.613 0 0 1-.184-.25 12.63 12.63 0 0 1-.218-.342 3.531 3.531 0 0 1-.481-1.092 7.076 7.076 0 0 1-.161-.779c-.06-.394-.097-.997-.113-1.81M299.547 372.716c-.149-.15-.336-.399-.562-.747a42.296 42.296 0 0 1-.387-.606 20.853 20.853 0 0 1-.353-.587c-.12-.209-.24-.419-.356-.629-.171-.31-.368-.685-.59-1.124M299.669 372.947c.066.045.197.109.393.19.196.08.388.149.578.207.19.058.378.112.564.164a4.009 4.009 0 0 0 1.129.146c.203 0 .417-.014.643-.041.226-.027.451-.078.676-.151.225-.074.433-.153.624-.236.191-.083.373-.177.545-.283M305.094 372.486a4.478 4.478 0 0 1-.02-.424c-.003-.22-.004-.421-.001-.602.002-.18 0-.325-.006-.433a3.41 3.41 0 0 0-.044-.37 4.514 4.514 0 0 0-.106-.464 13.675 13.675 0 0 1-.272-1.23c-.038-.22-.077-.432-.115-.635a32.738 32.738 0 0 1-.21-1.267 52.93 52.93 0 0 0-.1-.682 8.263 8.263 0 0 1-.084-.777c-.021-.37-.002-.878.059-1.525M305.894 364.389c-.035-.005-.07.021-.105.079a.353.353 0 0 0-.046.129.865.865 0 0 0 .001.197c.008.086.037.297.087.633.05.336.098.622.144.858a5.48 5.48 0 0 0 .506 1.453c.129.254.267.485.416.692.218.306.548.594.99.864M307.915 369.235c.042-.06.158-.16.346-.304.115-.087.22-.169.316-.245.095-.077.298-.255.608-.536.31-.28.518-.479.622-.595a6.603 6.603 0 0 0 .657-.84c.134-.2.257-.363.368-.49M304.28 363.816a.66.66 0 0 1-.202-.277 1.698 1.698 0 0 1-.108-.432 6.05 6.05 0 0 1-.045-.464 4.085 4.085 0 0 1 .003-.454c.014-.236.063-.59.147-1.063M304.348 361.449a.115.115 0 0 1 .1-.001.87.87 0 0 1 .329.276c.064.084.122.198.174.341.075.208.123.563.141 1.065M305.213 363.367a.528.528 0 0 1 .038-.183.893.893 0 0 1 .08-.145c.04-.059.082-.117.128-.176a2.804 2.804 0 0 1 .548-.5c.19-.134.464-.26.822-.381" style="fill:none;stroke:#007aff;stroke-width:.735932;stroke-linecap:round;stroke-linejoin:round;stroke-miterlimit:10;stroke-dasharray:none;stroke-opacity:1" transform="matrix(.72727 0 0 .72727 -183.318 -195.292)"/><path d="M307.315 362.265a.427.427 0 0 0-.196.086 4.679 4.679 0 0 0-.504.65 3.853 3.853 0 0 0-.27.499 9.25 9.25 0 0 0-.253.616 3.63 3.63 0 0 0-.216 1.094M325.125 431.844a.35.35 0 0 1 .146-.008c.056.007.12.022.193.044.073.023.217.08.432.17l.508.211c.123.05.25.104.38.162.13.057.265.121.403.192.139.071.276.149.412.232.137.084.406.266.808.546s.666.47.792.568a43.45 43.45 0 0 1 .947.77c.24.202.677.515 1.31.94M331.268 436.138l.02.016-.016-.002-.091-.017a2.253 2.253 0 0 1-.235-.065 18.123 18.123 0 0 1-1.273-.47 5.435 5.435 0 0 1-.408-.19 8.208 8.208 0 0 1-.496-.284 178.399 178.399 0 0 0-.831-.506 10.436 10.436 0 0 0-.399-.232l-.312-.17a4.606 4.606 0 0 0-.31-.143 4.89 4.89 0 0 0-.316-.127 4.083 4.083 0 0 0-.737-.175 3.735 3.735 0 0 0-.283-.023 1.732 1.732 0 0 0-.281.01.826.826 0 0 0-.383.155M323.049 438.607c.089-.1.149-.18.18-.24.022-.042.06-.13.115-.267l.106-.26a.753.753 0 0 0 .04-.111c.01-.037.018-.108.027-.213a4.45 4.45 0 0 1 .026-.249 1.57 1.57 0 0 1 .039-.184c.017-.062.036-.162.058-.3.022-.137.038-.238.046-.303a2.05 2.05 0 0 1 .096-.412c.033-.1.066-.185.098-.257a7.037 7.037 0 0 1 .236-.485 10.62 10.62 0 0 1 .369-.634c.043-.065.091-.133.146-.202.08-.1.234-.233.461-.399M322.668 438.242a.856.856 0 0 1-.136-.233c-.036-.09-.06-.16-.074-.21a1.563 1.563 0 0 1-.034-.168 2.41 2.41 0 0 1-.034-.43 4.773 4.773 0 0 1 .098-.885c.017-.082.038-.17.061-.26.024-.09.063-.217.118-.38.055-.162.107-.333.157-.513s.09-.319.12-.416c.031-.098.058-.197.08-.298.024-.1.045-.21.064-.327.018-.118.035-.245.048-.38a10.64 10.64 0 0 0 .052-.792c.006-.177 0-.441-.017-.793" style="fill:none;stroke:#007aff;stroke-width:.735932;stroke-linecap:round;stroke-linejoin:round;stroke-miterlimit:10;stroke-dasharray:none;stroke-opacity:1" transform="matrix(.72727 0 0 .72727 -183.318 -195.292)"/><path d="M341.813 319.012c.283-.7.46-1.13.532-1.29a18.723 18.723 0 0 0 .488-1.233c.055-.158.144-.385.265-.683.121-.298.252-.6.39-.909.14-.308.28-.61.42-.907.14-.297.338-.742.594-1.334.256-.592.559-1.221.909-1.888.35-.667.709-1.364 1.078-2.09.37-.726.751-1.46 1.144-2.203.393-.742.787-1.495 1.18-2.257.394-.762.784-1.536 1.171-2.323.387-.787.797-1.59 1.23-2.407.433-.818.856-1.637 1.267-2.456.411-.82.836-1.66 1.274-2.522.439-.862.895-1.726 1.371-2.593s.952-1.744 1.428-2.633c.476-.888.96-1.783 1.453-2.687.493-.903.97-1.788 1.434-2.654.463-.867.942-1.745 1.435-2.635a135.535 135.535 0 0 0 2.783-5.305M340.036 318.512c.282-.7.46-1.13.532-1.29.072-.161.158-.368.256-.62.099-.25.176-.456.231-.613a27.246 27.246 0 0 1 .656-1.592c.14-.308.279-.61.42-.907.14-.297.338-.742.594-1.334.256-.592.558-1.221.908-1.889.35-.667.71-1.363 1.079-2.09.37-.725.75-1.46 1.144-2.202.393-.742.786-1.495 1.18-2.257.393-.762.783-1.536 1.17-2.323.388-.787.798-1.59 1.23-2.408.434-.818.856-1.636 1.267-2.456.412-.82.837-1.66 1.275-2.521.438-.862.895-1.726 1.37-2.593.476-.867.952-1.745 1.428-2.633.477-.888.961-1.784 1.454-2.687.492-.903.97-1.788 1.433-2.654.464-.867.942-1.745 1.435-2.635a134.959 134.959 0 0 0 2.783-5.305M336.488 328.281c-.041.023-.146.036-.313.04a1.537 1.537 0 0 1-.587-.125 2.537 2.537 0 0 1-.466-.223 1.172 1.172 0 0 1-.266-.277 1.742 1.742 0 0 1-.22-.406 1.276 1.276 0 0 1-.087-.43.644.644 0 0 1 .133-.398c.09-.125.237-.242.44-.349a3.44 3.44 0 0 1 .696-.269c.262-.072.548-.115.859-.129.31-.014.626-.003.947.034.321.036.638.1.949.19a5.07 5.07 0 0 1 1.705.878c.235.19.426.4.572.634.146.233.248.471.306.714.057.243.055.485-.008.727a1.519 1.519 0 0 1-.383.666c-.192.201-.404.37-.636.503a3.424 3.424 0 0 1-1.634.447 4.145 4.145 0 0 1-.865-.081 6.168 6.168 0 0 1-.553-.128 3.071 3.071 0 0 1-.397-.18 4.226 4.226 0 0 1-.564-.357 1.947 1.947 0 0 1-.468-.474 1.862 1.862 0 0 1-.252-.547 1.515 1.515 0 0 1-.042-.593c.025-.202.083-.397.175-.585.091-.188.157-.31.197-.368.04-.058.08-.11.121-.153.041-.044.103-.101.186-.173.083-.072.24-.167.471-.285.231-.118.482-.21.753-.279.27-.067.55-.092.84-.073.29.02.572.085.845.196s.521.253.745.425c.224.172.413.376.568.612.154.237.263.488.327.753a1.81 1.81 0 0 1-.002.828 2.602 2.602 0 0 1-.326.799 2.128 2.128 0 0 1-.587.624c-.239.17-.496.292-.77.37a2.647 2.647 0 0 1-.898.081 4.301 4.301 0 0 1-2.75-1.3 3.7 3.7 0 0 1-.556-.759 2.67 2.67 0 0 1-.29-.788c-.049-.258-.041-.51.021-.753.063-.243.182-.463.357-.66s.392-.364.65-.498a3.139 3.139 0 0 1 1.883-.31 4.136 4.136 0 0 1 1.903.823c.278.216.518.458.719.726.201.268.324.447.37.537.045.09.077.168.097.237.02.069.043.172.068.31.025.138.004.34-.063.606-.068.266-.202.5-.404.704-.201.204-.346.333-.433.386a1.866 1.866 0 0 1-.255.132 4.065 4.065 0 0 1-.603.199c-.152.04-.269.07-.35.089a2.102 2.102 0 0 1-.246.04 2.981 2.981 0 0 1-.258.016 5.062 5.062 0 0 1-.256 0 2.513 2.513 0 0 1-.236-.017c-.075-.009-.285-.086-.63-.229-.345-.143-.596-.28-.753-.412a2.6 2.6 0 0 1-.307-.284 1.712 1.712 0 0 1-.189-.379 1.316 1.316 0 0 1-.086-.621c.02-.22.096-.414.225-.582.13-.167.37-.353.723-.558a4.777 4.777 0 0 1 1.052-.46c.349-.103.705-.156 1.069-.16.363-.004.699.039 1.005.129.307.09.562.22.764.39.203.17.342.363.418.58.076.218.08.455.015.713a1.91 1.91 0 0 1-.322.685c-.15.2-.301.352-.455.457a2.48 2.48 0 0 1-.343.209c-.075.033-.182.069-.321.109-.14.04-.237.066-.293.079a1.098 1.098 0 0 1-.18.025c-.064.004-.128.005-.192.004a4.273 4.273 0 0 1-.31-.027 5.108 5.108 0 0 1-.32-.043 3.653 3.653 0 0 1-.223-.05 2.35 2.35 0 0 1-.223-.067c-.07-.025-.246-.146-.525-.361a5.468 5.468 0 0 1-.505-.417 1.298 1.298 0 0 1-.128-.16c-.028-.044-.049-.198-.062-.464-.013-.265.039-.482.154-.651.116-.17.277-.31.482-.42.205-.112.43-.195.678-.25.247-.054.52-.065.822-.032.3.032.576.11.826.233.25.123.454.265.612.426a1 1 0 0 1 .289.547.88.88 0 0 1-.067.542c-.078.159-.14.262-.188.311a.945.945 0 0 1-.15.128 1.27 1.27 0 0 1-.186.101c-.07.032-.168.068-.295.106a6.759 6.759 0 0 1-.315.09 1.184 1.184 0 0 1-.234.037 2.292 2.292 0 0 1-.417-.017 3.83 3.83 0 0 1-.45-.077c-.07-.016-.25-.1-.542-.25-.293-.15-.494-.297-.605-.438a1 1 0 0 1-.206-.433.575.575 0 0 1 .04-.378.77.77 0 0 1 .153-.218c.047-.041.186-.108.417-.2.23-.09.478-.158.741-.202a3.36 3.36 0 0 1 .817-.032c.281.022.516.074.705.155.189.08.322.178.4.292a.458.458 0 0 1 .058.392c-.038.147-.152.29-.342.43-.19.14-.41.248-.664.324a2.831 2.831 0 0 1-.811.117 3.926 3.926 0 0 1-.835-.085 2.841 2.841 0 0 1-.708-.242 1.368 1.368 0 0 1-.461-.357c-.105-.134-.138-.27-.1-.407.037-.136.148-.251.332-.344.184-.094.42-.17.705-.231s.575-.081.868-.06c.293.021.572.077.835.168.264.09.48.205.651.342.17.137.285.284.346.441a.548.548 0 0 1-.043.479c-.09.162-.243.294-.462.396a2.316 2.316 0 0 1-.738.197 3.67 3.67 0 0 1-.837-.008 3.422 3.422 0 0 1-.76-.172 2.286 2.286 0 0 1-.554-.28.893.893 0 0 1-.31-.358.439.439 0 0 1 .021-.4c.071-.135.207-.258.408-.37.201-.113.436-.208.705-.286.269-.078.525-.12.77-.124a2.24 2.24 0 0 1 .64.068c.182.05.31.12.384.208.073.088.08.188.018.3-.062.112-.186.222-.372.331a2.785 2.785 0 0 1-.657.27 3.819 3.819 0 0 1-1.402.101 3.228 3.228 0 0 1-.416-.08 1.205 1.205 0 0 1-.252-.096.471.471 0 0 1-.143-.109.258.258 0 0 1-.055-.117c-.007-.041.077-.105.252-.192.174-.087.387-.153.638-.2.252-.045.521-.07.809-.074a4.055 4.055 0 0 1 1.277.172c.126.04.205.081.238.123.032.041-.011.094-.13.159a3.88 3.88 0 0 1-1.213.355c-.248.03-.463.034-.644.01a1.258 1.258 0 0 1-.37-.089c-.067-.034-.107-.067-.122-.096-.015-.03-.013-.062.007-.097.02-.034.06-.065.121-.093.061-.028.172-.064.333-.108.16-.044.316-.077.465-.098.15-.022.434-.046.855-.072.42-.027.755-.036 1.004-.027.249.008.419.029.51.062.091.033.112.08.062.14-.05.059-.185.13-.407.21a8.58 8.58 0 0 1-.702.222c-.246.066-.457.11-.632.13-.176.021-.298.026-.367.015-.07-.012-.081-.035-.036-.072a1.04 1.04 0 0 1 .281-.126c.143-.048.306-.098.487-.151.182-.053.33-.098.447-.134a1.11 1.11 0 0 0 .272-.12c.065-.043.056-.07-.026-.083a1.665 1.665 0 0 0-.407.018 17.581 17.581 0 0 0-1.19.21 6.985 6.985 0 0 1-.31.062l-.069.01.016-.004.335-.089c.21-.055.392-.114.545-.177.153-.063.274-.133.363-.21.089-.079.13-.155.122-.231-.007-.076-.084-.124-.23-.143a1.862 1.862 0 0 0-.56.036c-.228.042-.455.092-.68.15-.226.057-.421.108-.586.154a38.369 38.369 0 0 1-.53.143h-.005.002a7.44 7.44 0 0 0 .449-.13c.149-.047.317-.121.503-.223.186-.102.344-.202.472-.301.129-.099.198-.176.207-.231.009-.056-.067-.079-.229-.068-.162.01-.351.04-.568.09-.217.052-.404.097-.561.137a4.811 4.811 0 0 0-.817.296c-.046.029-.05.053-.015.074.035.02.118.03.248.027.13-.003.265-.02.408-.051.142-.031.26-.07.353-.117a.541.541 0 0 0 .178-.119c.024-.032.011-.053-.039-.063-.05-.009-.151.004-.304.039a3.858 3.858 0 0 0-.491.15c-.175.065-.31.126-.406.184a1.392 1.392 0 0 0-.2.14.394.394 0 0 0-.074.08c-.01.02-.01.036.002.052.013.015.062.02.147.014.086-.006.203-.031.352-.074.15-.043.295-.106.436-.189.142-.082.245-.158.308-.226.064-.068.09-.129.08-.184-.01-.054-.06-.102-.147-.141a1.175 1.175 0 0 0-.32-.085 2.292 2.292 0 0 0-.663.004c-.072.014-.117.03-.134.047s.006.03.07.042c.065.012.18 0 .346-.035.165-.035.332-.092.5-.172a3.783 3.783 0 0 0 .885-.59c.1-.093.145-.169.137-.226-.008-.057-.089-.08-.242-.068a3.036 3.036 0 0 0-.492.082 8.85 8.85 0 0 0-.453.122 4.058 4.058 0 0 0-.262.086c-.047.018-.06.037-.039.057.021.019.083.042.185.069.102.026.216.046.343.06.126.013.238.015.336.006.097-.01.165-.019.202-.027.038-.008.05-.018.037-.03-.014-.012-.068-.021-.164-.028a2.116 2.116 0 0 0-.324.007 2.943 2.943 0 0 0-.512.09l-.044.013c-.006.002-.005.003.003.005l.06.014c.033.008.09.008.174.001.082-.007.15-.016.203-.029.054-.012.084-.026.091-.04.01-.022-.17-.06-.543-.114" style="fill:none;stroke:#007aff;stroke-width:.75115;stroke-linecap:round;stroke-linejoin:round;stroke-miterlimit:10;stroke-dasharray:none;stroke-opacity:1" transform="matrix(.72727 0 0 .72727 -182.208 -194.485)"/><path d="M337.136 326.608a1.702 1.702 0 0 0-.2-.02.35.35 0 0 0-.104.015c-.038.012-.054.031-.048.058.006.028.039.054.1.078a.99.99 0 0 0 .232.057c.096.013.212.022.348.027.137.004.244.003.322-.002.078-.006.124-.011.139-.015l.023-.006h-.005l-.08-.002a6.701 6.701 0 0 0-.368.013c-.195.01-.307.015-.335.014-.04-.002-.168-.054-.382-.156M326.535 329.584a3.722 3.722 0 0 0-.617-.506 6.56 6.56 0 0 0-.761-.435 4.871 4.871 0 0 0-.834-.317 5.823 5.823 0 0 0-.85-.171 9.836 9.836 0 0 0-.623-.062 3.986 3.986 0 0 0-.355-.005 3.28 3.28 0 0 0-.464.07 4.414 4.414 0 0 0-1.028.365M320.849 328.279a1.432 1.432 0 0 1 .027-.463c.022-.083.051-.172.09-.267a1.7 1.7 0 0 1 .164-.305 2.51 2.51 0 0 1 .28-.342c.116-.12.246-.242.392-.364.145-.122.328-.239.55-.35.22-.112.467-.21.739-.292.271-.083.54-.15.805-.202.388-.076.94-.12 1.658-.132M325.89 325.37a.607.607 0 0 0 .19-.187 8.12 8.12 0 0 1 .307-.393c.139-.17.243-.306.311-.408.07-.103.122-.19.159-.262a2.899 2.899 0 0 0 .193-.485c.027-.091.055-.207.086-.348.03-.141.05-.28.059-.42.009-.138.013-.259.011-.363a1.915 1.915 0 0 0-.03-.305 4.52 4.52 0 0 0-.073-.325 2.302 2.302 0 0 0-.32-.71 9.598 9.598 0 0 0-.328-.457 13.16 13.16 0 0 0-.5-.613 48.83 48.83 0 0 0-.64-.731c-.334-.374-.771-.912-1.311-1.614M332.53 322.524a.519.519 0 0 1-.299.162 1.27 1.27 0 0 1-.356-.049 4.012 4.012 0 0 1-.726-.232 6.206 6.206 0 0 1-.793-.396 5.393 5.393 0 0 1-.364-.232 7.778 7.778 0 0 1-.389-.3c-.16-.13-.36-.297-.596-.5a82.468 82.468 0 0 0-.744-.626 18.185 18.185 0 0 1-.578-.497 4.72 4.72 0 0 1-.353-.358 5.176 5.176 0 0 1-.4-.54 4.818 4.818 0 0 1-.404-.738 6.558 6.558 0 0 1-.295-.83 4.992 4.992 0 0 1-.168-.83 51.392 51.392 0 0 1-.078-.782 9.942 9.942 0 0 0-.26-1.43M323.98 317.65a5.056 5.056 0 0 0-.606-.434 11.295 11.295 0 0 0-.657-.343 13.658 13.658 0 0 1-1.079-.603c-.599-.37-1.022-.55-1.27-.542M320.586 315.4a10.6 10.6 0 0 0 .873-.27c.18-.064.386-.127.619-.187a2.708 2.708 0 0 1 1.265-.03c.275.06.644.2 1.108.42M324.815 315.303c-.136.01-.296-.043-.479-.158a1.59 1.59 0 0 1-.272-.205 2.79 2.79 0 0 1-.255-.32 6.329 6.329 0 0 1-.35-.554c-.18-.319-.406-.819-.674-1.5M325.607 314.216a.638.638 0 0 0-.068-.234 3.954 3.954 0 0 0-.136-.259c-.05-.086-.125-.2-.227-.342a2.712 2.712 0 0 0-.431-.45c-.268-.231-.84-.567-1.717-1.007M332.966 322.509a3.98 3.98 0 0 1-.115-.653 5.006 5.006 0 0 1-.002-.535c.009-.23.034-.518.076-.864.042-.347.1-.655.173-.925.072-.27.17-.533.292-.788.176-.366.727-1.082 1.653-2.15M339.768 318.721c-.027-.02-.138-.039-.332-.056a9.208 9.208 0 0 0-.438-.026 19.29 19.29 0 0 0-1.345 0 6.082 6.082 0 0 0-2.273.497M335.256 319.277c0 .064.002.098.002.101v.001l.001-.012.016-.234c.01-.145.02-.315.03-.51.016-.28-.07-.896-.258-1.849M342.157 319.592c.095 0 .301.09.619.272.317.182.563.33.74.446.175.115.365.253.568.412.204.16.439.34.704.543.266.203.532.426.8.669.267.243.505.502.715.777.21.274.391.566.546.876.155.31.29.644.407 1.003.117.359.222.76.316 1.202.135.64.096 1.763-.118 3.37M334.708 337.425a8.806 8.806 0 0 0-.665.062 6.197 6.197 0 0 0-.619.117c-.206.05-.442.136-.708.257a6.104 6.104 0 0 0-.816.457c-.278.183-.561.382-.85.597-.288.214-.557.42-.806.62-.25.198-.494.388-.732.57-.239.184-.467.354-.686.513-.32.232-.784.526-1.394.881M326.907 338.915a.529.529 0 0 1 .032.19c-.003.03-.042.067-.118.113-.076.045-.104.067-.085.063l.143-.024a1.18 1.18 0 0 0 .334-.146c.147-.084.313-.192.497-.323.184-.132.378-.285.582-.461.204-.176.423-.384.657-.624.234-.24.449-.492.645-.756.195-.263.38-.527.556-.79.175-.264.313-.497.414-.7.147-.294.273-.764.375-1.41" style="fill:none;stroke:#007aff;stroke-width:.75115;stroke-linecap:round;stroke-linejoin:round;stroke-miterlimit:10;stroke-dasharray:none;stroke-opacity:1" transform="matrix(.72727 0 0 .72727 -182.208 -194.485)"/><path d="M330.758 334.013c.046.004.068-.013.067-.052a.215.215 0 0 0-.027-.09c-.017-.032-.105-.11-.264-.235a16.91 16.91 0 0 0-.448-.34c-.14-.101-.302-.212-.486-.331-.185-.12-.376-.25-.574-.39a8.238 8.238 0 0 1-.62-.493c-.216-.187-.432-.374-.646-.562a8.498 8.498 0 0 1-.6-.575 5.212 5.212 0 0 1-.497-.612c-.214-.31-.451-.721-.711-1.232M327.17 341.728a16.36 16.36 0 0 1-.566.308 33.143 33.143 0 0 1-1.143.573c-.185.09-.396.178-.632.265a8.557 8.557 0 0 1-1.319.38 4.65 4.65 0 0 1-1.097.074M324.912 341.041c-.09.062-.169.109-.236.14a1.563 1.563 0 0 0-.168.097 4.898 4.898 0 0 0-.397.318c-.198.17-.376.316-.534.44-.158.123-.317.245-.477.365a2.636 2.636 0 0 0-.58.583M325.132 340.659a.241.241 0 0 1-.158.123.435.435 0 0 1-.169.007 2.33 2.33 0 0 1-.285-.068 4.6 4.6 0 0 1-.437-.152 2.346 2.346 0 0 1-.49-.273 2.434 2.434 0 0 1-.428-.385c-.178-.205-.34-.548-.487-1.027M326.648 339.099c.023-.003.013-.028-.03-.072-.043-.045-.1-.091-.17-.138a2.278 2.278 0 0 0-.258-.147 2.968 2.968 0 0 0-.88-.264 5.607 5.607 0 0 0-.59-.056c-.195-.008-.388-.011-.578-.008-.276.004-.695.047-1.255.13M347.538 329.175c.004.097 0 .218-.007.364-.005.095-.007.33-.005.703.002.373.003.675.002.908v.677a6.256 6.256 0 0 0 .157 1.358c.052.234.113.478.182.73.07.251.157.514.265.788.107.274.238.553.395.838.156.285.42.663.791 1.134a1430.162 1430.162 0 0 0 1.254 1.587c.21.269.486.656.827 1.163M349.046 338.312l-.052-.055c-.004-.004-.003 0 .001.01l.035.079a.638.638 0 0 0 .127.165 2.6 2.6 0 0 0 .251.221c.103.08.227.174.373.28.146.105.295.216.448.33.228.173.471.319.729.44M348.735 338.324c.063.137.097.301.102.493.003.127.003.233 0 .317-.005.084-.014.222-.03.413a3.606 3.606 0 0 1-.266 1.189c-.094.245-.207.49-.337.738-.19.36-.524.878-1.003 1.556M347.14 339.143c.032.214.035.532.01.954-.016.27-.032.513-.049.732a21.13 21.13 0 0 1-.065.696c-.027.245-.056.49-.088.733-.047.359-.112.786-.195 1.28M347.18 338.88a2.401 2.401 0 0 0-.209-.394 6.739 6.739 0 0 0-.35-.52c-.12-.163-.242-.322-.364-.476a4.08 4.08 0 0 0-.84-.803 5.517 5.517 0 0 0-.553-.356 3.588 3.588 0 0 0-.647-.285 7.326 7.326 0 0 0-.655-.184 4.441 4.441 0 0 0-.62-.097M342.441 335.976c-.03.056-.11.176-.24.36-.13.183-.251.35-.363.496a6.676 6.676 0 0 0-.257.36 3.53 3.53 0 0 0-.188.33c-.065.128-.13.277-.193.446a14.07 14.07 0 0 1-.52 1.176c-.103.204-.2.4-.291.591a34.07 34.07 0 0 1-.594 1.169c-.093.172-.203.38-.33.621-.126.242-.26.472-.401.689-.207.317-.53.723-.972 1.218M336.884 342.147c.026.026.07.026.134-.002a.359.359 0 0 0 .116-.077.884.884 0 0 0 .119-.164c.045-.074.149-.265.311-.572.162-.307.296-.57.4-.793a5.583 5.583 0 0 0 .464-1.5c.048-.287.074-.56.077-.82.005-.384-.092-.82-.29-1.31M338.155 336.94c-.07.025-.227.038-.468.042-.147.002-.283.006-.408.01-.125.005-.4.03-.824.072-.425.043-.715.08-.871.114a6.69 6.69 0 0 0-1.049.293c-.231.082-.43.142-.598.18M337.864 343.595c.03.105.03.222 0 .35a1.735 1.735 0 0 1-.173.42 6.165 6.165 0 0 1-.244.409c-.08.12-.172.245-.277.372a10.04 10.04 0 0 1-.764.784M336.377 345.5a.118.118 0 0 1-.084-.06.885.885 0 0 1-.103-.426c-.001-.108.02-.236.064-.386.063-.216.24-.536.528-.96M336.826 343.4a.55.55 0 0 1-.142.127.908.908 0 0 1-.154.07 2.538 2.538 0 0 1-.211.068 2.86 2.86 0 0 1-.753.08c-.237-.006-.54-.067-.906-.184" style="fill:none;stroke:#007aff;stroke-width:.75115;stroke-linecap:round;stroke-linejoin:round;stroke-miterlimit:10;stroke-dasharray:none;stroke-opacity:1" transform="matrix(.72727 0 0 .72727 -182.208 -194.485)"/><path d="M334.431 343.033a.436.436 0 0 0 .213.049 4.814 4.814 0 0 0 .808-.229c.168-.064.342-.146.524-.247.181-.101.375-.22.58-.354.306-.2.586-.457.84-.768M361.89 275.064a.36.36 0 0 1-.124-.082 1.188 1.188 0 0 1-.132-.154 6.1 6.1 0 0 1-.253-.4 55.006 55.006 0 0 0-.29-.481 15.52 15.52 0 0 1-.214-.363 7.743 7.743 0 0 1-.215-.402 6.244 6.244 0 0 1-.198-.44 22.33 22.33 0 0 1-.334-.938 21.59 21.59 0 0 1-.307-.946 43.6 43.6 0 0 1-.313-1.206c-.075-.311-.244-.833-.507-1.565M359.44 267.817l-.008-.025c0-.002.003.002.012.01l.065.07c.035.038.086.103.154.196a18.423 18.423 0 0 1 .762 1.157c.081.135.155.269.221.402s.145.31.236.533a195.586 195.586 0 0 0 .376.92c.057.138.12.282.188.431l.153.33c.035.07.09.172.168.304.078.133.14.231.184.295a4.16 4.16 0 0 0 .5.59c.067.064.14.128.218.19.078.063.157.118.237.163.12.067.256.102.41.104M367.69 270.76a1.329 1.329 0 0 0-.294.09c-.043.02-.128.07-.255.149l-.245.148a.77.77 0 0 0-.1.069c-.03.024-.08.077-.151.158-.07.081-.128.144-.172.189a1.598 1.598 0 0 1-.144.128c-.051.04-.127.11-.229.21-.101.1-.175.174-.221.222a2.08 2.08 0 0 1-.328.28 3.075 3.075 0 0 1-.236.153 7.124 7.124 0 0 1-.488.256 10.77 10.77 0 0 1-.687.298 2.716 2.716 0 0 1-.242.077c-.127.034-.333.05-.62.05M367.782 271.291a.898.898 0 0 1-.03.274 2.015 2.015 0 0 1-.066.217c-.02.05-.044.102-.073.158-.03.056-.063.115-.1.176a2.52 2.52 0 0 1-.132.198 4.898 4.898 0 0 1-.616.668 5.766 5.766 0 0 1-.208.178c-.074.06-.183.14-.327.24a9.5 9.5 0 0 0-.44.327c-.15.118-.266.208-.35.27a3.903 3.903 0 0 0-.246.195 6.817 6.817 0 0 0-.52.514 10.803 10.803 0 0 0-.522.62c-.112.142-.267.363-.466.662" style="fill:none;stroke:#007aff;stroke-width:.75115;stroke-linecap:round;stroke-linejoin:round;stroke-miterlimit:10;stroke-dasharray:none;stroke-opacity:1" transform="matrix(.72727 0 0 .72727 -182.208 -194.485)"/><path d="m320.077 345.656.232.64" style="fill:none;stroke:#f59a23;stroke-width:1.03937;stroke-linecap:round;stroke-linejoin:round;stroke-miterlimit:10;stroke-dasharray:none;stroke-opacity:1" transform="matrix(.72727 0 0 .72727 -183.015 -196.099)"/><path d="m322.321 342.747.1 1.063" style="fill:none;stroke:#f59a23;stroke-width:1.03937;stroke-linecap:round;stroke-linejoin:round;stroke-miterlimit:10;stroke-dasharray:none;stroke-opacity:1" transform="matrix(.72727 0 0 .72727 -182.208 -194.485)"/><path d="M314.93 353.593c.091.055.18.056.27.003.088-.053.222-.179.404-.378" style="fill:none;stroke:#f59a23;stroke-width:1.03937;stroke-linecap:round;stroke-linejoin:round;stroke-miterlimit:10;stroke-dasharray:none;stroke-opacity:1" transform="matrix(.72727 0 0 .72727 -183.015 -196.099)"/><path d="M315.965 354.966c.215.091.378.15.488.177.11.027.236.122.378.284" style="fill:none;stroke:#f59a23;stroke-width:1.03937;stroke-linecap:round;stroke-linejoin:round;stroke-miterlimit:10;stroke-dasharray:none;stroke-opacity:1" transform="matrix(.72727 0 0 .72727 -183.318 -195.292)"/></svg>