<svg xmlns="http://www.w3.org/2000/svg" width="150.068" height="65.463"><path d="M270.176 148.94c.095-.394.127-.657.095-.787-.021-.09-.126-.197-.313-.32-.188-.123-.452-.222-.792-.299a8.86 8.86 0 0 0-1.282-.17 21.063 21.063 0 0 0-1.791-.04c-.68.01-1.415.099-2.206.265-.79.167-1.587.365-2.388.595-.802.23-1.53.511-2.182.843a5.997 5.997 0 0 0-1.775 1.393c-.53.598-1 1.45-1.41 2.554-.41 1.105-.676 2.417-.796 3.936-.12 1.519-.04 3.16.241 4.92a19.602 19.602 0 0 0 1.505 5.032c.722 1.592 1.616 2.973 2.683 4.141 1.066 1.17 2.239 2.008 3.52 2.518 1.28.51 2.64.808 4.076.894 1.437.087 2.85-.073 4.239-.479 1.388-.405 2.603-1.058 3.643-1.958a10.05 10.05 0 0 0 2.466-3.19c.605-1.227.998-2.585 1.18-4.073.181-1.489.17-2.901-.032-4.238-.202-1.336-.675-2.733-1.418-4.19a24.081 24.081 0 0 0-2.664-4.123 93.775 93.775 0 0 0-2.874-3.437c-.883-1-1.644-1.705-2.283-2.114-.912-.582-1.827-.38-2.746.607M271.013 211.428a3.244 3.244 0 0 0-.795-.465 13.047 13.047 0 0 0-.897-.332 9.506 9.506 0 0 0-1.346-.335 12.016 12.016 0 0 0-1.681-.173 6.64 6.64 0 0 0-1.927.229 7.866 7.866 0 0 0-2.047.881c-.69.412-1.358.953-2.007 1.623-.648.67-1.245 1.511-1.79 2.522a14.08 14.08 0 0 0-1.263 3.32 12.57 12.57 0 0 0-.36 3.617c.055 1.208.325 2.405.81 3.593.484 1.187 1.172 2.326 2.064 3.418a19.097 19.097 0 0 0 2.91 2.885c1.048.831 2.09 1.428 3.124 1.79a8.719 8.719 0 0 0 3.23.477 6.6 6.6 0 0 0 3.113-.895c.956-.556 1.765-1.358 2.427-2.408.661-1.05 1.2-2.3 1.617-3.748.416-1.45.685-2.88.806-4.293.12-1.412.048-2.753-.22-4.024-.268-1.27-.748-2.406-1.44-3.406s-1.426-1.79-2.203-2.368c-.777-.58-1.494-.99-2.15-1.234-.658-.244-1.213-.392-1.666-.446-.652-.076-1.056.115-1.211.575" style="fill:none;stroke:#007aff;stroke-width:1.8189;stroke-linecap:round;stroke-linejoin:round;stroke-miterlimit:10;stroke-dasharray:none;stroke-opacity:1" transform="matrix(.72727 0 0 .72727 -148.255 -105.733)"/><path d="M283.533 160.742c-.04-.228-.005-.354.104-.377.077-.016.216-.018.416-.007.2.012.686.108 1.46.29.773.18 1.429.33 1.967.446.538.118 1.12.237 1.749.357.628.121 1.31.256 2.046.404.737.149 1.503.339 2.3.569.797.23 1.64.505 2.53.822.888.318 1.83.66 2.825 1.027l3.04 1.12c1.032.378 2.09.825 3.176 1.34 1.085.516 2.2 1.058 3.342 1.627a43.07 43.07 0 0 1 3.419 1.905c1.136.7 2.27 1.428 3.402 2.181a66.42 66.42 0 0 1 3.282 2.327 47.094 47.094 0 0 1 2.86 2.333 110.062 110.062 0 0 1 4.12 3.876M281.922 220.572c.053.072.187.107.403.105.216-.002.469-.037.758-.104.288-.067.59-.129.904-.185.314-.056.83-.127 1.546-.212l1.947-.23c.58-.07 1.185-.144 1.814-.224.63-.08 1.376-.187 2.238-.321a90.36 90.36 0 0 0 2.006-.33 88.48 88.48 0 0 0 2.867-.571c.371-.083.823-.196 1.353-.337.53-.142 1.122-.314 1.776-.516a88.772 88.772 0 0 0 1.805-.578c.55-.183 1.587-.576 3.11-1.179 1.523-.603 2.65-1.077 3.38-1.421.731-.345 1.47-.717 2.216-1.116.747-.4 1.486-.779 2.218-1.138a190.69 190.69 0 0 0 2.147-1.069c.7-.354 1.405-.74 2.115-1.161.711-.42 1.408-.85 2.093-1.29.684-.44 1.358-.93 2.02-1.468a36.459 36.459 0 0 0 2.04-1.794 342.928 342.928 0 0 1 2.278-2.14" style="fill:none;stroke:#7ec636;stroke-width:1.8189;stroke-linecap:round;stroke-linejoin:round;stroke-miterlimit:10;stroke-dasharray:none;stroke-opacity:1" transform="matrix(.72727 0 0 .72727 -148.255 -105.733)"/><path d="M347.564 180.713a2.303 2.303 0 0 0-.716-.545c-.176-.085-.435-.135-.776-.15a6.642 6.642 0 0 0-1.27.097 9.019 9.019 0 0 0-1.674.451c-.61.222-1.268.487-1.975.798-.706.31-1.438.682-2.194 1.116a9.461 9.461 0 0 0-2.128 1.693c-.663.694-1.27 1.52-1.82 2.477-.551.957-.99 2.005-1.314 3.143a12.888 12.888 0 0 0-.512 3.357 7.218 7.218 0 0 0 .647 3.127c.447.987 1.068 1.923 1.863 2.81a10.916 10.916 0 0 0 2.641 2.174 9.2 9.2 0 0 0 3.073 1.126c1.083.188 2.206.168 3.368-.062a8.835 8.835 0 0 0 3.274-1.381 10.391 10.391 0 0 0 2.66-2.635c.753-1.066 1.346-2.13 1.78-3.193a10.39 10.39 0 0 0 .766-3.17c.077-1.052-.061-2.14-.416-3.266-.354-1.125-.898-2.272-1.631-3.438-.733-1.167-1.384-2.04-1.954-2.617a6.856 6.856 0 0 0-2.003-1.402c-1.138-.531-2.154-.601-3.047-.21" style="fill:none;stroke:#007aff;stroke-width:1.8189;stroke-linecap:round;stroke-linejoin:round;stroke-miterlimit:10;stroke-dasharray:none;stroke-opacity:1" transform="matrix(.72727 0 0 .72727 -148.255 -105.733)"/><path d="M205.228 160.08c-.144-.049-.22-.105-.228-.17-.005-.046.228-.13.698-.25.471-.122.97-.232 1.495-.333.526-.1 1.118-.193 1.776-.278a37.233 37.233 0 0 1 2.156-.209c.779-.055 2.064-.12 3.855-.195a776 776 0 0 1 4.172-.166c.99-.036 2.022-.065 3.095-.087 1.073-.023 2.157-.04 3.251-.051a558.98 558.98 0 0 1 4.956-.019c2.209 0 3.87.01 4.98.033 1.113.023 2.249.045 3.409.066 1.16.021 2.307.061 3.444.12 1.136.057 2.131.164 2.985.318 1.273.231 2.553.637 3.839 1.22M204.76 221.922c.324-.073.737-.112 1.242-.117a108.778 108.778 0 0 0 2.886-.072c.627-.024 1.31-.049 2.048-.074a296.624 296.624 0 0 1 4.797-.127c.84-.016 3.147-.025 6.92-.027 3.774-.002 6.208.002 7.303.011a223.267 223.267 0 0 1 6.782.168c1.113.044 2.177.086 3.193.123 1.015.037 1.976.081 2.884.132 1.333.074 3.026.361 5.08.86M365.1 191.938l-.194-.052a.74.74 0 0 1 .167-.023l1.23-.12 1.878-.185a162.91 162.91 0 0 0 1.956-.21c.748-.085 1.578-.176 2.487-.274.91-.097 1.904-.187 2.982-.271a85.546 85.546 0 0 1 3.463-.194c1.23-.045 2.489-.08 3.777-.103a646.91 646.91 0 0 1 3.963-.06c1.354-.016 2.76-.03 4.22-.04 1.457-.011 2.888-.02 4.291-.026 1.403-.006 2.788-.013 4.153-.023 1.366-.01 2.655-.015 3.868-.016 1.796-.001 3.778.274 5.944.827" style="fill:none;stroke:#7ec636;stroke-width:1.8189;stroke-linecap:round;stroke-linejoin:round;stroke-miterlimit:10;stroke-dasharray:none;stroke-opacity:1" transform="matrix(.72727 0 0 .72727 -148.255 -105.733)"/></svg>