<svg xmlns="http://www.w3.org/2000/svg" width="98.259" height="45.2"><path d="M334.94 345.464c-.04-.228-.005-.353.104-.376.077-.017.216-.019.415-.007.2.011.687.108 1.46.289.774.18 1.43.33 1.968.447.538.117 1.12.236 1.749.357.628.12 1.31.255 2.046.404.736.149 1.503.338 2.3.569.797.23 1.64.504 2.529.822.89.318 1.83.66 2.825 1.027l3.04 1.119c1.032.379 2.091.826 3.176 1.341 1.086.516 2.2 1.058 3.343 1.627a43.083 43.083 0 0 1 3.418 1.904c1.136.701 2.27 1.428 3.403 2.182a66.353 66.353 0 0 1 3.282 2.327 47.063 47.063 0 0 1 2.86 2.333 110.137 110.137 0 0 1 4.12 3.876M333.329 405.294c.053.073.187.108.403.105.216-.002.468-.037.757-.103.289-.067.59-.129.904-.185.314-.057.83-.128 1.547-.213l1.946-.23c.581-.069 1.186-.143 1.815-.223.63-.08 1.375-.188 2.238-.322a89.88 89.88 0 0 0 2.006-.33 88.52 88.52 0 0 0 2.866-.57 34.6 34.6 0 0 0 1.354-.338c.53-.142 1.122-.314 1.775-.516a88.74 88.74 0 0 0 1.806-.577c.55-.183 1.586-.576 3.11-1.18 1.522-.602 2.649-1.076 3.38-1.42.73-.345 1.47-.717 2.216-1.117.747-.4 1.486-.778 2.217-1.137.732-.359 1.448-.715 2.148-1.07.7-.353 1.404-.74 2.115-1.16.71-.421 1.408-.851 2.092-1.291.685-.44 1.358-.93 2.021-1.468a36.415 36.415 0 0 0 2.039-1.793 343.907 343.907 0 0 1 2.279-2.141" style="fill:none;stroke:#7ec636;stroke-width:1.8189;stroke-linecap:round;stroke-linejoin:round;stroke-miterlimit:10;stroke-dasharray:none;stroke-opacity:1" transform="matrix(.72727 0 0 .72727 -241.76 -250.297)"/><path d="M398.97 365.436a2.306 2.306 0 0 0-.715-.546c-.177-.084-.436-.134-.776-.149a6.65 6.65 0 0 0-1.27.097 9.029 9.029 0 0 0-1.674.45c-.61.222-1.268.488-1.975.798-.707.31-1.438.682-2.194 1.116a9.461 9.461 0 0 0-2.129 1.693c-.663.695-1.27 1.52-1.82 2.478-.55.956-.989 2.004-1.314 3.143a12.891 12.891 0 0 0-.512 3.356 7.218 7.218 0 0 0 .647 3.128c.448.986 1.069 1.923 1.864 2.81a10.912 10.912 0 0 0 2.64 2.174c.966.562 1.99.937 3.074 1.125 1.082.189 2.205.168 3.368-.061a8.835 8.835 0 0 0 3.273-1.382 10.392 10.392 0 0 0 2.66-2.635c.753-1.065 1.347-2.13 1.78-3.193.434-1.063.69-2.12.767-3.17.077-1.051-.062-2.14-.416-3.265-.355-1.126-.899-2.272-1.631-3.439-.733-1.167-1.385-2.039-1.955-2.617a6.858 6.858 0 0 0-2.002-1.402c-1.139-.53-2.154-.6-3.048-.21" style="fill:none;stroke:#007aff;stroke-width:1.8189;stroke-linecap:round;stroke-linejoin:round;stroke-miterlimit:10;stroke-dasharray:none;stroke-opacity:1" transform="matrix(.72727 0 0 .72727 -241.76 -250.297)"/><path d="m416.506 376.66-.194-.052a.742.742 0 0 1 .168-.022 5324.95 5324.95 0 0 0 3.108-.306 162.71 162.71 0 0 0 1.955-.21c.749-.085 1.578-.176 2.488-.273.91-.098 1.904-.188 2.982-.272a85.372 85.372 0 0 1 3.462-.193c1.23-.046 2.49-.08 3.778-.104 1.288-.023 2.609-.043 3.963-.06 1.354-.016 2.76-.03 4.219-.04 1.458-.01 2.889-.02 4.292-.025 1.403-.006 2.787-.014 4.153-.024 1.366-.01 2.655-.014 3.868-.015 1.796-.001 3.777.274 5.944.826M370.4 368.522a9.987 9.987 0 0 1 1.378.072c.233.034.559.095.976.184.417.09.875.202 1.373.34.498.137.979.274 1.441.411.463.137.889.239 1.278.305a17.907 17.907 0 0 0 2.228.24c.44.025.749.046.929.062.18.017.294-.066.342-.25.048-.182.076-.438.083-.768.007-.33.01-.739.005-1.228-.004-.488-.01-1-.021-1.533a69.93 69.93 0 0 1-.01-1.736c.002-.623.043-1.232.12-1.827.076-.594.153-1.087.233-1.48a23.7 23.7 0 0 0 .288-1.774M369.748 385.588a36.514 36.514 0 0 1-.093-.027c-.01-.003.053-.028.189-.075l.715-.246a14.59 14.59 0 0 1 1.087-.326c.383-.099.838-.196 1.365-.292a28.44 28.44 0 0 1 1.605-.243c.543-.067.998-.11 1.366-.131.367-.021.963-.033 1.786-.035.823-.002 1.346.013 1.568.047a4.1 4.1 0 0 1 .637.147c.203.064.402.143.598.235.196.092.375.205.538.338.163.134.288.283.376.448.088.165.129.356.123.572-.006.217-.116.506-.33.87-.214.363-.51.833-.889 1.412-.378.578-.772 1.172-1.18 1.78-.593.884-1.453 2.39-2.58 4.52" style="fill:none;stroke:#7ec636;stroke-width:1.8189;stroke-linecap:round;stroke-linejoin:round;stroke-miterlimit:10;stroke-dasharray:none;stroke-opacity:1" transform="matrix(.72727 0 0 .72727 -241.76 -250.297)"/><path d="M458.212 368.115c.016.167.166.39.452.671.182.18.418.388.707.625s.612.483.968.74c.357.255.946.647 1.769 1.173.822.527 1.425.917 1.81 1.173.384.255.733.497 1.047.727.313.23.557.438.73.622.174.184.298.347.372.489.075.142.149.309.223.502.073.192.142.355.207.487.064.133.103.28.116.44a.763.763 0 0 1-.08.426 3.507 3.507 0 0 1-.301.455c-.136.179-.34.386-.616.622-.276.236-.633.506-1.074.81-.44.304-.951.638-1.532 1.001-.581.364-1.214.716-1.899 1.056-.685.34-1.344.632-1.979.875-.968.37-1.806.728-2.512 1.073" style="fill:none;stroke:#7ec636;stroke-width:1.8189;stroke-linecap:round;stroke-linejoin:round;stroke-miterlimit:10;stroke-dasharray:none;stroke-opacity:1" transform="matrix(.72727 0 0 .72727 -241.76 -250.297)"/></svg>