<svg xmlns="http://www.w3.org/2000/svg" width="93.951" height="45.201"><path d="M339.965 361.378c-.04-.228-.005-.353.104-.376.077-.017.216-.019.416-.007.2.011.687.108 1.46.289.773.18 1.43.33 1.967.447.538.117 1.12.236 1.749.357.628.12 1.31.255 2.046.404.737.149 1.503.338 2.3.569.797.23 1.64.504 2.53.822.889.318 1.83.66 2.825 1.027.994.367 2.007.74 3.04 1.119 1.032.379 2.09.826 3.176 1.341 1.085.516 2.2 1.058 3.342 1.627a43.1 43.1 0 0 1 3.419 1.904c1.136.701 2.27 1.428 3.403 2.182a66.4 66.4 0 0 1 3.281 2.327 47.094 47.094 0 0 1 2.86 2.332 110.228 110.228 0 0 1 4.12 3.877M338.354 421.208c.053.073.188.108.404.105.216-.002.468-.037.757-.104.288-.066.59-.128.904-.185.314-.056.83-.127 1.547-.212l1.946-.23c.58-.069 1.185-.143 1.815-.223.629-.08 1.375-.188 2.237-.322a90.446 90.446 0 0 0 2.006-.33 88.15 88.15 0 0 0 2.867-.57c.372-.084.823-.196 1.353-.338.53-.142 1.123-.314 1.776-.516a89.63 89.63 0 0 0 1.805-.577c.55-.183 1.587-.576 3.11-1.18 1.523-.602 2.65-1.076 3.38-1.42a48.74 48.74 0 0 0 2.217-1.117c.746-.4 1.485-.778 2.217-1.137a189 189 0 0 0 2.147-1.07c.7-.353 1.405-.74 2.115-1.16.711-.421 1.409-.851 2.093-1.291a22.49 22.49 0 0 0 2.02-1.468 36.414 36.414 0 0 0 2.04-1.794 339.267 339.267 0 0 1 2.279-2.14" style="fill:none;stroke:#7ec636;stroke-width:1.8189;stroke-linecap:round;stroke-linejoin:round;stroke-miterlimit:10;stroke-dasharray:none;stroke-opacity:1" transform="matrix(.72727 0 0 .72727 -245.414 -261.87)"/><path d="M403.996 381.35a2.303 2.303 0 0 0-.715-.546c-.177-.085-.436-.134-.777-.149a6.652 6.652 0 0 0-1.27.097 9.03 9.03 0 0 0-1.674.45c-.61.222-1.268.488-1.975.798-.706.31-1.438.682-2.194 1.116a9.464 9.464 0 0 0-2.128 1.693c-.663.695-1.27 1.52-1.82 2.477a13.95 13.95 0 0 0-1.314 3.144 12.893 12.893 0 0 0-.512 3.356 7.218 7.218 0 0 0 .646 3.128c.448.986 1.07 1.923 1.864 2.81a10.914 10.914 0 0 0 2.641 2.174c.966.562 1.99.937 3.073 1.125 1.083.189 2.206.168 3.368-.061a8.837 8.837 0 0 0 3.274-1.382 10.393 10.393 0 0 0 2.66-2.635c.753-1.066 1.346-2.13 1.78-3.193a10.39 10.39 0 0 0 .766-3.17c.077-1.051-.061-2.14-.416-3.265-.354-1.126-.898-2.272-1.63-3.439-.734-1.167-1.385-2.04-1.955-2.617a6.859 6.859 0 0 0-2.003-1.402c-1.138-.53-2.154-.6-3.047-.21" style="fill:none;stroke:#007aff;stroke-width:1.8189;stroke-linecap:round;stroke-linejoin:round;stroke-miterlimit:10;stroke-dasharray:none;stroke-opacity:1" transform="matrix(.72727 0 0 .72727 -245.414 -261.87)"/><path d="m421.531 392.575-.193-.053a.742.742 0 0 1 .168-.022l1.23-.12c.697-.068 1.323-.13 1.877-.186a162.91 162.91 0 0 0 1.956-.21 422.85 422.85 0 0 1 2.487-.273c.91-.098 1.904-.188 2.982-.272a85.726 85.726 0 0 1 3.463-.194c1.23-.045 2.489-.08 3.777-.103a639.1 639.1 0 0 1 3.963-.06c1.355-.016 2.76-.03 4.22-.04 1.458-.01 2.888-.02 4.291-.025 1.403-.006 2.788-.014 4.153-.024 1.366-.01 2.655-.015 3.868-.016 1.796 0 3.778.275 5.944.827" style="fill:none;stroke:#7ec636;stroke-width:1.8189;stroke-linecap:round;stroke-linejoin:round;stroke-miterlimit:10;stroke-dasharray:none;stroke-opacity:1" transform="matrix(.72727 0 0 .72727 -245.414 -261.87)"/><path d="M393.343 393.727c.081.026.19.007.328-.058a4.92 4.92 0 0 1 .664-.232c.448-.132 1.015-.224 1.703-.279M398.237 389.796l-.01-.344v-.005.133c0 .083.01.221.029.416.02.195.06.454.119.778a35.03 35.03 0 0 1 .34 2.33c.075.663.214 1.33.418 2.002M400.766 394.54l-.01.201M404.079 389.33c-.048-.271-.102-.456-.163-.556a.306.306 0 0 0-.184-.138c-.082-.023-.185-.005-.31.056-.124.061-.263.2-.416.417a4.875 4.875 0 0 0-.452.824 4.6 4.6 0 0 0-.325 1.086c-.069.39-.093.82-.073 1.285.02.467.108.866.263 1.197.155.33.358.578.607.74.25.164.525.228.828.194.303-.033.578-.187.825-.46.248-.275.419-.62.514-1.034.094-.415.113-.854.056-1.316a3.92 3.92 0 0 0-.336-1.215 3.441 3.441 0 0 0-1.035-1.279" style="fill:none;stroke:#fff;stroke-width:1.03937;stroke-linecap:round;stroke-linejoin:round;stroke-miterlimit:10;stroke-dasharray:none;stroke-opacity:1" transform="matrix(.72727 0 0 .72727 -245.414 -261.87)"/></svg>