<svg xmlns="http://www.w3.org/2000/svg" width="93.95" height="47.63"><path d="M334.94 345.464c-.04-.228-.005-.353.104-.376.077-.017.216-.019.415-.007.2.011.687.108 1.46.289.774.18 1.43.33 1.968.447.538.117 1.12.236 1.749.357.628.12 1.31.255 2.046.404.736.149 1.503.338 2.3.569.797.23 1.64.504 2.529.822.89.318 1.83.66 2.825 1.027l3.04 1.119c1.032.379 2.091.826 3.176 1.341 1.086.516 2.2 1.058 3.343 1.627a43.083 43.083 0 0 1 3.418 1.904c1.136.701 2.27 1.428 3.403 2.182a66.353 66.353 0 0 1 3.282 2.327 47.063 47.063 0 0 1 2.86 2.333 110.137 110.137 0 0 1 4.12 3.876M333.329 405.294c.053.073.187.108.403.105.216-.002.468-.037.757-.103.289-.067.59-.129.904-.185.314-.057.83-.128 1.547-.213l1.946-.23c.581-.069 1.186-.143 1.815-.223.63-.08 1.375-.188 2.238-.322a89.88 89.88 0 0 0 2.006-.33 88.52 88.52 0 0 0 2.866-.57 34.6 34.6 0 0 0 1.354-.338c.53-.142 1.122-.314 1.775-.516a88.74 88.74 0 0 0 1.806-.577c.55-.183 1.586-.576 3.11-1.18 1.522-.602 2.649-1.076 3.38-1.42.73-.345 1.47-.717 2.216-1.117.747-.4 1.486-.778 2.217-1.137.732-.359 1.448-.715 2.148-1.07.7-.353 1.404-.74 2.115-1.16.71-.421 1.408-.851 2.092-1.291.685-.44 1.358-.93 2.021-1.468a36.415 36.415 0 0 0 2.039-1.793 343.907 343.907 0 0 1 2.279-2.141" style="fill:none;stroke:#7ec636;stroke-width:1.8189;stroke-linecap:round;stroke-linejoin:round;stroke-miterlimit:10;stroke-dasharray:none;stroke-opacity:1" transform="matrix(.72727 0 0 .72727 -241.76 -247.867)"/><path d="M398.97 365.436a2.306 2.306 0 0 0-.715-.546c-.177-.084-.436-.134-.776-.149a6.65 6.65 0 0 0-1.27.097 9.029 9.029 0 0 0-1.674.45c-.61.222-1.268.488-1.975.798-.707.31-1.438.682-2.194 1.116a9.461 9.461 0 0 0-2.129 1.693c-.663.695-1.27 1.52-1.82 2.478-.55.956-.989 2.004-1.314 3.143a12.891 12.891 0 0 0-.512 3.356 7.218 7.218 0 0 0 .647 3.128c.448.986 1.069 1.923 1.864 2.81a10.912 10.912 0 0 0 2.64 2.174c.966.562 1.99.937 3.074 1.125 1.082.189 2.205.168 3.368-.061a8.835 8.835 0 0 0 3.273-1.382 10.392 10.392 0 0 0 2.66-2.635c.753-1.065 1.347-2.13 1.78-3.193.434-1.063.69-2.12.767-3.17.077-1.051-.062-2.14-.416-3.265-.355-1.126-.899-2.272-1.631-3.439-.733-1.167-1.385-2.039-1.955-2.617a6.858 6.858 0 0 0-2.002-1.402c-1.139-.53-2.154-.6-3.048-.21" style="fill:none;stroke:#007aff;stroke-width:1.8189;stroke-linecap:round;stroke-linejoin:round;stroke-miterlimit:10;stroke-dasharray:none;stroke-opacity:1" transform="matrix(.72727 0 0 .72727 -241.76 -247.867)"/><path d="m416.506 376.66-.194-.052a.742.742 0 0 1 .168-.022 5324.95 5324.95 0 0 0 3.108-.306 162.71 162.71 0 0 0 1.955-.21c.749-.085 1.578-.176 2.488-.273.91-.098 1.904-.188 2.982-.272a85.372 85.372 0 0 1 3.462-.193c1.23-.046 2.49-.08 3.778-.104 1.288-.023 2.609-.043 3.963-.06 1.354-.016 2.76-.03 4.219-.04 1.458-.01 2.889-.02 4.292-.025 1.403-.006 2.787-.014 4.153-.024 1.366-.01 2.655-.014 3.868-.015 1.796-.001 3.777.274 5.944.826" style="fill:none;stroke:#7ec636;stroke-width:1.8189;stroke-linecap:round;stroke-linejoin:round;stroke-miterlimit:10;stroke-dasharray:none;stroke-opacity:1" transform="matrix(.72727 0 0 .72727 -241.76 -247.867)"/><path d="M446.299 432.629v-.483.013l.018.41c.011.259.032.587.062.983.043.568.135 2.072.276 4.513M441.348 436.94c.717-.828 1.265-1.457 1.644-1.887" style="fill:none;stroke:#fff;stroke-width:1.03937;stroke-linecap:round;stroke-linejoin:round;stroke-miterlimit:10;stroke-dasharray:none;stroke-opacity:1" transform="matrix(.72727 0 0 .72727 -248.46 -297.208)"/><path d="M441.216 435.14c.122.224.264.446.426.666.236.32.555.824.957 1.51M357.503 411.835c.322-.29.573-.501.753-.633a3.62 3.62 0 0 1 .493-.291 7.43 7.43 0 0 1 1.15-.444" style="fill:none;stroke:#fff;stroke-width:1.03937;stroke-linecap:round;stroke-linejoin:round;stroke-miterlimit:10;stroke-dasharray:none;stroke-opacity:1" transform="matrix(.72727 0 0 .72727 -248.46 -297.208)"/><path d="M358.212 409.852c0 .217.014.438.043.664.04.326.177.944.408 1.853M351.328 467.402c.254-.63.678-1.338 1.273-2.123" style="fill:none;stroke:#fff;stroke-width:1.03937;stroke-linecap:round;stroke-linejoin:round;stroke-miterlimit:10;stroke-dasharray:none;stroke-opacity:1" transform="matrix(.72727 0 0 .72727 -248.46 -297.208)"/><path d="M350.606 465.594c.318.228.588.434.812.62.219.181.664.638 1.336 1.371M449.357 437.83l-.116.104M453.754 432.796c-.029-.069-.115-.143-.26-.223a1.423 1.423 0 0 0-.256-.114 1.358 1.358 0 0 0-.338-.047.882.882 0 0 0-.413.08c-.128.059-.25.155-.364.287-.116.133-.222.32-.32.562a4.947 4.947 0 0 0-.252.881c-.069.346-.114.7-.134 1.064-.02.363.01.72.087 1.072.077.352.201.646.371.883.17.238.377.393.62.467.243.073.495.054.758-.058.263-.113.497-.335.703-.668.206-.333.357-.712.453-1.136a4.21 4.21 0 0 0 .11-1.194c-.023-.371-.106-.683-.248-.936a2.017 2.017 0 0 0-.468-.586 2.962 2.962 0 0 0-.842-.48M365.677 411.03a2.76 2.76 0 0 0 .227-.87c.021-.209.014-.364-.023-.465a.61.61 0 0 0-.219-.275 1.21 1.21 0 0 0-.415-.192 1.536 1.536 0 0 0-.55-.04c-.198.02-.414.105-.646.256-.232.151-.46.352-.682.603-.223.25-.423.56-.6.926a5.274 5.274 0 0 0-.409 1.232 8.332 8.332 0 0 0-.17 1.287c-.02.404.006.754.077 1.05.072.296.215.52.431.672.216.152.48.208.79.167.31-.042.605-.197.885-.466.28-.27.516-.6.71-.993.195-.392.345-.823.45-1.293.106-.47.172-.89.199-1.259.027-.369.02-.645-.02-.827a.85.85 0 0 0-.256-.455M366.844 416.731l-.078-.553M372.82 413.304a.485.485 0 0 0 .246-.243c.027-.067.046-.194.06-.38a1.12 1.12 0 0 0-.05-.466.83.83 0 0 0-.225-.33.897.897 0 0 0-.377-.2 1.241 1.241 0 0 0-.52-.011c-.199.032-.434.138-.703.317-.269.179-.545.429-.827.749-.282.32-.55.725-.805 1.215a6.568 6.568 0 0 0-.572 1.58c-.128.563-.174 1.04-.137 1.43.036.392.162.698.379.92.216.222.492.362.83.42.337.059.7.004 1.088-.167.389-.17.732-.437 1.029-.802.297-.365.524-.778.68-1.24.157-.46.26-.924.308-1.388.072-.689.047-1.457-.073-2.304M357.38 462.876c.116-.16.146-.31.09-.45a.772.772 0 0 0-.158-.25.677.677 0 0 0-.234-.159.925.925 0 0 0-.297-.065 1.058 1.058 0 0 0-.354.044 1.23 1.23 0 0 0-.383.193c-.13.093-.253.216-.372.368a2.64 2.64 0 0 0-.332.579c-.102.234-.18.512-.237.834a5.16 5.16 0 0 0-.063 1.068c.014.39.096.762.246 1.113.151.35.358.645.623.882.264.238.564.407.899.507.335.1.663.146.985.14.322-.007.612-.09.87-.246.257-.156.446-.382.565-.676.118-.294.165-.656.14-1.087a3.636 3.636 0 0 0-.28-1.218 3.799 3.799 0 0 0-.544-.939 2.505 2.505 0 0 0-1.144-.782M361.39 465.7l-.31.133M362.753 461.497c-.07-.013-.14-.098-.212-.254a1.741 1.741 0 0 1-.144-.483 1.33 1.33 0 0 1 .001-.436.658.658 0 0 1 .19-.343c.1-.102.231-.186.39-.253a1.69 1.69 0 0 1 .526-.122c.19-.014.322-.01.396.014a.504.504 0 0 1 .22.16c.072.082.12.16.142.234.023.074.039.226.047.455.008.23.01.437.007.622a2.8 2.8 0 0 1-.043.474c-.025.13.002.171.082.122.08-.05.188-.1.324-.147.137-.048.275-.081.415-.099.14-.017.267-.027.38-.03a.931.931 0 0 1 .318.049c.1.034.199.082.295.144.097.062.186.133.268.213a1.34 1.34 0 0 1 .36.634c.031.124.049.284.054.48.005.195-.082.445-.261.75a2.13 2.13 0 0 1-.688.726c-.403.26-.914.214-1.533-.137" style="fill:none;stroke:#fff;stroke-width:1.03937;stroke-linecap:round;stroke-linejoin:round;stroke-miterlimit:10;stroke-dasharray:none;stroke-opacity:1" transform="matrix(.72727 0 0 .72727 -248.46 -297.208)"/></svg>