<svg xmlns="http://www.w3.org/2000/svg" width="150.068" height="68.095"><path d="M270.176 148.94c.095-.394.127-.657.095-.787-.021-.09-.126-.197-.313-.32-.188-.123-.452-.222-.792-.299a8.86 8.86 0 0 0-1.282-.17 21.063 21.063 0 0 0-1.791-.04c-.68.01-1.415.099-2.206.265-.79.167-1.587.365-2.388.595-.802.23-1.53.511-2.182.843a5.997 5.997 0 0 0-1.775 1.393c-.53.598-1 1.45-1.41 2.554-.41 1.105-.676 2.417-.796 3.936-.12 1.519-.04 3.16.241 4.92a19.602 19.602 0 0 0 1.505 5.032c.722 1.592 1.616 2.973 2.683 4.141 1.066 1.17 2.239 2.008 3.52 2.518 1.28.51 2.64.808 4.076.894 1.437.087 2.85-.073 4.239-.479 1.388-.405 2.603-1.058 3.643-1.958a10.05 10.05 0 0 0 2.466-3.19c.605-1.227.998-2.585 1.18-4.073.181-1.489.17-2.901-.032-4.238-.202-1.336-.675-2.733-1.418-4.19a24.081 24.081 0 0 0-2.664-4.123 93.775 93.775 0 0 0-2.874-3.437c-.883-1-1.644-1.705-2.283-2.114-.912-.582-1.827-.38-2.746.607M271.013 211.428a3.244 3.244 0 0 0-.795-.465 13.047 13.047 0 0 0-.897-.332 9.506 9.506 0 0 0-1.346-.335 12.016 12.016 0 0 0-1.681-.173 6.64 6.64 0 0 0-1.927.229 7.866 7.866 0 0 0-2.047.881c-.69.412-1.358.953-2.007 1.623-.648.67-1.245 1.511-1.79 2.522a14.08 14.08 0 0 0-1.263 3.32 12.57 12.57 0 0 0-.36 3.617c.055 1.208.325 2.405.81 3.593.484 1.187 1.172 2.326 2.064 3.418a19.097 19.097 0 0 0 2.91 2.885c1.048.831 2.09 1.428 3.124 1.79a8.719 8.719 0 0 0 3.23.477 6.6 6.6 0 0 0 3.113-.895c.956-.556 1.765-1.358 2.427-2.408.661-1.05 1.2-2.3 1.617-3.748.416-1.45.685-2.88.806-4.293.12-1.412.048-2.753-.22-4.024-.268-1.27-.748-2.406-1.44-3.406s-1.426-1.79-2.203-2.368c-.777-.58-1.494-.99-2.15-1.234-.658-.244-1.213-.392-1.666-.446-.652-.076-1.056.115-1.211.575" style="fill:none;stroke:#007aff;stroke-width:1.8189;stroke-linecap:round;stroke-linejoin:round;stroke-miterlimit:10;stroke-dasharray:none;stroke-opacity:1" transform="matrix(.72727 0 0 .72727 -148.255 -103.1)"/><path d="M283.533 160.742c-.04-.228-.005-.354.104-.377.077-.016.216-.018.416-.007.2.012.686.108 1.46.29.773.18 1.429.33 1.967.446.538.118 1.12.237 1.749.357.628.121 1.31.256 2.046.404.737.149 1.503.339 2.3.569.797.23 1.64.505 2.53.822.888.318 1.83.66 2.825 1.027l3.04 1.12c1.032.378 2.09.825 3.176 1.34 1.085.516 2.2 1.058 3.342 1.627a43.07 43.07 0 0 1 3.419 1.905c1.136.7 2.27 1.428 3.402 2.181a66.42 66.42 0 0 1 3.282 2.327 47.094 47.094 0 0 1 2.86 2.333 110.062 110.062 0 0 1 4.12 3.876M281.922 220.572c.053.072.187.107.403.105.216-.002.469-.037.758-.104.288-.067.59-.129.904-.185.314-.056.83-.127 1.546-.212l1.947-.23c.58-.07 1.185-.144 1.814-.224.63-.08 1.376-.187 2.238-.321a90.36 90.36 0 0 0 2.006-.33 88.48 88.48 0 0 0 2.867-.571c.371-.083.823-.196 1.353-.337.53-.142 1.122-.314 1.776-.516a88.772 88.772 0 0 0 1.805-.578c.55-.183 1.587-.576 3.11-1.179 1.523-.603 2.65-1.077 3.38-1.421.731-.345 1.47-.717 2.216-1.116.747-.4 1.486-.779 2.218-1.138a190.69 190.69 0 0 0 2.147-1.069c.7-.354 1.405-.74 2.115-1.161.711-.42 1.408-.85 2.093-1.29.684-.44 1.358-.93 2.02-1.468a36.459 36.459 0 0 0 2.04-1.794 342.928 342.928 0 0 1 2.278-2.14" style="fill:none;stroke:#7ec636;stroke-width:1.8189;stroke-linecap:round;stroke-linejoin:round;stroke-miterlimit:10;stroke-dasharray:none;stroke-opacity:1" transform="matrix(.72727 0 0 .72727 -148.255 -103.1)"/><path d="M347.564 180.713a2.303 2.303 0 0 0-.716-.545c-.176-.085-.435-.135-.776-.15a6.642 6.642 0 0 0-1.27.097 9.019 9.019 0 0 0-1.674.451c-.61.222-1.268.487-1.975.798-.706.31-1.438.682-2.194 1.116a9.461 9.461 0 0 0-2.128 1.693c-.663.694-1.27 1.52-1.82 2.477-.551.957-.99 2.005-1.314 3.143a12.888 12.888 0 0 0-.512 3.357 7.218 7.218 0 0 0 .647 3.127c.447.987 1.068 1.923 1.863 2.81a10.916 10.916 0 0 0 2.641 2.174 9.2 9.2 0 0 0 3.073 1.126c1.083.188 2.206.168 3.368-.062a8.835 8.835 0 0 0 3.274-1.381 10.391 10.391 0 0 0 2.66-2.635c.753-1.066 1.346-2.13 1.78-3.193a10.39 10.39 0 0 0 .766-3.17c.077-1.052-.061-2.14-.416-3.266-.354-1.125-.898-2.272-1.631-3.438-.733-1.167-1.384-2.04-1.954-2.617a6.856 6.856 0 0 0-2.003-1.402c-1.138-.531-2.154-.601-3.047-.21" style="fill:none;stroke:#007aff;stroke-width:1.8189;stroke-linecap:round;stroke-linejoin:round;stroke-miterlimit:10;stroke-dasharray:none;stroke-opacity:1" transform="matrix(.72727 0 0 .72727 -148.255 -103.1)"/><path d="M205.228 160.08c-.144-.049-.22-.105-.228-.17-.005-.046.228-.13.698-.25.471-.122.97-.232 1.495-.333.526-.1 1.118-.193 1.776-.278a37.233 37.233 0 0 1 2.156-.209c.779-.055 2.064-.12 3.855-.195a776 776 0 0 1 4.172-.166c.99-.036 2.022-.065 3.095-.087 1.073-.023 2.157-.04 3.251-.051a558.98 558.98 0 0 1 4.956-.019c2.209 0 3.87.01 4.98.033 1.113.023 2.249.045 3.409.066 1.16.021 2.307.061 3.444.12 1.136.057 2.131.164 2.985.318 1.273.231 2.553.637 3.839 1.22M204.76 221.922c.324-.073.737-.112 1.242-.117a108.778 108.778 0 0 0 2.886-.072c.627-.024 1.31-.049 2.048-.074a296.624 296.624 0 0 1 4.797-.127c.84-.016 3.147-.025 6.92-.027 3.774-.002 6.208.002 7.303.011a223.267 223.267 0 0 1 6.782.168c1.113.044 2.177.086 3.193.123 1.015.037 1.976.081 2.884.132 1.333.074 3.026.361 5.08.86M365.1 191.938l-.194-.052a.74.74 0 0 1 .167-.023l1.23-.12 1.878-.185a162.91 162.91 0 0 0 1.956-.21c.748-.085 1.578-.176 2.487-.274.91-.097 1.904-.187 2.982-.271a85.546 85.546 0 0 1 3.463-.194c1.23-.045 2.489-.08 3.777-.103a646.91 646.91 0 0 1 3.963-.06c1.354-.016 2.76-.03 4.22-.04 1.457-.011 2.888-.02 4.291-.026 1.403-.006 2.788-.013 4.153-.023 1.366-.01 2.655-.015 3.868-.016 1.796-.001 3.778.274 5.944.827" style="fill:none;stroke:#7ec636;stroke-width:1.8189;stroke-linecap:round;stroke-linejoin:round;stroke-miterlimit:10;stroke-dasharray:none;stroke-opacity:1" transform="matrix(.72727 0 0 .72727 -148.255 -103.1)"/><path d="M238.217 390.42c.258-.318.534-.71.829-1.175.425-.672 1.325-1.941 2.698-3.808" style="fill:none;stroke:#fff;stroke-width:1.03937;stroke-linecap:round;stroke-linejoin:round;stroke-miterlimit:10;stroke-dasharray:none;stroke-opacity:1" transform="matrix(.72727 0 0 .72727 -166.796 -277.308)"/><path d="M238.217 386.036c.115.008.263.098.445.27.183.173.4.41.652.709.253.3.53.627.834.984.443.52 1.034 1.36 1.772 2.52M247.302 384.247c.05-.217.026-.462-.071-.735a1.934 1.934 0 0 0-.298-.53 1.702 1.702 0 0 0-.39-.385 1.256 1.256 0 0 0-.44-.177 1.713 1.713 0 0 0-.548-.018 1.256 1.256 0 0 0-.597.257c-.201.148-.389.349-.564.602-.175.253-.324.584-.447.993a6.577 6.577 0 0 0-.243 1.43c-.039.545-.035 1.103.01 1.673.045.571.16 1.121.345 1.65.186.53.416.989.69 1.377.274.388.57.684.889.886.319.203.635.33.95.38.314.05.615.01.902-.12.288-.132.552-.403.792-.814.241-.41.431-.9.57-1.465.14-.566.232-1.131.276-1.696a9.531 9.531 0 0 0 .001-1.58c-.064-.716-.415-1.41-1.053-2.083M252.078 390.433l-.204-.234M255.642 385.12c-.03.123-.13.174-.3.152-.119-.015-.214-.085-.287-.21a2.133 2.133 0 0 1-.192-.492 4.939 4.939 0 0 1-.133-.685 6.7 6.7 0 0 1-.054-.77c-.003-.26.028-.486.094-.68.067-.193.147-.337.242-.431a.613.613 0 0 1 .316-.176.64.64 0 0 1 .356.035c.122.047.244.145.366.295s.236.365.342.645c.106.28.19.607.253.985.062.377.102.774.117 1.192.016.417.005.871-.033 1.363a9.21 9.21 0 0 1-.255 1.527c-.131.526-.272.988-.423 1.384-.15.397-.29.706-.42.927-.129.221-.235.362-.32.423-.083.062-.151.089-.204.081-.053-.007-.091-.059-.114-.156a1.614 1.614 0 0 1-.038-.34.801.801 0 0 1 .05-.32c.034-.083.091-.134.17-.15.078-.017.185.053.32.21.136.157.306.348.51.57.204.224.437.42.7.588.265.168.544.287.84.357.295.07.572.108.83.115.259.007.49-.04.692-.14.202-.101.363-.232.48-.393.177-.24.336-.496.478-.767M239.93 455.28c.113-.257.317-.615.608-1.074.292-.458.565-.87.82-1.233.255-.363.518-.698.791-1.004a4.922 4.922 0 0 1 1.311-1.07" style="fill:none;stroke:#fff;stroke-width:1.03937;stroke-linecap:round;stroke-linejoin:round;stroke-miterlimit:10;stroke-dasharray:none;stroke-opacity:1" transform="matrix(.72727 0 0 .72727 -166.796 -277.308)"/><path d="M240.192 450.688c.127.18.342.575.645 1.184s.548 1.106.735 1.492c.273.563.715 1.348 1.326 2.353M248.329 447.657l-.026-.17v.161l-.001 2.647a73.1 73.1 0 0 0 .16 4.898M251.066 455.646v.117M256.348 449.492a.919.919 0 0 0-.057-.54 2.116 2.116 0 0 0-.199-.351.792.792 0 0 0-.318-.274.853.853 0 0 0-.45-.067c-.171.016-.358.113-.56.291-.203.179-.391.412-.567.698a4.403 4.403 0 0 0-.448 1.076c-.123.43-.197.945-.222 1.545-.025.6.043 1.165.204 1.697.16.532.379.937.655 1.215.276.279.582.438.918.48.337.04.672-.065 1.006-.316.334-.252.586-.613.757-1.084.17-.472.271-1.007.302-1.606.03-.599.003-1.107-.082-1.524-.086-.417-.203-.746-.353-.986a1.446 1.446 0 0 0-.974-.666M283.797 400.977c.616-.254 1.44-.284 2.471-.091M290.886 398.395c.04-.133-.033-.238-.218-.318-.185-.079-.323-.12-.414-.122a1.084 1.084 0 0 0-.298.035c-.107.027-.217.104-.33.231a2.42 2.42 0 0 0-.285.397 3.876 3.876 0 0 0-.269.673 7.073 7.073 0 0 0-.337 1.82 3.96 3.96 0 0 0 .037.802c.038.247.137.479.297.694a1.852 1.852 0 0 0 1.306.747c.254.027.503-.004.746-.09s.452-.237.628-.455c.177-.217.3-.474.371-.772.071-.297.112-.625.123-.983a4.848 4.848 0 0 0-.088-1.08c-.07-.36-.16-.68-.27-.96a2.973 2.973 0 0 0-.346-.67c-.187-.255-.369-.437-.545-.546M293.628 402.5l-.178-.045M295.555 398.097c-.107-.005-.161-.056-.163-.154a.604.604 0 0 1 .09-.274c.062-.114.138-.222.23-.326.09-.104.205-.197.343-.28.137-.08.282-.142.434-.181.152-.04.291-.053.417-.038a.398.398 0 0 1 .303.203c.075.121.125.277.15.466.023.19.037.379.04.566.001.188-.008.356-.03.504a1.593 1.593 0 0 1-.081.345.495.495 0 0 1-.115.183l-.093.086c-.018.017 0 .025.057.026h.287c.136 0 .281.005.437.015a.985.985 0 0 1 .456.149c.148.09.285.21.41.36a2.153 2.153 0 0 1 .473 1.04c.03.19.029.38-.004.568-.033.188-.148.38-.347.576a2.948 2.948 0 0 1-.807.537c-.34.161-.686.27-1.04.326-.52.083-.995-.059-1.426-.424M285.839 463.372c.355.054 1.022-.002 2.002-.169" style="fill:none;stroke:#fff;stroke-width:1.03937;stroke-linecap:round;stroke-linejoin:round;stroke-miterlimit:10;stroke-dasharray:none;stroke-opacity:1" transform="matrix(.72727 0 0 .72727 -166.796 -277.308)"/><path d="M287.067 460.716a48.215 48.215 0 0 0 .016 2.249c.02.418.099.955.235 1.612M291.766 460.766c-.072-.312-.195-.535-.368-.669a.879.879 0 0 0-.46-.166 1.19 1.19 0 0 0-.42.012c-.09.027-.215.139-.375.337s-.297.451-.411.76c-.115.309-.19.672-.228 1.089-.038.417-.034.835.012 1.255.045.42.161.798.348 1.132.186.335.4.615.64.84.241.225.496.362.765.411.269.05.516 0 .743-.146.227-.146.405-.36.535-.642.129-.281.21-.612.24-.99.03-.38.027-.76-.01-1.14a6.353 6.353 0 0 0-.17-.993 4.962 4.962 0 0 0-.196-.618.361.361 0 0 0-.27-.232M294.514 464.568l-.024.174c0 .004-.001.003-.002 0l-.042-.187M297.878 460.42c.018-.33-.017-.543-.104-.64a.859.859 0 0 0-.305-.194 1.019 1.019 0 0 0-.351-.096c-.09-.002-.182.041-.273.13-.092.088-.19.237-.297.446a5.086 5.086 0 0 0-.303.765 8.564 8.564 0 0 0-.238.93c-.062.32-.1.617-.11.893-.01.276.035.541.137.796.101.254.273.458.514.613.242.154.51.243.805.268a1.6 1.6 0 0 0 .84-.153c.266-.127.471-.328.617-.603.146-.275.233-.617.26-1.027a4.17 4.17 0 0 0-.099-1.23 7.18 7.18 0 0 0-.322-1.062 3.662 3.662 0 0 0-.71-1.143M324.09 398.361c.091.02.365-.085.821-.313.269-.134.54-.263.816-.388.275-.124.602-.266.981-.425.557-.234 1.297-.487 2.22-.758" style="fill:none;stroke:#fff;stroke-width:1.03937;stroke-linecap:round;stroke-linejoin:round;stroke-miterlimit:10;stroke-dasharray:none;stroke-opacity:1" transform="matrix(.72727 0 0 .72727 -166.796 -277.308)"/><path d="M325.993 395.209c.068.49.168.929.3 1.316.088.26.19.528.306.803.167.4.415 1.065.743 1.996M334.803 397.328a2.819 2.819 0 0 0-.312-.522.792.792 0 0 0-.232-.178 1.217 1.217 0 0 0-.371-.118 2.782 2.782 0 0 0-.516-.032 1.856 1.856 0 0 0-.57.102 2.257 2.257 0 0 0-.544.279c-.178.122-.36.294-.546.516a5.12 5.12 0 0 0-.547.812c-.178.32-.317.648-.418.982-.1.333-.163.663-.186.989-.023.326-.005.669.055 1.03.06.36.165.695.314 1.003.149.308.3.542.454.702.154.16.382.287.683.38.302.092.592.137.87.132.279-.004.557-.074.834-.21.277-.137.524-.313.74-.53a3.86 3.86 0 0 0 .591-.774c.177-.3.326-.603.447-.908.121-.305.214-.62.28-.942.065-.322.102-.664.112-1.024a2.728 2.728 0 0 0-.133-.97c-.099-.285-.224-.5-.377-.648a.954.954 0 0 0-.496-.27c-.26-.046-.503.026-.73.217M336.224 403.818l-.055-.112M343.705 401.948c.013-.325.005-.537-.025-.637a.514.514 0 0 0-.122-.202 1.072 1.072 0 0 0-.246-.19 1.612 1.612 0 0 0-.348-.148 1.8 1.8 0 0 0-.448-.07c-.17-.007-.352.011-.548.053a2.053 2.053 0 0 0-.602.244c-.205.12-.406.277-.602.472a7.942 7.942 0 0 0-1.144 1.457c-.177.287-.331.59-.464.91-.133.321-.227.647-.28.978-.053.33-.064.645-.032.944.03.298.12.553.265.766.145.212.31.367.494.465.184.098.358.153.523.166.164.012.379-.024.644-.109a2.58 2.58 0 0 0 .72-.358c.216-.155.384-.321.506-.5.122-.178.198-.352.23-.522.031-.17.036-.32.012-.45a.513.513 0 0 0-.222-.329 1.68 1.68 0 0 0-.495-.227 4.918 4.918 0 0 0-.601-.142 3.752 3.752 0 0 0-.55-.055 1.654 1.654 0 0 0-.443.045c-.185.048-.298.148-.338.298M320.66 452.41c.158-.248.414-.82.768-1.718.327-.828.703-1.48 1.128-1.956" style="fill:none;stroke:#fff;stroke-width:1.03937;stroke-linecap:round;stroke-linejoin:round;stroke-miterlimit:10;stroke-dasharray:none;stroke-opacity:1" transform="matrix(.72727 0 0 .72727 -166.796 -277.308)"/><path d="M320.224 449.795c.628.417 1.091.74 1.389.969.299.23.704.53 1.214.903M326.85 446.588c-.043-.172-.11-.298-.201-.378a.623.623 0 0 0-.266-.123 1.286 1.286 0 0 0-.6-.015c-.093.02-.222.097-.387.232s-.312.32-.442.556c-.13.235-.234.486-.314.751a3.51 3.51 0 0 0-.14.842c-.014.296.034.614.145.955.111.341.276.685.493 1.03.217.347.474.643.771.89.297.248.62.435.968.562.348.128.67.191.967.191.297 0 .526-.067.689-.2.162-.133.298-.436.407-.911.11-.474.16-.94.15-1.395a4.77 4.77 0 0 0-.184-1.259 5.966 5.966 0 0 0-.416-1.051 3.902 3.902 0 0 0-.484-.752c-.16-.185-.307-.308-.443-.369-.199-.09-.379-.085-.54.013M330.688 450.454l-.175-.133M333.508 443.3c-.005.195-.05.369-.13.52a1.945 1.945 0 0 1-.211.308 1.684 1.684 0 0 1-.688.492 1.85 1.85 0 0 1-.411.105 3.17 3.17 0 0 1-.35.03.538.538 0 0 1-.245-.045 34.351 34.351 0 0 1-.11-.053l.077.022c.048.013.11.06.19.142.078.08.161.189.249.323.087.134.174.284.258.45.085.167.178.375.28.626.101.25.177.443.227.58.05.135.096.204.14.206.043.002.087-.032.133-.099.045-.067.109-.145.19-.235s.175-.171.283-.243c.107-.071.22-.123.336-.153.117-.03.236-.05.357-.06.121-.01.237-.012.349-.006a.913.913 0 0 1 .338.088c.114.053.233.129.357.227.124.099.246.226.364.382a2.914 2.914 0 0 1 .507 1.07c.043.188.056.397.04.628-.016.23-.088.469-.216.714a2.275 2.275 0 0 1-.504.649 1.386 1.386 0 0 1-.668.349 3.589 3.589 0 0 1-.454.069c-.095.002-.315-.281-.66-.848M406.984 426.09c.356-.553.667-1.022.932-1.407.18-.26.41-.575.692-.942.282-.368.58-.723.896-1.066a20.151 20.151 0 0 1 1.8-1.692" style="fill:none;stroke:#fff;stroke-width:1.03937;stroke-linecap:round;stroke-linejoin:round;stroke-miterlimit:10;stroke-dasharray:none;stroke-opacity:1" transform="matrix(.72727 0 0 .72727 -166.796 -277.308)"/><path d="M407.782 421.448c.117.014.283.165.5.45.136.181.467.743.992 1.687a99.884 99.884 0 0 0 1.474 2.563M415.903 417.49v-.094 0l.002.026.049.57a38.877 38.877 0 0 1 .133 2.82c.01.807.007 2.297-.008 4.468M419.123 425.117l-.135.564M424.713 418.979c.043-.325.062-.534.057-.627-.004-.065-.082-.127-.234-.187a1.23 1.23 0 0 0-.428-.094c-.133-.002-.29.044-.472.14a2.763 2.763 0 0 0-.586.438 3.91 3.91 0 0 0-.592.72 5.213 5.213 0 0 0-.484.954 3.95 3.95 0 0 0-.136 2.475c.12.47.309.879.566 1.226a2.358 2.358 0 0 0 1.917.991 1.48 1.48 0 0 0 .93-.34c.28-.222.507-.534.682-.935.174-.4.288-.833.341-1.297.054-.463.054-.91 0-1.34a3.374 3.374 0 0 0-.35-1.153c-.261-.497-.734-.896-1.418-1.197M361.651 432.29c.99-.008 1.693.016 2.108.074" style="fill:none;stroke:#fff;stroke-width:1.03937;stroke-linecap:round;stroke-linejoin:round;stroke-miterlimit:10;stroke-dasharray:none;stroke-opacity:1" transform="matrix(.72727 0 0 .72727 -166.796 -277.308)"/><path d="M362.848 430.502c.006.224.026.491.058.801.03.29.089 1.046.175 2.267M367.994 430.016a1.618 1.618 0 0 0-.074-.368.287.287 0 0 0-.113-.116c-.058-.038-.167-.068-.326-.09a1.802 1.802 0 0 0-.396-.018.798.798 0 0 0-.332.12 1.48 1.48 0 0 0-.357.32 4.195 4.195 0 0 0-.334.456 2.847 2.847 0 0 0-.43 1.223 5.605 5.605 0 0 0-.035.81c.007.282.057.547.15.798.094.25.215.455.364.616.148.161.311.278.488.351.178.073.372.118.582.135.211.018.42-.008.626-.076.206-.068.4-.201.584-.4.183-.2.335-.478.457-.833.121-.355.203-.728.245-1.118.041-.39.055-.729.04-1.017a1.379 1.379 0 0 0-.22-.72 1.235 1.235 0 0 0-.46-.42 1.344 1.344 0 0 0-.484-.15c-.212-.018-.37.075-.474.278M370.586 433.367l-.255-.033M372.245 430.68a1.29 1.29 0 0 1-.123-.46 3.791 3.791 0 0 1-.016-.404.92.92 0 0 1 .065-.308c.04-.103.096-.202.166-.295.07-.093.145-.179.225-.258.08-.079.157-.142.231-.19a.582.582 0 0 1 .203-.088.394.394 0 0 1 .164 0c.05.012.118.107.207.285a3.17 3.17 0 0 1 .303.885 5.016 5.016 0 0 1 .097.933 2.96 2.96 0 0 1-.056.57 4.333 4.333 0 0 1-.457 1.271c-.11.202-.227.379-.352.532a1.416 1.416 0 0 1-.358.332.729.729 0 0 1-.285.112c-.074.007-.125-.028-.152-.103a.56.56 0 0 1-.01-.284c.02-.113.068-.21.147-.287a.526.526 0 0 1 .254-.149.349.349 0 0 1 .264.045c.086.05.176.135.27.253.095.119.205.23.331.334.126.105.247.187.362.247.116.06.272.114.469.16.197.045.376.07.54.075.235.007.552-.12.95-.377" style="fill:none;stroke:#fff;stroke-width:1.03937;stroke-linecap:round;stroke-linejoin:round;stroke-miterlimit:10;stroke-dasharray:none;stroke-opacity:1" transform="matrix(.72727 0 0 .72727 -166.796 -277.308)"/></svg>