<svg xmlns="http://www.w3.org/2000/svg" width="169.728" height="68.095"><path d="M300.141 396.066c-.246-.45-.438-.768-.576-.951a1.572 1.572 0 0 0-.314-.317c-.114-.085-.318-.168-.612-.248a4.215 4.215 0 0 0-.926-.14 2.87 2.87 0 0 0-.998.142c-.343.11-.694.311-1.054.604-.36.294-.698.657-1.011 1.09a6.982 6.982 0 0 0-.792 1.423 6.224 6.224 0 0 0-.427 1.637 5.734 5.734 0 0 0 .074 1.8c.12.622.325 1.172.614 1.65.288.478.63.852 1.024 1.12.394.27.818.437 1.274.503.455.066.949.038 1.48-.082.533-.12 1.05-.383 1.551-.789a5.566 5.566 0 0 0 1.294-1.525c.36-.612.611-1.233.753-1.864a6.209 6.209 0 0 0 .15-1.814 4.88 4.88 0 0 0-.392-1.617 5.81 5.81 0 0 0-.728-1.26c-.266-.338-.525-.588-.779-.749-.363-.23-.626-.248-.788-.053M304.32 401.638l.164-.535M312.136 393.407c-.095-.119-.455-.21-1.081-.27a15.545 15.545 0 0 0-1.424-.06c-.566-.002-.857.1-.874.305-.017.206-.015.424.007.654.022.231.054.474.095.729.041.254.13.606.268 1.053.137.448.231.777.283.987.051.21.083.5.096.87.013.369.011.593-.006.671l-.027.125v.003-.006l.033-.183a.742.742 0 0 1 .166-.34c.091-.11.213-.202.366-.274a3.819 3.819 0 0 1 1.092-.32c.202-.026.395-.041.581-.044.186-.003.363.04.531.128.169.087.34.205.511.353.172.147.32.292.443.434.122.142.25.342.384.6.134.257.218.518.254.783.035.264.027.553-.026.867a2.627 2.627 0 0 1-.368.942c-.193.314-.454.6-.784.859-.33.258-.702.436-1.117.533a3.355 3.355 0 0 1-1.14.087c-.346-.04-.602-.158-.77-.357-.242-.287-.301-.743-.177-1.367M299.99 456.7c-.216-.333-.408-.578-.574-.733a1.192 1.192 0 0 0-.438-.25c-.178-.06-.4-.097-.668-.108a7.048 7.048 0 0 0-.888.022c-.325.028-.65.09-.977.186-.326.097-.64.241-.945.434-.303.192-.579.453-.826.782-.246.33-.445.735-.597 1.216a6.9 6.9 0 0 0-.282 1.65c-.038.619-.011 1.25.08 1.893a5.99 5.99 0 0 0 .547 1.809c.275.563.595 1.036.96 1.419a3.49 3.49 0 0 0 1.225.847c.451.182.932.282 1.443.3a2.927 2.927 0 0 0 1.505-.368c.493-.264.95-.673 1.371-1.225a7.279 7.279 0 0 0 .977-1.684 6.42 6.42 0 0 0 .438-1.73 8.244 8.244 0 0 0 .003-1.734c-.06-.574-.207-1.064-.44-1.47-.233-.407-.541-.675-.924-.803a2.492 2.492 0 0 0-1.173-.106c-.61.09-1.014.262-1.215.517M306.332 465.184l-.352-.147M312.65 456.696c-.028-.333-.079-.58-.153-.74a1.141 1.141 0 0 0-.233-.324.94.94 0 0 0-.389-.231 2.034 2.034 0 0 0-.514-.09 1.477 1.477 0 0 0-.55.075c-.179.06-.333.167-.462.323a1.437 1.437 0 0 0-.279.563c-.057.22-.089.61-.096 1.17-.007.56.035.956.124 1.189a2.922 2.922 0 0 0 .812 1.17c.18.159.517.389 1.013.69.496.3.873.548 1.132.74.259.193.487.394.685.602.198.208.363.43.493.667.131.237.222.476.273.715.05.24.078.466.084.678.005.212-.031.414-.108.607-.076.194-.207.38-.392.56-.185.18-.41.33-.678.453a3.018 3.018 0 0 1-.89.245c-.325.04-.646.049-.961.025a2.432 2.432 0 0 1-.853-.215 2 2 0 0 1-.643-.469 1.532 1.532 0 0 1-.356-.719 3.445 3.445 0 0 1-.076-.86c.01-.29.074-.565.192-.826.117-.262.259-.494.426-.697a6.038 6.038 0 0 1 1.22-1.125c.257-.184.535-.387.832-.611.297-.224.576-.463.838-.718.262-.256.467-.523.616-.803.148-.28.236-.58.26-.902a1.751 1.751 0 0 0-.19-.938 2.448 2.448 0 0 0-.684-.817c-.447-.354-1.032-.725-1.754-1.113" style="fill:none;stroke:#ffd300;stroke-width:1.03937;stroke-linecap:round;stroke-linejoin:round;stroke-miterlimit:10;stroke-dasharray:none;stroke-opacity:1" transform="matrix(.72727 0 0 .72727 -212.998 -276.44)"/><path d="M386.229 387.282c.095-.395.126-.658.095-.788-.022-.09-.126-.197-.314-.32-.187-.122-.451-.222-.792-.299a8.848 8.848 0 0 0-1.282-.17 21.018 21.018 0 0 0-1.79-.04c-.68.01-1.415.099-2.206.265-.79.167-1.587.365-2.388.595-.802.23-1.53.511-2.182.843a5.998 5.998 0 0 0-1.775 1.393c-.53.598-1 1.45-1.41 2.554-.411 1.105-.676 2.417-.796 3.936-.12 1.52-.04 3.16.241 4.921a19.6 19.6 0 0 0 1.505 5.03c.722 1.593 1.616 2.974 2.682 4.143 1.066 1.168 2.24 2.008 3.52 2.517 1.281.51 2.64.808 4.077.895 1.437.086 2.85-.074 4.239-.48 1.388-.405 2.602-1.058 3.643-1.958 1.04-.9 1.862-1.963 2.466-3.19.605-1.227.998-2.585 1.18-4.073.18-1.488.17-2.901-.032-4.237-.203-1.337-.675-2.734-1.418-4.192a24.081 24.081 0 0 0-2.664-4.122 93.944 93.944 0 0 0-2.874-3.437c-.883-1-1.644-1.705-2.283-2.113-.912-.583-1.828-.38-2.746.606M387.066 449.769a3.24 3.24 0 0 0-.795-.465 12.985 12.985 0 0 0-.898-.332 9.506 9.506 0 0 0-1.345-.335 12.03 12.03 0 0 0-1.681-.173 6.64 6.64 0 0 0-1.927.229 7.863 7.863 0 0 0-2.047.881c-.69.412-1.358.953-2.007 1.623-.648.67-1.245 1.511-1.79 2.522a14.08 14.08 0 0 0-1.263 3.32 12.57 12.57 0 0 0-.361 3.617c.056 1.208.326 2.405.81 3.593.484 1.187 1.173 2.326 2.065 3.418a19.1 19.1 0 0 0 2.91 2.885c1.048.832 2.09 1.428 3.124 1.79a8.72 8.72 0 0 0 3.23.477 6.6 6.6 0 0 0 3.113-.895c.956-.556 1.765-1.358 2.427-2.408.661-1.05 1.2-2.3 1.617-3.748.416-1.45.685-2.88.806-4.292.12-1.413.047-2.754-.22-4.025-.268-1.27-.748-2.406-1.44-3.406s-1.426-1.79-2.203-2.368c-.777-.58-1.494-.99-2.151-1.234-.657-.244-1.212-.392-1.665-.446-.652-.076-1.056.115-1.211.575" style="fill:none;stroke:#007aff;stroke-width:1.8189;stroke-linecap:round;stroke-linejoin:round;stroke-miterlimit:10;stroke-dasharray:none;stroke-opacity:1" transform="matrix(.72727 0 0 .72727 -212.998 -276.44)"/><path d="M399.586 399.083c-.04-.228-.005-.354.104-.377.077-.016.216-.018.416-.007.2.012.686.108 1.46.29.773.18 1.429.33 1.967.447.538.117 1.12.236 1.749.357.628.12 1.31.255 2.046.404.736.148 1.503.338 2.3.568.797.23 1.64.505 2.53.823.888.317 1.83.66 2.824 1.027.995.367 2.008.74 3.04 1.118 1.033.38 2.091.826 3.176 1.342 1.086.515 2.2 1.057 3.343 1.626a43.102 43.102 0 0 1 3.418 1.905c1.137.7 2.27 1.428 3.403 2.181a66.286 66.286 0 0 1 3.282 2.328 47.056 47.056 0 0 1 2.86 2.332 110.145 110.145 0 0 1 4.12 3.877M397.975 458.913c.053.072.187.107.403.105.216-.002.469-.037.757-.104.29-.067.59-.128.905-.185.314-.056.83-.127 1.546-.212l1.947-.23c.58-.07 1.185-.143 1.814-.223.63-.08 1.375-.188 2.238-.322a90.474 90.474 0 0 0 2.006-.33 88.52 88.52 0 0 0 2.866-.57 34.78 34.78 0 0 0 1.354-.338c.53-.142 1.122-.314 1.776-.516a88.772 88.772 0 0 0 1.805-.577c.55-.183 1.587-.576 3.11-1.18 1.522-.603 2.65-1.076 3.38-1.421a48.74 48.74 0 0 0 2.216-1.116c.747-.4 1.486-.779 2.218-1.137.731-.359 1.447-.715 2.147-1.07.7-.353 1.405-.74 2.115-1.161.71-.42 1.408-.85 2.093-1.29.684-.44 1.358-.93 2.02-1.468a36.419 36.419 0 0 0 2.039-1.794 340.224 340.224 0 0 1 2.28-2.14" style="fill:none;stroke:#7ec636;stroke-width:1.8189;stroke-linecap:round;stroke-linejoin:round;stroke-miterlimit:10;stroke-dasharray:none;stroke-opacity:1" transform="matrix(.72727 0 0 .72727 -212.998 -276.44)"/><path d="M463.617 419.055a2.303 2.303 0 0 0-.716-.546c-.177-.085-.435-.135-.776-.15a6.65 6.65 0 0 0-1.27.097 9.022 9.022 0 0 0-1.674.451c-.61.222-1.268.488-1.975.798a22.93 22.93 0 0 0-2.194 1.116 9.463 9.463 0 0 0-2.128 1.693c-.663.695-1.27 1.52-1.821 2.477-.55.957-.989 2.005-1.314 3.143a12.888 12.888 0 0 0-.512 3.357 7.217 7.217 0 0 0 .647 3.127c.448.987 1.069 1.923 1.864 2.81a10.912 10.912 0 0 0 2.641 2.174c.966.562 1.99.937 3.073 1.126 1.083.188 2.206.168 3.368-.062a8.835 8.835 0 0 0 3.274-1.381 10.393 10.393 0 0 0 2.66-2.635c.753-1.066 1.346-2.13 1.78-3.193a10.39 10.39 0 0 0 .766-3.17c.077-1.052-.062-2.14-.416-3.265-.355-1.126-.898-2.272-1.631-3.44-.733-1.166-1.384-2.038-1.954-2.616a6.856 6.856 0 0 0-2.003-1.402c-1.138-.53-2.154-.601-3.047-.21" style="fill:none;stroke:#007aff;stroke-width:1.8189;stroke-linecap:round;stroke-linejoin:round;stroke-miterlimit:10;stroke-dasharray:none;stroke-opacity:1" transform="matrix(.72727 0 0 .72727 -212.998 -276.44)"/><path d="M321.281 398.42c-.144-.047-.22-.104-.228-.17-.005-.045.228-.128.698-.25.471-.12.97-.231 1.495-.332.526-.1 1.118-.193 1.776-.278a37.326 37.326 0 0 1 2.156-.209c.778-.054 2.064-.12 3.855-.194 1.792-.076 3.182-.131 4.172-.167.99-.035 2.021-.065 3.094-.087 1.073-.023 2.157-.04 3.252-.05 1.095-.012 2.746-.018 4.955-.02 2.21 0 3.87.01 4.982.033 1.111.023 2.247.045 3.407.066 1.16.022 2.308.061 3.444.12 1.137.057 2.132.164 2.986.319 1.273.23 2.553.637 3.839 1.218M320.813 460.263c.323-.073.737-.112 1.242-.117a108.778 108.778 0 0 0 2.886-.072c.627-.024 1.31-.049 2.048-.074a291.786 291.786 0 0 1 4.797-.127c.84-.016 3.147-.025 6.92-.027 3.774-.002 6.208.002 7.303.011a222.003 222.003 0 0 1 6.782.168c1.113.045 2.177.086 3.192.123 1.015.038 1.977.082 2.885.132 1.332.075 3.026.361 5.08.86M481.152 430.28c-.114-.032-.179-.05-.194-.053a.747.747 0 0 1 .168-.022 6022.86 6022.86 0 0 0 3.108-.306c.555-.056 1.207-.126 1.955-.21.75-.085 1.578-.176 2.488-.274.91-.097 1.904-.187 2.982-.271a85.546 85.546 0 0 1 3.463-.194c1.23-.045 2.489-.08 3.777-.103a655 655 0 0 1 3.963-.06c1.354-.016 2.76-.03 4.219-.04 1.458-.011 2.889-.02 4.292-.025 1.403-.006 2.787-.014 4.153-.024 1.366-.01 2.655-.015 3.868-.016 1.796-.002 3.778.274 5.944.827" style="fill:none;stroke:#7ec636;stroke-width:1.8189;stroke-linecap:round;stroke-linejoin:round;stroke-miterlimit:10;stroke-dasharray:none;stroke-opacity:1" transform="matrix(.72727 0 0 .72727 -212.998 -276.44)"/><path d="M328.776 389.227c.258-.318.534-.71.829-1.176.425-.672 1.324-1.94 2.698-3.807" style="fill:none;stroke:#fff;stroke-width:1.03937;stroke-linecap:round;stroke-linejoin:round;stroke-miterlimit:10;stroke-dasharray:none;stroke-opacity:1" transform="matrix(.72727 0 0 .72727 -212.998 -276.44)"/><path d="M328.776 384.842c.114.008.263.098.445.271.183.173.4.409.652.708.252.3.53.628.834.984.443.52 1.033 1.36 1.772 2.521M337.86 383.054c.05-.218.026-.463-.07-.736a1.935 1.935 0 0 0-.298-.53 1.701 1.701 0 0 0-.39-.385 1.256 1.256 0 0 0-.44-.177 1.713 1.713 0 0 0-.548-.018 1.257 1.257 0 0 0-.598.257c-.2.148-.388.349-.563.602-.175.254-.324.585-.448.994a6.57 6.57 0 0 0-.243 1.43 11.22 11.22 0 0 0 .01 1.673c.045.57.16 1.12.346 1.65.185.53.415.988.69 1.377.274.388.57.683.889.886.318.202.635.329.95.38.314.05.615.01.902-.122.287-.13.551-.402.792-.813.24-.41.43-.899.57-1.465.14-.565.232-1.13.276-1.696a9.52 9.52 0 0 0 0-1.58c-.063-.716-.414-1.41-1.052-2.083M342.637 389.24a227.94 227.94 0 0 1-.205-.234M346.2 383.925c-.03.124-.129.175-.299.153-.119-.015-.215-.085-.287-.21a2.128 2.128 0 0 1-.192-.492 4.934 4.934 0 0 1-.134-.685 6.7 6.7 0 0 1-.053-.77c-.003-.26.028-.486.094-.68.066-.193.147-.337.242-.431a.613.613 0 0 1 .316-.175.64.64 0 0 1 .355.035c.122.046.244.144.367.294.122.15.236.366.342.645.106.28.19.608.252.985.063.377.102.774.118 1.192.015.417.005.872-.034 1.363a9.22 9.22 0 0 1-.254 1.527c-.132.527-.273.988-.423 1.385-.15.396-.29.705-.42.926-.13.221-.236.363-.32.424-.083.06-.151.088-.204.08-.053-.006-.092-.059-.114-.156a1.614 1.614 0 0 1-.038-.34.801.801 0 0 1 .049-.319c.035-.084.092-.134.17-.151.078-.017.185.053.321.21.136.158.306.348.51.571.203.223.437.419.7.587.264.168.544.287.84.357.295.07.572.108.83.115.258.007.489-.04.691-.14.203-.101.363-.232.481-.392a5.9 5.9 0 0 0 .477-.768M330.488 454.086c.114-.257.317-.615.61-1.073.29-.459.564-.87.819-1.233.254-.364.518-.699.79-1.005a4.92 4.92 0 0 1 1.312-1.07" style="fill:none;stroke:#fff;stroke-width:1.03937;stroke-linecap:round;stroke-linejoin:round;stroke-miterlimit:10;stroke-dasharray:none;stroke-opacity:1" transform="matrix(.72727 0 0 .72727 -212.998 -276.44)"/><path d="M330.751 449.494c.126.18.341.575.645 1.184.303.61.548 1.107.735 1.492.273.564.715 1.348 1.326 2.353M338.887 446.464l-.025-.17v.16l-.002 2.648c0 1.654.054 3.287.161 4.898M341.625 454.453v.117M346.906 448.298a.918.918 0 0 0-.056-.54 2.13 2.13 0 0 0-.2-.351.793.793 0 0 0-.317-.274.853.853 0 0 0-.45-.067c-.172.016-.359.113-.56.292-.203.178-.392.411-.567.698a4.401 4.401 0 0 0-.448 1.075c-.123.43-.198.946-.222 1.545-.025.6.043 1.166.204 1.697.16.532.379.937.655 1.216.275.278.582.438.918.479.336.041.672-.064 1.006-.316.334-.251.586-.613.757-1.084.17-.471.27-1.006.301-1.605.031-.6.003-1.108-.082-1.525-.085-.417-.203-.745-.353-.986a1.446 1.446 0 0 0-.973-.666M374.356 399.784c.616-.254 1.44-.285 2.47-.092M381.445 397.201c.04-.132-.033-.238-.218-.317-.185-.08-.323-.12-.414-.123a1.124 1.124 0 0 0-.298.036c-.107.026-.217.103-.33.23a2.42 2.42 0 0 0-.285.397 3.873 3.873 0 0 0-.269.673 7.073 7.073 0 0 0-.338 1.82c-.013.288-.002.556.037.803s.138.478.297.694c.16.215.354.387.583.515.228.129.47.206.724.232.254.026.502-.004.745-.09s.453-.238.63-.455c.175-.218.299-.475.37-.772.07-.297.112-.625.123-.984a4.848 4.848 0 0 0-.088-1.079c-.07-.36-.16-.681-.27-.962a2.97 2.97 0 0 0-.347-.669c-.187-.255-.368-.437-.544-.545M384.187 401.306l-.178-.044M386.113 396.904c-.106-.005-.16-.057-.162-.155a.603.603 0 0 1 .09-.274c.062-.113.138-.222.23-.326.09-.104.204-.197.342-.279.138-.082.283-.142.435-.182.152-.04.29-.052.417-.038a.398.398 0 0 1 .302.203c.076.122.126.277.15.467.024.19.037.378.04.566.002.187-.007.355-.03.504a1.594 1.594 0 0 1-.08.344.495.495 0 0 1-.115.183c-.044.041-.075.07-.094.086-.018.017.001.026.058.026h.287c.136.001.281.006.436.016a.986.986 0 0 1 .456.148c.149.09.286.21.411.361a2.153 2.153 0 0 1 .473 1.039c.03.191.028.38-.004.568-.033.188-.149.38-.348.576a2.95 2.95 0 0 1-.807.537c-.339.162-.685.27-1.04.327-.519.082-.994-.06-1.426-.424M376.397 462.178c.356.054 1.023-.002 2.003-.168" style="fill:none;stroke:#fff;stroke-width:1.03937;stroke-linecap:round;stroke-linejoin:round;stroke-miterlimit:10;stroke-dasharray:none;stroke-opacity:1" transform="matrix(.72727 0 0 .72727 -212.998 -276.44)"/><path d="M377.626 459.523a48.215 48.215 0 0 0 .016 2.248c.02.418.098.956.235 1.613M382.325 459.573c-.072-.312-.195-.536-.369-.67a.88.88 0 0 0-.46-.166c-.188-.018-.328-.014-.419.012-.09.027-.216.14-.375.337-.16.198-.297.452-.412.76-.114.309-.19.672-.227 1.089a6.35 6.35 0 0 0 .011 1.256c.046.42.162.797.348 1.132.187.335.4.614.641.84.24.224.495.362.764.41.27.05.517.001.744-.145.227-.147.405-.361.534-.642.13-.282.21-.612.24-.991.031-.38.028-.759-.01-1.14a6.353 6.353 0 0 0-.169-.992 4.98 4.98 0 0 0-.196-.619.361.361 0 0 0-.271-.232M385.073 463.374a175.67 175.67 0 0 0-.026.174l-.043-.186M388.437 459.226c.017-.329-.017-.542-.104-.64a.859.859 0 0 0-.306-.194 1.018 1.018 0 0 0-.35-.095c-.091-.002-.182.04-.274.129-.091.089-.19.238-.297.447a5.096 5.096 0 0 0-.302.765 8.564 8.564 0 0 0-.238.93 5.74 5.74 0 0 0-.11.892c-.01.276.035.542.137.796.101.255.273.459.514.613.241.154.51.244.805.268a1.6 1.6 0 0 0 .84-.153c.265-.127.47-.328.617-.603.145-.275.232-.617.26-1.027.029-.41-.004-.82-.099-1.229a7.178 7.178 0 0 0-.322-1.062 3.66 3.66 0 0 0-.71-1.143M414.648 397.168c.092.019.366-.086.822-.314.268-.134.54-.263.815-.387.276-.125.603-.267.982-.426.557-.234 1.297-.486 2.22-.757" style="fill:none;stroke:#fff;stroke-width:1.03937;stroke-linecap:round;stroke-linejoin:round;stroke-miterlimit:10;stroke-dasharray:none;stroke-opacity:1" transform="matrix(.72727 0 0 .72727 -212.998 -276.44)"/><path d="M416.552 394.015c.068.49.167.93.299 1.316.089.261.19.529.306.804.168.399.416 1.064.743 1.996M425.361 396.134a2.824 2.824 0 0 0-.311-.521.793.793 0 0 0-.233-.179 1.216 1.216 0 0 0-.37-.117 2.774 2.774 0 0 0-.516-.032 1.856 1.856 0 0 0-.57.101 2.26 2.26 0 0 0-.544.28c-.178.122-.36.294-.547.515a5.125 5.125 0 0 0-.547.813c-.178.32-.317.647-.418.981a4.56 4.56 0 0 0-.185.99c-.024.325-.005.668.055 1.03.06.36.165.694.314 1.002.149.308.3.542.454.702.154.16.382.287.683.38.301.093.591.137.87.133.278-.004.556-.075.833-.211.277-.136.524-.313.741-.53.217-.215.414-.474.59-.774.178-.3.327-.602.448-.908.12-.305.214-.619.279-.941.065-.322.103-.664.112-1.025.01-.361-.034-.684-.133-.97-.098-.284-.224-.5-.376-.648a.953.953 0 0 0-.496-.269c-.26-.046-.504.026-.73.216M426.783 402.624l-.055-.111M434.264 400.755c.012-.326.005-.538-.025-.637a.515.515 0 0 0-.122-.203 1.072 1.072 0 0 0-.246-.189 1.613 1.613 0 0 0-.348-.149c-.13-.04-.28-.062-.448-.07-.17-.006-.352.012-.548.054a2.05 2.05 0 0 0-.602.243c-.205.12-.406.278-.603.473a7.93 7.93 0 0 0-1.144 1.457c-.176.286-.33.59-.464.91-.133.32-.226.646-.28.977-.052.33-.063.646-.032.944.032.299.12.554.265.766.146.212.31.367.494.465.184.098.359.153.523.166.165.013.38-.023.644-.108.265-.085.505-.205.72-.359a2.04 2.04 0 0 0 .507-.499c.121-.178.198-.353.23-.523.031-.17.035-.32.012-.45a.513.513 0 0 0-.223-.328 1.682 1.682 0 0 0-.494-.227 4.94 4.94 0 0 0-.602-.143 3.75 3.75 0 0 0-.548-.054 1.65 1.65 0 0 0-.444.044c-.186.049-.298.148-.338.298M411.22 451.217c.157-.248.412-.82.766-1.718.327-.829.703-1.48 1.129-1.956" style="fill:none;stroke:#fff;stroke-width:1.03937;stroke-linecap:round;stroke-linejoin:round;stroke-miterlimit:10;stroke-dasharray:none;stroke-opacity:1" transform="matrix(.72727 0 0 .72727 -212.998 -276.44)"/><path d="M410.783 448.602c.628.417 1.09.74 1.388.968.3.23.704.531 1.215.903M417.409 445.394c-.043-.172-.11-.297-.202-.377a.623.623 0 0 0-.265-.124 1.285 1.285 0 0 0-.6-.015c-.094.02-.223.097-.387.232-.165.135-.312.32-.442.556-.13.236-.235.486-.314.752-.08.265-.126.546-.14.841-.015.296.034.614.145.956.111.34.275.684.493 1.03.217.346.474.643.77.89.298.247.62.435.969.562.348.127.67.19.967.19.296 0 .526-.066.689-.2.162-.132.298-.436.407-.91.11-.475.16-.94.15-1.395a4.765 4.765 0 0 0-.184-1.26 5.958 5.958 0 0 0-.416-1.05 3.907 3.907 0 0 0-.485-.753c-.16-.184-.307-.307-.442-.368-.2-.09-.38-.086-.54.013M421.246 449.26l-.174-.133M424.066 442.106c-.005.196-.048.37-.13.52a1.938 1.938 0 0 1-.21.308 1.688 1.688 0 0 1-.689.492 1.848 1.848 0 0 1-.41.106 3.198 3.198 0 0 1-.351.03.539.539 0 0 1-.245-.045l-.107-.051a3.76 3.76 0 0 1 .075.02c.047.013.11.06.19.141.078.081.161.19.249.323.087.134.173.285.258.45.084.167.177.376.279.626.102.25.177.444.227.58.05.136.097.205.14.206.044.002.088-.031.134-.098.045-.067.108-.146.19-.236.08-.09.175-.17.282-.242a1.11 1.11 0 0 1 .337-.154c.117-.03.236-.05.357-.06.12-.01.237-.011.348-.006a.912.912 0 0 1 .339.088c.114.054.233.13.357.228.124.098.245.226.364.381a2.914 2.914 0 0 1 .507 1.07c.042.188.055.398.04.629-.017.23-.088.468-.216.714a2.276 2.276 0 0 1-.504.648 1.385 1.385 0 0 1-.668.35 3.577 3.577 0 0 1-.455.068c-.095.001-.314-.28-.659-.847M497.543 424.897c.356-.554.667-1.023.932-1.408.18-.26.41-.575.692-.942.282-.368.58-.723.895-1.065a20.149 20.149 0 0 1 1.8-1.693" style="fill:none;stroke:#fff;stroke-width:1.03937;stroke-linecap:round;stroke-linejoin:round;stroke-miterlimit:10;stroke-dasharray:none;stroke-opacity:1" transform="matrix(.72727 0 0 .72727 -212.998 -276.44)"/><path d="M498.341 420.254c.116.015.282.165.499.451.136.18.467.743.993 1.686a99.588 99.588 0 0 0 1.474 2.563M506.462 416.296v-.094 0l.002.027.048.57a38.85 38.85 0 0 1 .133 2.818c.01.808.007 2.298-.008 4.47M509.682 423.924l-.136.563M515.272 417.785c.043-.325.062-.534.057-.627-.004-.064-.082-.127-.235-.187a1.227 1.227 0 0 0-.427-.094c-.133-.002-.29.045-.472.14a2.773 2.773 0 0 0-.587.438c-.209.197-.406.437-.591.72a5.204 5.204 0 0 0-.484.954 3.95 3.95 0 0 0-.136 2.475c.12.47.308.88.566 1.227a2.357 2.357 0 0 0 1.916.99 1.48 1.48 0 0 0 .93-.339c.28-.223.508-.535.682-.936.174-.4.288-.833.342-1.296.054-.464.054-.91 0-1.34a3.373 3.373 0 0 0-.35-1.153c-.261-.497-.734-.896-1.418-1.197M452.21 431.096c.99-.008 1.693.017 2.108.075" style="fill:none;stroke:#fff;stroke-width:1.03937;stroke-linecap:round;stroke-linejoin:round;stroke-miterlimit:10;stroke-dasharray:none;stroke-opacity:1" transform="matrix(.72727 0 0 .72727 -212.998 -276.44)"/><path d="M453.406 429.308c.006.225.026.492.059.801.03.29.089 1.046.174 2.267M458.553 428.822a1.625 1.625 0 0 0-.074-.367.287.287 0 0 0-.113-.117c-.058-.037-.167-.067-.326-.089a1.803 1.803 0 0 0-.396-.019.799.799 0 0 0-.332.12c-.117.07-.236.177-.357.32a4.222 4.222 0 0 0-.334.456 2.847 2.847 0 0 0-.43 1.223 5.62 5.62 0 0 0-.036.81c.007.282.058.548.151.798.094.25.215.456.363.617.149.16.312.278.489.35.177.073.371.119.582.136.21.017.42-.008.626-.076.206-.068.4-.202.584-.402.183-.2.335-.477.456-.832a5.13 5.13 0 0 0 .245-1.117c.042-.39.055-.73.04-1.017a1.38 1.38 0 0 0-.22-.72 1.236 1.236 0 0 0-.46-.42 1.344 1.344 0 0 0-.483-.15c-.212-.019-.37.074-.475.277M461.145 432.174l-.256-.034M462.803 429.486a1.29 1.29 0 0 1-.122-.46 3.797 3.797 0 0 1-.016-.404.922.922 0 0 1 .065-.308c.04-.103.095-.201.166-.294.07-.093.145-.18.225-.258.08-.08.157-.143.231-.19a.581.581 0 0 1 .202-.089.394.394 0 0 1 .165.001c.049.012.118.107.207.285a3.156 3.156 0 0 1 .303.884 4.554 4.554 0 0 1 .098.934c.002.168-.018.358-.058.57a4.344 4.344 0 0 1-.457 1.271c-.11.201-.227.378-.351.531a1.416 1.416 0 0 1-.359.332.73.73 0 0 1-.284.112c-.075.007-.125-.027-.152-.103a.56.56 0 0 1-.011-.283c.02-.114.07-.21.148-.288a.526.526 0 0 1 .254-.148.349.349 0 0 1 .264.045c.086.05.176.135.27.253.095.118.205.23.33.334.127.104.247.186.363.247.116.06.272.113.469.159.196.046.376.07.539.075.236.007.553-.119.951-.377" style="fill:none;stroke:#fff;stroke-width:1.03937;stroke-linecap:round;stroke-linejoin:round;stroke-miterlimit:10;stroke-dasharray:none;stroke-opacity:1" transform="matrix(.72727 0 0 .72727 -212.998 -276.44)"/></svg>