<svg xmlns="http://www.w3.org/2000/svg" width="66.479" height="57.942"><path d="M224.948 409.72h87.08M268.594 409.788v-39.642M265.847 370.79a1.667 1.667 0 0 0-.149.337l-.017.075.005-.009.125-.242a11.761 11.761 0 0 1 .671-1.12 9.068 9.068 0 0 1 1.433-1.649 6.66 6.66 0 0 1 .618-.457c.27-.181.443-.293.52-.334a.63.63 0 0 1 .242-.074c.085-.008.184.04.299.142.115.102.25.258.408.467.158.209.32.458.484.748.24.42.66 1.117 1.26 2.09M313.706 407.923l-.03-.07c-.002-.004.011.006.038.029l.26.223c.146.125.279.242.398.35.12.108.237.222.352.342.115.12.218.254.308.403.09.148.159.308.204.479.046.17.073.357.08.56.009.203-.027.412-.106.628a2.97 2.97 0 0 1-.314.62c-.131.197-.277.39-.44.58-.236.275-.621.664-1.155 1.166M247.879 408.243c-.007.546-.004 1.052.011 1.517.015.451-.018 1.36-.099 2.729M243.248 417.137c.163.107.33.18.502.217.115.025.293.042.533.05.36.014.728.03 1.105.048M248.284 415.365c-.01.95-.028 1.962-.052 3.033M269.41 413.753c-.053-.192-.11-.32-.17-.385a.705.705 0 0 0-.165-.123.96.96 0 0 0-.25-.093c-.099-.023-.21-.04-.333-.049-.124-.009-.256 0-.397.025-.141.026-.292.11-.452.252-.16.142-.308.334-.444.578a3.472 3.472 0 0 0-.45 1.602c-.01.292.027.587.112.885.086.298.208.545.365.74.158.196.344.322.558.378.215.056.436.04.663-.047.228-.087.43-.238.604-.453.176-.215.308-.452.398-.712.09-.26.144-.508.16-.743a1.915 1.915 0 0 0-.073-.681 1.75 1.75 0 0 0-.282-.571 1.263 1.263 0 0 0-.381-.35 2.333 2.333 0 0 0-.626-.237M268.69 408.97c-.067.088-.092.32-.076.696.015.335.078.965.19 1.889M290.117 408.663a4.31 4.31 0 0 0-.064.755c0 .386.003 1.098.011 2.137M286.07 416.216c.174.042.373.062.597.06a4.343 4.343 0 0 0 1.091-.164" style="fill:none;stroke:#fff;stroke-width:1.03937;stroke-linecap:round;stroke-linejoin:round;stroke-miterlimit:10;stroke-dasharray:none;stroke-opacity:1" transform="matrix(.72727 0 0 .72727 -163.22 -266.76)"/><path d="M287.234 414.57c-.005.427-.002.792.008 1.095.007.205.02.432.036.68.025.366.038.841.038 1.426M290.352 414.392c-.06.366-.098 1.509-.117 3.428" style="fill:none;stroke:#fff;stroke-width:1.03937;stroke-linecap:round;stroke-linejoin:round;stroke-miterlimit:10;stroke-dasharray:none;stroke-opacity:1" transform="matrix(.72727 0 0 .72727 -163.22 -266.76)"/><path d="m224.948 409.72 43.646.068M268.594 409.788l41.804-41.144" style="fill:none;stroke:#7ec636;stroke-width:1.03937;stroke-linecap:round;stroke-linejoin:round;stroke-miterlimit:10;stroke-dasharray:none;stroke-opacity:1" transform="matrix(.72727 0 0 .72727 -163.22 -266.76)"/><path d="M267.029 388.814c.09-.05.203-.086.338-.107.135-.02.31-.04.526-.058.311-.027.997-.02 2.06.02M271.584 388.895c.495-.15.984-.28 1.469-.388" style="fill:none;stroke:#fff;stroke-width:1.03937;stroke-linecap:round;stroke-linejoin:round;stroke-miterlimit:10;stroke-dasharray:none;stroke-opacity:1" transform="matrix(.72727 0 0 .72727 -163.22 -266.76)"/><path d="M272.458 386.966c0 .461.02.926.058 1.394.059.722.1 1.324.124 1.805M274.825 386.993c.145.508.246.986.304 1.434.057.44.081 1.089.073 1.947" style="fill:none;stroke:#fff;stroke-width:1.03937;stroke-linecap:round;stroke-linejoin:round;stroke-miterlimit:10;stroke-dasharray:none;stroke-opacity:1" transform="matrix(.72727 0 0 .72727 -163.22 -266.76)"/><path d="M333.453 494.397c-.104-.049-.186-.014-.245.103a1.286 1.286 0 0 0-.1.387 6.29 6.29 0 0 0-.034.79c0 .352.036.689.106 1.01.07.32.16.649.27.986.11.338.236.646.38.925.144.28.3.494.47.644.17.15.354.234.55.249.197.015.392-.063.584-.234.192-.17.39-.4.595-.69.299-.424.67-1.03 1.112-1.819" style="fill:none;stroke:#7ec636;stroke-width:1.03937;stroke-linecap:round;stroke-linejoin:round;stroke-miterlimit:10;stroke-dasharray:none;stroke-opacity:1" transform="matrix(.72727 0 0 .72727 -232.967 -311.71)"/><path d="M337.54 495.149c.043-.283.02-.417-.068-.403-.063.01-.134.082-.214.215a2.09 2.09 0 0 0-.206.524c-.058.215-.1.458-.125.729-.026.27-.04.9-.043 1.889-.003.989 0 1.812.005 2.468.006.656.028 1.33.066 2.023.054 1.004.154 2.723.3 5.156" style="fill:none;stroke:#7ec636;stroke-width:1.03937;stroke-linecap:round;stroke-linejoin:round;stroke-miterlimit:10;stroke-dasharray:none;stroke-opacity:1" transform="matrix(.72727 0 0 .72727 -232.967 -311.71)"/><path d="M343.04 495.529a25.014 25.014 0 0 1 1.808-.115c.3-.007.623.045.97.157M342.721 498.104c.539.118 1.03.195 1.473.23.437.037 1.023-.023 1.757-.176" style="fill:none;stroke:#fefefe;stroke-width:1.03937;stroke-linecap:round;stroke-linejoin:round;stroke-miterlimit:10;stroke-dasharray:none;stroke-opacity:1" transform="matrix(.72727 0 0 .72727 -232.967 -311.71)"/><path d="M385.825 425.193a.618.618 0 0 0-.11.255c-.018.096-.028.22-.03.373a1.81 1.81 0 0 0 .077.51c.053.188.124.36.212.519.088.158.19.288.305.39a.841.841 0 0 0 .363.198c.182.044.516-.097 1.002-.42M388.323 425.69c-.104-.086-.168-.023-.192.19-.024.215-.04.442-.047.684-.007.242-.012.686-.012 1.333-.001.648-.003 1.16-.006 1.537a23.34 23.34 0 0 1-.025.971c-.021.416-.049.76-.083 1.03" style="fill:none;stroke:#7ec636;stroke-width:1.03937;stroke-linecap:round;stroke-linejoin:round;stroke-miterlimit:10;stroke-dasharray:none;stroke-opacity:1" transform="matrix(.72727 0 0 .72727 -226.252 -307.928)"/><path d="M349.753 494.489c-.037-.122-.075-.173-.115-.153-.029.014-.033.137-.013.368.02.232.067.48.142.745.074.264.152.572.232.924.08.352.178.826.292 1.424a103.736 103.736 0 0 1 .252 1.339v-.11c.001-.07-.02-.222-.063-.458a14.636 14.636 0 0 1-.115-.753 10.82 10.82 0 0 1-.067-1.07c-.01-.448-.014-.827-.011-1.138.003-.31.024-.56.064-.75.04-.191.086-.327.136-.41.05-.082.107-.13.173-.145.065-.015.138.019.22.1.083.082.17.208.26.379.092.17.185.37.281.6.096.228.186.462.272.7.085.24.164.44.236.603.071.164.13.273.178.33.047.056.086.077.117.063.032-.015.097-.272.198-.771.1-.5.206-.893.318-1.182.112-.288.242-.55.389-.784.147-.235.288-.424.422-.567.134-.143.246-.226.335-.25.09-.025.158.045.207.21.049.163.08.384.091.662.012.279.019.586.02.922 0 .336.013.685.037 1.048.024.362.086.704.188 1.025.101.322.232.579.391.77a.96.96 0 0 0 .551.35c.299.06.654-.147 1.066-.622M358.622 494.678c-.032-.127-.125-.255-.278-.383a1.02 1.02 0 0 0-.253-.168.864.864 0 0 0-.232-.056 1.194 1.194 0 0 0-.273.005c-.095.013-.189.073-.281.18-.093.108-.177.261-.252.46-.076.2-.126.44-.15.723a3.84 3.84 0 0 0 .045.928c.054.337.152.651.293.944.141.293.302.517.483.672.18.155.369.237.566.246a.812.812 0 0 0 .52-.144c.149-.105.317-.34.504-.706.187-.365.33-.744.427-1.136a10.01 10.01 0 0 0 .29-1.777c.007-.165.009-.261.005-.289l-.008-.059c-.002-.011-.01 0-.026.033l-.08.174a1.817 1.817 0 0 0-.106.438c-.032.21-.048.44-.048.69 0 .25.038.498.115.742.076.244.168.441.275.592.156.22.414.376.774.468M361.128 498.035a.886.886 0 0 0 .244-.227c.09-.112.212-.28.367-.507.155-.227.337-.476.544-.747.208-.271.43-.54.668-.806a16.263 16.263 0 0 1 1.444-1.432c.326-.282.709-.606 1.148-.971" style="fill:none;stroke:#fefefe;stroke-width:1.03937;stroke-linecap:round;stroke-linejoin:round;stroke-miterlimit:10;stroke-dasharray:none;stroke-opacity:1" transform="matrix(.72727 0 0 .72727 -232.967 -311.71)"/><path d="M362.522 493.5c.295.47.584.917.867 1.346.19.286.397.606.623.96.327.515.813 1.32 1.458 2.413M371.572 489.253c.07-.088.037-.138-.096-.15-.099-.009-.22.028-.363.11-.144.083-.328.25-.552.501-.224.25-.468.57-.732.956a7.616 7.616 0 0 0-.725 1.364 8.284 8.284 0 0 0-.5 1.758c-.115.65-.162 1.34-.14 2.072.023.733.166 1.44.43 2.124.384.995 1.291 2.126 2.72 3.391M376.142 492.492a.403.403 0 0 0-.142-.4c-.084-.072-.217-.122-.399-.15a1.51 1.51 0 0 0-.472-.007 1.492 1.492 0 0 0-.454.17c-.17.092-.342.21-.518.356a2.622 2.622 0 0 0-.505.578c-.16.24-.304.516-.433.83a4.26 4.26 0 0 0-.273.988c-.053.347-.072.69-.057 1.03.015.34.1.645.253.914.154.27.347.473.578.61.23.136.49.214.78.234.288.02.598-.04.928-.18.33-.14.647-.347.948-.62a3.64 3.64 0 0 0 .737-.914c.19-.336.316-.689.378-1.057.062-.37.063-.746.004-1.13a2.44 2.44 0 0 0-.422-1.05c-.221-.313-.448-.535-.68-.666-.342-.194-.684-.24-1.027-.138M379.57 497.11c.1.129.176.248.228.357.035.075.072.18.111.317.04.137.072.337.096.6.035.38-.129.932-.492 1.656M384.51 496.64c.158-.23.412-.523.765-.88.352-.359.677-.677.972-.955.428-.403 1.185-1.08 2.27-2.032" style="fill:none;stroke:#fefefe;stroke-width:1.03937;stroke-linecap:round;stroke-linejoin:round;stroke-miterlimit:10;stroke-dasharray:none;stroke-opacity:1" transform="matrix(.72727 0 0 .72727 -232.967 -311.71)"/><path d="M385.092 492.838c.082.02.194.093.335.217.14.124.28.257.421.4.14.141.32.337.54.586.218.25.438.554.657.914.322.526.687 1.286 1.095 2.28M391.994 489.321c.21.16.425.373.643.638.143.174.285.38.425.62.14.239.28.553.417.943.137.389.255.832.354 1.328a14.784 14.784 0 0 1 .293 2.742c.008.447-.03.893-.115 1.337a5.627 5.627 0 0 1-.416 1.296c-.192.42-.392.801-.6 1.143-.302.498-.892 1.147-1.77 1.946" style="fill:none;stroke:#fefefe;stroke-width:1.03937;stroke-linecap:round;stroke-linejoin:round;stroke-miterlimit:10;stroke-dasharray:none;stroke-opacity:1" transform="matrix(.72727 0 0 .72727 -232.967 -311.71)"/></svg>