<svg xmlns="http://www.w3.org/2000/svg" width="146.634" height="244.911"><path d="M96.368.378c.463.058.897.156 1.303.296.273.093.623.225 1.052.396.428.17.923.384 1.484.64.561.256 1.176.598 1.845 1.025.668.427 1.37 1.035 2.106 1.824.736.79 1.528 1.68 2.375 2.672.848.992 1.72 2.061 2.618 3.208a47.554 47.554 0 012.476 3.463 31.847 31.847 0 012.069 3.738c.917 1.947 2.073 4.724 3.468 8.333M112.748 30.679l-.205-.56c-.01-.028.028.002.117.091l.927.936c.53.534 1.107 1.031 1.73 1.492.623.46 1.297.904 2.022 1.328.725.425 1.386.7 1.983.827.597.126 1.12.084 1.57-.126.643-.3 1.154-1.458 1.533-3.473M38.678 103.23c.05.28-.126.419-.526.417-.4-.002-.843-.06-1.329-.172a30.61 30.61 0 01-1.846-.503 35.362 35.362 0 01-2.725-.97c-1.071-.423-2.262-.895-3.572-1.416a119.594 119.594 0 01-3.966-1.663 40.914 40.914 0 01-3.963-2.014 61.52 61.52 0 01-3.814-2.39 20.489 20.489 0 01-3.398-2.895 31.033 31.033 0 01-2.763-3.356c-.812-1.145-1.328-1.905-1.548-2.282-.22-.376-.41-.725-.572-1.047-.232-.464-.71-1.457-1.435-2.98M2.327 81.972c-.024.27-.14.31-.345.118-.205-.192-.408-.482-.608-.87-.2-.39-.394-.902-.58-1.537a10.41 10.41 0 01-.375-1.9 6.454 6.454 0 01.03-1.693c.082-.498.314-.847.695-1.047.38-.2.883-.247 1.506-.139.899.156 2.716.507 5.452 1.054" fill="none" stroke="#ffd300" stroke-width=".7556335299999999" stroke-linecap="round" stroke-linejoin="round" stroke-miterlimit="10"/><path d="M38.494 16.503a72.91 72.91 0 00-4.567 2.16 56.777 56.777 0 00-4.772 2.76c-1.596 1.027-3.218 2.273-4.866 3.739a59.04 59.04 0 00-4.524 4.463 36.539 36.539 0 00-3.751 4.936 38.663 38.663 0 00-2.96 5.635 33.516 33.516 0 00-1.91 5.93 34.821 34.821 0 00-.783 5.974 33.086 33.086 0 00.336 6.203c.31 2.132.814 4.158 1.513 6.076a42.375 42.375 0 002.635 5.789 55.354 55.354 0 003.6 5.722 44.179 44.179 0 004.41 5.25 53.607 53.607 0 005.13 4.588 36.58 36.58 0 005.857 3.757c2.08 1.072 4.199 1.846 6.356 2.32 2.158.475 4.422.762 6.794.86 2.371.097 4.839.008 7.401-.267a40.5 40.5 0 007.663-1.595c2.546-.788 4.235-1.36 5.066-1.714a43.45 43.45 0 002.264-1.038 75.376 75.376 0 002.784-1.483c1.179-.653 2.914-1.689 5.208-3.108a57.021 57.021 0 006.767-4.938 81.82 81.82 0 006.268-5.874 73.09 73.09 0 005.417-6.318 50.302 50.302 0 004.304-6.652 49.032 49.032 0 003.077-6.95 36.214 36.214 0 001.74-7.178c.327-2.42.452-4.694.375-6.825a23.412 23.412 0 00-1.067-6.213 31.32 31.32 0 00-2.514-5.827 22.34 22.34 0 00-3.725-4.97 52.016 52.016 0 00-4.71-4.16 37.234 37.234 0 00-5.501-3.565 48.49 48.49 0 00-6.082-2.715c-2.087-.765-4.338-1.395-6.754-1.89-2.416-.493-4.97-.778-7.66-.852a51.587 51.587 0 00-8.215.441c-2.785.37-5.588.89-8.409 1.562a50.555 50.555 0 00-8.466 2.852 50.388 50.388 0 00-8.171 4.511c-2.624 1.779-5.166 3.844-7.628 6.195a63.188 63.188 0 00-6.885 7.78c-3.142 4.186-6.23 9.519-9.265 15.998" fill="none" stroke="#fff" stroke-width=".7556335299999999" stroke-linecap="round" stroke-linejoin="round" stroke-miterlimit="10"/><path d="M59.428 50.046c-.275.116-.471.036-.587-.24a1.677 1.677 0 01-.112-.703c.009-.274.059-.453.15-.538.092-.085.25-.138.473-.161.223-.023.396.026.517.146.122.12.218.268.29.443.072.175.114.376.127.604a1.92 1.92 0 01-.088.684 1.364 1.364 0 01-.315.556.989.989 0 01-.463.28 2.19 2.19 0 01-.56.066c-.205-.001-.386-.05-.546-.147-.159-.097-.315-.276-.468-.538-.153-.262-.24-.497-.264-.703a2.393 2.393 0 01-.001-.567.853.853 0 01.263-.49 1.819 1.819 0 011.043-.53c.175-.021.326-.02.45.001.126.022.222.107.288.254.067.147.103.305.11.476.006.171-.034.392-.123.662s-.198.467-.327.59a.69.69 0 01-.43.205.69.69 0 01-.45-.125.89.89 0 01-.314-.357 1.091 1.091 0 01-.113-.415.495.495 0 01.123-.357c.089-.104.2-.194.336-.27.135-.077.26-.124.378-.144a.745.745 0 01.301.003c.084.022.153.144.206.368.053.224.072.377.057.46-.016.085-.132.16-.348.227-.216.067-.389.087-.517.06-.129-.028-.193-.157-.192-.389 0-.231.049-.389.145-.472.095-.083.157-.037.187.138l.049.294c.003.02.006.025.01.015l.086-.277" fill="none" stroke="#fff" stroke-width=".7556335299999999" stroke-linecap="round" stroke-linejoin="round" stroke-miterlimit="10"/><path d="M59.088 48.255c-.092-.088-.155-.266-.191-.536a12.182 12.182 0 01-.065-.63c-.019-.245-.034-.518-.045-.818-.011-.3-.018-1.156-.019-2.57-.001-1.414.003-2.288.012-2.624.01-.336.014-.944.015-1.824 0-.88 0-1.719-.005-2.518a37.04 37.04 0 00-.033-1.64 13.64 13.64 0 00-.144-1.212 15.18 15.18 0 01-.152-1.256c-.021-.324-.033-1.872-.035-4.644a737.165 737.165 0 00-.01-4.45c-.004-.196-.022-.521-.055-.975-.032-.454-.052-.92-.058-1.398-.006-.478.014-.89.06-1.234.046-.345.089-.8.128-1.364l.1-1.442c.03-.396.047-.848.052-1.355.006-.507.009-.988.009-1.444 0-.456.009-.776.027-.96.02-.186.029-.489.03-.91 0-.422-.02-.785-.062-1.091a9.594 9.594 0 01-.071-1.144 20.502 20.502 0 01-.003-.802l.008-.136M58.737 50.144a.434.434 0 01.15.21c.02.056.055.085.108.087.053.002.095-.029.128-.094a.292.292 0 01.122-.134l.078-.04c.003-.002.004-.001.002.002l-.047.062a.5.5 0 01-.073.082c-.02.017-.021.025-.004.024l.126-.002c.067 0 .113-.014.138-.04a.238.238 0 00.054-.127c.01-.06.02-.099.03-.118l.018-.034-.004.018-.046.17a1.06 1.06 0 00-.044.329v.004l.003-.021.017-.183.017-.187c.002-.024 0-.03-.008-.017l-.066.114a1.31 1.31 0 01-.156.207.47.47 0 01-.165.134c-.043.015-.076-.01-.1-.076-.025-.065-.053-.094-.085-.086a.194.194 0 00-.096.069c-.046.053.022.07.206.05M59.118 51.236v-.333V51.255c0 .217.017.458.052.724.034.266.074.64.12 1.12.045.481.082.892.111 1.232.029.34.072.802.13 1.387.057.584.097 1.058.119 1.422a43.884 43.884 0 01.078 2.03c.005.285.012.536.02.754.008.219.037.693.086 1.423.048.73.085 1.442.11 2.135.026.692.057 1.278.093 1.756.037.479.067.855.091 1.13.024.274.052.803.082 1.586.031.783.055 1.308.07 1.576.016.267.03.668.045 1.201.014.534.02 1.182.021 1.944 0 .761.005 1.268.012 1.52.007.253.026.583.058.99.032.408.053.704.063.886.01.183.014.376.015.58.001.204.022.621.061 1.251.04.63.062 1.121.067 1.474.006.353.012.603.02.751.008.148.028.359.06.633.033.274.061.81.087 1.606.026.798.047 1.333.063 1.607.016.273.025 1.203.025 2.789.001 1.585.008 2.514.02 2.785.012.271.019.545.02.822 0 .277-.055.408-.165.393M57.308 48.94l.214.215.001.001-.02-.021-.495-.513c-.314-.325-.605-.61-.874-.857a18.917 18.917 0 01-.821-.801 21.846 21.846 0 01-.593-.631 16.296 16.296 0 00-.673-.687c-.33-.325-.61-.607-.837-.846a6.349 6.349 0 00-.508-.493 8.903 8.903 0 00-.49-.36 6.95 6.95 0 01-.734-.607c-.274-.254-.47-.435-.588-.54a15.778 15.778 0 00-.49-.416 19.95 19.95 0 01-.71-.618c-.265-.24-.585-.501-.958-.782-.373-.28-.627-.477-.762-.59a8.449 8.449 0 01-.417-.377c-.144-.138-.336-.33-.575-.577a23.736 23.736 0 00-.51-.514 7.135 7.135 0 01-.454-.508 16.53 16.53 0 00-.784-.858 12.52 12.52 0 00-.835-.797c-.235-.2-.467-.397-.697-.59-.23-.191-.53-.456-.902-.795-.372-.338-.623-.57-.752-.693-.129-.124-.315-.318-.56-.58-.243-.264-.43-.457-.557-.578a14.351 14.351 0 00-.63-.548l-.882-.737a32.157 32.157 0 00-.892-.719 13.88 13.88 0 01-.928-.795 97.655 97.655 0 01-1.402-1.342c-.613-.596-.987-.95-1.121-1.06a9.116 9.116 0 00-.581-.431 5.137 5.137 0 01-.565-.44 5.657 5.657 0 01-.512-.594 6.912 6.912 0 00-.454-.545 4.548 4.548 0 00-.42-.35c-.197-.148-.405-.32-.624-.513a6.6 6.6 0 00-.55-.447 4.318 4.318 0 01-.457-.373 4.839 4.839 0 00-.448-.373 6.374 6.374 0 00-.393-.266 4.194 4.194 0 01-.463-.35 6.977 6.977 0 01-.964-1.024c-.009-.01-.007-.012.005-.002l.274.207" fill="none" stroke="#fff" stroke-width=".7556335299999999" stroke-linecap="round" stroke-linejoin="round" stroke-miterlimit="10"/><path d="M75.686 51.092c0 .11-.006.148-.02.112l-.077-.193c-.041-.104-.08-.313-.114-.63a17.4 17.4 0 01-.08-1.147c-.019-.45-.03-.906-.036-1.368a33.56 33.56 0 01.012-1.343c.012-.433.046-.795.102-1.085.057-.29.133-.54.229-.75.096-.21.21-.38.342-.507.131-.127.283-.217.454-.268.172-.052.352-.068.54-.047.188.02.38.103.575.248.196.145.391.333.588.563.196.23.384.51.564.842.18.332.334.71.46 1.135.128.425.229.868.304 1.328a17.108 17.108 0 01.188 3.142M76.198 48.107a19.53 19.53 0 011.99-.397" fill="none" stroke="#7ec636" stroke-width=".7556335299999999" stroke-linecap="round" stroke-linejoin="round" stroke-miterlimit="10"/><path d="M61.19 16.83c.031-.109.22-.358.567-.748l.65-.733c.086-.098.344-.35.773-.754.631-.595 1.45-1.33 2.457-2.204M60.637 23.462c-.032-.026-.028-.067.012-.123.04-.055.197-.196.471-.422.274-.226.472-.392.593-.498.12-.105.383-.36.787-.766.403-.405.87-.842 1.397-1.31a67.202 67.202 0 001.72-1.586 42.222 42.222 0 011.881-1.688 84.447 84.447 0 011.862-1.528 37.78 37.78 0 011.727-1.302 78.38 78.38 0 002.883-2.159M61.761 29.975c.027-.122.134-.293.319-.513.185-.22.61-.612 1.276-1.176a38.293 38.293 0 001.536-1.355c.359-.34.88-.8 1.564-1.382a65.22 65.22 0 001.989-1.761c.642-.593 1.307-1.202 1.994-1.827.687-.624 1.726-1.51 3.118-2.659 1.392-1.148 2.396-1.951 3.013-2.41.92-.686 1.89-1.385 2.909-2.099M61.65 36.55c-.195.159-.276.23-.242.216l.181-.077c.097-.041.266-.158.507-.35.242-.193.548-.466.92-.82a49.3 49.3 0 011.276-1.168 85.072 85.072 0 001.617-1.479 52.77 52.77 0 011.914-1.7c.675-.573 1.37-1.176 2.083-1.81l2.34-2.08a78.39 78.39 0 012.31-1.982A56.999 56.999 0 0076 24.085c.271-.24.793-.661 1.565-1.261a98.4 98.4 0 012.258-1.706c.734-.537 1.404-1 2.012-1.389.608-.389 1.17-.751 1.684-1.089.764-.5 1.657-.974 2.68-1.42M62.706 42.292c-.13.13-.203.216-.218.257-.01.029.025.032.105.009.08-.023.193-.084.341-.182.148-.099.367-.28.656-.544.29-.264.62-.596.993-.996.371-.4.82-.855 1.348-1.365a168.37 168.37 0 001.797-1.767 98.758 98.758 0 014.73-4.404c.916-.8 1.872-1.601 2.866-2.405.994-.804 1.86-1.485 2.598-2.043l1.567-1.184c.308-.232.893-.665 1.757-1.298.863-.633 1.718-1.249 2.565-1.846.846-.598 1.399-.975 1.657-1.13.26-.157.623-.347 1.093-.573.682-.328 1.795-.802 3.337-1.424M64.252 48.83l-.117.037c-.003.002-.003.002 0 .002l.068-.002c.04-.002.143-.062.308-.182s.338-.26.518-.423c.18-.162.431-.406.755-.731.324-.325.693-.71 1.108-1.155.414-.445.864-.899 1.349-1.361a208.59 208.59 0 001.582-1.526c.57-.555 1.203-1.157 1.901-1.807a83.282 83.282 0 012.11-1.897c.708-.615 1.447-1.253 2.218-1.913.772-.66 1.56-1.334 2.367-2.02a48.683 48.683 0 011.909-1.563c.465-.355.903-.701 1.311-1.04.41-.337 1.054-.865 1.934-1.581.88-.717 1.738-1.401 2.571-2.054a72.92 72.92 0 012.41-1.811 44.388 44.388 0 012.168-1.47c.98-.618 2.46-1.464 4.445-2.536M63.396 58.493c.119-.189.4-.487.846-.897.275-.252.483-.446.625-.58.14-.134.285-.264.43-.39.147-.125.387-.338.721-.638.334-.3.692-.64 1.073-1.022.381-.38.777-.741 1.189-1.083.602-.5 1.416-1.186 2.44-2.06M84.63 42.62c-.05.032-.08.052-.09.06-.008.004.004 0 .035-.013l.209-.089c.107-.045.262-.141.466-.287a12.448 12.448 0 001.586-1.388c.3-.31.619-.626.955-.95.336-.324.699-.669 1.088-1.033.39-.365.793-.74 1.21-1.123.418-.384.847-.74 1.285-1.07a26.4 26.4 0 001.312-1.053 47.14 47.14 0 011.322-1.09c.445-.353.87-.697 1.272-1.03l1.202-.995c.398-.33.774-.616 1.128-.859.354-.243.68-.455.977-.638.436-.268 1.057-.563 1.863-.887M65.517 68.464c.194-.11.412-.261.655-.454.16-.126.402-.334.728-.623.327-.29.627-.554.902-.794.274-.24.617-.522 1.03-.847.41-.325.88-.72 1.406-1.183.527-.463 1.08-.944 1.662-1.441.582-.498 1.221-1.057 1.918-1.677a59.01 59.01 0 011.41-1.23c.243-.2.673-.56 1.288-1.078a94.723 94.723 0 012.173-1.765c.833-.66 1.59-1.267 2.273-1.823a48.215 48.215 0 011.399-1.113c.25-.185 1.2-.946 2.852-2.282a320.358 320.358 0 003.765-3.081 158.316 158.316 0 004.844-4.222 62.352 62.352 0 011.96-1.716c.863-.721 2.084-1.705 3.664-2.952M66.235 74.793c.25-.192.55-.387.902-.584.232-.13.543-.306.935-.529.391-.223.823-.51 1.296-.862.472-.352 1-.736 1.581-1.153a56.607 56.607 0 001.902-1.43c.687-.538 1.401-1.089 2.145-1.653.743-.565 1.546-1.188 2.409-1.87.863-.682 1.743-1.367 2.639-2.056.896-.688 1.8-1.366 2.715-2.034.915-.668 1.835-1.345 2.762-2.03.927-.684 1.863-1.386 2.81-2.106.945-.72 1.889-1.419 2.83-2.098.94-.68 1.84-1.289 2.7-1.829 1.26-.791 2.971-1.762 5.134-2.91M65.452 81.704c.03-.069.145-.17.344-.306.199-.135.582-.363 1.15-.685l1.516-.859c.443-.25.939-.537 1.486-.857.548-.321 1.11-.674 1.686-1.059a54.43 54.43 0 011.931-1.227c.711-.433 1.47-.912 2.275-1.438a46.027 46.027 0 012.416-1.475c.804-.457 1.614-.932 2.429-1.424 1.201-.725 2.703-1.546 4.504-2.463" fill="none" stroke="#507500" stroke-width=".7556335299999999" stroke-linecap="round" stroke-linejoin="round" stroke-miterlimit="10"/><path d="M29.68 55.7a3.09 3.09 0 00-.041.652c.007.128.047.41.12.845a45.272 45.272 0 01.385 2.905c.076.767.208 1.6.395 2.503M29.978 56.621a1.718 1.718 0 01-.142-.928c.024-.229.1-.429.226-.6a1.18 1.18 0 01.443-.378c.169-.08.336-.116.502-.11a.63.63 0 01.444.217c.13.139.232.312.304.52.071.207.123.414.155.622a5.394 5.394 0 01.058 1.04.675.675 0 01-.055.26c-.03.061.064.087.283.077.219-.01.433.005.643.042a2.221 2.221 0 011.257.74c.185.213.325.454.419.724.094.27.15.564.166.881.017.318-.055.643-.216.976-.162.333-.399.64-.712.923-.314.281-.66.507-1.041.677-.55.246-1.11.133-1.679-.337" fill="none" stroke="#f59a23" stroke-width=".7556335299999999" stroke-linecap="round" stroke-linejoin="round" stroke-miterlimit="10"/><path d="M56.525 88.563a6.668 6.668 0 01-.173-1.139c-.027-.404-.066-.88-.116-1.429-.05-.548-.107-1.15-.171-1.807A128.77 128.77 0 0055.829 82c-.093-.802-.186-1.66-.278-2.574a47.852 47.852 0 01-.199-2.831 81.897 81.897 0 01-.066-3.064l-.012-3.253c-.003-1.1-.017-2.23-.042-3.39l-.072-3.452c-.023-1.14-.037-2.212-.044-3.214-.006-1.003.013-1.89.058-2.66.045-.772.117-1.505.214-2.202.147-1.05.355-2.036.625-2.96M49.615 89.594c-.07.058-.134.031-.194-.079-.044-.08-.081-.289-.113-.628-.032-.34-.065-.79-.1-1.35-.033-.56-.078-1.211-.134-1.956a78.975 78.975 0 01-.203-5.158c-.007-.955-.01-3.915-.011-8.881-.001-4.966.007-8.044.024-9.235.017-1.19.042-2.319.075-3.385.032-1.067.07-2.127.111-3.182.06-1.537.243-3.843.546-6.92M43.301 89.001c-.104-.02-.186-.102-.247-.245a1.824 1.824 0 01-.125-.458c-.024-.163-.045-.54-.064-1.13-.02-.59-.037-1.24-.053-1.95a170.62 170.62 0 00-.183-4.943c-.048-.95-.102-1.968-.162-3.056a193.85 193.85 0 01-.157-3.392 157.326 157.326 0 01-.094-3.664 472.071 472.071 0 01-.04-3.96c-.008-1.373-.02-2.743-.034-4.111-.015-1.369-.032-2.77-.051-4.203-.02-1.434-.033-2.854-.042-4.26a272.81 272.81 0 01.002-3.896c.01-1.192.045-2.3.104-3.326.06-1.026.12-1.867.182-2.523.094-1.008.216-1.85.366-2.525M35.859 86.246a6.246 6.246 0 01-.122-.668c-.017-.138-.04-.569-.071-1.29-.03-.723-.089-1.72-.174-2.994a142.698 142.698 0 01-.183-3.102 130.836 130.836 0 01-.12-5.318c-.004-1.338.082-3.366.256-6.084M35.381 47.6c-.144.063-.254.019-.328-.133-.053-.107-.084-.327-.094-.661-.01-.334-.009-.72.005-1.156.013-.436.032-.875.054-1.316.023-.442.037-.918.042-1.43a51.63 51.63 0 00-.064-3.246c-.03-.583-.054-1.15-.073-1.703-.03-.81-.022-1.887.024-3.23M27.874 82.24c-.089-.321-.138-.74-.147-1.258-.006-.336-.004-.73.005-1.182.01-.452.027-.937.053-1.457s.044-1.084.053-1.692c.01-.607.009-1.25 0-1.926-.01-.677-.022-1.37-.037-2.081-.022-1.046-.018-2.365.011-3.957M27.415 51.858c-.02-.228-.032-.604-.038-1.128a30.66 30.66 0 01.008-1.274c.01-.324.032-.783.064-1.376a800.256 800.256 0 00.21-4.119c.037-.798.087-1.989.15-3.574.061-1.584.113-2.777.155-3.578.041-.801.095-1.578.16-2.33a111.31 111.31 0 01.633-5.606M22.124 73.947c-.124-.07-.219-.211-.286-.425-.067-.214-.116-.59-.149-1.127-.032-.537-.062-1.12-.09-1.747-.03-.628-.108-1.8-.237-3.518-.13-1.717-.223-3.093-.282-4.129a99.743 99.743 0 01-.128-3.294 169.45 169.45 0 01-.045-3.546 251.1 251.1 0 01.017-3.535c.013-1.154.04-2.3.08-3.44.04-1.139.083-2.236.132-3.29.049-1.055.097-2.041.143-2.96.046-.918.106-1.736.18-2.453.111-1.078.323-2.106.635-3.083M16.372 61.853c-.069-.197-.13-.528-.181-.993a33.228 33.228 0 01-.138-1.68c-.04-.654-.113-1.663-.222-3.025a154.691 154.691 0 01-.24-3.405c-.074-1.313-.01-3.676.191-7.088" fill="none" stroke="#a35c00" stroke-width=".7556335299999999" stroke-linecap="round" stroke-linejoin="round" stroke-miterlimit="10"/><path d="M50.351 25.327c.105-.067.158-.142.16-.223a.404.404 0 00-.05-.186.67.67 0 00-.187-.209.93.93 0 00-.372-.163 1.84 1.84 0 00-.587-.02 1.752 1.752 0 00-.704.24 2.334 2.334 0 00-.636.548c-.189.23-.349.503-.479.82-.13.317-.217.697-.259 1.142-.042.445-.029.873.04 1.284.068.411.199.776.393 1.094.194.318.445.543.754.674.309.132.644.161 1.005.09.36-.072.719-.247 1.073-.524.525-.41 1.095-.937 1.71-1.582" fill="none" stroke="#007aff" stroke-width=".7556335299999999" stroke-linecap="round" stroke-linejoin="round" stroke-miterlimit="10"/><path d="M55.436 44.186l-.148.03c-.014.002.006-.024.059-.08l.321-.333c.234-.243.71-.57 1.426-.981M52.293 40.073l-.28.162c-.016.01-.022.01-.015 0l.057-.09c.032-.05.12-.15.261-.3.143-.15.336-.357.581-.622.245-.266.541-.555.889-.868a50.16 50.16 0 012.105-1.763M48.594 36.542c.1-.144.249-.319.446-.523.198-.205.448-.432.752-.68l1.081-.885c.417-.341.871-.692 1.362-1.054.72-.53 1.734-1.187 3.043-1.97M41.994 32.623a4.28 4.28 0 01.45-.494c.277-.268.793-.776 1.547-1.524M55.33 24.258c.02-.05.094-.132.221-.249.182-.166.774-.668 1.776-1.506M38.35 27.432a3.39 3.39 0 01.378-.346 20.852 20.852 0 001.343-1.188c.324-.307.713-.646 1.168-1.017.456-.371.951-.783 1.488-1.235a21.327 21.327 0 011.774-1.337 69.108 69.108 0 012.098-1.365 26.336 26.336 0 012.25-1.266 78.93 78.93 0 013.107-1.472 19.455 19.455 0 011.086-.448c.257-.098.914-.317 1.971-.658M35.985 22.85c-.165.085-.229.065-.192-.058.027-.09.138-.226.334-.41.196-.182.432-.403.706-.662.275-.258.613-.585 1.015-.98.401-.396.87-.796 1.406-1.2a85.077 85.077 0 011.74-1.274 19.995 19.995 0 011.985-1.247c.7-.385 1.439-.788 2.218-1.21.78-.423 1.573-.807 2.383-1.153.809-.346 1.539-.64 2.19-.884a89.834 89.834 0 011.393-.511c.395-.14 1.872-.44 4.43-.903" fill="none" stroke="#03468f" stroke-width=".7556335299999999" stroke-linecap="round" stroke-linejoin="round" stroke-miterlimit="10"/><path d="M39.816 226.239a75.758 75.758 0 003.56 3.863 59.06 59.06 0 004.22 3.88c1.514 1.265 3.254 2.488 5.22 3.67a61.372 61.372 0 005.833 3.105c1.922.89 3.943 1.62 6.062 2.192 2.12.572 4.29.969 6.511 1.19 2.22.22 4.38.24 6.479.057a36.214 36.214 0 006.171-1.077 34.402 34.402 0 006.053-2.257 31.815 31.815 0 005.562-3.387 44.058 44.058 0 004.927-4.41 57.56 57.56 0 004.563-5.35 45.953 45.953 0 003.843-6.004 55.747 55.747 0 002.962-6.515 38.04 38.04 0 001.912-6.978c.419-2.397.53-4.74.332-7.028a40.585 40.585 0 00-1.255-7.01 52.016 52.016 0 00-2.56-7.263 42.122 42.122 0 00-3.96-7.11c-1.572-2.283-2.663-3.782-3.273-4.497a45.188 45.188 0 00-1.732-1.925 78.305 78.305 0 00-2.336-2.303c-1.013-.967-2.58-2.369-4.7-4.205a59.296 59.296 0 00-7-5.185 85.09 85.09 0 00-7.774-4.398 76.005 76.005 0 00-7.951-3.417 52.318 52.318 0 00-7.938-2.209 50.99 50.99 0 00-7.851-.898 37.658 37.658 0 00-7.665.5c-2.502.425-4.799 1.007-6.89 1.745A24.339 24.339 0 0035.305 156a32.555 32.555 0 00-5.003 4.302 23.23 23.23 0 00-3.778 5.239 54.084 54.084 0 00-2.666 5.965 38.71 38.71 0 00-1.833 6.566 50.423 50.423 0 00-.809 6.878c-.111 2.309-.038 4.739.22 7.29.26 2.551.77 5.173 1.53 7.867a53.64 53.64 0 002.987 8.016 87.062 87.062 0 004.158 7.862 52.566 52.566 0 005.456 7.518 52.402 52.402 0 007.013 6.71c2.578 2.053 5.416 3.936 8.514 5.65a65.71 65.71 0 009.858 4.42c5.129 1.82 11.379 3.231 18.751 4.234" fill="none" stroke="#fff" stroke-width=".78617887" stroke-linecap="round" stroke-linejoin="round" stroke-miterlimit="10"/><path d="M66.614 195.057c.2.237.182.456-.056.657-.168.143-.389.252-.663.329-.275.077-.468.083-.58.018-.113-.065-.215-.205-.307-.42-.092-.214-.097-.4-.015-.558.082-.158.198-.3.35-.425.15-.125.337-.23.56-.313.222-.083.457-.125.705-.126.249 0 .465.047.65.14.185.094.326.218.422.373.097.155.176.334.239.537.062.202.07.398.023.586-.047.188-.176.399-.389.632-.213.233-.418.393-.616.48a2.506 2.506 0 01-.562.177c-.177.032-.367-.005-.569-.11a1.889 1.889 0 01-.848-.87 1.602 1.602 0 01-.139-.448c-.016-.13.038-.252.163-.364.125-.111.271-.197.439-.256.168-.06.4-.088.695-.083.295.004.525.05.688.14a.72.72 0 01.336.365.718.718 0 01.015.484.925.925 0 01-.256.423c-.12.112-.246.192-.377.24a.513.513 0 01-.393-.01 1.281 1.281 0 01-.372-.25 1.213 1.213 0 01-.26-.33.768.768 0 01-.09-.3c-.005-.09.095-.197.3-.319.206-.122.353-.189.44-.2.089-.01.2.082.333.276s.207.359.22.495c.012.136-.096.24-.326.31-.23.071-.402.072-.514.003-.112-.069-.086-.145.08-.228l.275-.14c.02-.01.024-.014.013-.014h-.302" fill="none" stroke="#fff" stroke-width=".78617887" stroke-linecap="round" stroke-linejoin="round" stroke-miterlimit="10"/><path d="M64.942 195.95c-.058.118-.216.237-.473.356-.165.077-.366.163-.604.259s-.505.196-.798.3c-.294.103-1.143.375-2.545.815-1.403.44-2.273.707-2.609.802-.336.095-.94.279-1.814.55-.874.273-1.706.535-2.498.787-.791.252-1.33.433-1.618.541a14.14 14.14 0 00-1.158.52c-.484.238-.884.417-1.2.54-.315.121-1.847.613-4.597 1.475-2.75.862-4.222 1.326-4.415 1.39-.193.065-.51.184-.95.357-.44.174-.897.337-1.37.492a8.972 8.972 0 01-1.243.323c-.356.06-.82.16-1.394.296-.572.137-1.06.253-1.462.347-.402.095-.855.218-1.36.37-.506.151-.984.298-1.436.439-.453.141-.774.231-.963.27-.189.04-.493.124-.911.254a8.48 8.48 0 00-1.064.4c-.29.136-.662.277-1.113.425-.452.147-.717.23-.796.25l-.137.036M66.926 195.712a.452.452 0 01.16-.214c.051-.036.07-.08.055-.134-.014-.053-.059-.085-.133-.098a.304.304 0 01-.171-.079l-.064-.065c-.003-.003-.003-.003 0-.003l.077.027a.516.516 0 01.104.047c.023.015.031.014.026-.003l-.041-.124c-.022-.066-.05-.108-.083-.125a.247.247 0 00-.143-.014.537.537 0 01-.127.006 1.304 1.304 0 01-.038-.006l.018-.002.184-.007c.107-.005.188-.015.243-.03l.097-.028.004-.002-.022.005-.186.04-.192.04c-.024.006-.029.01-.014.013l.133.031c.075.017.16.047.254.09a.488.488 0 01.185.122c.028.038.013.08-.044.124-.058.044-.078.081-.06.11.017.03.05.054.098.075.067.029.062-.045-.015-.22M67.891 194.996l-.33.103h-.003l.011-.003.34-.106c.216-.068.45-.16.704-.276.253-.117.61-.272 1.074-.467.463-.194.86-.359 1.188-.493.329-.134.774-.32 1.337-.558.562-.238 1.02-.425 1.374-.56a45.52 45.52 0 011.99-.707c.282-.093.529-.178.743-.254a68.85 68.85 0 001.386-.526c.71-.275 1.405-.533 2.084-.772.68-.24 1.25-.453 1.714-.637.464-.185.828-.332 1.093-.44.265-.11.781-.3 1.549-.574.768-.274 1.282-.46 1.542-.559.26-.098.654-.237 1.18-.417.525-.179 1.166-.387 1.921-.624a72.874 72.874 0 001.506-.483c.249-.085.57-.207.965-.365s.681-.27.86-.337c.178-.066.368-.13.57-.195.203-.064.61-.214 1.223-.448a34.36 34.36 0 011.442-.524c.349-.115.595-.2.74-.253.144-.054.347-.14.609-.256.261-.117.784-.312 1.567-.584.783-.273 1.308-.46 1.575-.561.267-.1 1.187-.398 2.76-.89 1.574-.493 2.493-.788 2.758-.884.266-.096.536-.187.81-.274.275-.086.422-.072.442.041M66.175 197.504l.146-.28h.001l-.015.026-.355.65c-.226.413-.419.79-.58 1.134-.161.343-.341.698-.54 1.063-.2.365-.347.626-.442.784a16.87 16.87 0 00-.474.881c-.22.43-.413.794-.58 1.093-.165.3-.276.52-.33.658a9.212 9.212 0 00-.206.597c-.083.26-.207.566-.375.917-.168.35-.286.601-.355.752-.068.15-.155.355-.26.614-.105.259-.236.558-.393.896-.157.339-.316.737-.479 1.194-.163.458-.28.77-.35.94-.07.168-.151.345-.244.53a24.27 24.27 0 01-.394.75c-.17.313-.288.535-.353.665s-.186.333-.362.608c-.177.276-.38.624-.609 1.045-.229.421-.406.78-.532 1.076-.126.296-.25.587-.369.875-.119.287-.289.668-.51 1.142-.22.474-.372.794-.454.96-.083.167-.218.412-.403.736-.186.324-.32.568-.4.733-.082.165-.198.43-.348.795l-.458 1.104c-.154.372-.3.741-.438 1.108-.137.367-.304.757-.5 1.168-.198.412-.497 1.014-.898 1.808-.4.793-.636 1.274-.704 1.442a9.492 9.492 0 00-.248.71 5.357 5.357 0 01-.26.697 5.9 5.9 0 01-.432.693c-.21.302-.343.509-.4.619a4.72 4.72 0 00-.216.526c-.087.24-.193.5-.317.778a6.867 6.867 0 00-.272.685 4.48 4.48 0 01-.23.569c-.095.2-.172.386-.23.56a6.683 6.683 0 00-.142.473 4.356 4.356 0 01-.203.568c-.1.236-.211.461-.336.676a7.268 7.268 0 01-.382.598c-.009.012-.01.01-.005-.004l.122-.336" fill="none" stroke="#fff" stroke-width=".78617887" stroke-linecap="round" stroke-linejoin="round" stroke-miterlimit="10"/><path d="M62.61 178.597c.11-.036.148-.04.117-.015l-.168.136c-.09.073-.286.176-.589.308s-.674.278-1.115.436c-.44.158-.889.31-1.346.46-.458.148-.903.283-1.337.405-.433.122-.803.2-1.108.234a3.459 3.459 0 01-.816.006 1.714 1.714 0 01-.609-.182 1.152 1.152 0 01-.407-.368 1.399 1.399 0 01-.214-.521 1.238 1.238 0 01.068-.649 3.78 3.78 0 01.376-.757c.167-.266.388-.54.661-.822.274-.282.601-.551.984-.809.382-.258.79-.495 1.224-.712a17.778 17.778 0 013.06-1.162M59.488 179.014c-.32-.51-.657-1.127-1.011-1.852" fill="none" stroke="#7ec636" stroke-width=".78617887" stroke-linecap="round" stroke-linejoin="round" stroke-miterlimit="10"/><path d="M33.1 203.61c-.118.004-.423-.106-.918-.33l-.928-.417a18.074 18.074 0 01-.99-.534 87.459 87.459 0 01-2.949-1.755M39.854 202.103c-.015.04-.057.049-.125.026-.068-.022-.256-.135-.566-.336-.31-.202-.535-.347-.677-.434a22.224 22.224 0 00-1.005-.544 32.85 32.85 0 01-1.734-.98 69.744 69.744 0 00-2.108-1.215c-.776-.431-1.529-.88-2.258-1.344a87.855 87.855 0 01-2.094-1.374 39.214 39.214 0 01-1.828-1.31 81.44 81.44 0 00-3.037-2.191M45.97 198.967c-.13.01-.332-.042-.608-.157-.276-.115-.797-.416-1.563-.902a39.867 39.867 0 00-1.822-1.105 42.374 42.374 0 01-1.856-1.122 67.894 67.894 0 00-2.365-1.429c-.788-.453-1.598-.924-2.432-1.412-.833-.488-2.035-1.245-3.606-2.27-1.571-1.026-2.68-1.773-3.327-2.243-.966-.7-1.961-1.446-2.985-2.236M52.53 197.038c.218.145.315.203.29.173l-.133-.156c-.071-.083-.24-.214-.505-.395-.266-.18-.633-.4-1.1-.658-.466-.26-.985-.56-1.554-.904a88.457 88.457 0 00-1.97-1.147 54.943 54.943 0 01-2.28-1.371c-.779-.493-1.592-.995-2.442-1.506l-2.791-1.679a81.64 81.64 0 01-2.684-1.676c-.78-.511-1.33-.864-1.654-1.058-.323-.195-.902-.582-1.737-1.162-.836-.58-1.633-1.151-2.394-1.712a40.72 40.72 0 01-2.002-1.566c-.575-.483-1.109-.928-1.603-1.334-.734-.603-1.481-1.343-2.242-2.22M57.902 194.208c.17.09.277.135.322.137.032.001.024-.034-.024-.106a1.448 1.448 0 00-.286-.282 6.563 6.563 0 00-.744-.483c-.352-.206-.784-.431-1.296-.676a38.076 38.076 0 01-1.772-.915c-.67-.365-1.44-.777-2.311-1.235a100.469 100.469 0 01-5.838-3.329 104.019 104.019 0 01-3.277-2.098 105.862 105.862 0 01-2.833-1.945l-1.662-1.189c-.326-.233-.937-.68-1.833-1.34-.896-.66-1.772-1.319-2.628-1.973-.856-.655-1.401-1.087-1.636-1.295-.235-.209-.538-.51-.907-.907-.537-.575-1.353-1.532-2.449-2.87M63.91 190.647a43.08 43.08 0 00.076.103l-.023-.066c-.014-.04-.106-.123-.276-.25a6.495 6.495 0 00-.58-.382 22.488 22.488 0 00-.96-.523c-.424-.221-.92-.468-1.49-.741-.57-.273-1.16-.579-1.77-.917a214.93 214.93 0 00-2.005-1.097c-.727-.393-1.522-.835-2.383-1.327a86.496 86.496 0 01-2.537-1.505c-.83-.512-1.693-1.048-2.587-1.608-.895-.56-1.808-1.135-2.74-1.723a50.745 50.745 0 01-2.142-1.41 43.53 43.53 0 00-1.439-.979c-.462-.3-1.186-.777-2.17-1.429-.984-.651-1.929-1.29-2.835-1.914a75.674 75.674 0 01-2.546-1.83 46.036 46.036 0 01-2.13-1.696c-.918-.78-2.217-1.988-3.897-3.625M73.767 188.498c-.224-.059-.608-.246-1.152-.56a60.202 60.202 0 00-.77-.44c-.177-.1-.35-.202-.52-.308-.17-.106-.456-.278-.858-.517-.401-.238-.85-.488-1.346-.748-.496-.26-.977-.541-1.444-.844a261.599 261.599 0 00-2.801-1.783M51.427 172.348l.086.07c.008.006 0-.004-.023-.031l-.153-.18a2.858 2.858 0 00-.43-.373 12.947 12.947 0 00-1.87-1.144c-.4-.202-.812-.42-1.238-.653-.426-.233-.88-.486-1.363-.76-.483-.272-.98-.557-1.49-.852-.51-.296-.997-.61-1.46-.944a27.472 27.472 0 00-1.452-.975 49.233 49.233 0 01-1.491-.974c-.49-.333-.963-.647-1.419-.943-.456-.296-.91-.59-1.36-.884-.45-.293-.85-.577-1.202-.853-.35-.276-.663-.534-.936-.772-.401-.35-.887-.874-1.458-1.574M83.006 183.3a5.518 5.518 0 00-.655-.509 20.16 20.16 0 00-.844-.53c-.388-.233-.743-.45-1.067-.648-.323-.198-.71-.45-1.16-.758a36.33 36.33 0 00-1.61-1.03c-.624-.379-1.272-.78-1.947-1.203a135.02 135.02 0 00-2.259-1.383c-.832-.5-1.385-.838-1.658-1.018-.274-.179-.764-.494-1.47-.944a98.276 98.276 0 01-2.426-1.609 215.25 215.25 0 00-2.514-1.69 50.297 50.297 0 01-1.538-1.044c-.261-.19-1.311-.898-3.15-2.123a332.4 332.4 0 00-4.226-2.78 164.892 164.892 0 00-5.692-3.5 64.891 64.891 0 01-2.311-1.411c-.984-.633-2.34-1.54-4.067-2.722M89.064 180.625a7.741 7.741 0 01-.86-.715c-.2-.189-.471-.443-.814-.763-.343-.32-.762-.66-1.257-1.019-.496-.36-1.04-.763-1.635-1.212a59.09 59.09 0 00-2.01-1.444 198.617 198.617 0 01-2.306-1.615c-.79-.563-1.659-1.167-2.603-1.812a254.502 254.502 0 01-2.859-1.981c-.96-.676-1.914-1.364-2.861-2.064-.947-.7-1.904-1.404-2.87-2.112-.968-.707-1.955-1.419-2.963-2.135a146.724 146.724 0 01-2.96-2.158 53.033 53.033 0 01-2.653-2.113c-1.176-1.005-2.67-2.403-4.481-4.193M96.166 179.259c-.077-.01-.214-.092-.41-.247a20.506 20.506 0 01-1.036-.928l-1.323-1.239a128.74 128.74 0 00-1.312-1.21 34.842 34.842 0 00-1.574-1.344 56.795 56.795 0 01-1.816-1.536 89.146 89.146 0 00-2.134-1.813 47.773 47.773 0 01-2.213-1.94 110.693 110.693 0 00-2.166-1.969c-1.093-.967-2.373-2.202-3.842-3.707" fill="none" stroke="#507500" stroke-width=".78617887" stroke-linecap="round" stroke-linejoin="round" stroke-miterlimit="10"/><path d="M81.453 222.828c.255-.038.475-.091.66-.16.125-.048.392-.175.801-.382a46.586 46.586 0 012.764-1.283 25.132 25.132 0 002.361-1.17M82.275 222.247a1.786 1.786 0 01-.877.429 1.25 1.25 0 01-.667-.039c-.21-.072-.38-.18-.511-.322a1.114 1.114 0 01-.265-.464.656.656 0 01.077-.508 1.48 1.48 0 01.422-.462c.183-.136.373-.252.57-.347a5.638 5.638 0 011.015-.38.706.706 0 01.274-.027c.07.011.066-.09-.011-.305a3.018 3.018 0 01-.158-.652 2.31 2.31 0 01.344-1.476c.154-.25.35-.463.589-.64.239-.178.513-.324.823-.439.31-.115.655-.144 1.036-.088.38.057.759.197 1.136.42.377.224.709.499.996.824.414.47.476 1.06.185 1.77" fill="none" stroke="#f59a23" stroke-width=".78617887" stroke-linecap="round" stroke-linejoin="round" stroke-miterlimit="10"/><path d="M105.744 185.991a6.942 6.942 0 01-1.077.525c-.393.153-.854.339-1.383.558-.528.22-1.108.463-1.74.73-.632.269-1.331.573-2.099.914-.767.34-1.59.699-2.469 1.074-.878.375-1.794.733-2.748 1.075-.953.342-1.96.68-3.02 1.016l-3.225 1.02c-1.09.346-2.208.71-3.352 1.095l-3.404 1.142c-1.124.376-2.183.723-3.176 1.04-.993.317-1.88.573-2.658.768-.78.194-1.53.351-2.251.47-1.088.18-2.131.28-3.131.298M108.91 192.53c.079.05.073.123-.018.217-.066.067-.262.17-.589.307-.327.137-.763.309-1.308.516-.545.208-1.179.455-1.9.74a82.226 82.226 0 01-5.056 1.802c-.946.303-3.883 1.226-8.812 2.767-4.928 1.54-7.986 2.487-9.173 2.84a217.3 217.3 0 01-3.383.976c-1.069.298-2.133.59-3.193.876-1.544.417-3.89.952-7.037 1.604M110.28 198.98c.011.11-.044.217-.167.321a1.899 1.899 0 01-.416.267c-.154.073-.521.211-1.101.414-.58.202-1.22.421-1.92.657a176.196 176.196 0 00-4.848 1.715c-.928.342-1.922.711-2.983 1.108-1.06.397-2.167.8-3.318 1.208-1.152.408-2.354.818-3.608 1.23-1.254.411-2.56.834-3.919 1.268-1.358.434-2.715.87-4.068 1.31-1.354.438-2.74.89-4.156 1.354-1.417.464-2.822.918-4.215 1.362-1.393.445-2.682.847-3.868 1.207a69.56 69.56 0 01-3.333.928c-1.037.26-1.89.46-2.56.603-1.03.219-1.903.359-2.62.42M109.853 207.221c-.22.13-.428.24-.624.328-.133.06-.552.217-1.26.471-.706.254-1.679.621-2.916 1.102-1.238.48-2.245.861-3.022 1.143a135.331 135.331 0 01-5.24 1.77c-1.328.417-3.367.962-6.119 1.632M71.645 219.683c.107.123.098.246-.03.367-.09.085-.299.185-.627.298-.328.114-.711.232-1.148.354-.438.121-.879.24-1.324.354-.445.114-.922.248-1.431.401a55.582 55.582 0 00-3.202 1.072c-.57.209-1.126.41-1.668.6-.795.28-1.866.607-3.214.978M108.355 216.388c-.292.188-.692.367-1.203.537-.332.11-.723.23-1.175.361-.451.131-.939.264-1.463.4-.524.135-1.089.292-1.695.472-.606.18-1.243.379-1.912.598-.668.22-1.353.447-2.054.682-1.03.346-2.341.751-3.93 1.216M78.343 226.268c-.22.09-.59.22-1.108.387-.519.168-.941.298-1.267.388-.325.09-.787.211-1.385.363a850.48 850.48 0 00-4.154 1.07c-.803.21-2.001.53-3.593.96-1.592.43-2.792.748-3.6.956-.808.207-1.595.395-2.362.562-.766.168-1.501.322-2.206.463-1.044.21-2.229.425-3.554.647M101.907 224.668c-.03.144-.142.283-.333.415-.191.133-.548.299-1.072.498-.523.198-1.092.41-1.706.632-.614.223-1.754.665-3.418 1.326-1.664.66-3.001 1.18-4.01 1.56-1.01.38-2.087.762-3.231 1.15a175.19 175.19 0 01-3.505 1.143c-1.192.376-2.363.736-3.513 1.08-1.15.345-2.297.674-3.44.988-1.142.314-2.245.61-3.307.89-1.061.278-2.055.537-2.981.776-.926.238-1.756.432-2.491.582-1.105.224-2.19.333-3.257.327M91.688 234.129c-.174.129-.484.291-.93.487a34.62 34.62 0 01-1.623.658c-.638.242-1.616.628-2.935 1.158-1.318.53-2.42.962-3.305 1.294-1.28.481-3.645 1.151-7.094 2.01" fill="none" stroke="#a35c00" stroke-width=".78617887" stroke-linecap="round" stroke-linejoin="round" stroke-miterlimit="10"/><path d="M44.896 211.733c-.1-.083-.19-.113-.271-.089a.418.418 0 00-.169.107.696.696 0 00-.15.25.966.966 0 00-.046.42c.013.168.067.364.163.589.096.225.247.434.455.625.208.191.455.345.742.46.286.117.607.19.962.222a4.17 4.17 0 001.214-.098 5.145 5.145 0 001.262-.437c.387-.195.708-.438.964-.73.256-.29.4-.61.435-.957a1.743 1.743 0 00-.223-1.025c-.183-.336-.467-.637-.852-.904a16.82 16.82 0 00-2.101-1.205" fill="none" stroke="#007aff" stroke-width=".78617887" stroke-linecap="round" stroke-linejoin="round" stroke-miterlimit="10"/><path d="M62.037 200.837l.074.138c.008.012-.025.001-.096-.034l-.43-.216c-.314-.157-.786-.527-1.417-1.111M58.93 205.232l.246.227c.015.014.017.02.005.016l-.108-.029a2.822 2.822 0 01-.378-.166 57.792 57.792 0 00-.797-.384c-.34-.16-.719-.365-1.138-.613a52.078 52.078 0 01-2.402-1.542M56.572 209.999a4.59 4.59 0 01-.658-.28 9.253 9.253 0 01-.909-.537l-1.213-.798c-.467-.308-.957-.65-1.468-1.025-.75-.55-1.716-1.352-2.9-2.408M54.73 217.765a4.444 4.444 0 01-.63-.293c-.352-.192-1.017-.547-1.993-1.063M42.29 207.122c-.055-.003-.16-.05-.315-.141-.222-.13-.904-.561-2.046-1.296M50.707 222.992c-.13-.06-.283-.15-.46-.268a22.023 22.023 0 00-1.596-.965 21.788 21.788 0 01-1.372-.844c-.509-.337-1.071-.7-1.687-1.093a22.164 22.164 0 01-1.877-1.346 71.751 71.751 0 01-2.006-1.659 27.402 27.402 0 01-1.954-1.84 82.348 82.348 0 01-2.425-2.628 19.908 19.908 0 01-.782-.939c-.176-.225-.597-.809-1.264-1.752M46.893 226.76c.135.138.136.207.002.209-.097.001-.267-.067-.51-.205-.242-.138-.534-.303-.876-.495a67.896 67.896 0 00-1.288-.703 14.697 14.697 0 01-1.626-1.024 88.436 88.436 0 01-1.805-1.331 20.797 20.797 0 01-1.854-1.584 377.266 377.266 0 01-1.889-1.826 29.784 29.784 0 01-1.882-2.007 53.353 53.353 0 01-1.558-1.9c-.444-.572-.757-.98-.939-1.224-.26-.348-1.017-1.72-2.27-4.117" fill="none" stroke="#03468f" stroke-width=".78617887" stroke-linecap="round" stroke-linejoin="round" stroke-miterlimit="10"/><path d="M146.016 202.779c-.53.177-1.635.252-3.316.225a58.866 58.866 0 01-4.51-.23c-1.932-.181-4.672-.706-8.219-1.572M124.956 206.539c-.027.216-.228.246-.604.09a4.989 4.989 0 01-1.119-.662c-.37-.284-.793-.665-1.272-1.143a7.628 7.628 0 01-1.18-1.501 5.01 5.01 0 01-.623-1.59c-.105-.537-.11-.966-.011-1.285.097-.319.537-.763 1.319-1.333 1.134-.826 3.145-2.055 6.032-3.689" fill="none" stroke="#ffd300" stroke-width="1.2349044599999999" stroke-linecap="round" stroke-linejoin="round" stroke-miterlimit="10"/><path d="M44.388 126.779l-.462.192M58.622 125.715l-.17-.068M75.176 124.235l-.844.052" fill="none" stroke="#fcfcfc" stroke-width="1.8894474599999997" stroke-linecap="round" stroke-linejoin="round" stroke-miterlimit="10"/></svg>