<svg xmlns="http://www.w3.org/2000/svg" width="143.289" height="60.104"><path d="M140.875 6.89c-.266-.026-.66-.004-1.186.064-.525.068-1.297.222-2.318.464-1.02.241-1.829.425-2.426.552-.597.127-1.21.26-1.84.401-.63.141-1.606.388-2.93.742-1.324.353-2.325.645-3.003.876-.678.23-1.304.498-1.88.805a16.46 16.46 0 00-1.685 1.034c-.548.383-1.149.798-1.801 1.246-.653.447-1.302.902-1.947 1.364-.644.462-1.237.928-1.777 1.4-.54.47-1.081.958-1.624 1.462a86.456 86.456 0 00-1.649 1.571 169.22 169.22 0 00-1.642 1.628c-.539.541-1.324 1.395-2.355 2.561-1.03 1.167-1.84 2.036-2.426 2.606l-1.74 1.69a23.043 23.043 0 00-1.59 1.704 28.87 28.87 0 00-1.414 1.832c-.455.64-.954 1.282-1.5 1.925-.544.643-1.1 1.283-1.665 1.92a57.034 57.034 0 00-3.03 3.707c-.454.607-.922 1.2-1.403 1.779-.481.58-1.37 1.464-2.668 2.653-1.298 1.19-2.258 2.068-2.882 2.637a16.834 16.834 0 01-1.916 1.516c-.654.442-1.318.871-1.992 1.288a67.76 67.76 0 01-1.985 1.183c-.65.372-1.321.716-2.016 1.033-.696.317-1.518.596-2.467.838a26.787 26.787 0 01-5.942.833c-1.056.03-1.953.037-2.69.018a43.393 43.393 0 01-2.9-.198 25.657 25.657 0 01-3.195-.489 32.589 32.589 0 01-2.865-.79 42.803 42.803 0 01-2.998-1.103 32.81 32.81 0 01-2.922-1.361c-.923-.488-1.855-.983-2.798-1.485a20.97 20.97 0 01-2.507-1.55 19.603 19.603 0 01-2.014-1.68 75.176 75.176 0 01-1.823-1.81 60.662 60.662 0 01-1.774-1.902c-.58-.65-1.114-1.31-1.6-1.98l-1.548-2.143a86.126 86.126 0 00-1.74-2.333 84.926 84.926 0 01-1.787-2.4 49.888 49.888 0 01-1.644-2.438 34.059 34.059 0 00-1.675-2.414 54.942 54.942 0 00-1.946-2.411 57.696 57.696 0 01-1.964-2.43c-.61-.801-1.257-1.582-1.94-2.341a41.134 41.134 0 00-2.269-2.323 88.506 88.506 0 01-2.33-2.294 34.544 34.544 0 00-2.26-2.115 51.188 51.188 0 00-2.408-1.936L18.253 8.54A34.887 34.887 0 0013.66 5.62a49.463 49.463 0 00-2.244-1.115 35.147 35.147 0 00-2.25-.953 26.873 26.873 0 00-2.037-.7 11.17 11.17 0 00-1.577-.358c-.664-.092-1.51-.104-2.534-.037" fill="none" stroke="#007aff" stroke-width="4.8276182599999995" stroke-linecap="round" stroke-linejoin="round" stroke-miterlimit="10"/><path d="M2.45 53.185c.27.026.671.004 1.204-.065.533-.069 1.317-.226 2.352-.47 1.036-.245 1.857-.432 2.463-.56.606-.13 1.229-.265 1.867-.408.64-.143 1.63-.394 2.974-.752 1.344-.36 2.36-.655 3.048-.889a12.807 12.807 0 001.908-.817c.584-.311 1.154-.661 1.71-1.05.557-.388 1.166-.81 1.828-1.264.663-.454 1.321-.915 1.976-1.384a24.066 24.066 0 001.804-1.42 72.635 72.635 0 001.648-1.484c.551-.511 1.109-1.043 1.673-1.595.565-.552 1.12-1.102 1.667-1.652.547-.55 1.344-1.416 2.39-2.6 1.047-1.184 1.868-2.065 2.463-2.644l1.766-1.715c.58-.564 1.119-1.14 1.614-1.73a29.26 29.26 0 001.435-1.858c.461-.65.969-1.301 1.522-1.954.553-.652 1.116-1.302 1.69-1.948a58.008 58.008 0 003.075-3.763c.462-.615.937-1.217 1.425-1.805.488-.588 1.391-1.486 2.708-2.692 1.317-1.207 2.292-2.1 2.925-2.676a17.097 17.097 0 011.945-1.539 59.975 59.975 0 012.021-1.307 68.792 68.792 0 012.015-1.2 24.737 24.737 0 012.047-1.049c.705-.321 1.54-.604 2.503-.85.963-.245 1.94-.44 2.934-.583a27.078 27.078 0 013.096-.262 51.872 51.872 0 012.732-.018c.748.018 1.729.086 2.942.202 1.213.115 2.294.28 3.243.495.949.215 1.918.482 2.907.803.988.321 2.003.694 3.043 1.12 1.04.425 2.029.885 2.965 1.38.937.496 1.883.999 2.84 1.508.957.51 1.805 1.034 2.544 1.574.74.54 1.421 1.108 2.044 1.705a76.11 76.11 0 011.85 1.837 61.64 61.64 0 011.8 1.93c.59.66 1.13 1.33 1.624 2.01.492.679 1.016 1.404 1.57 2.175.556.771 1.145 1.56 1.768 2.368.623.807 1.227 1.619 1.812 2.435a51.024 51.024 0 011.668 2.475 34.62 34.62 0 001.7 2.45c.608.8 1.266 1.616 1.975 2.447a58.433 58.433 0 011.993 2.467c.62.813 1.276 1.605 1.968 2.376a41.8 41.8 0 002.304 2.358 90.27 90.27 0 012.365 2.328 35.095 35.095 0 002.294 2.147c.795.68 1.609 1.334 2.442 1.964l2.36 1.784a35.302 35.302 0 004.662 2.962c.767.404 1.527.782 2.279 1.131.752.35 1.513.673 2.283.968.77.295 1.459.532 2.067.71.609.179 1.142.3 1.601.364" fill="none" stroke="#007aff" stroke-width="4.89961799" stroke-linecap="round" stroke-linejoin="round" stroke-miterlimit="10"/><path d="M3.03 22.999c-.065.457-.103 1.326-.112 2.607-.014 1.864.015 4.79.086 8.778M19.468 25.243c-.27-.35-.473-.565-.608-.646a1.334 1.334 0 00-.378-.141 2.532 2.532 0 00-.532-.062 2.168 2.168 0 00-.605.078c-.207.056-.411.17-.612.344-.201.174-.38.413-.536.717-.156.304-.274.726-.353 1.267-.078.54-.125 1.157-.138 1.852-.014.695.056 1.316.21 1.865.154.549.382.984.685 1.307.302.323.596.547.882.672.285.124.687.19 1.206.197.52.007.992-.104 1.418-.334a4.36 4.36 0 001.16-.92 5.44 5.44 0 00.9-1.408 6.86 6.86 0 00.53-1.756c.1-.616.148-1.195.145-1.735-.003-.541-.133-1.006-.388-1.395a1.993 1.993 0 00-1.019-.81c-.424-.152-.9-.191-1.427-.12-.782.107-1.597.377-2.446.81" fill="none" stroke="#ff21b3" stroke-width="1.8894474599999997" stroke-linecap="round" stroke-linejoin="round" stroke-miterlimit="10"/><path d="M57.884 25.699l.064 8.256M66.486 25.699c.008 1.18.004 2.134-.014 2.864-.011.498-.06 1.302-.147 2.412-.15 1.927-.152 3.031-.006 3.312M75.14 26.094c-.018 2.49-.096 5.273-.235 8.348M87.38 27.099c-.195-.387-.38-.653-.556-.799-.12-.1-.277-.17-.47-.212a3.358 3.358 0 00-.653-.07 3.325 3.325 0 00-.756.078c-.26.055-.506.151-.737.288a2.376 2.376 0 00-.663.617c-.21.275-.413.663-.609 1.163-.195.5-.34 1.08-.434 1.74a8.934 8.934 0 00-.081 1.873c.04.59.197 1.116.469 1.579.272.463.627.858 1.064 1.185a3.1 3.1 0 001.403.603c.498.075.996-.017 1.495-.276.498-.26.952-.636 1.362-1.129.41-.493.714-1.094.91-1.802.197-.709.317-1.404.362-2.084.044-.681-.012-1.252-.169-1.712-.156-.46-.373-.804-.65-1.03a5.905 5.905 0 00-1.491-.866" fill="none" stroke="#7ec636" stroke-width="1.8894474599999997" stroke-linecap="round" stroke-linejoin="round" stroke-miterlimit="10"/><path d="M127.549 27.122c.172-.186.275-.529.31-1.028.022-.323-.02-.514-.125-.574a1.376 1.376 0 00-.444-.135 4.679 4.679 0 00-.688-.052 3.317 3.317 0 00-.909.135c-.337.093-.675.278-1.014.556-.338.277-.649.666-.932 1.166-.283.5-.498 1.093-.645 1.779a9.564 9.564 0 00-.214 2.071c.005.696.131 1.36.381 1.99.25.63.561 1.147.935 1.552s.772.68 1.194.828c.423.147.836.202 1.239.166.402-.035.789-.217 1.159-.543.37-.327.704-.79 1.003-1.388a9.05 9.05 0 00.699-1.93c.166-.69.267-1.364.302-2.024.036-.66-.003-1.25-.119-1.77-.115-.52-.312-.933-.592-1.241a2.33 2.33 0 00-1.002-.657c-.569-.19-1.327-.257-2.273-.202M136.955 26.24c.065.637.115 1.194.147 1.671.023.323.038.962.047 1.917a341.327 341.327 0 01.005 5.552c-.009.717-.07 1.437-.185 2.158" fill="none" stroke="#ffd300" stroke-width="1.8894474599999997" stroke-linecap="round" stroke-linejoin="round" stroke-miterlimit="10"/></svg>