<svg xmlns="http://www.w3.org/2000/svg" width="95.393" height="118.36"><path d="M43.238 59.5a2.44 2.44 0 00-.048-.498c-.038-.22-.117-.542-.237-.966a47.69 47.69 0 01-.275-1.01 71.128 71.128 0 00-.202-.767c-.07-.263-.192-.669-.364-1.22-.172-.55-.313-.965-.422-1.246a5.31 5.31 0 00-.372-.776 6.938 6.938 0 00-.465-.69c-.171-.224-.357-.47-.556-.736-.2-.266-.403-.53-.609-.794a10.004 10.004 0 00-.62-.722 36.246 36.246 0 00-1.334-1.322 71.027 71.027 0 00-.714-.661c-.238-.217-.61-.532-1.12-.945a21.385 21.385 0 01-1.139-.974l-.741-.7a9.71 9.71 0 00-.745-.64 12.19 12.19 0 00-.796-.56c-.277-.18-.556-.38-.836-.597-.28-.218-.56-.44-.837-.666a23.985 23.985 0 00-1.614-1.208 19.49 19.49 0 01-.773-.558c-.252-.192-.64-.55-1.163-1.075l-1.16-1.164a7.076 7.076 0 01-.672-.78 28.46 28.46 0 01-1.11-1.628 10.261 10.261 0 01-.47-.829 6.213 6.213 0 01-.397-1.022 11.273 11.273 0 01-.457-2.484c-.032-.443-.05-.82-.056-1.13-.005-.311.005-.719.032-1.223.027-.505.076-.956.148-1.353s.166-.803.281-1.218c.116-.416.253-.843.41-1.281.159-.439.332-.856.52-1.253.19-.397.38-.798.575-1.203a8.25 8.25 0 011.278-1.959c.236-.268.479-.535.728-.8.25-.263.505-.523.768-.78.263-.255.53-.49.804-.707l.874-.69c.31-.243.626-.501.95-.773.323-.273.648-.537.976-.794.328-.257.66-.502.997-.735.335-.233.664-.482.985-.748.32-.266.647-.553.979-.861.332-.308.66-.598.987-.87a15.85 15.85 0 001.885-1.853c.317-.363.625-.704.923-1.021.299-.317.582-.647.85-.988.267-.342.524-.69.77-1.047l.698-1.01a14.695 14.695 0 001.145-1.984c.154-.324.297-.645.428-.963.132-.318.252-.639.36-.963.11-.324.195-.614.259-.87.063-.254.104-.478.122-.669a5.411 5.411 0 00-.03-1.066" fill="none" stroke="#007aff" stroke-width="2.03199238" stroke-linecap="round" stroke-linejoin="round" stroke-miterlimit="10"/><path d="M21.295 2.118c-.006.114.01.283.049.506.038.222.118.55.24.98.121.431.214.773.28 1.026.064.253.132.512.204.778.071.266.195.678.37 1.237.174.559.317.98.428 1.266.11.285.236.547.377.787.142.24.299.474.472.7.174.228.362.477.565.747.202.27.408.539.617.806.209.267.419.511.63.733a30.712 30.712 0 001.353 1.342c.243.227.484.451.725.671.24.22.62.54 1.136.959.516.419.902.748 1.156.988l.753.712c.247.234.5.45.756.648.257.197.526.387.807.57.282.182.564.384.849.605.284.22.567.446.85.676a24.428 24.428 0 001.637 1.226c.267.183.528.372.784.567.256.194.65.558 1.18 1.09.532.532.924.926 1.178 1.182.254.256.482.52.682.79a29.04 29.04 0 011.127 1.652c.17.271.33.552.477.843.148.29.282.637.402 1.037a11.377 11.377 0 01.463 2.52c.033.451.052.834.057 1.15.005.314-.005.728-.032 1.24s-.077.97-.15 1.373a13.88 13.88 0 01-.286 1.236c-.117.422-.256.855-.416 1.3-.16.445-.337.87-.528 1.272l-.583 1.22a8.37 8.37 0 01-1.297 1.988c-.24.273-.486.544-.74.812a26.02 26.02 0 01-.779.791c-.267.26-.539.5-.816.719l-.887.7c-.314.247-.635.508-.964.785-.328.276-.658.545-.991.806-.333.26-.67.509-1.011.745-.341.236-.675.49-1 .759-.325.27-.657.561-.994.874a24.68 24.68 0 01-1.002.882 16.175 16.175 0 00-1.914 1.881c-.321.369-.634.714-.936 1.036-.303.323-.59.657-.862 1.003-.272.347-.533.7-.782 1.063l-.709 1.024a14.886 14.886 0 00-1.162 2.014c-.156.33-.3.655-.434.978-.134.322-.256.648-.367.977-.11.329-.197.623-.261.882a4.778 4.778 0 00-.124.68" fill="none" stroke="#007aff" stroke-width="2.06253772" stroke-linecap="round" stroke-linejoin="round" stroke-miterlimit="10"/><path d="M43.936 116.877a2.44 2.44 0 00-.048-.498c-.038-.22-.117-.542-.237-.967-.12-.424-.211-.761-.275-1.01a72.399 72.399 0 00-.202-.766c-.07-.263-.192-.669-.364-1.22a21.31 21.31 0 00-.422-1.246 5.325 5.325 0 00-.372-.776 6.934 6.934 0 00-.465-.69c-.171-.224-.357-.47-.556-.736-.2-.266-.403-.53-.609-.794a10.006 10.006 0 00-.62-.722 36.246 36.246 0 00-1.334-1.322 71.89 71.89 0 00-.714-.662c-.238-.216-.61-.531-1.12-.944a21.399 21.399 0 01-1.139-.974l-.741-.701a9.706 9.706 0 00-.745-.638 12.162 12.162 0 00-.796-.562 12.04 12.04 0 01-.836-.596c-.28-.218-.56-.44-.837-.666a24.02 24.02 0 00-1.614-1.208c-.263-.18-.52-.366-.773-.558-.252-.192-.64-.55-1.163-1.075l-1.16-1.164a7.084 7.084 0 01-.672-.78 28.404 28.404 0 01-1.11-1.628 10.287 10.287 0 01-.47-.829 6.22 6.22 0 01-.397-1.022 11.256 11.256 0 01-.457-2.484 21.41 21.41 0 01-.056-1.13c-.005-.311.005-.719.032-1.223.026-.505.076-.956.148-1.353s.166-.803.281-1.219c.116-.415.252-.842.41-1.28.158-.439.332-.856.52-1.253.19-.397.38-.798.575-1.203a8.259 8.259 0 011.278-1.959c.236-.269.479-.535.728-.8.249-.264.505-.524.768-.78.263-.255.53-.49.804-.707l.873-.69c.31-.243.627-.501.95-.774.324-.272.65-.537.977-.793.328-.258.66-.503.996-.735.336-.233.665-.482.985-.748.321-.266.648-.553.98-.861.332-.309.66-.598.987-.87a15.894 15.894 0 001.885-1.853c.317-.363.625-.704.923-1.021.299-.318.582-.647.85-.988.267-.342.524-.69.77-1.047l.698-1.01a14.63 14.63 0 001.145-1.984c.154-.324.297-.645.428-.963.132-.318.252-.64.36-.963.11-.325.195-.614.258-.87.064-.255.104-.478.123-.67a5.41 5.41 0 00-.03-1.066" fill="none" stroke="#007aff" stroke-width="2.03199238" stroke-linecap="round" stroke-linejoin="round" stroke-miterlimit="10"/><path d="M21.993 59.495c-.006.114.01.283.049.505.038.223.118.55.24.981.121.431.214.773.28 1.026.064.252.132.512.204.778.071.266.194.678.37 1.237.174.558.317.98.428 1.265a5.4 5.4 0 00.377.788c.142.24.299.474.472.7.174.228.362.476.564.747.203.27.41.539.618.806.209.266.419.51.63.733.21.222.428.444.653.667.225.222.458.447.7.675.243.227.484.45.725.671.24.22.62.54 1.136.958.516.42.902.749 1.156.989l.752.712c.248.234.5.45.757.647.256.198.526.388.807.57.282.183.564.385.849.606.284.22.567.446.85.676a24.335 24.335 0 001.636 1.226c.267.183.529.372.785.566.256.195.65.559 1.18 1.091.532.532.924.926 1.178 1.182.254.256.482.52.682.79a28.98 28.98 0 011.127 1.652c.17.271.33.552.477.843.148.29.282.636.402 1.037a11.393 11.393 0 01.463 2.52c.033.451.052.834.057 1.15.006.314-.005.728-.032 1.24s-.077.97-.15 1.373a13.85 13.85 0 01-.286 1.236c-.117.422-.256.855-.416 1.3-.16.445-.337.869-.528 1.272l-.583 1.22a8.369 8.369 0 01-1.297 1.988c-.24.273-.486.543-.74.812a26.02 26.02 0 01-.779.791c-.267.26-.539.5-.816.719l-.887.7c-.314.246-.635.508-.964.785-.328.276-.658.545-.991.805-.333.261-.67.51-1.011.746-.341.236-.675.489-1 .759-.325.27-.657.56-.994.874-.337.313-.671.607-1.002.882a16.175 16.175 0 00-1.914 1.88c-.321.37-.634.715-.937 1.037-.302.322-.59.657-.861 1.003-.272.347-.533.7-.783 1.062-.25.362-.485.704-.708 1.025a14.821 14.821 0 00-1.162 2.014c-.156.329-.3.655-.435.977-.133.323-.255.649-.366.978-.11.329-.197.623-.261.882-.065.259-.106.485-.125.68" fill="none" stroke="#007aff" stroke-width="2.06253772" stroke-linecap="round" stroke-linejoin="round" stroke-miterlimit="10"/><path d="M3.356 74.444c.13-.367.23-.837.303-1.41.047-.373.083-.77.108-1.188.025-.42.039-1.668.041-3.745.003-2.077-.035-3.558-.114-4.444a29.837 29.837 0 00-.376-2.733l-.48-2.62a18.73 18.73 0 01-.286-2.458c-.04-.83-.024-1.62.05-2.374.076-.754.229-1.424.46-2.011.34-.862.953-1.87 1.837-3.027" fill="none" stroke="#fcfcfc" stroke-width=".7556335299999999" stroke-linecap="round" stroke-linejoin="round" stroke-miterlimit="10"/><path d="M.378 65.318c.307-.194.66-.526 1.06-.997.401-.47.828-1.012 1.28-1.625.657-.886 1.863-2.405 3.618-4.556M15.467 48.683c-.132.031-.283.134-.454.308-.171.173-.387.43-.647.77s-.557.806-.893 1.398a11.636 11.636 0 00-.878 1.992c-.25.736-.49 1.91-.72 3.52a30.291 30.291 0 00-.29 4.925c.037 1.671.218 3.248.545 4.73.48 2.173 1.797 4.444 3.953 6.812" fill="none" stroke="#fcfcfc" stroke-width=".7556335299999999" stroke-linecap="round" stroke-linejoin="round" stroke-miterlimit="10"/><path d="M50.147 48.38c.14.206.384.632.73 1.278.345.646.653 1.353.925 2.119.271.766.493 1.533.666 2.3.173.768.321 1.974.446 3.619a29.48 29.48 0 01.014 4.603 31.458 31.458 0 01-.552 3.936 38.025 38.025 0 01-1.404 5.03M60.938 56.741c.102.11.52.145 1.254.106a54.65 54.65 0 002.467-.172M61.024 61.176c.094.118.24.21.44.276.2.066.492.13.876.192.556.09 1.53.069 2.922-.063" fill="none" stroke="#fcfcfc" stroke-width=".7352699699999999" stroke-linecap="round" stroke-linejoin="round" stroke-miterlimit="10"/><path d="M28.09 2.147c-.038.252-.05.572-.038.962l.045 1.594c.027 1.025.08 1.932.158 2.723M30.365 6.435l-.046.122M34.041 2.885c-.218-.115-.41-.176-.576-.181a.645.645 0 00-.316.068c-.097.05-.194.119-.29.208-.094.09-.207.258-.337.506-.13.247-.218.504-.261.769a3.62 3.62 0 00-.026.883c.027.324.112.624.258.901.145.277.326.486.542.627.217.141.445.206.683.195.239-.011.458-.124.657-.339a2.4 2.4 0 00.482-.832 5.438 5.438 0 00.31-1.911 1.504 1.504 0 00-.14-.634c-.124-.244-.394-.43-.81-.554M26.377 30.991c.337-.023.625-.066.863-.13.235-.065.572-.138 1.011-.222M31.666 28.932c.057-.147.011-.269-.14-.365a1.072 1.072 0 00-.284-.136 1.041 1.041 0 00-.298-.031c-.113.002-.24.053-.378.153-.14.099-.274.24-.405.422-.13.182-.249.386-.354.61-.106.225-.18.47-.22.735a3.03 3.03 0 00.002.88c.044.319.155.615.333.888.179.273.386.495.62.664.236.17.478.27.727.3.25.03.497-.017.742-.141.244-.124.455-.316.633-.576.177-.261.297-.545.36-.854a3.78 3.78 0 00.082-.864c-.008-.267-.063-.486-.164-.656-.146-.247-.43-.408-.852-.485M34.195 32.36l-.066.194M35.517 28.228c.036.373.047.816.035 1.33-.009.336-.01.583-.005.74.005.157.026.28.06.368a.38.38 0 00.17.198c.08.044.224.067.437.067.31 0 .671-.106 1.08-.322" fill="none" stroke="#7ec636" stroke-width=".74763356" stroke-linecap="round" stroke-linejoin="round" stroke-miterlimit="10"/><path d="M36.94 29.684c.08.266.139.632.176 1.097.024.3.044.615.06.944a9.96 9.96 0 01-.083 1.686M29.184 57.44a2.68 2.68 0 00-.371-.331 1.375 1.375 0 00-.212-.11 1.09 1.09 0 00-.292-.075 1.813 1.813 0 00-.356-.006.92.92 0 00-.406.145 1.67 1.67 0 00-.415.377c-.133.163-.245.379-.336.647a3.493 3.493 0 00-.164.957c-.017.37.001.734.056 1.091s.175.705.361 1.043c.186.338.412.626.68.864.266.238.534.39.801.457.268.067.525.06.772-.021.246-.08.478-.24.696-.478a2.6 2.6 0 00.502-.798c.117-.294.185-.617.203-.97a5.548 5.548 0 00-.045-1.052c-.048-.35-.15-.634-.307-.853-.157-.22-.334-.369-.531-.448-.287-.116-.627-.067-1.02.146M32.28 61.589a34.206 34.206 0 01.006.166l-.093-.293M35.341 58.687c-.126.026-.262-.026-.409-.157-.098-.087-.24-.306-.424-.657-.185-.35-.353-.655-.506-.913a34.77 34.77 0 00-.488-.802 11.134 11.134 0 00-.423-.637 1.644 1.644 0 00-.236-.278c-.048-.037-.072-.011-.072.077-.001.09.058.258.176.506.118.249.275.504.471.765.195.261.392.471.591.63.199.158.402.27.61.338.207.067.417.102.628.107.212.004.42-.025.627-.086.207-.062.394-.137.56-.224.166-.088.303-.18.412-.276a.618.618 0 00.203-.313.767.767 0 00.017-.309c-.015-.093-.065-.15-.148-.167-.082-.018-.188.032-.316.149a2.367 2.367 0 00-.383.474c-.128.2-.234.462-.32.786a7.16 7.16 0 00-.19 1.134 21.5 21.5 0 00-.084 1.25c-.021.59.035 1.35.169 2.282M26.374 88.873c.399.023.891.015 1.477-.025M31.76 86.401c-.023-.124-.11-.215-.262-.274a1.123 1.123 0 00-.432-.051 1.716 1.716 0 00-.45.064c-.114.037-.237.129-.369.276a2.43 2.43 0 00-.368.582 3.84 3.84 0 00-.27.804c-.066.296-.1.618-.1.968s.055.692.167 1.027c.113.334.271.6.476.8.205.198.435.33.69.394.256.064.514.092.777.084.262-.009.51-.073.746-.194a1.6 1.6 0 00.602-.558c.166-.252.29-.546.372-.883.082-.337.129-.655.14-.953.013-.299-.008-.539-.061-.72a.814.814 0 00-.278-.428c-.19-.15-.571-.286-1.14-.409M35.07 90.572l-.125.124M37.442 86.296c.079-.192.016-.297-.188-.315a.717.717 0 00-.455.133 2.202 2.202 0 00-.415.347c-.121.13-.213.27-.275.42-.061.149-.094.304-.097.466-.004.161.023.312.08.452.056.14.154.247.294.322.14.075.299.113.478.113.258 0 .64-.231 1.147-.695" fill="none" stroke="#7ec636" stroke-width=".74763356" stroke-linecap="round" stroke-linejoin="round" stroke-miterlimit="10"/><path d="M38.297 86.37c-.058-.118-.118-.17-.18-.157-.043.01-.079.07-.105.178-.026.11-.048.384-.065.824-.017.44-.044 1.092-.082 1.954a47.443 47.443 0 00-.057 1.844c0 .555.047 1.073.141 1.555M26.64 114.537c.435.008.881.035 1.34.081M31.596 112.486c.09-.054.128-.138.112-.252a.32.32 0 00-.088-.19.682.682 0 00-.19-.127.923.923 0 00-.254-.078 1.12 1.12 0 00-.299-.004c-.107.012-.217.073-.33.183-.114.11-.221.269-.322.475a3.87 3.87 0 00-.368 1.493c-.012.283.001.564.04.844.04.28.12.55.24.808.118.259.266.468.442.626.176.16.365.253.565.282.2.029.41-.02.627-.146.217-.126.424-.31.62-.55.197-.242.34-.506.432-.793a3.014 3.014 0 00.003-1.815c-.096-.304-.201-.538-.315-.7-.114-.164-.225-.27-.334-.317-.158-.07-.337-.06-.537.03M34.333 115.833c.007.072.005.102-.003.09l-.09-.122M36.042 111.107c.03.222.026.489-.014.8a6.33 6.33 0 00-.055.845c.002.254.015.433.037.536a.51.51 0 00.138.26c.07.07.155.113.252.131.098.018.203.024.317.017.113-.005.235-.026.364-.062.187-.051.567-.147 1.14-.287" fill="none" stroke="#7ec636" stroke-width=".74763356" stroke-linecap="round" stroke-linejoin="round" stroke-miterlimit="10"/><path d="M37.546 112.604c-.029.33-.032.811-.01 1.444.02.586.072 1.5.156 2.74" fill="none" stroke="#7ec636" stroke-width=".74763356" stroke-linecap="round" stroke-linejoin="round" stroke-miterlimit="10"/><path d="M93.74 58.74a2.434 2.434 0 00-.047-.495 10.448 10.448 0 00-.234-.961c-.119-.423-.21-.758-.273-1.006a70.86 70.86 0 00-.2-.762c-.07-.26-.19-.665-.361-1.212-.171-.548-.31-.962-.419-1.24a5.284 5.284 0 00-.37-.773 6.884 6.884 0 00-.461-.687c-.17-.223-.354-.466-.552-.732-.199-.265-.4-.528-.605-.79a9.948 9.948 0 00-.616-.719 35.998 35.998 0 00-1.326-1.316 70.332 70.332 0 00-.709-.658 26.94 26.94 0 00-1.112-.94 21.27 21.27 0 01-1.132-.97l-.736-.698a9.653 9.653 0 00-.741-.635c-.251-.194-.515-.38-.79-.56-.276-.179-.553-.377-.832-.593a46.053 46.053 0 01-.832-.664 23.963 23.963 0 00-1.603-1.202c-.261-.18-.517-.365-.768-.556-.25-.191-.636-.548-1.156-1.07-.52-.522-.904-.908-1.153-1.16a7.032 7.032 0 01-.667-.774 28.156 28.156 0 01-1.103-1.62c-.167-.265-.322-.54-.467-.825a6.179 6.179 0 01-.393-1.017 11.211 11.211 0 01-.452-2.47c-.031-.442-.05-.817-.054-1.126-.005-.309.006-.714.032-1.216.027-.501.077-.95.149-1.344.072-.395.166-.8.281-1.212.115-.413.252-.837.409-1.273.157-.436.33-.851.518-1.246l.573-1.196a8.214 8.214 0 011.272-1.947c.235-.266.477-.531.725-.794a25.4 25.4 0 01.765-.775c.261-.254.528-.488.8-.703.271-.214.561-.443.87-.685.308-.241.623-.498.945-.768.321-.27.646-.534.972-.789.327-.255.657-.499.991-.73.335-.23.661-.478.98-.742.32-.264.645-.55.975-.856.33-.306.658-.594.982-.864a15.768 15.768 0 001.877-1.84c.316-.362.622-.7.92-1.016.296-.315.578-.642.845-.981.266-.34.522-.687.767-1.04l.695-1.004a14.579 14.579 0 001.14-1.972c.154-.323.296-.642.427-.958.132-.316.251-.635.36-.957.108-.323.194-.61.257-.864s.104-.476.122-.666c.027-.28.018-.633-.028-1.06" fill="none" stroke="#007aff" stroke-width="2.02035606" stroke-linecap="round" stroke-linejoin="round" stroke-miterlimit="10"/><path d="M71.973 1.655c-.006.114.01.281.048.503.038.221.117.547.238.975.12.429.212.77.277 1.02a34.575 34.575 0 00.57 2.004c.172.557.314.976.423 1.26.11.284.235.545.375.784.14.238.297.47.469.697.172.226.359.473.56.742.202.27.406.537.614.802.207.266.416.509.625.73a36.19 36.19 0 001.345 1.335c.24.227.48.45.72.669.24.22.616.537 1.129.954.513.417.896.745 1.149.984l.747.709c.246.233.497.448.752.645.255.196.522.386.802.567.28.182.56.383.843.603.283.22.564.444.845.673a24.215 24.215 0 001.627 1.22c.265.183.525.371.78.565.254.194.645.556 1.172 1.086l1.17 1.176c.253.255.479.517.678.787a28.932 28.932 0 011.119 1.644c.169.27.327.549.474.838.146.29.28.634.399 1.032a11.328 11.328 0 01.458 2.507c.031.448.05.829.055 1.142.005.314-.006.725-.033 1.234-.028.51-.078.964-.151 1.365-.073.4-.168.81-.285 1.23-.117.419-.256.85-.416 1.292-.16.442-.335.864-.526 1.264l-.58 1.214a8.331 8.331 0 01-1.292 1.976c-.239.27-.484.539-.736.805-.252.267-.51.529-.776.787s-.536.495-.812.713c-.276.218-.57.45-.883.695-.313.246-.632.506-.959.78-.327.275-.656.542-.987.8-.332.26-.667.507-1.006.741-.34.235-.671.486-.995.754-.324.268-.654.557-.99.868-.335.311-.667.603-.996.877a16.111 16.111 0 00-1.905 1.868c-.32.367-.632.71-.933 1.03-.302.32-.588.652-.858.997-.27.344-.53.696-.779 1.055l-.705 1.018a14.752 14.752 0 00-1.157 2.001 21.1 21.1 0 00-.434.973c-.133.32-.255.644-.365.971-.11.328-.197.62-.261.877a4.754 4.754 0 00-.124.676" fill="none" stroke="#007aff" stroke-width="2.0509014" stroke-linecap="round" stroke-linejoin="round" stroke-miterlimit="10"/><path d="M94.38 115.8a2.433 2.433 0 00-.047-.495 10.454 10.454 0 00-.234-.961c-.119-.423-.21-.758-.273-1.005a70.86 70.86 0 00-.2-.763c-.07-.26-.19-.665-.361-1.212-.171-.548-.31-.962-.419-1.24a5.287 5.287 0 00-.37-.773 6.876 6.876 0 00-.461-.687c-.17-.222-.354-.466-.552-.731-.199-.266-.4-.529-.605-.79a9.948 9.948 0 00-.616-.72 36.207 36.207 0 00-1.326-1.316 70.332 70.332 0 00-.709-.658 27.04 27.04 0 00-1.112-.94 21.31 21.31 0 01-1.132-.97l-.737-.698a9.64 9.64 0 00-.74-.635c-.252-.194-.515-.38-.79-.56a11.99 11.99 0 01-.832-.593 46.95 46.95 0 01-.832-.663 23.808 23.808 0 00-1.603-1.203c-.261-.18-.517-.365-.768-.556-.25-.191-.636-.547-1.156-1.07-.52-.521-.904-.908-1.153-1.159a7.055 7.055 0 01-.667-.775 28.517 28.517 0 01-1.103-1.62c-.167-.265-.322-.54-.467-.825a6.176 6.176 0 01-.393-1.017 11.193 11.193 0 01-.452-2.47c-.031-.442-.05-.817-.054-1.126-.005-.308.006-.714.032-1.216.027-.501.077-.95.149-1.344.072-.395.166-.799.28-1.212.116-.413.252-.837.41-1.273.157-.436.33-.851.518-1.246l.573-1.196a8.205 8.205 0 011.272-1.947c.235-.266.477-.53.725-.794.248-.262.503-.52.765-.774.261-.255.528-.489.8-.704.271-.214.561-.443.87-.685.308-.241.623-.498.945-.768.321-.27.646-.534.972-.789.326-.255.657-.498.991-.73.335-.23.661-.478.98-.742.32-.264.644-.55.975-.856.33-.306.658-.594.982-.863a15.814 15.814 0 001.877-1.842c.316-.36.622-.699.92-1.014.296-.316.578-.643.845-.982.266-.34.522-.686.767-1.04l.695-1.004a14.58 14.58 0 001.14-1.972c.154-.323.296-.642.427-.958.131-.316.251-.635.36-.957.108-.323.194-.61.257-.864s.104-.476.122-.666c.027-.28.018-.633-.029-1.06" fill="none" stroke="#007aff" stroke-width="2.02035606" stroke-linecap="round" stroke-linejoin="round" stroke-miterlimit="10"/><path d="M72.613 58.715c-.006.114.01.281.048.503.038.221.117.547.238.975.12.43.212.77.277 1.02.064.252.132.51.202.774.071.265.193.675.367 1.23.173.557.315.976.424 1.26.11.284.235.545.375.784s.297.47.469.697c.172.226.359.473.56.742.202.27.406.537.614.802.207.266.415.51.625.73a36.198 36.198 0 001.345 1.335c.24.227.48.45.72.669.24.22.616.537 1.129.954.513.417.896.745 1.148.984l.748.709c.246.233.497.448.752.645.255.196.522.386.802.567.28.182.56.383.843.603.283.22.564.444.845.673a24.215 24.215 0 001.627 1.22c.265.183.525.371.78.565.254.194.645.556 1.172 1.086l1.17 1.176c.253.255.479.517.678.787a28.825 28.825 0 011.119 1.644c.169.27.327.549.473.838.147.29.28.634.4 1.032a11.311 11.311 0 01.458 2.507c.031.448.05.83.055 1.142.005.314-.006.725-.033 1.234-.028.51-.078.964-.151 1.365-.073.4-.168.81-.285 1.23-.117.419-.256.85-.416 1.292-.16.442-.335.864-.526 1.264l-.58 1.214a8.324 8.324 0 01-1.292 1.976c-.239.27-.484.539-.736.805-.252.267-.51.529-.776.787s-.536.495-.812.713c-.276.218-.57.45-.883.695-.313.246-.632.506-.96.78-.326.275-.655.542-.986.8-.332.26-.667.507-1.006.741-.34.235-.671.486-.995.754-.324.268-.654.557-.99.868-.335.311-.667.603-.996.877a16.162 16.162 0 00-1.906 1.868c-.32.367-.63.71-.932 1.03-.302.32-.588.652-.858.997-.27.344-.53.696-.78 1.055l-.704 1.018a14.785 14.785 0 00-1.157 2.001c-.156.328-.3.652-.434.973-.134.32-.255.644-.365.971-.11.328-.197.62-.261.877a4.77 4.77 0 00-.124.676" fill="none" stroke="#007aff" stroke-width="2.0509014" stroke-linecap="round" stroke-linejoin="round" stroke-miterlimit="10"/><path d="M78.73 1.69c-.038.25-.05.57-.039.957.012.388.027.916.044 1.585.026 1.019.077 1.922.154 2.708M80.988 5.956l-.045.121M84.648 2.43c-.217-.115-.408-.176-.573-.181a.642.642 0 00-.314.068 1.237 1.237 0 00-.288.206c-.095.089-.207.256-.337.502-.13.247-.216.501-.26.765a3.607 3.607 0 00-.026.878c.026.322.11.621.255.897.144.275.324.483.54.624.214.14.44.205.678.194.237-.01.455-.122.653-.336.199-.213.359-.489.48-.827.123-.338.207-.676.253-1.014a5.4 5.4 0 00.058-.886 1.495 1.495 0 00-.139-.631c-.123-.243-.391-.427-.805-.552M79.766 56.678a2.668 2.668 0 00-.369-.33 1.371 1.371 0 00-.21-.11 1.08 1.08 0 00-.29-.074 1.776 1.776 0 00-.355-.006.914.914 0 00-.403.144 1.66 1.66 0 00-.413.374 2.069 2.069 0 00-.336.643 3.476 3.476 0 00-.163.952c-.018.369 0 .73.055 1.086.054.354.173.7.358 1.037.184.336.409.623.674.86.265.237.531.388.797.455.267.067.522.06.767-.02.246-.08.477-.239.693-.475.217-.236.384-.5.5-.793.117-.292.185-.613.203-.964.019-.35.004-.7-.043-1.047-.048-.348-.15-.63-.305-.849-.156-.218-.332-.366-.528-.446-.285-.115-.623-.067-1.014.145M82.842 60.807l.007.169c0 .003 0 .001-.002-.003l-.093-.292M85.888 57.924c-.125.026-.26-.026-.406-.156-.098-.087-.239-.305-.422-.654-.183-.349-.35-.652-.502-.909a34.639 34.639 0 00-.485-.797 11.1 11.1 0 00-.42-.634 1.64 1.64 0 00-.234-.278c-.047-.036-.072-.01-.072.078s.057.256.175.503c.117.247.273.5.467.76.195.26.39.47.588.628.197.157.399.27.605.336.207.067.416.103.626.107.21.005.418-.023.623-.084.206-.062.392-.136.557-.223a2.07 2.07 0 00.41-.274.614.614 0 00.202-.31.762.762 0 00.018-.308c-.016-.093-.065-.148-.147-.166-.083-.018-.187.031-.315.148a2.36 2.36 0 00-.382.471 2.772 2.772 0 00-.318.781 7.131 7.131 0 00-.19 1.128c-.042.43-.07.844-.085 1.243-.022.587.033 1.343.166 2.27M77.182 113.457c.433.008.877.035 1.333.082M82.113 111.422c.09-.053.127-.137.112-.25a.319.319 0 00-.088-.189.683.683 0 00-.188-.127.92.92 0 00-.253-.078 1.102 1.102 0 00-.297-.004c-.107.012-.217.072-.33.182-.112.11-.22.267-.32.472a3.852 3.852 0 00-.367 1.484c-.012.281 0 .561.04.84.04.278.118.546.236.804.118.257.265.465.44.623.175.158.362.251.561.28.2.029.407-.02.624-.144.216-.125.422-.307.618-.547.195-.24.339-.503.43-.788a3 3 0 00.004-1.804c-.095-.303-.2-.536-.312-.698-.114-.162-.224-.267-.332-.315-.157-.07-.335-.06-.534.029M84.832 114.753c.006.072.005.102-.004.09l-.09-.121M86.535 110.055c.03.22.026.486-.014.795-.04.308-.058.589-.056.841.002.253.014.43.036.533a.505.505 0 00.138.258c.07.07.153.113.25.131.097.018.202.024.315.018.113-.006.234-.027.362-.062.186-.05.564-.145 1.135-.284" fill="none" stroke="#7ec636" stroke-width=".74326994" stroke-linecap="round" stroke-linejoin="round" stroke-miterlimit="10"/><path d="M88.03 111.545c-.029.328-.033.807-.012 1.436.02.583.071 1.491.153 2.725" fill="none" stroke="#7ec636" stroke-width=".74326994" stroke-linecap="round" stroke-linejoin="round" stroke-miterlimit="10"/><path d="M76.892 30.129c.797.022 1.425.069 1.886.14M81.959 27.908c-.026-.087-.113-.168-.262-.243a.988.988 0 00-.298-.097c-.101-.016-.2-.022-.3-.02-.099.002-.2.054-.304.154-.104.1-.204.255-.301.466-.097.21-.183.474-.257.791a6.662 6.662 0 00-.153 1.009 6.4 6.4 0 00.013 1.105c.037.381.107.677.21.888.103.21.183.345.24.405.055.06.156.12.3.182.144.06.35.07.617.028.267-.042.511-.174.733-.395.221-.22.404-.49.55-.811.145-.32.249-.642.311-.965.063-.323.092-.66.087-1.012a3.153 3.153 0 00-.152-.962c-.096-.29-.222-.51-.376-.663-.225-.22-.512-.283-.862-.187M84.23 31.583c-.106.17-.158.295-.157.375M85.815 29.049c-.173-.013-.271-.129-.296-.347a1.708 1.708 0 01-.004-.494c.022-.11.06-.219.112-.328.052-.108.111-.212.177-.31.065-.098.132-.184.201-.258a.66.66 0 01.203-.157.29.29 0 01.193-.023c.062.015.12.104.174.266.054.162.118.48.19.953.073.473.117.813.132 1.02.015.206.004.409-.035.608-.038.199-.101.402-.188.61a5 5 0 01-.325.636c-.13.216-.27.41-.419.58-.149.171-.283.286-.401.345-.12.059-.206.075-.26.05-.054-.026-.078-.104-.071-.233.006-.13.05-.26.13-.392a.992.992 0 01.277-.306.587.587 0 01.263-.117c.071-.007.155.066.25.218.096.151.184.305.264.46.081.155.182.279.302.37.12.093.258.148.413.164.155.017.32.003.493-.044.25-.066.58-.384.99-.953M77.675 87.955c.023.07.165.103.426.1a23.87 23.87 0 001.543-.077M82.172 84.219c-.013.18.008.514.064 1.004.034.302.07.724.11 1.266.057.81.18 1.64.37 2.489M84.424 88.507l-.036.218M87.502 83.918c-.206.076-.494.076-.862 0a3.872 3.872 0 00-.647-.085c-.19-.006-.308.018-.351.071-.043.054-.06.18-.048.376.012.197.1.546.265 1.046s.27.785.316.854c.045.069.102.046.171-.066a.942.942 0 01.253-.276c.1-.07.202-.114.308-.13a.743.743 0 01.33.028.788.788 0 01.338.234c.112.122.218.288.319.5.1.21.172.444.216.702.044.257.054.435.028.534a.81.81 0 01-.191.32 1.436 1.436 0 01-.369.294 1.847 1.847 0 01-.525.189c-.303.065-.628.005-.976-.181" fill="none" stroke="#ff21b3" stroke-width=".74326994" stroke-linecap="round" stroke-linejoin="round" stroke-miterlimit="10"/></svg>