<svg xmlns="http://www.w3.org/2000/svg" width="250.305" height="38.004"><path d="M1.79 3.085c.405.335 1.102.709 2.09 1.121.987.412 1.744.737 2.268.975.525.237 1.923.84 4.194 1.807 2.272.968 4.227 1.803 5.864 2.507 1.638.703 2.977 1.266 4.018 1.688 1.04.423 1.814.743 2.322.962.508.219 1.59.662 3.249 1.33 1.658.667 2.762 1.121 3.311 1.363.55.242 1.326.616 2.331 1.12 1.473.74 3.495 1.653 6.066 2.74M3.27 36.904a16.594 16.594 0 001.908-1.12c.616-.42 1.232-.806 1.846-1.158a62.624 62.624 0 012.04-1.115c.746-.392 1.84-.93 3.283-1.613a79.524 79.524 0 004.168-2.124 233.471 233.471 0 013.144-1.7c.76-.401 1.456-.758 2.088-1.07.633-.313 1.189-.6 1.669-.863s1.162-.592 2.048-.988c.885-.397 2.268-.984 4.148-1.764s3.102-1.292 3.667-1.538c.565-.245 1.356-.532 2.373-.862 1.017-.33 1.743-.591 2.178-.784M1.124 4.475c-.066-.25.004-.286.21-.107.152.132.353.443.603.934.25.49.496 1.044.74 1.663.243.62.421 1.095.533 1.427.112.332.232.805.36 1.417.128.613.288 1.669.479 3.168.191 1.5.313 2.574.366 3.223.053.649.14 1.538.265 2.668.125 1.13.205 2.114.243 2.952.037.838.04 1.56.007 2.164-.032.605-.04 1.065-.024 1.38a8.51 8.51 0 01-.008.981c-.022.34-.125 1.069-.308 2.187a43.562 43.562 0 01-.504 2.659c-.22.948-.508 2.632-.862 5.054" fill="none" stroke="#d20000" stroke-width="2.1999917499999997" stroke-linecap="round" stroke-linejoin="round" stroke-miterlimit="10"/><path d="M95.819 33.081c.636-.1 2.16-.562 4.573-1.384 2.413-.822 4.31-1.473 5.69-1.952 1.38-.48 2.768-.982 4.165-1.507a98.008 98.008 0 014.206-1.474 339.92 339.92 0 014.002-1.276c1.26-.392 2.53-.793 3.805-1.201 1.888-.604 3.976-1.512 6.264-2.722M129.275 19.388c-.461-.135-1.049-.369-1.763-.7-.715-.332-1.49-.683-2.326-1.054-.837-.37-1.812-.81-2.926-1.32a77.801 77.801 0 01-3.677-1.815c-1.337-.7-2.69-1.397-4.057-2.092a147.697 147.697 0 00-4.063-1.989 84.967 84.967 0 00-3.801-1.682 124.054 124.054 0 00-3.338-1.322c-1.033-.39-2.05-.768-3.051-1.132a44.504 44.504 0 01-4.708-2.056M94.67 30.473a14.87 14.87 0 01.482-1.7c.135-.39.28-.836.433-1.334.153-.499.368-1.3.645-2.403.276-1.102.464-2.29.562-3.563.098-1.273.107-2.554.025-3.844a51.89 51.89 0 00-.39-3.874c-.263-1.898-.5-4.367-.712-7.409" fill="none" stroke="#7ec636" stroke-width="2.14108288" stroke-linecap="round" stroke-linejoin="round" stroke-miterlimit="10"/><path d="M54.692 18.039c-.145.118-.183.205-.115.26.049.04.341.064.878.073a34.325 34.325 0 002.854-.069 204.478 204.478 0 014.487-.213c.823-.03 1.659-.049 2.509-.057 1.234-.013 3.243-.03 6.029-.048" fill="none" stroke="#fcfcfc" stroke-width="2.2843550699999997" stroke-linecap="round" stroke-linejoin="round" stroke-miterlimit="10"/><path d="M63.53 10.94c.008.357.042.771.102 1.245.06.473.117 1.127.17 1.961.052.835.088 1.805.108 2.909.029 1.601.092 4.321.188 8.16" fill="none" stroke="#fcfcfc" stroke-width="2.2843550699999997" stroke-linecap="round" stroke-linejoin="round" stroke-miterlimit="10"/><path d="M149.628 18.779c8.706-.07 14.286-.026 16.74.134 2.504.162 5.759.43 9.764.802M173.735 13.158c.172-.051.614.039 1.328.27.429.14 1.052.37 1.87.692.817.321 1.701.735 2.65 1.24 1.392.742 3.11 1.918 5.156 3.528M184.93 20.565c-.83.565-1.583 1.05-2.258 1.454-.456.273-1.132.627-2.026 1.06-1.3.63-3.364 1.566-6.19 2.805" fill="none" stroke="#fcfcfc" stroke-width="1.32290413" stroke-linecap="round" stroke-linejoin="round" stroke-miterlimit="10"/><path d="M209.439 1.334c-.066-.25.003-.286.209-.108.153.133.354.444.603.934.25.49.496 1.045.74 1.664.244.62.422 1.095.534 1.427.112.332.231.804.36 1.417.127.612.287 1.668.479 3.168.191 1.5.313 2.573.366 3.222.052.65.14 1.539.265 2.669.124 1.13.205 2.114.242 2.951.038.838.04 1.56.008 2.165s-.04 1.064-.024 1.379a8.51 8.51 0 01-.008.981c-.022.34-.125 1.069-.309 2.187a43.562 43.562 0 01-.504 2.659c-.22.948-.507 2.633-.862 5.054" fill="none" stroke="#d20000" stroke-width="2.1999917499999997" stroke-linecap="round" stroke-linejoin="round" stroke-miterlimit="10"/><path d="M212.259 33.152c.7-.111 2.38-.62 5.04-1.526 2.658-.906 4.748-1.624 6.269-2.152a192.18 192.18 0 004.59-1.662c1.539-.579 3.084-1.12 4.635-1.625 1.55-.504 3.02-.973 4.41-1.406 1.389-.433 2.787-.874 4.193-1.325 2.08-.666 4.38-1.666 6.902-3" fill="none" stroke="#ffd300" stroke-width="2.35926388" stroke-linecap="round" stroke-linejoin="round" stroke-miterlimit="10"/><path d="M249.125 18.057c-.508-.15-1.156-.407-1.943-.772-.787-.365-1.642-.752-2.564-1.16a299.33 299.33 0 01-3.223-1.455 85.712 85.712 0 01-4.053-1.999 419.452 419.452 0 00-4.471-2.305c-1.507-.766-3-1.496-4.478-2.19a93.707 93.707 0 00-4.19-1.854 137.255 137.255 0 00-3.678-1.456c-1.138-.43-2.259-.846-3.362-1.248a49.05 49.05 0 01-5.189-2.264" fill="none" stroke="#7ec636" stroke-width="2.35926388" stroke-linecap="round" stroke-linejoin="round" stroke-miterlimit="10"/><path d="M9.75 16.109v-.117h0v.811c0 .491-.012 1.254-.034 2.288a198.57 198.57 0 00-.04 2.303 6.155 6.155 0 00.344 2.129M11.851 23.119c.037.575.001 1.189-.107 1.841M15.507 17.972c-.02-.117-.106-.262-.257-.434a.866.866 0 00-.254-.217.606.606 0 00-.235-.056.42.42 0 00-.268.104c-.096.073-.2.195-.315.366-.115.171-.22.386-.315.644a4.127 4.127 0 00-.209.854c-.044.312-.063.65-.057 1.017.007.366.064.726.172 1.08.108.353.257.661.446.923s.403.45.64.564c.239.114.496.138.77.072.276-.066.542-.264.8-.594.257-.33.463-.711.618-1.142.154-.431.248-.827.282-1.187.033-.36.012-.682-.066-.966a2.105 2.105 0 00-.315-.698c-.2-.272-.44-.477-.721-.615M18.432 22.92l-.268 1.28M21.873 19.178a.298.298 0 01-.175-.154 1.198 1.198 0 01-.11-.35 3.381 3.381 0 01-.047-.563c-.003-.226 0-.408.01-.548a1.41 1.41 0 01.245-.706.602.602 0 01.188-.172.294.294 0 01.203-.032c.069.013.14.078.213.195.074.116.147.268.22.454.073.186.134.393.183.62.05.229.082.47.098.722.015.253.007.504-.026.752-.033.249-.1.504-.201.766s-.22.517-.355.766c-.136.25-.277.47-.423.663a2.15 2.15 0 01-.414.433.874.874 0 01-.325.169c-.086.016-.142-.01-.168-.078a.937.937 0 01-.037-.316.89.89 0 01.105-.414.69.69 0 01.241-.282c.091-.054.176-.062.255-.022.079.04.155.15.23.332.074.182.153.362.237.54.084.178.183.324.296.436a.79.79 0 00.37.216c.132.032.272.043.418.033a.856.856 0 00.414-.143c.186-.121.56-.578 1.124-1.37M101.041 15.48l-.019-.128v.068l-.001 1.151a73.864 73.864 0 01-.045 2.96c-.022.618 0 1.482.067 2.596M102.623 21.943l-.128 1.187M107.233 18.62c-.059.057-.118.053-.179-.01a.52.52 0 01-.101-.247 4.05 4.05 0 01-.042-.663c-.003-.323.022-.545.075-.668.052-.123.104-.223.154-.302.05-.08.119-.156.204-.23a.529.529 0 01.251-.133.318.318 0 01.233.05c.074.047.136.157.185.329.05.172.082.41.097.713.016.303.016.624 0 .965-.015.34-.071.689-.167 1.044-.096.355-.22.717-.373 1.088-.153.37-.302.701-.45.993a3.363 3.363 0 01-.443.69c-.148.17-.285.28-.411.33a.573.573 0 01-.354.038.484.484 0 01-.286-.22 1.372 1.372 0 01-.18-.398 1.714 1.714 0 01-.067-.401.556.556 0 01.041-.271c.032-.058.1-.076.204-.053.104.022.228.104.37.246.143.141.308.285.497.432.188.146.393.27.615.373.221.102.434.175.638.22.203.046.388.07.555.076.243.006.485-.106.725-.338M110.197 22.42l.104 1.314M114.824 18.389a.71.71 0 00.195-.404.907.907 0 00-.004-.23.434.434 0 00-.079-.18.773.773 0 00-.164-.164.715.715 0 00-.242-.115 1.02 1.02 0 00-.311-.033.645.645 0 00-.355.143c-.124.09-.24.216-.35.375a2.64 2.64 0 00-.291.577 5.593 5.593 0 00-.213.716 5.408 5.408 0 00-.116.872c-.02.33-.017.685.01 1.066.025.382.094.727.205 1.038.11.31.245.554.402.73.157.178.343.293.558.346.214.052.447.05.698-.008.252-.057.496-.197.734-.419.238-.222.448-.508.63-.858.18-.35.313-.716.397-1.1.084-.383.134-.734.15-1.051a3.894 3.894 0 00-.058-.91 1.883 1.883 0 00-.315-.762 1.384 1.384 0 00-.523-.463 1.443 1.443 0 00-.575-.146c-.274-.009-.566.185-.875.58M218.022 14.075a3.388 3.388 0 00-.078.716c-.01.319-.015.837-.015 1.554 0 1.056-.067 2.355-.2 3.896M219.965 20.968c.015.758-.029 1.541-.132 2.35M224.643 14.446c.018 2.399-.003 4.16-.063 5.285M226.412 19.88c.083.204.126.426.128.666.002.229-.08.86-.25 1.894M230.914 16.916c-.12-.008-.2-.1-.24-.28a2.086 2.086 0 01-.041-.708c.013-.123.047-.255.1-.397.054-.142.12-.28.199-.416.079-.137.164-.24.255-.31.092-.069.18-.098.266-.087.085.01.166.08.24.206.076.127.147.278.213.455a3.793 3.793 0 01.264 1.288c.013.285-.009.616-.063.993a5.741 5.741 0 01-.796 2.142 7.61 7.61 0 01-.588.819c-.2.24-.394.42-.582.542a1.32 1.32 0 01-.523.215.536.536 0 01-.409-.088.69.69 0 01-.24-.38 2.234 2.234 0 01-.087-.514c-.008-.17-.006-.299.007-.386.014-.086.047-.134.1-.143.055-.008.184.163.39.514.204.35.396.634.576.85.18.218.385.412.616.584.23.172.481.289.753.351.27.062.545.07.822.024a1.84 1.84 0 00.773-.322c.237-.168.432-.344.584-.528.226-.271.377-.615.455-1.03" fill="none" stroke="#fcfcfc" stroke-width=".7556335299999999" stroke-linecap="round" stroke-linejoin="round" stroke-miterlimit="10"/></svg>