<svg xmlns="http://www.w3.org/2000/svg" width="250.305" height="38.004"><path d="M1.79 3.085c.405.335 1.102.709 2.09 1.121.987.412 1.744.737 2.268.975.525.237 1.923.84 4.194 1.807 2.272.968 4.227 1.803 5.864 2.507 1.638.703 2.977 1.266 4.018 1.688 1.04.423 1.814.743 2.322.962.508.219 1.59.662 3.249 1.33 1.658.667 2.762 1.121 3.311 1.363.55.242 1.326.616 2.331 1.12 1.473.74 3.495 1.653 6.066 2.74M3.27 36.904a16.594 16.594 0 001.908-1.12c.616-.42 1.232-.806 1.846-1.158a62.624 62.624 0 012.04-1.115c.746-.392 1.84-.93 3.283-1.613a79.524 79.524 0 004.168-2.124 233.471 233.471 0 013.144-1.7c.76-.401 1.456-.758 2.088-1.07.633-.313 1.189-.6 1.669-.863s1.162-.592 2.048-.988c.885-.397 2.268-.984 4.148-1.764s3.102-1.292 3.667-1.538c.565-.245 1.356-.532 2.373-.862 1.017-.33 1.743-.591 2.178-.784M1.124 4.475c-.066-.25.004-.286.21-.107.152.132.353.443.603.934.25.49.496 1.044.74 1.663.243.62.421 1.095.533 1.427.112.332.232.805.36 1.417.128.613.288 1.669.479 3.168.191 1.5.313 2.574.366 3.223.053.649.14 1.538.265 2.668.125 1.13.205 2.114.243 2.952.037.838.04 1.56.007 2.164-.032.605-.04 1.065-.024 1.38a8.51 8.51 0 01-.008.981c-.022.34-.125 1.069-.308 2.187a43.562 43.562 0 01-.504 2.659c-.22.948-.508 2.632-.862 5.054" fill="none" stroke="#d20000" stroke-width="2.1999917499999997" stroke-linecap="round" stroke-linejoin="round" stroke-miterlimit="10"/><path d="M95.819 33.081c.636-.1 2.16-.562 4.573-1.384 2.413-.822 4.31-1.473 5.69-1.952 1.38-.48 2.768-.982 4.165-1.507a98.008 98.008 0 014.206-1.474 339.92 339.92 0 014.002-1.276c1.26-.392 2.53-.793 3.805-1.201 1.888-.604 3.976-1.512 6.264-2.722M129.275 19.388c-.461-.135-1.049-.369-1.763-.7-.715-.332-1.49-.683-2.326-1.054-.837-.37-1.812-.81-2.926-1.32a77.801 77.801 0 01-3.677-1.815c-1.337-.7-2.69-1.397-4.057-2.092a147.697 147.697 0 00-4.063-1.989 84.967 84.967 0 00-3.801-1.682 124.054 124.054 0 00-3.339-1.322c-1.032-.39-2.049-.768-3.05-1.132a44.504 44.504 0 01-4.708-2.056M94.67 30.473a14.87 14.87 0 01.482-1.7c.135-.39.28-.836.433-1.334.153-.499.368-1.3.645-2.403.276-1.102.464-2.29.562-3.563.098-1.273.107-2.554.025-3.844a51.89 51.89 0 00-.39-3.874c-.263-1.898-.5-4.367-.712-7.409" fill="none" stroke="#7ec636" stroke-width="2.14108288" stroke-linecap="round" stroke-linejoin="round" stroke-miterlimit="10"/><path d="M54.692 18.039c-.145.118-.183.205-.115.26.049.04.341.064.878.073a34.325 34.325 0 002.854-.069 204.478 204.478 0 014.487-.213c.823-.03 1.659-.049 2.509-.057 1.234-.013 3.243-.03 6.029-.048" fill="none" stroke="#fcfcfc" stroke-width="2.2843550699999997" stroke-linecap="round" stroke-linejoin="round" stroke-miterlimit="10"/><path d="M63.53 10.94c.008.357.042.771.102 1.245.06.473.117 1.127.17 1.961.052.835.088 1.805.108 2.909.029 1.601.092 4.321.188 8.16" fill="none" stroke="#fcfcfc" stroke-width="2.2843550699999997" stroke-linecap="round" stroke-linejoin="round" stroke-miterlimit="10"/><path d="M149.628 18.779c8.706-.07 14.286-.026 16.74.134 2.504.162 5.759.43 9.764.802M173.735 13.158c.172-.051.614.039 1.328.27.429.14 1.052.37 1.87.692.817.321 1.701.735 2.65 1.24 1.392.742 3.11 1.918 5.156 3.528M184.93 20.565c-.83.565-1.583 1.05-2.258 1.454-.456.273-1.132.627-2.026 1.06-1.3.63-3.364 1.566-6.19 2.805" fill="none" stroke="#fcfcfc" stroke-width="1.32290413" stroke-linecap="round" stroke-linejoin="round" stroke-miterlimit="10"/><path d="M209.439 1.334c-.066-.25.003-.286.209-.108.153.133.354.444.603.934.25.49.496 1.045.74 1.664.244.62.422 1.095.534 1.427.111.332.231.804.36 1.417.127.612.287 1.668.479 3.168.191 1.5.313 2.573.366 3.222.052.65.14 1.539.265 2.669.124 1.13.205 2.114.242 2.951.038.838.04 1.56.008 2.165-.033.605-.04 1.064-.024 1.379a8.51 8.51 0 01-.008.981c-.022.34-.125 1.069-.309 2.187a43.562 43.562 0 01-.504 2.659c-.22.948-.507 2.633-.862 5.054" fill="none" stroke="#d20000" stroke-width="2.1999917499999997" stroke-linecap="round" stroke-linejoin="round" stroke-miterlimit="10"/><path d="M212.259 33.152c.7-.111 2.38-.62 5.04-1.526 2.658-.906 4.748-1.624 6.269-2.152a192.18 192.18 0 004.59-1.662c1.539-.579 3.084-1.12 4.635-1.625 1.55-.504 3.02-.973 4.41-1.406 1.389-.433 2.787-.874 4.193-1.325 2.08-.666 4.38-1.666 6.902-3" fill="none" stroke="#ffd300" stroke-width="2.35926388" stroke-linecap="round" stroke-linejoin="round" stroke-miterlimit="10"/><path d="M249.125 18.057c-.508-.15-1.156-.407-1.943-.772-.787-.365-1.642-.752-2.564-1.16a299.33 299.33 0 01-3.223-1.455 85.712 85.712 0 01-4.053-1.999 419.452 419.452 0 00-4.471-2.305c-1.507-.766-3-1.496-4.478-2.19a93.707 93.707 0 00-4.19-1.854 137.255 137.255 0 00-3.678-1.456c-1.138-.43-2.259-.846-3.362-1.248a49.05 49.05 0 01-5.189-2.264" fill="none" stroke="#7ec636" stroke-width="2.35926388" stroke-linecap="round" stroke-linejoin="round" stroke-miterlimit="10"/></svg>