<svg xmlns="http://www.w3.org/2000/svg" width="128.915" height="117.548"><path d="M38.64 59.457a2.369 2.369 0 00-.05-.485 10.237 10.237 0 00-.239-.943c-.12-.414-.212-.742-.277-.985a69.98 69.98 0 00-.203-.747c-.07-.256-.192-.652-.365-1.189a20.796 20.796 0 00-.421-1.215 5.198 5.198 0 00-.37-.755 6.78 6.78 0 00-.46-.671c-.168-.217-.35-.455-.548-.714a48.097 48.097 0 00-.6-.771 9.761 9.761 0 00-.612-.701 35.276 35.276 0 00-1.313-1.282c-.235-.217-.47-.43-.703-.64-.233-.211-.6-.516-1.1-.915-.5-.4-.874-.714-1.12-.943l-.73-.68a9.468 9.468 0 00-.733-.618c-.249-.188-.51-.369-.782-.542a11.807 11.807 0 01-.821-.577c-.276-.21-.55-.425-.823-.644a23.502 23.502 0 00-1.585-1.168 18.973 18.973 0 01-.76-.54c-.248-.185-.63-.532-1.145-1.04l-1.142-1.13a6.903 6.903 0 01-.662-.756 27.934 27.934 0 01-1.097-1.582c-.166-.259-.322-.528-.466-.807a6.076 6.076 0 01-.395-.996 11.017 11.017 0 01-.465-2.423 21.028 21.028 0 01-.063-1.105c-.007-.303 0-.701.022-1.194.022-.494.067-.934.135-1.323.067-.388.156-.786.265-1.193.11-.406.24-.824.391-1.254.151-.43.318-.839.499-1.228.181-.39.365-.782.552-1.18a8.053 8.053 0 011.234-1.923c.228-.264.464-.526.705-.786.242-.26.49-.516.745-.768s.515-.485.78-.698l.848-.68c.301-.24.609-.495.923-.763.314-.269.63-.53.948-.783.319-.254.641-.496.968-.726.326-.23.645-.476.957-.738.31-.262.628-.545.95-.848.322-.304.641-.59.957-.857a15.504 15.504 0 001.83-1.825c.306-.358.604-.692.893-1.005.29-.312.563-.636.822-.972.26-.335.508-.678.745-1.028l.674-.992a14.366 14.366 0 001.104-1.947c.148-.318.285-.633.412-.945.126-.311.24-.625.345-.943.103-.318.185-.601.245-.851s.098-.468.114-.655a5.288 5.288 0 00-.037-1.042" fill="none" stroke="#007aff" stroke-width="1.9854471" stroke-linecap="round" stroke-linejoin="round" stroke-miterlimit="10"/><path d="M16.77 3.56c-.005.111.013.275.052.493.04.217.12.536.242.956.122.42.215.754.28 1a34.003 34.003 0 00.576 1.964c.176.545.319.956.429 1.234.11.278.235.533.375.767.14.233.295.46.466.68.171.221.357.463.557.725.2.263.403.524.61.783.205.26.412.496.62.712a30.052 30.052 0 001.333 1.3c.238.22.476.438.713.65.237.214.609.523 1.117.929.508.405.886.724 1.137.957l.74.69c.244.227.492.436.744.627.252.19.517.375.793.55.276.177.554.372.834.586.28.213.557.431.835.654a23.824 23.824 0 001.609 1.185c.262.177.519.36.77.548.252.188.64.54 1.162 1.057l1.16 1.146c.25.248.474.504.671.767.198.263.391.53.579.803.188.272.366.54.535.803.168.263.326.536.472.819.147.283.28.62.401 1.01a11.125 11.125 0 01.472 2.46c.035.44.056.813.064 1.121.007.308 0 .712-.023 1.213-.022.5-.068.948-.136 1.342-.069.394-.159.797-.27 1.21-.112.413-.244.837-.397 1.273-.153.436-.322.852-.506 1.247l-.56 1.197a8.175 8.175 0 01-1.252 1.952 31.54 31.54 0 01-.717.798c-.245.264-.497.523-.756.779-.258.256-.522.492-.791.708l-.862.69c-.305.244-.617.502-.935.775-.32.272-.64.537-.963.794-.324.258-.651.503-.983.737-.331.233-.655.482-.97.748-.317.266-.638.554-.965.862-.327.308-.651.598-.972.87a15.775 15.775 0 00-1.856 1.851c-.312.363-.614.703-.908 1.02-.293.317-.571.646-.834.986-.263.34-.515.689-.756 1.044l-.684 1.006a14.515 14.515 0 00-1.12 1.976c-.15.323-.29.643-.418.959a14.64 14.64 0 00-.35.958c-.106.322-.189.61-.25.863-.06.254-.099.476-.116.665" fill="none" stroke="#007aff" stroke-width="2.0145379" stroke-linecap="round" stroke-linejoin="round" stroke-miterlimit="10"/><path d="M39.753 115.51a2.365 2.365 0 00-.051-.486 10.237 10.237 0 00-.238-.942 45.78 45.78 0 01-.277-.985 71.295 71.295 0 00-.203-.748 33.57 33.57 0 00-.365-1.188 20.734 20.734 0 00-.422-1.215 5.191 5.191 0 00-.37-.755 6.76 6.76 0 00-.459-.671l-.548-.714a48.097 48.097 0 00-.6-.772 9.795 9.795 0 00-.612-.7 35.498 35.498 0 00-1.313-1.282c-.236-.217-.47-.431-.703-.641-.234-.21-.6-.515-1.1-.914-.501-.4-.875-.714-1.121-.943l-.73-.68a9.47 9.47 0 00-.733-.618 11.874 11.874 0 00-.781-.543 11.765 11.765 0 01-.822-.576c-.275-.21-.55-.425-.823-.644a23.596 23.596 0 00-1.585-1.168 18.95 18.95 0 01-.76-.54c-.247-.185-.629-.532-1.144-1.04l-1.142-1.13a6.925 6.925 0 01-.663-.756 27.883 27.883 0 01-1.097-1.582 10.01 10.01 0 01-.465-.807 6.068 6.068 0 01-.395-.996 10.999 10.999 0 01-.465-2.423 20.949 20.949 0 01-.063-1.105c-.008-.303 0-.701.022-1.194.022-.494.067-.935.134-1.323.068-.388.156-.786.266-1.193.11-.406.24-.824.391-1.254.15-.43.317-.84.499-1.228.181-.39.365-.782.552-1.18a8.072 8.072 0 011.234-1.923c.228-.264.463-.526.705-.787.241-.26.49-.516.744-.767.255-.252.515-.485.78-.698l.849-.68c.3-.24.608-.495.922-.763.314-.269.63-.53.949-.783.318-.254.64-.496.967-.726.327-.23.646-.476.957-.738.311-.262.628-.545.95-.849.323-.303.642-.59.958-.856a15.531 15.531 0 001.829-1.825c.307-.358.605-.693.894-1.005.289-.312.563-.636.822-.972.259-.335.507-.678.745-1.028l.674-.992a14.367 14.367 0 001.104-1.947c.148-.318.285-.633.411-.945.126-.311.241-.626.345-.943.104-.318.186-.602.246-.851.06-.25.097-.468.114-.655a5.288 5.288 0 00-.037-1.042" fill="none" stroke="#007aff" stroke-width="1.9854471" stroke-linecap="round" stroke-linejoin="round" stroke-miterlimit="10"/><path d="M17.883 59.612a2.41 2.41 0 00.052.494c.039.217.12.536.242.956.121.42.215.754.28 1 .066.246.134.5.206.759.072.259.196.66.37 1.205.176.545.318.956.428 1.234.11.277.236.533.375.767.14.233.296.46.467.68l.557.725c.2.263.403.524.609.783.206.259.413.496.62.712a30.046 30.046 0 001.333 1.3c.239.22.476.437.713.65.237.214.61.523 1.117.929.508.405.887.724 1.137.957.25.232.497.462.74.69.244.227.492.436.745.627.252.19.516.374.792.55.277.177.555.372.834.586.28.213.558.431.835.654a23.825 23.825 0 001.61 1.185c.261.177.518.36.77.548.252.188.639.54 1.162 1.057l1.16 1.146c.25.248.473.503.671.767a28.178 28.178 0 011.113 1.606c.169.262.327.535.473.819.146.283.28.62.4 1.01a11.128 11.128 0 01.471 2.46c.036.44.057.813.065 1.12.008.309 0 .713-.022 1.213-.023.501-.068.948-.137 1.343-.068.394-.158.797-.27 1.21-.11.413-.243.837-.396 1.273-.154.436-.322.852-.507 1.246-.184.395-.37.794-.56 1.198a8.176 8.176 0 01-1.252 1.952 31.14 31.14 0 01-.716.798c-.246.264-.497.523-.756.779a10.36 10.36 0 01-.792.708l-.861.69c-.305.244-.617.502-.936.775-.318.272-.64.537-.963.794-.323.258-.65.503-.982.736-.331.234-.655.483-.97.75-.317.265-.638.552-.965.86-.327.31-.652.599-.972.87a15.822 15.822 0 00-1.856 1.852c-.312.363-.614.703-.908 1.02-.293.317-.572.646-.834.986-.263.34-.515.688-.757 1.044l-.684 1.006a14.514 14.514 0 00-1.12 1.976c-.15.323-.29.643-.418.959a14.64 14.64 0 00-.35.957c-.105.323-.188.61-.249.864-.06.254-.1.475-.116.665" fill="none" stroke="#007aff" stroke-width="2.0145379" stroke-linecap="round" stroke-linejoin="round" stroke-miterlimit="10"/><path d="M74.524 58.586a2.417 2.417 0 00-.051-.493 10.39 10.39 0 00-.24-.957 46.76 46.76 0 01-.28-1c-.065-.247-.134-.5-.205-.76-.072-.26-.195-.662-.37-1.207a21.124 21.124 0 00-.425-1.234 5.276 5.276 0 00-.374-.768 6.88 6.88 0 00-.466-.681c-.17-.221-.356-.463-.556-.726a49.47 49.47 0 00-.608-.784 9.947 9.947 0 00-.62-.713 36.059 36.059 0 00-1.332-1.303c-.238-.22-.475-.438-.712-.651a26.86 26.86 0 00-1.116-.93 21.253 21.253 0 01-1.136-.96l-.74-.69a9.612 9.612 0 00-.743-.629 12.057 12.057 0 00-.793-.552 12.001 12.001 0 01-.833-.586c-.28-.214-.558-.433-.835-.656a23.788 23.788 0 00-1.607-1.188c-.263-.177-.52-.36-.77-.549-.252-.188-.64-.541-1.161-1.058-.523-.517-.909-.9-1.159-1.149a7.026 7.026 0 01-.67-.768 28.303 28.303 0 01-1.111-1.608 10.182 10.182 0 01-.473-.82 6.159 6.159 0 01-.4-1.011 11.198 11.198 0 01-.469-2.46c-.033-.44-.054-.815-.061-1.123-.007-.308 0-.712.024-1.213.023-.5.07-.948.138-1.342.07-.394.16-.798.272-1.21.112-.413.245-.838.399-1.274.154-.436.323-.851.508-1.246l.562-1.197a8.173 8.173 0 011.255-1.95c.233-.268.472-.534.718-.798.245-.264.498-.523.757-.778.259-.256.523-.491.793-.707.269-.217.557-.446.862-.69.306-.243.618-.501.937-.773.32-.273.641-.537.965-.794.324-.257.651-.502.983-.735.332-.233.656-.482.973-.748.316-.265.638-.552.966-.86.327-.308.652-.598.973-.869a15.758 15.758 0 001.86-1.85c.312-.362.615-.702.909-1.018.294-.317.572-.646.836-.986.263-.34.516-.688.758-1.043l.685-1.006a14.552 14.552 0 001.123-1.975c.152-.323.291-.642.42-.958.129-.316.246-.636.352-.958.105-.322.189-.61.25-.864.061-.253.1-.475.117-.665.025-.279.013-.631-.036-1.057" fill="none" stroke="#007aff" stroke-width="2.0152651699999997" stroke-linecap="round" stroke-linejoin="round" stroke-miterlimit="10"/><path d="M52.402 1.803c-.005.113.012.28.051.501.04.221.121.545.245.972.123.426.217.765.283 1.015.066.25.136.507.208.77.073.264.197.672.374 1.225s.322.971.433 1.253c.111.282.238.542.38.78.141.236.299.467.472.691.173.224.361.47.564.737.203.267.409.532.618.795.208.264.418.505.629.724a36.052 36.052 0 001.351 1.322c.242.224.483.445.723.662.24.217.618.531 1.133.943.515.413.899.737 1.152.974l.751.701c.248.23.499.444.755.638.255.194.523.381.804.56.28.18.562.378.846.596.283.217.565.439.847.665a24.29 24.29 0 001.631 1.206c.266.18.527.365.782.557.255.192.648.55 1.178 1.075.53.524.922.913 1.175 1.165.254.252.48.512.681.78a28.665 28.665 0 011.128 1.632c.17.267.33.544.479.832.148.287.283.63.405 1.026a11.314 11.314 0 01.475 2.498c.035.446.056.826.064 1.139.007.312-.001.722-.025 1.23-.023.509-.07.963-.14 1.363s-.163.81-.276 1.228c-.114.42-.249.85-.405 1.292-.156.443-.328.864-.516 1.265l-.57 1.215a8.31 8.31 0 01-1.274 1.98c-.237.272-.48.541-.729.809-.25.267-.505.53-.768.79-.263.259-.531.498-.805.717-.273.22-.565.453-.876.7-.31.247-.627.509-.95.785-.325.276-.651.545-.98.805-.328.261-.661.51-.998.746-.337.237-.665.49-.987.759a23.4 23.4 0 00-.98.873 24.45 24.45 0 01-.988.882 16.058 16.058 0 00-1.887 1.877c-.317.368-.625.713-.923 1.034-.298.321-.581.655-.849 1-.267.346-.523.698-.769 1.059l-.696 1.02a14.738 14.738 0 00-1.14 2.005c-.153.328-.295.652-.426.973-.13.32-.25.644-.357.971-.107.327-.192.62-.254.877a4.753 4.753 0 00-.119.675" fill="none" stroke="#007aff" stroke-width="2.04581051" stroke-linecap="round" stroke-linejoin="round" stroke-miterlimit="10"/><path d="M75.571 115.496a2.421 2.421 0 00-.05-.493c-.04-.217-.12-.537-.241-.957-.122-.42-.215-.754-.28-1a70.84 70.84 0 00-.205-.76c-.071-.26-.194-.662-.368-1.207a21.045 21.045 0 00-.427-1.234 5.276 5.276 0 00-.374-.768 6.88 6.88 0 00-.465-.681c-.171-.221-.356-.463-.556-.726-.2-.263-.403-.524-.609-.784a9.929 9.929 0 00-.62-.713 36.07 36.07 0 00-1.332-1.303c-.237-.22-.475-.438-.711-.651a26.873 26.873 0 00-1.117-.93 21.21 21.21 0 01-1.136-.96l-.74-.69a9.642 9.642 0 00-.743-.629 12.096 12.096 0 00-.792-.552 11.966 11.966 0 01-.833-.586c-.28-.214-.558-.433-.835-.656a24.051 24.051 0 00-1.608-1.187 19.35 19.35 0 01-.77-.55c-.251-.188-.638-.541-1.16-1.058l-1.159-1.148a7.04 7.04 0 01-.671-.769 28.245 28.245 0 01-1.111-1.608 10.181 10.181 0 01-.472-.82 6.173 6.173 0 01-.4-1.011 11.165 11.165 0 01-.468-2.46c-.034-.44-.055-.815-.062-1.123-.008-.308 0-.712.023-1.213.024-.5.07-.948.139-1.342.07-.394.16-.798.271-1.21.112-.413.245-.838.4-1.274.153-.436.323-.85.507-1.246L57.16 80a8.19 8.19 0 011.255-1.951c.233-.267.472-.533.717-.797.246-.263.498-.523.757-.778.26-.256.524-.491.793-.707l.863-.69c.306-.243.618-.501.937-.773.32-.272.64-.537.965-.794.323-.257.651-.502.983-.735.332-.233.656-.482.972-.748.317-.265.639-.552.966-.86.328-.308.652-.598.974-.869a15.735 15.735 0 001.86-1.85c.311-.362.614-.702.908-1.018.294-.317.573-.646.836-.986.264-.34.516-.688.758-1.043l.686-1.006a14.517 14.517 0 001.123-1.975c.151-.323.291-.642.42-.958.128-.316.245-.636.351-.958.106-.322.19-.61.25-.864.062-.253.1-.475.118-.665a5.37 5.37 0 00-.036-1.057" fill="none" stroke="#007aff" stroke-width="2.0152651699999997" stroke-linecap="round" stroke-linejoin="round" stroke-miterlimit="10"/><path d="M53.45 58.713c-.006.113.012.28.051.501.04.221.121.545.244.972.123.426.218.765.284 1.015a34.536 34.536 0 00.582 1.995c.177.553.321.971.433 1.253.111.282.238.542.38.78.14.236.298.467.472.691.173.224.361.47.564.737.203.267.409.532.617.795.21.264.419.505.63.724a36.059 36.059 0 001.351 1.322c.241.224.482.445.723.662.24.217.617.531 1.132.943.515.413.9.737 1.153.974l.751.701c.247.231.499.444.754.638.256.194.524.381.804.56.28.18.563.378.846.596.284.217.566.439.847.665a24.126 24.126 0 001.632 1.206c.266.18.526.365.782.557.255.192.647.55 1.177 1.075l1.176 1.165c.253.252.48.512.68.78a28.658 28.658 0 011.128 1.632c.172.267.331.544.48.832.148.287.283.63.405 1.026a11.297 11.297 0 01.475 2.498c.035.446.056.826.063 1.139.008.312 0 .722-.024 1.23-.024.509-.07.963-.14 1.363s-.163.81-.277 1.229c-.113.418-.248.85-.404 1.291-.157.443-.329.864-.516 1.265l-.57 1.215a8.306 8.306 0 01-1.274 1.98c-.237.272-.48.541-.73.809-.248.267-.505.53-.768.79-.262.259-.53.498-.804.718l-.876.699c-.31.247-.627.509-.951.785-.324.276-.65.545-.979.805-.329.261-.661.51-.998.746-.337.237-.666.49-.987.76-.321.269-.648.56-.98.872-.333.313-.662.607-.989.882a16.058 16.058 0 00-1.886 1.877c-.317.368-.625.713-.923 1.034-.299.321-.582.655-.849 1-.267.346-.524.698-.77 1.059l-.695 1.02a14.771 14.771 0 00-1.14 2.005c-.154.328-.295.652-.426.973-.13.32-.25.644-.357.971-.107.328-.192.62-.254.877a4.745 4.745 0 00-.12.675" fill="none" stroke="#007aff" stroke-width="2.04581051" stroke-linecap="round" stroke-linejoin="round" stroke-miterlimit="10"/><path d="M24.653 3.873c-.035.246-.045.56-.03.94.015.382.034.9.056 1.557.034 1.001.092 1.888.175 2.66M26.908 8.046l-.044.119M30.473 4.55c-.214-.112-.402-.169-.564-.173a.628.628 0 00-.308.069 1.216 1.216 0 00-.281.205c-.093.088-.202.254-.327.497a2.465 2.465 0 00-.25.753 3.54 3.54 0 00-.018.863c.029.316.115.609.259.879.144.27.322.472.535.608.213.136.435.198.668.186.233-.013.446-.125.64-.336.192-.211.347-.484.464-.817a5.313 5.313 0 00.289-1.87 1.47 1.47 0 00-.142-.618c-.123-.238-.388-.416-.796-.535M24.932 58.984a2.625 2.625 0 00-.365-.321 1.352 1.352 0 00-.208-.106 1.061 1.061 0 00-.285-.07 1.758 1.758 0 00-.349-.004.899.899 0 00-.395.145c-.14.087-.273.21-.402.371-.13.16-.237.372-.324.634a3.414 3.414 0 00-.153.937c-.014.362.007.718.063 1.066.056.348.177.687.36 1.016.185.329.408.609.67.84.263.23.526.376.788.44.262.063.513.054.753-.027.24-.08.466-.238.677-.472a2.54 2.54 0 00.484-.783c.113-.288.176-.605.192-.95a5.46 5.46 0 00-.052-1.028c-.05-.34-.152-.618-.307-.83-.154-.213-.329-.358-.522-.434-.281-.111-.613-.061-.995.15M27.989 63.014l.009.166c0 .002 0 .001-.003-.003l-.093-.286M30.957 60.155c-.122.027-.256-.023-.4-.15-.097-.084-.237-.297-.42-.638-.183-.34-.35-.637-.501-.889a33.88 33.88 0 00-.483-.779 10.85 10.85 0 00-.418-.62 1.612 1.612 0 00-.232-.27c-.047-.036-.07-.01-.07.077s.058.251.176.493c.117.242.272.49.465.743.193.254.387.458.583.611.195.153.394.262.598.326.203.063.408.097.615.1.206.002.41-.027.612-.09.202-.061.383-.135.545-.222.161-.087.295-.178.4-.273a.603.603 0 00.196-.307.75.75 0 00.015-.302c-.016-.091-.065-.145-.146-.162-.08-.017-.184.032-.308.148-.124.115-.248.27-.37.466a2.722 2.722 0 00-.307.77c-.081.318-.14.688-.177 1.11-.037.422-.061.83-.073 1.222-.016.576.044 1.32.182 2.228M21.52 32.06c.205-.047.574-.085 1.108-.112M26.392 30.023c-.064.003-.13-.033-.199-.11a2.224 2.224 0 00-.19-.189.706.706 0 00-.222-.125 1.107 1.107 0 00-.7.007.804.804 0 00-.367.273c-.111.138-.203.334-.274.588a4.17 4.17 0 00-.138.861c-.02.32-.012.645.025.973.037.328.125.635.265.92.139.286.309.517.508.693.2.177.41.276.633.297.221.021.432-.06.63-.245.2-.185.36-.427.479-.726.119-.298.194-.61.226-.932.031-.323.032-.642.003-.959a1.925 1.925 0 00-.24-.806c-.13-.22-.266-.37-.411-.45-.208-.114-.447-.058-.719.168M28.977 33.187c-.052.119-.131.095-.24-.072M31.813 29.242c-.062-.043-.18-.071-.356-.084a8.232 8.232 0 00-.73.016c-.376.018-.572.094-.587.226a1.11 1.11 0 00.041.429c.044.154.11.353.202.597.09.245.15.398.176.459.027.061.133.077.318.047s.338-.044.46-.04c.12.004.244.05.372.137a1.923 1.923 0 01.612.705c.06.13.1.266.115.407a.754.754 0 01-.103.445c-.085.155-.21.305-.375.449a1.565 1.565 0 01-.55.312c-.2.065-.375.1-.523.104-.21.006-.341-.126-.392-.396M26.201 87.29c.067-.156.033-.35-.1-.582a1.046 1.046 0 00-.267-.329.744.744 0 00-.308-.127 1.052 1.052 0 00-.38.006.82.82 0 00-.396.208c-.127.114-.24.267-.336.46a2.7 2.7 0 00-.22.648c-.05.237-.073.49-.068.76.005.268.039.534.101.796.063.263.143.481.242.654.098.173.254.337.466.493.213.156.411.246.597.27a.91.91 0 00.544-.099c.177-.09.33-.248.459-.474.128-.225.225-.5.289-.826.064-.326.096-.628.095-.905-.001-.278-.051-.508-.15-.691a1.07 1.07 0 00-.334-.398.7.7 0 00-.601-.09M28.846 89.598l-.138-.227M30.86 87.046a.628.628 0 01-.307-.312 1.496 1.496 0 01-.08-.416 1.79 1.79 0 01-.001-.419.591.591 0 01.112-.253.824.824 0 01.2-.193.669.669 0 01.225-.1.237.237 0 01.215.058c.067.057.128.165.183.326.055.16.104.346.146.556.042.21.075.406.1.59.024.182.04.375.05.577a3.2 3.2 0 01-.057.7c-.047.266-.11.514-.188.746-.079.232-.151.398-.217.497-.065.099-.142.151-.23.157-.088.005-.162-.05-.22-.167a1.625 1.625 0 01-.134-.37c-.03-.13-.05-.282-.063-.455-.011-.174-.006-.285.016-.333.022-.048.097.065.224.34.128.274.256.482.385.624.13.143.264.245.406.308.14.063.283.096.425.098a.509.509 0 00.367-.139.794.794 0 00.22-.364c.043-.149.066-.289.067-.42a.616.616 0 00-.19-.474M23.08 113.469c.424.003.861.027 1.31.069M27.906 111.428c.089-.054.124-.136.108-.247a.314.314 0 00-.088-.185.669.669 0 00-.185-.123.903.903 0 00-.25-.075 1.094 1.094 0 00-.292-.002c-.104.013-.212.073-.322.182-.11.108-.213.264-.31.467a3.783 3.783 0 00-.348 1.461c-.01.276.005.55.046.824.04.274.12.536.239.788.118.252.264.455.437.608.174.154.358.244.554.271.196.027.4-.022.611-.147.212-.124.413-.305.603-.543a2.35 2.35 0 00.416-.777 2.946 2.946 0 00-.012-1.773c-.095-.297-.2-.525-.312-.683-.113-.158-.222-.26-.329-.306-.155-.067-.33-.056-.524.033M30.606 114.677c.007.07.006.1-.003.088l-.09-.118M32.24 110.046c.031.218.029.478-.008.782-.036.303-.052.579-.047.827.004.248.017.422.04.523.022.1.068.184.137.252.07.068.152.11.247.127.095.016.199.021.31.015.11-.007.229-.028.355-.064a51.87 51.87 0 011.112-.289" fill="none" stroke="#ff21b3" stroke-width=".73017908" stroke-linecap="round" stroke-linejoin="round" stroke-miterlimit="10"/><path d="M33.72 111.498a12.55 12.55 0 00.001 1.41c.025.574.083 1.466.174 2.677" fill="none" stroke="#ff21b3" stroke-width=".73017908" stroke-linecap="round" stroke-linejoin="round" stroke-miterlimit="10"/><path d="M126.162 59.71a2.379 2.379 0 00-.056-.484 10.208 10.208 0 00-.25-.939c-.124-.412-.22-.74-.287-.98-.068-.243-.138-.49-.212-.745-.073-.255-.2-.649-.378-1.183a20.708 20.708 0 00-.435-1.21 5.181 5.181 0 00-.378-.75 6.766 6.766 0 00-.467-.664c-.171-.216-.357-.451-.557-.708-.2-.256-.403-.51-.608-.763a9.764 9.764 0 00-.62-.693c-.206-.21-.42-.42-.64-.63-.22-.21-.45-.421-.686-.636a70.792 70.792 0 00-.71-.632 26.483 26.483 0 00-1.11-.9 20.926 20.926 0 01-1.13-.93l-.737-.67a9.48 9.48 0 00-.74-.609 11.87 11.87 0 00-.786-.533c-.274-.17-.55-.36-.828-.566a45.574 45.574 0 01-.83-.635 23.466 23.466 0 00-1.597-1.148c-.26-.171-.515-.348-.765-.53-.25-.183-.635-.525-1.155-1.027l-1.155-1.115a6.912 6.912 0 01-.67-.748 27.795 27.795 0 01-1.114-1.568 10.005 10.005 0 01-.475-.8 6.069 6.069 0 01-.406-.99 11.01 11.01 0 01-.492-2.416c-.04-.433-.065-.8-.076-1.103-.011-.303-.009-.701.008-1.194.016-.493.056-.934.119-1.323.063-.389.147-.787.251-1.195.105-.407.23-.826.377-1.257.145-.431.307-.842.483-1.233l.538-1.185a8.04 8.04 0 011.21-1.936c.226-.266.458-.531.696-.794.239-.262.484-.52.735-.775.252-.255.51-.49.772-.706l.84-.69c.297-.243.601-.501.912-.773.31-.272.623-.536.939-.793.315-.257.634-.503.958-.736.324-.233.64-.483.947-.748.308-.266.621-.552.94-.86.318-.307.634-.596.947-.866a15.493 15.493 0 001.805-1.845 36.3 36.3 0 01.882-1.014c.285-.315.555-.642.81-.98.255-.339.5-.684.733-1.036l.662-.999a14.333 14.333 0 001.08-1.958c.144-.32.277-.636.4-.949.122-.312.234-.628.334-.946.1-.319.178-.603.235-.853.057-.25.092-.47.107-.656a5.3 5.3 0 00-.05-1.04" fill="none" stroke="#007aff" stroke-width="1.9832652899999998" stroke-linecap="round" stroke-linejoin="round" stroke-miterlimit="10"/><path d="M103.666 4.119a2.42 2.42 0 00.057.492c.042.217.126.534.253.953.126.418.224.75.292.995.068.246.14.497.214.756.075.258.203.658.384 1.2.181.542.329.951.442 1.227.113.277.241.53.383.762.143.232.3.457.474.675.174.218.362.457.565.717.203.26.409.519.618.775.209.257.418.492.628.704.21.213.427.426.65.639.224.213.456.428.697.645.24.218.48.432.72.642.238.21.614.515 1.126.914.512.4.894.714 1.147.943l.748.68c.246.225.496.43.75.619.254.188.52.368.799.54.278.174.558.365.84.576.281.21.562.424.842.643a23.784 23.784 0 001.62 1.166c.264.174.523.353.777.538.253.186.644.533 1.173 1.043.528.51.919.886 1.171 1.131.253.245.48.498.68.759.201.26.397.526.588.796.19.27.372.535.543.795.172.261.332.532.482.813.15.281.287.616.412 1.005a11.115 11.115 0 01.5 2.452c.04.439.065.812.076 1.12.012.307.009.71-.008 1.21-.016.501-.057.949-.12 1.343-.064.395-.15.8-.256 1.213-.107.414-.234.839-.382 1.276-.148.438-.312.855-.491 1.251l-.546 1.203a8.164 8.164 0 01-1.228 1.965c-.23.27-.465.539-.707.805-.242.267-.49.53-.746.787-.255.259-.516.498-.783.717-.266.22-.55.452-.852.7-.302.247-.61.508-.926.784-.315.276-.633.544-.953.805-.32.261-.644.51-.973.747-.328.237-.649.49-.961.76-.313.269-.63.56-.954.871-.323.312-.643.605-.96.88a15.737 15.737 0 00-1.834 1.872 37.15 37.15 0 01-.894 1.029c-.29.32-.564.652-.823.995-.258.343-.506.694-.743 1.051l-.672 1.014a14.541 14.541 0 00-1.096 1.987c-.147.324-.282.645-.406.963-.125.317-.238.637-.34.96-.1.324-.18.612-.238.866a4.669 4.669 0 00-.108.666" fill="none" stroke="#007aff" stroke-width="2.01308336" stroke-linecap="round" stroke-linejoin="round" stroke-miterlimit="10"/><path d="M127.923 115.698a2.378 2.378 0 00-.057-.484 10.232 10.232 0 00-.249-.94c-.125-.412-.22-.739-.288-.98-.067-.242-.137-.49-.211-.745a33.68 33.68 0 00-.379-1.182 20.747 20.747 0 00-.435-1.21 5.196 5.196 0 00-.378-.75 6.767 6.767 0 00-.467-.665c-.17-.215-.356-.45-.556-.707-.2-.256-.403-.51-.609-.764a9.745 9.745 0 00-.62-.693c-.206-.21-.42-.42-.64-.629a35.75 35.75 0 00-.686-.636 69.11 69.11 0 00-.71-.632 26.34 26.34 0 00-1.11-.9 20.89 20.89 0 01-1.13-.93l-.737-.67a9.466 9.466 0 00-.739-.61c-.25-.185-.513-.362-.787-.533-.274-.17-.55-.359-.827-.566a45.902 45.902 0 01-.83-.634 23.402 23.402 0 00-1.597-1.148c-.26-.172-.515-.348-.765-.531-.25-.183-.635-.525-1.156-1.027-.52-.502-.905-.873-1.154-1.115a6.92 6.92 0 01-.67-.747c-.198-.257-.391-.519-.58-.784a27.896 27.896 0 01-.535-.784 10.03 10.03 0 01-.475-.801 6.067 6.067 0 01-.406-.99 11.004 11.004 0 01-.493-2.416c-.039-.432-.064-.8-.075-1.103-.011-.303-.008-.7.008-1.194.016-.493.056-.934.12-1.323.062-.388.146-.787.25-1.194.106-.408.231-.827.377-1.258.146-.43.307-.842.484-1.233l.538-1.185a8.067 8.067 0 011.21-1.936c.226-.266.458-.53.696-.793.238-.263.483-.521.735-.776.252-.254.509-.49.771-.706l.84-.69c.298-.243.602-.5.912-.772.31-.272.624-.537.94-.794.315-.257.634-.502.957-.736.324-.233.64-.482.948-.748.308-.265.62-.552.94-.859.318-.307.633-.596.946-.867a15.494 15.494 0 001.806-1.844c.302-.361.596-.699.882-1.014.285-.316.555-.643.81-.981.254-.338.499-.684.732-1.036l.662-.999a14.366 14.366 0 001.08-1.958c.144-.32.278-.635.4-.948.123-.313.234-.628.334-.947.1-.318.179-.603.235-.853.057-.25.093-.469.107-.656a5.3 5.3 0 00-.05-1.04" fill="none" stroke="#007aff" stroke-width="1.9832652899999998" stroke-linecap="round" stroke-linejoin="round" stroke-miterlimit="10"/><path d="M105.426 60.106a2.42 2.42 0 00.057.492c.042.217.126.535.253.953.127.418.224.75.292.996a33.977 33.977 0 00.598 1.956c.182.541.33.95.442 1.227.114.276.241.53.384.762.142.231.3.456.474.674l.564.718c.203.26.41.518.618.775.209.256.418.49.628.704a35.29 35.29 0 001.347 1.284c.24.217.48.431.72.641.239.21.615.515 1.127.915.512.399.894.713 1.146.943l.748.68c.246.224.497.43.75.618.255.188.521.368.8.541.277.173.557.365.839.575.282.21.562.425.842.644a23.715 23.715 0 001.62 1.165c.265.174.524.354.777.539.254.185.645.533 1.173 1.042.529.51.92.887 1.172 1.132.253.245.48.498.68.758a28.21 28.21 0 011.13 1.591c.172.261.333.532.483.814.15.28.287.616.412 1.004a11.116 11.116 0 01.5 2.452c.039.44.065.812.076 1.12.011.307.008.711-.008 1.211-.017.5-.057.948-.121 1.343s-.15.799-.256 1.212c-.106.414-.233.84-.382 1.277-.148.437-.311.854-.49 1.25l-.547 1.204a8.18 8.18 0 01-1.228 1.965c-.23.27-.465.538-.706.805-.242.266-.491.528-.747.787-.255.258-.516.497-.782.716-.266.22-.55.453-.853.7-.302.247-.61.509-.926.785-.315.275-.633.544-.953.805-.32.26-.644.51-.972.746-.329.237-.65.49-.962.76-.312.27-.63.56-.953.872-.323.311-.644.605-.961.88a15.83 15.83 0 00-1.833 1.871c-.307.366-.605.71-.895 1.03-.29.32-.563.651-.822.994-.259.344-.507.694-.744 1.052l-.672 1.013a14.525 14.525 0 00-1.096 1.987c-.146.325-.281.646-.406.963a14.63 14.63 0 00-.339.96c-.101.324-.181.613-.239.867a4.674 4.674 0 00-.108.665" fill="none" stroke="#007aff" stroke-width="2.01308336" stroke-linecap="round" stroke-linejoin="round" stroke-miterlimit="10"/><path d="M56.73 4.95l1.556.035M61.734 2.923c.031-.219-.024-.355-.166-.408-.099-.037-.244-.049-.435-.036-.19.012-.35.053-.477.122a1.385 1.385 0 00-.39.343c-.131.16-.245.364-.339.611a2.597 2.597 0 00-.156.843c-.01.314.02.638.089.971.069.333.186.642.353.926.166.283.353.504.562.661.209.158.418.242.628.252.21.01.39-.098.542-.324.152-.226.26-.502.32-.828.062-.327.1-.68.116-1.06s.023-.73.022-1.05c-.002-.321-.01-.57-.025-.748-.023-.249-.115-.356-.278-.323M63.542 6.041l-.103.005M65.167 3.31c-.086-.11-.126-.26-.121-.45a.415.415 0 01.106-.294.71.71 0 01.213-.153.918.918 0 01.302-.065c.127-.01.234.03.32.117a.817.817 0 01.195.356c.043.15.07.314.084.49.012.177.013.333.001.467a.974.974 0 01-.068.311.491.491 0 01-.105.159l-.064.058c-.007.007-.01.007-.007.001l.024-.052c.013-.03.06-.06.142-.09a.88.88 0 01.28-.052.579.579 0 01.31.08c.102.056.197.128.285.214a.837.837 0 01.2.325c.046.13.077.27.092.422a.797.797 0 01-.113.472c-.09.163-.217.307-.379.432a1.66 1.66 0 01-.554.277c-.306.09-.632.08-.976-.029M57.96 30.46c.334-.024.619-.07.854-.135.234-.065.568-.14 1.002-.225M63.193 28.385c.056-.146.01-.267-.14-.361a1.065 1.065 0 00-.283-.133 1.037 1.037 0 00-.296-.03c-.113.004-.237.055-.375.155-.137.1-.27.24-.398.421a3.829 3.829 0 00-.348.608 2.684 2.684 0 00-.214.73c-.04.264-.037.555.008.872.046.317.158.61.336.88.179.27.385.488.62.654.234.167.475.264.722.293.248.028.493-.02.735-.144a1.68 1.68 0 00.624-.576c.174-.26.292-.542.352-.849.06-.306.086-.592.076-.857-.01-.265-.065-.482-.166-.65-.147-.244-.43-.402-.848-.476M65.723 31.77l-.064.193M67.009 27.663c.038.37.052.809.042 1.32-.006.333-.006.577 0 .733.007.156.027.277.063.365a.376.376 0 00.17.195c.078.044.222.065.432.064.309 0 .666-.11 1.07-.327" fill="none" stroke="#ffd300" stroke-width=".7418154" stroke-linecap="round" stroke-linejoin="round" stroke-miterlimit="10"/><path d="M68.43 29.098c.08.264.141.626.181 1.088.026.297.048.609.065.935.027.483.003 1.04-.072 1.673M61.298 58.356c.06-.078.082-.18.066-.307-.016-.126-.053-.213-.11-.259a.85.85 0 00-.22-.12 1.242 1.242 0 00-.314-.072 1.64 1.64 0 00-.384.006.706.706 0 00-.394.203c-.127.12-.256.29-.385.513a2.8 2.8 0 00-.298.835c-.07.334-.104.686-.102 1.055.002.369.054.722.155 1.059.101.336.24.615.419.838.178.222.368.38.57.474.203.093.416.14.64.139a1.12 1.12 0 00.66-.238c.215-.157.406-.365.574-.624.167-.258.294-.558.38-.9a4.22 4.22 0 00.128-1.034c0-.346-.046-.64-.137-.883a1.044 1.044 0 00-.76-.676M65.06 61.73l.13.506M68.76 58.039a.578.578 0 00-.31-.24 1.143 1.143 0 00-.378-.087.822.822 0 00-.338.075.964.964 0 00-.344.273c-.11.13-.195.304-.252.52-.058.215-.089.479-.091.79-.003.312.026.626.087.944.06.318.167.585.318.803.15.217.33.376.539.476.208.1.423.158.644.173.22.015.424-.01.61-.074a.954.954 0 00.475-.393c.133-.198.234-.46.305-.789.072-.328.111-.686.12-1.073a8.36 8.36 0 00-.047-1.1c-.038-.346-.118-.612-.238-.8-.17-.265-.514-.242-1.032.069" fill="none" stroke="#ffd300" stroke-width=".7418154" stroke-linecap="round" stroke-linejoin="round" stroke-miterlimit="10"/><path d="M3.356 74.435c.13-.367.23-.837.303-1.41.047-.373.083-.77.108-1.188.025-.42.039-1.667.041-3.745.003-2.077-.035-3.558-.114-4.443a29.837 29.837 0 00-.376-2.733l-.48-2.62a18.73 18.73 0 01-.286-2.458c-.04-.83-.024-1.621.05-2.375.076-.754.229-1.424.46-2.011.34-.861.953-1.87 1.837-3.026" fill="none" stroke="#fcfcfc" stroke-width=".7556335299999999" stroke-linecap="round" stroke-linejoin="round" stroke-miterlimit="10"/><path d="M.378 65.31c.307-.195.66-.527 1.06-.998.401-.47.828-1.012 1.28-1.624.657-.887 1.863-2.406 3.618-4.556M15.013 48.982c-.171.174-.387.43-.647.77s-.557.806-.893 1.399a11.636 11.636 0 00-.878 1.991c-.25.736-.49 1.91-.72 3.52a30.291 30.291 0 00-.29 4.925c.037 1.672.218 3.249.545 4.73.48 2.173 1.797 4.444 3.953 6.812M46.097 71.556c.297.158.545.588.742 1.287.129.455.218.976.267 1.565.072.852-.113 2.332-.556 4.439" fill="none" stroke="#fcfcfc" stroke-width=".7556335299999999" stroke-linecap="round" stroke-linejoin="round" stroke-miterlimit="10"/><path d="M81.897 50.387c.15.21.41.643.78 1.302.37.659.704 1.38 1.001 2.164.298.784.544 1.57.739 2.358.195.788.375 2.029.54 3.722.166 1.693.205 3.275.118 4.747a32.478 32.478 0 01-.482 4.072 39.243 39.243 0 01-1.336 5.219M93.211 58.77c.108.111.54.138 1.296.08 1.22-.092 2.067-.17 2.54-.23M93.4 63.341c.098.12.252.212.46.276.207.063.509.122.907.178.575.08 1.58.036 3.012-.13" fill="none" stroke="#fcfcfc" stroke-width=".7585426099999999" stroke-linecap="round" stroke-linejoin="round" stroke-miterlimit="10"/><path d="M58.22 87.37c.396.02.884.01 1.465-.033M63.548 84.885c-.024-.123-.112-.213-.263-.27a1.112 1.112 0 00-.429-.049c-.183.008-.332.03-.445.067-.113.037-.235.13-.364.276-.13.147-.25.34-.362.58-.111.24-.199.506-.263.799a4.428 4.428 0 00-.093.96c.001.348.059.687.172 1.018.114.33.273.594.477.79.204.196.433.325.687.387.254.062.51.089.77.079.26-.01.507-.076.74-.197.232-.121.43-.307.593-.558a2.75 2.75 0 00.364-.878 4.85 4.85 0 00.134-.946c.01-.296-.012-.534-.066-.714a.809.809 0 00-.278-.423c-.19-.146-.569-.28-1.135-.398M66.856 89.001c-.04.042-.082.083-.123.124M69.183 84.746c.077-.191.014-.295-.19-.311a.71.71 0 00-.45.134c-.153.101-.29.217-.41.347a1.39 1.39 0 00-.269.417c-.06.149-.091.303-.094.463-.002.16.025.31.082.449a.618.618 0 00.294.318c.14.073.298.11.476.108.255-.001.633-.233 1.132-.696" fill="none" stroke="#ffd300" stroke-width=".7418154" stroke-linecap="round" stroke-linejoin="round" stroke-miterlimit="10"/><path d="M70.031 84.814c-.058-.117-.118-.169-.18-.155-.042.01-.077.07-.102.177-.026.108-.046.381-.06.818-.014.437-.037 1.083-.07 1.938a47.14 47.14 0 00-.044 1.83c.003.55.053 1.064.15 1.542M62.892 111.063a.293.293 0 00.16-.263.34.34 0 00-.05-.194.485.485 0 00-.147-.138.827.827 0 00-.226-.096.886.886 0 00-.719.104c-.149.085-.29.214-.422.386a3.677 3.677 0 00-.376.621c-.12.242-.225.507-.318.794a3.63 3.63 0 00-.166.916c-.018.323-.01.614.023.872.034.258.07.436.109.535.038.099.12.236.247.412.126.176.332.34.618.488.287.15.573.225.86.226.286.002.566-.066.84-.205.272-.138.529-.314.77-.527.24-.212.447-.445.62-.698.173-.252.297-.509.373-.768.075-.26.112-.5.11-.722a1.158 1.158 0 00-.189-.621 2.077 2.077 0 00-.483-.522 3.192 3.192 0 00-.636-.387 4.207 4.207 0 00-1.015-.322" fill="none" stroke="#ffd300" stroke-width=".7418154" stroke-linecap="round" stroke-linejoin="round" stroke-miterlimit="10"/><path d="M62.892 111.063a.293.293 0 00.16-.263.34.34 0 00-.05-.194.485.485 0 00-.147-.138.827.827 0 00-.226-.096.886.886 0 00-.719.104c-.149.085-.29.214-.422.386a3.677 3.677 0 00-.376.621c-.12.242-.225.507-.318.794a3.63 3.63 0 00-.166.916c-.018.323-.01.614.023.872.034.258.07.436.109.535.038.099.12.236.247.412.126.176.332.34.618.488.287.15.573.225.86.226.286.002.566-.066.84-.205.272-.138.529-.314.77-.527.24-.212.447-.445.62-.698.173-.252.297-.509.373-.768.075-.26.112-.5.11-.722a1.158 1.158 0 00-.189-.621 2.077 2.077 0 00-.483-.522 3.192 3.192 0 00-.636-.387 4.207 4.207 0 00-1.015-.322M66.876 114.602l-.072.147M66.876 114.602l-.072.147M68.597 110.432a10.56 10.56 0 00.23 1.65c.077.345.258 1.23.544 2.658" fill="none" stroke="#ffd300" stroke-width=".7418154" stroke-linecap="round" stroke-linejoin="round" stroke-miterlimit="10"/><path d="M68.597 110.432a10.56 10.56 0 00.23 1.65c.077.345.258 1.23.544 2.658" fill="none" stroke="#ffd300" stroke-width=".7418154" stroke-linecap="round" stroke-linejoin="round" stroke-miterlimit="10"/><path d="M110.298 4.018c-.032.247-.038.56-.019.94.02.381.044.9.074 1.555.046 1 .114 1.885.206 2.655M112.6 8.161c-.015.04-.03.08-.043.12M116.12 4.627c-.214-.109-.403-.164-.565-.166a.63.63 0 00-.307.073c-.094.05-.187.119-.278.208-.092.09-.199.256-.321.5a2.464 2.464 0 00-.24.755c-.038.26-.04.547-.009.863.032.315.122.607.269.875.147.267.327.468.541.601.214.134.438.193.67.178.233-.015.444-.13.635-.343.19-.213.342-.487.455-.821a5.308 5.308 0 00.267-1.871 1.47 1.47 0 00-.15-.617c-.125-.236-.392-.411-.8-.526" fill="none" stroke="#ff21b3" stroke-width=".73017908" stroke-linecap="round" stroke-linejoin="round" stroke-miterlimit="10"/><path d="M109.17 32.203c.328-.028.608-.076.839-.144.228-.067.556-.145.983-.234M114.292 30.094c.054-.145.006-.263-.142-.354a1.046 1.046 0 00-.28-.127 1.017 1.017 0 00-.292-.025c-.11.005-.233.057-.366.156-.134.1-.263.24-.387.42s-.236.381-.335.602a2.64 2.64 0 00-.201.722c-.036.26-.03.546.02.858.048.311.162.598.341.862.18.263.386.475.618.635.233.161.471.254.715.279.244.025.485-.026.72-.151.237-.125.44-.317.608-.575a2.27 2.27 0 00.335-.84 3.69 3.69 0 00.064-.844c-.013-.26-.07-.473-.172-.637-.147-.238-.427-.39-.84-.458M116.825 33.393l-.06.19M118.038 29.335c.042.363.062.795.059 1.297-.003.328.001.57.009.722.008.153.03.273.066.358a.37.37 0 00.17.19c.077.042.22.061.427.058.303-.005.653-.117 1.049-.336" fill="none" stroke="#ffd300" stroke-width=".73017908" stroke-linecap="round" stroke-linejoin="round" stroke-miterlimit="10"/><path d="M119.454 30.729c.083.258.148.614.193 1.067.03.293.055.6.076.92a9.714 9.714 0 01-.05 1.647" fill="none" stroke="#ffd300" stroke-width=".73017908" stroke-linecap="round" stroke-linejoin="round" stroke-miterlimit="10"/><path d="M112.406 57.965a2.622 2.622 0 00-.368-.317 1.343 1.343 0 00-.209-.103 1.062 1.062 0 00-.287-.067 1.737 1.737 0 00-.347 0 .899.899 0 00-.394.15 1.63 1.63 0 00-.397.376 2.03 2.03 0 00-.317.637 3.414 3.414 0 00-.141.938c-.01.362.015.717.075 1.064.06.347.184.684.372 1.01.188.327.414.604.68.831.264.227.528.371.79.431.263.06.514.049.753-.035.24-.083.463-.243.67-.48.208-.236.367-.498.476-.787.108-.29.168-.606.18-.95a5.447 5.447 0 00-.064-1.028c-.054-.34-.159-.615-.316-.826a1.201 1.201 0 00-.527-.428c-.282-.107-.613-.053-.992.162M115.507 61.956a16.268 16.268 0 01.008.162l-.097-.284M118.44 59.066c-.123.028-.257-.02-.403-.145-.097-.084-.24-.295-.426-.633a21.49 21.49 0 00-.511-.882c-.154-.25-.318-.508-.492-.773-.174-.266-.315-.47-.425-.614a1.606 1.606 0 00-.235-.268c-.047-.035-.07-.01-.07.077.001.087.062.25.183.491.12.24.278.486.473.737.196.252.392.453.59.604.196.15.396.257.6.318.205.062.41.092.616.093.206 0 .41-.032.61-.096.201-.064.382-.14.542-.229.161-.089.293-.181.397-.277a.602.602 0 00.193-.309.747.747 0 00.01-.302c-.016-.09-.065-.144-.147-.16-.08-.016-.183.034-.306.15a2.317 2.317 0 00-.365.471c-.12.197-.22.455-.297.773a6.982 6.982 0 00-.164 1.11c-.032.423-.052.83-.058 1.223-.01.576.059 1.317.207 2.224" fill="none" stroke="#ff21b3" stroke-width=".73017908" stroke-linecap="round" stroke-linejoin="round" stroke-miterlimit="10"/><path d="M110.255 88.697c.39.014.87-.003 1.441-.052M115.466 86.183c-.025-.12-.113-.208-.262-.263a1.096 1.096 0 00-.422-.042 1.67 1.67 0 00-.438.072c-.11.038-.23.13-.355.276a2.373 2.373 0 00-.348.575c-.107.237-.19.5-.249.79-.059.29-.085.605-.08.946.007.342.068.675.184.999.115.324.275.581.479.771.203.19.43.314.68.373.251.058.504.08.76.067.256-.013.498-.08.725-.203a1.56 1.56 0 00.577-.556c.157-.25.273-.539.346-.869.074-.33.114-.641.12-.933a2.243 2.243 0 00-.074-.702.795.795 0 00-.279-.412c-.19-.142-.563-.268-1.121-.377M118.774 90.191l-.12.124M121.01 85.974c.072-.19.01-.29-.19-.304a.7.7 0 00-.442.138 2.15 2.15 0 00-.399.347 1.37 1.37 0 00-.26.414c-.057.147-.086.3-.086.457 0 .157.028.304.086.44a.608.608 0 00.293.309c.138.07.295.104.47.1.251-.004.62-.237 1.106-.699" fill="none" stroke="#ffd300" stroke-width=".73017908" stroke-linecap="round" stroke-linejoin="round" stroke-miterlimit="10"/><path d="M121.845 86.03c-.059-.115-.119-.165-.179-.15-.042.01-.075.069-.099.176-.024.106-.04.375-.048.805-.008.43-.022 1.067-.043 1.908-.021.842-.028 1.442-.021 1.801.01.542.066 1.047.167 1.515" fill="none" stroke="#ffd300" stroke-width=".73017908" stroke-linecap="round" stroke-linejoin="round" stroke-miterlimit="10"/><path d="M110.997 113.74c.425-.001.861.017 1.31.054M115.796 111.646c.087-.055.122-.138.105-.249a.313.313 0 00-.09-.183.665.665 0 00-.187-.121.905.905 0 00-.25-.071 1.085 1.085 0 00-.292.001c-.104.014-.21.075-.32.185-.108.11-.21.266-.304.47a3.78 3.78 0 00-.33 1.464c-.008.276.01.55.055.823.044.273.126.534.247.784s.27.451.444.603c.175.152.36.24.557.264.196.024.399-.027.609-.154.21-.127.408-.31.596-.55.187-.239.322-.5.406-.78a2.947 2.947 0 00-.032-1.772c-.099-.295-.206-.522-.32-.678-.114-.157-.225-.258-.332-.303-.156-.065-.33-.052-.523.04M118.53 114.86c.008.07.008.1-.002.088l-.09-.117M120.11 110.215c.033.217.034.477 0 .78-.032.304-.045.58-.038.828.008.248.023.421.046.522.024.1.07.183.14.25.07.068.153.109.249.124.095.016.198.02.31.011.11-.008.228-.03.353-.067.182-.054.55-.154 1.108-.302" fill="none" stroke="#ff21b3" stroke-width=".73017908" stroke-linecap="round" stroke-linejoin="round" stroke-miterlimit="10"/><path d="M121.606 111.648c-.022.323-.017.793.017 1.41.03.572.099 1.462.204 2.672" fill="none" stroke="#ff21b3" stroke-width=".73017908" stroke-linecap="round" stroke-linejoin="round" stroke-miterlimit="10"/></svg>