<svg xmlns="http://www.w3.org/2000/svg" width="150.256" height="60.104"><path d="M145.196 6.89c-.265-.026-.66-.004-1.186.064-.524.068-1.297.222-2.318.464-1.02.241-1.829.425-2.426.552-.597.127-1.21.26-1.84.401-.63.141-1.606.388-2.93.742-1.324.353-2.325.645-3.003.876-.678.23-1.304.498-1.88.805a16.46 16.46 0 00-1.685 1.034c-.548.383-1.149.798-1.801 1.246-.653.447-1.302.902-1.947 1.364-.644.462-1.237.928-1.777 1.4-.54.47-1.081.958-1.624 1.462a86.456 86.456 0 00-1.648 1.571 169.22 169.22 0 00-1.643 1.628c-.539.541-1.323 1.395-2.354 2.561-1.032 1.167-1.84 2.036-2.427 2.606l-1.74 1.69a23.043 23.043 0 00-1.59 1.704 28.87 28.87 0 00-1.413 1.832c-.455.64-.955 1.282-1.5 1.925s-1.1 1.283-1.666 1.92a57.034 57.034 0 00-3.03 3.707c-.454.607-.922 1.2-1.403 1.779-.481.58-1.37 1.464-2.668 2.653-1.297 1.19-2.258 2.068-2.882 2.637A16.834 16.834 0 0192.9 47.03c-.654.442-1.318.871-1.992 1.288a67.76 67.76 0 01-1.985 1.183c-.649.372-1.321.716-2.016 1.033-.695.317-1.518.596-2.467.838a26.787 26.787 0 01-5.942.833c-1.056.03-1.953.037-2.69.018a43.393 43.393 0 01-2.9-.198 25.657 25.657 0 01-3.195-.489 32.589 32.589 0 01-2.864-.79 42.803 42.803 0 01-3-1.103 32.81 32.81 0 01-2.92-1.361c-.924-.488-1.856-.983-2.799-1.485a20.97 20.97 0 01-2.507-1.55 19.603 19.603 0 01-2.014-1.68 75.176 75.176 0 01-1.823-1.81 60.662 60.662 0 01-1.774-1.902c-.58-.65-1.114-1.31-1.6-1.98l-1.548-2.143a86.126 86.126 0 00-1.74-2.333 84.926 84.926 0 01-1.787-2.4 49.888 49.888 0 01-1.643-2.438 34.059 34.059 0 00-1.676-2.414 54.942 54.942 0 00-1.946-2.411 57.696 57.696 0 01-1.964-2.43c-.61-.801-1.257-1.582-1.939-2.341a41.134 41.134 0 00-2.27-2.323 88.506 88.506 0 01-2.33-2.294 34.544 34.544 0 00-2.26-2.115 51.188 51.188 0 00-2.408-1.936L22.574 8.54A34.887 34.887 0 0017.98 5.62a49.463 49.463 0 00-2.244-1.115 35.147 35.147 0 00-2.25-.953 26.873 26.873 0 00-2.037-.7 11.17 11.17 0 00-1.577-.358c-.664-.092-1.51-.104-2.534-.037" fill="none" stroke="#007aff" stroke-width="4.8276182599999995" stroke-linecap="round" stroke-linejoin="round" stroke-miterlimit="10"/><path d="M6.77 53.185c.27.026.672.004 1.205-.065s1.317-.226 2.352-.47c1.036-.245 1.857-.432 2.463-.56.606-.13 1.229-.265 1.867-.408.64-.143 1.63-.394 2.974-.752 1.344-.36 2.36-.655 3.048-.889a12.807 12.807 0 001.908-.817c.584-.311 1.154-.661 1.71-1.05.557-.388 1.166-.81 1.828-1.264.663-.454 1.321-.915 1.976-1.384a24.066 24.066 0 001.804-1.42 72.635 72.635 0 001.648-1.484c.551-.511 1.109-1.043 1.673-1.595.565-.552 1.12-1.102 1.667-1.652.547-.55 1.344-1.416 2.39-2.6 1.047-1.184 1.868-2.065 2.463-2.644l1.766-1.715c.58-.564 1.119-1.14 1.614-1.73a29.26 29.26 0 001.435-1.858c.461-.65.969-1.301 1.522-1.954.553-.652 1.116-1.302 1.69-1.948a58.008 58.008 0 003.075-3.763c.462-.615.937-1.217 1.425-1.805.488-.588 1.391-1.486 2.708-2.692 1.317-1.207 2.292-2.1 2.925-2.676a17.097 17.097 0 011.945-1.539 59.975 59.975 0 012.021-1.307 68.792 68.792 0 012.015-1.2 24.737 24.737 0 012.047-1.049c.705-.321 1.54-.604 2.503-.85.963-.245 1.941-.44 2.934-.583a27.078 27.078 0 013.096-.262 51.872 51.872 0 012.732-.018c.748.018 1.729.086 2.942.202 1.213.115 2.294.28 3.243.495.95.215 1.918.482 2.907.803.989.321 2.003.694 3.043 1.12 1.04.425 2.029.885 2.965 1.38.937.496 1.883.999 2.84 1.508.957.51 1.805 1.034 2.545 1.574s1.42 1.108 2.043 1.705a76.11 76.11 0 011.85 1.837 61.64 61.64 0 011.8 1.93c.59.66 1.13 1.33 1.624 2.01.492.679 1.016 1.404 1.57 2.175.556.771 1.145 1.56 1.768 2.368.623.807 1.227 1.619 1.813 2.435a51.024 51.024 0 011.667 2.475 34.62 34.62 0 001.7 2.45c.608.8 1.266 1.616 1.975 2.447a58.433 58.433 0 011.993 2.467c.62.813 1.276 1.605 1.968 2.376a41.8 41.8 0 002.304 2.358 90.27 90.27 0 012.365 2.328 35.095 35.095 0 002.294 2.147c.795.68 1.61 1.334 2.442 1.964l2.36 1.784a35.302 35.302 0 004.662 2.962c.767.404 1.527.782 2.279 1.131.752.35 1.513.673 2.283.968.77.295 1.46.532 2.067.71.609.179 1.142.3 1.601.364" fill="none" stroke="#007aff" stroke-width="4.89961799" stroke-linecap="round" stroke-linejoin="round" stroke-miterlimit="10"/><path d="M.945 27.76c.394.11.773.184 1.137.22.349.034 1.59-.023 3.723-.173M13.196 24.095c.144-.229.151-.438.022-.628a.61.61 0 00-.374-.255 2.737 2.737 0 00-.589-.064 1.785 1.785 0 00-.753.175c-.27.12-.532.3-.788.541-.255.24-.507.57-.755.987-.248.417-.46.938-.638 1.564a10.13 10.13 0 00-.348 1.85 6.636 6.636 0 00.041 1.668c.083.504.284.969.602 1.393.32.425.698.754 1.136.986.438.233.913.37 1.426.413.513.043.998-.023 1.455-.197a4.122 4.122 0 001.26-.762c.381-.335.693-.719.934-1.152.241-.433.412-.938.512-1.513.1-.575.136-1.225.108-1.949a6.658 6.658 0 00-.35-1.956c-.205-.58-.448-.977-.73-1.193-.401-.308-1.025-.133-1.872.523M19.505 32.38h-.076M23.658 23.143c-.394 1.657-.64 2.835-.736 3.534-.066.482-.112.909-.139 1.28-.026.37-.033.748-.023 1.134.01.385.045.61.103.674.058.065.272.108.64.13.531.031 1.592-.175 3.183-.617" fill="none" stroke="#ff21b3" stroke-width="1.8894474599999997" stroke-linecap="round" stroke-linejoin="round" stroke-miterlimit="10"/><path d="M25.881 26.738a9.12 9.12 0 00-.07 1.43c.006.371.02.788.04 1.25.028.663.08 2.253.157 4.769" fill="none" stroke="#ff21b3" stroke-width="1.8894474599999997" stroke-linecap="round" stroke-linejoin="round" stroke-miterlimit="10"/><path d="M69.076 22.379v-.14l.007.06.118 1.162c.074.732.13 1.45.167 2.153.036.704.06 1.424.069 2.16.014 1.088.063 2.397.146 3.928M73.681 30.753l.045-.19M82.059 22.961c-.284-.145-.769-.265-1.455-.359a8.608 8.608 0 00-.95-.092c-.201-.002-.377.038-.53.12a.84.84 0 00-.358.394c-.085.18-.145.437-.18.772a12.34 12.34 0 00-.055 1.132 9.13 9.13 0 00.22 2.106c.061.253.122.445.184.576.06.131.127.108.2-.07.071-.177.164-.356.28-.536.114-.181.253-.328.417-.441.164-.114.333-.182.508-.206.175-.023.36.011.555.104.195.093.397.264.606.514.21.25.4.54.574.868.173.329.31.646.409.952.1.307.167.592.202.857.036.264 0 .531-.103.8-.104.268-.31.52-.62.755-.308.235-.655.393-1.04.473-.385.081-.756.078-1.112-.01-.513-.125-.79-.48-.832-1.066" fill="none" stroke="#7ec636" stroke-width="1.8894474599999997" stroke-linecap="round" stroke-linejoin="round" stroke-miterlimit="10"/><path d="M136.685 26.084c.027-.293.012-.537-.045-.73a1.052 1.052 0 00-.188-.362 1.832 1.832 0 00-.323-.312c-.13-.099-.28-.179-.451-.24-.171-.06-.364-.1-.578-.119-.215-.02-.45.018-.706.11-.256.094-.52.294-.792.602a5.46 5.46 0 00-.753 1.135c-.23.45-.398.998-.503 1.646a12.555 12.555 0 00-.156 2.04 6.59 6.59 0 00.287 1.972c.19.604.447 1.094.77 1.471.324.377.69.62 1.097.729.407.108.824.104 1.252-.013.427-.117.83-.352 1.209-.706.379-.353.682-.814.91-1.382.227-.569.372-1.224.433-1.966a9.864 9.864 0 00-.033-2.08c-.083-.645-.246-1.196-.489-1.653-.243-.458-.497-.824-.761-1.098-.383-.396-.87-.483-1.46-.26M139.675 32.973l-.17-.082M147.335 25.77a3.585 3.585 0 00-.297-1.022 1.251 1.251 0 00-.364-.463 1.06 1.06 0 00-.522-.208 1.544 1.544 0 00-.682.093c-.255.088-.516.26-.782.516s-.52.558-.762.906a8.592 8.592 0 00-.703 1.25 7.21 7.21 0 00-.528 1.696 10.044 10.044 0 00-.187 1.892c0 .615.108 1.147.324 1.595.217.448.514.79.89 1.025.378.235.797.374 1.259.417.462.042.935-.045 1.418-.263a4.344 4.344 0 001.294-.891c.378-.377.694-.844.947-1.402.253-.557.43-1.15.531-1.776a9.362 9.362 0 00.138-1.653c-.009-.475-.112-.872-.308-1.192a1.68 1.68 0 00-.79-.689c-.48-.202-1.147-.131-2.003.211" fill="none" stroke="#ffd300" stroke-width="1.8894474599999997" stroke-linecap="round" stroke-linejoin="round" stroke-miterlimit="10"/></svg>