<svg xmlns="http://www.w3.org/2000/svg" width="143.289" height="60.104"><path d="M140.875 6.89c-.266-.026-.661-.004-1.186.064-.525.068-1.297.222-2.318.464-1.02.241-1.829.425-2.426.552-.597.127-1.21.26-1.84.401-.63.141-1.606.388-2.93.742-1.324.353-2.325.645-3.003.876-.678.23-1.304.498-1.88.805-.575.307-1.137.651-1.685 1.034s-1.149.798-1.801 1.246c-.653.447-1.302.902-1.947 1.364-.644.462-1.237.928-1.777 1.4-.54.47-1.081.958-1.624 1.462a86.24 86.24 0 00-1.649 1.571c-.556.544-1.103 1.087-1.642 1.628-.539.541-1.324 1.395-2.355 2.561-1.03 1.167-1.84 2.036-2.426 2.606l-1.74 1.69a23.026 23.026 0 00-1.59 1.704c-.487.581-.959 1.191-1.414 1.832-.454.64-.954 1.282-1.5 1.925-.544.643-1.1 1.283-1.665 1.92a57.025 57.025 0 00-3.03 3.707c-.454.607-.922 1.2-1.403 1.779-.481.58-1.37 1.464-2.668 2.653-1.298 1.19-2.258 2.068-2.882 2.637a16.826 16.826 0 01-1.916 1.516c-.654.442-1.318.871-1.992 1.288a67.76 67.76 0 01-1.985 1.183c-.65.372-1.321.716-2.016 1.033-.696.317-1.518.596-2.467.838a26.787 26.787 0 01-5.942.833c-1.056.03-1.953.037-2.69.018a43.401 43.401 0 01-2.9-.198 25.671 25.671 0 01-3.195-.488 32.615 32.615 0 01-2.865-.791 42.803 42.803 0 01-2.998-1.103 32.789 32.789 0 01-2.922-1.361c-.923-.488-1.855-.983-2.798-1.485a20.97 20.97 0 01-2.507-1.55 19.603 19.603 0 01-2.014-1.68 75.442 75.442 0 01-1.823-1.81 60.662 60.662 0 01-1.774-1.902c-.58-.65-1.114-1.31-1.6-1.98-.485-.67-1.001-1.384-1.548-2.143a86.55 86.55 0 00-1.74-2.333 84.822 84.822 0 01-1.787-2.4 49.992 49.992 0 01-1.644-2.438 34 34 0 00-1.675-2.414 54.943 54.943 0 00-1.946-2.411 57.698 57.698 0 01-1.964-2.43c-.61-.801-1.257-1.582-1.94-2.341a41.159 41.159 0 00-2.269-2.323 88.28 88.28 0 01-2.33-2.294 34.582 34.582 0 00-2.26-2.115 51.32 51.32 0 00-2.408-1.936l-2.326-1.758A34.834 34.834 0 0013.66 5.62a49.465 49.465 0 00-2.244-1.114 35.206 35.206 0 00-2.25-.953 26.877 26.877 0 00-2.037-.7c-.599-.176-1.125-.295-1.577-.358-.664-.092-1.51-.104-2.534-.037" fill="none" stroke="#007aff" stroke-width="4.8276182599999995" stroke-linecap="round" stroke-linejoin="round" stroke-miterlimit="10"/><path d="M2.45 53.185c.27.026.671.004 1.204-.065.533-.069 1.317-.226 2.352-.47a116.32 116.32 0 012.463-.56c.606-.13 1.229-.265 1.867-.408.64-.143 1.63-.394 2.974-.753 1.344-.358 2.36-.655 3.048-.888a12.814 12.814 0 001.908-.817c.584-.311 1.154-.661 1.71-1.05.557-.388 1.166-.81 1.828-1.264.663-.454 1.321-.915 1.976-1.384a24.104 24.104 0 001.804-1.42 72.814 72.814 0 001.648-1.484c.551-.511 1.109-1.043 1.673-1.595.565-.552 1.12-1.102 1.667-1.652.547-.55 1.344-1.416 2.39-2.6 1.047-1.184 1.868-2.065 2.463-2.644l1.766-1.715c.58-.564 1.119-1.14 1.614-1.73.494-.589.973-1.208 1.434-1.858.462-.65.97-1.301 1.523-1.954.553-.652 1.116-1.302 1.69-1.948a57.847 57.847 0 003.075-3.763c.462-.615.937-1.217 1.425-1.805.488-.588 1.391-1.486 2.708-2.692a1667.93 1667.93 0 012.925-2.676 17.097 17.097 0 011.945-1.539 59.86 59.86 0 012.021-1.307 68.47 68.47 0 012.015-1.2 24.736 24.736 0 012.047-1.049c.705-.321 1.54-.604 2.503-.85.963-.245 1.941-.44 2.934-.583a27.078 27.078 0 013.096-.262 51.869 51.869 0 012.732-.018c.748.018 1.729.086 2.942.202 1.213.115 2.294.28 3.243.495.949.215 1.918.482 2.907.803.988.321 2.003.694 3.043 1.12 1.04.425 2.029.886 2.965 1.38l2.84 1.508a21.28 21.28 0 012.544 1.574c.74.54 1.421 1.108 2.044 1.705.622.597 1.24 1.21 1.85 1.837a61.64 61.64 0 011.8 1.93c.59.66 1.13 1.33 1.624 2.01.492.679 1.016 1.404 1.57 2.175.556.771 1.145 1.56 1.768 2.368.623.807 1.227 1.619 1.812 2.435a50.94 50.94 0 011.668 2.475c.526.834 1.093 1.65 1.7 2.45.608.8 1.266 1.616 1.975 2.448a58.385 58.385 0 011.993 2.466c.62.813 1.276 1.605 1.968 2.376a41.8 41.8 0 002.304 2.358 90.156 90.156 0 012.365 2.328 35.095 35.095 0 002.294 2.147c.795.68 1.609 1.334 2.442 1.964l2.36 1.784a35.366 35.366 0 004.662 2.962 50.56 50.56 0 002.279 1.131c.752.35 1.513.673 2.283.968.77.295 1.459.532 2.067.71.609.179 1.142.3 1.601.364" fill="none" stroke="#007aff" stroke-width="4.89961799" stroke-linecap="round" stroke-linejoin="round" stroke-miterlimit="10"/><path d="M4.457 24.043c.04.148.014.251-.078.31-.064.042-.133-.046-.207-.264a3.942 3.942 0 01-.166-.745 9.515 9.515 0 01-.07-.973c-.01-.37-.012-.727-.007-1.071s.041-.677.108-1c.067-.32.15-.638.252-.952.101-.314.214-.617.337-.91.124-.292.259-.56.405-.803.147-.243.31-.464.492-.662s.376-.354.582-.469c.205-.114.415-.194.63-.238.214-.045.43-.07.645-.074.215-.004.42.05.617.163s.395.26.594.439c.2.179.4.414.6.707.202.292.39.63.565 1.014.174.384.32.789.437 1.215.116.426.19.851.223 1.276.032.424.05.812.053 1.163.005.521-.15.93-.466 1.229" fill="none" stroke="#ff21b3" stroke-width="1.8894474599999997" stroke-linecap="round" stroke-linejoin="round" stroke-miterlimit="10"/><path d="M4.187 20.99c.714.07 1.435.101 2.163.092.712-.01 1.621-.113 2.73-.312" fill="none" stroke="#ff21b3" stroke-width="1.8894474599999997" stroke-linecap="round" stroke-linejoin="round" stroke-miterlimit="10"/><path d="M8.022 32.916l.068 6.47M3.918 32.518c.446-.028 1.281-.236 2.505-.622s2.078-.624 2.562-.713c.483-.088.92-.147 1.31-.176a24.526 24.526 0 012.137-.044" fill="none" stroke="#007aff" stroke-width="1.8894474599999997" stroke-linecap="round" stroke-linejoin="round" stroke-miterlimit="10"/><path d="M72.78 14.479c-.492-.301-.855-.455-1.092-.46a1.507 1.507 0 00-.561.114c-.21.08-.43.244-.66.494-.228.249-.438.607-.628 1.074-.19.467-.335.978-.434 1.533-.1.555-.154 1.075-.164 1.56-.01.484.065.921.225 1.31s.388.72.684.995c.297.274.668.428 1.114.46.446.034.895-.108 1.348-.426.665-.468 1.274-1.211 1.829-2.23" fill="none" stroke="#7ec636" stroke-width="1.8894474599999997" stroke-linecap="round" stroke-linejoin="round" stroke-miterlimit="10"/><path d="M73.775 32.42c.037-.383 0-.727-.114-1.034a2.52 2.52 0 00-.224-.478.997.997 0 00-.258-.274c-.1-.071-.324-.105-.671-.1a1.627 1.627 0 00-.893.25c-.247.163-.5.38-.758.65s-.5.57-.728.898a8.699 8.699 0 00-.615 1.034 6.12 6.12 0 00-.647 2.559c-.024.51-.01 1.018.041 1.524a3.7 3.7 0 00.375 1.337c.2.385.439.7.719.947.28.247.595.433.944.558.35.125.71.197 1.078.217.37.02.71-.04 1.023-.179.313-.138.588-.332.826-.581.238-.25.409-.524.513-.823.104-.299.164-.584.181-.853.017-.27-.02-.506-.112-.708a1.554 1.554 0 00-.401-.534 2.435 2.435 0 00-.572-.374 4.456 4.456 0 00-.59-.23 3.292 3.292 0 00-.717-.114c-.291-.02-.445-.03-.46-.03l-.012-.002h.012l.476.01c.301.007.655.001 1.062-.018.598-.029 1.327-.154 2.187-.376M137.772 15.508c.044-.547.037-.926-.022-1.138a1.108 1.108 0 00-.198-.392.817.817 0 00-.41-.259 2.597 2.597 0 00-.644-.106 1.638 1.638 0 00-.787.18c-.279.132-.55.362-.812.69-.263.327-.504.759-.725 1.294-.22.535-.41 1.124-.573 1.766a18.5 18.5 0 00-.37 1.814c-.084.566-.13 1.039-.138 1.417-.009.378.044.82.159 1.326.114.506.277.922.488 1.246.212.325.46.57.742.737.283.166.595.254.937.265.342.01.671-.108.987-.355.317-.247.584-.537.802-.869.217-.332.39-.652.52-.959.128-.308.206-.567.233-.779a1.315 1.315 0 00-.026-.54c-.044-.15-.15-.281-.315-.397a1.678 1.678 0 00-.554-.25 4.678 4.678 0 00-.845-.108l-.416-.031.037-.004.805-.022c.43-.011.833-.03 1.21-.058.547-.04 1.298-.34 2.253-.903" fill="none" stroke="#ffd300" stroke-width="1.8894474599999997" stroke-linecap="round" stroke-linejoin="round" stroke-miterlimit="10"/><path d="M137.386 34.538c.028-.113-.062-.206-.27-.279a2.222 2.222 0 00-.631-.124 3.644 3.644 0 00-.804.074c-.323.06-.654.209-.996.449-.34.24-.679.61-1.014 1.109-.335.5-.603 1.102-.804 1.808a8.28 8.28 0 00-.33 1.988c-.02.619.119 1.11.418 1.473.299.364.75.617 1.356.761.605.144 1.25.223 1.933.238.999.02 2.169-.35 3.51-1.111" fill="none" stroke="#7ec636" stroke-width="1.8894474599999997" stroke-linecap="round" stroke-linejoin="round" stroke-miterlimit="10"/></svg>