<svg xmlns="http://www.w3.org/2000/svg" width="95.83" height="84.963"><path d="M28.598 8.385a72.91 72.91 0 00-4.567 2.16 56.777 56.777 0 00-4.771 2.76c-1.596 1.027-3.218 2.273-4.866 3.739a59.04 59.04 0 00-4.524 4.463 36.539 36.539 0 00-3.752 4.936 38.663 38.663 0 00-2.959 5.635 33.516 33.516 0 00-1.911 5.93 34.821 34.821 0 00-.782 5.974A33.086 33.086 0 00.8 50.185c.31 2.132.815 4.157 1.513 6.076A42.375 42.375 0 004.95 62.05a55.354 55.354 0 003.601 5.722 44.179 44.179 0 004.41 5.25 53.607 53.607 0 005.13 4.588 36.58 36.58 0 005.856 3.757c2.08 1.072 4.2 1.845 6.357 2.32 2.157.475 4.421.762 6.793.86 2.372.097 4.839.008 7.401-.267a40.5 40.5 0 007.663-1.595c2.546-.788 4.235-1.36 5.067-1.714a43.45 43.45 0 002.264-1.038 75.376 75.376 0 002.784-1.484c1.178-.652 2.914-1.688 5.207-3.107a57.021 57.021 0 006.768-4.938 81.82 81.82 0 006.267-5.874 73.09 73.09 0 005.417-6.318 50.302 50.302 0 004.305-6.652 49.032 49.032 0 003.076-6.95 36.214 36.214 0 001.74-7.178c.328-2.42.453-4.694.375-6.825a23.412 23.412 0 00-1.067-6.213 31.32 31.32 0 00-2.514-5.827 22.34 22.34 0 00-3.724-4.97 52.016 52.016 0 00-4.711-4.16 37.234 37.234 0 00-5.5-3.565 48.49 48.49 0 00-6.083-2.716c-2.087-.764-4.338-1.394-6.754-1.888-2.416-.495-4.97-.779-7.66-.853a51.587 51.587 0 00-8.215.441c-2.785.37-5.588.89-8.408 1.562a50.555 50.555 0 00-8.467 2.852 50.388 50.388 0 00-8.171 4.511c-2.623 1.779-5.166 3.843-7.628 6.195a63.188 63.188 0 00-6.885 7.78c-3.141 4.186-6.23 9.519-9.265 15.998" fill="none" stroke="#000" stroke-width=".7556335299999999" stroke-linecap="round" stroke-linejoin="round" stroke-miterlimit="10"/><path d="M48.124 41.66c-.236-.016-.395-.113-.476-.292a1.065 1.065 0 01-.088-.429.706.706 0 01.08-.378 1.18 1.18 0 01.2-.246.5.5 0 01.247-.135.29.29 0 01.244.07c.078.061.139.16.183.295.045.134.074.277.088.428.014.15.015.28.002.386a.557.557 0 01-.18.32.59.59 0 01-.353.182.741.741 0 01-.412-.085 1.055 1.055 0 01-.377-.316 1.043 1.043 0 01-.203-.43 1.971 1.971 0 01-.041-.401.412.412 0 01.112-.294.598.598 0 01.258-.159 1.255 1.255 0 01.676-.008c.104.032.199.088.282.17a.801.801 0 01.187.271c.04.1.065.207.074.322a.642.642 0 01-.056.32.516.516 0 01-.204.231.664.664 0 01-.26.099c-.082.01-.146-.014-.19-.073a.484.484 0 01-.075-.275.787.787 0 01.048-.322c.036-.09.076-.149.12-.177.045-.027.085.025.119.158.034.133.051.23.052.29l.001.105" fill="none" stroke="#000" stroke-width=".7556335299999999" stroke-linecap="round" stroke-linejoin="round" stroke-miterlimit="10"/><path d="M47.554 40.13l.01.183-.003-.01-.06-.273a15.856 15.856 0 00-.204-.781 79.26 79.26 0 00-.379-1.294c-.154-.514-.308-1.019-.46-1.513a51.334 51.334 0 01-.328-1.088c-.065-.23-.213-.721-.444-1.472a46.76 46.76 0 01-.69-2.5c-.227-.917-.44-1.9-.637-2.947a336.13 336.13 0 01-.592-3.233c-.198-1.108-.402-2.245-.613-3.412-.21-1.167-.434-2.372-.67-3.616-.236-1.244-.474-2.48-.716-3.708a217.9 217.9 0 01-.695-3.7c-.221-1.24-.436-2.459-.643-3.656a221.166 221.166 0 01-.572-3.47M48.516 40.1c-.1.23-.17.419-.207.566-.038.146-.06.252-.065.315l-.008.101c0 .005 0 .002.003-.007l.045-.215c.028-.134.07-.421.127-.861.057-.44.108-.912.154-1.416l.21-2.325c.093-1.046.173-1.98.242-2.803.068-.822.117-1.439.146-1.85.03-.41.105-1.219.226-2.424.12-1.205.262-2.508.425-3.91.163-1.402.35-2.847.56-4.335.21-1.489.43-2.998.66-4.53.228-1.53.445-2.93.65-4.2.204-1.27.408-2.573.613-3.91.204-1.338.412-2.664.624-3.979.211-1.314.435-2.627.671-3.94" fill="none" stroke="#000" stroke-width=".7556335299999999" stroke-linecap="round" stroke-linejoin="round" stroke-miterlimit="10"/><path d="M47.774 81.403a8.666 8.666 0 001.005-.583c.327-.22.674-.47 1.04-.748.366-.28.758-.566 1.177-.86.418-.294.884-.592 1.4-.894a70.775 70.775 0 011.623-.922 48.468 48.468 0 011.784-.933 62.98 62.98 0 012.031-.964c.733-.333 1.47-.681 2.215-1.045.745-.364 1.48-.714 2.205-1.05a52.578 52.578 0 012.074-.91c.967-.397 2.183-.917 3.648-1.559" fill="none" stroke="#7ec636" stroke-width=".93454195" stroke-linecap="round" stroke-linejoin="round" stroke-miterlimit="10"/><path d="M31.339 80.199c.236-.07.597-.237 1.082-.5.305-.165.853-.45 1.644-.857a83.117 83.117 0 001.92-1.011 40.826 40.826 0 001.573-.913c.56-.342 1.194-.723 1.899-1.145a67.586 67.586 0 014.718-2.567c.853-.42 1.728-.877 2.625-1.37.897-.494 1.812-1.016 2.746-1.566a60.096 60.096 0 012.768-1.538c.913-.475 1.836-.931 2.771-1.368.935-.436 1.892-.91 2.87-1.422a257.94 257.94 0 002.916-1.55 78.005 78.005 0 012.89-1.485l2.779-1.355a94.7 94.7 0 002.653-1.348c.879-.464 1.752-.918 2.62-1.362a58.203 58.203 0 012.534-1.224c.822-.371 1.619-.7 2.39-.985 1.138-.42 2.543-.907 4.214-1.46" fill="none" stroke="#7ec636" stroke-width=".79636065" stroke-linecap="round" stroke-linejoin="round" stroke-miterlimit="10"/><path d="M15.975 68.726c-.334.129-.612.245-.834.349-.15.07-.242.118-.276.142l-.064.045c-.009.007-.002.009.02.006l.159-.018c.082-.01.266-.085.551-.227.285-.143.626-.336 1.022-.581.396-.245.893-.566 1.492-.962s1.241-.82 1.926-1.27c.686-.451 1.454-.904 2.306-1.36a64.73 64.73 0 002.696-1.532 80.865 80.865 0 012.845-1.626c.951-.518 1.917-1.026 2.896-1.524.98-.498 1.972-1.04 2.978-1.626a84.9 84.9 0 013.002-1.67c.996-.528 2.07-1.118 3.221-1.769a88.174 88.174 0 013.58-1.914 124.966 124.966 0 013.784-1.835 587.648 587.648 0 003.894-1.826 106.39 106.39 0 013.934-1.766 85.36 85.36 0 003.855-1.75 83.528 83.528 0 013.736-1.7 404.58 404.58 0 003.555-1.532 154.43 154.43 0 003.213-1.444 97.767 97.767 0 012.88-1.283c.91-.388 1.77-.767 2.581-1.138.81-.371 1.622-.76 2.435-1.164.812-.405 1.61-.79 2.392-1.155a35.654 35.654 0 012.328-.99c.77-.295 1.484-.567 2.14-.815.657-.249 1.29-.485 1.899-.71.89-.327 2.185-.751 3.889-1.27M10.354 62.214l-.25-.045c-.014-.002-.005-.008.026-.016l.31-.083c.175-.047.402-.136.681-.267s.752-.402 1.42-.812c.667-.411 1.25-.78 1.748-1.109.499-.328 1.04-.708 1.627-1.14a34.122 34.122 0 011.923-1.31c.696-.443 1.43-.882 2.2-1.317.77-.436 1.556-.89 2.357-1.364.8-.474 1.59-.96 2.37-1.457.78-.497 1.58-.986 2.397-1.465.818-.48 1.633-.97 2.447-1.472a53.006 53.006 0 012.397-1.397c.785-.43 1.581-.824 2.387-1.185a85.914 85.914 0 004.133-1.977c.565-.291 1.078-.56 1.537-.804.672-.359 1.612-.773 2.818-1.242M55.906 36.654a2.481 2.481 0 00-.406.29c-.085.073-.11.107-.077.1l.25-.052c.132-.027.34-.136.625-.324.284-.19.624-.436 1.02-.74s.87-.65 1.421-1.036a23.221 23.221 0 012.044-1.252c.811-.449 1.633-.913 2.464-1.393a58.35 58.35 0 012.717-1.466c.98-.498 1.962-.983 2.947-1.456a44.385 44.385 0 002.852-1.496 74.71 74.71 0 012.821-1.534 84.608 84.608 0 012.946-1.45c1-.468 1.932-.914 2.795-1.336.863-.422 1.67-.804 2.421-1.148.752-.343 1.43-.644 2.037-.901.607-.258 1.174-.501 1.7-.73.778-.34 1.733-.684 2.867-1.033M6.418 54.382l-.267.122c-.005.002-.005.002.004 0l.206-.062c.13-.04.338-.145.626-.317.287-.173.637-.4 1.05-.684.411-.283.888-.62 1.43-1.013.543-.393 1.15-.792 1.823-1.199.672-.407 1.36-.83 2.066-1.27.704-.439 1.436-.893 2.195-1.364.758-.47 1.938-1.135 3.538-1.995 1.6-.86 2.835-1.549 3.705-2.066.87-.517 1.75-1.023 2.644-1.517.893-.494 1.783-.98 2.67-1.46s1.752-.942 2.595-1.384c.844-.443 1.61-.819 2.302-1.13.692-.31 1.293-.562 1.803-.758a77.683 77.683 0 002.736-1.12M55.11 28.127a7.062 7.062 0 00-1.207.655l-.084.063c-.005.003 0 .002.011-.004l.243-.122a7.01 7.01 0 00.672-.414c.299-.2.66-.453 1.085-.76.425-.305.929-.636 1.511-.991a32.264 32.264 0 011.9-1.067c.683-.357 1.404-.742 2.161-1.157a88.49 88.49 0 002.282-1.295 35.176 35.176 0 012.323-1.25c.785-.385 1.543-.755 2.275-1.11.732-.356 1.43-.722 2.093-1.098.664-.376 1.293-.742 1.887-1.096a32.313 32.313 0 012.281-1.21c.927-.454 1.61-.793 2.05-1.016a15.474 15.474 0 011.734-.772M4.633 46.8c-.15-.023-.194-.082-.134-.178.043-.07.251-.214.625-.434.373-.22.77-.448 1.19-.684.42-.236.872-.5 1.356-.794.484-.293.995-.62 1.532-.982a31.04 31.04 0 011.725-1.079c.614-.357 1.617-.97 3.009-1.84 1.392-.87 2.482-1.522 3.27-1.956.786-.435 1.605-.875 2.455-1.322.85-.446 1.708-.932 2.575-1.457a63.443 63.443 0 012.546-1.467c.83-.451 1.652-.893 2.467-1.326a72.66 72.66 0 002.347-1.3c.75-.433 1.458-.821 2.124-1.162a18.77 18.77 0 011.785-.815l1.353-.521a9.739 9.739 0 011.714-.488M55.303 20.53c.6-.414 1.23-.855 1.888-1.322.437-.31.925-.652 1.465-1.028.54-.375 1.143-.766 1.808-1.171a134.62 134.62 0 002.217-1.385 64.303 64.303 0 012.651-1.593 57.85 57.85 0 012.865-1.532 65.29 65.29 0 002.545-1.332c1.102-.612 2.315-1.29 3.64-2.034M5.674 36.36l-.1-.009c-.004 0 .004-.004.025-.01l.242-.073c.14-.042.311-.106.516-.192a6.03 6.03 0 00.783-.424 15.62 15.62 0 001.07-.734c.396-.294.856-.629 1.38-1.007.524-.377 1.088-.79 1.692-1.24.605-.448 1.25-.93 1.936-1.443a23.901 23.901 0 012.335-1.53c.871-.505 1.779-1.033 2.722-1.585a60.561 60.561 0 012.99-1.631c1.048-.536 2.13-1.07 3.244-1.6a98.637 98.637 0 003.218-1.604 64.09 64.09 0 012.792-1.382c.83-.382 1.55-.683 2.162-.9.897-.32 2.107-.691 3.629-1.114M55.029 12.928c-.169.029-.265.009-.287-.061-.017-.05.494-.437 1.532-1.161l2.31-1.615a22.485 22.485 0 011.58-1.008c.55-.32 1.38-.751 2.488-1.292 1.816-.887 3.043-1.447 3.68-1.683M16.134 22.786c.123-.208.356-.454.7-.74a8.23 8.23 0 011.3-.86 78.26 78.26 0 001.539-.866c.501-.29 1.028-.618 1.58-.984a45.244 45.244 0 011.876-1.172c.7-.416 1.477-.848 2.33-1.297.853-.448 1.662-.877 2.427-1.286.765-.409 1.32-.708 1.662-.897.343-.19 1-.515 1.974-.976 1.418-.673 3.506-1.71 6.262-3.115" fill="none" stroke="#7ec636" stroke-width=".7556335299999999" stroke-linecap="round" stroke-linejoin="round" stroke-miterlimit="10"/><path d="M47.339 40.156v.1h0v-.102-2.078c0-1.315-.008-2.19-.024-2.625a42.887 42.887 0 00-.067-1.31 91.38 91.38 0 00-.185-2.166 669.507 669.507 0 01-.2-2.17c-.04-.443-.078-.907-.114-1.393a61.239 61.239 0 00-.128-1.506c-.05-.519-.106-1.04-.165-1.566a34.667 34.667 0 01-.145-1.646 61.186 61.186 0 01-.093-2.254 33.71 33.71 0 00-.092-1.98c-.037-.39-.09-.895-.161-1.515-.07-.62-.113-1.126-.127-1.518a52.506 52.506 0 01-.023-1.636 57.99 57.99 0 00-.015-1.438 5.194 5.194 0 00-.072-.729c-.04-.225-.078-.469-.117-.73-.04-.26-.068-.543-.088-.847a30.07 30.07 0 01-.045-.906c-.01-.3-.023-.582-.04-.842-.017-.261-.053-.62-.107-1.074a102.04 102.04 0 01-.123-1.051 11.186 11.186 0 01-.056-.688c-.01-.213-.012-.455-.005-.726.006-.272.053-.63.141-1.078.088-.447.144-.753.168-.918.023-.165.039-.546.045-1.143.007-.597.005-.948-.008-1.053-.017-.156-.082-.268-.195-.336" fill="none" stroke="#000" stroke-width=".7556335299999999" stroke-linecap="round" stroke-linejoin="round" stroke-miterlimit="10"/><path d="M48.028 33.436l.322-.16M48.055 29.642c-.031-.044-.1-.058-.207-.04l-.114.02c-.003 0 .002-.002.018-.007l.892-.286M47.466 25.844h-.052c-.002 0 .001-.002.012-.007.01-.004.052-.02.122-.05.071-.03.183-.067.336-.114l1.046-.318M47.474 22.33c.072-.066.16-.123.261-.171.146-.069.568-.241 1.266-.518M47.337 17.737l-.092.024c-.002 0 .004-.003.017-.008l.314-.135c.197-.085.38-.16.547-.223a83.81 83.81 0 011.385-.5M46.943 13.789c-.04-.053-.01-.12.09-.2.1-.08.211-.158.334-.234a7.32 7.32 0 011.14-.555c.261-.101.63-.231 1.105-.39.819-.272 1.299-.459 1.44-.56M46.975 9.84c.014-.063.065-.123.152-.179a2.44 2.44 0 01.254-.143c.081-.039.232-.1.452-.184.22-.084.634-.218 1.242-.402a43.66 43.66 0 001.3-.41c.38-.13.855-.334 1.422-.612M47.28 4.904c-.258.002-.364-.01-.32-.038l.241-.144c.128-.077.325-.166.59-.269.265-.102.571-.215.919-.338.347-.124.735-.257 1.163-.4a66.814 66.814 0 012.764-.828" fill="none" stroke="#03468f" stroke-width=".7556335299999999" stroke-linecap="round" stroke-linejoin="round" stroke-miterlimit="10"/><path d="M45.89 30.267l-.138.121M45.133 26.285l.248-.16M44.424 23.254c.023-.132.27-.344.74-.638M43.508 18.927c.195-.152.422-.309.681-.47M43.178 14.897c.014-.063.058-.123.134-.179.109-.08.397-.201.866-.364M42.309 10.658l-.054.009h.001l.058-.004c.051-.004.555-.265 1.512-.784M41.174 5.809c.274-.191.936-.55 1.986-1.077" fill="none" stroke="#a35c00" stroke-width=".7556335299999999" stroke-linecap="round" stroke-linejoin="round" stroke-miterlimit="10"/><path d="M22.435 75.398l-.467.306c-.014.01-.016.012-.006.01l.173-.058a2.35 2.35 0 00.455-.237c.197-.123.482-.319.853-.587a28.66 28.66 0 011.338-.9c.521-.332 1.121-.745 1.8-1.238.679-.494 1.43-1.03 2.251-1.61a34.644 34.644 0 012.517-1.618c.856-.498 1.761-1.033 2.717-1.605a56.238 56.238 0 013.022-1.68c1.06-.55 2.75-1.431 5.072-2.647 2.322-1.216 4.133-2.134 5.433-2.754 1.3-.62 2.596-1.252 3.886-1.894a70.96 70.96 0 013.911-1.803 89.607 89.607 0 003.954-1.793 81.46 81.46 0 013.893-1.759 373.873 373.873 0 003.884-1.655 279.65 279.65 0 013.934-1.668 49.565 49.565 0 013.787-1.403c1.764-.568 4.634-1.447 8.61-2.634" fill="none" stroke="#7ec636" stroke-width=".7556335299999999" stroke-linecap="round" stroke-linejoin="round" stroke-miterlimit="10"/></svg>