<svg xmlns="http://www.w3.org/2000/svg" width="64.976" height="74.266"><path d="M1.865 63.625c.028-.554.027-1.482-.003-2.784-.02-.813-.029-2.189-.03-4.125 0-1.937.014-3.654.044-5.151.03-1.497.052-2.62.065-3.371.012-.751.023-1.5.03-2.248.009-.748.03-1.867.065-3.357.035-1.49.066-2.67.093-3.537a429.4 429.4 0 01.094-2.691c.035-.926.067-1.855.097-2.787a825.53 825.53 0 01.187-5.494c.032-.881.063-1.764.091-2.648.03-.884.048-1.79.058-2.718.01-.928.015-1.847.016-2.757 0-.91-.006-1.797-.02-2.662-.014-.866-.024-1.714-.029-2.546-.005-.831-.007-1.605-.008-2.321 0-.716.005-1.409.016-2.077a86.15 86.15 0 01.05-1.879l.065-1.745c.031-.86.083-1.805.156-2.831M.479 3.301c-.062.049-.095.019-.1-.09-.004-.109.006-.27.031-.483.025-.214.088-.443.189-.689.1-.245.23-.474.388-.687.158-.212.34-.4.548-.562.208-.162.43-.275.669-.339.237-.063.446-.085.625-.066.179.019.402.149.67.39.267.24.5.532.701.875.293.5.68 1.206 1.158 2.116M2.6 63.8c.213-.032.614-.025 1.203.02.59.046 1.155.07 1.696.072.542.002 1.126-.01 1.752-.04.626-.028 1.295-.065 2.009-.112.713-.046 1.469-.08 2.268-.104.799-.023 1.63-.032 2.496-.026.865.005 1.755.022 2.67.052.914.029 1.844.047 2.789.054.945.006 1.87.006 2.774 0 .905-.008 1.831-.04 2.78-.099a125.45 125.45 0 012.948-.144 112.56 112.56 0 013.024-.074c.999-.011 2.532-.017 4.601-.018 2.07-.002 3.586-.004 4.552-.008.965-.004 1.92-.02 2.862-.05.942-.029 1.873-.06 2.791-.096.92-.036 1.828-.065 2.727-.087.898-.022 2.066-.034 3.502-.037 1.436-.002 2.433-.012 2.992-.03.56-.018 1.107-.04 1.644-.068a39.847 39.847 0 011.554-.05c.498-.006.959-.009 1.382-.01.422 0 .78.02 1.072.059.292.04.514.083.665.13M62.161 60.235c.292.117.546.233.76.348.146.078.29.165.436.263.145.098.284.212.418.34.133.13.258.263.372.399.115.136.21.273.287.409.076.136.126.29.15.46.025.17.017.353-.022.55a2.164 2.164 0 01-.249.635 4.067 4.067 0 01-1.014 1.18c-.205.161-.404.3-.598.417-.286.172-.642.413-1.07.724" fill="none" stroke="#fff" stroke-width=".7556335299999999" stroke-linecap="round" stroke-linejoin="round" stroke-miterlimit="10"/><path d="M10.33 69.072c-.112.233-.189.604-.23 1.114-.026.326-.045.713-.057 1.16a83.644 83.644 0 01-.115 2.542" fill="none" stroke="#7ec636" stroke-width=".7556335299999999" stroke-linecap="round" stroke-linejoin="round" stroke-miterlimit="10"/><path d="M24.976 70.264a.42.42 0 01-.166-.225.97.97 0 01-.053-.3c-.001-.1.006-.205.021-.316.016-.112.053-.227.112-.346.06-.12.127-.232.202-.339a.994.994 0 01.249-.252.635.635 0 01.272-.111.488.488 0 01.27.041c.087.04.163.125.225.256.063.131.106.295.128.492.023.197.021.425-.006.686-.027.26-.08.545-.159.853a7.588 7.588 0 01-.31.942 4.21 4.21 0 01-.44.837 2.225 2.225 0 01-.476.526c-.153.112-.286.177-.4.194-.113.018-.195-.017-.245-.104a.698.698 0 01-.077-.338 1.075 1.075 0 01.079-.414.773.773 0 01.179-.294.209.209 0 01.222-.043c.082.029.174.12.274.27.1.153.214.316.341.49.127.173.281.332.462.477.18.144.383.255.607.333.225.078.454.11.69.1.337-.017.873-.374 1.607-1.071" fill="none" stroke="#007aff" stroke-width=".7556335299999999" stroke-linecap="round" stroke-linejoin="round" stroke-miterlimit="10"/><path d="M39.786 69.346c-.099-.013-.173-.072-.224-.178a.957.957 0 01-.084-.379 1.871 1.871 0 01.223-.939c.086-.159.181-.289.285-.39a.642.642 0 01.286-.182c.087-.02.158.017.214.11.055.093.092.233.11.42.019.187.03.428.037.724.005.296.017.495.033.597.017.102.127.155.332.159a1.9 1.9 0 01.522.072c.143.044.289.116.437.216.148.1.269.232.363.397.094.165.15.375.168.629.018.255-.025.55-.13.886-.107.336-.25.626-.432.868-.181.243-.351.405-.509.486-.226.117-.453.055-.682-.186" fill="none" stroke="#ff21b3" stroke-width=".7556335299999999" stroke-linecap="round" stroke-linejoin="round" stroke-miterlimit="10"/><path d="M54.566 66.536a3.79 3.79 0 00-.184.53c-.04.142-.077.366-.112.671a10.975 10.975 0 00-.076 1.27c0 .167.023.31.07.428a.513.513 0 00.21.261.753.753 0 00.34.098c.134.009.292.007.473-.004.265-.018.63-.068 1.092-.15M56.496 68.89c-.029.264-.044.675-.048 1.231-.005.843.009 1.626.041 2.35" fill="none" stroke="#ffd300" stroke-width=".7556335299999999" stroke-linecap="round" stroke-linejoin="round" stroke-miterlimit="10"/><path d="M52.544 61.199a4.643 4.643 0 01-.383-.668 7.856 7.856 0 01-.265-.683c-.106-.302-.211-.625-.317-.971a46.072 46.072 0 01-.479-1.766 45.64 45.64 0 01-.51-2.175 72.836 72.836 0 01-.368-1.95 45.273 45.273 0 01-.313-2.052 54.162 54.162 0 01-.23-2.131 91.201 91.201 0 01-.18-2.42 66.01 66.01 0 01-.109-2.967 95.758 95.758 0 01.013-3.56c.026-1.271.092-2.56.196-3.866a79.95 79.95 0 01.424-4.007c.178-1.364.402-2.668.67-3.911.27-1.243.455-2.052.558-2.427.103-.374.304-.948.603-1.721.298-.773.672-1.642 1.12-2.607.45-.966.75-1.594.902-1.883.218-.414 1.198-2.016 2.941-4.806M57.063 61.413c-.045.011-.089-.09-.13-.303a8.985 8.985 0 00-.142-.624c-.054-.203-.12-.438-.199-.706-.078-.268-.169-.594-.272-.98a84.099 84.099 0 01-.317-1.229c-.109-.434-.213-.91-.312-1.426a23.762 23.762 0 01-.254-1.66 69.148 69.148 0 01-.173-1.598 68.394 68.394 0 01-.149-1.975c-.054-.843-.098-1.65-.133-2.424-.035-.773-.066-1.539-.092-2.298a152.316 152.316 0 01-.087-4.958c-.001-.891.014-1.813.045-2.764a55.933 55.933 0 01.493-5.734c.131-.95.221-1.58.27-1.89.048-.31.136-.779.265-1.406.129-.627.303-1.368.522-2.224.219-.856.463-1.683.732-2.482.269-.8.562-1.498.88-2.098.319-.6.646-1.16.982-1.68a10.858 10.858 0 011.857-2.158" fill="none" stroke="#000" stroke-width=".7556335299999999" stroke-linecap="round" stroke-linejoin="round" stroke-miterlimit="10"/><path d="M57.77 14.94a.48.48 0 00.116.29c.08.106.217.258.413.456.196.197.444.464.742.801a115.6 115.6 0 011.873 2.187" fill="none" stroke="#ffd300" stroke-width=".7556335299999999" stroke-linecap="round" stroke-linejoin="round" stroke-miterlimit="10"/><path d="M36.371 60.837c-.044.015-.104-.05-.18-.193a5.132 5.132 0 01-.229-.508 32.519 32.519 0 01-.313-.84 57.506 57.506 0 00-.469-1.25c-.181-.467-.38-1-.598-1.599a60.484 60.484 0 01-.644-1.872 23.51 23.51 0 01-.574-2.104 42.977 42.977 0 01-.829-5.123 33.248 33.248 0 01-.163-2.753c-.015-.902.027-1.791.127-2.668.1-.876.237-1.73.411-2.56.175-.829.374-1.623.598-2.381.329-1.11.86-2.585 1.594-4.423M40.217 59.905a1.383 1.383 0 01-.309-.513 7.82 7.82 0 01-.244-.86c-.084-.358-.172-.77-.263-1.237a25.098 25.098 0 01-.25-1.575 155.337 155.337 0 01-.442-3.694 67.811 67.811 0 01-.193-2.112c-.058-.754-.1-1.563-.128-2.428a54.712 54.712 0 01-.022-2.569 25.404 25.404 0 01.54-4.806c.23-1.072.605-2.368 1.126-3.888" fill="none" stroke="#000" stroke-width=".7556335299999999" stroke-linecap="round" stroke-linejoin="round" stroke-miterlimit="10"/><path d="M35.303 32.943c.388.3 1 .805 1.833 1.511.833.707 1.74 1.296 2.718 1.769" fill="none" stroke="#ff21b3" stroke-width=".7556335299999999" stroke-linecap="round" stroke-linejoin="round" stroke-miterlimit="10"/><path d="M21.489 60.178a5.348 5.348 0 01-.404-.803c-.123-.301-.355-.876-.696-1.724a22.554 22.554 0 01-.766-2.169 57.497 57.497 0 01-.547-2.095 32.518 32.518 0 01-.493-2.416 23.88 23.88 0 01-.272-2.306c-.071-1.076-.037-2.26.102-3.553M25.192 59.897a6.15 6.15 0 01-.382-1.14 67.626 67.626 0 01-.255-1.07 32.577 32.577 0 01-.545-3.167 23.086 23.086 0 01-.098-4.9" fill="none" stroke="#000" stroke-width=".7556335299999999" stroke-linecap="round" stroke-linejoin="round" stroke-miterlimit="10"/><path d="M19.348 45.067c-.04.106.025.31.197.615.108.193.292.423.55.69.37.382 1.36 1.2 2.969 2.455" fill="none" stroke="#007aff" stroke-width=".7556335299999999" stroke-linecap="round" stroke-linejoin="round" stroke-miterlimit="10"/><path d="M7.742 60.241c-.064-.006-.125-.043-.186-.114-.06-.07-.122-.196-.184-.377a4.7 4.7 0 01-.171-.717 8.85 8.85 0 01-.108-.976c-.02-.353-.029-.716-.024-1.087.006-.542.167-1.28.482-2.211M9.76 60.105a2.196 2.196 0 01-.412-.95 7.642 7.642 0 01-.118-.782 6.566 6.566 0 01-.003-.626c.013-.382.146-.78.401-1.19" fill="none" stroke="#000" stroke-width=".7556335299999999" stroke-linecap="round" stroke-linejoin="round" stroke-miterlimit="10"/><path d="M8.503 54.64l-.246-.119c-.01-.005.004.008.044.037l.5.36c.427.31.99.798 1.692 1.468" fill="none" stroke="#7ec636" stroke-width=".7556335299999999" stroke-linecap="round" stroke-linejoin="round" stroke-miterlimit="10"/></svg>