<svg xmlns="http://www.w3.org/2000/svg" width="95.83" height="84.945"><path d="M28.598 8.367a72.91 72.91 0 00-4.567 2.16 56.777 56.777 0 00-4.771 2.76c-1.596 1.027-3.218 2.273-4.866 3.74a59.04 59.04 0 00-4.524 4.462 36.539 36.539 0 00-3.752 4.936A38.663 38.663 0 003.16 32.06a33.516 33.516 0 00-1.911 5.93 34.821 34.821 0 00-.782 5.974A33.086 33.086 0 00.8 50.167c.31 2.132.815 4.158 1.513 6.077a42.375 42.375 0 002.635 5.788 55.354 55.354 0 003.601 5.722 44.179 44.179 0 004.41 5.25 53.607 53.607 0 005.13 4.588 36.58 36.58 0 005.856 3.757c2.08 1.072 4.2 1.846 6.357 2.32 2.157.476 4.421.762 6.793.86 2.372.097 4.839.008 7.401-.267a40.5 40.5 0 007.663-1.595c2.546-.788 4.235-1.36 5.067-1.714a43.45 43.45 0 002.264-1.038 75.376 75.376 0 002.784-1.483c1.178-.653 2.914-1.689 5.207-3.108a57.021 57.021 0 006.768-4.938 81.82 81.82 0 006.267-5.874 73.09 73.09 0 005.417-6.318 50.302 50.302 0 004.305-6.652 49.032 49.032 0 003.076-6.95 36.214 36.214 0 001.74-7.178c.328-2.42.453-4.694.375-6.825a23.412 23.412 0 00-1.067-6.213 31.32 31.32 0 00-2.514-5.827 22.34 22.34 0 00-3.724-4.97 52.016 52.016 0 00-4.711-4.16 37.234 37.234 0 00-5.5-3.565A48.49 48.49 0 0071.83 3.14c-2.087-.765-4.338-1.395-6.754-1.889-2.416-.494-4.97-.779-7.66-.853a51.587 51.587 0 00-8.215.442c-2.785.369-5.588.89-8.408 1.561a50.555 50.555 0 00-8.467 2.852 50.388 50.388 0 00-8.171 4.511c-2.623 1.779-5.166 3.844-7.628 6.195a63.188 63.188 0 00-6.885 7.78c-3.141 4.186-6.23 9.519-9.265 15.998" fill="none" stroke="#fff" stroke-width=".7556335299999999" stroke-linecap="round" stroke-linejoin="round" stroke-miterlimit="10"/><path d="M49.533 41.91c-.276.116-.472.036-.588-.24a1.677 1.677 0 01-.111-.703c.008-.274.058-.453.15-.538.092-.085.25-.138.472-.161.224-.023.396.026.518.146.121.12.218.268.29.443.07.175.113.376.126.604a1.92 1.92 0 01-.087.684 1.364 1.364 0 01-.315.556.989.989 0 01-.463.28 2.19 2.19 0 01-.561.066c-.204-.001-.386-.05-.545-.147-.16-.097-.316-.276-.468-.538-.153-.262-.241-.497-.264-.703a2.393 2.393 0 01-.002-.567.853.853 0 01.264-.49 1.819 1.819 0 011.042-.53c.176-.021.326-.02.451.001.126.023.221.107.288.254.066.147.103.306.11.477.006.17-.035.391-.124.661-.088.27-.197.467-.327.59a.69.69 0 01-.43.205.69.69 0 01-.449-.125.89.89 0 01-.315-.357 1.091 1.091 0 01-.112-.415.495.495 0 01.123-.357c.088-.104.2-.194.335-.27.135-.076.261-.124.378-.144a.745.745 0 01.301.003c.084.022.153.144.206.368.054.224.073.377.057.461-.015.084-.131.159-.348.226-.216.067-.388.087-.517.06-.129-.028-.192-.157-.192-.389.001-.231.05-.388.145-.472.095-.083.158-.037.187.138l.049.294c.004.02.006.025.01.015l.086-.277" fill="none" stroke="#fff" stroke-width=".7556335299999999" stroke-linecap="round" stroke-linejoin="round" stroke-miterlimit="10"/><path d="M49.193 40.12c-.092-.088-.156-.267-.192-.537a12.182 12.182 0 01-.064-.63c-.02-.245-.035-.518-.046-.818-.011-.3-.017-1.156-.018-2.57-.002-1.413.002-2.288.011-2.624.01-.336.015-.944.016-1.824 0-.88-.001-1.719-.006-2.517a37.04 37.04 0 00-.032-1.641 13.64 13.64 0 00-.145-1.212 15.18 15.18 0 01-.151-1.256c-.022-.324-.034-1.872-.036-4.643a737.165 737.165 0 00-.01-4.451c-.003-.196-.022-.521-.054-.975-.033-.454-.052-.92-.059-1.398-.005-.478.014-.89.06-1.234.047-.345.09-.8.128-1.364l.101-1.442c.029-.396.046-.848.052-1.355.005-.507.008-.988.008-1.444 0-.456.01-.776.028-.96.018-.186.028-.489.029-.91 0-.422-.02-.785-.062-1.091a9.594 9.594 0 01-.07-1.144 20.502 20.502 0 01-.003-.802l.007-.136M48.842 42.008a.434.434 0 01.15.21c.019.056.055.085.107.087.053.003.096-.029.129-.093a.292.292 0 01.121-.135l.078-.04c.004-.002.004-.001.002.002l-.046.062a.5.5 0 01-.073.082c-.02.017-.022.025-.005.024l.126-.002c.067 0 .113-.014.139-.04a.238.238 0 00.054-.127c.01-.06.02-.098.03-.118l.017-.034c.002-.003 0 .003-.003.018l-.046.17a1.06 1.06 0 00-.044.33v.003l.002-.021.017-.182.017-.188c.003-.024 0-.03-.007-.017l-.067.114a1.31 1.31 0 01-.156.207.47.47 0 01-.164.134c-.043.015-.077-.01-.101-.076-.025-.065-.053-.094-.084-.086a.194.194 0 00-.097.069c-.046.053.023.07.206.05M49.222 43.1v-.333V43.12c0 .217.018.458.052.724.034.266.074.64.12 1.12.046.481.083.892.112 1.232.028.34.071.802.129 1.387.057.584.097 1.058.12 1.422a43.884 43.884 0 01.078 2.03c.005.285.01.536.02.754.008.219.036.693.085 1.424.049.73.086 1.442.111 2.134.025.692.056 1.278.093 1.756.036.479.067.855.09 1.13.025.274.052.803.083 1.586.03.783.054 1.308.07 1.576.016.267.03.668.044 1.201.014.534.021 1.182.022 1.944 0 .762.004 1.269.011 1.52.007.253.027.583.059.99.032.409.053.704.062.886.01.183.015.376.016.58 0 .205.021.621.06 1.251.04.63.063 1.121.068 1.474.005.353.012.604.02.751.008.148.028.359.06.633s.06.81.087 1.607c.025.797.046 1.332.062 1.606s.025 1.203.026 2.789c0 1.585.007 2.514.02 2.785.012.271.018.545.019.822 0 .277-.055.408-.165.394M47.412 40.805l.215.214v.001l-.02-.021-.495-.513c-.314-.325-.605-.61-.874-.857a18.917 18.917 0 01-.82-.801 21.846 21.846 0 01-.594-.631 16.296 16.296 0 00-.673-.687c-.33-.325-.61-.607-.837-.846a6.349 6.349 0 00-.508-.493 8.903 8.903 0 00-.49-.36 6.95 6.95 0 01-.733-.607c-.274-.254-.47-.435-.589-.54a15.778 15.778 0 00-.489-.416 19.95 19.95 0 01-.71-.618c-.266-.24-.585-.501-.958-.782-.374-.28-.628-.477-.762-.59a8.449 8.449 0 01-.418-.377c-.144-.138-.335-.33-.574-.576a23.736 23.736 0 00-.51-.515 7.135 7.135 0 01-.454-.508 16.53 16.53 0 00-.785-.858 12.52 12.52 0 00-.834-.797c-.236-.2-.468-.397-.698-.589-.23-.192-.53-.457-.902-.796-.372-.338-.622-.569-.751-.693-.13-.124-.316-.317-.56-.58-.244-.264-.43-.457-.558-.578a14.351 14.351 0 00-.63-.547c-.29-.244-.585-.49-.882-.738a32.157 32.157 0 00-.891-.719 13.88 13.88 0 01-.929-.795 97.655 97.655 0 01-1.401-1.342c-.614-.596-.988-.949-1.122-1.06a9.116 9.116 0 00-.58-.43 5.137 5.137 0 01-.566-.44 5.657 5.657 0 01-.512-.595 6.912 6.912 0 00-.453-.545 4.548 4.548 0 00-.421-.35c-.197-.148-.404-.32-.623-.513a6.6 6.6 0 00-.551-.447 4.318 4.318 0 01-.457-.373 4.839 4.839 0 00-.447-.373 6.374 6.374 0 00-.394-.266 4.194 4.194 0 01-.463-.35 6.977 6.977 0 01-.964-1.024c-.008-.01-.006-.012.005-.002l.274.207" fill="none" stroke="#fff" stroke-width=".7556335299999999" stroke-linecap="round" stroke-linejoin="round" stroke-miterlimit="10"/><path d="M65.79 42.956c.001.11-.006.148-.02.113l-.077-.194c-.041-.104-.079-.313-.114-.629a17.4 17.4 0 01-.08-1.148c-.018-.45-.03-.906-.035-1.368a33.56 33.56 0 01.01-1.343c.013-.433.048-.795.104-1.084.056-.29.132-.54.228-.75.096-.211.21-.38.342-.508.132-.127.283-.217.455-.268.171-.052.351-.067.54-.047.187.02.38.103.575.248.195.145.39.333.587.563.196.23.384.51.565.842.18.332.333.71.46 1.135.127.426.228.868.303 1.328a17.108 17.108 0 01.188 3.142M66.302 39.971a19.53 19.53 0 011.99-.397" fill="none" stroke="#7ec636" stroke-width=".7556335299999999" stroke-linecap="round" stroke-linejoin="round" stroke-miterlimit="10"/><path d="M51.295 8.693c.03-.108.22-.357.566-.747l.65-.732c.087-.099.345-.35.774-.755.63-.595 1.45-1.33 2.457-2.204M50.741 15.326c-.032-.026-.028-.067.012-.122.04-.056.197-.197.472-.423.274-.226.471-.392.592-.497.12-.106.383-.361.787-.766.404-.406.87-.842 1.397-1.31a67.202 67.202 0 001.72-1.587 42.222 42.222 0 011.882-1.688 84.447 84.447 0 011.861-1.528 37.78 37.78 0 011.727-1.301 78.38 78.38 0 002.883-2.16M51.865 21.84c.028-.123.134-.294.32-.514.184-.22.61-.612 1.275-1.175a38.293 38.293 0 001.537-1.356c.358-.34.88-.8 1.563-1.382a65.22 65.22 0 001.99-1.761c.642-.593 1.306-1.202 1.993-1.826.687-.625 1.727-1.512 3.119-2.66 1.392-1.148 2.396-1.951 3.012-2.41.921-.686 1.89-1.385 2.909-2.099M51.755 28.414c-.196.159-.277.231-.243.217l.181-.078c.097-.041.266-.158.508-.35.241-.193.548-.466.92-.82a49.3 49.3 0 011.275-1.168 85.072 85.072 0 001.618-1.479 52.77 52.77 0 011.913-1.7c.675-.573 1.37-1.176 2.083-1.81.713-.633 1.494-1.326 2.341-2.08a78.39 78.39 0 012.31-1.982 56.999 56.999 0 001.444-1.215c.272-.24.793-.661 1.565-1.261a98.4 98.4 0 012.259-1.706c.733-.537 1.404-1 2.012-1.389.608-.388 1.169-.751 1.684-1.089.764-.5 1.657-.974 2.68-1.42M52.81 34.156c-.13.13-.203.217-.217.257-.01.029.024.032.104.009.08-.023.193-.084.341-.182.148-.099.367-.28.657-.544.29-.264.62-.596.992-.996s.821-.855 1.348-1.365a168.37 168.37 0 001.797-1.767 98.758 98.758 0 014.73-4.404c.917-.8 1.872-1.601 2.866-2.405.994-.804 1.86-1.485 2.598-2.043l1.568-1.184c.307-.232.892-.665 1.756-1.298.863-.633 1.718-1.249 2.565-1.846.846-.598 1.399-.975 1.658-1.13.258-.157.623-.347 1.092-.573.682-.328 1.795-.802 3.338-1.424M54.356 40.693l-.116.039c-.004.001-.004.001 0 .001l.067-.002c.04-.002.144-.062.309-.182s.337-.26.517-.423c.18-.162.431-.406.756-.73.324-.326.693-.711 1.107-1.156.414-.445.864-.899 1.35-1.36a208.59 208.59 0 001.581-1.527c.57-.555 1.204-1.157 1.902-1.806a83.282 83.282 0 012.109-1.897c.708-.616 1.448-1.254 2.219-1.914.77-.66 1.56-1.334 2.366-2.02a48.683 48.683 0 011.91-1.563c.465-.355.902-.701 1.31-1.04.41-.337 1.054-.865 1.935-1.581.88-.717 1.737-1.401 2.57-2.053a72.92 72.92 0 012.411-1.812 44.388 44.388 0 012.168-1.47c.979-.618 2.46-1.464 4.444-2.536M53.5 50.357c.12-.188.401-.487.846-.896.275-.253.484-.447.625-.58.141-.135.285-.265.431-.39.146-.126.386-.339.72-.639.335-.3.692-.64 1.073-1.021.382-.381.778-.742 1.19-1.083.602-.5 1.415-1.187 2.44-2.06M74.734 34.484c-.05.032-.079.052-.09.06-.008.004.004 0 .036-.013l.208-.089c.107-.045.263-.141.466-.287a12.448 12.448 0 001.586-1.388c.301-.31.62-.626.955-.95.336-.324.7-.669 1.088-1.033.39-.365.793-.74 1.21-1.123.419-.384.847-.74 1.286-1.07a26.4 26.4 0 001.312-1.053 47.14 47.14 0 011.321-1.09c.446-.353.87-.697 1.273-1.03l1.201-.995c.398-.33.774-.616 1.128-.859.354-.242.68-.455.977-.638.436-.268 1.057-.563 1.863-.887M55.622 60.328c.193-.11.412-.261.655-.454.159-.126.401-.334.728-.623.326-.29.626-.554.901-.794s.618-.522 1.03-.847c.411-.325.88-.72 1.407-1.183.526-.463 1.08-.943 1.662-1.441.582-.498 1.22-1.057 1.917-1.677a59.01 59.01 0 011.41-1.23c.243-.2.673-.56 1.289-1.078a94.723 94.723 0 012.172-1.765c.833-.66 1.59-1.267 2.273-1.823a48.215 48.215 0 011.399-1.113c.25-.185 1.2-.946 2.853-2.282a320.358 320.358 0 003.764-3.081 158.316 158.316 0 004.844-4.222A62.352 62.352 0 0185.886 35c.863-.721 2.085-1.705 3.664-2.952M56.34 66.657c.25-.192.55-.387.902-.584.231-.13.543-.306.934-.529.392-.223.824-.51 1.296-.862.473-.351 1-.736 1.581-1.153a56.607 56.607 0 001.903-1.43c.686-.538 1.4-1.089 2.144-1.653.743-.565 1.546-1.188 2.41-1.87.863-.682 1.742-1.367 2.638-2.055.896-.689 1.801-1.367 2.715-2.035.915-.668 1.836-1.345 2.762-2.03.927-.684 1.863-1.386 2.81-2.106.946-.72 1.89-1.419 2.83-2.098.941-.679 1.841-1.288 2.7-1.828 1.26-.792 2.972-1.762 5.135-2.911M55.556 73.568c.031-.069.146-.17.345-.306.198-.135.581-.363 1.149-.685l1.516-.859c.443-.25.939-.537 1.487-.857.548-.321 1.11-.674 1.685-1.059a54.43 54.43 0 011.931-1.227c.712-.433 1.47-.912 2.276-1.438a46.027 46.027 0 012.415-1.475c.805-.457 1.614-.932 2.43-1.424 1.2-.725 2.702-1.546 4.504-2.462" fill="none" stroke="#507500" stroke-width=".7556335299999999" stroke-linecap="round" stroke-linejoin="round" stroke-miterlimit="10"/><path d="M19.785 47.565a3.09 3.09 0 00-.042.651c.007.128.047.41.12.845a45.272 45.272 0 01.385 2.905c.077.767.209 1.601.396 2.503M20.082 48.485a1.718 1.718 0 01-.142-.928c.024-.229.1-.429.227-.6a1.18 1.18 0 01.443-.378c.168-.08.335-.116.5-.11a.63.63 0 01.446.217c.13.139.231.312.303.52.072.207.123.415.155.622a5.394 5.394 0 01.058 1.04.675.675 0 01-.055.26c-.03.062.064.087.283.077.22-.01.434.005.644.042a2.221 2.221 0 011.257.74c.184.213.324.454.418.724.095.27.15.564.167.882.016.317-.056.643-.217.976-.161.332-.398.64-.712.922-.313.282-.66.507-1.041.677-.55.246-1.11.134-1.678-.337" fill="none" stroke="#f59a23" stroke-width=".7556335299999999" stroke-linecap="round" stroke-linejoin="round" stroke-miterlimit="10"/><path d="M46.629 80.428a6.668 6.668 0 01-.172-1.14c-.028-.404-.067-.88-.117-1.429-.05-.548-.107-1.15-.171-1.807a128.77 128.77 0 00-.236-2.188c-.093-.802-.185-1.66-.278-2.574a47.852 47.852 0 01-.198-2.831 81.897 81.897 0 01-.067-3.064l-.011-3.253c-.004-1.1-.018-2.23-.043-3.39-.025-1.162-.048-2.312-.071-3.452-.023-1.14-.038-2.211-.044-3.214-.007-1.003.013-1.89.058-2.66.045-.771.116-1.505.213-2.202.147-1.05.356-2.036.626-2.959M39.72 81.458c-.07.058-.135.031-.195-.079-.043-.08-.08-.289-.113-.628-.032-.34-.065-.79-.099-1.35s-.079-1.211-.134-1.956a78.975 78.975 0 01-.203-5.158c-.008-.955-.011-3.915-.012-8.88 0-4.967.007-8.045.024-9.236.018-1.19.042-2.319.075-3.385.033-1.067.07-2.127.111-3.182.06-1.537.243-3.843.547-6.92M33.406 80.865c-.104-.02-.187-.102-.247-.245a1.824 1.824 0 01-.126-.458c-.023-.163-.045-.54-.064-1.13-.02-.59-.037-1.24-.053-1.95a170.62 170.62 0 00-.183-4.943c-.048-.95-.102-1.968-.162-3.056a193.85 193.85 0 01-.156-3.392 157.326 157.326 0 01-.094-3.664 472.071 472.071 0 01-.04-3.96c-.008-1.372-.02-2.743-.035-4.111-.014-1.369-.031-2.77-.05-4.203-.02-1.434-.034-2.854-.042-4.26a272.81 272.81 0 01.002-3.896c.01-1.192.044-2.3.104-3.326.06-1.026.12-1.867.181-2.523.094-1.007.216-1.85.366-2.525M25.963 78.11a6.246 6.246 0 01-.122-.668c-.017-.138-.04-.569-.07-1.29-.03-.722-.09-1.72-.175-2.994a142.698 142.698 0 01-.182-3.102 130.836 130.836 0 01-.12-5.318c-.004-1.338.081-3.366.255-6.084M25.486 39.463c-.145.064-.255.02-.329-.132-.052-.107-.084-.327-.094-.661-.01-.334-.009-.72.005-1.156.014-.436.032-.875.055-1.316.022-.441.036-.918.042-1.43a51.63 51.63 0 00-.065-3.246c-.029-.583-.053-1.15-.073-1.703-.03-.81-.021-1.887.025-3.23M17.979 74.104c-.09-.32-.138-.74-.148-1.258-.005-.336-.004-.73.006-1.182.009-.452.026-.937.053-1.457.026-.52.043-1.083.053-1.691.009-.608.008-1.25-.001-1.927-.01-.676-.022-1.37-.037-2.081-.022-1.046-.018-2.364.012-3.957M17.52 43.722c-.02-.228-.033-.604-.038-1.128a30.66 30.66 0 01.007-1.273c.01-.325.032-.784.064-1.376a800.256 800.256 0 00.21-4.12c.037-.798.087-1.989.15-3.573.062-1.585.114-2.778.155-3.58.041-.8.095-1.577.161-2.328.066-.751.135-1.47.208-2.158.108-1.019.25-2.168.426-3.448M12.229 65.81c-.124-.069-.22-.21-.286-.424-.067-.213-.117-.589-.15-1.126-.032-.538-.062-1.12-.09-1.748-.029-.628-.108-1.8-.237-3.518-.129-1.717-.223-3.093-.281-4.128a99.743 99.743 0 01-.129-3.295 169.45 169.45 0 01-.044-3.546 251.1 251.1 0 01.016-3.534c.014-1.155.04-2.301.08-3.44.04-1.14.084-2.237.133-3.291.048-1.055.096-2.041.142-2.96.047-.918.107-1.736.18-2.453.112-1.078.323-2.106.635-3.083M6.476 53.717c-.068-.197-.129-.528-.181-.993a33.228 33.228 0 01-.138-1.679c-.039-.655-.113-1.663-.221-3.026a154.691 154.691 0 01-.24-3.405c-.074-1.313-.01-3.676.19-7.088" fill="none" stroke="#a35c00" stroke-width=".7556335299999999" stroke-linecap="round" stroke-linejoin="round" stroke-miterlimit="10"/><path d="M40.455 17.191c.106-.067.159-.142.16-.223a.404.404 0 00-.05-.185.67.67 0 00-.186-.21.93.93 0 00-.372-.163 1.84 1.84 0 00-.588-.02 1.752 1.752 0 00-.704.24 2.334 2.334 0 00-.636.548c-.188.23-.348.503-.478.82-.131.317-.217.698-.26 1.142-.042.445-.029.873.04 1.284.068.411.2.776.393 1.094.194.318.446.543.755.674.308.132.643.161 1.004.09.361-.072.72-.247 1.074-.524.524-.41 1.094-.937 1.71-1.582" fill="none" stroke="#007aff" stroke-width=".7556335299999999" stroke-linecap="round" stroke-linejoin="round" stroke-miterlimit="10"/><path d="M45.54 36.05l-.148.03c-.013.002.006-.024.06-.079l.32-.334c.235-.243.71-.57 1.427-.981M42.398 31.937l-.28.162c-.017.01-.022.01-.016 0l.058-.09c.031-.05.118-.15.26-.3.143-.15.337-.357.581-.622.245-.266.541-.555.89-.868a50.16 50.16 0 012.104-1.763M38.698 28.406c.1-.144.249-.319.447-.523.197-.205.448-.431.752-.68l1.08-.885c.417-.341.871-.692 1.363-1.054.72-.53 1.733-1.187 3.042-1.97M32.098 24.487a4.28 4.28 0 01.45-.493c.277-.269.793-.777 1.547-1.524M45.435 16.122c.02-.05.093-.132.22-.248.183-.167.775-.67 1.777-1.507M28.454 19.296a3.39 3.39 0 01.379-.346 20.852 20.852 0 001.342-1.188c.324-.307.714-.646 1.169-1.017.455-.371.95-.783 1.487-1.235a21.327 21.327 0 011.774-1.337 69.108 69.108 0 012.098-1.365 26.336 26.336 0 012.25-1.266 78.93 78.93 0 013.107-1.472 19.455 19.455 0 011.086-.448c.258-.098.915-.317 1.972-.658M26.09 14.714c-.165.085-.23.065-.193-.058.027-.09.138-.226.334-.41a64.792 64.792 0 001.72-1.643c.403-.395.871-.794 1.407-1.198a85.077 85.077 0 011.74-1.275 19.995 19.995 0 011.986-1.247c.699-.385 1.438-.788 2.217-1.21.78-.423 1.574-.807 2.383-1.152.809-.346 1.54-.641 2.191-.885a89.834 89.834 0 011.392-.511c.395-.139 1.872-.44 4.431-.903" fill="none" stroke="#03468f" stroke-width=".7556335299999999" stroke-linecap="round" stroke-linejoin="round" stroke-miterlimit="10"/></svg>