<svg xmlns="http://www.w3.org/2000/svg" width="230.13" height="188.87"><path d="M100.207 19.307c-.08.156-.201.491-.364 1.005-.1.313-.263.767-.49 1.364a79.321 79.321 0 00-.652 1.772c-.207.585-.466 1.24-.777 1.968-.312.727-.615 1.42-.91 2.078-.445.988-.882 1.973-1.311 2.955" fill="none" stroke="#007aff" stroke-width="1.32290413" stroke-linecap="round" stroke-linejoin="round" stroke-miterlimit="10"/><path d="M95.481 30.786c.303.008.68-.009 1.133-.051.453-.043.89-.068 1.309-.078.42-.009.92-.014 1.5-.015.579 0 1.213-.005 1.9-.011a76.063 76.063 0 002.217-.056c.791-.031 1.614-.05 2.47-.056 1.257-.01 2.843-.024 4.759-.043" fill="none" stroke="#f59a23" stroke-width="1.32290413" stroke-linecap="round" stroke-linejoin="round" stroke-miterlimit="10"/><path d="M110.798 29.953c.076.102.162.158.257.166.066.006.083-.005.052-.034l-.234-.217a38.13 38.13 0 00-.934-.806 20.143 20.143 0 01-1.338-1.232c-.394-.4-.841-.837-1.342-1.309-.501-.471-1.033-.977-1.595-1.515a64.83 64.83 0 01-1.62-1.607l-1.37-1.405a47.184 47.184 0 01-1.934-2.114" fill="none" stroke="#ff9797" stroke-width="1.32290413" stroke-linecap="round" stroke-linejoin="round" stroke-miterlimit="10"/><path d="M135.894 38.598c-.106-.111-.347-.31-.725-.597-.23-.174-.558-.443-.985-.807a70 70 0 00-1.276-1.06 29.26 29.26 0 01-1.401-1.224c-.51-.472-.995-.927-1.453-1.366-.688-.658-1.375-1.31-2.062-1.955" fill="none" stroke="#fcfcfc" stroke-width="1.16290473" stroke-linecap="round" stroke-linejoin="round" stroke-miterlimit="10"/><path d="M127.778 31.306a8.578 8.578 0 00-.29.954c-.099.388-.206.756-.322 1.107-.116.35-.258.765-.428 1.246-.17.48-.354 1.006-.55 1.577a66.727 66.727 0 00-.607 1.853 69.734 69.734 0 01-.68 2.062c-.362 1.044-.817 2.362-1.365 3.954" fill="none" stroke="#fdff85" stroke-width="1.16290473" stroke-linecap="round" stroke-linejoin="round" stroke-miterlimit="10"/><path d="M123.96 44.237c-.107.033-.178.088-.213.164-.025.053-.02.07.013.053l.248-.13c.133-.07.447-.248.943-.536.495-.289.967-.537 1.414-.746.448-.208.94-.45 1.479-.726.538-.276 1.113-.568 1.724-.875a57.007 57.007 0 011.808-.868l1.567-.722a41.5 41.5 0 012.32-.98" fill="none" stroke="#007355" stroke-width="1.16290473" stroke-linecap="round" stroke-linejoin="round" stroke-miterlimit="10"/><path d="M97.395 54.214c.12.114.391.314.813.6.257.174.625.444 1.105.81.48.367.956.723 1.43 1.068.475.345 1 .756 1.576 1.234.575.478 1.121.94 1.638 1.384.776.668 1.551 1.33 2.326 1.983" fill="none" stroke="#007355" stroke-width="1.2509044" stroke-linecap="round" stroke-linejoin="round" stroke-miterlimit="10"/><path d="M106.529 61.584c.089-.272.175-.619.258-1.04.084-.423.178-.825.282-1.208.104-.382.234-.837.39-1.363.154-.526.321-1.1.5-1.726.18-.624.361-1.3.546-2.025.185-.725.39-1.476.613-2.253.33-1.142.743-2.584 1.241-4.325" fill="none" stroke="#b1ff00" stroke-width="1.2509044" stroke-linecap="round" stroke-linejoin="round" stroke-miterlimit="10"/><path d="M109.894 47.477c.112-.041.186-.104.22-.189.022-.057.017-.076-.018-.056l-.26.154c-.138.082-.465.292-.981.63s-1.009.632-1.477.881c-.469.25-.985.538-1.547.865-.562.327-1.163.673-1.803 1.038-.64.364-1.27.71-1.892 1.036l-1.642.864c-.7.371-1.512.766-2.436 1.184" fill="none" stroke="#ff9797" stroke-width="1.2509044" stroke-linecap="round" stroke-linejoin="round" stroke-miterlimit="10"/><path d="M81.75 14.14a53.698 53.698 0 00-3.01 3.364 47.343 47.343 0 00-2.9 3.934 50.94 50.94 0 00-2.592 4.357c-.781 1.477-1.461 3.001-2.04 4.574-.58 1.572-.95 2.646-1.112 3.219-.162.573-.29 1.087-.385 1.542-.096.455-.24 1.834-.435 4.136-.193 2.303-.232 4.386-.116 6.25a27.63 27.63 0 00.89 5.46 28.991 28.991 0 001.812 4.97 33.025 33.025 0 002.621 4.516 34.947 34.947 0 003.42 4.215 41.048 41.048 0 004.004 3.706 35.334 35.334 0 004.53 3.105 37.894 37.894 0 005.168 2.476 28.91 28.91 0 005.7 1.578c1.97.335 4.002.513 6.096.535a37.237 37.237 0 006.427-.507c2.19-.36 4.328-.851 6.414-1.474a71.299 71.299 0 006.232-2.183 59.63 59.63 0 006.248-2.962 69.693 69.693 0 006.156-3.784 56.957 56.957 0 005.902-4.68 65.692 65.692 0 005.471-5.57c1.721-1.974 2.809-3.24 3.263-3.798.455-.558.858-1.088 1.208-1.59.351-.502 1.193-2.005 2.524-4.509 1.332-2.504 2.25-4.645 2.757-6.424a24.61 24.61 0 00.917-5.213 20.79 20.79 0 00-.349-5.202 25.232 25.232 0 00-1.666-5.327 27.065 27.065 0 00-2.855-5.028 28.888 28.888 0 00-3.892-4.385 42.232 42.232 0 00-4.849-3.833 45.795 45.795 0 00-5.55-3.238 68.394 68.394 0 00-6.152-2.654 59.251 59.251 0 00-6.847-2.102 43.098 43.098 0 00-7.245-1.129 46.813 46.813 0 00-7.45.09c-2.53.228-5.07.666-7.618 1.312a83.892 83.892 0 00-7.203 2.159c-3.277 1.152-8 3.77-14.17 7.854" fill="none" stroke="#fcfcfc" stroke-width=".7556335299999999" stroke-linecap="round" stroke-linejoin="round" stroke-miterlimit="10"/><path d="M172.637 130.514c-.099.312-.262.767-.49 1.364a79.321 79.321 0 00-.651 1.772c-.207.585-.466 1.24-.778 1.968-.311.727-.615 1.42-.91 2.078-.444.988-.881 1.973-1.31 2.955" fill="none" stroke="#007aff" stroke-width="1.32290413" stroke-linecap="round" stroke-linejoin="round" stroke-miterlimit="10"/><path d="M168.276 140.988c.302.008.68-.01 1.133-.051.453-.043.89-.069 1.309-.078.419-.01.919-.014 1.499-.015.58-.001 1.213-.005 1.9-.011a76.063 76.063 0 002.218-.056c.791-.031 1.614-.05 2.469-.057 1.257-.01 2.844-.024 4.76-.042" fill="none" stroke="#f59a23" stroke-width="1.32290413" stroke-linecap="round" stroke-linejoin="round" stroke-miterlimit="10"/><path d="M183.592 140.155c.076.102.162.158.258.166.065.006.082-.005.051-.034l-.234-.217a38.13 38.13 0 00-.934-.806 20.143 20.143 0 01-1.337-1.233c-.394-.4-.842-.836-1.343-1.308-.5-.471-1.032-.977-1.594-1.515a64.83 64.83 0 01-1.62-1.607l-1.37-1.405a47.184 47.184 0 01-1.934-2.114" fill="none" stroke="#ff9797" stroke-width="1.32290413" stroke-linecap="round" stroke-linejoin="round" stroke-miterlimit="10"/><path d="M208.689 148.8c-.106-.112-.348-.31-.725-.597-.23-.174-.558-.443-.986-.807a70 70 0 00-1.276-1.061 29.26 29.26 0 01-1.4-1.223c-.511-.472-.996-.927-1.454-1.366-.687-.659-1.374-1.31-2.061-1.955" fill="none" stroke="#fcfcfc" stroke-width="1.16290473" stroke-linecap="round" stroke-linejoin="round" stroke-miterlimit="10"/><path d="M200.573 141.508a8.578 8.578 0 00-.291.954c-.098.387-.205.756-.321 1.106-.116.35-.259.766-.429 1.246-.17.481-.353 1.007-.55 1.578a66.727 66.727 0 00-.606 1.853 69.734 69.734 0 01-.68 2.061c-.362 1.045-.818 2.363-1.366 3.955" fill="none" stroke="#fdff85" stroke-width="1.16290473" stroke-linecap="round" stroke-linejoin="round" stroke-miterlimit="10"/><path d="M196.754 154.439c-.107.033-.178.087-.213.164-.024.052-.02.07.013.053l.249-.13c.132-.07.447-.248.942-.537.496-.288.967-.536 1.415-.745.447-.208.94-.45 1.478-.727.539-.276 1.113-.567 1.725-.874a57.007 57.007 0 011.807-.869c.594-.272 1.116-.512 1.567-.721a41.5 41.5 0 012.32-.98" fill="none" stroke="#007355" stroke-width="1.16290473" stroke-linecap="round" stroke-linejoin="round" stroke-miterlimit="10"/><path d="M170.19 164.416c.12.114.39.314.813.6.256.174.625.444 1.104.81.48.367.957.723 1.431 1.068.475.345 1 .756 1.575 1.234s1.122.939 1.639 1.384c.776.668 1.551 1.33 2.326 1.983" fill="none" stroke="#007355" stroke-width="1.2509044" stroke-linecap="round" stroke-linejoin="round" stroke-miterlimit="10"/><path d="M179.323 171.786c.09-.272.175-.619.259-1.04.083-.423.177-.825.282-1.208.104-.383.234-.837.389-1.363s.322-1.101.5-1.726c.18-.625.362-1.3.546-2.025.185-.725.39-1.476.614-2.253.329-1.142.743-2.584 1.24-4.325" fill="none" stroke="#b1ff00" stroke-width="1.2509044" stroke-linecap="round" stroke-linejoin="round" stroke-miterlimit="10"/><path d="M182.688 157.679c.113-.042.186-.104.22-.189.023-.058.017-.076-.018-.056l-.26.154c-.138.082-.465.292-.98.63-.517.338-1.009.631-1.478.88-.468.25-.984.539-1.546.866-.563.327-1.164.673-1.803 1.038-.64.364-1.27.71-1.892 1.036-.622.326-1.17.614-1.642.864-.7.371-1.513.766-2.436 1.184" fill="none" stroke="#ff9797" stroke-width="1.2509044" stroke-linecap="round" stroke-linejoin="round" stroke-miterlimit="10"/><path d="M154.545 124.342a53.698 53.698 0 00-3.011 3.364 47.343 47.343 0 00-2.899 3.934 50.94 50.94 0 00-2.593 4.357c-.78 1.476-1.46 3-2.04 4.574-.58 1.572-.95 2.645-1.111 3.219-.162.573-.29 1.087-.386 1.542-.095.455-.24 1.833-.434 4.136s-.233 4.386-.117 6.25a27.63 27.63 0 00.89 5.46 28.991 28.991 0 001.813 4.97 33.025 33.025 0 002.62 4.516 34.947 34.947 0 003.42 4.214 41.048 41.048 0 004.005 3.707 35.334 35.334 0 004.53 3.105 37.894 37.894 0 005.168 2.475 28.91 28.91 0 005.7 1.579c1.97.335 4.002.513 6.096.535a37.237 37.237 0 006.426-.507c2.19-.36 4.329-.851 6.415-1.474a71.299 71.299 0 006.231-2.183 59.63 59.63 0 006.248-2.962 69.693 69.693 0 006.157-3.784 56.957 56.957 0 005.901-4.681 65.692 65.692 0 005.472-5.57c1.72-1.973 2.809-3.238 3.263-3.797.454-.558.857-1.088 1.208-1.59.35-.502 1.192-2.005 2.524-4.509 1.331-2.504 2.25-4.645 2.757-6.425a24.61 24.61 0 00.917-5.212 20.79 20.79 0 00-.35-5.202 25.232 25.232 0 00-1.665-5.327 27.065 27.065 0 00-2.855-5.028 28.888 28.888 0 00-3.892-4.385 42.232 42.232 0 00-4.85-3.833 45.795 45.795 0 00-5.55-3.238 68.394 68.394 0 00-6.151-2.654 59.251 59.251 0 00-6.847-2.102 43.098 43.098 0 00-7.245-1.129 46.813 46.813 0 00-7.45.09c-2.53.228-5.07.666-7.618 1.312a83.892 83.892 0 00-7.204 2.158c-3.277 1.153-8 3.771-14.17 7.855" fill="none" stroke="#fcfcfc" stroke-width=".7556335299999999" stroke-linecap="round" stroke-linejoin="round" stroke-miterlimit="10"/><path d="M31.49 131.72c-.08.156-.2.491-.364 1.005-.099.313-.262.767-.49 1.364a79.321 79.321 0 00-.651 1.772c-.207.585-.466 1.241-.778 1.968-.311.727-.615 1.42-.91 2.078-.444.988-.881 1.973-1.31 2.955" fill="none" stroke="#007355" stroke-width="1.32290413" stroke-linecap="round" stroke-linejoin="round" stroke-miterlimit="10"/><path d="M26.765 143.2c.302.007.68-.01 1.133-.052.453-.043.889-.068 1.309-.078.419-.009.919-.014 1.499-.015.58 0 1.213-.005 1.9-.011a76.063 76.063 0 002.218-.056c.791-.031 1.614-.05 2.469-.056 1.257-.01 2.844-.024 4.76-.043" fill="none" stroke="#f59a23" stroke-width="1.32290413" stroke-linecap="round" stroke-linejoin="round" stroke-miterlimit="10"/><path d="M42.081 142.367c.076.101.162.157.258.165.065.006.082-.005.051-.034l-.234-.217a38.13 38.13 0 00-.934-.806 20.143 20.143 0 01-1.338-1.232c-.393-.4-.841-.837-1.342-1.308-.5-.472-1.032-.978-1.594-1.516a64.83 64.83 0 01-1.62-1.607l-1.37-1.405a47.184 47.184 0 01-1.934-2.114" fill="none" stroke="#ff9797" stroke-width="1.32290413" stroke-linecap="round" stroke-linejoin="round" stroke-miterlimit="10"/><path d="M67.178 151.012c-.106-.112-.348-.311-.725-.597-.23-.175-.558-.444-.986-.808a70 70 0 00-1.276-1.06 29.26 29.26 0 01-1.4-1.224c-.511-.472-.996-.927-1.454-1.366-.687-.658-1.374-1.31-2.061-1.955" fill="none" stroke="#007aff" stroke-width="1.16290473" stroke-linecap="round" stroke-linejoin="round" stroke-miterlimit="10"/><path d="M59.062 143.72a8.578 8.578 0 00-.291.953c-.099.388-.205.756-.321 1.107-.116.35-.259.765-.429 1.246-.17.48-.353 1.006-.55 1.577a66.727 66.727 0 00-.606 1.853 69.734 69.734 0 01-.68 2.062c-.362 1.044-.818 2.362-1.366 3.954" fill="none" stroke="#ff9797" stroke-width="1.16290473" stroke-linecap="round" stroke-linejoin="round" stroke-miterlimit="10"/><path d="M55.243 156.65c-.107.033-.178.088-.213.164-.024.053-.02.07.013.053l.249-.13c.132-.07.447-.248.942-.536.496-.289.967-.537 1.415-.746.447-.208.94-.45 1.478-.726.539-.276 1.113-.568 1.725-.875a57.007 57.007 0 011.807-.868c.594-.273 1.116-.513 1.567-.722a41.5 41.5 0 012.32-.979" fill="none" stroke="#007355" stroke-width="1.16290473" stroke-linecap="round" stroke-linejoin="round" stroke-miterlimit="10"/><path d="M28.679 166.627c.12.114.39.314.813.6.256.174.625.444 1.104.81.48.367.957.723 1.431 1.068.475.345 1 .756 1.575 1.234s1.122.94 1.639 1.384c.776.668 1.551 1.33 2.326 1.983" fill="none" stroke="#007aff" stroke-width="1.2509044" stroke-linecap="round" stroke-linejoin="round" stroke-miterlimit="10"/><path d="M37.812 173.997c.09-.272.175-.619.259-1.04.083-.423.177-.825.282-1.208.104-.382.234-.837.389-1.363.155-.525.322-1.1.5-1.726.18-.624.362-1.3.546-2.025.185-.725.39-1.476.614-2.253.329-1.142.743-2.584 1.24-4.325" fill="none" stroke="#b1ff00" stroke-width="1.2509044" stroke-linecap="round" stroke-linejoin="round" stroke-miterlimit="10"/><path d="M41.177 159.89c.113-.041.186-.104.22-.189.023-.057.017-.076-.018-.056l-.26.154c-.138.082-.465.292-.98.63-.517.338-1.01.632-1.478.881-.469.25-.984.538-1.546.865-.563.327-1.164.673-1.803 1.038-.64.364-1.27.71-1.892 1.036-.622.326-1.17.614-1.642.864-.7.371-1.513.766-2.436 1.184" fill="none" stroke="#ff9797" stroke-width="1.2509044" stroke-linecap="round" stroke-linejoin="round" stroke-miterlimit="10"/><path d="M13.034 126.553a53.698 53.698 0 00-3.011 3.364 47.343 47.343 0 00-2.899 3.934 50.94 50.94 0 00-2.593 4.358c-.78 1.476-1.46 3-2.04 4.573-.58 1.573-.95 2.646-1.111 3.219-.162.573-.29 1.087-.386 1.542-.095.455-.24 1.834-.434 4.136-.194 2.303-.233 4.386-.117 6.25a27.63 27.63 0 00.89 5.46 28.991 28.991 0 001.813 4.97 33.025 33.025 0 002.62 4.516 34.947 34.947 0 003.42 4.215 41.048 41.048 0 004.005 3.706 35.334 35.334 0 004.53 3.105 37.894 37.894 0 005.167 2.476 28.91 28.91 0 005.701 1.578c1.97.335 4.001.513 6.096.535a37.237 37.237 0 006.426-.507c2.19-.36 4.329-.851 6.415-1.474a71.299 71.299 0 006.231-2.183 59.63 59.63 0 006.248-2.962 69.693 69.693 0 006.157-3.784 56.957 56.957 0 005.901-4.68 65.692 65.692 0 005.472-5.57c1.72-1.974 2.808-3.24 3.263-3.797.454-.559.857-1.089 1.208-1.59.35-.503 1.192-2.006 2.524-4.51 1.331-2.504 2.25-4.645 2.756-6.424a24.61 24.61 0 00.918-5.213 20.79 20.79 0 00-.35-5.202 25.232 25.232 0 00-1.666-5.327 27.065 27.065 0 00-2.854-5.028 28.888 28.888 0 00-3.892-4.385 42.232 42.232 0 00-4.85-3.833 45.795 45.795 0 00-5.55-3.238 68.394 68.394 0 00-6.151-2.654 59.251 59.251 0 00-6.847-2.102 43.098 43.098 0 00-7.246-1.129 46.813 46.813 0 00-7.449.09c-2.53.229-5.07.666-7.618 1.312a83.892 83.892 0 00-7.204 2.159c-3.277 1.152-8 3.77-14.17 7.854" fill="none" stroke="#fcfcfc" stroke-width=".7556335299999999" stroke-linecap="round" stroke-linejoin="round" stroke-miterlimit="10"/><path d="M153.05 64.843c.185-.058.434-.012.745.138.312.15.666.42 1.062.812.396.392.837.856 1.323 1.392a35.032 35.032 0 011.706 2.07c.65.843 1.366 1.83 2.146 2.962a79.53 79.53 0 012.421 3.748 41.149 41.149 0 012.32 4.41 74.918 74.918 0 012.042 4.984 456.13 456.13 0 001.87 4.97c.893 2.33 1.758 4.815 2.596 7.454M166.137 100.142c.417.46.883.94 1.399 1.436.34.328.722.654 1.145.979a4.79 4.79 0 001.29.722c.437.157.875.22 1.314.186.438-.033.874-.21 1.306-.532.433-.322.868-.773 1.306-1.352.64-.845 1.602-2.063 2.888-3.652M131.788 156.54c.2.039.304.1.315.182.008.058-.148.142-.467.251-.32.11-.816.223-1.491.338a108.55 108.55 0 01-6.084.84c-1.316.147-2.65.266-4 .357a90.592 90.592 0 01-4.404.183c-2.314.044-5.622-.1-9.922-.433M101.27 163.619l.195.02c.016 0-.02-.033-.106-.103l-.582-.47a10.287 10.287 0 01-.994-.938 14.663 14.663 0 01-1.115-1.349 21.248 21.248 0 01-1.84-2.964 9.178 9.178 0 01-.485-1.127 4.487 4.487 0 01-.215-.882c-.032-.262.005-.52.113-.775s.372-.496.793-.722c.42-.227.99-.455 1.712-.686.721-.23 1.46-.476 2.218-.735a15.3 15.3 0 003.273-1.585M48.425 100.172l-.12.267c-.009.02-.013-.018-.014-.115l-.003-.727c-.001-.388.074-.953.227-1.694.153-.742.372-1.742.658-3.001.286-1.26.665-2.663 1.136-4.21a54.571 54.571 0 011.693-4.736 57.594 57.594 0 012.312-4.946 32.993 32.993 0 012.956-4.674c1.622-2.133 3.54-4.143 5.755-6.032M61.827 65.74c-.276-.149-.215-.293.183-.432.397-.14.857-.266 1.38-.378.521-.112.998-.177 1.43-.194.433-.018.82.024 1.163.125.342.102.637.244.887.428s.46.42.63.71c.17.288.281.676.332 1.163.052.487.014 1.07-.113 1.75-.127.678-.304 1.415-.53 2.21a44.609 44.609 0 00-.89 3.753M173.143 137.068a2.554 2.554 0 01-.12-.772c-.006-.303-.009-.59-.009-.86 0-.271-.01-.435-.032-.492a.233.233 0 00-.086-.119.229.229 0 00-.11-.037c-.038-.002-.065.015-.08.05a.504.504 0 00-.023.187c0 .088.03.188.088.3.058.113.134.213.226.299a.698.698 0 00.313.17c.115.029.256.043.422.043.166 0 .317-.009.452-.028.134-.02.294-.06.478-.122.185-.063.329-.136.432-.22a.676.676 0 00.213-.274.95.95 0 00.069-.27.402.402 0 00-.011-.168c-.014-.032-.038-.048-.074-.046-.035.001-.08.047-.134.136a2.63 2.63 0 00-.18.387c-.066.169-.134.37-.206.603-.072.234-.148.475-.227.723-.08.248-.152.51-.218.786-.097.404-.142.932-.137 1.582M176.36 164.332c-.076-.024-.12-.096-.129-.218a2.947 2.947 0 01-.01-.302.692.692 0 01.075-.273c.049-.102.112-.196.189-.28.077-.086.165-.157.265-.214a.884.884 0 01.287-.108.506.506 0 01.235.007c.065.02.11.066.136.135.026.07.041.15.046.238a1.68 1.68 0 01-.007.27 1.115 1.115 0 01-.14.446c-.034.057-.012.097.066.121a1.8 1.8 0 01.25.1c.088.043.188.099.3.168.113.07.214.15.305.242a.99.99 0 01.294.64c.01.12-.02.238-.088.356a1.486 1.486 0 01-.664.565 3.964 3.964 0 01-.684.209M201.56 146.679c.007-.042.013-.05.017-.026l.02.132c.011.07.017.268.017.591 0 .324 0 .608-.003.85-.004.356-.015.863-.036 1.52" fill="none" stroke="#ffd300" stroke-width=".7556335299999999" stroke-linecap="round" stroke-linejoin="round" stroke-miterlimit="10"/><path d="M147.622 91.37c.036.075.11.114.226.118a.512.512 0 00.291-.068 1.26 1.26 0 00.27-.25c.102-.119.2-.26.292-.427.092-.167.178-.36.257-.579.08-.219.15-.466.21-.742a12.65 12.65 0 00.265-1.91c.022-.357.036-.73.044-1.12.007-.39.008-.765.004-1.125s-.012-.72-.022-1.08c-.01-.358-.016-.704-.017-1.037a5.585 5.585 0 01.36-1.942c.166-.435.382-.768.647-1" fill="none" stroke="#007aff" stroke-width=".7556335299999999" stroke-linecap="round" stroke-linejoin="round" stroke-miterlimit="10"/><path d="M147.895 86.936c.221-.171.39-.315.507-.43.08-.08.225-.216.435-.41.21-.193.478-.407.803-.641a6.157 6.157 0 011.63-.831M155.144 81.205c-.004-.062-.047-.097-.128-.104a.311.311 0 00-.134.01c-.033.012-.09.065-.17.158-.081.092-.18.234-.3.424-.119.19-.252.426-.399.708a7.291 7.291 0 00-.442 1.109 9.733 9.733 0 00-.348 1.52 10.628 10.628 0 00-.125 1.628c.001.774.357 1.628 1.067 2.56M155.077 86.972c.01-.078.042-.179.094-.304.033-.08.092-.186.174-.317.083-.131.198-.274.344-.43.213-.228.537-.466.97-.714" fill="none" stroke="#007aff" stroke-width=".7556335299999999" stroke-linecap="round" stroke-linejoin="round" stroke-miterlimit="10"/><path d="M155.274 84.984c.063.015.209.163.437.444.195.239.455.63.78 1.172M158.344 81.8c.121.062.24.168.356.316.116.149.202.269.258.36.055.092.125.263.208.514.082.25.14.572.172.966.032.394.02.818-.037 1.27a7.9 7.9 0 01-.315 1.4c-.225.711-.605 1.503-1.14 2.376" fill="none" stroke="#007aff" stroke-width=".7556335299999999" stroke-linecap="round" stroke-linejoin="round" stroke-miterlimit="10"/><path d="M122.656 153.908a.74.74 0 00-.016-.15 3.166 3.166 0 00-.073-.29 14.26 14.26 0 01-.147-.535 10.605 10.605 0 00-.242-.741 1.605 1.605 0 00-.114-.233 2.084 2.084 0 00-.141-.207l-.17-.22c-.06-.08-.122-.16-.184-.238a3.005 3.005 0 00-.188-.217 9.01 9.01 0 00-.405-.395 8.098 8.098 0 00-.555-.48 6.491 6.491 0 01-.345-.291l-.225-.21a2.937 2.937 0 00-.467-.358 3.61 3.61 0 01-.253-.178c-.085-.065-.169-.131-.253-.2a7.186 7.186 0 00-.489-.36 5.854 5.854 0 01-.234-.166 4.013 4.013 0 01-.352-.322l-.352-.348a2.128 2.128 0 01-.204-.233 7.47 7.47 0 01-.338-.488 3.088 3.088 0 01-.143-.25 1.874 1.874 0 01-.121-.306 3.516 3.516 0 01-.143-.748 6.45 6.45 0 01-.02-.34c-.001-.094.001-.216.008-.369a3.304 3.304 0 01.124-.775 5.46 5.46 0 01.121-.386c.047-.133.098-.259.154-.379l.171-.363a2.49 2.49 0 01.38-.593 9.575 9.575 0 01.448-.479 3.19 3.19 0 01.241-.215l.262-.209c.093-.074.188-.152.284-.235.097-.083.195-.163.293-.241.098-.078.198-.153.299-.223.1-.071.199-.147.295-.228.096-.08.194-.167.293-.261.1-.094.198-.182.296-.264a4.774 4.774 0 00.564-.562c.095-.11.187-.213.276-.31.09-.096.174-.195.254-.299a6.48 6.48 0 00.23-.317c.073-.107.142-.21.208-.305a4.128 4.128 0 00.34-.6c.046-.098.089-.195.128-.291a4.44 4.44 0 00.182-.553c.019-.077.03-.145.036-.202a1.643 1.643 0 00-.011-.321" fill="none" stroke="#007aff" stroke-width=".61236134" stroke-linecap="round" stroke-linejoin="round" stroke-miterlimit="10"/><path d="M115.93 136.668a.747.747 0 00.016.152c.012.067.037.166.075.295.037.13.066.233.086.309l.063.233a10.637 10.637 0 00.245.753c.034.085.073.164.116.236.043.072.09.142.143.21l.172.224.187.241c.064.08.128.153.191.22a9.286 9.286 0 00.411.401l.22.201c.073.066.187.161.344.286.156.126.273.224.35.296l.228.213a2.992 2.992 0 00.473.363c.086.055.171.115.257.181.086.066.172.133.258.202a7.308 7.308 0 00.495.366c.08.054.16.11.238.169.077.058.196.167.357.326l.358.354c.077.076.146.155.206.237a7.663 7.663 0 01.343.495c.052.081.1.165.146.253.045.087.086.19.123.311a3.597 3.597 0 01.145.759c.01.135.017.25.019.345.002.095 0 .22-.007.374a3.337 3.337 0 01-.126.787 5.522 5.522 0 01-.123.392c-.048.135-.1.263-.157.384l-.173.37a2.525 2.525 0 01-.387.601 9.584 9.584 0 01-.454.486 3.21 3.21 0 01-.244.217l-.266.213c-.094.075-.19.155-.288.239-.099.083-.198.165-.298.244-.1.08-.2.155-.303.227a4.356 4.356 0 00-.3.23c-.097.082-.196.17-.297.266-.1.095-.2.184-.3.267a4.868 4.868 0 00-.573.57c-.096.113-.189.217-.28.315a4.46 4.46 0 00-.257.304 6.59 6.59 0 00-.234.321l-.21.31a4.21 4.21 0 00-.347.61c-.046.099-.09.197-.129.295a4.515 4.515 0 00-.185.56 1.44 1.44 0 00-.036.206" fill="none" stroke="#007aff" stroke-width=".62108858" stroke-linecap="round" stroke-linejoin="round" stroke-miterlimit="10"/><path d="M117.006 153.891c-.036.008-.05.013-.044.014l.033.005a4.015 4.015 0 00.496-.015c.064-.004.136-.011.215-.02.079-.01.162-.019.249-.028a5.778 5.778 0 01.538-.037 500.687 500.687 0 01.778-.015c.09-.001.177-.005.261-.01.084-.005.206-.014.364-.027a97.659 97.659 0 01.695-.054l.344-.023.33-.02c.144-.008.248-.014.311-.02.063-.004.125-.008.185-.01s.1.005.12.02M117.363 153.009c.02.003.05 0 .09-.009a6.374 6.374 0 00.24-.066 9.57 9.57 0 01.173-.05 3.146 3.146 0 01.82-.122l.228-.007.328-.007a25.695 25.695 0 01.543-.002c.074.002.3 0 .675-.006.375-.006.602-.01.68-.015l.149-.006c.032 0 .053.006.063.02M118.195 151.847c-.024 0-.034.001-.031.003l.016.005a.299.299 0 00.07.006 1.245 1.245 0 00.247-.023l.15-.027a3.984 3.984 0 01.36-.047 9.85 9.85 0 01.291-.023 27.724 27.724 0 00.474-.039l.177-.016a9.34 9.34 0 01.354-.02 9.6 9.6 0 00.273-.012l.285-.013c.072-.003.141-.002.208 0M119.036 150.853c.001-.019.024-.034.066-.044.042-.01.084-.018.124-.023l.146-.016c.056-.005.153-.012.29-.02.21-.014.377-.009.5.015" fill="none" stroke="#ffd300" stroke-width=".45890737" stroke-linecap="round" stroke-linejoin="round" stroke-miterlimit="10"/><path d="M119.065 148.321a3.497 3.497 0 01-.04.002 1.895 1.895 0 01.131-.035 2.42 2.42 0 01.139-.028l.21-.04c.082-.017.171-.034.266-.05.142-.026.286-.046.431-.061M118.363 147.513a8.578 8.578 0 01.662-.206 6.477 6.477 0 01.396-.09 5.912 5.912 0 01.409-.07l.26-.04a11.869 11.869 0 01.318-.044c.029-.003.065-.005.108-.006a1.186 1.186 0 00.284-.033M117.697 146.656c.048-.012.099-.029.153-.051a2.749 2.749 0 01.5-.148c.07-.015.197-.037.382-.067a139.607 139.607 0 00.895-.15 13.328 13.328 0 01.807-.124c.154-.02.273-.036.359-.05a2.112 2.112 0 01.41-.037M117.286 145.55c-.019-.01-.018-.02.003-.027.015-.005.088-.02.218-.043.13-.023.225-.04.284-.052a17.623 17.623 0 01.623-.107 8.973 8.973 0 01.454-.054 34.364 34.364 0 00.44-.047l.212-.02a9.493 9.493 0 00.415-.04c.07-.008.14-.016.21-.026a6.613 6.613 0 01.474-.048 5.681 5.681 0 01.364-.018c.085 0 .182.014.288.042M117.16 144.505a.459.459 0 01.137-.053c.06-.015.118-.031.174-.049a2.274 2.274 0 01.278-.07c.046-.008.157-.024.332-.047a83.441 83.441 0 00.59-.08 6.38 6.38 0 01.239-.026 49.138 49.138 0 00.498-.047l.231-.02.216-.019.313-.022.303-.022.174-.017c.054-.006.107-.012.16-.02a2.16 2.16 0 01.229-.02c.02 0 .033.007.042.022M117.854 143.44c.047-.008.11-.022.19-.042a3.066 3.066 0 01.294-.061 11.76 11.76 0 01.361-.05c.066-.008.13-.014.194-.02a4.028 4.028 0 00.411-.057l.229-.041c.076-.015.15-.027.221-.037.108-.016.208-.022.3-.017M118.64 142.398c.114-.046.26-.081.441-.105" fill="none" stroke="#7ec636" stroke-width=".45890737" stroke-linecap="round" stroke-linejoin="round" stroke-miterlimit="10"/><path d="M118.616 139.797a1.738 1.738 0 01-.024 0l.092-.037c.058-.023.115-.046.17-.066.057-.02.12-.04.189-.058l.44-.118M117.937 139.052c-.01.002-.015.005-.016.005h.002l.025.002a.534.534 0 00.086-.009c.041-.006.128-.03.26-.069a5.75 5.75 0 01.609-.155c.098-.02.199-.038.303-.056.104-.017.211-.035.322-.055a13.025 13.025 0 01.58-.088c.12-.016.265-.043.436-.081M117.306 138.322a.847.847 0 00.134-.013c.046-.009.103-.022.169-.04a16.131 16.131 0 01.518-.128c.099-.023.207-.046.324-.07l.356-.074a12.05 12.05 0 01.724-.129c.121-.018.236-.036.343-.054.108-.017.208-.034.303-.048.138-.022.36-.04.669-.053M116.903 137.256a.298.298 0 01-.066-.005l.033-.002c.02 0 .095-.013.224-.035l.574-.098a59.017 59.017 0 001.09-.19 78.732 78.732 0 01.915-.153c.15-.023.293-.044.425-.062.133-.018.256-.033.368-.045.163-.017.4-.005.712.036" fill="none" stroke="#ff21b3" stroke-width=".45890737" stroke-linecap="round" stroke-linejoin="round" stroke-miterlimit="10"/><path d="M174.477 75.17l.035 3.466M175.158 72.43a.746.746 0 00-.107-.446.658.658 0 00-.181-.187.84.84 0 00-.312-.104 1.73 1.73 0 00-.518.004c-.205.028-.443.135-.712.323-.27.188-.546.458-.832.813a10.802 10.802 0 00-1.486 2.46c-.2.458-.328.97-.385 1.54a5.684 5.684 0 00.067 1.647c.101.53.275 1.03.52 1.503.244.473.547.878.907 1.218.36.34.74.566 1.143.68.401.115.843.123 1.326.023.482-.1.964-.326 1.445-.682a7.854 7.854 0 001.313-1.226 6.47 6.47 0 00.947-1.45 5.167 5.167 0 00.446-1.715c.06-.638.032-1.24-.086-1.807a4.546 4.546 0 00-.561-1.473c-.257-.416-.66-.827-1.21-1.234-.549-.408-1.025-.658-1.428-.753-.592-.139-1.327-.11-2.204.09M119.789 172.408c-.11-.04-.188-.132-.235-.275a2.941 2.941 0 01-.11-.442 3.51 3.51 0 01-.048-.451c-.005-.15.006-.292.036-.427a.74.74 0 01.469-.546c.11-.04.22-.048.331-.025.112.023.215.117.31.284.094.167.164.392.207.673.043.281.069.586.076.912.008.327-.016.654-.073.982a5.95 5.95 0 01-.253.973c-.113.322-.237.634-.373.938a3.954 3.954 0 01-.42.748c-.144.195-.286.317-.424.367a.461.461 0 01-.385-.019c-.118-.062-.205-.178-.26-.348a1.798 1.798 0 01-.092-.493 3.467 3.467 0 01.002-.366c.006-.087.027-.13.06-.133.034-.002.077.098.127.299.051.2.124.437.22.71.094.271.22.518.378.74.157.22.34.391.55.51.21.12.447.187.71.203a2.013 2.013 0 001.587-.72c.32-.373.574-1.003.763-1.889" fill="none" stroke="#ff21b3" stroke-width=".7556335299999999" stroke-linecap="round" stroke-linejoin="round" stroke-miterlimit="10"/><path d="M120.757 167.022c.052-.16.01-.293-.126-.397a.85.85 0 00-.355-.153 2.939 2.939 0 00-.518-.05 4.064 4.064 0 00-.778.08 4.87 4.87 0 00-1.074.35c-.4.176-.79.433-1.17.769a5.712 5.712 0 00-1.037 1.254c-.313.5-.584 1.102-.813 1.806a9.347 9.347 0 00-.424 2.314 9.512 9.512 0 00.2 2.577c.185.879.465 1.654.839 2.325a7.34 7.34 0 001.327 1.742c.51.49 1.091.874 1.743 1.155.651.28 1.335.416 2.05.408.717-.009 1.412-.215 2.087-.619a6.098 6.098 0 001.768-1.621 6.858 6.858 0 001.104-2.25 7.372 7.372 0 00.287-2.398 5.38 5.38 0 00-.636-2.253 7.62 7.62 0 00-1.498-1.966 29.147 29.147 0 00-1.693-1.505 12.482 12.482 0 00-2.476-1.572M38.17 79.919c-.244.05-.423-.013-.535-.19-.078-.123-.122-.31-.132-.564a2.85 2.85 0 01.094-.81 3.26 3.26 0 01.316-.801c.138-.247.287-.418.445-.513a.42.42 0 01.468 0c.153.094.28.295.383.603.102.309.178.607.229.896.05.29.085.549.103.778.019.23.024.42.016.57-.009.15-.034.254-.075.31-.04.054-.077.087-.108.096-.03.009-.05-.011-.056-.06a.413.413 0 01.04-.198c.034-.082.115-.144.242-.186a1.72 1.72 0 01.492-.07c.2-.003.422.055.663.175.241.12.463.294.665.52.201.227.36.493.474.797.114.305.177.602.188.89.011.29-.06.58-.213.874-.154.294-.361.564-.621.812a1.85 1.85 0 01-.827.479c-.432.107-.732.068-.901-.118" fill="none" stroke="#ff21b3" stroke-width=".7556335299999999" stroke-linecap="round" stroke-linejoin="round" stroke-miterlimit="10"/><path d="M40.23 74.008a1.595 1.595 0 00-.267-.659 1.49 1.49 0 00-.222-.258 1.017 1.017 0 00-.296-.148c-.14-.05-.337-.081-.591-.094-.255-.012-.46 0-.612.038a2.42 2.42 0 00-.49.187c-.174.087-.35.196-.527.328a7.966 7.966 0 00-.437.345c-.114.098-.37.35-.77.754-.4.406-.646.657-.736.755-.091.097-.19.213-.296.347-.106.135-.2.269-.282.403a8.23 8.23 0 00-.25.443c-.084.16-.197.423-.337.787-.14.363-.262.722-.365 1.074-.103.353-.17.63-.202.834a7.397 7.397 0 00-.089 1.198c-.001.233.002.446.009.64.007.195.03.398.072.608.04.211.087.41.137.594.051.186.107.363.17.533.061.17.136.351.222.546a13.287 13.287 0 00.548 1.097c.094.17.199.341.315.516.116.174.43.492.941.952.512.461.862.756 1.05.886a5.035 5.035 0 00.997.542 4.993 4.993 0 001.052.318c.194.039.462.067.801.086.34.019.6.028.78.029a3.023 3.023 0 001.027-.17c.173-.06.328-.12.463-.179s.283-.139.444-.239c.162-.1.304-.193.428-.28.123-.087.245-.19.364-.31.12-.12.236-.252.349-.398.112-.146.216-.31.31-.492.095-.183.18-.37.253-.563.074-.193.146-.408.216-.646.07-.237.156-.552.255-.946.1-.394.169-.695.207-.904a18.81 18.81 0 00.192-1.355c.02-.196.034-.422.042-.676.008-.255-.032-.764-.121-1.527-.09-.763-.333-1.59-.732-2.482a11.916 11.916 0 00-1.38-2.367c-.523-.686-.86-1.102-1.01-1.247a2.467 2.467 0 00-.398-.326 1.878 1.878 0 00-.729-.267 4.209 4.209 0 00-.564-.025 2.28 2.28 0 00-.706.108c-.318.105-.649.245-.993.42" fill="none" stroke="#ff21b3" stroke-width=".7556335299999999" stroke-linecap="round" stroke-linejoin="round" stroke-miterlimit="10"/></svg>