<svg xmlns="http://www.w3.org/2000/svg" width="297.931" height="526.7"><path d="M298.62 211.203c2.992-2.328 5.437-4.376 7.335-6.145a247.552 247.552 0 0 0 4.395-4.214c1.641-1.608 2.95-2.943 3.926-4.005a55.2 55.2 0 0 0 2.849-3.363 112.97 112.97 0 0 0 2.83-3.788 45.414 45.414 0 0 0 2.734-4.328c.859-1.54 1.685-3.087 2.478-4.64.792-1.552 1.493-3 2.102-4.342.9-1.982 1.723-4.396 2.469-7.24M298.737 213.596c-.116-.264-.029-.407.262-.43.292-.021.699 0 1.22.063.523.064 1.174.16 1.953.289.78.128 1.845.29 3.198.482 1.353.194 2.998.442 4.936.744 1.938.303 4.141.624 6.609.964 2.467.34 5.16.743 8.08 1.209 2.92.466 5.997 1.005 9.23 1.618 3.233.613 6.302 1.171 9.205 1.674 4.266.739 9.729 1.68 16.389 2.821M332.066 168.29c.364.453 1.46 2.068 3.286 4.844 1.827 2.775 3.18 4.897 4.06 6.366.88 1.468 1.642 2.707 2.285 3.719.644 1.01 1.58 2.57 2.808 4.677a141.691 141.691 0 0 1 3.769 6.934 121.717 121.717 0 0 1 3.605 7.726 69.751 69.751 0 0 1 2.776 7.707 377.28 377.28 0 0 1 3.17 11.541" style="fill:none;stroke:#007aff;stroke-width:4.0677;stroke-linecap:round;stroke-linejoin:round;stroke-miterlimit:10;stroke-dasharray:none;stroke-opacity:1" transform="matrix(.72727 0 0 .72727 -163.615 -33.68)"/><path d="M475.425 176.419c.552-.449 1.504-.67 2.858-.666 1.354.005 2.17.184 2.45.537.28.352.403.694.368 1.024-.036.331-.227.819-.575 1.463a14.307 14.307 0 0 1-1.246 1.91 5.6 5.6 0 0 1-1.781 1.521c-.705.385-1.5.61-2.382.678a5.762 5.762 0 0 1-2.56-.379c-.822-.32-1.51-.74-2.062-1.258-.552-.519-.841-1.136-.868-1.853-.027-.717.125-1.429.456-2.135a7.72 7.72 0 0 1 1.324-1.957 4.98 4.98 0 0 1 2.033-1.325 6.105 6.105 0 0 1 2.552-.323c.897.071 1.762.288 2.595.65.832.363 1.465.812 1.898 1.348.432.536.552 1.175.36 1.917-.193.743-.552 1.51-1.076 2.302-.524.791-1.135 1.438-1.833 1.94a4.967 4.967 0 0 1-2.282.916 5.485 5.485 0 0 1-2.41-.211c-.783-.25-1.445-.615-1.986-1.096-.541-.48-.863-1.139-.965-1.974-.101-.836-.007-1.713.286-2.63a7.88 7.88 0 0 1 1.237-2.423 4.649 4.649 0 0 1 2.057-1.533c.838-.325 1.758-.467 2.76-.427a9.072 9.072 0 0 1 2.88.584c.917.35 1.602.793 2.055 1.333.452.54.478 1.277.078 2.213-.4.937-.985 1.9-1.753 2.89-.77.991-1.578 1.797-2.426 2.418-.85.62-1.681 1.014-2.498 1.18-.816.165-1.584.094-2.305-.215-.72-.309-1.31-.81-1.767-1.5-.457-.692-.654-1.586-.589-2.683.065-1.096.36-2.237.883-3.422a11.406 11.406 0 0 1 2.05-3.15c.845-.916 1.79-1.545 2.834-1.888a6.527 6.527 0 0 1 3.156-.246c1.06.178 1.91.53 2.552 1.056.642.527.868 1.257.677 2.192-.19.934-.633 1.928-1.33 2.981a16.006 16.006 0 0 1-2.41 2.86c-.91.854-1.789 1.469-2.634 1.844-.846.375-1.588.483-2.228.323-.64-.16-1.154-.582-1.542-1.267-.388-.684-.538-1.576-.45-2.675.09-1.1.328-2.23.714-3.394.387-1.163.878-2.19 1.474-3.079.596-.89 1.323-1.554 2.181-1.994a5.27 5.27 0 0 1 2.678-.598c.927.04 1.67.328 2.229.86.558.534.736 1.327.534 2.382-.203 1.055-.686 2.227-1.45 3.518a26.72 26.72 0 0 1-2.474 3.529c-.886 1.061-1.793 1.896-2.721 2.504-.928.608-1.744.949-2.448 1.023-.703.074-1.273-.086-1.71-.481-.437-.395-.65-1.058-.64-1.989.01-.93.22-2.047.628-3.349.41-1.302 1.007-2.61 1.793-3.924.786-1.315 1.649-2.343 2.588-3.083.94-.74 1.911-1.133 2.914-1.179 1.003-.046 1.847.186 2.532.696s.992 1.287.92 2.33c-.073 1.044-.474 2.185-1.202 3.424a18.43 18.43 0 0 1-2.523 3.364c-.954 1.005-1.98 1.825-3.077 2.462-1.097.636-2.134 1.057-3.11 1.262-.977.204-1.76.186-2.352-.056-.591-.242-.93-.747-1.013-1.513-.084-.766.074-1.756.475-2.97.4-1.213.93-2.356 1.588-3.429.658-1.072 1.391-1.92 2.2-2.545a5.774 5.774 0 0 1 2.679-1.166c.978-.152 1.887-.078 2.727.223.84.3 1.384.799 1.63 1.493.248.695.095 1.572-.457 2.632-.551 1.06-1.37 2.093-2.456 3.097-1.087 1.004-2.243 1.801-3.47 2.392-1.228.59-2.313.915-3.255.972-.942.058-1.726-.109-2.352-.5-.627-.39-.983-1.045-1.069-1.963-.085-.918.096-1.928.542-3.03a10.814 10.814 0 0 1 1.894-3.056 7.46 7.46 0 0 1 2.938-2.075c1.143-.448 2.28-.65 3.412-.605 1.13.044 2.148.326 3.05.845.904.52 1.469 1.23 1.696 2.134.227.904.16 1.857-.199 2.859a9.283 9.283 0 0 1-1.644 2.826 6.208 6.208 0 0 1-2.682 1.896c-1.05.382-2.063.504-3.037.365-.975-.138-1.765-.412-2.372-.821-.606-.41-.917-1.015-.935-1.816-.017-.801.203-1.637.66-2.506.456-.87 1.08-1.675 1.871-2.415.792-.74 1.626-1.255 2.503-1.546.877-.29 1.687-.336 2.43-.138.741.198 1.3.565 1.673 1.1.374.535.391 1.232.052 2.092-.339.86-.892 1.72-1.66 2.576a9.69 9.69 0 0 1-2.658 2.092c-1.003.537-1.89.871-2.661 1.001-1.078.183-1.342-.842-.79-3.072M507.36 328.007c.62-.274 1.483-.458 2.591-.551 1.108-.093 1.82-.077 2.133.047.314.124.494.334.54.631.047.297-.006.671-.156 1.123-.15.452-.44 1.008-.872 1.667-.431.66-.927 1.334-1.488 2.025a7.859 7.859 0 0 1-1.971 1.736 7.5 7.5 0 0 1-2.39.972c-.841.18-1.663.17-2.465-.03a5.563 5.563 0 0 1-2.216-1.138c-.675-.558-1.156-1.319-1.445-2.284-.288-.964-.276-2.007.038-3.128.314-1.12.797-2.148 1.45-3.083.654-.935 1.367-1.619 2.14-2.051.774-.433 1.542-.635 2.305-.605.763.03 1.567.234 2.41.613.843.378 1.666.837 2.468 1.376.801.54 1.433 1.158 1.896 1.858.462.699.632 1.494.51 2.386-.12.892-.477 1.823-1.068 2.792a15.714 15.714 0 0 1-2.021 2.649c-.758.797-1.563 1.387-2.416 1.768-.853.382-1.71.504-2.571.366-.861-.138-1.666-.522-2.414-1.15-.747-.63-1.251-1.52-1.511-2.673-.26-1.152-.278-2.386-.054-3.701.223-1.316.605-2.502 1.144-3.558.54-1.056 1.196-1.89 1.97-2.503a4.152 4.152 0 0 1 2.664-.915c1.001.003 2 .227 2.997.67.997.444 1.873.992 2.628 1.644.755.652 1.212 1.397 1.373 2.235.16.837.065 1.677-.287 2.52-.352.841-.864 1.642-1.539 2.401-.674.76-1.433 1.32-2.278 1.682-.846.362-1.802.474-2.869.336a9.484 9.484 0 0 1-3.147-1.005c-1.032-.532-1.829-1.14-2.392-1.825-.563-.684-.765-1.523-.605-2.517.16-.994.603-1.987 1.33-2.98.728-.993 1.683-1.768 2.865-2.325a8.114 8.114 0 0 1 3.648-.803c1.25.023 2.355.27 3.318.74.962.471 1.58 1.08 1.854 1.829.274.747.155 1.6-.357 2.557-.512.957-1.202 1.872-2.072 2.746a12.454 12.454 0 0 1-2.858 2.158 9.338 9.338 0 0 1-3.206 1.079c-1.103.153-2.098.067-2.986-.259-.887-.326-1.573-.818-2.058-1.477-.484-.66-.725-1.474-.721-2.446.003-.971.263-1.968.778-2.99.515-1.024 1.271-1.862 2.268-2.515a6.744 6.744 0 0 1 3.317-1.099c1.215-.079 2.287.087 3.215.496.928.41 1.531 1.01 1.81 1.798.277.79.203 1.68-.224 2.674-.426.993-1.017 1.988-1.773 2.982a12.15 12.15 0 0 1-2.523 2.503 9.19 9.19 0 0 1-2.918 1.442c-1.019.288-1.93.345-2.733.171-.803-.174-1.347-.59-1.634-1.249-.287-.658-.25-1.585.11-2.78.36-1.195.912-2.37 1.654-3.525.741-1.156 1.567-2.029 2.477-2.62.91-.592 1.807-.89 2.693-.894.886-.004 1.658.178 2.314.545a3.444 3.444 0 0 1 1.46 1.534c.317.655.456 1.407.417 2.255-.04.847-.258 1.718-.654 2.61a8.543 8.543 0 0 1-1.59 2.402 5.008 5.008 0 0 1-2.394 1.438c-.933.25-1.79.25-2.571-.002-.781-.252-1.369-.648-1.762-1.187-.394-.539-.518-1.246-.372-2.122.146-.877.483-1.754 1.012-2.633.53-.878 1.157-1.535 1.883-1.971.726-.436 1.458-.643 2.194-.62.737.024 1.398.193 1.983.51.586.317.989.795 1.21 1.436.22.64.221 1.359.003 2.154-.217.796-.6 1.597-1.147 2.405a6.297 6.297 0 0 1-1.998 1.914c-.785.469-1.543.723-2.273.763-.73.04-1.343-.136-1.84-.53-.495-.394-.735-1.046-.72-1.956.016-.91.24-1.869.672-2.879.432-1.01.903-1.868 1.412-2.576.51-.708 1.057-1.136 1.642-1.285a2.63 2.63 0 0 1 1.718.132c.56.237 1.023.635 1.39 1.195s.538 1.223.513 1.987c-.025.765-.247 1.54-.665 2.327a10.66 10.66 0 0 1-1.464 2.117c-.558.624-1.121 1.02-1.69 1.189-.57.168-1.083.15-1.54-.054-.458-.204-.75-.59-.88-1.16-.127-.569-.03-1.247.29-2.035a8.917 8.917 0 0 1 1.187-2.096c.47-.61.98-.998 1.527-1.164.548-.167 1.061-.146 1.54.063.48.209.864.581 1.155 1.119.291.537.426 1.142.404 1.816-.022.673-.129 1.242-.32 1.707-.193.465-.42.783-.68.954-.262.171-.665.133-1.21-.114a7.791 7.791 0 0 1-1.558-.946c-.493-.383-.773-.838-.84-1.365-.066-.527.08-1.089.439-1.686.359-.596.772-1.043 1.239-1.339.467-.296.837-.438 1.112-.425.275.012.366.216.274.61-.092.395-.274.898-.547 1.51-.405.91-.647 1.926-.728 3.048" style="fill:none;stroke:#7ec636;stroke-width:4.0677;stroke-linecap:round;stroke-linejoin:round;stroke-miterlimit:10;stroke-dasharray:none;stroke-opacity:1" transform="matrix(.72727 0 0 .72727 -163.615 -33.68)"/><path d="m234.742 21.027-.653.065c-.02.001.022.007.124.017l1.801.171c1.099.104 3.686.114 7.762.028 4.077-.086 10.902-.132 20.475-.137 9.574-.006 17.195-.054 22.864-.145 5.668-.09 10.053-.148 13.153-.174 3.1-.025 6.157-.072 9.17-.14 3.014-.07 10.113-.211 21.296-.425 11.183-.215 18.801-.38 22.854-.494 4.053-.114 10.32-.314 18.802-.6 8.482-.285 17.336-.572 26.563-.86 9.227-.289 16.02-.473 20.38-.554 4.36-.08 8.943-.155 13.748-.224 4.804-.069 8.598-.143 11.38-.221 2.78-.079 5.473-.13 8.074-.152 2.602-.023 9.46-.15 20.573-.384 11.113-.232 19.345-.365 24.695-.397 5.35-.032 10.498-.05 15.444-.053 4.946-.003 8.24.005 9.885.025 1.644.02 4.167.144 7.568.372s6.733.436 9.996.625c3.263.19 6.407.371 9.432.546 4.438.256 10.282.652 17.532 1.188M568.686 16.704c-.417 1.789-.699 3.31-.846 4.563-.1.85-.168 2.318-.204 4.405-.036 2.086-.055 5.574-.055 10.462 0 4.889.02 8.626.062 11.212.042 2.586.066 9.705.07 21.356.005 11.652.032 20.412.08 26.278.048 5.867.084 9.753.107 11.66.024 1.905.116 5.885.275 11.94.16 6.054.313 13.119.46 21.194.146 8.075.256 14.376.328 18.902.072 4.526.156 9.017.25 13.472.096 4.455.217 11.464.363 21.027.147 9.564.225 26.48.233 50.749.008 24.268 0 38.664-.023 43.188-.022 4.524-.035 8.85-.037 12.98-.002 4.128-.015 8.01-.039 11.646-.023 3.636-.07 8.396-.142 14.278-.071 5.882-.15 9.775-.237 11.677-.087 1.903-.211 3.436-.373 4.599-.24 1.735-.859 3.296-1.855 4.68M234.041 23.98c-.026 12.043-.009 19.38.052 22.01.042 1.835.194 3.86.458 6.075.264 2.215.518 4.482.762 6.802.244 2.319.442 4.73.592 7.233.15 2.503.256 5.165.317 7.987.06 2.821.094 5.659.1 8.513.006 2.853.042 5.884.108 9.092.065 3.208.143 6.508.234 9.899.09 3.39.152 6.758.184 10.101.032 3.344.05 6.685.052 10.023.003 3.338-.016 6.763-.057 10.274a347.755 347.755 0 0 1-.298 10.758c-.157 3.661-.276 7.36-.357 11.097-.08 3.737-.167 7.63-.259 11.68s-.207 7.965-.346 11.746c-.14 3.781-.26 7.655-.361 11.623a521.754 521.754 0 0 0-.168 12.061c-.01 4.073-.004 8.182.017 12.327.022 4.145.055 8.252.1 12.323.044 4.07.056 8.233.038 12.49a278.595 278.595 0 0 1-.323 12.407 707.386 707.386 0 0 0-.484 11.942c-.127 3.945-.243 10.14-.35 18.582-.105 8.443-.235 14.793-.39 19.05-.153 4.258-.358 8.329-.614 12.212-.256 3.883-.45 7.457-.583 10.722-.133 3.265-.206 6.24-.219 8.924-.013 2.684.045 5.22.173 7.606a99.95 99.95 0 0 0 .602 6.886c.272 2.204.498 4.185.678 5.943.18 1.758.303 3.406.37 4.942.1 2.32-.342 4.098-1.322 5.335M232.145 364.248c-.616-.478.48-.939 3.285-1.383 2.805-.444 4.955-.749 6.45-.913a91.91 91.91 0 0 1 5.256-.4c2.01-.104 6.511-.232 13.506-.385s11.77-.252 14.326-.298c2.555-.046 4.976-.07 7.263-.075 2.287-.005 4.626-.03 7.016-.077 2.39-.046 4.96-.125 7.707-.236 2.748-.112 5.45-.196 8.103-.253 2.654-.057 6.618-.089 11.89-.095a1935.3 1935.3 0 0 0 11.827-.04c2.612-.02 5.302-.065 8.072-.133 2.77-.068 8.581-.313 17.433-.734 8.851-.422 16.106-.731 21.764-.93 5.657-.197 10.029-.321 13.115-.372 3.086-.05 6.05-.11 8.89-.182 2.84-.071 7.382-.236 13.626-.494s10.85-.437 13.816-.538c2.967-.1 6.155-.177 9.564-.227 3.409-.051 6.754-.08 10.036-.084 3.281-.005 6.676-.031 10.186-.078 3.509-.046 7.113-.115 10.813-.206 3.7-.091 7.52-.205 11.461-.341 3.941-.137 7.815-.245 11.624-.325 3.808-.08 7.665-.167 11.57-.261 3.906-.095 7.805-.18 11.697-.256 3.893-.075 9.615-.117 17.167-.126 7.553-.007 12.893.021 16.02.087a459.972 459.972 0 0 0 14.7.09c1.679-.02 3.024-.074 4.035-.163 1.482-.13 3.495-.224 6.037-.282" style="fill:none;stroke:#fcfcfc;stroke-width:6.23622;stroke-linecap:round;stroke-linejoin:round;stroke-miterlimit:10;stroke-dasharray:none;stroke-opacity:1" transform="matrix(.72727 0 0 .72727 -137.423 7.246)"/><path d="M244.945 324.676c-.105.024-.245-.162-.418-.557-.173-.396-.269-.714-.286-.956a1.929 1.929 0 0 1 .047-.635 1.39 1.39 0 0 1 .175-.422.43.43 0 0 1 .283-.185c.12-.023.269-.016.444.02.176.036.364.15.565.343.2.192.38.465.54.818.159.354.268.75.327 1.19.06.44.086.851.08 1.235-.006.384-.092.712-.256.984a1.646 1.646 0 0 1-.651.62 2.01 2.01 0 0 1-.755.242c-.235.02-.534-.08-.898-.299a2.791 2.791 0 0 1-.895-.852 3.904 3.904 0 0 1-.506-1.05 4.455 4.455 0 0 1-.183-1.061 2.53 2.53 0 0 1 .19-1.071c.142-.358.335-.674.576-.95.242-.274.498-.47.768-.587.27-.116.536-.133.796-.05.26.084.485.3.676.648.19.349.34.743.447 1.182.107.438.166.882.177 1.33.01.448-.053.858-.192 1.232-.138.373-.334.66-.587.86-.253.201-.54.314-.863.34-.321.026-.662-.082-1.022-.324a3.124 3.124 0 0 1-.906-.951 3.843 3.843 0 0 1-.498-1.147 2.956 2.956 0 0 1-.07-1.05c.041-.327.184-.643.43-.948.244-.304.523-.547.838-.727.314-.18.629-.29.944-.327a.987.987 0 0 1 .823.268c.234.216.4.537.499.963.099.425.144.861.135 1.308-.01.447-.1.841-.27 1.183-.172.342-.373.589-.604.742a1.124 1.124 0 0 1-.733.197c-.257-.022-.499-.163-.726-.424a2.534 2.534 0 0 1-.5-.856 2.658 2.658 0 0 1-.153-.88c.003-.278.087-.52.25-.724a1.41 1.41 0 0 1 .592-.442c.23-.09.465-.137.703-.138a.8.8 0 0 1 .62.29c.175.194.294.45.355.766.06.316.088.615.083.896-.006.281-.107.592-.303.932-.196.34-.386.562-.57.664a.73.73 0 0 1-.58.066c-.2-.058-.37-.219-.51-.483a2.68 2.68 0 0 1-.278-.862 2.057 2.057 0 0 1 .028-.835c.066-.246.19-.426.373-.538.182-.112.368-.178.557-.196a1.37 1.37 0 0 1 .463.018c.12.03.243.14.367.325.125.186.203.389.234.61.032.22.024.483-.023.79-.047.305-.14.602-.276.891a3.7 3.7 0 0 1-.34.609c-.09.116-.156-.2-.2-.947-.043-.748-.116-1.19-.218-1.325-.103-.135-.21-.213-.32-.232-.11-.02-.203.023-.277.127-.105.147.12.59.674 1.327M235.22 302.966a5.107 5.107 0 0 0-1.004-1.486 3.613 3.613 0 0 0-.8-.634 5.711 5.711 0 0 0-.885-.39 4.498 4.498 0 0 0-1.045-.23 2.78 2.78 0 0 0-1.144.138c-.395.129-.783.436-1.164.921-.38.485-.707 1.115-.979 1.89-.272.775-.437 1.684-.495 2.725a10.695 10.695 0 0 0 .291 3.13 10.735 10.735 0 0 0 1.089 2.81c.473.83 1.02 1.457 1.641 1.882.621.424 1.329.638 2.123.642.794.004 1.572-.243 2.333-.74a6.969 6.969 0 0 0 1.947-1.919c.536-.782.929-1.64 1.179-2.576.25-.936.361-1.854.335-2.756-.026-.902-.176-1.691-.45-2.368-.273-.677-.607-1.2-1-1.572-.394-.37-.765-.615-1.113-.734-.51-.174-.871-.136-1.083.114M241.83 310.487c.363.02.72.182 1.069.486.232.203.44.492.621.866.262.539.259 1.553-.008 3.043M254.229 302.088c.066-.737.024-1.233-.126-1.489a1.452 1.452 0 0 0-.375-.43 1.973 1.973 0 0 0-.525-.276 2.683 2.683 0 0 0-.695-.141c-.26-.021-.5-.023-.722-.006-.22.018-.51.163-.866.437a4.225 4.225 0 0 0-.967 1.084c-.289.45-.545 1.028-.769 1.735a9.77 9.77 0 0 0-.418 2.313 7.797 7.797 0 0 0 .251 2.513c.222.841.549 1.596.981 2.266.432.67.947 1.193 1.546 1.57a3.976 3.976 0 0 0 1.934.623c.692.038 1.283-.071 1.775-.328.49-.256.83-.472 1.02-.648.188-.175.423-.521.706-1.038s.493-1.315.63-2.395c.136-1.08.144-2.02.025-2.822s-.383-1.488-.793-2.06a5.926 5.926 0 0 0-1.357-1.39 11.408 11.408 0 0 0-2.31-1.287M222.9 299.654c-.022-.642-.053-1.063-.09-1.262a.312.312 0 0 0-.238-.262c-.132-.036-.298.024-.497.181s-.435.424-.708.799c-.273.375-.565.86-.876 1.452-.312.593-.6 1.324-.863 2.191a13.876 13.876 0 0 0-.531 2.548c-.09.831-.054 1.985.107 3.462.162 1.476.484 2.79.967 3.94.703 1.675 2.295 3.757 4.776 6.247M261.474 297.428c.533-.025.99.091 1.374.348.26.173.514.412.76.714.247.303.512.753.795 1.35.283.599.537 1.297.761 2.095.225.798.398 1.719.521 2.763a29.98 29.98 0 0 1 .203 3.153 16.396 16.396 0 0 1-.236 3.032c-.25 1.427-.79 2.91-1.62 4.45M581.9 659.736c-.237.06-.5.059-.788-.004-.289-.062-.488-.154-.597-.276a1.776 1.776 0 0 1-.294-.479 4.737 4.737 0 0 1-.247-.814 6.398 6.398 0 0 1-.144-1.148c-.017-.42.035-.798.158-1.135.123-.337.311-.582.564-.736a1.59 1.59 0 0 1 .869-.224c.326.005.627.154.905.45.278.295.488.7.63 1.215.143.516.23 1.07.259 1.663a6.888 6.888 0 0 1-.131 1.737 4.04 4.04 0 0 1-.62 1.495c-.298.432-.652.75-1.062.953-.41.204-.836.26-1.278.171-.441-.089-.85-.376-1.225-.862a4.317 4.317 0 0 1-.784-1.664c-.148-.624-.182-1.208-.101-1.751.08-.544.253-1.026.516-1.446a3.96 3.96 0 0 1 .991-1.075 3.13 3.13 0 0 1 1.294-.58c.465-.09.873-.044 1.225.137.351.18.62.52.806 1.02.185.5.292 1.052.32 1.657a5.499 5.499 0 0 1-.193 1.751 3.576 3.576 0 0 1-.785 1.452c-.366.407-.778.688-1.236.844a1.97 1.97 0 0 1-1.356-.012c-.446-.165-.877-.487-1.292-.964-.416-.478-.701-.978-.858-1.501a3.001 3.001 0 0 1-.055-1.562c.12-.518.36-1.008.723-1.47a4.508 4.508 0 0 1 1.26-1.117c.477-.282.937-.427 1.38-.435.444-.008.803.187 1.077.588.274.4.453.885.536 1.456.083.57.091 1.135.024 1.692a3.274 3.274 0 0 1-.576 1.513c-.317.452-.65.799-.997 1.04-.347.24-.816.363-1.408.367a2.127 2.127 0 0 1-1.537-.617 2.749 2.749 0 0 1-.822-1.476 2.236 2.236 0 0 1 .234-1.575 4.41 4.41 0 0 1 1.015-1.238c.407-.343.828-.58 1.265-.71.436-.13.81-.1 1.125.087.314.187.528.551.64 1.091.111.54.123 1.133.033 1.778-.09.644-.269 1.197-.538 1.656-.27.46-.577.785-.924.976a1.313 1.313 0 0 1-1.07.114c-.365-.116-.716-.387-1.053-.815a3.469 3.469 0 0 1-.676-1.39 2.383 2.383 0 0 1 .098-1.43c.179-.455.455-.851.828-1.188.374-.337.764-.59 1.172-.757.408-.168.788-.206 1.14-.113.35.093.614.369.789.829a4.8 4.8 0 0 1 .288 1.57c.018.588-.063 1.106-.242 1.555-.178.45-.404.764-.677.945-.272.18-.55.242-.833.184-.283-.057-.549-.3-.797-.726-.249-.427-.435-.947-.56-1.56a5.92 5.92 0 0 1-.101-1.779c.057-.572.221-1.024.493-1.356.27-.332.57-.514.898-.548.328-.033.626.152.894.554.268.403.46.907.577 1.513a10.3 10.3 0 0 1 .194 1.728c.011.545-.073 1.01-.252 1.397-.179.386-.425.653-.739.801a1.436 1.436 0 0 1-.998.087c-.353-.09-.689-.32-1.01-.69a3.31 3.31 0 0 1-.678-1.212c-.133-.438-.154-.828-.062-1.172.092-.343.288-.632.589-.867.3-.235.62-.396.96-.485.341-.088.664-.08.968.026.305.106.56.324.766.656.206.33.334.694.384 1.088.05.394.011.753-.12 1.078-.13.325-.341.568-.635.73-.293.163-.547.252-.762.268-.216.016-.371.008-.468-.025-.097-.032-.25-.18-.46-.444a2.1 2.1 0 0 1-.413-.963 2.352 2.352 0 0 1 .063-1.103c.109-.357.279-.652.51-.883.23-.232.498-.374.801-.426.304-.053.599.01.885.19.286.18.52.44.705.777.184.337.298.691.341 1.061.043.37.025.691-.056.964-.08.273-.245.488-.494.645a1.773 1.773 0 0 1-.801.273 1.004 1.004 0 0 1-.78-.273 1.557 1.557 0 0 1-.476-.794 3.322 3.322 0 0 1-.122-.852c.002-.247.061-.418.177-.513a.655.655 0 0 1 .415-.149c.162-.004.313.07.454.219.141.15.241.33.3.54.06.21.09.421.092.632 0 .211-.038.362-.119.453-.112.127-.23-.193-.35-.96M575.6 670.75c.066-.28.098-.527.096-.74-.002-.145-.037-.236-.102-.274-.066-.038-.185-.066-.357-.084-.172-.017-.397.023-.674.121-.278.099-.6.32-.969.665-.368.345-.798.84-1.29 1.485a20.832 20.832 0 0 0-1.422 2.139c-.455.78-.828 1.696-1.119 2.745a13.19 13.19 0 0 0-.464 3.31c-.02 1.158.163 2.192.546 3.104.384.912.9 1.621 1.55 2.129.947.74 2.346 1.089 4.198 1.048M583.607 670.421c-.169 1.672-.207 3.156-.116 4.452.062.876.119 1.897.17 3.061.076 1.729.282 3.633.619 5.713M589.178 682.4c.77.94 1.208 1.782 1.317 2.526.108.743-.1 1.642-.622 2.696M597.236 670.684c.094 1.019.202 1.89.323 2.611.082.49.18 1.114.294 1.874a79.2 79.2 0 0 1 .314 2.358c.141 1.188.343 2.82.605 4.895M606.751 667.848a3.828 3.828 0 0 1 1.973.81c.385.306.68.574.884.805.203.231.423.551.658.96.236.409.45.99.645 1.741.194.752.308 1.586.343 2.502.034.917.008 1.748-.079 2.496-.086.747-.265 1.674-.534 2.78a26.739 26.739 0 0 1-1.676 4.821" style="fill:none;stroke:#f59a23;stroke-width:1.55905;stroke-linecap:round;stroke-linejoin:round;stroke-miterlimit:10;stroke-dasharray:none;stroke-opacity:1" transform="matrix(.72727 0 0 .72727 -147.195 -215.742)"/><path d="M249.622 402.04c.08-1.117.008-1.863-.215-2.239a2.333 2.333 0 0 0-.676-.704c-.296-.21-.679-.372-1.15-.488a8.277 8.277 0 0 0-1.682-.206c-.65-.022-1.37.158-2.156.539-.787.381-1.56 1.004-2.32 1.868-.759.864-1.388 1.878-1.887 3.042a11.704 11.704 0 0 0-.911 3.62c-.109 1.249.028 2.425.41 3.53.383 1.103.935 2.027 1.657 2.772.721.745 1.55 1.23 2.486 1.458a6.083 6.083 0 0 0 2.858 0c.968-.226 1.78-.6 2.433-1.121.653-.522 1.324-1.39 2.014-2.604.69-1.214 1.15-2.386 1.382-3.517.232-1.13.306-2.343.223-3.636-.083-1.294-.392-2.453-.927-3.476-.536-1.023-1.18-1.71-1.935-2.063-.755-.351-1.593-.4-2.514-.147-.922.253-1.784.824-2.586 1.713a11.213 11.213 0 0 0-1.931 2.965 12.466 12.466 0 0 0-.97 3.395 8.892 8.892 0 0 0 .178 3.424c.28 1.106.741 1.97 1.385 2.589.643.62 1.381.98 2.214 1.08.834.102 1.705-.165 2.614-.8.908-.634 1.716-1.458 2.422-2.471a15.395 15.395 0 0 0 1.739-3.286 13.63 13.63 0 0 0 .848-3.758c.114-1.329-.002-2.473-.345-3.432-.344-.959-.918-1.654-1.721-2.086-.804-.432-1.73-.635-2.781-.61-1.05.024-2.06.379-3.03 1.063-.969.684-1.756 1.618-2.362 2.8a10.906 10.906 0 0 0-1.142 3.622 8.357 8.357 0 0 0 .29 3.545c.348 1.133.905 2.087 1.67 2.863.766.777 1.614 1.257 2.546 1.44a4.1 4.1 0 0 0 2.646-.332c.833-.405 1.54-1.064 2.124-1.98.583-.916.97-1.972 1.162-3.168.192-1.195.197-2.376.015-3.543-.183-1.166-.56-2.158-1.136-2.975-.574-.817-1.27-1.338-2.088-1.564-.817-.226-1.651-.048-2.502.535-.85.583-1.611 1.408-2.282 2.474a14.74 14.74 0 0 0-1.538 3.198 9.21 9.21 0 0 0-.483 3.203c.033 1.069.218 1.944.556 2.626.338.682.966 1.225 1.884 1.629.918.404 1.797.43 2.638.076.84-.353 1.595-1.013 2.265-1.98.67-.966 1.173-2.03 1.51-3.192.335-1.162.477-2.291.425-3.388-.052-1.097-.331-2.012-.836-2.746a3.374 3.374 0 0 0-2.072-1.412c-.876-.207-1.795-.081-2.758.378-.963.46-1.829 1.192-2.597 2.198s-1.314 2.04-1.64 3.1a7.298 7.298 0 0 0-.249 3.234c.16 1.095.55 2.038 1.17 2.83.62.79 1.364 1.284 2.233 1.478.87.195 1.737.057 2.602-.412.865-.469 1.614-1.174 2.248-2.115a9.574 9.574 0 0 0 1.348-2.921c.265-1.007.344-1.973.237-2.9a5.303 5.303 0 0 0-.94-2.494 3.86 3.86 0 0 0-2.082-1.501 4.128 4.128 0 0 0-2.63.066c-.886.31-1.666.922-2.34 1.836-.675.915-1.127 1.855-1.357 2.82-.23.965-.227 1.86.01 2.686.237.826.66 1.434 1.27 1.824.61.39 1.314.49 2.115.3.8-.19 1.572-.647 2.315-1.368a11.429 11.429 0 0 0 1.86-2.327 7.14 7.14 0 0 0 .95-2.724c.135-.986.06-1.897-.225-2.735-.285-.839-.773-1.434-1.464-1.788-.691-.354-1.494-.418-2.41-.194-.914.224-1.734.77-2.46 1.637-.724.867-1.223 1.782-1.497 2.744-.274.962-.3 1.89-.078 2.783.221.894.68 1.73 1.376 2.51.696.78 1.353 1.329 1.97 1.648.617.319 1.416.379 2.398.18.983-.199 1.739-.659 2.269-1.38.53-.72.866-1.51 1.007-2.371.141-.86.094-1.8-.143-2.817-.237-1.018-.631-1.89-1.182-2.615-.55-.726-1.195-1.145-1.933-1.257-.738-.111-1.452.202-2.14.94-.69.74-1.198 1.64-1.524 2.703-.327 1.063-.507 2.022-.54 2.878-.032.856.185 2.004.652 3.443.468 1.44 1.032 2.496 1.694 3.169.662.673 1.357.986 2.086.938.729-.048 1.379-.541 1.95-1.48.57-.937.941-2.086 1.114-3.447.172-1.361.151-2.671-.062-3.93-.214-1.26-.633-2.317-1.258-3.174-.625-.857-1.324-1.367-2.097-1.529-.773-.162-1.53.061-2.27.67a7.68 7.68 0 0 0-1.854 2.27 7.96 7.96 0 0 0-.936 2.835c-.126.984-.11 2.035.05 3.15.158 1.117.434 1.99.825 2.621.392.63.857.973 1.396 1.026.539.053 1.099-.236 1.68-.865.58-.629 1.054-1.464 1.42-2.506.365-1.042.59-2.066.674-3.072.084-1.007-.003-1.916-.262-2.727-.258-.812-.737-1.431-1.437-1.858-.7-.428-1.594-.557-2.682-.39-1.087.168-2.07.63-2.948 1.386-.878.757-1.513 1.542-1.906 2.358a5.272 5.272 0 0 0-.506 2.642c.055.947.326 1.838.81 2.672.486.834 1.099 1.466 1.84 1.895.74.43 1.517.598 2.33.505.814-.092 1.574-.528 2.28-1.305a9 9 0 0 0 1.683-2.724c.416-1.037.665-2.03.745-2.98.08-.948-.01-1.834-.272-2.659a3.686 3.686 0 0 0-1.438-1.965c-.698-.486-1.5-.676-2.407-.57-.906.105-1.712.571-2.415 1.398-.704.826-1.168 1.732-1.392 2.717a6.721 6.721 0 0 0 .003 2.994c.227 1.011.552 1.88.978 2.605.425.725 1.043 1.326 1.855 1.802.811.477 1.56.556 2.248.24.687-.318 1.295-.988 1.823-2.01a11.46 11.46 0 0 0 1.101-3.313c.207-1.186.254-2.4.141-3.644-.113-1.243-.382-2.287-.807-3.133-.425-.845-.985-1.386-1.678-1.623-.694-.238-1.446-.022-2.255.646-.809.669-1.45 1.569-1.925 2.701-.474 1.132-.707 2.26-.698 3.382a6.09 6.09 0 0 0 .88 3.132c.578.966 1.25 1.655 2.019 2.069.768.414 1.531.531 2.291.352.76-.18 1.399-.638 1.916-1.377a5.708 5.708 0 0 0 .982-2.384c.137-.851.121-1.766-.048-2.745-.17-.98-.464-1.859-.884-2.638-.42-.78-.88-1.29-1.384-1.531-.503-.241-1.054-.124-1.651.35-.598.475-1.09 1.207-1.475 2.196-.386.988-.555 1.974-.507 2.957a5.95 5.95 0 0 0 .784 2.715c.475.828 1.034 1.399 1.676 1.712.642.314 1.27.314 1.88 0 .613-.312 1.083-.874 1.414-1.684.33-.81.507-1.644.531-2.504a4.88 4.88 0 0 0-.506-2.367c-.362-.719-.807-1.273-1.334-1.662s-1.052-.498-1.575-.326c-.523.171-.94.645-1.253 1.423-.312.777-.508 1.679-.587 2.707-.078 1.027-.016 1.977.19 2.848.204.871.508 1.494.91 1.87.403.375.855.472 1.357.289s.946-.668 1.333-1.455.629-1.517.724-2.191c.095-.674.062-1.487-.1-2.438-.163-.951-.435-1.725-.815-2.32-.38-.596-.777-.956-1.19-1.082-.414-.126-.795.089-1.144.643-.35.553-.57 1.271-.661 2.153a7.933 7.933 0 0 0 .151 2.592c.192.846.48 1.58.863 2.203.384.622.772 1.027 1.166 1.215.393.188.748.113 1.066-.225.318-.337.56-.907.727-1.709.168-.802.245-1.646.233-2.532-.013-.886-.14-1.667-.38-2.342-.242-.676-.509-1.172-.802-1.49-.293-.316-.594-.418-.901-.306-.308.113-.597.482-.867 1.107a7.3 7.3 0 0 0-.535 2.113 6.814 6.814 0 0 0 .09 2.186c.144.674.412 1.145.802 1.414.39.27.816.302 1.278.099.462-.204.84-.619 1.135-1.245a5.917 5.917 0 0 0 .545-1.926c.068-.658.013-1.25-.163-1.775-.177-.526-.413-.916-.708-1.17-.296-.254-.594-.385-.892-.392-.3-.007-.583.187-.853.58-.27.392-.465.877-.587 1.454a8.202 8.202 0 0 0-.188 1.644c-.003.52.1.925.31 1.218.21.293.47.454.781.483.31.03.62-.161.93-.572a4.95 4.95 0 0 0 .74-1.485 7.093 7.093 0 0 0 .333-1.675c.036-.538-.015-.993-.154-1.363-.138-.372-.35-.604-.632-.7-.283-.094-.554.022-.813.348-.26.327-.445.76-.557 1.302-.112.542-.179 1.31-.201 2.306-.023.995.114 1.875.41 2.637.297.763.637 1.284 1.022 1.562s.755.325 1.11.14c.355-.183.623-.587.803-1.21a7.72 7.72 0 0 0 .297-1.95c.018-.677-.083-1.29-.302-1.838-.22-.548-.47-.994-.75-1.337-.28-.343-.516-.56-.71-.652-.192-.092-.37.016-.532.324-.161.308-.27.76-.324 1.358-.055.597-.061 1.18-.02 1.749.043.568.171.982.386 1.24.214.26.477.268.788.026.31-.243.592-.655.842-1.237.25-.582.418-1.061.502-1.437.083-.375.032-.509-.154-.4-.186.108-.325.291-.419.55-.127.353-.015.481.337.385" style="fill:none;stroke:#7ec636;stroke-width:1.8189;stroke-linecap:round;stroke-linejoin:round;stroke-miterlimit:10;stroke-dasharray:none;stroke-opacity:1" transform="matrix(.72727 0 0 .72727 -69.657 41.873)"/><path d="M295.981 798.788c24.494 27.714 24.476 55.327-.053 82.84" style="fill:none;stroke:#000;stroke-width:1.76345;stroke-linecap:round;stroke-linejoin:round;stroke-miterlimit:10;stroke-dasharray:none;stroke-opacity:1" transform="matrix(.72727 0 0 .72727 -175.343 -203.249)"/><path d="m291.027 799.557 1.372-.683M302.446 793.483l.335-.294M308.42 789.373l.681-.25M316.553 785.895l1.419-.589M323.704 781.88l.923-.64M330.014 778.981l.842-.978M338.44 774.2c-.32-.024-.487.142-.5.497M348.585 769.385h.046M357.109 765.612l.046-.398M366.025 759.097l.784-.787M375.322 754.243c-.188-.22-.094-.326.283-.315M386.636 746.719c.145-.312.381-.485.71-.518M395.461 741.454c-.164-.182-.003-.327.483-.435M405.436 735.408c.299-.168.368-.294.208-.377-.115-.06-.132-.075-.05-.043l1.096.42M417.7 729.652l.68-.935M427.63 723.894c-.092-.4.115-.64.621-.717M438.956 719.142c.245-.653.621-1.163 1.128-1.53.502-.364 1.062-.465 1.68-.301M287.799 819.594l.046-.043M288.237 819.404l1.177 1.272M297.304 825.078l.635.442M306.071 829.585l1.42.978M318.76 834.186l1.42.84M329.73 839.385l1.224.536M338.062 843.41c-.125-.524-.323-.805-.592-.844-.265-.039-.37.61-.314 1.946M348.15 846.655c.591-.26 1.258-.117 2.003.429M361.268 851.492c.423.526 1.013.977 1.773 1.354M371.647 857.643c.388-.124.744.056 1.067.54M383.66 863.38l1.28.682M397.977 868.336c.46-.101.916-.012 1.365.267M409.477 875.63c.655-.026 1.036-.008 1.143.055M423.389 881.846l1.764.83M438.385 887.373l.53.052M450.867 895.504l.495-.588" style="fill:none;stroke:#fcfcfc;stroke-width:2.78298;stroke-linecap:round;stroke-linejoin:round;stroke-miterlimit:10;stroke-dasharray:none;stroke-opacity:1" transform="matrix(.72727 0 0 .72727 -161.968 -181.432)"/><path d="M249.622 402.04c.08-1.117.008-1.863-.215-2.239a2.333 2.333 0 0 0-.676-.704c-.296-.21-.679-.372-1.15-.488a8.277 8.277 0 0 0-1.682-.206c-.65-.022-1.37.158-2.156.539-.787.381-1.56 1.004-2.32 1.868-.759.864-1.388 1.878-1.887 3.042a11.704 11.704 0 0 0-.911 3.62c-.109 1.249.028 2.425.41 3.53.383 1.103.935 2.027 1.657 2.772.721.745 1.55 1.23 2.486 1.458a6.083 6.083 0 0 0 2.858 0c.968-.226 1.78-.6 2.433-1.121.653-.522 1.324-1.39 2.014-2.604.69-1.214 1.15-2.386 1.382-3.517.232-1.13.306-2.343.223-3.636-.083-1.294-.392-2.453-.927-3.476-.536-1.023-1.18-1.71-1.935-2.063-.755-.351-1.593-.4-2.514-.147-.922.253-1.784.824-2.586 1.713a11.213 11.213 0 0 0-1.931 2.965 12.466 12.466 0 0 0-.97 3.395 8.892 8.892 0 0 0 .178 3.424c.28 1.106.741 1.97 1.385 2.589.643.62 1.381.98 2.214 1.08.834.102 1.705-.165 2.614-.8.908-.634 1.716-1.458 2.422-2.471a15.395 15.395 0 0 0 1.739-3.286 13.63 13.63 0 0 0 .848-3.758c.114-1.329-.002-2.473-.345-3.432-.344-.959-.918-1.654-1.721-2.086-.804-.432-1.73-.635-2.781-.61-1.05.024-2.06.379-3.03 1.063-.969.684-1.756 1.618-2.362 2.8a10.906 10.906 0 0 0-1.142 3.622 8.357 8.357 0 0 0 .29 3.545c.348 1.133.905 2.087 1.67 2.863.766.777 1.614 1.257 2.546 1.44a4.1 4.1 0 0 0 2.646-.332c.833-.405 1.54-1.064 2.124-1.98.583-.916.97-1.972 1.162-3.168.192-1.195.197-2.376.015-3.543-.183-1.166-.56-2.158-1.136-2.975-.574-.817-1.27-1.338-2.088-1.564-.817-.226-1.651-.048-2.502.535-.85.583-1.611 1.408-2.282 2.474a14.74 14.74 0 0 0-1.538 3.198 9.21 9.21 0 0 0-.483 3.203c.033 1.069.218 1.944.556 2.626.338.682.966 1.225 1.884 1.629.918.404 1.797.43 2.638.076.84-.353 1.595-1.013 2.265-1.98.67-.966 1.173-2.03 1.51-3.192.335-1.162.477-2.291.425-3.388-.052-1.097-.331-2.012-.836-2.746a3.374 3.374 0 0 0-2.072-1.412c-.876-.207-1.795-.081-2.758.378-.963.46-1.829 1.192-2.597 2.198s-1.314 2.04-1.64 3.1a7.298 7.298 0 0 0-.249 3.234c.16 1.095.55 2.038 1.17 2.83.62.79 1.364 1.284 2.233 1.478.87.195 1.737.057 2.602-.412.865-.469 1.614-1.174 2.248-2.115a9.574 9.574 0 0 0 1.348-2.921c.265-1.007.344-1.973.237-2.9a5.303 5.303 0 0 0-.94-2.494 3.86 3.86 0 0 0-2.082-1.501 4.128 4.128 0 0 0-2.63.066c-.886.31-1.666.922-2.34 1.836-.675.915-1.127 1.855-1.357 2.82-.23.965-.227 1.86.01 2.686.237.826.66 1.434 1.27 1.824.61.39 1.314.49 2.115.3.8-.19 1.572-.647 2.315-1.368a11.429 11.429 0 0 0 1.86-2.327 7.14 7.14 0 0 0 .95-2.724c.135-.986.06-1.897-.225-2.735-.285-.839-.773-1.434-1.464-1.788-.691-.354-1.494-.418-2.41-.194-.914.224-1.734.77-2.46 1.637-.724.867-1.223 1.782-1.497 2.744-.274.962-.3 1.89-.078 2.783.221.894.68 1.73 1.376 2.51.696.78 1.353 1.329 1.97 1.648.617.319 1.416.379 2.398.18.983-.199 1.739-.659 2.269-1.38.53-.72.866-1.51 1.007-2.371.141-.86.094-1.8-.143-2.817-.237-1.018-.631-1.89-1.182-2.615-.55-.726-1.195-1.145-1.933-1.257-.738-.111-1.452.202-2.14.94-.69.74-1.198 1.64-1.524 2.703-.327 1.063-.507 2.022-.54 2.878-.032.856.185 2.004.652 3.443.468 1.44 1.032 2.496 1.694 3.169.662.673 1.357.986 2.086.938.729-.048 1.379-.541 1.95-1.48.57-.937.941-2.086 1.114-3.447.172-1.361.151-2.671-.062-3.93-.214-1.26-.633-2.317-1.258-3.174-.625-.857-1.324-1.367-2.097-1.529-.773-.162-1.53.061-2.27.67a7.68 7.68 0 0 0-1.854 2.27 7.96 7.96 0 0 0-.936 2.835c-.126.984-.11 2.035.05 3.15.158 1.117.434 1.99.825 2.621.392.63.857.973 1.396 1.026.539.053 1.099-.236 1.68-.865.58-.629 1.054-1.464 1.42-2.506.365-1.042.59-2.066.674-3.072.084-1.007-.003-1.916-.262-2.727-.258-.812-.737-1.431-1.437-1.858-.7-.428-1.594-.557-2.682-.39-1.087.168-2.07.63-2.948 1.386-.878.757-1.513 1.542-1.906 2.358a5.272 5.272 0 0 0-.506 2.642c.055.947.326 1.838.81 2.672.486.834 1.099 1.466 1.84 1.895.74.43 1.517.598 2.33.505.814-.092 1.574-.528 2.28-1.305a9 9 0 0 0 1.683-2.724c.416-1.037.665-2.03.745-2.98.08-.948-.01-1.834-.272-2.659a3.686 3.686 0 0 0-1.438-1.965c-.698-.486-1.5-.676-2.407-.57-.906.105-1.712.571-2.415 1.398-.704.826-1.168 1.732-1.392 2.717a6.721 6.721 0 0 0 .003 2.994c.227 1.011.552 1.88.978 2.605.425.725 1.043 1.326 1.855 1.802.811.477 1.56.556 2.248.24.687-.318 1.295-.988 1.823-2.01a11.46 11.46 0 0 0 1.101-3.313c.207-1.186.254-2.4.141-3.644-.113-1.243-.382-2.287-.807-3.133-.425-.845-.985-1.386-1.678-1.623-.694-.238-1.446-.022-2.255.646-.809.669-1.45 1.569-1.925 2.701-.474 1.132-.707 2.26-.698 3.382a6.09 6.09 0 0 0 .88 3.132c.578.966 1.25 1.655 2.019 2.069.768.414 1.531.531 2.291.352.76-.18 1.399-.638 1.916-1.377a5.708 5.708 0 0 0 .982-2.384c.137-.851.121-1.766-.048-2.745-.17-.98-.464-1.859-.884-2.638-.42-.78-.88-1.29-1.384-1.531-.503-.241-1.054-.124-1.651.35-.598.475-1.09 1.207-1.475 2.196-.386.988-.555 1.974-.507 2.957a5.95 5.95 0 0 0 .784 2.715c.475.828 1.034 1.399 1.676 1.712.642.314 1.27.314 1.88 0 .613-.312 1.083-.874 1.414-1.684.33-.81.507-1.644.531-2.504a4.88 4.88 0 0 0-.506-2.367c-.362-.719-.807-1.273-1.334-1.662s-1.052-.498-1.575-.326c-.523.171-.94.645-1.253 1.423-.312.777-.508 1.679-.587 2.707-.078 1.027-.016 1.977.19 2.848.204.871.508 1.494.91 1.87.403.375.855.472 1.357.289s.946-.668 1.333-1.455.629-1.517.724-2.191c.095-.674.062-1.487-.1-2.438-.163-.951-.435-1.725-.815-2.32-.38-.596-.777-.956-1.19-1.082-.414-.126-.795.089-1.144.643-.35.553-.57 1.271-.661 2.153a7.933 7.933 0 0 0 .151 2.592c.192.846.48 1.58.863 2.203.384.622.772 1.027 1.166 1.215.393.188.748.113 1.066-.225.318-.337.56-.907.727-1.709.168-.802.245-1.646.233-2.532-.013-.886-.14-1.667-.38-2.342-.242-.676-.509-1.172-.802-1.49-.293-.316-.594-.418-.901-.306-.308.113-.597.482-.867 1.107a7.3 7.3 0 0 0-.535 2.113 6.814 6.814 0 0 0 .09 2.186c.144.674.412 1.145.802 1.414.39.27.816.302 1.278.099.462-.204.84-.619 1.135-1.245a5.917 5.917 0 0 0 .545-1.926c.068-.658.013-1.25-.163-1.775-.177-.526-.413-.916-.708-1.17-.296-.254-.594-.385-.892-.392-.3-.007-.583.187-.853.58-.27.392-.465.877-.587 1.454a8.202 8.202 0 0 0-.188 1.644c-.003.52.1.925.31 1.218.21.293.47.454.781.483.31.03.62-.161.93-.572a4.95 4.95 0 0 0 .74-1.485 7.093 7.093 0 0 0 .333-1.675c.036-.538-.015-.993-.154-1.363-.138-.372-.35-.604-.632-.7-.283-.094-.554.022-.813.348-.26.327-.445.76-.557 1.302-.112.542-.179 1.31-.201 2.306-.023.995.114 1.875.41 2.637.297.763.637 1.284 1.022 1.562s.755.325 1.11.14c.355-.183.623-.587.803-1.21a7.72 7.72 0 0 0 .297-1.95c.018-.677-.083-1.29-.302-1.838-.22-.548-.47-.994-.75-1.337-.28-.343-.516-.56-.71-.652-.192-.092-.37.016-.532.324-.161.308-.27.76-.324 1.358-.055.597-.061 1.18-.02 1.749.043.568.171.982.386 1.24.214.26.477.268.788.026.31-.243.592-.655.842-1.237.25-.582.418-1.061.502-1.437.083-.375.032-.509-.154-.4-.186.108-.325.291-.419.55-.127.353-.015.481.337.385" style="fill:none;stroke:#7ec636;stroke-width:1.8189;stroke-linecap:round;stroke-linejoin:round;stroke-miterlimit:10;stroke-dasharray:none;stroke-opacity:1" transform="matrix(.72727 0 0 .72727 16.15 112.01)"/><path d="m312.444 801.447 61.51-45.961M326.033 842.666h162.502" style="fill:none;stroke:#007aff;stroke-width:1.55905;stroke-linecap:round;stroke-linejoin:round;stroke-miterlimit:10;stroke-dasharray:none;stroke-opacity:1" transform="matrix(.72727 0 0 .72727 -175.343 -203.249)"/><path d="M295.981 798.788c8.546 8.095 14.346 17.8 17.398 29.113" style="fill:none;stroke:#7ec636;stroke-width:3.11811;stroke-linecap:round;stroke-linejoin:round;stroke-miterlimit:10;stroke-dasharray:none;stroke-opacity:1" transform="matrix(.72727 0 0 .72727 -175.343 -203.249)"/><path d="M313.38 827.901c1.938 8.697 1.536 17.812-1.207 27.346" style="fill:none;stroke:#304700;stroke-width:3.11811;stroke-linecap:round;stroke-linejoin:round;stroke-miterlimit:10;stroke-dasharray:none;stroke-opacity:1" transform="matrix(.72727 0 0 .72727 -175.343 -203.249)"/><path d="M329.819 770.426a2.236 2.236 0 0 0-.516-1.048 5.244 5.244 0 0 0-.546-.54 2.98 2.98 0 0 0-.627-.406 2.515 2.515 0 0 0-.75-.227 3.34 3.34 0 0 0-.84-.01c-.29.033-.57.156-.84.37-.27.215-.49.53-.663.944-.173.415-.279.913-.318 1.494-.04.58.067 1.247.318 1.999s.626 1.526 1.125 2.323c.5.796 1.066 1.504 1.7 2.123.633.619 1.266 1.076 1.899 1.372.632.295 1.225.45 1.776.467.551.015 1.055-.158 1.511-.52.456-.363.802-.898 1.038-1.606a7.185 7.185 0 0 0 .357-2.273c.002-.808-.129-1.544-.391-2.209a5.806 5.806 0 0 0-1.004-1.697 5.47 5.47 0 0 0-2.927-1.784 19.55 19.55 0 0 0-1.556-.303c-.772-.115-1.298-.141-1.58-.077M338.749 771.902l-.438-.441M340.146 759.637c-.243-.23-.54-.3-.891-.205-.24.064-.433.18-.579.346-.145.168-.266.38-.362.637-.095.257-.159.533-.19.829-.032.295-.027.578.013.848.041.27.147.513.319.731.171.218.39.414.656.588.265.175.598.326.996.453a9.75 9.75 0 0 0 1.37.319c.514.085 1.037.175 1.568.271.532.096 1.037.215 1.514.355.477.14.892.32 1.247.538.354.218.629.47.824.754.195.285.313.587.355.908.041.32.024.617-.052.89-.075.272-.256.513-.54.722-.284.21-.66.383-1.127.52a6.88 6.88 0 0 1-1.612.25 6.564 6.564 0 0 1-1.703-.126c-.527-.114-.941-.29-1.242-.528-.302-.238-.497-.51-.585-.818a3.185 3.185 0 0 1-.112-.999c.013-.359.1-.754.261-1.185a8.73 8.73 0 0 1 .65-1.344c.273-.466.572-.941.898-1.426.326-.484.611-.97.855-1.456.244-.487.41-.903.501-1.25.09-.349.125-.634.104-.858-.02-.223-.16-.42-.416-.588a3.02 3.02 0 0 0-.939-.388c-.536-.133-1.361-.234-2.475-.305M413.984 824.852c.068-.992.024-1.619-.133-1.88a1.736 1.736 0 0 0-.467-.495 3.33 3.33 0 0 0-.704-.39 3.11 3.11 0 0 0-.9-.214 2.222 2.222 0 0 0-1.053.177c-.369.15-.735.458-1.1.925-.366.466-.702 1.1-1.01 1.898-.306.799-.522 1.698-.647 2.697a13.629 13.629 0 0 0-.053 2.949 8.46 8.46 0 0 0 .673 2.668c.36.81.776 1.473 1.25 1.985s.993.845 1.558.997c.566.153 1.182.127 1.85-.075.67-.203 1.296-.578 1.88-1.124a5.521 5.521 0 0 0 1.348-1.962 8.234 8.234 0 0 0 .583-2.427c.075-.856.084-1.728.025-2.616a8.942 8.942 0 0 0-.478-2.428c-.261-.731-.572-1.323-.933-1.776-.54-.677-1.125-1.047-1.754-1.108M422.912 834.262c-.233 0-.4-.314-.5-.942M429.14 826.932c-.488.168-.789.092-.902-.23-.08-.226-.133-.602-.157-1.125a5.234 5.234 0 0 1 .115-1.437c.102-.434.267-.823.496-1.165.23-.343.483-.607.761-.794.278-.187.562-.301.853-.343.29-.04.567.057.83.293.261.237.471.579.629 1.027.157.448.277.905.358 1.373.082.467.127 1.046.137 1.737.01.691-.013 1.117-.07 1.277l-.096.276c-.008.024-.005.028.01.014l.173-.17c.1-.1.25-.21.452-.331.2-.122.432-.2.693-.232.26-.033.547.008.858.121.31.114.649.318 1.015.613.366.294.71.632 1.03 1.011.322.38.554.732.695 1.055.142.323.21.796.204 1.417-.005.622-.18 1.231-.526 1.827a9.967 9.967 0 0 1-1.359 1.792 11.478 11.478 0 0 1-1.874 1.612c-1.008.695-2.274.874-3.8.537" style="fill:none;stroke:#ff21b3;stroke-width:1.55905;stroke-linecap:round;stroke-linejoin:round;stroke-miterlimit:10;stroke-dasharray:none;stroke-opacity:1" transform="matrix(.72727 0 0 .72727 -175.343 -203.249)"/><path d="M358.687 221.886c-.385.02-.543-.11-.475-.388.048-.2.21-.5.484-.9.275-.4.489-.655.643-.763.155-.109.367-.145.636-.109.27.036.47.094.6.174.13.08.238.197.324.353.085.156.1.367.042.632-.058.266-.258.66-.603 1.184-.344.524-.605.85-.783.979a.93.93 0 0 1-.603.177 1.97 1.97 0 0 1-.723-.191 4.688 4.688 0 0 1-.746-.428 2.798 2.798 0 0 1-.597-.552c-.158-.2-.241-.446-.25-.738a2.526 2.526 0 0 1 .15-.905c.109-.31.25-.608.425-.892.175-.285.347-.53.515-.737.168-.207.394-.372.676-.494.283-.122.58-.215.89-.276.311-.062.583-.06.815.006.232.065.432.2.597.406.166.206.254.513.265.923.01.41-.016.825-.079 1.245-.063.42-.153.807-.27 1.161a4.323 4.323 0 0 1-.473.99 2.498 2.498 0 0 1-.724.741 1.849 1.849 0 0 1-.902.315 1.623 1.623 0 0 1-.887-.186 2.438 2.438 0 0 1-.72-.576c-.204-.239-.347-.562-.428-.972-.082-.409-.1-.785-.057-1.129.044-.344.139-.645.285-.905.145-.26.371-.492.678-.699a3.123 3.123 0 0 1 1.079-.448c.413-.092.789-.12 1.126-.084.337.036.633.13.889.283.255.153.41.401.463.745.053.343.031.703-.064 1.08-.096.376-.232.72-.408 1.03-.176.309-.385.573-.626.792-.24.219-.544.37-.91.453-.366.083-.73.11-1.09.083a2.441 2.441 0 0 1-.933-.243c-.26-.133-.451-.3-.573-.502-.122-.201-.145-.439-.068-.712.076-.273.215-.55.416-.83.201-.28.479-.493.833-.641a4.472 4.472 0 0 1 1.136-.303 2.756 2.756 0 0 1 1.116.061c.339.095.629.217.868.367a.84.84 0 0 1 .416.615c.037.26-.01.56-.14.902a5.22 5.22 0 0 1-.525 1.01c-.22.333-.46.63-.724.89-.263.26-.563.45-.9.567a1.91 1.91 0 0 1-.94.106 1.801 1.801 0 0 1-.797-.34c-.241-.18-.386-.453-.433-.818-.047-.365.001-.726.144-1.08.143-.355.32-.685.531-.99.211-.306.48-.545.805-.716a3.669 3.669 0 0 1 1.042-.363c.37-.07.702-.087.997-.054.295.033.547.117.757.252.21.135.287.4.232.793a4.287 4.287 0 0 1-.386 1.232 7.781 7.781 0 0 1-.63 1.112c-.219.314-.455.53-.71.647-.255.117-.544.137-.866.06a2.788 2.788 0 0 1-.917-.408 1.748 1.748 0 0 1-.64-.76c-.135-.31-.202-.587-.199-.829.003-.241.108-.538.316-.89a2.703 2.703 0 0 1 1.908-1.309c.406-.068.788-.06 1.146.024.357.084.66.213.905.387.245.174.39.43.435.771.045.34.01.712-.106 1.114a4.274 4.274 0 0 1-.53 1.153 2.808 2.808 0 0 1-.922.888 2.926 2.926 0 0 1-1.219.406c-.437.046-.813-.02-1.129-.197a1.76 1.76 0 0 1-.726-.777c-.169-.34-.227-.727-.177-1.16.051-.434.162-.813.332-1.14.17-.326.35-.587.538-.783.188-.195.446-.333.774-.413.328-.08.664-.096 1.007-.048.343.049.656.154.937.317.282.162.483.387.602.672.12.286.134.629.044 1.029-.09.4-.23.773-.418 1.118a6.465 6.465 0 0 1-.581.898c-.2.254-.455.41-.766.469-.31.058-.639.051-.985-.022a2.84 2.84 0 0 1-.932-.37.955.955 0 0 1-.469-.728 1.614 1.614 0 0 1 .188-.94 2.3 2.3 0 0 1 .598-.756c.238-.191.5-.28.786-.264.287.015.572.088.857.221.284.133.532.284.745.455.213.17.328.368.344.595a1.16 1.16 0 0 1-.141.649c-.112.206-.297.373-.555.501-.259.128-.57.197-.934.207-.363.01-.661-.02-.894-.087-.328-.094-.09-.68.715-1.76" style="fill:none;stroke:#ff21b3;stroke-width:1.84316;stroke-linecap:round;stroke-linejoin:round;stroke-miterlimit:10;stroke-dasharray:none;stroke-opacity:1" transform="matrix(.72727 0 0 .72727 -163.615 -33.68)"/><path d="M288.877 856.293c-.488-.133-.766-.543-.832-1.233-.046-.473-.033-.827.04-1.06a1.113 1.113 0 0 1 .94-.814c.22-.03.444-.005.669.072.225.078.44.219.645.423a2.896 2.896 0 0 1 .817 1.82c.037.401.02.807-.05 1.217-.069.41-.212.76-.43 1.049-.217.29-.468.499-.752.629-.283.13-.592.183-.926.16-.334-.023-.692-.177-1.073-.464a5.72 5.72 0 0 1-1.034-1.007 3.294 3.294 0 0 1-.628-1.18 2.332 2.332 0 0 1-.04-1.152c.085-.368.287-.723.607-1.066a4.3 4.3 0 0 1 1.096-.849c.41-.223.813-.363 1.21-.421.399-.058.767.004 1.104.186.338.183.611.513.82.99.208.477.352.99.43 1.54.079.55.122 1.055.13 1.517.008.463-.06.866-.205 1.21-.144.344-.336.588-.577.73-.24.142-.518.185-.832.127-.314-.058-.662-.268-1.042-.63a7.655 7.655 0 0 1-1.043-1.231 5.488 5.488 0 0 1-.693-1.356 3.958 3.958 0 0 1-.212-1.322c.007-.437.138-.834.394-1.19.257-.358.558-.638.903-.841a2.108 2.108 0 0 1 1.05-.313c.354-.005.683.174.987.536.303.363.569.839.796 1.428a9.82 9.82 0 0 1 .505 1.812c.11.62.16 1.188.149 1.707-.011.52-.137.947-.378 1.283-.242.336-.541.553-.9.652-.357.099-.743.062-1.158-.11-.415-.17-.825-.465-1.23-.88a5.45 5.45 0 0 1-.995-1.42 4.486 4.486 0 0 1-.458-1.572c-.046-.519.023-.97.207-1.357.184-.385.438-.7.762-.942s.619-.408.883-.497c.265-.09.582-.106.95-.05.368.056.687.262.956.617.27.355.468.79.596 1.304.129.515.203 1.038.224 1.57.02.53-.063.982-.25 1.355-.186.374-.446.62-.778.737-.332.118-.703.121-1.114.01-.41-.112-.866-.38-1.365-.806-.5-.426-.963-.882-1.39-1.368-.428-.486-.722-.95-.882-1.392-.16-.443-.167-.85-.022-1.22.144-.372.442-.674.891-.906.45-.233.934-.375 1.451-.427.518-.053.988.06 1.411.337a4.29 4.29 0 0 1 1.112 1.069c.318.435.563.893.733 1.373.17.48.265.937.282 1.37.017.433-.098.798-.344 1.095a2.05 2.05 0 0 1-.886.634 2.586 2.586 0 0 1-1.167.12c-.434-.046-.88-.235-1.338-.566a3.609 3.609 0 0 1-1.072-1.203 3.114 3.114 0 0 1-.402-1.43c-.011-.483.146-.938.472-1.365a4.218 4.218 0 0 1 1.17-1.054c.455-.275.872-.445 1.252-.508.38-.064.728.097 1.042.483.315.386.527.802.638 1.248.111.446.176.979.195 1.599.019.62-.07 1.218-.264 1.796-.194.577-.443 1.037-.746 1.379-.304.342-.66.551-1.067.628-.408.077-.862-.04-1.36-.353-.5-.312-.953-.72-1.358-1.224-.406-.504-.676-1.017-.812-1.54a2.48 2.48 0 0 1 .06-1.505c.175-.48.496-.89.965-1.23.468-.339.948-.554 1.439-.647.49-.092.932-.008 1.323.252.39.26.725.675 1.004 1.247.28.573.502 1.185.667 1.838.166.653.26 1.285.285 1.895.024.61-.057 1.12-.244 1.53-.186.41-.46.687-.82.83-.36.145-.783.074-1.27-.211-.487-.286-.984-.802-1.49-1.55a10.452 10.452 0 0 1-1.198-2.335c-.29-.81-.458-1.524-.501-2.142-.043-.619.075-1.137.354-1.555.28-.418.619-.71 1.016-.875a1.461 1.461 0 0 1 1.213.033c.411.188.757.595 1.039 1.224.28.628.501 1.312.66 2.051.16.74.258 1.473.295 2.2.038.729-.01 1.347-.145 1.857-.135.51-.376.88-.724 1.113-.347.232-.774.295-1.282.188-.507-.107-1.02-.424-1.536-.952a10.23 10.23 0 0 1-1.342-1.688c-.378-.597-.626-1.165-.745-1.704-.119-.54-.119-1.04 0-1.501.12-.462.386-.887.798-1.275a3.262 3.262 0 0 1 1.378-.793c.506-.14.992-.123 1.457.052.466.174.878.517 1.236 1.03.359.512.64 1.103.843 1.772a8.71 8.71 0 0 1 .367 1.934c.042.62-.014 1.179-.17 1.676-.154.496-.421.886-.8 1.169a2.479 2.479 0 0 1-1.334.479c-.511.037-1.068-.155-1.673-.574a6.362 6.362 0 0 1-1.575-1.575c-.446-.631-.716-1.24-.81-1.824-.096-.586-.024-1.126.213-1.621.237-.495.625-.924 1.165-1.287a4.935 4.935 0 0 1 1.698-.74c.592-.13 1.14-.094 1.644.11.503.205.925.602 1.266 1.19.34.59.59 1.2.747 1.833.157.632.222 1.234.194 1.806-.028.572-.195 1.02-.503 1.347a1.651 1.651 0 0 1-1.152.528c-.46.025-.98-.175-1.556-.6a8.206 8.206 0 0 1-1.583-1.555c-.479-.61-.793-1.164-.944-1.66-.15-.496-.128-.958.07-1.387.196-.427.54-.78 1.033-1.055.492-.276.977-.42 1.456-.434.478-.014.872.196 1.181.632.31.435.52.98.631 1.635.11.655.168 1.24.17 1.756.004.516-.081.923-.255 1.223-.175.3-.405.483-.69.549-.287.066-.604-.051-.952-.351a6.82 6.82 0 0 1-1.022-1.127c-.332-.45-.574-.855-.724-1.212-.15-.356-.204-.669-.161-.937.043-.269.256-.483.639-.641a3.417 3.417 0 0 1 1.264-.25c.46-.006.85.098 1.172.315.322.216.54.492.653.827.113.335.157.669.13 1-.025.331-.112.568-.26.709-.147.14-.269.157-.363.047-.094-.109-.14-.373-.135-.791.005-.418.06-.78.165-1.087l.19-.552c.02-.062.037-.08.05-.053l.211.435" style="fill:none;stroke:#ff21b3;stroke-width:1.55905;stroke-linecap:round;stroke-linejoin:round;stroke-miterlimit:10;stroke-dasharray:none;stroke-opacity:1" transform="matrix(.72727 0 0 .72727 -179.907 -214.687)"/><path d="m306.393 848.974-.32.361" style="fill:none;stroke:#fcfcfc;stroke-width:2.59842;stroke-linecap:round;stroke-linejoin:round;stroke-miterlimit:10;stroke-dasharray:none;stroke-opacity:1" transform="matrix(.72727 0 0 .72727 -179.907 -214.687)"/><path d="m298.45 852.99-.231.432" style="fill:none;stroke:#fcfcfc;stroke-width:2.59842;stroke-linecap:round;stroke-linejoin:round;stroke-miterlimit:10;stroke-dasharray:none;stroke-opacity:1" transform="matrix(.72727 0 0 .72727 -178.75 -215.084)"/><path d="m305.777 862.27-.402-.016M299.265 858.83l-.353.285" style="fill:none;stroke:#fcfcfc;stroke-width:2.59842;stroke-linecap:round;stroke-linejoin:round;stroke-miterlimit:10;stroke-dasharray:none;stroke-opacity:1" transform="matrix(.72727 0 0 .72727 -179.907 -214.687)"/><path d="M329.892 613.01c-.054-.135-.017-.235.11-.3.09-.045.134-.19.133-.433 0-.244-.06-.434-.176-.57a.995.995 0 0 0-.466-.3 2.294 2.294 0 0 0-.641-.103 1.314 1.314 0 0 0-.714.209c-.243.146-.468.32-.675.523a2.35 2.35 0 0 0-.498.711 2.752 2.752 0 0 0-.224.959c-.025.367.047.759.215 1.174.169.416.417.76.745 1.033.328.273.661.435.999.487.337.052.648-.002.932-.162.283-.16.512-.43.687-.811.175-.381.284-.813.326-1.296a8.437 8.437 0 0 0-.013-1.53 6.644 6.644 0 0 0-.33-1.544c-.17-.493-.383-.886-.638-1.18-.255-.293-.541-.479-.86-.557-.318-.078-.603-.078-.855 0-.251.078-.505.286-.762.623a2.576 2.576 0 0 0-.496 1.104 4.796 4.796 0 0 0 .33 2.766c.211.5.465.944.76 1.334.294.39.6.666.917.827.317.161.622.23.916.204.293-.026.552-.19.776-.49.224-.302.388-.687.49-1.156.102-.47.155-.982.159-1.535a6.276 6.276 0 0 0-.232-1.7 7.295 7.295 0 0 0-.635-1.596c-.266-.484-.586-.855-.96-1.112a2.244 2.244 0 0 0-1.185-.412c-.415-.019-.79.13-1.125.445a3.298 3.298 0 0 0-.79 1.188 5.86 5.86 0 0 0-.38 1.508 7.018 7.018 0 0 0-.001 1.614c.062.546.205 1.048.43 1.505.224.457.485.824.782 1.102.297.279.626.462.985.55.36.088.718.09 1.077.008.36-.083.703-.26 1.032-.529a3.56 3.56 0 0 0 .825-.977c.222-.381.368-.835.44-1.36a6.88 6.88 0 0 0 .008-1.689c-.066-.6-.228-1.13-.484-1.586-.257-.456-.566-.79-.927-1a2.073 2.073 0 0 0-1.201-.275c-.44.028-.875.183-1.31.466a4.765 4.765 0 0 0-1.107.988 4.247 4.247 0 0 0-.696 1.205 5.645 5.645 0 0 0-.309 1.493c-.047.567 0 1.199.142 1.896.142.697.34 1.303.591 1.818.253.515.489.926.709 1.233.22.307.49.595.812.864.322.269.702.456 1.143.562.44.106.902.122 1.385.048.484-.074.972-.289 1.465-.644.493-.354.914-.84 1.263-1.455.348-.616.576-1.323.683-2.12.107-.8.133-1.62.077-2.462a8.693 8.693 0 0 0-.45-2.305c-.244-.694-.56-1.274-.95-1.74-.389-.466-.777-.8-1.164-1.005a3.6 3.6 0 0 0-1.315-.385 10.48 10.48 0 0 0-.963-.075c-.153.002-.398.118-.736.35-.339.231-.638.569-.898 1.012-.26.444-.46.938-.601 1.482a8.469 8.469 0 0 0-.253 1.768c-.027.635.025 1.27.157 1.906.132.637.339 1.197.62 1.682.282.484.604.836.967 1.055.363.22.749.336 1.158.351.409.015.807-.086 1.195-.303a3.24 3.24 0 0 0 1.016-.907 3.39 3.39 0 0 0 .595-1.363 7.14 7.14 0 0 0 .115-1.774 5.334 5.334 0 0 0-.4-1.831c-.236-.56-.552-1.009-.947-1.346a2.774 2.774 0 0 0-1.328-.639 2.123 2.123 0 0 0-1.387.203c-.433.224-.794.603-1.08 1.136a5.72 5.72 0 0 0-.593 1.824 9.064 9.064 0 0 0-.05 2.25c.076.818.27 1.63.582 2.437.312.807.664 1.452 1.055 1.937.39.484.782.79 1.175.917.392.127.788.081 1.186-.139.4-.22.741-.608 1.025-1.166.285-.558.471-1.23.56-2.018.089-.788.117-1.624.083-2.507-.033-.883-.167-1.668-.403-2.355-.236-.687-.555-1.25-.956-1.691-.402-.44-.851-.72-1.348-.837a1.846 1.846 0 0 0-1.396.2c-.434.252-.777.661-1.027 1.229a4.993 4.993 0 0 0-.413 1.842c-.025.66.08 1.34.315 2.04.234.7.522 1.324.863 1.87.341.545.644.94.91 1.183.264.244.575.393.932.448.356.055.68-.04.971-.284.29-.245.542-.575.754-.99.213-.415.357-.859.433-1.333a3.56 3.56 0 0 0-.04-1.376 2.682 2.682 0 0 0-.643-1.208c-.327-.361-.638-.621-.933-.78-.296-.158-.552-.211-.77-.16-.218.052-.378.257-.48.616-.101.358-.15.748-.148 1.168.003.421.069.783.197 1.086.129.304.27.529.422.675.153.147.331.245.536.294.289.07.523-.314.702-1.152" style="fill:none;stroke:#ff21b3;stroke-width:2.59842;stroke-linecap:round;stroke-linejoin:round;stroke-miterlimit:10;stroke-dasharray:none;stroke-opacity:1" transform="matrix(.72727 0 0 .72727 -209.8 -38.228)"/><path d="M359.29 221.583c.097.232.183.3.257.2.054-.07.066-.177.036-.321-.03-.143-.157-.37-.382-.68a6.692 6.692 0 0 0-.639-.771c-.201-.204-.36-.286-.473-.244-.114.04-.262.17-.445.385a5.681 5.681 0 0 0-.566.834c-.195.34-.329.692-.401 1.057-.072.366-.07.691.006.978.077.286.216.53.419.732.203.203.414.355.633.458.22.102.436.114.648.036.213-.078.427-.238.643-.48a9.98 9.98 0 0 0 .657-.83c.223-.311.397-.624.525-.938.128-.315.185-.611.172-.888a1.632 1.632 0 0 0-.209-.748 2.282 2.282 0 0 0-.459-.572 1.822 1.822 0 0 0-.56-.352.834.834 0 0 0-.554-.032c-.174.053-.34.168-.498.345-.158.176-.32.41-.489.701a4.43 4.43 0 0 0-.414 1.007 4.52 4.52 0 0 0-.177 1.111c-.01.36.042.679.155.955.113.277.28.508.498.694.219.187.49.27.814.25.325-.02.663-.142 1.015-.367.352-.226.671-.5.959-.825.287-.325.55-.658.788-1 .238-.342.396-.692.475-1.048a2.16 2.16 0 0 0 .003-.997 2.171 2.171 0 0 0-.408-.832 4.15 4.15 0 0 0-.662-.667 5.844 5.844 0 0 0-.684-.48 1.154 1.154 0 0 0-.65-.169c-.225.011-.456.077-.692.198-.236.12-.47.292-.7.513a4.86 4.86 0 0 0-.635.745c-.192.276-.338.623-.437 1.04-.099.416-.16.852-.182 1.308-.022.456.01.884.093 1.285.084.4.226.737.425 1.011.2.274.427.479.682.614.254.136.53.164.829.085.298-.08.607-.257.926-.533.32-.276.625-.595.917-.958.292-.363.56-.71.806-1.044.246-.333.422-.664.529-.992.106-.328.133-.638.079-.928a1.66 1.66 0 0 0-.35-.765 3.265 3.265 0 0 0-.588-.562 1.485 1.485 0 0 0-.707-.282 2.382 2.382 0 0 0-.82.048 3.3 3.3 0 0 0-.893.357 5.378 5.378 0 0 0-.887.631 6.562 6.562 0 0 0-.755.768 2.47 2.47 0 0 0-.462.818 1.46 1.46 0 0 0-.013.857c.082.29.245.567.49.832.351.379 1.445.557 3.28.534" style="fill:none;stroke:#ff21b3;stroke-width:3.07194;stroke-linecap:round;stroke-linejoin:round;stroke-miterlimit:10;stroke-dasharray:none;stroke-opacity:1" transform="matrix(.72727 0 0 .72727 -163.615 -33.68)"/><path d="m359.102 234.79.045 3.879M359.905 250.839l.209 5.019M360.215 267.916c-.354.629-.423 2.15-.205 4.562M361.378 282.558l.127 4.384M362.598 299.618c-.125.52-.228 1.302-.31 2.345-.133 1.676-.07 2.78.186 3.31M363.856 315.784c-.518 1.04-.618 3.62-.302 7.736M363.307 336.726c-.083 1.17-.005 2.519.231 4.045M363.878 352.813c-.322 2.555-.45 4.267-.385 5.136M364.356 369.52c-.265 1.165-.067 3.317.593 6.456M366.492 386.636c-.151.963-.212 1.693-.182 2.19.03.494.222 1.273.577 2.337M369.706 406.068c-.431.778-.517 2.498-.256 5.16M369.635 428.668c0 .985-.083 3.696-.25 8.131M369.68 454.625l-.424 6.615M363.93 470.536c-.548.062-1.257.06-2.126-.006-.828-.062-1.844-.215-3.047-.46M344.924 470.923c-.99.336-2.72.294-5.19-.125M326.491 471.185c-2.607.286-4.468.33-5.581.13M307.833 471.721c-.264.16-.752.313-1.465.458-1.052.215-2.333.357-3.843.426M289.04 472.897c-1.448.552-3.589.573-6.423.061M270.388 471.83c-.204.234-.72.397-1.55.49-1.206.136-2.789-.334-4.75-1.41M252.189 471.105l-4.152-.154M226.371 496.386c-.163.412-.312 1.021-.447 1.828-.134.807-.19 1.458-.17 1.955.032.726.237 1.677.616 2.852M227.296 513.737c-.141.52-.243 1.269-.306 2.247-.097 1.5.002 2.731.294 3.692M227.452 532.168c-.166.381-.298 1.069-.397 2.064-.148 1.497-.054 2.885.283 4.164M226.8 549.592c-.14 1.205-.135 3.328.015 6.369M227.527 567.76c-.209 1.446-.221 3.675-.039 6.686M228.041 583.862c-.292.81-.445 1.734-.46 2.773-.013 1.014.153 2.174.499 3.479M227.847 599.929c-.377 2.74-.584 4.554-.62 5.444-.038.914.093 1.922.392 3.023M226.337 621.51l-.346 6.887M226.975 640.755c-.231 2.019-.11 4.107.361 6.266M227.543 657.69c-.437 3.498-.532 6.475-.286 8.932M379.434 471.984l6.313.082M397.789 472.54c3.845.144 6.219.288 7.121.43M419.246 472c.64.395 2.215.534 4.721.416M436.852 471.263c1.887.2 4.017.058 6.39-.429M459.859 469.392c1.25.196 2.268.3 3.053.312.776.012 2.05-.085 3.822-.291M479.982 469.417c2.211.252 4.176.328 5.892.229M514.263 495.498c-.111 1.75-.118 4.29-.02 7.621M514.453 517.58c-.208 2.055-.127 4.374.242 6.956M516.646 535.368c-.45 3.026-.576 6.532-.374 10.52M516.2 558.292c-.037.394-.1 2.796-.19 7.208M516.227 577.573c-.346 3.433-1.114 6.982-2.304 10.647M515.072 598.269c.126.975.189 2.066.19 3.274 0 1.804.067 3.677.199 5.619M516.146 618.167l-.422 7.194M515.858 637.523c-.08 1.078-.122 2.468-.128 4.17a23.364 23.364 0 0 0 .209 3.232M516.359 657.758c.168 3.158-.025 5.544-.579 7.157M515.84 676.883c-.168.303-.272.71-.313 1.22-.058.73-.09 3.304-.095 7.723" style="fill:none;stroke:#000;stroke-width:1.55905;stroke-linecap:round;stroke-linejoin:round;stroke-miterlimit:10;stroke-dasharray:none;stroke-opacity:1" transform="matrix(.72727 0 0 .72727 -163.615 -33.68)"/><path d="M254.201 718.571c.724.291 1.342.473 1.854.546.498.07 2.366.049 5.603-.064M271.774 717.05c1.797.11 4.411.093 7.843-.053M290.014 716.208c.935.114 1.89.174 2.862.18 1.452.01 2.95.184 4.493.522M307.949 716.776c1.787.028 3.328.044 4.623.046 1.29.002 2.906-.167 4.85-.507M331.646 717.731c4.8.038 8.112-.017 9.934-.166M354.516 717.09c1.04-.253 2.187-.403 3.441-.452a34.658 34.658 0 0 1 3.908.08M372.825 716.455c4.288.222 7.901.08 10.84-.422M395.445 716.525c4.41.081 7.347-.02 8.81-.303M415.298 715.822c2.486-.139 4.551-.037 6.196.307M431.456 714.514c1.33 0 2.68.018 4.048.056 2.075.057 3.958.192 5.649.404M450.926 714.242c2.232-.064 4.975-.275 8.23-.634M471.09 713.57c3.143.057 5.577-.009 7.3-.2M490.483 713.406c2.13-.111 4.41-.386 6.839-.825" style="fill:none;stroke:#000;stroke-width:1.55905;stroke-linecap:round;stroke-linejoin:round;stroke-miterlimit:10;stroke-dasharray:none;stroke-opacity:1" transform="matrix(.72727 0 0 .72727 -163.943 3.021)"/><path d="M226.443 482.015a448.31 448.31 0 0 1 .008-4.84c.007-.486.02-1.008.041-1.565.022-.558.05-1.08.087-1.57.036-.488.067-.91.09-1.267.036-.526.068-1.135.094-1.826M226.531 470.82a94.01 94.01 0 0 1 2.746-.03c.796 0 1.476-.001 2.042-.004.565-.003 1.092-.005 1.582-.005s.957.026 1.402.081c.445.055.867.103 1.267.146.599.063 1.2.122 1.806.175M503.258 470.87c.303.094.756.155 1.36.184.386.019.738.04 1.055.065.317.025.69.042 1.118.052.427.01.862.017 1.304.021.441.004.87.013 1.286.027.416.014.818.048 1.204.1.386.054.729.105 1.027.154.298.05.572.085.82.107.363.032.827-.008 1.39-.122M514.399 471.676c-.013.112-.002.41.035.896.037.486.076.857.117 1.114.04.257.075.483.103.68.029.195.053.518.072.968.02.449.03.901.033 1.356.002.455-.004.911-.017 1.37-.013.458-.024.906-.032 1.344-.013.636-.028 1.699-.046 3.189" style="fill:none;stroke:#000;stroke-width:1.55905;stroke-linecap:round;stroke-linejoin:round;stroke-miterlimit:10;stroke-dasharray:none;stroke-opacity:1" transform="matrix(.72727 0 0 .72727 -163.615 -33.68)"/><path d="M508.131 712.2c.133.022.44-.01.919-.094.48-.084.857-.139 1.134-.164.276-.026.67-.05 1.18-.075.511-.025.933-.048 1.265-.07.332-.02.68-.038 1.045-.05.532-.018 1.318-.084 2.36-.198M516.364 711.188c.09-.94.155-1.644.193-2.109.026-.32.052-.677.079-1.074.027-.397.053-.827.08-1.29.027-.463.047-.952.06-1.466.013-.513.02-1.042.021-1.584.001-.542.004-1.06.007-1.555.005-.724.062-1.718.173-2.983M228.272 708.812c-.04.123-.06.359-.06.71.002.35.008.693.019 1.03.01.335.021 1.008.033 2.018.012 1.01.037 1.767.075 2.27.038.502.092.976.16 1.422.101.654.243 1.54.425 2.658M229.182 719.28a77.17 77.17 0 0 0 3.049-.226c.534-.054.976-.088 1.326-.103.35-.015.728-.023 1.135-.025.407 0 .835-.006 1.286-.013.45-.007.896-.023 1.337-.048.655-.037 1.373.007 2.155.13" style="fill:none;stroke:#000;stroke-width:1.55905;stroke-linecap:round;stroke-linejoin:round;stroke-miterlimit:10;stroke-dasharray:none;stroke-opacity:1" transform="matrix(.72727 0 0 .72727 -163.943 3.021)"/><path d="m247.61 747.317-.065-1.585v-.03l.001.008.05.393c.033.248.133.66.301 1.237.168.576.403 1.293.705 2.15.302.856.65 1.777 1.043 2.763.394.986.779 1.9 1.156 2.74.377.84.733 1.503 1.069 1.99.335.488.638.795.909.924.27.128.536.053.795-.226.26-.278.498-.818.716-1.62.217-.802.443-1.637.676-2.504.233-.866.507-1.677.821-2.432.314-.755.646-1.438.995-2.05.52-.909 1.175-1.81 1.967-2.702M264.829 751.018c.318.043.661-.016 1.03-.177.37-.16.637-.295.803-.401a3.33 3.33 0 0 0 .534-.442 2.23 2.23 0 0 0 .461-.677c.118-.264.19-.548.215-.853a3.472 3.472 0 0 0-.06-.95 2.415 2.415 0 0 0-.423-.948 2.283 2.283 0 0 0-.785-.7 2.361 2.361 0 0 0-.962-.277c-.335-.023-.659.1-.97.369-.312.269-.579.655-.802 1.158-.222.504-.391 1.144-.506 1.922a19.78 19.78 0 0 0-.2 2.454c-.017.858.108 1.617.377 2.278.27.66.632 1.203 1.089 1.627.457.425.956.69 1.498.799.779.154 2.09-.386 3.936-1.62M276.66 746.87c.053-.375.009-.685-.132-.929a1.12 1.12 0 0 0-.392-.402 1.637 1.637 0 0 0-.621-.206c-.25-.037-.538.002-.867.117-.328.115-.665.386-1.008.815-.344.43-.612.973-.805 1.63-.193.659-.3 1.351-.32 2.077-.018.727.077 1.394.286 2.002.21.609.477 1.148.803 1.619.326.47.683.845 1.072 1.124.557.4 1.692.303 3.404-.29" style="fill:none;stroke:#007aff;stroke-width:1.55905;stroke-linecap:round;stroke-linejoin:round;stroke-miterlimit:10;stroke-dasharray:none;stroke-opacity:1" transform="matrix(.72727 0 0 .72727 -149.451 -51.715)"/><path d="M283.68 738.386v-.132c0-.008.003-.005.011.01l.07.133c.04.073.096.408.17 1.003.108.856.202 2.737.283 5.642M284.84 754.947c-.247-.076-.316-.21-.208-.4.077-.137.21-.234.401-.29.19-.056.347-.054.471.003a.93.93 0 0 1 .535.78c.024.21-.033.459-.17.745-.196.41-.74.644-1.631.702" style="fill:none;stroke:#007aff;stroke-width:1.55905;stroke-linecap:round;stroke-linejoin:round;stroke-miterlimit:10;stroke-dasharray:none;stroke-opacity:1" transform="matrix(.72727 0 0 .72727 -149.869 -50.571)"/><path d="M292.092 759.285c1.477.162 2.773.246 3.886.254.753.005 1.34.005 1.758 0 .6-.009 2.303-.139 5.11-.391M291.76 757.918c-.12.087-.208-.03-.265-.351-.056-.321-.086-2.204-.087-5.648-.002-3.444.01-5.743.037-6.898a90.99 90.99 0 0 1 .134-3.296c.092-1.542.08-3.329-.034-5.361M290.659 736.253c2.005-.244 3.32-.373 3.944-.387.433-.01.995.014 1.687.072.691.058 1.422.14 2.192.246 1.124.154 2.76.305 4.906.454" style="fill:none;stroke:#007aff;stroke-width:1.55905;stroke-linecap:round;stroke-linejoin:round;stroke-miterlimit:10;stroke-dasharray:none;stroke-opacity:1" transform="matrix(.72727 0 0 .72727 -150.493 -49.593)"/><path d="M306.509 746.56c.038-.421.057-.735.057-.94 0-.141-.007-.303-.024-.485a1.442 1.442 0 0 0-.143-.512.992.992 0 0 0-.318-.38 1.207 1.207 0 0 0-.49-.193 2.31 2.31 0 0 0-.709.006c-.28.039-.567.142-.863.31-.296.168-.598.427-.906.779-.309.351-.607.81-.895 1.377a10.724 10.724 0 0 0-.746 1.978c-.209.752-.348 1.522-.416 2.31-.07.788-.064 1.522.016 2.202.08.68.25 1.254.511 1.721.261.468.63.832 1.106 1.093a3.854 3.854 0 0 0 1.623.45 3.705 3.705 0 0 0 1.792-.342 7.615 7.615 0 0 0 1.661-1.031c.518-.421.95-.921 1.293-1.5.344-.579.584-1.2.72-1.863.137-.663.191-1.322.162-1.977a4.445 4.445 0 0 0-.504-1.872c-.308-.593-.638-1.05-.991-1.37-.353-.322-.596-.526-.73-.614a2.985 2.985 0 0 0-.633-.28 4.452 4.452 0 0 0-.571-.17c-.133-.021-.442.168-.925.568M314.565 755.202l-.243.287M321.244 746.85c-.101-.546-.22-.917-.355-1.113a.934.934 0 0 0-.29-.288.876.876 0 0 0-.382-.1c-.155-.01-.323.053-.502.19-.18.136-.346.332-.502.586-.155.254-.27.568-.346.94a6.42 6.42 0 0 0-.117 1.227c-.003.445.062.855.194 1.23s.308.667.528.876c.22.21.477.372.773.487.297.115.653.238 1.07.37.415.132.837.32 1.265.566.427.246.796.541 1.104.887.31.346.554.702.736 1.067.182.365.299.705.351 1.02.053.316.064.582.035.799-.029.216-.064.365-.105.447-.042.08-.172.216-.39.404-.22.188-.516.337-.89.446-.375.11-.814.173-1.32.188a7.132 7.132 0 0 1-1.554-.13 5.307 5.307 0 0 1-1.43-.477c-.422-.217-.756-.48-1-.788a2.044 2.044 0 0 1-.44-.98c-.05-.343.027-.711.232-1.102.205-.392.491-.77.86-1.136.368-.365.79-.7 1.265-1.002.475-.302.966-.597 1.472-.885a6.476 6.476 0 0 0 1.248-.894c.325-.307.547-.663.666-1.067a2.93 2.93 0 0 0 .098-1.214c-.052-.405-.249-.78-.59-1.126a4.797 4.797 0 0 0-1.275-.904 5.618 5.618 0 0 0-1.421-.515 2.77 2.77 0 0 0-1.858.265" style="fill:none;stroke:#ff21b3;stroke-width:1.55905;stroke-linecap:round;stroke-linejoin:round;stroke-miterlimit:10;stroke-dasharray:none;stroke-opacity:1" transform="matrix(.72727 0 0 .72727 -148.157 -49.743)"/><path d="M329.8 757.34c-.022.115.037.174.177.177.1.002.211.02.333.055.121.034.23.12.329.257.097.137.156.362.175.676.027.453-.212 1.181-.718 2.183" style="fill:none;stroke:#007aff;stroke-width:1.55905;stroke-linecap:round;stroke-linejoin:round;stroke-miterlimit:10;stroke-dasharray:none;stroke-opacity:1" transform="matrix(.72727 0 0 .72727 -148.157 -49.743)"/><path d="M344.675 748.206c.12-.568.18-.98.18-1.235 0-.176-.054-.407-.164-.692a3.017 3.017 0 0 0-.377-.713 1.793 1.793 0 0 0-.53-.476 1.928 1.928 0 0 0-.71-.247 1.356 1.356 0 0 0-.785.124c-.262.121-.535.362-.82.722-.283.36-.555.866-.816 1.52-.26.653-.43 1.422-.512 2.307a12.15 12.15 0 0 0 .013 2.504c.09.784.36 1.735.806 2.852.446 1.117.919 1.936 1.418 2.455.5.519 1.037.835 1.61.947.574.113 1.124-.019 1.649-.395a4.08 4.08 0 0 0 1.246-1.43 5.5 5.5 0 0 0 .588-1.901c.087-.689.09-1.357.008-2.005a5.28 5.28 0 0 0-.533-1.771 10.046 10.046 0 0 0-.955-1.51 23.887 23.887 0 0 0-.978-1.206c-.486-.554-.8-.899-.945-1.034M351.494 756.163l-.329-.317M354.584 749.407c-.137 0-.285-.248-.442-.745a4.317 4.317 0 0 1-.175-1.614c.04-.578.12-1.038.24-1.379.119-.34.277-.665.474-.974.197-.31.404-.514.62-.614.217-.1.427-.068.629.094s.367.487.495.975.217 1.014.269 1.579c.051.564.082 1.283.092 2.158.01.874.008 1.393-.006 1.556l-.027.321c-.004.051.022.05.078-.007l.354-.35c.18-.179.419-.356.716-.532.297-.176.645-.3 1.044-.374a3.08 3.08 0 0 1 1.141-.006c.362.07.727.246 1.093.527.367.282.693.637.978 1.064.286.428.488.886.606 1.374.12.489.172.919.158 1.29-.014.371-.204.846-.57 1.424a6.04 6.04 0 0 1-1.267 1.455c-.687.563-2.092.578-4.216.045" style="fill:none;stroke:#ff21b3;stroke-width:1.55905;stroke-linecap:round;stroke-linejoin:round;stroke-miterlimit:10;stroke-dasharray:none;stroke-opacity:1" transform="matrix(.72727 0 0 .72727 -148.157 -49.743)"/><path d="M368.036 757.02c.222.092.443.288.663.586.144.196.274.447.392.754.169.44.219 1.473.15 3.097" style="fill:none;stroke:#007aff;stroke-width:1.55905;stroke-linecap:round;stroke-linejoin:round;stroke-miterlimit:10;stroke-dasharray:none;stroke-opacity:1" transform="matrix(.72727 0 0 .72727 -148.157 -49.743)"/><path d="M388.587 747.335c-.07-.103-.11-.28-.116-.532a1.993 1.993 0 0 0-.109-.638 2.364 2.364 0 0 0-.866-1.09 3.89 3.89 0 0 0-.784-.426 2.93 2.93 0 0 0-.934-.21 1.867 1.867 0 0 0-.97.204c-.312.156-.634.414-.965.773-.331.36-.666.87-1.004 1.533a9.795 9.795 0 0 0-.796 2.24 9.33 9.33 0 0 0-.215 2.626c.05.92.28 1.788.693 2.604.413.817.906 1.447 1.48 1.89a3.212 3.212 0 0 0 1.918.692 4.106 4.106 0 0 0 2.04-.485 6.823 6.823 0 0 0 1.672-1.2c.46-.459.83-.999 1.107-1.62a6.106 6.106 0 0 0 .51-1.959 4.862 4.862 0 0 0-.207-1.954 4.451 4.451 0 0 0-.909-1.612c-.405-.456-.786-.797-1.14-1.023-.557-.356-.994-.583-1.313-.679M394.667 755.303l-.187.159M401.916 747.436c-.092-.653-.205-1.08-.34-1.279a1.556 1.556 0 0 0-.312-.347 1.535 1.535 0 0 0-.476-.241 2.467 2.467 0 0 0-.72-.111c-.277-.007-.56.084-.85.272-.29.188-.567.521-.832.999-.266.478-.465 1.105-.599 1.883a9.876 9.876 0 0 0-.079 2.538c.08.915.3 1.73.655 2.443.356.715.801 1.223 1.335 1.526.533.303 1.1.42 1.698.353a3.488 3.488 0 0 0 1.676-.667c.52-.377.955-.805 1.307-1.284a5.35 5.35 0 0 0 .768-1.416c.16-.464.215-.904.166-1.32-.048-.415-.234-.854-.556-1.316-.323-.462-.72-.929-1.195-1.4a12.706 12.706 0 0 0-1.42-1.229 27.485 27.485 0 0 0-2.097-1.407" style="fill:none;stroke:#ff21b3;stroke-width:1.55905;stroke-linecap:round;stroke-linejoin:round;stroke-miterlimit:10;stroke-dasharray:none;stroke-opacity:1" transform="matrix(.72727 0 0 .72727 -148.157 -49.743)"/><path d="M226.764 746.258c-.026-.833.039-2.912.193-6.237M226.546 730.153c-.217-2.47-.308-4.356-.272-5.66M226.2 714.138l.09-3.818M226.213 700.981c-.09-.143-.15-1.475-.18-3.994M225.802 683.944c.039-.377.308-1.837.807-4.38M516.987 695.11c-.03.731-.026 1.371.015 1.92.04.549.075 1.19.105 1.924M517.57 706.075a119.89 119.89 0 0 0-.034 4.76M517.723 718.655c-.058.927-.065 2.208-.02 3.843M516.735 733.958c-.098.361-.178.947-.243 1.758a125.72 125.72 0 0 0-.246 4.014" style="fill:none;stroke:#000;stroke-width:1.55905;stroke-linecap:round;stroke-linejoin:round;stroke-miterlimit:10;stroke-dasharray:none;stroke-opacity:1" transform="matrix(.72727 0 0 .72727 -163.615 -33.68)"/><path d="M242.824 736.117c.274.006.873-.01 1.798-.05s1.734-.1 2.428-.184a106.57 106.57 0 0 1 1.93-.217c.867-.089 2.121-.215 3.764-.379M242.549 730.873c.785.027 1.347.042 1.684.044.233 0 .539-.01.917-.032s.825-.057 1.34-.103c.516-.046 1.198-.098 2.045-.155 1.27-.087 2.556-.163 3.856-.23" style="fill:none;stroke:#fff;stroke-width:1.55905;stroke-linecap:round;stroke-linejoin:round;stroke-miterlimit:10;stroke-dasharray:none;stroke-opacity:1" transform="matrix(.72727 0 0 .72727 -162.526 -36.43)"/><path d="M433.872 717.399c-1.486-.162-2.79-.248-3.91-.256a96.376 96.376 0 0 0-1.768 0c-.603.009-2.316.14-5.14.393M434.207 718.774c.12-.087.208.031.265.354.057.323.086 2.216.088 5.681 0 3.465-.012 5.778-.039 6.94a91.3 91.3 0 0 1-.135 3.315c-.092 1.551-.081 3.35.034 5.394M435.312 740.57c-2.018.244-3.34.374-3.968.388-.435.01-1-.014-1.697-.073a42.384 42.384 0 0 1-2.205-.247c-1.131-.155-2.776-.307-4.935-.458" style="fill:none;stroke:#007aff;stroke-width:1.56838;stroke-linecap:round;stroke-linejoin:round;stroke-miterlimit:10;stroke-dasharray:none;stroke-opacity:1" transform="matrix(.72727 0 0 .72727 -162.1 -33.714)"/></svg>