<svg xmlns="http://www.w3.org/2000/svg" width="229.705" height="72.083"><path d="M511.579 497.14c-.06 3.166-.016 5.818.131 7.954l.441 6.376c.194 2.8.353 6.003.477 9.609.124 3.605.21 7.15.256 10.636.046 3.485.075 6.83.086 10.035.017 4.729.13 10.425.338 17.09" style="fill:none;stroke:#fff;stroke-width:2.38259;stroke-linecap:round;stroke-linejoin:round;stroke-miterlimit:10;stroke-dasharray:none;stroke-opacity:1" transform="matrix(.72727 0 0 .72727 -215.196 -360.357)"/><path d="M477.96 529.078c.863-.274 3.281-.423 7.254-.45 2.34-.014 4.198-.032 5.576-.053a139.45 139.45 0 0 0 4.697-.159c1.754-.085 3.636-.186 5.646-.302 2.01-.115 4.183-.236 6.52-.36 2.337-.126 4.793-.246 7.37-.36 2.575-.116 5.297-.197 8.164-.245 2.868-.047 5.87-.077 9.007-.089 3.137-.011 6.215.015 9.235.079 3.02.063 6.112.14 9.278.231 3.165.091 6.348.189 9.547.294 3.199.104 6.436.226 9.71.363 3.274.137 6.455.291 9.542.46 3.087.17 6.05.34 8.89.509 4.183.249 9.328.735 15.433 1.457" style="fill:none;stroke:#fff;stroke-width:2.38259;stroke-linecap:round;stroke-linejoin:round;stroke-miterlimit:10;stroke-dasharray:none;stroke-opacity:1" transform="matrix(.72727 0 0 .72727 -215.196 -360.357)"/><path d="M598.672 522.575c.248 0 1.155.179 2.72.539 1.566.36 2.749.729 3.548 1.108.799.38 1.462.73 1.99 1.05.53.321 1.057.7 1.583 1.137.526.437.962.89 1.306 1.356.345.466.565.91.66 1.331.095.422.094.83-.004 1.224s-.336.811-.715 1.251c-.378.44-.91.896-1.595 1.371-.685.475-1.469.94-2.353 1.395-1.28.66-3.7 1.657-7.262 2.993" style="fill:none;stroke:#fff;stroke-width:2.38259;stroke-linecap:round;stroke-linejoin:round;stroke-miterlimit:10;stroke-dasharray:none;stroke-opacity:1" transform="matrix(.72727 0 0 .72727 -215.196 -360.357)"/><path d="M560.66 527.508c-.08-.131-.145-.383-.195-.754a8.972 8.972 0 0 1-.082-.827 1.32 1.32 0 0 1 .07-.484c.05-.143.114-.267.19-.372a.806.806 0 0 1 .313-.252.847.847 0 0 1 .405-.086c.138.006.272.106.403.301.13.196.235.457.315.784.08.327.13.67.151 1.029.022.358.018.71-.012 1.053-.029.343-.126.643-.291.9-.165.255-.383.459-.654.61-.271.15-.558.24-.86.27-.3.03-.575-.019-.82-.146a1.291 1.291 0 0 1-.574-.623 2.693 2.693 0 0 1-.246-.933c-.028-.335.002-.64.091-.915s.216-.489.381-.641c.166-.153.43-.257.792-.313.363-.056.7-.018 1.01.114.311.132.57.335.777.607.207.273.351.57.431.893.08.322.119.607.114.855-.006.348-.366.473-1.081.372" style="fill:none;stroke:#ff21b3;stroke-width:2.38259;stroke-linecap:round;stroke-linejoin:round;stroke-miterlimit:10;stroke-dasharray:none;stroke-opacity:1" transform="matrix(.72727 0 0 .72727 -217.859 -361.218)"/><path d="M513.31 528.683c-.285.088-.448-.01-.49-.295-.03-.203.04-.35.212-.442a1.09 1.09 0 0 1 .573-.124c.21.01.347.06.408.151.062.092.094.344.095.756.001.412-.066.744-.202.996a2.605 2.605 0 0 1-.442.613c-.158.157-.384.286-.68.389-.296.102-.56.149-.792.14a.69.69 0 0 1-.551-.28c-.134-.178-.212-.407-.233-.686a1.815 1.815 0 0 1 .16-.862c.127-.296.302-.557.525-.782.222-.225.425-.386.61-.48.185-.096.332-.135.441-.119.156.023.29.31.402.862M511.484 502.912c.197.234.305.446.324.637.013.131-.025.161-.114.09-.089-.07-.17-.24-.245-.511a2.86 2.86 0 0 1-.118-.6.772.772 0 0 1 .052-.33.336.336 0 0 1 .2-.188.678.678 0 0 1 .363-.01c.147.028.303.132.468.31.165.177.324.383.479.617.154.235.275.461.362.68.088.218.14.414.155.586a.984.984 0 0 1-.061.47c-.057.14-.206.26-.447.361-.24.101-.532.173-.876.216a9.963 9.963 0 0 1-1.106.073 2.755 2.755 0 0 1-1.042-.169c-.3-.117-.508-.282-.624-.495a1.363 1.363 0 0 1-.163-.704c.007-.257.113-.506.316-.747.203-.242.452-.434.747-.577.294-.143.573-.225.837-.247.263-.02.464.056.603.23.139.175.222.382.249.62.04.355-.011.714-.154 1.078M512.555 555.431a1.656 1.656 0 0 1-.407-1.168c.008-.305.052-.516.132-.633a.623.623 0 0 1 .298-.242 1.38 1.38 0 0 1 .44-.074c.174-.005.355.065.544.209.188.143.344.34.467.59a2.6 2.6 0 0 1 .244.8c.04.285.058.55.056.793-.002.244-.07.44-.2.59a.889.889 0 0 1-.519.286 3.3 3.3 0 0 1-.717.05 1.363 1.363 0 0 1-.748-.256 1.255 1.255 0 0 1-.488-.642 1.923 1.923 0 0 1-.1-.791.985.985 0 0 1 .341-.668c.205-.184.435-.314.69-.391.257-.078.476-.097.658-.06.183.039.313.154.39.347.078.193.118.44.12.74.002.3-.087.448-.269.445" style="fill:none;stroke:#ff21b3;stroke-width:2.38259;stroke-linecap:round;stroke-linejoin:round;stroke-miterlimit:10;stroke-dasharray:none;stroke-opacity:1" transform="matrix(.72727 0 0 .72727 -215.196 -360.357)"/><path d="M330.867 496.691c-.05 3.19.002 5.861.157 8.013l.464 6.423c.204 2.82.374 6.046.51 9.678.136 3.633.233 7.204.29 10.715.057 3.511.097 6.881.118 10.11.032 4.764.162 10.503.392 17.217" style="fill:none;stroke:#fff;stroke-width:2.40041;stroke-linecap:round;stroke-linejoin:round;stroke-miterlimit:10;stroke-dasharray:none;stroke-opacity:1" transform="matrix(.72727 0 0 .72727 -215.196 -360.357)"/><path d="M297.095 528.97c.869-.277 3.304-.435 7.307-.474a715.74 715.74 0 0 0 5.617-.07c1.388-.025 2.966-.084 4.733-.175 1.766-.092 3.662-.2 5.687-.322 2.024-.123 4.213-.25 6.567-.384 2.354-.133 4.829-.261 7.423-.385 2.595-.124 5.337-.214 8.226-.27a703.29 703.29 0 0 1 9.073-.118c3.16-.021 6.262-.004 9.305.05 3.042.055 6.158.124 9.348.205 3.189.082 6.395.17 9.619.267 3.223.095 6.484.207 9.783.336 3.3.128 6.505.273 9.615.435 3.111.161 6.098.323 8.96.484 4.214.239 9.398.712 15.552 1.421" style="fill:none;stroke:#fff;stroke-width:2.40041;stroke-linecap:round;stroke-linejoin:round;stroke-miterlimit:10;stroke-dasharray:none;stroke-opacity:1" transform="matrix(.72727 0 0 .72727 -215.196 -360.357)"/><path d="M418.69 522.049c.25-.001 1.163.177 2.742.534 1.579.358 2.771.727 3.577 1.107s1.476.73 2.01 1.051c.533.322 1.065.702 1.597 1.14.532.44.972.893 1.32 1.362.349.469.572.915.669 1.34.097.424.097.835 0 1.233-.097.397-.336.818-.716 1.262-.38.444-.915.906-1.603 1.387-.688.48-1.477.95-2.367 1.412-1.287.669-3.723 1.681-7.307 3.038" style="fill:none;stroke:#fff;stroke-width:2.40041;stroke-linecap:round;stroke-linejoin:round;stroke-miterlimit:10;stroke-dasharray:none;stroke-opacity:1" transform="matrix(.72727 0 0 .72727 -215.196 -360.357)"/><path d="M380.408 527.136c-.081-.133-.147-.386-.198-.76a9.018 9.018 0 0 1-.085-.832 1.321 1.321 0 0 1 .068-.489 1.49 1.49 0 0 1 .191-.375.813.813 0 0 1 .315-.255.85.85 0 0 1 .407-.088c.139.005.275.107.407.303.132.197.239.46.32.789.081.329.133.674.156 1.036.022.36.02.714-.01 1.06a1.953 1.953 0 0 1-.29.908 1.829 1.829 0 0 1-.658.617c-.272.152-.56.244-.864.275-.304.03-.58-.018-.828-.145a1.3 1.3 0 0 1-.58-.625 2.716 2.716 0 0 1-.25-.94c-.03-.338 0-.645.088-.922.09-.278.217-.494.383-.648.166-.154.432-.26.797-.317.365-.058.704-.02 1.018.112.313.132.575.335.784.61.21.273.355.572.437.897.082.325.121.611.118.86-.005.352-.368.479-1.089.38" style="fill:none;stroke:#ff21b3;stroke-width:2.40041;stroke-linecap:round;stroke-linejoin:round;stroke-miterlimit:10;stroke-dasharray:none;stroke-opacity:1" transform="matrix(.72727 0 0 .72727 -213.317 -362.296)"/><path d="M332.707 528.465c-.285.09-.45-.009-.493-.296-.031-.204.04-.353.212-.446.172-.093.365-.135.577-.127.212.01.349.06.412.152.062.092.095.346.098.76.003.415-.065.75-.202 1.005a2.63 2.63 0 0 1-.443.62c-.158.157-.386.288-.683.392a2.2 2.2 0 0 1-.798.143.696.696 0 0 1-.556-.28c-.136-.179-.215-.408-.237-.69a1.83 1.83 0 0 1 .159-.869 2.55 2.55 0 0 1 .526-.79c.223-.227.427-.389.613-.485.186-.097.334-.137.444-.12.158.022.294.311.408.867M330.79 502.507c.199.235.308.448.328.64.013.133-.025.163-.115.092-.09-.071-.172-.243-.248-.515a2.874 2.874 0 0 1-.12-.604.783.783 0 0 1 .05-.332.34.34 0 0 1 .202-.19.683.683 0 0 1 .365-.012c.148.029.305.132.472.31.167.18.328.386.485.622.156.235.278.463.367.683.089.22.141.417.158.59a.991.991 0 0 1-.06.474c-.057.141-.207.263-.45.365a3.402 3.402 0 0 1-.881.22c-.346.045-.718.07-1.115.077a2.782 2.782 0 0 1-1.05-.166c-.303-.118-.513-.283-.63-.498a1.374 1.374 0 0 1-.166-.709c.007-.258.112-.51.316-.753.204-.244.454-.439.75-.584a2.37 2.37 0 0 1 .843-.25c.265-.023.468.054.608.23.14.175.225.383.253.623.041.357-.01.719-.152 1.086M332.03 555.415a1.668 1.668 0 0 1-.414-1.175c.007-.308.05-.52.13-.639.08-.118.18-.2.3-.245.12-.045.267-.07.443-.075.176-.005.359.064.549.208.19.144.348.342.473.593.125.25.207.52.248.806.04.287.06.553.058.798-.002.246-.068.444-.198.595a.895.895 0 0 1-.523.29c-.217.043-.458.06-.723.054a1.371 1.371 0 0 1-.753-.257 1.265 1.265 0 0 1-.494-.646 1.938 1.938 0 0 1-.104-.796.993.993 0 0 1 .342-.674c.206-.185.438-.317.695-.396.257-.079.478-.1.662-.062.184.038.315.154.394.348.079.194.12.442.123.745.003.302-.087.452-.27.45" style="fill:none;stroke:#ff21b3;stroke-width:2.40041;stroke-linecap:round;stroke-linejoin:round;stroke-miterlimit:10;stroke-dasharray:none;stroke-opacity:1" transform="matrix(.72727 0 0 .72727 -215.196 -360.357)"/><path d="M479.638 560.294c.359.04.75.058 1.171.056a5.125 5.125 0 0 0 1.311-.19c.452-.122.952-.3 1.499-.53a16.295 16.295 0 0 0 3.473-2.04 70.09 70.09 0 0 1 1.853-1.368c.66-.472 1.34-.968 2.038-1.488a22.707 22.707 0 0 0 2.049-1.728c.666-.631 1.367-1.281 2.101-1.95a68.164 68.164 0 0 0 2.152-2.048c.7-.696 1.42-1.422 2.158-2.177.738-.756 1.47-1.487 2.196-2.193a35.823 35.823 0 0 0 2.062-2.18l2.004-2.304a37.622 37.622 0 0 0 1.914-2.386c.59-.8 1.138-1.646 1.646-2.54a158.98 158.98 0 0 1 1.619-2.775c.57-.957 1.13-1.903 1.676-2.836a59.878 59.878 0 0 0 1.584-2.888 85.452 85.452 0 0 1 3.417-6.04c.638-1.029 1.242-2.037 1.81-3.023a72.493 72.493 0 0 1 1.824-2.991 35.295 35.295 0 0 1 2.002-2.814c.687-.87 1.34-1.71 1.96-2.523a29.31 29.31 0 0 1 1.977-2.332 50.247 50.247 0 0 1 2.087-2.093 90.308 90.308 0 0 1 2.061-1.887 14.359 14.359 0 0 1 2.172-1.592 21.44 21.44 0 0 1 2.13-1.129 8.646 8.646 0 0 1 1.954-.627 9.112 9.112 0 0 1 1.946-.158c.648.017 1.242.12 1.784.308.541.188 1.083.425 1.624.711.54.286 1.108.63 1.701 1.033.593.402 1.14.849 1.641 1.339.501.49.986 1.034 1.453 1.63.468.596.95 1.263 1.444 2a23.79 23.79 0 0 1 1.387 2.365c.431.838.824 1.71 1.18 2.614.354.904.68 1.843.976 2.815.296.972.577 1.937.841 2.896.265.959.54 1.972.828 3.04.288 1.069.577 2.191.867 3.367.29 1.176.575 2.355.854 3.537.28 1.182.562 2.361.846 3.538.284 1.176.568 2.33.852 3.462.284 1.132.584 2.254.898 3.364.315 1.11.66 2.248 1.034 3.413.374 1.164.77 2.367 1.19 3.609.42 1.241.848 2.436 1.283 3.583a65.624 65.624 0 0 0 1.32 3.237c.447 1.01.951 1.956 1.515 2.837.564.88 1.147 1.694 1.747 2.44.601.745 1.183 1.419 1.746 2.02a12.454 12.454 0 0 0 1.835 1.613c.66.474 1.357.851 2.088 1.13a8.87 8.87 0 0 0 2.226.542 8.88 8.88 0 0 0 2.382-.081 9.111 9.111 0 0 0 2.441-.766 24.72 24.72 0 0 0 2.462-1.352 39.01 39.01 0 0 0 2.531-1.714 85.444 85.444 0 0 0 2.538-1.941 68.12 68.12 0 0 0 2.591-2.17 103.66 103.66 0 0 0 2.75-2.512 431.562 431.562 0 0 1 5.754-5.309" style="fill:none;stroke:#7ec636;stroke-width:2.38259;stroke-linecap:round;stroke-linejoin:round;stroke-miterlimit:10;stroke-dasharray:none;stroke-opacity:1" transform="matrix(.72727 0 0 .72727 -215.196 -360.357)"/><path d="M300.123 529.54c-.099.124-.08.181.057.17.1-.008.236-.114.408-.318.173-.205.498-.732.976-1.582.478-.85.863-1.55 1.156-2.1.294-.55.612-1.142.954-1.775.342-.634.728-1.274 1.156-1.921a77.87 77.87 0 0 1 1.36-1.983c.477-.674.95-1.352 1.416-2.033a64.49 64.49 0 0 1 1.446-2.022 28.026 28.026 0 0 1 1.706-2.064 171.8 171.8 0 0 1 3.853-4.121 34.73 34.73 0 0 1 2.028-1.933c.726-.64 1.43-1.248 2.115-1.825a23.966 23.966 0 0 1 2.163-1.624 34.09 34.09 0 0 1 2.327-1.42 46.7 46.7 0 0 1 2.338-1.22c.764-.371 1.546-.685 2.346-.943.8-.257 1.57-.445 2.308-.563.74-.118 1.513-.189 2.322-.213a70.336 70.336 0 0 1 2.3-.034 11.781 11.781 0 0 1 4.471.931c.733.31 1.394.66 1.985 1.054.59.394 1.19.82 1.798 1.28.608.46 1.214.94 1.819 1.44.604.501 1.15 1.01 1.637 1.526a798.085 798.085 0 0 1 3.176 3.387 21.327 21.327 0 0 1 1.59 1.93c.505.687.988 1.417 1.45 2.19.462.771.933 1.584 1.411 2.436.48.852.908 1.731 1.288 2.637.379.906.718 1.86 1.017 2.862.299 1.002.579 2.032.84 3.091.26 1.058.51 2.104.752 3.137.241 1.033.51 2.083.805 3.149.295 1.066.613 2.161.954 3.285.34 1.125.694 2.232 1.06 3.323a159.3 159.3 0 0 0 1.101 3.174c.368 1.025.752 2.04 1.151 3.044a28.042 28.042 0 0 0 1.315 2.85c.478.896 1 1.77 1.568 2.624a777.24 777.24 0 0 0 1.684 2.524c.555.83 1.105 1.597 1.648 2.303.543.706 1.15 1.357 1.818 1.953a20.645 20.645 0 0 0 2.003 1.582c.666.46 1.331.856 1.997 1.19.665.333 1.364.624 2.095.873.732.25 1.446.462 2.144.638a12.79 12.79 0 0 0 2.2.35c.77.056 1.514.076 2.235.06a14.38 14.38 0 0 0 2.154-.212 21.642 21.642 0 0 0 2.146-.49c.715-.2 1.41-.477 2.084-.828a20.098 20.098 0 0 0 2.107-1.282 17.768 17.768 0 0 0 2.078-1.676c.655-.615 1.598-1.657 2.829-3.128 1.23-1.472 2.13-2.633 2.7-3.483a25.74 25.74 0 0 0 1.615-2.79 96.7 96.7 0 0 0 1.523-3.187 102.23 102.23 0 0 0 1.513-3.492c.5-1.213.976-2.46 1.429-3.744.453-1.284.91-2.642 1.374-4.074.463-1.432.966-2.933 1.51-4.501a147.86 147.86 0 0 1 1.792-4.872 51.018 51.018 0 0 1 2.2-4.903c1.187-2.312 3.521-5.574 7.002-9.788" style="fill:none;stroke:#007aff;stroke-width:2.38259;stroke-linecap:round;stroke-linejoin:round;stroke-miterlimit:10;stroke-dasharray:none;stroke-opacity:1" transform="matrix(.72727 0 0 .72727 -215.196 -360.357)"/><path d="m421.837 512.14-.039-.068c-.003-.005-.006.014-.009.056l-.028.335a3.124 3.124 0 0 1-.114.593 4.931 4.931 0 0 1-.322.79 7.848 7.848 0 0 1-.622 1.025c-.26.37-.539.752-.835 1.143a9.353 9.353 0 0 1-.93 1.06 3.384 3.384 0 0 1-.992.695 2.73 2.73 0 0 1-.956.243c-.3.015-.575-.057-.826-.217a1.754 1.754 0 0 1-.608-.683 2.44 2.44 0 0 1-.278-.906 1.98 1.98 0 0 1 .105-.874c.1-.275.255-.534.468-.775.213-.241.467-.446.762-.614a1.83 1.83 0 0 1 .927-.251c.325 0 .638.117.94.348.302.231.609.546.92.944.31.398.646.847 1.007 1.346.36.499.747.945 1.161 1.339.599.568 1.787.924 3.564 1.067M338.374 499.002c.235.633.385 1.165.45 1.595.043.293.08.582.108.867.042.408.089 1.595.14 3.56M338.53 555.489c.572.023 1.277.032 2.115.026M343.877 551.99c-.01.918.003 1.684.04 2.296.036.598.08 2.018.132 4.26M338.228 531.094c.057-.178.041-.326-.047-.443a.512.512 0 0 0-.23-.175 1.5 1.5 0 0 0-.345-.08 3.523 3.523 0 0 0-.481-.024c-.183.002-.37.066-.565.193a1.66 1.66 0 0 0-.514.576 2.843 2.843 0 0 0-.32.957c-.063.38-.061.799.006 1.257.067.458.214.926.44 1.403.228.477.488.857.78 1.14.293.282.6.444.92.487.32.042.627-.059.918-.303.291-.245.536-.583.733-1.014a5.42 5.42 0 0 0 .415-1.321c.08-.45.117-.885.115-1.305-.003-.42-.071-.785-.204-1.093-.134-.308-.31-.533-.53-.676-.322-.21-.739-.302-1.25-.278M383.18 535.224c-.01.386.02.84.085 1.36.043.34.077.684.102 1.03.036.502.095 1.376.176 2.623M386.483 535.913c.014 1.239.015 2.654.002 4.247" style="fill:none;stroke:#ff21b3;stroke-width:1.55905;stroke-linecap:round;stroke-linejoin:round;stroke-miterlimit:10;stroke-dasharray:none;stroke-opacity:1" transform="matrix(.72727 0 0 .72727 -215.196 -360.357)"/><path d="M380.235 536.835c-.077 0-.226-.078-.447-.236-.221-.158-.358-.277-.412-.356a1.08 1.08 0 0 1-.135-.34 3.026 3.026 0 0 1-.066-.617 3.497 3.497 0 0 1 .104-.882c.076-.325.212-.63.409-.914.197-.284.431-.52.703-.706.272-.186.547-.297.823-.333.277-.036.555.007.834.13.28.122.586.278.919.465.333.187.676.366 1.028.535.352.169.71.311 1.074.427.365.115.767.187 1.207.216.44.029.906-.006 1.398-.105.71-.142 1.745-.866 3.105-2.17" style="fill:none;stroke:#ff21b3;stroke-width:1.55905;stroke-linecap:round;stroke-linejoin:round;stroke-miterlimit:10;stroke-dasharray:none;stroke-opacity:1" transform="matrix(.72727 0 0 .72727 -214.908 -360.824)"/><path d="M342.146 586.139c-.108-.873-.263-1.419-.465-1.637-.141-.152-.352-.253-.633-.304-.28-.05-.586-.003-.915.143-.33.146-.664.413-1.005.8-.341.387-.617.879-.826 1.476-.21.597-.315 1.293-.316 2.088 0 .795.15 1.574.452 2.338.303.764.695 1.345 1.178 1.743.483.398.973.632 1.47.702.706.1 1.717-.883 3.031-2.95M348.13 586.872c.009-.382-.044-.657-.157-.825-.078-.116-.239-.246-.483-.39a2.067 2.067 0 0 0-.689-.274 1.963 1.963 0 0 0-.732.029c-.274.056-.543.223-.806.5s-.47.633-.623 1.069c-.152.435-.238.954-.26 1.556a5.43 5.43 0 0 0 .254 1.817c.19.61.452 1.116.788 1.52.335.402.711.649 1.127.74.417.09.81.01 1.178-.238.369-.247.667-.622.895-1.125.228-.502.37-1.083.429-1.743.058-.66.05-1.295-.025-1.904-.075-.609-.19-1.122-.349-1.54-.224-.594-.548-.816-.971-.669M353.535 586.657c0-.206-.025-.444-.074-.714a4.738 4.738 0 0 0-.23-.814 3.462 3.462 0 0 0-.287-.617.72.72 0 0 0-.298-.283.813.813 0 0 0-.393-.06c-.152.01-.31.084-.476.221a1.78 1.78 0 0 0-.418.507 1.92 1.92 0 0 0-.223.662 4.933 4.933 0 0 0-.052.753c0 .26.04.502.115.725.076.222.166.42.27.594.103.173.213.32.329.443.116.122.248.23.396.323.147.093.332.174.553.244.22.07.463.134.726.191.262.058.513.132.751.224.239.09.435.229.59.414.153.185.248.387.284.607.035.22.055.383.059.491.004.108-.086.336-.267.684a4.21 4.21 0 0 1-.736.996c-.453.464-1.122.768-2.006.913" style="fill:none;stroke:#007aff;stroke-width:1.55905;stroke-linecap:round;stroke-linejoin:round;stroke-miterlimit:10;stroke-dasharray:none;stroke-opacity:1" transform="matrix(.72727 0 0 .72727 -207.754 -361.24)"/><path d="M365.402 584.56c.108-.245.165-.36.17-.344l.034.085c.017.046-.012.248-.087.607a4.49 4.49 0 0 1-.328.992c-.143.303-.4.675-.772 1.118a6.905 6.905 0 0 1-1.219 1.145c-.44.321-.883.58-1.329.779a4.748 4.748 0 0 1-1.256.38c-.392.056-.724.041-.995-.044a.802.802 0 0 1-.546-.503c-.093-.25-.12-.544-.085-.881.036-.337.16-.674.37-1.01.211-.336.478-.616.8-.84a1.759 1.759 0 0 1 1.038-.334c.37.002.74.195 1.109.578.368.384.745.808 1.129 1.274.384.466.817.866 1.299 1.2.7.484 1.8.666 3.304.544" style="fill:none;stroke:#ff21b3;stroke-width:1.55905;stroke-linecap:round;stroke-linejoin:round;stroke-miterlimit:10;stroke-dasharray:none;stroke-opacity:1" transform="matrix(.72727 0 0 .72727 -207.005 -360.744)"/><path d="M554.991 536.814c-.01.386.019.84.085 1.36.043.34.077.684.102 1.03.036.501.095 1.376.175 2.622M558.294 537.503c.014 1.238.015 2.654.002 4.246" style="fill:none;stroke:#ff21b3;stroke-width:1.55905;stroke-linecap:round;stroke-linejoin:round;stroke-miterlimit:10;stroke-dasharray:none;stroke-opacity:1" transform="matrix(.72727 0 0 .72727 -215.196 -360.357)"/><path d="M552.442 537.783c-.077 0-.226-.079-.447-.237-.221-.157-.359-.276-.412-.355a1.08 1.08 0 0 1-.135-.34 3.019 3.019 0 0 1-.066-.617 3.492 3.492 0 0 1 .104-.882c.076-.325.212-.63.409-.914.196-.284.43-.52.703-.706.272-.186.546-.297.823-.333.276-.036.554.007.834.13.279.122.585.277.919.465.333.187.676.366 1.027.535.352.169.71.311 1.075.426a5.1 5.1 0 0 0 1.207.217c.44.029.906-.006 1.398-.105.71-.142 1.745-.866 3.105-2.17M518.623 498.775c.053.596.11 1.169.171 1.718.059.525.147 2.483.266 5.874M518.325 554.938l-.243.074h-.003.004c.005-.003.055-.018.148-.05.094-.03.274-.06.54-.092.381-.045 1.222.022 2.521.201M524.542 551.117c.032.658.067 1.177.104 1.557.025.26.065.573.12.94.053.366.118.854.194 1.464.112.9.237 1.956.376 3.164M519.403 533.217c-.142-.34-.404-.525-.787-.554-.264-.02-.482.017-.655.11a3.713 3.713 0 0 0-.63.461c-.246.214-.472.523-.678.928-.205.404-.328.877-.367 1.42-.04.544.051 1.053.271 1.527.22.474.513.837.88 1.09.366.251.766.393 1.199.423.433.03.85-.086 1.252-.35.402-.262.726-.642.971-1.139a4.42 4.42 0 0 0 .446-1.526c.052-.52-.008-.96-.179-1.32-.247-.52-.973-1.15-2.176-1.889M597.85 513.064l.015-.099a.515.515 0 0 0-.022.056l-.272.735c-.167.45-.324.833-.472 1.15-.149.316-.363.702-.643 1.158-.28.455-.596.897-.945 1.325-.35.429-.7.771-1.052 1.028-.353.257-.698.417-1.036.48a1.624 1.624 0 0 1-.977-.112c-.314-.138-.584-.394-.81-.767a4.443 4.443 0 0 1-.515-1.292 7.217 7.217 0 0 1-.197-1.408c-.016-.45.035-.826.154-1.127.12-.302.301-.54.546-.714a1.79 1.79 0 0 1 .803-.322c.291-.04.584.032.879.22.294.186.624.447.988.783s.756.723 1.175 1.16c.42.44.85.834 1.293 1.186.442.352.888.66 1.337.923.659.388 1.572.696 2.74.925" style="fill:none;stroke:#ff21b3;stroke-width:1.55905;stroke-linecap:round;stroke-linejoin:round;stroke-miterlimit:10;stroke-dasharray:none;stroke-opacity:1" transform="matrix(.72727 0 0 .72727 -215.196 -360.357)"/><path d="M528.218 588.213c.115-.154.189-.38.222-.678.032-.299.05-.624.051-.975a4.234 4.234 0 0 0-.137-1.074 2.73 2.73 0 0 0-.41-.925c-.181-.252-.387-.426-.62-.523a1.106 1.106 0 0 0-.73-.044c-.256.069-.499.25-.728.542-.23.293-.408.653-.536 1.079a5.61 5.61 0 0 0-.227 1.34c-.023.467-.02.908.01 1.323.03.416.095.78.192 1.09.098.311.232.552.401.72.17.17.6.27 1.29.3.691.03 1.296.074 1.815.13.519.055.975.18 1.368.372.393.192.673.439.84.74.166.3.222.652.167 1.057-.055.405-.25.801-.587 1.189a3.208 3.208 0 0 1-1.191.87c-.665.28-1.581.229-2.747-.154M534.318 588.087c-.012.987-.019 1.906-.019 2.755 0 .835.111 1.98.334 3.437M535.233 582.705l-.09-.26M539.216 587.94c-.05-.134-.077-.165-.085-.093l-.041.394c-.022.21-.014.534.023.971.038.437.103.953.195 1.547.092.595.213 1.323.364 2.185.15.862.236 1.337.258 1.425.02.088.032.136.034.142a.236.236 0 0 0-.005-.057l-.106-1.01a21.065 21.065 0 0 1-.115-1.799c-.011-.57.021-1.076.097-1.518.075-.442.219-.832.43-1.168.211-.336.454-.62.728-.852.274-.233.535-.382.783-.45.248-.066.468-.056.659.03.19.087.34.286.447.597.107.312.192.945.256 1.9.063.955.124 1.655.181 2.1.058.444.137.818.237 1.121.1.303.221.528.362.674a.819.819 0 0 0 .465.259c.24.037.675-.33 1.304-1.104" style="fill:none;stroke:#7ec636;stroke-width:1.55905;stroke-linecap:round;stroke-linejoin:round;stroke-miterlimit:10;stroke-dasharray:none;stroke-opacity:1" transform="matrix(.72727 0 0 .72727 -212.978 -361.16)"/><path d="M554.772 586.736c-.152.293-.294.688-.425 1.183-.086.321-.213.7-.38 1.133a7.819 7.819 0 0 1-.61 1.237c-.236.391-.516.755-.838 1.092-.323.337-.643.566-.96.687-.318.121-.609.144-.873.069-.264-.076-.5-.244-.708-.506a3.372 3.372 0 0 1-.508-.91 3.545 3.545 0 0 1-.232-1 2.462 2.462 0 0 1 .084-.886c.079-.268.222-.507.428-.716a1.6 1.6 0 0 1 .763-.428c.303-.076.62-.019.952.172.333.191.663.5.989.927.326.427.68.91 1.058 1.448.38.54.78 1.02 1.204 1.443.621.62 1.447.952 2.475.993" style="fill:none;stroke:#ff21b3;stroke-width:1.55905;stroke-linecap:round;stroke-linejoin:round;stroke-miterlimit:10;stroke-dasharray:none;stroke-opacity:1" transform="matrix(.72727 0 0 .72727 -211.632 -361.454)"/></svg>