<svg xmlns="http://www.w3.org/2000/svg" width="154.274" height="289.465"><path d="M249.622 402.04c.08-1.117.008-1.863-.215-2.239a2.333 2.333 0 0 0-.676-.704c-.296-.21-.679-.372-1.15-.488a8.277 8.277 0 0 0-1.682-.206c-.65-.022-1.37.158-2.156.539-.787.381-1.56 1.004-2.32 1.868-.759.864-1.388 1.878-1.887 3.042a11.704 11.704 0 0 0-.911 3.62c-.109 1.249.028 2.425.41 3.53.383 1.103.935 2.027 1.657 2.772.721.745 1.55 1.23 2.486 1.458a6.083 6.083 0 0 0 2.858 0c.968-.226 1.78-.6 2.433-1.121.653-.522 1.324-1.39 2.014-2.604.69-1.214 1.15-2.386 1.382-3.517.232-1.13.306-2.343.223-3.636-.083-1.294-.392-2.453-.927-3.476-.536-1.023-1.18-1.71-1.935-2.063-.755-.351-1.593-.4-2.514-.147-.922.253-1.784.824-2.586 1.713a11.213 11.213 0 0 0-1.931 2.965 12.466 12.466 0 0 0-.97 3.395 8.892 8.892 0 0 0 .178 3.424c.28 1.106.741 1.97 1.385 2.589.643.62 1.381.98 2.214 1.08.834.102 1.705-.165 2.614-.8.908-.634 1.716-1.458 2.422-2.471a15.395 15.395 0 0 0 1.739-3.286 13.63 13.63 0 0 0 .848-3.758c.114-1.329-.002-2.473-.345-3.432-.344-.959-.918-1.654-1.721-2.086-.804-.432-1.73-.635-2.781-.61-1.05.024-2.06.379-3.03 1.063-.969.684-1.756 1.618-2.362 2.8a10.906 10.906 0 0 0-1.142 3.622 8.357 8.357 0 0 0 .29 3.545c.348 1.133.905 2.087 1.67 2.863.766.777 1.614 1.257 2.546 1.44a4.1 4.1 0 0 0 2.646-.332c.833-.405 1.54-1.064 2.124-1.98.583-.916.97-1.972 1.162-3.168.192-1.195.197-2.376.015-3.543-.183-1.166-.56-2.158-1.136-2.975-.574-.817-1.27-1.338-2.088-1.564-.817-.226-1.651-.048-2.502.535-.85.583-1.611 1.408-2.282 2.474a14.74 14.74 0 0 0-1.538 3.198 9.21 9.21 0 0 0-.483 3.203c.033 1.069.218 1.944.556 2.626.338.682.966 1.225 1.884 1.629.918.404 1.797.43 2.638.076.84-.353 1.595-1.013 2.265-1.98.67-.966 1.173-2.03 1.51-3.192.335-1.162.477-2.291.425-3.388-.052-1.097-.331-2.012-.836-2.746a3.374 3.374 0 0 0-2.072-1.412c-.876-.207-1.795-.081-2.758.378-.963.46-1.829 1.192-2.597 2.198s-1.314 2.04-1.64 3.1a7.298 7.298 0 0 0-.249 3.234c.16 1.095.55 2.038 1.17 2.83.62.79 1.364 1.284 2.233 1.478.87.195 1.737.057 2.602-.412.865-.469 1.614-1.174 2.248-2.115a9.574 9.574 0 0 0 1.348-2.921c.265-1.007.344-1.973.237-2.9a5.303 5.303 0 0 0-.94-2.494 3.86 3.86 0 0 0-2.082-1.501 4.128 4.128 0 0 0-2.63.066c-.886.31-1.666.922-2.34 1.836-.675.915-1.127 1.855-1.357 2.82-.23.965-.227 1.86.01 2.686.237.826.66 1.434 1.27 1.824.61.39 1.314.49 2.115.3.8-.19 1.572-.647 2.315-1.368a11.429 11.429 0 0 0 1.86-2.327 7.14 7.14 0 0 0 .95-2.724c.135-.986.06-1.897-.225-2.735-.285-.839-.773-1.434-1.464-1.788-.691-.354-1.494-.418-2.41-.194-.914.224-1.734.77-2.46 1.637-.724.867-1.223 1.782-1.497 2.744-.274.962-.3 1.89-.078 2.783.221.894.68 1.73 1.376 2.51.696.78 1.353 1.329 1.97 1.648.617.319 1.416.379 2.398.18.983-.199 1.739-.659 2.269-1.38.53-.72.866-1.51 1.007-2.371.141-.86.094-1.8-.143-2.817-.237-1.018-.631-1.89-1.182-2.615-.55-.726-1.195-1.145-1.933-1.257-.738-.111-1.452.202-2.14.94-.69.74-1.198 1.64-1.524 2.703-.327 1.063-.507 2.022-.54 2.878-.032.856.185 2.004.652 3.443.468 1.44 1.032 2.496 1.694 3.169.662.673 1.357.986 2.086.938.729-.048 1.379-.541 1.95-1.48.57-.937.941-2.086 1.114-3.447.172-1.361.151-2.671-.062-3.93-.214-1.26-.633-2.317-1.258-3.174-.625-.857-1.324-1.367-2.097-1.529-.773-.162-1.53.061-2.27.67a7.68 7.68 0 0 0-1.854 2.27 7.96 7.96 0 0 0-.936 2.835c-.126.984-.11 2.035.05 3.15.158 1.117.434 1.99.825 2.621.392.63.857.973 1.396 1.026.539.053 1.099-.236 1.68-.865.58-.629 1.054-1.464 1.42-2.506.365-1.042.59-2.066.674-3.072.084-1.007-.003-1.916-.262-2.727-.258-.812-.737-1.431-1.437-1.858-.7-.428-1.594-.557-2.682-.39-1.087.168-2.07.63-2.948 1.386-.878.757-1.513 1.542-1.906 2.358a5.272 5.272 0 0 0-.506 2.642c.055.947.326 1.838.81 2.672.486.834 1.099 1.466 1.84 1.895.74.43 1.517.598 2.33.505.814-.092 1.574-.528 2.28-1.305a9 9 0 0 0 1.683-2.724c.416-1.037.665-2.03.745-2.98.08-.948-.01-1.834-.272-2.659a3.686 3.686 0 0 0-1.438-1.965c-.698-.486-1.5-.676-2.407-.57-.906.105-1.712.571-2.415 1.398-.704.826-1.168 1.732-1.392 2.717a6.721 6.721 0 0 0 .003 2.994c.227 1.011.552 1.88.978 2.605.425.725 1.043 1.326 1.855 1.802.811.477 1.56.556 2.248.24.687-.318 1.295-.988 1.823-2.01a11.46 11.46 0 0 0 1.101-3.313c.207-1.186.254-2.4.141-3.644-.113-1.243-.382-2.287-.807-3.133-.425-.845-.985-1.386-1.678-1.623-.694-.238-1.446-.022-2.255.646-.809.669-1.45 1.569-1.925 2.701-.474 1.132-.707 2.26-.698 3.382a6.09 6.09 0 0 0 .88 3.132c.578.966 1.25 1.655 2.019 2.069.768.414 1.531.531 2.291.352.76-.18 1.399-.638 1.916-1.377a5.708 5.708 0 0 0 .982-2.384c.137-.851.121-1.766-.048-2.745-.17-.98-.464-1.859-.884-2.638-.42-.78-.88-1.29-1.384-1.531-.503-.241-1.054-.124-1.651.35-.598.475-1.09 1.207-1.475 2.196-.386.988-.555 1.974-.507 2.957a5.95 5.95 0 0 0 .784 2.715c.475.828 1.034 1.399 1.676 1.712.642.314 1.27.314 1.88 0 .613-.312 1.083-.874 1.414-1.684.33-.81.507-1.644.531-2.504a4.88 4.88 0 0 0-.506-2.367c-.362-.719-.807-1.273-1.334-1.662s-1.052-.498-1.575-.326c-.523.171-.94.645-1.253 1.423-.312.777-.508 1.679-.587 2.707-.078 1.027-.016 1.977.19 2.848.204.871.508 1.494.91 1.87.403.375.855.472 1.357.289s.946-.668 1.333-1.455.629-1.517.724-2.191c.095-.674.062-1.487-.1-2.438-.163-.951-.435-1.725-.815-2.32-.38-.596-.777-.956-1.19-1.082-.414-.126-.795.089-1.144.643-.35.553-.57 1.271-.661 2.153a7.933 7.933 0 0 0 .151 2.592c.192.846.48 1.58.863 2.203.384.622.772 1.027 1.166 1.215.393.188.748.113 1.066-.225.318-.337.56-.907.727-1.709.168-.802.245-1.646.233-2.532-.013-.886-.14-1.667-.38-2.342-.242-.676-.509-1.172-.802-1.49-.293-.316-.594-.418-.901-.306-.308.113-.597.482-.867 1.107a7.3 7.3 0 0 0-.535 2.113 6.814 6.814 0 0 0 .09 2.186c.144.674.412 1.145.802 1.414.39.27.816.302 1.278.099.462-.204.84-.619 1.135-1.245a5.917 5.917 0 0 0 .545-1.926c.068-.658.013-1.25-.163-1.775-.177-.526-.413-.916-.708-1.17-.296-.254-.594-.385-.892-.392-.3-.007-.583.187-.853.58-.27.392-.465.877-.587 1.454a8.202 8.202 0 0 0-.188 1.644c-.003.52.1.925.31 1.218.21.293.47.454.781.483.31.03.62-.161.93-.572a4.95 4.95 0 0 0 .74-1.485 7.093 7.093 0 0 0 .333-1.675c.036-.538-.015-.993-.154-1.363-.138-.372-.35-.604-.632-.7-.283-.094-.554.022-.813.348-.26.327-.445.76-.557 1.302-.112.542-.179 1.31-.201 2.306-.023.995.114 1.875.41 2.637.297.763.637 1.284 1.022 1.562s.755.325 1.11.14c.355-.183.623-.587.803-1.21a7.72 7.72 0 0 0 .297-1.95c.018-.677-.083-1.29-.302-1.838-.22-.548-.47-.994-.75-1.337-.28-.343-.516-.56-.71-.652-.192-.092-.37.016-.532.324-.161.308-.27.76-.324 1.358-.055.597-.061 1.18-.02 1.749.043.568.171.982.386 1.24.214.26.477.268.788.026.31-.243.592-.655.842-1.237.25-.582.418-1.061.502-1.437.083-.375.032-.509-.154-.4-.186.108-.325.291-.419.55-.127.353-.015.481.337.385" style="fill:none;stroke:#7ec636;stroke-width:1.8189;stroke-linecap:round;stroke-linejoin:round;stroke-miterlimit:10;stroke-dasharray:none;stroke-opacity:1" transform="matrix(.72727 0 0 .72727 -95.922 -231.204)"/><path d="M295.981 798.788c24.494 27.714 24.476 55.327-.053 82.84" style="fill:none;stroke:#000;stroke-width:1.76345;stroke-linecap:round;stroke-linejoin:round;stroke-miterlimit:10;stroke-dasharray:none;stroke-opacity:1" transform="matrix(.72727 0 0 .72727 -201.15 -475.77)"/><path d="m291.027 799.557 1.372-.683M302.446 793.483l.335-.294M308.42 789.373l.681-.25M316.553 785.895l1.419-.589M323.704 781.88l.923-.64M330.014 778.981l.842-.978M338.44 774.2c-.32-.024-.487.142-.5.497M348.585 769.385h.046M357.109 765.612l.046-.398M366.025 759.097l.784-.787M375.322 754.243c-.188-.22-.094-.326.283-.315M386.636 746.719c.145-.312.381-.485.71-.518M395.461 741.454c-.164-.182-.003-.327.483-.435M405.436 735.408c.299-.168.368-.294.208-.377-.115-.06-.132-.075-.05-.043l1.096.42M417.7 729.652l.68-.935M427.63 723.894c-.092-.4.115-.64.621-.717M438.956 719.142c.245-.653.621-1.163 1.128-1.53.502-.364 1.062-.465 1.68-.301M287.799 819.594l.046-.043M288.237 819.404l1.177 1.272M297.304 825.078l.635.442M306.071 829.585l1.42.978M318.76 834.186l1.42.84M329.73 839.385l1.224.536M338.062 843.41c-.125-.524-.323-.805-.592-.844-.265-.039-.37.61-.314 1.946" style="fill:none;stroke:#fcfcfc;stroke-width:2.78298;stroke-linecap:round;stroke-linejoin:round;stroke-miterlimit:10;stroke-dasharray:none;stroke-opacity:1" transform="matrix(.72727 0 0 .72727 -187.775 -453.954)"/><path d="M348.15 846.655c.591-.26 1.258-.117 2.003.429" style="fill:none;stroke:#fcfcfc;stroke-width:2.78298;stroke-linecap:round;stroke-linejoin:round;stroke-miterlimit:10;stroke-dasharray:none;stroke-opacity:1" transform="matrix(.72727 0 0 .72727 -185.258 -452.917)"/><path d="M361.268 851.492c.423.526 1.013.977 1.773 1.354M371.647 857.643c.388-.124.744.056 1.067.54M383.66 863.38l1.28.682M397.977 868.336c.46-.101.916-.012 1.365.267M409.477 875.63c.655-.026 1.036-.008 1.143.055M423.389 881.846l1.764.83M438.385 887.373l.53.052M450.867 895.504l.495-.588" style="fill:none;stroke:#fcfcfc;stroke-width:2.78298;stroke-linecap:round;stroke-linejoin:round;stroke-miterlimit:10;stroke-dasharray:none;stroke-opacity:1" transform="matrix(.72727 0 0 .72727 -187.775 -453.954)"/><path d="M249.622 402.04c.08-1.117.008-1.863-.215-2.239a2.333 2.333 0 0 0-.676-.704c-.296-.21-.679-.372-1.15-.488a8.277 8.277 0 0 0-1.682-.206c-.65-.022-1.37.158-2.156.539-.787.381-1.56 1.004-2.32 1.868-.759.864-1.388 1.878-1.887 3.042a11.704 11.704 0 0 0-.911 3.62c-.109 1.249.028 2.425.41 3.53.383 1.103.935 2.027 1.657 2.772.721.745 1.55 1.23 2.486 1.458a6.083 6.083 0 0 0 2.858 0c.968-.226 1.78-.6 2.433-1.121.653-.522 1.324-1.39 2.014-2.604.69-1.214 1.15-2.386 1.382-3.517.232-1.13.306-2.343.223-3.636-.083-1.294-.392-2.453-.927-3.476-.536-1.023-1.18-1.71-1.935-2.063-.755-.351-1.593-.4-2.514-.147-.922.253-1.784.824-2.586 1.713a11.213 11.213 0 0 0-1.931 2.965 12.466 12.466 0 0 0-.97 3.395 8.892 8.892 0 0 0 .178 3.424c.28 1.106.741 1.97 1.385 2.589.643.62 1.381.98 2.214 1.08.834.102 1.705-.165 2.614-.8.908-.634 1.716-1.458 2.422-2.471a15.395 15.395 0 0 0 1.739-3.286 13.63 13.63 0 0 0 .848-3.758c.114-1.329-.002-2.473-.345-3.432-.344-.959-.918-1.654-1.721-2.086-.804-.432-1.73-.635-2.781-.61-1.05.024-2.06.379-3.03 1.063-.969.684-1.756 1.618-2.362 2.8a10.906 10.906 0 0 0-1.142 3.622 8.357 8.357 0 0 0 .29 3.545c.348 1.133.905 2.087 1.67 2.863.766.777 1.614 1.257 2.546 1.44a4.1 4.1 0 0 0 2.646-.332c.833-.405 1.54-1.064 2.124-1.98.583-.916.97-1.972 1.162-3.168.192-1.195.197-2.376.015-3.543-.183-1.166-.56-2.158-1.136-2.975-.574-.817-1.27-1.338-2.088-1.564-.817-.226-1.651-.048-2.502.535-.85.583-1.611 1.408-2.282 2.474a14.74 14.74 0 0 0-1.538 3.198 9.21 9.21 0 0 0-.483 3.203c.033 1.069.218 1.944.556 2.626.338.682.966 1.225 1.884 1.629.918.404 1.797.43 2.638.076.84-.353 1.595-1.013 2.265-1.98.67-.966 1.173-2.03 1.51-3.192.335-1.162.477-2.291.425-3.388-.052-1.097-.331-2.012-.836-2.746a3.374 3.374 0 0 0-2.072-1.412c-.876-.207-1.795-.081-2.758.378-.963.46-1.829 1.192-2.597 2.198s-1.314 2.04-1.64 3.1a7.298 7.298 0 0 0-.249 3.234c.16 1.095.55 2.038 1.17 2.83.62.79 1.364 1.284 2.233 1.478.87.195 1.737.057 2.602-.412.865-.469 1.614-1.174 2.248-2.115a9.574 9.574 0 0 0 1.348-2.921c.265-1.007.344-1.973.237-2.9a5.303 5.303 0 0 0-.94-2.494 3.86 3.86 0 0 0-2.082-1.501 4.128 4.128 0 0 0-2.63.066c-.886.31-1.666.922-2.34 1.836-.675.915-1.127 1.855-1.357 2.82-.23.965-.227 1.86.01 2.686.237.826.66 1.434 1.27 1.824.61.39 1.314.49 2.115.3.8-.19 1.572-.647 2.315-1.368a11.429 11.429 0 0 0 1.86-2.327 7.14 7.14 0 0 0 .95-2.724c.135-.986.06-1.897-.225-2.735-.285-.839-.773-1.434-1.464-1.788-.691-.354-1.494-.418-2.41-.194-.914.224-1.734.77-2.46 1.637-.724.867-1.223 1.782-1.497 2.744-.274.962-.3 1.89-.078 2.783.221.894.68 1.73 1.376 2.51.696.78 1.353 1.329 1.97 1.648.617.319 1.416.379 2.398.18.983-.199 1.739-.659 2.269-1.38.53-.72.866-1.51 1.007-2.371.141-.86.094-1.8-.143-2.817-.237-1.018-.631-1.89-1.182-2.615-.55-.726-1.195-1.145-1.933-1.257-.738-.111-1.452.202-2.14.94-.69.74-1.198 1.64-1.524 2.703-.327 1.063-.507 2.022-.54 2.878-.032.856.185 2.004.652 3.443.468 1.44 1.032 2.496 1.694 3.169.662.673 1.357.986 2.086.938.729-.048 1.379-.541 1.95-1.48.57-.937.941-2.086 1.114-3.447.172-1.361.151-2.671-.062-3.93-.214-1.26-.633-2.317-1.258-3.174-.625-.857-1.324-1.367-2.097-1.529-.773-.162-1.53.061-2.27.67a7.68 7.68 0 0 0-1.854 2.27 7.96 7.96 0 0 0-.936 2.835c-.126.984-.11 2.035.05 3.15.158 1.117.434 1.99.825 2.621.392.63.857.973 1.396 1.026.539.053 1.099-.236 1.68-.865.58-.629 1.054-1.464 1.42-2.506.365-1.042.59-2.066.674-3.072.084-1.007-.003-1.916-.262-2.727-.258-.812-.737-1.431-1.437-1.858-.7-.428-1.594-.557-2.682-.39-1.087.168-2.07.63-2.948 1.386-.878.757-1.513 1.542-1.906 2.358a5.272 5.272 0 0 0-.506 2.642c.055.947.326 1.838.81 2.672.486.834 1.099 1.466 1.84 1.895.74.43 1.517.598 2.33.505.814-.092 1.574-.528 2.28-1.305a9 9 0 0 0 1.683-2.724c.416-1.037.665-2.03.745-2.98.08-.948-.01-1.834-.272-2.659a3.686 3.686 0 0 0-1.438-1.965c-.698-.486-1.5-.676-2.407-.57-.906.105-1.712.571-2.415 1.398-.704.826-1.168 1.732-1.392 2.717a6.721 6.721 0 0 0 .003 2.994c.227 1.011.552 1.88.978 2.605.425.725 1.043 1.326 1.855 1.802.811.477 1.56.556 2.248.24.687-.318 1.295-.988 1.823-2.01a11.46 11.46 0 0 0 1.101-3.313c.207-1.186.254-2.4.141-3.644-.113-1.243-.382-2.287-.807-3.133-.425-.845-.985-1.386-1.678-1.623-.694-.238-1.446-.022-2.255.646-.809.669-1.45 1.569-1.925 2.701-.474 1.132-.707 2.26-.698 3.382a6.09 6.09 0 0 0 .88 3.132c.578.966 1.25 1.655 2.019 2.069.768.414 1.531.531 2.291.352.76-.18 1.399-.638 1.916-1.377a5.708 5.708 0 0 0 .982-2.384c.137-.851.121-1.766-.048-2.745-.17-.98-.464-1.859-.884-2.638-.42-.78-.88-1.29-1.384-1.531-.503-.241-1.054-.124-1.651.35-.598.475-1.09 1.207-1.475 2.196-.386.988-.555 1.974-.507 2.957a5.95 5.95 0 0 0 .784 2.715c.475.828 1.034 1.399 1.676 1.712.642.314 1.27.314 1.88 0 .613-.312 1.083-.874 1.414-1.684.33-.81.507-1.644.531-2.504a4.88 4.88 0 0 0-.506-2.367c-.362-.719-.807-1.273-1.334-1.662s-1.052-.498-1.575-.326c-.523.171-.94.645-1.253 1.423-.312.777-.508 1.679-.587 2.707-.078 1.027-.016 1.977.19 2.848.204.871.508 1.494.91 1.87.403.375.855.472 1.357.289s.946-.668 1.333-1.455.629-1.517.724-2.191c.095-.674.062-1.487-.1-2.438-.163-.951-.435-1.725-.815-2.32-.38-.596-.777-.956-1.19-1.082-.414-.126-.795.089-1.144.643-.35.553-.57 1.271-.661 2.153a7.933 7.933 0 0 0 .151 2.592c.192.846.48 1.58.863 2.203.384.622.772 1.027 1.166 1.215.393.188.748.113 1.066-.225.318-.337.56-.907.727-1.709.168-.802.245-1.646.233-2.532-.013-.886-.14-1.667-.38-2.342-.242-.676-.509-1.172-.802-1.49-.293-.316-.594-.418-.901-.306-.308.113-.597.482-.867 1.107a7.3 7.3 0 0 0-.535 2.113 6.814 6.814 0 0 0 .09 2.186c.144.674.412 1.145.802 1.414.39.27.816.302 1.278.099.462-.204.84-.619 1.135-1.245a5.917 5.917 0 0 0 .545-1.926c.068-.658.013-1.25-.163-1.775-.177-.526-.413-.916-.708-1.17-.296-.254-.594-.385-.892-.392-.3-.007-.583.187-.853.58-.27.392-.465.877-.587 1.454a8.202 8.202 0 0 0-.188 1.644c-.003.52.1.925.31 1.218.21.293.47.454.781.483.31.03.62-.161.93-.572a4.95 4.95 0 0 0 .74-1.485 7.093 7.093 0 0 0 .333-1.675c.036-.538-.015-.993-.154-1.363-.138-.372-.35-.604-.632-.7-.283-.094-.554.022-.813.348-.26.327-.445.76-.557 1.302-.112.542-.179 1.31-.201 2.306-.023.995.114 1.875.41 2.637.297.763.637 1.284 1.022 1.562s.755.325 1.11.14c.355-.183.623-.587.803-1.21a7.72 7.72 0 0 0 .297-1.95c.018-.677-.083-1.29-.302-1.838-.22-.548-.47-.994-.75-1.337-.28-.343-.516-.56-.71-.652-.192-.092-.37.016-.532.324-.161.308-.27.76-.324 1.358-.055.597-.061 1.18-.02 1.749.043.568.171.982.386 1.24.214.26.477.268.788.026.31-.243.592-.655.842-1.237.25-.582.418-1.061.502-1.437.083-.375.032-.509-.154-.4-.186.108-.325.291-.419.55-.127.353-.015.481.337.385" style="fill:none;stroke:#7ec636;stroke-width:1.8189;stroke-linecap:round;stroke-linejoin:round;stroke-miterlimit:10;stroke-dasharray:none;stroke-opacity:1" transform="matrix(.72727 0 0 .72727 -36.256 -157.573)"/><path d="M288.877 856.293c-.488-.133-.766-.543-.832-1.233-.046-.473-.033-.827.04-1.06a1.113 1.113 0 0 1 .94-.814c.22-.03.444-.005.669.072.225.078.44.219.645.423a2.896 2.896 0 0 1 .817 1.82c.037.401.02.807-.05 1.217-.069.41-.212.76-.43 1.049-.217.29-.468.499-.752.629-.283.13-.592.183-.926.16-.334-.023-.692-.177-1.073-.464a5.72 5.72 0 0 1-1.034-1.007 3.294 3.294 0 0 1-.628-1.18 2.332 2.332 0 0 1-.04-1.152c.085-.368.287-.723.607-1.066a4.3 4.3 0 0 1 1.096-.849c.41-.223.813-.363 1.21-.421.399-.058.767.004 1.104.186.338.183.611.513.82.99.208.477.352.99.43 1.54.079.55.122 1.055.13 1.517.008.463-.06.866-.205 1.21-.144.344-.336.588-.577.73-.24.142-.518.185-.832.127-.314-.058-.662-.268-1.042-.63a7.655 7.655 0 0 1-1.043-1.231 5.488 5.488 0 0 1-.693-1.356 3.958 3.958 0 0 1-.212-1.322c.007-.437.138-.834.394-1.19.257-.358.558-.638.903-.841a2.108 2.108 0 0 1 1.05-.313c.354-.005.683.174.987.536.303.363.569.839.796 1.428a9.82 9.82 0 0 1 .505 1.812c.11.62.16 1.188.149 1.707-.011.52-.137.947-.378 1.283-.242.336-.541.553-.9.652-.357.099-.743.062-1.158-.11-.415-.17-.825-.465-1.23-.88a5.45 5.45 0 0 1-.995-1.42 4.486 4.486 0 0 1-.458-1.572c-.046-.519.023-.97.207-1.357.184-.385.438-.7.762-.942s.619-.408.883-.497c.265-.09.582-.106.95-.05.368.056.687.262.956.617.27.355.468.79.596 1.304.129.515.203 1.038.224 1.57.02.53-.063.982-.25 1.355-.186.374-.446.62-.778.737-.332.118-.703.121-1.114.01-.41-.112-.866-.38-1.365-.806-.5-.426-.963-.882-1.39-1.368-.428-.486-.722-.95-.882-1.392-.16-.443-.167-.85-.022-1.22.144-.372.442-.674.891-.906.45-.233.934-.375 1.451-.427.518-.053.988.06 1.411.337a4.29 4.29 0 0 1 1.112 1.069c.318.435.563.893.733 1.373.17.48.265.937.282 1.37.017.433-.098.798-.344 1.095a2.05 2.05 0 0 1-.886.634 2.586 2.586 0 0 1-1.167.12c-.434-.046-.88-.235-1.338-.566a3.609 3.609 0 0 1-1.072-1.203 3.114 3.114 0 0 1-.402-1.43c-.011-.483.146-.938.472-1.365a4.218 4.218 0 0 1 1.17-1.054c.455-.275.872-.445 1.252-.508.38-.064.728.097 1.042.483.315.386.527.802.638 1.248.111.446.176.979.195 1.599.019.62-.07 1.218-.264 1.796-.194.577-.443 1.037-.746 1.379-.304.342-.66.551-1.067.628-.408.077-.862-.04-1.36-.353-.5-.312-.953-.72-1.358-1.224-.406-.504-.676-1.017-.812-1.54a2.48 2.48 0 0 1 .06-1.505c.175-.48.496-.89.965-1.23.468-.339.948-.554 1.439-.647.49-.092.932-.008 1.323.252.39.26.725.675 1.004 1.247.28.573.502 1.185.667 1.838.166.653.26 1.285.285 1.895.024.61-.057 1.12-.244 1.53-.186.41-.46.687-.82.83-.36.145-.783.074-1.27-.211-.487-.286-.984-.802-1.49-1.55a10.452 10.452 0 0 1-1.198-2.335c-.29-.81-.458-1.524-.501-2.142-.043-.619.075-1.137.354-1.555.28-.418.619-.71 1.016-.875a1.461 1.461 0 0 1 1.213.033c.411.188.757.595 1.039 1.224.28.628.501 1.312.66 2.051.16.74.258 1.473.295 2.2.038.729-.01 1.347-.145 1.857-.135.51-.376.88-.724 1.113-.347.232-.774.295-1.282.188-.507-.107-1.02-.424-1.536-.952a10.23 10.23 0 0 1-1.342-1.688c-.378-.597-.626-1.165-.745-1.704-.119-.54-.119-1.04 0-1.501.12-.462.386-.887.798-1.275a3.262 3.262 0 0 1 1.378-.793c.506-.14.992-.123 1.457.052.466.174.878.517 1.236 1.03.359.512.64 1.103.843 1.772a8.71 8.71 0 0 1 .367 1.934c.042.62-.014 1.179-.17 1.676-.154.496-.421.886-.8 1.169a2.479 2.479 0 0 1-1.334.479c-.511.037-1.068-.155-1.673-.574a6.362 6.362 0 0 1-1.575-1.575c-.446-.631-.716-1.24-.81-1.824-.096-.586-.024-1.126.213-1.621.237-.495.625-.924 1.165-1.287a4.935 4.935 0 0 1 1.698-.74c.592-.13 1.14-.094 1.644.11.503.205.925.602 1.266 1.19.34.59.59 1.2.747 1.833.157.632.222 1.234.194 1.806-.028.572-.195 1.02-.503 1.347a1.651 1.651 0 0 1-1.152.528c-.46.025-.98-.175-1.556-.6a8.206 8.206 0 0 1-1.583-1.555c-.479-.61-.793-1.164-.944-1.66-.15-.496-.128-.958.07-1.387.196-.427.54-.78 1.033-1.055.492-.276.977-.42 1.456-.434.478-.014.872.196 1.181.632.31.435.52.98.631 1.635.11.655.168 1.24.17 1.756.004.516-.081.923-.255 1.223-.175.3-.405.483-.69.549-.287.066-.604-.051-.952-.351a6.82 6.82 0 0 1-1.022-1.127c-.332-.45-.574-.855-.724-1.212-.15-.356-.204-.669-.161-.937.043-.269.256-.483.639-.641a3.417 3.417 0 0 1 1.264-.25c.46-.006.85.098 1.172.315.322.216.54.492.653.827.113.335.157.669.13 1-.025.331-.112.568-.26.709-.147.14-.269.157-.363.047-.094-.109-.14-.373-.135-.791.005-.418.06-.78.165-1.087l.19-.552c.02-.062.037-.08.05-.053l.211.435" style="fill:none;stroke:#ff21b3;stroke-width:1.55905;stroke-linecap:round;stroke-linejoin:round;stroke-miterlimit:10;stroke-dasharray:none;stroke-opacity:1" transform="matrix(.72727 0 0 .72727 -205.714 -487.209)"/><path d="m306.393 848.974-.32.361M298.45 852.99l-.231.432M305.777 862.27l-.402-.016M299.265 858.83l-.353.285" style="fill:none;stroke:#fcfcfc;stroke-width:2.59842;stroke-linecap:round;stroke-linejoin:round;stroke-miterlimit:10;stroke-dasharray:none;stroke-opacity:1" transform="matrix(.72727 0 0 .72727 -205.714 -487.209)"/><path d="M329.892 613.01c-.054-.135-.017-.235.11-.3.09-.045.134-.19.133-.433 0-.244-.06-.434-.176-.57a.995.995 0 0 0-.466-.3 2.294 2.294 0 0 0-.641-.103 1.314 1.314 0 0 0-.714.209c-.243.146-.468.32-.675.523a2.35 2.35 0 0 0-.498.711 2.752 2.752 0 0 0-.224.959c-.025.367.047.759.215 1.174.169.416.417.76.745 1.033.328.273.661.435.999.487.337.052.648-.002.932-.162.283-.16.512-.43.687-.811.175-.381.284-.813.326-1.296a8.437 8.437 0 0 0-.013-1.53 6.644 6.644 0 0 0-.33-1.544c-.17-.493-.383-.886-.638-1.18-.255-.293-.541-.479-.86-.557-.318-.078-.603-.078-.855 0-.251.078-.505.286-.762.623a2.576 2.576 0 0 0-.496 1.104 4.796 4.796 0 0 0 .33 2.766c.211.5.465.944.76 1.334.294.39.6.666.917.827.317.161.622.23.916.204.293-.026.552-.19.776-.49.224-.302.388-.687.49-1.156.102-.47.155-.982.159-1.535a6.276 6.276 0 0 0-.232-1.7 7.295 7.295 0 0 0-.635-1.596c-.266-.484-.586-.855-.96-1.112a2.244 2.244 0 0 0-1.185-.412c-.415-.019-.79.13-1.125.445a3.298 3.298 0 0 0-.79 1.188 5.86 5.86 0 0 0-.38 1.508 7.018 7.018 0 0 0-.001 1.614c.062.546.205 1.048.43 1.505.224.457.485.824.782 1.102.297.279.626.462.985.55.36.088.718.09 1.077.008.36-.083.703-.26 1.032-.529a3.56 3.56 0 0 0 .825-.977c.222-.381.368-.835.44-1.36a6.88 6.88 0 0 0 .008-1.689c-.066-.6-.228-1.13-.484-1.586-.257-.456-.566-.79-.927-1a2.073 2.073 0 0 0-1.201-.275c-.44.028-.875.183-1.31.466a4.765 4.765 0 0 0-1.107.988 4.247 4.247 0 0 0-.696 1.205 5.645 5.645 0 0 0-.309 1.493c-.047.567 0 1.199.142 1.896.142.697.34 1.303.591 1.818.253.515.489.926.709 1.233.22.307.49.595.812.864.322.269.702.456 1.143.562.44.106.902.122 1.385.048.484-.074.972-.289 1.465-.644.493-.354.914-.84 1.263-1.455.348-.616.576-1.323.683-2.12.107-.8.133-1.62.077-2.462a8.693 8.693 0 0 0-.45-2.305c-.244-.694-.56-1.274-.95-1.74-.389-.466-.777-.8-1.164-1.005a3.6 3.6 0 0 0-1.315-.385 10.48 10.48 0 0 0-.963-.075c-.153.002-.398.118-.736.35-.339.231-.638.569-.898 1.012-.26.444-.46.938-.601 1.482a8.469 8.469 0 0 0-.253 1.768c-.027.635.025 1.27.157 1.906.132.637.339 1.197.62 1.682.282.484.604.836.967 1.055.363.22.749.336 1.158.351.409.015.807-.086 1.195-.303a3.24 3.24 0 0 0 1.016-.907 3.39 3.39 0 0 0 .595-1.363 7.14 7.14 0 0 0 .115-1.774 5.334 5.334 0 0 0-.4-1.831c-.236-.56-.552-1.009-.947-1.346a2.774 2.774 0 0 0-1.328-.639 2.123 2.123 0 0 0-1.387.203c-.433.224-.794.603-1.08 1.136a5.72 5.72 0 0 0-.593 1.824 9.064 9.064 0 0 0-.05 2.25c.076.818.27 1.63.582 2.437.312.807.664 1.452 1.055 1.937.39.484.782.79 1.175.917.392.127.788.081 1.186-.139.4-.22.741-.608 1.025-1.166.285-.558.471-1.23.56-2.018.089-.788.117-1.624.083-2.507-.033-.883-.167-1.668-.403-2.355-.236-.687-.555-1.25-.956-1.691-.402-.44-.851-.72-1.348-.837a1.846 1.846 0 0 0-1.396.2c-.434.252-.777.661-1.027 1.229a4.993 4.993 0 0 0-.413 1.842c-.025.66.08 1.34.315 2.04.234.7.522 1.324.863 1.87.341.545.644.94.91 1.183.264.244.575.393.932.448.356.055.68-.04.971-.284.29-.245.542-.575.754-.99.213-.415.357-.859.433-1.333a3.56 3.56 0 0 0-.04-1.376 2.682 2.682 0 0 0-.643-1.208c-.327-.361-.638-.621-.933-.78-.296-.158-.552-.211-.77-.16-.218.052-.378.257-.48.616-.101.358-.15.748-.148 1.168.003.421.069.783.197 1.086.129.304.27.529.422.675.153.147.331.245.536.294.289.07.523-.314.702-1.152" style="fill:none;stroke:#ff21b3;stroke-width:2.59842;stroke-linecap:round;stroke-linejoin:round;stroke-miterlimit:10;stroke-dasharray:none;stroke-opacity:1" transform="matrix(.72727 0 0 .72727 -235.607 -310.75)"/><path d="m288.174 448.703-.223.224c-.008.008.001-.018.029-.077l.751-1.615M290.878 439.423c-.231 0-.214-.41.05-1.227M294.395 428.453c-.467-.12-.472-.492-.017-1.117M303.767 403.517c-.328-.343-.406-.807-.233-1.393M308.46 393.903l-.396-.684M315.26 382.379l.115-.737M318.59 370.46l-.145-.516" style="fill:none;stroke:#fcfcfc;stroke-width:2.59842;stroke-linecap:round;stroke-linejoin:round;stroke-miterlimit:10;stroke-dasharray:none;stroke-opacity:1" transform="matrix(.72727 0 0 .72727 -202.708 -198.197)"/><path d="m323.993 357.97-.727.024c-.013 0-.016 0-.011-.003l.292-.12" style="fill:none;stroke:#ff21b3;stroke-width:2.59842;stroke-linecap:round;stroke-linejoin:round;stroke-miterlimit:10;stroke-dasharray:none;stroke-opacity:1" transform="matrix(.72727 0 0 .72727 -202.708 -198.197)"/><path d="m328.631 346.36.03-.684M334.377 334.642c.014-.608.107-1.125.278-1.55.17-.422.543-.848 1.118-1.278M339.304 323.94c-.446-.315-.486-.79-.12-1.42M345.193 310.025l.74-.851M350.058 297.255l-.06-.57M354.183 286.581c-.244-.068-.15-.492.285-1.273M361.511 275.003c-.985.153-1.012-.242-.079-1.183M289.065 472.321l-.82.057M292.433 478.263c-.171.6-.01 1.334.483 2.2M296.157 487.815v1.12M298.73 495.636l.291 1.258M302.43 504.044c-.152.559.01 1.06.484 1.506M305.917 511.225c-.262.5.018 1.091.84 1.772M310.817 518.968c-.412 1.294-.245 2.24.499 2.84M316.285 530.578c-.466 1.119-.306 1.748.48 1.887M322.716 542.437l.095 1.27" style="fill:none;stroke:#fcfcfc;stroke-width:2.59842;stroke-linecap:round;stroke-linejoin:round;stroke-miterlimit:10;stroke-dasharray:none;stroke-opacity:1" transform="matrix(.72727 0 0 .72727 -202.708 -198.197)"/><path d="M327.248 548.174c-.141 1.075.07 1.778.632 2.108" style="fill:none;stroke:#ff21b3;stroke-width:2.59842;stroke-linecap:round;stroke-linejoin:round;stroke-miterlimit:10;stroke-dasharray:none;stroke-opacity:1" transform="matrix(.72727 0 0 .72727 -199.95 -193.944)"/><path d="M338.708 568.894c-.504 1.288-.268 2.244.708 2.868M344.713 582.309l.438 2.47M348.88 593.1c-.278 1.178-.036 2.01.727 2.494M354.3 602.509c-.126.504-.194 1.107-.204 1.809-.009.668.31 1.196.955 1.583M360.483 617.173c.02.828.008 1.43-.037 1.81-.044.371.28.759.975 1.16M367.346 627.901c-.288.888-.435 1.434-.44 1.636-.005.201.55.767 1.664 1.697M372.897 637.37c-.144.872-.197 1.573-.16 2.101.024.361.11.67.256.925.211.368.892.905 2.041 1.611M379.593 651.032c-.402 1.813-.064 2.822 1.016 3.028M386.985 666.322c-.55 1.077-.304 2.048.737 2.914" style="fill:none;stroke:#fcfcfc;stroke-width:2.59842;stroke-linecap:round;stroke-linejoin:round;stroke-miterlimit:10;stroke-dasharray:none;stroke-opacity:1" transform="matrix(.72727 0 0 .72727 -202.708 -198.197)"/><path d="M300.689 431.871c-.096.48-.108 1.02-.037 1.62a27.345 27.345 0 0 1 .177 1.967c.022.401.042.893.06 1.478.017.585.027 1.147.029 1.687.002.54.005.998.009 1.377.004.378.017.654.037.829l.039.332c.005.047.013.056.022.026l.118-.379M307.117 457.962c-.102-.022-.191-.26-.267-.711-.076-.452-.09-.844-.043-1.178.047-.333.105-.613.174-.84.068-.227.129-.399.182-.516.054-.117.146-.276.279-.476.132-.2.263-.354.394-.462a.81.81 0 0 1 .418-.188.842.842 0 0 1 .44.064c.144.062.283.16.416.297.133.136.268.296.403.478.135.183.267.386.394.61.128.224.238.475.33.754.093.279.16.576.2.892.04.316.065.594.073.835.008.24-.009.553-.052.937-.043.383-.126.74-.249 1.07-.123.33-.27.65-.439.959-.17.309-.346.58-.529.812-.183.233-.36.416-.533.55-.172.134-.318.213-.438.238-.12.024-.21-.002-.274-.078a.553.553 0 0 1-.117-.298 1.341 1.341 0 0 1-.005-.313c.01-.086.042-.146.095-.179.052-.033.117-.035.193-.007.077.028.166.117.268.266.103.148.224.3.364.453.14.153.32.296.539.43.22.133.475.244.765.333.29.088.596.14.917.157.32.016.62-.008.896-.073.4-.095.822-.485 1.265-1.172M300.12 475.101c-.114-.081-.2-.29-.26-.629a6.6 6.6 0 0 1-.104-.89 5.888 5.888 0 0 1 .02-.752c.023-.246.069-.486.138-.72.07-.234.168-.463.297-.687.129-.224.273-.373.432-.446.16-.074.332-.044.517.09s.34.362.466.684c.125.322.23.64.313.956.083.316.155.612.215.888s.106.533.138.77c.032.238.088.36.17.365a.945.945 0 0 0 .35-.077c.154-.056.338-.099.554-.128.216-.029.45-.035.7-.018.252.016.502.089.751.217.25.128.484.314.703.56.218.245.378.537.479.878a3.64 3.64 0 0 1-.122 2.372c-.17.439-.392.86-.665 1.262a3.77 3.77 0 0 1-.896.954c-.466.337-1.088.315-1.864-.065" style="fill:none;stroke:#007aff;stroke-width:1.55905;stroke-linecap:round;stroke-linejoin:round;stroke-miterlimit:10;stroke-dasharray:none;stroke-opacity:1" transform="matrix(.72727 0 0 .72727 -202.708 -198.197)"/><path d="M327.388 361.152a248.055 248.055 0 0 1 7.31 8.73 221.982 221.982 0 0 1 6.638 8.74c2.1 2.915 4.088 5.832 5.963 8.75a180.063 180.063 0 0 1 5.29 8.76 163.62 163.62 0 0 1 4.616 8.768c1.427 2.925 2.741 5.851 3.943 8.779m5.864 17.586c.753 2.934 1.394 5.87 1.922 8.807.528 2.938.944 5.877 1.248 8.817a116.399 116.399 0 0 1 .476 17.663 117.652 117.652 0 0 1-.773 8.846c-.37 2.95-.852 5.902-1.447 8.856m-4.913 17.74c-1.044 2.96-2.2 5.921-3.467 8.884a158.685 158.685 0 0 1-4.141 8.894 174.19 174.19 0 0 1-4.815 8.904 192.672 192.672 0 0 1-5.488 8.913 214.199 214.199 0 0 1-6.162 8.923" style="fill:none;stroke:#fcfcfc;stroke-width:1.55905;stroke-linecap:round;stroke-linejoin:round;stroke-miterlimit:10;stroke-dasharray:none;stroke-opacity:1" transform="matrix(.72727 0 0 .72727 -202.708 -198.197)"/><path d="M363.572 422.505c-.138-.073-.235-.216-.291-.43a1.505 1.505 0 0 1-.058-.35.756.756 0 0 1 .226-.546 1.051 1.051 0 0 1 .643-.308.38.38 0 0 1 .307.11.805.805 0 0 1 .202.362c.047.156.077.32.09.492.014.172.017.339.01.5a.83.83 0 0 1-.14.43 1.186 1.186 0 0 1-.324.322 1.08 1.08 0 0 1-.438.172c-.16.025-.319.025-.475-.002a.815.815 0 0 1-.428-.23 1.23 1.23 0 0 1-.29-.42 1.471 1.471 0 0 1-.112-.41.42.42 0 0 1 .077-.301.68.68 0 0 1 .3-.208c.138-.055.29-.094.456-.116a3.23 3.23 0 0 1 .47-.031.67.67 0 0 1 .395.13.875.875 0 0 1 .275.337 1.2 1.2 0 0 1 .116.44c.01.153.012.288.005.405a.424.424 0 0 1-.152.3 1.03 1.03 0 0 1-.384.2c-.161.05-.33.078-.507.083a1.162 1.162 0 0 1-.444-.06.373.373 0 0 1-.235-.259.924.924 0 0 1-.017-.42c.038-.221.231-.447.58-.677M369.96 425.126c.227.022.52.013.88-.027.234-.026.45-.055.652-.086.288-.045 1.09-.123 2.405-.233M378.582 423.63c-.126-.143-.23-.361-.312-.653-.054-.19-.1-.41-.14-.661a10.699 10.699 0 0 1-.124-1.494c-.002-.236.015-.44.053-.613.038-.172.093-.31.165-.416a.526.526 0 0 1 .257-.212.547.547 0 0 1 .343.004c.128.038.269.146.421.323.153.177.31.41.474.698.163.289.308.627.434 1.015.126.388.212.814.258 1.276.046.462.063.946.052 1.452a8.294 8.294 0 0 1-.16 1.458 7.539 7.539 0 0 1-.352 1.237c-.14.36-.316.676-.529.948a3.365 3.365 0 0 1-.662.66 1.902 1.902 0 0 1-.65.326c-.204.05-.387.059-.547.026a.536.536 0 0 1-.366-.257 1.152 1.152 0 0 1-.157-.457 1.514 1.514 0 0 1 .016-.491.578.578 0 0 1 .218-.367c.113-.084.258-.113.434-.088.177.026.38.14.608.34.23.203.463.426.702.67.238.244.496.456.773.637.277.18.557.302.838.363.282.06.546.066.794.016s.483-.176.707-.379c.223-.203.403-.431.54-.684.136-.254.243-.495.32-.723.112-.33.238-.937.377-1.818M387.628 421.319c-.015-.26-.067-.466-.156-.616a.91.91 0 0 0-.265-.277 1.106 1.106 0 0 0-.4-.174 1.954 1.954 0 0 0-.453-.049.918.918 0 0 0-.47.155c-.164.102-.338.284-.524.547-.185.263-.348.6-.489 1.012-.14.412-.231.88-.27 1.402-.04.523-.01 1.088.087 1.694.097.605.267 1.18.51 1.722.241.543.505 1 .792 1.372.286.372.591.62.916.746.324.126.65.117.98-.027.328-.143.606-.443.833-.897.227-.454.376-.994.445-1.619.07-.625.109-1.203.116-1.734a6.486 6.486 0 0 0-.122-1.423 7.547 7.547 0 0 0-.35-1.181 46.965 46.965 0 0 1-.733-2.05M391.808 416.56c.147-.104.261-.22.343-.348.054-.087.082-.213.084-.378a.839.839 0 0 0-.068-.382.425.425 0 0 0-.223-.199c-.102-.043-.23-.03-.384.037-.153.067-.3.237-.437.51a3.113 3.113 0 0 0-.285.996 5.56 5.56 0 0 0-.041 1.11c.024.348.12.615.287.8.167.187.373.298.619.333a.943.943 0 0 0 .69-.168c.215-.148.367-.367.455-.656.128-.418.041-1.14-.26-2.163M365.713 494.026c-.16.008-.285-.085-.373-.279-.088-.193-.128-.36-.12-.497a.889.889 0 0 1 .057-.304c.03-.064.106-.144.228-.24a.986.986 0 0 1 .384-.189c.135-.031.26-.04.375-.026a.512.512 0 0 1 .304.15.914.914 0 0 1 .207.319c.05.127.087.267.11.419.022.152.034.305.036.46.002.154-.007.295-.028.42a.41.41 0 0 1-.167.285.666.666 0 0 1-.716.014 1.218 1.218 0 0 1-.368-.346 2.734 2.734 0 0 1-.291-.497c-.08-.176-.13-.34-.15-.494a1.05 1.05 0 0 1 .036-.45c.045-.146.135-.286.27-.42.136-.132.299-.233.49-.301.191-.068.38-.102.563-.1a.562.562 0 0 1 .462.25c.124.165.209.378.256.64.046.261.072.49.077.685.005.195-.027.402-.094.621-.068.219-.173.362-.315.431a.84.84 0 0 1-.481.069.702.702 0 0 1-.467-.286c-.19-.24-.2-.775-.028-1.604M378.28 490.348c-.236-.075-.386-.207-.45-.397-.045-.13-.083-.36-.115-.69a9.973 9.973 0 0 1-.05-.919c0-.283.028-.56.088-.828.06-.27.145-.517.256-.742.112-.225.234-.4.368-.523.133-.124.26-.193.38-.205.118-.013.248.074.386.259.14.185.28.438.42.76.14.323.271.675.39 1.06.12.383.215.807.287 1.273.072.465.113.943.124 1.434.01.49-.021.99-.096 1.5a7.382 7.382 0 0 1-.377 1.48c-.177.478-.373.862-.59 1.15-.215.289-.432.473-.648.553a.558.558 0 0 1-.586-.097c-.174-.145-.303-.401-.388-.77a6.046 6.046 0 0 1-.146-1.161 9.495 9.495 0 0 1 .016-1.05c.025-.294.059-.494.104-.6.045-.104.1-.133.163-.084.063.048.153.208.27.48a6.319 6.319 0 0 0 1.216 1.812 4.3 4.3 0 0 0 .916.745c.321.19.631.304.93.34.299.036.596-.003.892-.118.295-.115.574-.299.837-.551.262-.253.455-.522.579-.81.178-.414.301-1.254.37-2.52M387.572 488.786c.09-.17.039-.374-.152-.613a1.06 1.06 0 0 0-.394-.33 1.573 1.573 0 0 0-.928-.086 1.179 1.179 0 0 0-.525.288c-.177.156-.34.394-.49.714-.15.32-.246.716-.291 1.187-.045.471-.03.984.047 1.54.076.554.205 1.063.385 1.524.181.462.404.834.667 1.118.264.283.566.455.905.517.34.063.682-.003 1.028-.196s.638-.455.876-.787c.237-.332.4-.718.487-1.157.087-.44.135-.913.144-1.422.013-.743-.227-1.732-.72-2.967M393.66 486.032a.45.45 0 0 0-.056-.31 1.283 1.283 0 0 0-.196-.246 1.098 1.098 0 0 0-.37-.24 1.537 1.537 0 0 0-.513-.112.953.953 0 0 0-.564.16c-.188.118-.348.305-.48.562a2.261 2.261 0 0 0-.24.867c-.025.321.026.625.154.911.128.286.323.524.585.712.262.19.538.306.827.351.29.045.548.014.775-.092.228-.106.39-.297.49-.574.099-.276.153-.59.163-.944.014-.516-.178-1.138-.577-1.866M324.626 357.395c-.294.211-.52.333-.68.364a.954.954 0 0 1-.321.011c-.105-.015-.192-.087-.261-.215a1.15 1.15 0 0 1-.127-.448c-.015-.169-.01-.323.013-.463a.664.664 0 0 1 .178-.356c.095-.099.207-.177.335-.233.128-.057.262-.09.402-.1.14-.01.272.032.396.125.123.092.227.225.311.399.084.174.14.36.17.56.03.2.044.39.043.57 0 .18-.052.336-.154.469a1.208 1.208 0 0 1-.408.332 1.9 1.9 0 0 1-.568.185 1.498 1.498 0 0 1-.62-.026 1.047 1.047 0 0 1-.52-.301 1.194 1.194 0 0 1-.287-.511 2.382 2.382 0 0 1-.086-.552.784.784 0 0 1 .15-.487 1.26 1.26 0 0 1 .409-.366c.167-.096.347-.159.541-.19a.973.973 0 0 1 .537.058c.164.069.302.204.416.406.113.202.192.419.237.65.045.231.068.451.068.66 0 .21-.046.384-.14.524a.73.73 0 0 1-.387.293.911.911 0 0 1-.52.015.831.831 0 0 1-.47-.34 1.55 1.55 0 0 1-.316-.994c.012-.189.211-.363.597-.521M326.716 352.554a55.47 55.47 0 0 0 1.53-.478c.397-.133 1.062-.316 1.995-.551M336.457 345.467a2.237 2.237 0 0 0-.14-.787c-.058-.148-.113-.245-.164-.293a.567.567 0 0 0-.229-.118 1.542 1.542 0 0 0-.364-.057 1.797 1.797 0 0 0-.468.045c-.171.037-.354.127-.549.27a2.92 2.92 0 0 0-.569.573 3.95 3.95 0 0 0-.493.862 4.334 4.334 0 0 0-.303 1.101 6.341 6.341 0 0 0-.044 1.284c.028.458.135.897.32 1.315.185.418.422.775.71 1.07.29.296.602.524.94.684.337.16.679.259 1.025.295.347.037.688.004 1.023-.097.334-.102.629-.28.882-.535a1.91 1.91 0 0 0 .508-.84c.084-.304.088-.583.012-.838a.86.86 0 0 0-.487-.554 2.282 2.282 0 0 0-.854-.196 2.15 2.15 0 0 0-.865.121 1.942 1.942 0 0 0-.65.393 1.434 1.434 0 0 0-.37.508 1.736 1.736 0 0 0-.12.407c-.017.138.234.243.752.314M341.586 343.678c0-.209-.078-.358-.236-.45a.69.69 0 0 0-.338-.097c-.117-.002-.25.052-.396.162-.147.11-.29.275-.427.493a3.415 3.415 0 0 0-.354.79 5.29 5.29 0 0 0-.206 1.124c-.039.441-.029.919.03 1.433s.195 1.006.408 1.475c.214.47.473.836.777 1.1.304.262.633.407.985.433.352.027.692-.103 1.018-.388.327-.285.563-.67.71-1.156.147-.485.206-.993.179-1.524a4.665 4.665 0 0 0-.357-1.553c-.21-.505-.437-.914-.682-1.228-.37-.474-.76-.773-1.169-.898M346.18 339.205a.56.56 0 0 0-.364-.219c-.1-.017-.22.02-.357.113-.137.092-.263.248-.378.468-.116.22-.196.46-.24.719-.046.259-.06.524-.044.795.016.27.091.508.224.712.133.205.301.349.504.433.203.084.404.12.602.107.198-.012.364-.13.498-.356.134-.225.216-.542.247-.95.044-.594-.122-1.4-.5-2.415M331.619 555.484c-.29.048-.453-.037-.489-.255a1.272 1.272 0 0 1 .019-.483c.037-.168.096-.33.176-.486.08-.156.166-.28.258-.373a.588.588 0 0 1 .28-.17.294.294 0 0 1 .256.059c.077.06.134.183.172.367.038.185.058.381.062.59.004.208-.009.408-.039.598-.029.19-.087.36-.175.51a.962.962 0 0 1-.322.341.932.932 0 0 1-.425.136.64.64 0 0 1-.455-.158 1.56 1.56 0 0 1-.388-.485 2.537 2.537 0 0 1-.249-.69 2.582 2.582 0 0 1-.056-.72c.017-.228.089-.425.216-.592.128-.168.283-.295.466-.384.182-.088.365-.139.548-.152a.573.573 0 0 1 .467.175c.128.129.228.327.3.594.072.267.117.55.137.852.02.302.03.582.027.841-.002.26-.051.488-.15.688a.945.945 0 0 1-.407.436 1.332 1.332 0 0 1-.568.15c-.204.01-.41-.063-.62-.218a2.178 2.178 0 0 1-.551-.612 2.798 2.798 0 0 1-.34-.798c-.071-.279-.09-.542-.06-.79.031-.248.133-.458.305-.63.172-.173.37-.29.595-.355a1.3 1.3 0 0 1 .655-.023c.212.048.382.18.51.398.126.217.22.458.279.725.059.267.097.517.116.75.019.234.02.426.006.576-.014.15-.073.257-.176.323a.729.729 0 0 1-.386.103c-.155.003-.322-.072-.503-.224a2.266 2.266 0 0 1-.487-.6 2.167 2.167 0 0 1-.276-.712c-.04-.228-.034-.43.016-.604a.628.628 0 0 1 .343-.397c.179-.089.372-.143.58-.16a.88.88 0 0 1 .56.128c.165.104.304.237.418.4.113.163.195.341.244.536.05.194.075.396.075.606 0 .21-.041.403-.126.58a1.468 1.468 0 0 1-.298.432.768.768 0 0 1-.347.207.564.564 0 0 1-.351-.03c-.118-.048-.219-.148-.302-.3a1.443 1.443 0 0 1-.164-.474c-.037-.238.04-.505.23-.801M341.562 555.457c.072-.185.12-.4.144-.645.024-.245.034-.436.031-.572a.69.69 0 0 0-.112-.37.946.946 0 0 0-.297-.283 1.242 1.242 0 0 0-.461-.163 2.923 2.923 0 0 0-.604-.03c-.221.01-.453.083-.696.22-.242.136-.496.355-.76.656a5.57 5.57 0 0 0-.717 1.049 5.136 5.136 0 0 0-.478 1.29 8.17 8.17 0 0 0-.047 3.27c.113.586.278 1.126.496 1.62.218.493.488.883.81 1.17.322.285.67.451 1.046.497.374.045.716-.023 1.024-.204.307-.182.57-.44.786-.775.217-.335.368-.705.453-1.11a3.81 3.81 0 0 0 .084-1.114c-.03-.336-.15-.589-.36-.758-.21-.169-.485-.257-.827-.265a2.1 2.1 0 0 0-1.003.233 2.41 2.41 0 0 0-.792.612 1.68 1.68 0 0 0-.377.758c-.071.375.213.79.852 1.244M347.436 556.512c.024-.399.03-.655.018-.77-.008-.08-.055-.152-.14-.22a1.327 1.327 0 0 0-.331-.18 1.938 1.938 0 0 0-.464-.113 2.168 2.168 0 0 0-.586.014c-.216.032-.438.14-.667.326-.23.185-.457.458-.683.82-.226.36-.4.829-.519 1.406a8.169 8.169 0 0 0-.153 1.877c.018.675.13 1.294.334 1.856.204.563.477 1.003.82 1.32.341.319.699.515 1.071.59.373.075.757.024 1.154-.15.396-.175.73-.457 1.002-.846.272-.388.474-.854.608-1.397a6.765 6.765 0 0 0 .188-1.706 4.085 4.085 0 0 0-.336-1.623c-.32-.717-.867-1.283-1.641-1.695M352.418 554.45c.2-.408.306-.687.318-.835a.737.737 0 0 0-.011-.239.434.434 0 0 0-.14-.188.606.606 0 0 0-.326-.134c-.139-.02-.304.022-.495.126-.19.103-.362.285-.512.545-.15.26-.252.562-.306.905a3.644 3.644 0 0 0-.011 1.035c.045.348.17.645.373.891.203.246.45.402.74.468.291.067.568.045.83-.066s.465-.318.609-.62c.144-.303.228-.633.251-.989.034-.513-.249-1.367-.848-2.56M393.25 361.283c-.216.107-.366.078-.452-.088a.793.793 0 0 1-.093-.355c-.002-.12.006-.224.022-.315a.564.564 0 0 1 .12-.253c.062-.078.127-.123.193-.135.067-.012.132.033.195.136.063.103.122.241.176.415.053.175.088.416.103.723s-.007.51-.068.605a.454.454 0 0 1-.255.198.687.687 0 0 1-.357.012c-.128-.027-.243-.12-.347-.279a1.786 1.786 0 0 1-.23-.507 2.42 2.42 0 0 1-.087-.499.726.726 0 0 1 .057-.367.375.375 0 0 1 .232-.192c.109-.034.229-.053.36-.057.132-.003.261.01.387.039.126.029.243.108.35.236.108.128.189.288.243.479.054.19.086.37.095.535.01.166-.003.296-.036.39-.033.094-.106.154-.217.18-.11.027-.228.04-.353.039a.688.688 0 0 1-.321-.074c-.131-.07-.217-.215-.256-.434M391.557 341.186c1.37-.647 2.374-1.198 3.01-1.654M395.903 332.734c0 .096.026.187.078.273.052.087.106.201.163.344.057.144.183.543.378 1.199s.363 1.206.504 1.65c.142.446.282.825.423 1.138.14.313.284.546.432.697a.97.97 0 0 0 .445.284c.15.037.305.038.466.002.162-.036.307-.097.435-.182.129-.085.29-.212.485-.38.287-.249.66-.494 1.117-.737M399.753 334.537c.279.562.584 1.144.916 1.748.483.878 1.237 2.293 2.261 4.245M404.87 331.14a1.42 1.42 0 0 0-.353-.54.858.858 0 0 0-.293-.203.93.93 0 0 0-.281-.05c-.099-.004-.201.04-.307.13-.105.09-.202.227-.29.409-.089.182-.168.43-.237.742-.07.313-.12.686-.153 1.12a10.61 10.61 0 0 0-.015 1.33c.022.455.117.901.284 1.34.166.44.402.85.709 1.232a3.15 3.15 0 0 0 1.018.857c.373.19.734.253 1.082.19.348-.064.644-.268.886-.611.243-.344.415-.732.517-1.165a5.82 5.82 0 0 0 .15-1.375 5.225 5.225 0 0 0-.226-1.468 4.54 4.54 0 0 0-.588-1.276 3.498 3.498 0 0 0-.778-.842c-.401-.298-.88-.363-1.436-.195M408.56 326.102c-.166-.114-.298-.036-.396.234a3.55 3.55 0 0 0-.165.724 6.78 6.78 0 0 0-.057.922c0 .327.07.622.208.883.139.262.34.452.604.569.265.117.542.163.832.14a1.1 1.1 0 0 0 .746-.373c.207-.227.338-.531.393-.913a2.545 2.545 0 0 0-.097-1.143c-.173-.548-.804-1.132-1.893-1.753" style="fill:none;stroke:#ff21b3;stroke-width:1.55905;stroke-linecap:round;stroke-linejoin:round;stroke-miterlimit:10;stroke-dasharray:none;stroke-opacity:1" transform="matrix(.72727 0 0 .72727 -202.708 -198.197)"/><path d="m511.19 457.998-.013.575v.006-.491c0-.3.008-.49.025-.568a.24.24 0 0 1 .137-.172c.074-.036.141-.025.201.035.06.06.122.18.184.358a4.415 4.415 0 0 1 .21 1.226 1.3 1.3 0 0 1-.053.446c-.038.11-.098.18-.18.208a.471.471 0 0 1-.259.013.41.41 0 0 1-.24-.169 1.033 1.033 0 0 1-.16-.327 1.795 1.795 0 0 1-.068-.428c-.007-.16.014-.32.065-.478a.944.944 0 0 1 .214-.378.545.545 0 0 1 .28-.168c.096-.018.179.017.249.106.07.088.117.205.142.348.024.143.035.278.033.404a.406.406 0 0 1-.165.32.898.898 0 0 1-.412.176c-.166.03-.327.044-.482.042-.155-.002-.273-.048-.353-.14-.115-.128.005-.527.359-1.194M520.43 434.295a2.425 2.425 0 0 0-.331-.566 1.945 1.945 0 0 0-.346-.373.983.983 0 0 0-.378-.142 1.536 1.536 0 0 0-.486-.02 1.16 1.16 0 0 0-.502.205c-.176.118-.35.296-.524.533-.173.237-.327.555-.461.956-.134.4-.23.867-.286 1.4a8.659 8.659 0 0 0-.009 1.664c.05.576.197 1.114.44 1.613.244.5.555.907.934 1.22.379.314.767.519 1.163.614.397.096.78.103 1.148.022a2.294 2.294 0 0 0 1.017-.523c.31-.268.56-.612.75-1.032.19-.42.304-.891.341-1.413a5.493 5.493 0 0 0-.127-1.594 6.052 6.052 0 0 0-.584-1.554c-.267-.496-.542-.872-.824-1.13-.282-.256-.536-.407-.764-.45-.327-.062-.556.05-.687.334M525.8 430.982c.197.14.362.22.496.238.09.012.143-.048.156-.18a1.185 1.185 0 0 0-.227-.796.826.826 0 0 0-.299-.261.963.963 0 0 0-.354-.098c-.123-.01-.254.035-.392.134-.137.099-.265.276-.383.533a2.867 2.867 0 0 0-.233.864c-.037.32-.023.634.042.942.066.308.182.564.348.768.167.204.338.334.515.389.177.055.34.033.487-.065.148-.099.257-.285.327-.558.07-.274.11-.593.117-.958.01-.538-.08-1.15-.27-1.837" style="fill:none;stroke:#ff21b3;stroke-width:1.55905;stroke-linecap:round;stroke-linejoin:round;stroke-miterlimit:10;stroke-dasharray:none;stroke-opacity:1" transform="matrix(.72727 0 0 .72727 -229.17 -195.925)"/><path d="M298.124 417.124c7.906 7.61 13.416 16.77 16.53 27.48" style="fill:none;stroke:#7ec636;stroke-width:2.59842;stroke-linecap:round;stroke-linejoin:round;stroke-miterlimit:10;stroke-dasharray:none;stroke-opacity:1" transform="matrix(.72727 0 0 .72727 -202.708 -198.197)"/><path d="M314.653 444.605c2.696 9.127 2.89 17.864.584 26.21" style="fill:none;stroke:#304700;stroke-width:2.59842;stroke-linecap:round;stroke-linejoin:round;stroke-miterlimit:10;stroke-dasharray:none;stroke-opacity:1" transform="matrix(.72727 0 0 .72727 -202.708 -198.197)"/></svg>