<svg xmlns="http://www.w3.org/2000/svg" width="157.701" height="64.547"><path d="M183.693 244.126h85.632M226.88 283.243V201.33M222.796 200.965c-.135.118-.187.103-.156-.045.022-.11.132-.291.327-.546.196-.254.446-.534.75-.84.304-.305.65-.606 1.039-.903a8.654 8.654 0 0 1 1.136-.746c.368-.2.69-.336.967-.411a2.27 2.27 0 0 1 .786-.082c.248.02.499.117.753.288.254.172.515.411.784.718.268.307.53.631.787.973.376.502.826 1.191 1.349 2.07M269.488 239.493c.156.082.459.332.909.749.45.416.78.73.988.942.21.211.411.44.607.686.195.246.382.505.562.778.18.274.318.557.414.85.096.293.146.599.15.916.006.318-.07.638-.225.96a4.99 4.99 0 0 1-.587.928c-.236.298-.482.58-.74.844-.38.39-.886.8-1.517 1.23" style="fill:none;stroke:#000;stroke-width:1.55905;stroke-linecap:round;stroke-linejoin:round;stroke-miterlimit:10;stroke-dasharray:none;stroke-opacity:1" transform="matrix(.72727 0 0 .72727 -133.028 -142.015)"/><path d="m227.685 243.009 39.523-40.072" style="fill:none;stroke:#ff21b3;stroke-width:1.55905;stroke-linecap:round;stroke-linejoin:round;stroke-miterlimit:10;stroke-dasharray:none;stroke-opacity:1" transform="matrix(.72727 0 0 .72727 -133.028 -142.015)"/><path d="M246.475 228.029c.357.43.781.99 1.273 1.675.491.686.873 1.27 1.145 1.753.273.482.524 1.01.754 1.582.23.573.422 1.19.578 1.85.155.662.252 1.33.291 2.007.057.984-.109 2.455-.498 4.411" style="fill:none;stroke:#007aff;stroke-width:1.55905;stroke-linecap:round;stroke-linejoin:round;stroke-miterlimit:10;stroke-dasharray:none;stroke-opacity:1" transform="matrix(.72727 0 0 .72727 -133.028 -142.015)"/><path d="M239.777 234.398a21.59 21.59 0 0 0-.379 1.243 20.69 20.69 0 0 0-.258 1.027 8.02 8.02 0 0 0-.117.646c-.022.17-.034.3-.036.388-.002.087.027.149.09.184a.68.68 0 0 0 .273.067c.119.01.257.013.415.007.158-.005.316-.026.474-.063a7.42 7.42 0 0 1 .41-.086c.173-.03.35-.034.529-.01" style="fill:none;stroke:#007aff;stroke-width:.519685;stroke-linecap:round;stroke-linejoin:round;stroke-miterlimit:10;stroke-dasharray:none;stroke-opacity:1" transform="matrix(.72727 0 0 .72727 -133.028 -142.015)"/><path d="M240.84 236.336c-.042.398-.066.866-.07 1.403-.009.846.037 1.472.135 1.879M243.73 234.426c-.014-.115-.112-.197-.292-.248a1.496 1.496 0 0 0-.447-.043c-.176.006-.305.037-.387.094a.705.705 0 0 0-.21.238c-.057.102-.1.234-.13.396-.029.163-.047.324-.053.483-.006.16.007.298.04.417.032.12.083.247.153.383.07.135.138.229.204.28a.446.446 0 0 0 .225.093c.083.01.207 0 .372-.032.164-.03.298-.049.4-.055.103-.006.2.015.293.061a.673.673 0 0 1 .253.24c.075.115.143.249.204.403a1.916 1.916 0 0 1 .108 1.02c-.028.189-.098.362-.21.52-.112.158-.24.284-.385.376-.208.133-.456.109-.744-.072M245.472 232.589c.05-.152.014-.242-.11-.271-.088-.02-.177.002-.266.068a1.233 1.233 0 0 0-.438.655c-.038.144-.06.286-.067.426a.53.53 0 0 0 .082.341.358.358 0 0 0 .252.154c.106.015.21-.028.314-.129.104-.1.18-.237.23-.41.074-.254.1-.563.077-.926" style="fill:none;stroke:#007aff;stroke-width:.519685;stroke-linecap:round;stroke-linejoin:round;stroke-miterlimit:10;stroke-dasharray:none;stroke-opacity:1" transform="matrix(.72727 0 0 .72727 -133.028 -142.015)"/><path d="M288.017 243.251h85.632M331.203 282.368v-81.914M327.12 200.09c-.135.118-.187.103-.156-.046.022-.109.131-.29.327-.545.196-.254.445-.534.75-.84.303-.305.65-.606 1.038-.904a8.663 8.663 0 0 1 1.136-.745c.37-.2.691-.336.967-.411.276-.075.538-.103.786-.082.248.02.5.117.754.288.254.172.515.411.784.718.268.307.53.631.787.973.376.501.825 1.191 1.349 2.07M373.812 238.618c.156.082.459.332.909.748.45.417.78.731.988.943.21.211.411.44.606.686.195.246.383.505.563.778.18.274.318.557.414.85.095.293.146.598.15.916.005.318-.07.638-.225.959-.155.321-.35.631-.587.929-.236.298-.483.58-.74.843-.38.39-.886.8-1.518 1.23" style="fill:none;stroke:#000;stroke-width:1.55905;stroke-linecap:round;stroke-linejoin:round;stroke-miterlimit:10;stroke-dasharray:none;stroke-opacity:1" transform="matrix(.72727 0 0 .72727 -117.37 -142.35)"/><path d="M227.177 243.398c-.221-.02-.356-.076-.404-.168a.558.558 0 0 1 .003-.476.403.403 0 0 1 .144-.174.456.456 0 0 1 .203-.067.372.372 0 0 1 .215.043c.067.036.121.091.161.165.04.075.064.162.071.262.007.1.006.2-.005.298a.517.517 0 0 1-.134.286.817.817 0 0 1-.285.211 1.05 1.05 0 0 1-.368.088 1.368 1.368 0 0 1-.387-.03.658.658 0 0 1-.306-.154.547.547 0 0 1-.158-.238.731.731 0 0 1-.033-.257.405.405 0 0 1 .125-.253 1.183 1.183 0 0 1 .626-.319.756.756 0 0 1 .306.012.605.605 0 0 1 .27.156c.083.08.151.177.204.289.053.111.086.24.098.385a1.41 1.41 0 0 1-.034.444.698.698 0 0 1-.215.372.676.676 0 0 1-.378.17.768.768 0 0 1-.437-.082 1.401 1.401 0 0 1-.389-.28.917.917 0 0 1-.222-.335.733.733 0 0 1-.033-.333.592.592 0 0 1 .18-.334c.106-.108.229-.195.369-.262.14-.067.273-.107.398-.12a.762.762 0 0 1 .373.054c.123.05.232.125.326.223.094.099.168.214.222.346.054.132.086.271.095.418a.912.912 0 0 1-.057.398.545.545 0 0 1-.252.278.97.97 0 0 1-.414.116c-.156.01-.292-.001-.407-.033a.593.593 0 0 1-.314-.242.81.81 0 0 1-.16-.408.581.581 0 0 1 .096-.385.812.812 0 0 1 .309-.271c.13-.068.266-.109.409-.123.143-.015.273-.012.391.01a.533.533 0 0 1 .442.45.858.858 0 0 1-.024.368.593.593 0 0 1-.247.327c-.13.09-.273.147-.43.171a.613.613 0 0 1-.4-.055c-.155-.086-.206-.375-.153-.866M267.763 202.505a.488.488 0 0 1-.294-.259.747.747 0 0 1-.078-.237.641.641 0 0 1 .014-.222.346.346 0 0 1 .134-.2.694.694 0 0 1 .254-.12.885.885 0 0 1 .275-.03c.088.006.164.054.227.143.064.09.114.196.15.32.037.123.059.243.066.359.007.116.005.221-.005.315a.365.365 0 0 1-.122.237.822.822 0 0 1-.274.157c-.111.04-.228.065-.35.072a.657.657 0 0 1-.33-.06.524.524 0 0 1-.232-.228.825.825 0 0 1-.101-.33.588.588 0 0 1 .061-.321c.051-.101.133-.188.245-.26.113-.073.236-.136.37-.188.133-.051.264-.093.393-.124.128-.032.24-.045.334-.04a.261.261 0 0 1 .217.124c.05.078.078.184.084.318.005.133-.013.272-.054.415-.04.143-.108.27-.2.38a.86.86 0 0 1-.326.244 1.203 1.203 0 0 1-.394.091.855.855 0 0 1-.39-.062.53.53 0 0 1-.261-.207.666.666 0 0 1-.093-.293.465.465 0 0 1 .118-.33c.088-.11.194-.201.319-.272a.97.97 0 0 1 .338-.127c.101-.014.174.002.217.05.063.066.089.198.078.393" style="fill:none;stroke:#ff21b3;stroke-width:1.55905;stroke-linecap:round;stroke-linejoin:round;stroke-miterlimit:10;stroke-dasharray:none;stroke-opacity:1" transform="matrix(.72727 0 0 .72727 -133.028 -142.015)"/><path d="M331.043 242.558c.039.1-.004.179-.126.236-.086.04-.152.058-.198.05-.046-.007-.085-.05-.115-.128a1.09 1.09 0 0 1-.061-.28 1.14 1.14 0 0 1 .01-.312.583.583 0 0 1 .118-.264.562.562 0 0 1 .627-.193c.063.023.12.07.17.142.051.072.086.217.103.436.018.218 0 .387-.056.505a1.234 1.234 0 0 1-.242.34 1.58 1.58 0 0 1-.33.262.91.91 0 0 1-.355.122.84.84 0 0 1-.347-.027.453.453 0 0 1-.257-.198.779.779 0 0 1-.115-.342 1.245 1.245 0 0 1 .033-.418c.036-.15.097-.302.182-.458.084-.155.183-.293.296-.412.112-.12.219-.202.319-.248a.368.368 0 0 1 .287-.02c.091.033.171.116.24.248.069.133.123.28.164.441.04.162.066.312.077.45a.952.952 0 0 1-.032.362.459.459 0 0 1-.208.254.77.77 0 0 1-.349.114.583.583 0 0 1-.358-.088.688.688 0 0 1-.264-.303 1.345 1.345 0 0 1-.12-.409 1.051 1.051 0 0 1 .015-.38.472.472 0 0 1 .13-.249.406.406 0 0 1 .168-.097c.078-.018.174.057.289.226M330.08 241.99l-40.348-39.233" style="fill:none;stroke:#ff21b3;stroke-width:1.55905;stroke-linecap:round;stroke-linejoin:round;stroke-miterlimit:10;stroke-dasharray:none;stroke-opacity:1" transform="matrix(.72727 0 0 .72727 -117.37 -142.35)"/><path d="M314.803 223.267c3.694-3.907 8.596-5.897 14.706-5.971" style="fill:none;stroke:#007aff;stroke-width:1.55905;stroke-linecap:round;stroke-linejoin:round;stroke-miterlimit:10;stroke-dasharray:none;stroke-opacity:1" transform="matrix(.72727 0 0 .72727 -117.37 -142.35)"/><path d="M320.786 223.777a4.062 4.062 0 0 0-.193.836c-.027.207-.068.484-.122.832a8.327 8.327 0 0 0-.097.824c-.01.201-.009.372.003.511.012.14.045.245.1.315.054.07.128.12.22.146.13.04.79.064 1.978.075" style="fill:none;stroke:#007aff;stroke-width:.519685;stroke-linecap:round;stroke-linejoin:round;stroke-miterlimit:10;stroke-dasharray:none;stroke-opacity:1" transform="matrix(.72727 0 0 .72727 -117.37 -142.35)"/><path d="M322.24 225.909c-.01.332-.006.846.01 1.54.016.675.062 1.234.136 1.678M325.122 224.426c.013-.128-.01-.23-.07-.304a.413.413 0 0 0-.157-.12.542.542 0 0 0-.23-.04c-.088 0-.175.05-.26.15-.085.1-.15.229-.196.388-.046.159-.076.331-.09.517a7.827 7.827 0 0 0-.024.55c-.002.18.006.346.023.497.017.151.041.277.073.378a.786.786 0 0 0 .106.231c.04.054.114.085.222.095.108.01.202 0 .28-.03.08-.03.166-.052.26-.064.095-.013.19-.018.286-.016a.406.406 0 0 1 .257.097c.076.063.13.147.165.253.034.107.052.228.056.364a.827.827 0 0 1-.1.405 1.08 1.08 0 0 1-.747.533c-.235.043-.439-.044-.61-.262M327.062 222.709c.094.028.157.001.191-.079.024-.056-.013-.097-.112-.122-.098-.026-.2-.002-.308.071-.107.073-.2.162-.28.265a.938.938 0 0 0-.215.558.39.39 0 0 0 .065.246c.049.076.131.12.246.136a.423.423 0 0 0 .333-.11.717.717 0 0 0 .227-.342c.064-.202.062-.471-.008-.807" style="fill:none;stroke:#007aff;stroke-width:.519685;stroke-linecap:round;stroke-linejoin:round;stroke-miterlimit:10;stroke-dasharray:none;stroke-opacity:1" transform="matrix(.72727 0 0 .72727 -117.37 -142.35)"/><path d="M289.554 201.523c.195-.13.21-.222.042-.276a1.204 1.204 0 0 0-.345-.062.61.61 0 0 0-.329.098 1.014 1.014 0 0 0-.304.301 1.483 1.483 0 0 0-.207.453 2.783 2.783 0 0 0-.09.542 5.237 5.237 0 0 0-.008.57c.007.187.048.35.121.487a.616.616 0 0 0 .298.287.967.967 0 0 0 .439.069.798.798 0 0 0 .486-.218 1.78 1.78 0 0 0 .394-.497c.106-.195.18-.396.224-.601a3.29 3.29 0 0 0 .07-.597c.004-.192-.03-.36-.102-.502a.839.839 0 0 0-.29-.33 1.047 1.047 0 0 0-.402-.155 1.278 1.278 0 0 0-.449.005.77.77 0 0 0-.425.265 1.763 1.763 0 0 0-.329.571c-.086.233-.14.465-.163.696-.022.232-.005.439.053.621a.75.75 0 0 0 .319.423c.155.099.333.154.535.164a.871.871 0 0 0 .583-.202 1.33 1.33 0 0 0 .412-.502 1.34 1.34 0 0 0 .137-.493c.005-.137-.052-.235-.17-.294-.171-.085-.479-.155-.922-.21" style="fill:none;stroke:#ff21b3;stroke-width:1.55905;stroke-linecap:round;stroke-linejoin:round;stroke-miterlimit:10;stroke-dasharray:none;stroke-opacity:1" transform="matrix(.72727 0 0 .72727 -117.37 -142.35)"/></svg>