<svg xmlns="http://www.w3.org/2000/svg" width="109.339" height="103.519"><path d="M350.836 380.275c-.033-.297-.02-.74.035-1.332.036-.375.09-1.198.163-2.467.073-1.27.131-2.53.174-3.78.043-1.252.065-5.76.068-13.523.003-7.763.012-12.843.028-15.24.017-2.395.043-4.895.08-7.5.037-2.603.057-5.288.06-8.053a663.869 663.869 0 0 0-.23-17.894 643.65 643.65 0 0 1-.224-17.969c.005-2.69.034-5.194.087-7.51.052-2.317.09-4.356.111-6.117.022-1.762.044-3.312.064-4.65.02-1.337.04-2.848.06-4.532.02-1.684.05-2.726.089-3.125.057-.58.422-1.046 1.094-1.397" style="fill:none;stroke:#000;stroke-width:2.80125;stroke-linecap:round;stroke-linejoin:round;stroke-miterlimit:10;stroke-dasharray:none;stroke-opacity:1" transform="matrix(.72727 0 0 .72727 -237.563 -179.327)"/><path d="M350.522 266.572c.69-.008 2.052-.16 4.084-.456 1.24-.18 2.301-.328 3.182-.444.881-.117 1.853-.22 2.916-.31a63.123 63.123 0 0 1 3.655-.191c1.373-.036 3.655-.057 6.844-.062 3.189-.005 5.68-.011 7.475-.02 1.795-.01 3.674-.036 5.638-.08 1.963-.046 4.08-.111 6.351-.197a1380.8 1380.8 0 0 1 6.544-.232c2.092-.07 4.187-.125 6.286-.168 2.099-.043 5.348-.067 9.749-.073 4.4-.006 7.74-.014 10.02-.025 2.28-.011 4.559-.017 6.835-.02 2.276-.001 4.433.033 6.473.103 2.04.07 4.003.165 5.891.286 1.888.12 3.54.236 4.954.344 1.415.109 3.294.243 5.637.403 2.344.16 4 .26 4.968.303.969.042 1.8.082 2.495.122 1.027.058 2.218.185 3.572.38M343.388 378.478c.144.37.427.86.848 1.465.42.606.83 1.188 1.226 1.746.397.558.785 1.088 1.165 1.59s.92 1.136 1.619 1.902c.7.766 1.317 1.327 1.852 1.682.535.356 1.023.567 1.464.632.441.064.868-.018 1.282-.25.414-.23.876-.656 1.388-1.275a61.055 61.055 0 0 0 1.73-2.213 56.4 56.4 0 0 1 3.181-3.855M468.654 260.476c.291.109.702.278 1.232.51.53.23 1.081.51 1.652.837.572.328 1.103.702 1.595 1.122.492.42.93.871 1.313 1.354.383.483.68.972.892 1.468.213.496.29.99.234 1.48-.057.49-.32.992-.791 1.506-.471.514-1.126 1.017-1.966 1.51-1.23.72-2.928 1.678-5.095 2.874" style="fill:none;stroke:#000;stroke-width:2.80125;stroke-linecap:round;stroke-linejoin:round;stroke-miterlimit:10;stroke-dasharray:none;stroke-opacity:1" transform="matrix(.72727 0 0 .72727 -237.563 -179.327)"/><path d="M351.353 265.852c-.4.104-.615.029-.649-.227a1.272 1.272 0 0 1 .027-.501c.04-.152.135-.353.282-.601.148-.249.291-.424.431-.526.14-.102.273-.14.4-.116.127.025.214.173.263.444.048.27.057.598.026.983-.03.385-.119.725-.265 1.02-.2.406-.43.397-.69-.028M425 263.612c-.113-.037-.204-.178-.273-.424-.07-.246-.096-.43-.079-.55a.796.796 0 0 1 .2-.385 1.591 1.591 0 0 1 .892-.532.848.848 0 0 1 .476.036c.148.057.28.19.397.397.117.208.202.477.255.808.053.331.08.662.08.993 0 .33-.06.635-.18.912s-.282.493-.484.647c-.203.154-.44.245-.71.271-.27.027-.557-.056-.858-.25-.3-.194-.57-.473-.809-.838a3.085 3.085 0 0 1-.466-1.147 3.428 3.428 0 0 1-.04-1.09c.047-.326.18-.577.4-.753.218-.176.477-.279.773-.309.297-.03.61.046.937.228.472.262.805.943 1 2.042M351.158 337.433c-.357.175-.617.26-.78.257-.112-.003-.182-.131-.207-.385a1.363 1.363 0 0 1 .068-.648c.072-.177.152-.331.243-.461.09-.13.193-.23.31-.297.116-.068.24-.11.37-.129.13-.018.26.017.386.105.127.088.244.243.352.465.107.222.175.476.204.76.029.285.042.558.04.82a1.329 1.329 0 0 1-.192.699c-.126.204-.29.359-.493.463-.203.105-.44.16-.71.165-.272.005-.531-.085-.78-.27a1.584 1.584 0 0 1-.543-.743 2.95 2.95 0 0 1-.19-.905c-.01-.294.028-.533.116-.716.126-.263.558-.37 1.296-.32" style="fill:none;stroke:#ff21b3;stroke-width:2.80125;stroke-linecap:round;stroke-linejoin:round;stroke-miterlimit:10;stroke-dasharray:none;stroke-opacity:1" transform="matrix(.72727 0 0 .72727 -237.563 -179.327)"/><path d="M366.31 278.578c-.076-.138-.182-.211-.316-.22-.093-.006-.146-.126-.16-.358-.015-.233-.004-.411.032-.536a.712.712 0 0 1 .193-.322.67.67 0 0 1 .722-.138c.132.052.25.17.352.353.102.183.177.4.223.652.046.251.068.5.067.745-.002.246-.053.461-.154.646a.898.898 0 0 1-.4.395 1.39 1.39 0 0 1-.55.13 1.07 1.07 0 0 1-.573-.139c-.18-.1-.33-.253-.45-.46a2.705 2.705 0 0 1-.368-1.266.96.96 0 0 1 .504-.893c.152-.08.331-.134.538-.16.206-.026.41-.02.608.02s.37.123.516.252c.145.13.242.28.293.453a.978.978 0 0 1-.005.546c-.076.27-.452.246-1.129-.071" style="fill:none;stroke:#ff2a22;stroke-width:2.80125;stroke-linecap:round;stroke-linejoin:round;stroke-miterlimit:10;stroke-dasharray:none;stroke-opacity:1" transform="matrix(.72727 0 0 .72727 -237.563 -179.327)"/><path d="M425.724 279.643c-.164-.175-.245-.409-.245-.7 0-.196.021-.362.063-.5a.75.75 0 0 1 .246-.36c.122-.103.297-.172.524-.21.227-.036.39.001.492.113.102.112.175.275.221.49.046.215.072.434.076.657a2.16 2.16 0 0 1-.09.664c-.065.22-.18.417-.348.595a2.096 2.096 0 0 1-.59.437 2.283 2.283 0 0 1-.712.222c-.25.036-.48.016-.689-.06-.21-.074-.378-.231-.506-.47a2.037 2.037 0 0 1-.23-.808 1.934 1.934 0 0 1 .121-.86 2.71 2.71 0 0 1 .44-.755c.188-.23.384-.41.589-.539.204-.13.399-.207.586-.233.186-.026.35.041.488.2.139.159.236.374.29.645.056.271.089.543.1.814.013.272-.028.504-.123.699-.135.277-.405.37-.81.276" style="fill:none;stroke:#ff2a22;stroke-width:2.80125;stroke-linecap:round;stroke-linejoin:round;stroke-miterlimit:10;stroke-dasharray:none;stroke-opacity:1" transform="matrix(.72727 0 0 .72727 -237.843 -180.605)"/><path d="M426.09 304.138c-.714.138-1.07.023-1.067-.343.002-.26.043-.5.121-.72.078-.22.166-.433.264-.64.097-.207.192-.381.285-.521a1.25 1.25 0 0 1 .287-.32.637.637 0 0 1 .288-.129c.093-.012.189.025.288.112.098.087.186.225.262.413.077.188.136.4.18.633.043.234.07.472.08.716.01.244-.021.473-.092.688a1.333 1.333 0 0 1-.956.883c-.23.058-.462.07-.694.033-.233-.036-.44-.16-.624-.371a2.152 2.152 0 0 1-.42-.779 3.774 3.774 0 0 1-.168-.945c-.016-.323.02-.62.108-.89.087-.271.204-.485.35-.643a.889.889 0 0 1 .5-.288c.189-.034.4-.002.632.096.232.097.459.237.679.42.22.182.419.368.595.56.177.19.301.381.373.573a.97.97 0 0 1 .037.578c-.046.193-.206.367-.478.523a2.929 2.929 0 0 1-.976.328c-.546.091-1.173-.21-1.878-.904" style="fill:none;stroke:#ff2a22;stroke-width:2.80125;stroke-linecap:round;stroke-linejoin:round;stroke-miterlimit:10;stroke-dasharray:none;stroke-opacity:1" transform="matrix(.72727 0 0 .72727 -237.598 -179.755)"/><path d="M365.884 302.534c-.171-.301-.23-.581-.176-.84a.808.808 0 0 1 .188-.404.75.75 0 0 1 .341-.198c.14-.04.293-.058.462-.055a.665.665 0 0 1 .449.183c.13.12.224.275.279.465.055.19.085.396.09.617.007.221-.044.436-.15.643a1.483 1.483 0 0 1-1.008.779 1.31 1.31 0 0 1-.558.008c-.164-.038-.296-.151-.396-.34a1.69 1.69 0 0 1-.181-.643 2.537 2.537 0 0 1 .025-.68c.04-.216.105-.38.199-.496a.596.596 0 0 1 .332-.219.5.5 0 0 1 .373.059c.12.068.201.195.244.38.043.185.057.353.044.503-.02.208-.142.197-.369-.031M366.315 302.114l-.007-24.879M425.12 302.911l-.008-25.852M425.12 302.911l-58.805-.797" style="fill:none;stroke:#ff2a22;stroke-width:2.80125;stroke-linecap:round;stroke-linejoin:round;stroke-miterlimit:10;stroke-dasharray:none;stroke-opacity:1" transform="matrix(.72727 0 0 .72727 -237.563 -179.327)"/><path d="m231.883 422.296-.004 14.1-32.074-.095.004-13.57 32.074-.435z" style="fill:#ff2a22;fill-opacity:.1;fill-rule:nonzero;stroke:none" transform="matrix(1.33333 0 0 -1.33333 -237.563 604.033)"/><path d="m425.112 277.06-58.804.175" style="fill:none;stroke:#ff2a22;stroke-width:2.80125;stroke-linecap:round;stroke-linejoin:round;stroke-miterlimit:10;stroke-dasharray:none;stroke-opacity:1" transform="matrix(.72727 0 0 .72727 -237.563 -179.327)"/><path d="m457.145 259.01-.148.154h0l.01-.015.272-.34c.17-.214.425-.488.763-.823.338-.334.733-.706 1.186-1.116.453-.41.954-.847 1.503-1.313.814-.69 1.77-1.456 2.867-2.298" style="fill:none;stroke:#007aff;stroke-width:1.55905;stroke-linecap:round;stroke-linejoin:round;stroke-miterlimit:10;stroke-dasharray:none;stroke-opacity:1" transform="matrix(.72727 0 0 .72727 -237.563 -179.327)"/><path d="M457.662 252.547c1.132 1.831 1.875 3.003 2.23 3.514.355.513 1.165 1.497 2.43 2.951M338.503 362.347l-.222-.6c-.013-.032-.02-.03-.022.008l-.022.375c-.012.211.019.496.092.853.074.357.207.766.398 1.226.192.461.408.887.649 1.278.24.39.5.673.776.848.276.175.557.246.842.214.286-.033.573-.214.86-.543.289-.33.56-.717.817-1.162.257-.445.48-.874.673-1.288a5.72 5.72 0 0 0 .418-1.236c.085-.41.136-.79.152-1.138.016-.348-.007-.608-.067-.779-.061-.17-.14-.264-.24-.281-.098-.018-.198.08-.3.294a3.08 3.08 0 0 0-.232.824c-.053.335-.083.67-.088 1.005-.005.335.019.71.074 1.124.054.415.18.89.376 1.424.197.534.42 1.08.667 1.639.247.559.496 1.09.749 1.595.252.505.455.977.61 1.415.154.439.245.87.273 1.296.029.426-.032.829-.183 1.21-.15.38-.388.685-.712.914-.324.23-.705.356-1.143.379-.438.023-.867-.11-1.286-.398-.61-.419-.988-1.161-1.135-2.228" style="fill:none;stroke:#007aff;stroke-width:1.55905;stroke-linecap:round;stroke-linejoin:round;stroke-miterlimit:10;stroke-dasharray:none;stroke-opacity:1" transform="matrix(.72727 0 0 .72727 -237.563 -179.327)"/><path d="M419.209 247.793c-.028-.363-.05-.505-.066-.424l-.085.435c-.045.231-.083.658-.115 1.281-.03.623-.048 1.66-.052 3.11-.003 1.45.025 2.491.085 3.125.09.948.333 1.846.732 2.693M425.058 250.498c.024-.488.008-.782-.047-.881a.712.712 0 0 0-.2-.212 1.394 1.394 0 0 0-.345-.185 1.739 1.739 0 0 0-.464-.1 1.551 1.551 0 0 0-.581.072c-.212.063-.435.246-.667.55-.233.303-.441.713-.626 1.23a6.612 6.612 0 0 0-.355 1.649 7.19 7.19 0 0 0 .037 1.665c.076.53.256.974.54 1.334.284.36.616.615.996.765.38.15.769.191 1.168.125.4-.066.763-.264 1.09-.594.326-.33.576-.72.75-1.17.174-.45.277-.918.31-1.407.032-.489.002-.99-.092-1.504a9.19 9.19 0 0 0-.324-1.31c-.186-.545-.427-.952-.723-1.22M432.155 251.11a4.357 4.357 0 0 0-.14-1.005 1.861 1.861 0 0 0-.244-.556.947.947 0 0 0-.43-.354 1.49 1.49 0 0 0-.635-.1c-.244.009-.5.137-.768.386-.267.25-.518.608-.75 1.077a6.5 6.5 0 0 0-.53 1.56 5.891 5.891 0 0 0-.11 1.704c.046.565.21 1.046.49 1.444.282.397.644.68 1.089.85.444.17.918.225 1.422.165.504-.059.984-.27 1.439-.632a4.154 4.154 0 0 0 1.108-1.368c.284-.55.45-1.125.5-1.726.05-.601-.024-1.118-.224-1.552-.2-.433-.462-.745-.785-.934-.476-.28-1.085-.543-1.827-.79M349.657 253.868a2.255 2.255 0 0 0-.368-.985c-.213-.332-.394-.563-.545-.691a1.28 1.28 0 0 0-.573-.269 1.957 1.957 0 0 0-.796.015c-.3.06-.585.214-.858.463-.273.248-.491.577-.653.985-.163.41-.26.937-.293 1.584-.033.647.017 1.32.15 2.016.133.697.374 1.245.722 1.644.348.399.742.656 1.181.773.44.116.9.115 1.383-.003.482-.118.939-.389 1.371-.811.433-.422.795-.955 1.087-1.598.291-.643.486-1.28.586-1.911.099-.631.118-1.19.058-1.675-.06-.485-.206-.863-.439-1.133-.331-.384-1.18-.302-2.547.248M327.477 330.286c-.053.221-.063.925-.029 2.111.034 1.187.126 2.231.276 3.134.22 1.323.688 3.028 1.406 5.116M333.572 333.281c-.234-.739-.42-1.211-.555-1.418-.094-.143-.274-.259-.541-.346a1.21 1.21 0 0 0-.784-.002c-.255.086-.496.288-.721.605-.226.317-.388.726-.487 1.228-.099.501-.12 1.112-.065 1.832.055.72.231 1.474.53 2.26.298.786.645 1.395 1.042 1.825.396.43.806.685 1.23.765.424.08.83-.027 1.22-.322.388-.294.68-.702.876-1.224a5.614 5.614 0 0 0 .337-1.712c.03-.62-.018-1.21-.145-1.768s-.294-1.003-.5-1.335c-.313-.504-.648-.82-1.005-.95M341.6 332.628c.007-.488.002-.786-.014-.892a.513.513 0 0 0-.132-.244.827.827 0 0 0-.353-.219 2.143 2.143 0 0 0-.627-.102c-.26-.01-.558.078-.897.266-.34.188-.653.489-.942.902-.288.413-.525.918-.71 1.516a7.657 7.657 0 0 0-.331 1.855c-.036.638.056 1.21.274 1.718.218.506.533.896.944 1.17.411.273.895.388 1.45.344.556-.043 1.077-.264 1.564-.663.487-.398.874-.89 1.16-1.477a5.146 5.146 0 0 0 .514-1.826c.055-.631-.017-1.211-.216-1.74-.2-.527-.498-.969-.896-1.325-.585-.522-1.4-1.062-2.442-1.618" style="fill:none;stroke:#ff21b3;stroke-width:1.55905;stroke-linecap:round;stroke-linejoin:round;stroke-miterlimit:10;stroke-dasharray:none;stroke-opacity:1" transform="matrix(.72727 0 0 .72727 -237.563 -179.327)"/></svg>