<svg xmlns="http://www.w3.org/2000/svg" width="77.113" height="79.948"><path d="M144.002 222.112H227.772l-5.375-7.823-5.374-7.823-5.374-7.822-5.375-7.823L200.9 183l-5.375-7.823-5.374-7.823-5.374-7.822" style="fill:none;stroke:#fff;stroke-width:1.55905;stroke-linecap:round;stroke-linejoin:round;stroke-miterlimit:10;stroke-dasharray:none;stroke-opacity:1" transform="matrix(.72727 0 0 .72727 -97.253 -103.1)"/><path d="M394.661 391.673c11.772 22.768 2.858 50.769-19.91 62.54-22.768 11.773-50.769 2.86-62.541-19.91-11.772-22.767-2.858-50.768 19.91-62.54 22.768-11.773 50.769-2.859 62.541 19.91z" style="fill:none;stroke:#f59a23;stroke-width:1.61761;stroke-linecap:butt;stroke-linejoin:miter;stroke-miterlimit:10;stroke-dasharray:none;stroke-opacity:1" transform="matrix(.72727 0 0 .72727 -219.243 -254.753)"/><path d="M286.618 418.85c-.117.053-.217.017-.3-.108-.057-.088-.098-.242-.123-.46a5.317 5.317 0 0 1-.039-.52.896.896 0 0 1 .072-.363.74.74 0 0 1 .19-.274.47.47 0 0 1 .246-.12c.086-.01.171.036.257.141.085.106.167.24.246.406a2.872 2.872 0 0 1 .269 1.108c.005.19-.021.374-.078.552a1.55 1.55 0 0 1-.264.495c-.12.152-.27.272-.448.36a1.738 1.738 0 0 1-.613.165c-.23.02-.481.008-.757-.039a2.05 2.05 0 0 1-.754-.284c-.228-.143-.391-.303-.491-.48-.1-.177-.16-.368-.183-.573a1.352 1.352 0 0 1 .086-.626c.079-.212.228-.422.447-.63.22-.209.469-.399.747-.57.279-.171.536-.298.772-.38.236-.083.44-.12.614-.112.174.008.32.1.44.275.12.176.214.398.283.668a5.467 5.467 0 0 1 .146 1.66 1.6 1.6 0 0 1-.194.687 1.21 1.21 0 0 1-.448.46 1.557 1.557 0 0 1-.644.199 1.337 1.337 0 0 1-.741-.157 1.583 1.583 0 0 1-.588-.487 1.343 1.343 0 0 1-.249-.63.926.926 0 0 1 .17-.643c.14-.206.319-.404.537-.596a6.41 6.41 0 0 1 .67-.516c.23-.154.44-.26.63-.321.19-.06.35-.065.484-.014.134.052.231.196.294.434.062.237.098.503.109.8.01.295-.017.57-.081.825a1.652 1.652 0 0 1-.333.663 1.423 1.423 0 0 1-.559.415 1.78 1.78 0 0 1-.678.132c-.237 0-.48-.083-.727-.25a2.051 2.051 0 0 1-.61-.642 1.665 1.665 0 0 1-.257-.797c-.013-.27.054-.516.2-.738.145-.223.327-.415.545-.576a3.3 3.3 0 0 1 .672-.389c.23-.097.439-.147.629-.148.19 0 .347.088.472.267.124.18.201.42.23.723.03.303.037.596.023.878a1.621 1.621 0 0 1-.174.705c-.103.187-.233.313-.39.377a.954.954 0 0 1-.521.05c-.19-.032-.39-.13-.596-.295a1.84 1.84 0 0 1-.475-.547 1.15 1.15 0 0 1-.158-.587c.005-.192.093-.366.265-.524.172-.157.366-.274.582-.351.217-.077.421-.114.614-.109a.58.58 0 0 1 .465.234c.117.151.19.327.218.53.028.202.04.386.034.553a.555.555 0 0 1-.162.398.705.705 0 0 1-.377.186 1.23 1.23 0 0 1-.453-.006.701.701 0 0 1-.369-.183.584.584 0 0 1-.171-.293.42.42 0 0 1 .069-.317.949.949 0 0 1 .319-.295c.144-.088.285-.149.422-.182a.634.634 0 0 1 .341-.005c.09.03.147.115.168.256.021.14.003.298-.056.471-.083.247-.387.359-.912.334M283.522 412.289c-.057.028-.113-.096-.167-.373a16.977 16.977 0 0 1-.175-1.414c-.064-.666-.101-1.2-.112-1.603-.011-.402-.005-.806.018-1.213.023-.406.081-.797.172-1.171a5.89 5.89 0 0 1 .365-1.058c.152-.331.329-.631.532-.9s.412-.487.628-.653c.216-.165.426-.277.63-.334.205-.057.4-.062.589-.014.188.047.37.182.547.407.177.224.362.518.556.883.193.365.397.79.612 1.274.215.484.422.999.623 1.544.2.545.374 1.092.52 1.64.146.547.255 1.037.327 1.47a5.995 5.995 0 0 1 0 1.962" style="fill:none;stroke:#7ec636;stroke-width:1.55905;stroke-linecap:round;stroke-linejoin:round;stroke-miterlimit:10;stroke-dasharray:none;stroke-opacity:1" transform="matrix(.72727 0 0 .72727 -171.204 -292.906)"/><path d="M283.643 409.014c1.667-.158 2.879-.37 3.635-.638" style="fill:none;stroke:#7ec636;stroke-width:1.55905;stroke-linecap:round;stroke-linejoin:round;stroke-miterlimit:10;stroke-dasharray:none;stroke-opacity:1" transform="matrix(.72727 0 0 .72727 -171.204 -292.906)"/><path d="M330.35 484.005c-.076 0-.149-.041-.22-.125-.07-.084-.104-.244-.1-.482.006-.238.032-.413.08-.525a.963.963 0 0 1 .197-.297.712.712 0 0 1 .27-.18.705.705 0 0 1 .302-.037c.105.009.21.07.312.185.103.114.193.266.27.457.076.19.125.397.145.62.02.224.025.446.014.665a.976.976 0 0 1-.166.537.698.698 0 0 1-.373.274c-.149.043-.31.06-.483.052a.9.9 0 0 1-.511-.209 1.803 1.803 0 0 1-.422-.466 1.84 1.84 0 0 1-.237-.547 2.548 2.548 0 0 1-.074-.53.87.87 0 0 1 .137-.485c.095-.155.221-.294.377-.42.157-.124.318-.211.483-.26.165-.05.321-.063.468-.039a.61.61 0 0 1 .378.234c.107.131.192.291.257.48a2.538 2.538 0 0 1 .087 1.23.984.984 0 0 1-.234.501.83.83 0 0 1-.455.257 1.305 1.305 0 0 1-.572-.011.928.928 0 0 1-.515-.34 1.264 1.264 0 0 1-.27-.61 1.327 1.327 0 0 1 .066-.669c.08-.218.205-.389.376-.511s.351-.2.54-.233c.188-.033.352-.026.493.021.14.047.234.14.281.277.047.137.065.284.053.44-.018.23-.134.434-.348.615M334.745 482.587c-.024-.204-.048-.288-.07-.254-.016.024-.009.138.02.342.03.204.088.503.174.895.085.392.175.827.27 1.303.095.477.188.942.281 1.394.093.452.175.83.248 1.135.072.305.122.521.15.648l.045.203c.002.008 0 .007-.002-.001l-.08-.223c-.05-.139-.184-.612-.405-1.42a34.63 34.63 0 0 1-.479-1.913 10.092 10.092 0 0 1-.192-1.272 6.01 6.01 0 0 1 0-1.038c.03-.313.1-.6.21-.86.109-.26.242-.469.399-.628.157-.159.324-.263.502-.312a.987.987 0 0 1 .523-.007c.171.045.321.17.45.373.13.204.233.451.31.744.076.292.13.595.165.91.034.314.057.61.07.886.014.277.028.504.043.68.015.178.034.3.059.368.024.067.07.105.14.111.068.007.166-.024.292-.093.126-.069.284-.146.472-.233.189-.086.39-.147.605-.182.214-.036.418-.04.613-.014a.986.986 0 0 1 .534.257c.162.146.29.324.382.534.093.21.15.436.173.68.022.244.006.507-.048.79a2.44 2.44 0 0 1-.362.86 3.52 3.52 0 0 1-.743.813c-.308.251-.638.43-.99.538-.512.157-1.151.019-1.92-.414" style="fill:none;stroke:#ff21b3;stroke-width:1.55905;stroke-linecap:round;stroke-linejoin:round;stroke-miterlimit:10;stroke-dasharray:none;stroke-opacity:1" transform="matrix(.72727 0 0 .72727 -171.204 -292.906)"/><path d="M245.39 482.786c.118-.05.161-.137.13-.264a.664.664 0 0 0-.108-.233.467.467 0 0 0-.18-.15.641.641 0 0 0-.217-.06.442.442 0 0 0-.231.05.65.65 0 0 0-.227.198 1.06 1.06 0 0 0-.167.343 1.9 1.9 0 0 0-.072.458c-.008.169.002.336.028.502.026.167.075.313.148.44a.795.795 0 0 0 .253.283.577.577 0 0 0 .318.092c.117 0 .235-.058.356-.174.12-.117.228-.269.324-.456a2.43 2.43 0 0 0 .211-.617c.046-.225.071-.44.076-.645a1.291 1.291 0 0 0-.077-.512.539.539 0 0 0-.23-.284.812.812 0 0 0-.332-.094.609.609 0 0 0-.373.104 1.324 1.324 0 0 0-.36.36 2.824 2.824 0 0 0-.295.523c-.081.188-.139.38-.173.574a1.995 1.995 0 0 0-.033.516c.013.149.065.27.156.36.091.092.204.15.34.176a.792.792 0 0 0 .781-.315c.1-.135.17-.294.21-.476.04-.182.063-.37.067-.564a1.141 1.141 0 0 0-.083-.49.551.551 0 0 0-.292-.288.887.887 0 0 0-.467-.058.664.664 0 0 0-.445.248c-.121.145-.204.313-.249.503a1.68 1.68 0 0 0-.04.558.887.887 0 0 0 .522.738.97.97 0 0 0 .383.083.373.373 0 0 0 .307-.167.993.993 0 0 0 .17-.42c.03-.169.04-.345.026-.529a.686.686 0 0 0-.196-.451.766.766 0 0 0-.422-.219.907.907 0 0 0-.475.043.59.59 0 0 0-.337.302 1.275 1.275 0 0 0-.123.502c-.01.19.021.381.093.573.071.192.166.345.282.46a.698.698 0 0 0 .392.206c.144.022.281-.03.412-.153.131-.124.232-.288.3-.492.07-.205.108-.395.115-.572.007-.177-.027-.306-.103-.387-.107-.115-.315-.089-.623.078M239.29 481.964c.053-.152.08-.283.081-.391a1.253 1.253 0 0 0-.146-.576 1.274 1.274 0 0 0-.23-.32.834.834 0 0 0-.341-.212.89.89 0 0 0-.468-.007c-.18.039-.376.17-.59.393-.213.223-.42.527-.62.911s-.372.844-.515 1.38a8.68 8.68 0 0 0-.266 1.78 5.44 5.44 0 0 0 .173 1.77c.15.529.387.946.714 1.251.327.305.715.487 1.166.544.45.057.914-.01 1.39-.2.696-.276 1.393-.89 2.091-1.84" style="fill:none;stroke:#0085ff;stroke-width:1.55905;stroke-linecap:round;stroke-linejoin:round;stroke-miterlimit:10;stroke-dasharray:none;stroke-opacity:1" transform="matrix(.72727 0 0 .72727 -171.204 -292.906)"/></svg>