<svg xmlns="http://www.w3.org/2000/svg" width="295.122" height="220.88"><path d="M393.447 401.763c-.449-.264-.978-.71-1.586-1.34-.393-.405-.766-.699-1.12-.88a3.351 3.351 0 0 0-1.232-.34 7.933 7.933 0 0 0-1.564.026c-.573.06-1.614.28-3.122.658-1.509.378-2.731.74-3.666 1.09-.936.349-1.871.712-2.807 1.09a43.4 43.4 0 0 0-5.407 2.64 17.596 17.596 0 0 0-2.493 1.758 22.733 22.733 0 0 0-2.303 2.227 98.108 98.108 0 0 0-2.054 2.356 29.267 29.267 0 0 0-1.585 2.03 29.943 29.943 0 0 0-1.242 1.938c-.415.703-.76 1.358-1.034 1.967-.274.608-.593 1.472-.956 2.591-.363 1.12-.644 1.976-.844 2.57a27.2 27.2 0 0 1-.681 1.807c-.256.612-.58 1.294-.973 2.045-.392.752-.76 1.359-1.105 1.821a24.76 24.76 0 0 1-1.139 1.415c-.415.48-1.137 1.202-2.165 2.165-1.028.962-1.758 1.66-2.19 2.09-.433.432-.834.88-1.206 1.343a13.945 13.945 0 0 0-1.147 1.712c-.393.678-.78 1.439-1.16 2.282a61.37 61.37 0 0 0-1.082 2.556c-.341.86-.635 1.648-.88 2.363a25.39 25.39 0 0 0-.598 1.992c-.155.613-.296 1.645-.423 3.098a72.94 72.94 0 0 1-.358 3.386 28.158 28.158 0 0 1-.342 2.017c-.116.54-.227.937-.331 1.188a1.912 1.912 0 0 1-.507.69c-.234.209-1.253.795-3.06 1.76-1.806.965-3.072 1.661-3.798 2.089-.727.427-1.44.88-2.142 1.357-.701.477-1.726 1.253-3.075 2.329-1.349 1.075-2.34 1.804-2.974 2.187-.633.382-1.496.781-2.588 1.195-1.092.415-1.895.803-2.41 1.165a8.523 8.523 0 0 0-1.438 1.287c-.445.496-1.137 1.451-2.075 2.866-.939 1.414-1.535 2.37-1.787 2.871-.253.5-.49 1.071-.71 1.714-.22.642-.447 1.592-.68 2.85a80.382 80.382 0 0 1-.7 3.41 53.257 53.257 0 0 1-.972 3.55c-.414 1.352-.697 2.362-.849 3.028a31.84 31.84 0 0 0-.385 1.966c-.105.645-.178 1.766-.22 3.362a200.299 200.299 0 0 1-.123 3.768 62.345 62.345 0 0 1-.185 2.737 49.102 49.102 0 0 1-.312 2.663 29.136 29.136 0 0 1-.486 2.552 27.678 27.678 0 0 1-.722 2.502c-.283.834-.63 1.726-1.038 2.678-.41.952-1.581 3.109-3.515 6.47-1.934 3.36-3.116 5.397-3.547 6.109-.431.712-.984 1.558-1.659 2.537-.675.98-1.368 2.07-2.08 3.27a59.533 59.533 0 0 0-2.158 4.017c-.728 1.476-1.397 2.833-2.01 4.07a45.949 45.949 0 0 1-1.737 3.225 70.131 70.131 0 0 1-1.712 2.713 86.43 86.43 0 0 0-1.81 2.856c-.614 1.009-1.201 2.13-1.76 3.362a48.92 48.92 0 0 1-1.91 3.746 35.458 35.458 0 0 1-2.341 3.629 143.793 143.793 0 0 1-2.684 3.528 248.2 248.2 0 0 1-2.675 3.353 120.025 120.025 0 0 1-2.653 3.147 299.4 299.4 0 0 0-2.926 3.412 87.365 87.365 0 0 0-3.29 4.166 650.52 650.52 0 0 1-3.565 4.737 97.774 97.774 0 0 1-3.571 4.438l-3.455 4.034c-1.133 1.322-2.556 3.1-4.27 5.332a607.863 607.863 0 0 1-3.58 4.635 23.527 23.527 0 0 0-1.842 2.715 21.61 21.61 0 0 0-1.424 2.933 20.25 20.25 0 0 0-.932 3.018c-.226 1.008-.407 2.449-.543 4.321-.137 1.873-.279 3.227-.426 4.062a16.238 16.238 0 0 1-.68 2.56c-.306.87-.743 1.751-1.313 2.642-.57.89-1.283 1.729-2.142 2.515a22.611 22.611 0 0 1-2.997 2.282 118.448 118.448 0 0 0-3.398 2.28 20.701 20.701 0 0 0-3.14 2.695 30.986 30.986 0 0 0-2.776 3.366 516.001 516.001 0 0 1-2.684 3.71M547.21 645.558a5.698 5.698 0 0 1-1.518-1.5 7.451 7.451 0 0 1-.726-1.42 8.273 8.273 0 0 1-.486-1.897c-.1-.702-.161-1.489-.184-2.36a81.663 81.663 0 0 1-.018-2.877c.01-1.046.1-2.162.272-3.346a29.58 29.58 0 0 1 .715-3.474 55.71 55.71 0 0 1 1.098-3.563c.427-1.244.89-2.4 1.392-3.47a48.775 48.775 0 0 1 1.64-3.187 20.548 20.548 0 0 1 1.96-2.903 131.94 131.94 0 0 0 2.366-3.011c.861-1.127 1.789-2.37 2.782-3.733a67.19 67.19 0 0 1 3.037-3.867c1.032-1.217 2.053-2.26 3.063-3.129a70.488 70.488 0 0 1 3.047-2.48 69.18 69.18 0 0 0 6.305-5.497 413.383 413.383 0 0 0 4.773-4.837 335.59 335.59 0 0 0 4.658-4.841 55.385 55.385 0 0 1 2.734-2.748 20.098 20.098 0 0 1 2.563-2.051 60.747 60.747 0 0 1 2.663-1.665 112.151 112.151 0 0 0 6.463-4.136 320.281 320.281 0 0 1 3.698-2.499 145.673 145.673 0 0 1 3.82-2.458 166.92 166.92 0 0 0 3.857-2.472 42.273 42.273 0 0 0 3.642-2.693 49.486 49.486 0 0 0 3.323-3.01 102.707 102.707 0 0 0 3.212-3.34 85.745 85.745 0 0 0 3.14-3.608 57.438 57.438 0 0 0 2.819-3.716 80.59 80.59 0 0 0 2.372-3.608 32.169 32.169 0 0 0 1.895-3.535 27.112 27.112 0 0 0 1.411-3.882c.395-1.394.724-2.754.987-4.077.262-1.324.44-2.507.535-3.547.094-1.04.132-2.02.114-2.94a10.004 10.004 0 0 0-.463-2.777 26.63 26.63 0 0 0-1.05-2.8c-.409-.934-.859-1.843-1.349-2.726a12.049 12.049 0 0 0-1.635-2.307c-.6-.655-1.24-1.219-1.92-1.69a7.091 7.091 0 0 0-2.282-1.037 12.537 12.537 0 0 0-2.732-.379c-.979-.033-2.004-.04-3.074-.017-1.07.022-2.179.061-3.326.117-1.148.056-2.364.106-3.65.15-1.285.046-2.59.103-3.913.173-1.324.07-2.71.167-4.159.292-1.448.126-2.954.241-4.517.347-1.563.105-3.16.189-4.79.25-1.63.062-4.871.096-9.723.103-4.852.007-8.838.024-11.958.05-3.12.027-5.454.042-7.001.043a85.07 85.07 0 0 1-4.51-.113 175.596 175.596 0 0 1-4.398-.286 72.272 72.272 0 0 0-4.505-.207 734.582 734.582 0 0 0-8.714-.038c-4.282-.003-7.064-.024-8.346-.063-1.282-.04-2.558-.095-3.83-.166-1.27-.072-2.536-.136-3.796-.195a52.021 52.021 0 0 1-3.794-.315 31.473 31.473 0 0 1-3.63-.645c-1.153-.278-2.128-.574-2.928-.89-.8-.316-1.74-.833-2.82-1.55-1.08-.718-1.955-1.46-2.627-2.228a9.4 9.4 0 0 1-1.582-2.49 9.24 9.24 0 0 1-.71-2.812 14.93 14.93 0 0 1 .026-2.985c.108-1.006.37-2.032.787-3.078.417-1.046.95-2.108 1.598-3.186a24.643 24.643 0 0 1 2.273-3.161 62.584 62.584 0 0 1 2.634-2.94 145.82 145.82 0 0 1 2.688-2.739 55.61 55.61 0 0 0 2.79-2.998 45.768 45.768 0 0 0 2.783-3.554 93.119 93.119 0 0 0 2.392-3.529 39.381 39.381 0 0 0 1.72-2.917c.451-.858.772-1.647.963-2.364a10.3 10.3 0 0 0 .148-4.623 31.6 31.6 0 0 0-.572-2.486 16.005 16.005 0 0 0-.786-2.259 10.009 10.009 0 0 0-1.086-1.884c-.427-.58-.91-1.176-1.452-1.787-.54-.611-1.114-1.276-1.72-1.994a31.248 31.248 0 0 1-1.75-2.29 23.297 23.297 0 0 1-1.5-2.458 75.925 75.925 0 0 1-1.171-2.315 48.93 48.93 0 0 1-.926-2.026 11.085 11.085 0 0 1-.626-1.92 9.955 9.955 0 0 1-.24-1.986 7.856 7.856 0 0 1 .232-2.052c.169-.686.434-1.399.794-2.139.36-.74.794-1.488 1.301-2.245a22.159 22.159 0 0 1 1.844-2.356 37.189 37.189 0 0 1 2.414-2.465 95.318 95.318 0 0 1 2.945-2.633 78.568 78.568 0 0 0 3.253-2.967 281.062 281.062 0 0 0 3.303-3.233 77.825 77.825 0 0 1 3.35-3.146 38.598 38.598 0 0 1 3.354-2.662 46.26 46.26 0 0 1 3.252-2.099c1.056-.617 2.11-1.213 3.164-1.788" style="fill:none;stroke:#90d300;stroke-width:1.55905;stroke-linecap:round;stroke-linejoin:round;stroke-miterlimit:10;stroke-dasharray:none;stroke-opacity:1" transform="matrix(.72727 0 0 .72727 -164.091 -249.184)"/><path d="M425.732 513.436c.142.192.25.45.323.775.075.324.142.753.204 1.287.062.534.112 1.173.151 1.917.04.743.063 1.572.07 2.485a44.441 44.441 0 0 1-.303 5.517l-.456 3.887M425.575 514.751a8.332 8.332 0 0 0-1.306.035c-.264.03-.57.078-.914.144-.344.066-.666.133-.966.199-.3.066-.983.227-2.047.483-1.065.255-1.865.442-2.4.56a59.14 59.14 0 0 1-1.624.335c-.547.105-1.092.206-1.635.303-.543.097-1.075.2-1.597.313-.521.112-1.044.219-1.567.32a47.693 47.693 0 0 1-3.334.523c-.618.075-1.67.162-3.158.261s-2.61.157-3.367.175c-.756.018-1.524.016-2.303-.005a23.414 23.414 0 0 1-2.354-.184 31.92 31.92 0 0 1-4.966-1.038 42.064 42.064 0 0 1-2.604-.851c-1.239-.45-2.948-1.254-5.13-2.413" style="fill:none;stroke:#a35c00;stroke-width:1.55905;stroke-linecap:round;stroke-linejoin:round;stroke-miterlimit:10;stroke-dasharray:none;stroke-opacity:1" transform="matrix(.72727 0 0 .72727 -164.091 -249.184)"/><path d="M424.195 531.362a12.896 12.896 0 0 1-2.381-.489 23.61 23.61 0 0 1-1.278-.444 78.255 78.255 0 0 0-1.187-.443c-.403-.148-.816-.29-1.238-.428a35.45 35.45 0 0 0-1.873-.532c-.828-.217-1.456-.382-1.885-.496-.428-.114-.856-.23-1.285-.347-.428-.118-.86-.225-1.298-.323a38.466 38.466 0 0 0-1.379-.281c-.482-.09-.944-.164-1.387-.223-.442-.058-.86-.102-1.253-.132-.392-.029-.79-.045-1.19-.048-.401-.003-.83-.001-1.289.006-.458.007-.924.016-1.398.026-.474.01-.982.018-1.524.022a22.723 22.723 0 0 1-1.481-.033 86.87 86.87 0 0 1-2.306-.185c-1.092-.098-1.89-.17-2.395-.217-.505-.047-1.008-.1-1.51-.158a13.29 13.29 0 0 1-1.573-.285 18.381 18.381 0 0 1-1.7-.501 21.225 21.225 0 0 1-1.748-.693 9.087 9.087 0 0 1-1.622-.935 9.855 9.855 0 0 1-1.526-1.406 13.98 13.98 0 0 1-1.428-1.902 14.922 14.922 0 0 1-1.049-1.942c-.262-.6-.438-1.025-.528-1.275-.09-.249-.164-.477-.226-.684-.061-.208-.14-.52-.235-.935a13.444 13.444 0 0 1-.218-1.17c-.05-.363-.08-.634-.093-.813-.017-.256-.01-.9.022-1.93M426.948 529.815a30.89 30.89 0 0 1 1.575-.082 88.101 88.101 0 0 1 2.838-.046 51.404 51.404 0 0 0 2.298-.04 9.343 9.343 0 0 0 1.344-.183c.48-.098.968-.215 1.463-.351.496-.136.963-.289 1.4-.458.438-.17.865-.394 1.28-.673a7.23 7.23 0 0 0 1.214-1.043 12.58 12.58 0 0 0 1.081-1.309c.328-.456.591-.886.79-1.29.2-.403.435-.984.706-1.74a33.63 33.63 0 0 0 .692-2.136c.19-.666.382-1.263.576-1.79.195-.529.377-.96.547-1.294a7.65 7.65 0 0 1 .535-.908M426.817 513.807c.55.144 1.087.265 1.61.362.351.065.873.144 1.565.238.692.093 1.47.195 2.332.306.863.11 1.505.197 1.926.258.42.062.872.12 1.355.172.482.052 1.002.09 1.558.11.556.023 1.379.035 2.468.037 1.09.002 1.83-.008 2.223-.03.577-.034 1.224-.238 1.943-.612M382.844 511.777c-.186.051-.321.068-.404.05-.057-.012.045-.116.305-.312.26-.195.641-.454 1.146-.777a17.42 17.42 0 0 1 1.647-.926 74.887 74.887 0 0 1 4.264-1.946c.857-.36 1.81-.725 2.86-1.093a70.37 70.37 0 0 1 3.326-1.07c1.167-.345 2.398-.69 3.693-1.037a65.685 65.685 0 0 1 4.126-.955 44.484 44.484 0 0 1 4.478-.653 40.857 40.857 0 0 1 4.698-.17c1.603.032 3.258.2 4.964.5 1.706.302 3.375.689 5.005 1.16s3.226.99 4.79 1.555a62.34 62.34 0 0 1 4.629 1.887c2.227 1.014 5.34 2.517 9.34 4.51" style="fill:none;stroke:#a35c00;stroke-width:1.55905;stroke-linecap:round;stroke-linejoin:round;stroke-miterlimit:10;stroke-dasharray:none;stroke-opacity:1" transform="matrix(.72727 0 0 .72727 -164.091 -249.184)"/><path d="M402.586 512.955a1.111 1.111 0 0 1 .016-.368c.027-.137.11-.35.248-.64.139-.288.35-.668.632-1.138.282-.47.625-.99 1.029-1.562a59.46 59.46 0 0 1 1.327-1.803c.482-.631 1.152-1.414 2.01-2.35.859-.934 1.543-1.603 2.053-2.006a21.725 21.725 0 0 1 2.491-1.692M411.993 500.854c-.388-.946-.654-1.669-.8-2.168-.1-.342-.217-.8-.353-1.376l-.437-1.85a68.906 68.906 0 0 1-.765-3.665c-.123-.698-.174-1.557-.15-2.576M423.512 512.733a36.296 36.296 0 0 1-.58-1.686c-.112-.354-.23-.726-.356-1.116-.125-.39-.274-.88-.446-1.474s-.356-1.243-.552-1.95a93.315 93.315 0 0 1-.542-2.04 40.263 40.263 0 0 0-.83-2.846M420.309 500.707c-.436-.444-.758-.81-.965-1.095-.142-.195-.41-.55-.803-1.065a75.622 75.622 0 0 1-1.11-1.49 69.43 69.43 0 0 0-1.056-1.417 25.245 25.245 0 0 1-.966-1.347c-.42-.63-.912-1.58-1.48-2.85M412.259 489.266c-.028-.293-.004-.768.068-1.424a200.186 200.186 0 0 0 .313-3.05l.201-2.068c.075-.768.157-1.517.244-2.248.087-.73.196-1.437.328-2.12.131-.683.3-1.353.506-2.008.306-.973.733-2.015 1.282-3.127M418.797 467.272c.053-.2.078-.415.074-.646-.004-.232-.054-.387-.151-.467a.861.861 0 0 0-.394-.168 3.167 3.167 0 0 0-.542-.052 1.132 1.132 0 0 0-.601.18c-.205.122-.399.324-.582.605-.183.28-.312.642-.387 1.085a4.21 4.21 0 0 0-.01 1.348c.07.456.23.84.482 1.155.253.315.43.51.531.588.102.078.201.138.297.179.096.041.191.074.284.098.094.024.19.038.292.044.102.005.297-.023.586-.086.29-.062.503-.133.641-.212.139-.08.3-.2.487-.362.187-.162.322-.294.408-.395.085-.101.161-.203.229-.306.068-.103.177-.39.327-.861a3.67 3.67 0 0 0 .187-1.33 1.74 1.74 0 0 0-.41-1.06 3.356 3.356 0 0 0-.826-.707c-.444-.266-1.044-.346-1.802-.242M417.86 476.341c-.087.003-.122.01-.105.023l.09.068c.05.036.26.113.631.23.372.116.73.221 1.074.314.5.134 1.351.286 2.554.455M422.781 476.791a6.077 6.077 0 0 1 .275-1.868c.127-.415.308-.914.543-1.496.34-.842 1.151-2.304 2.435-4.386M409.852 474.486c-.413-.32-.784-.538-1.114-.655a6.56 6.56 0 0 0-.773-.216c-.291-.064-.607-.136-.949-.215a10.83 10.83 0 0 1-1.385-.41M405.064 472.48l-.166.196c-.007.008-.004-.002.008-.03l.162-.375c.096-.221.27-.665.525-1.332.368-.964 1.089-2.801 2.162-5.513M408.053 461.237c.062-.302.142-.486.238-.55a.4.4 0 0 1 .191-.075c.06-.005.12.023.179.082a.52.52 0 0 1 .128.261c.025.116.04.22.042.315a.68.68 0 0 1-.085.32.644.644 0 0 1-.283.281c-.129.069-.27.117-.421.143-.152.026-.29.036-.415.028-.125-.007-.212-.062-.261-.166a.746.746 0 0 1-.046-.404c.018-.167.07-.33.155-.488.085-.159.178-.285.28-.377a.633.633 0 0 1 .306-.168.543.543 0 0 1 .553.24c.06.097.095.207.105.33a.528.528 0 0 1-.11.356.589.589 0 0 1-.339.23c-.203.053-.34-.228-.411-.842M427.778 464.869a1.297 1.297 0 0 1-.07-.51c.007-.117.031-.193.07-.228.04-.036.093-.01.158.077a.558.558 0 0 1 .113.287c.01.104.005.21-.014.32a.514.514 0 0 1-.16.29.718.718 0 0 1-.295.173 1.054 1.054 0 0 1-.329.043.41.41 0 0 1-.281-.115.603.603 0 0 1-.163-.262c-.031-.1-.048-.2-.051-.299a.392.392 0 0 1 .079-.258.553.553 0 0 1 .227-.171c.095-.041.2-.072.316-.092.116-.021.229-.032.34-.034a.64.64 0 0 1 .258.036c.061.027.118.076.171.148a.452.452 0 0 1 .092.214.298.298 0 0 1-.224.336.444.444 0 0 1-.248.009c-.079-.021-.152-.103-.22-.245a.6.6 0 0 1 .046-.618M402.241 514.65c-.25.119-.337.21-.263.273.053.046.174.076.363.092.27.023 1.217.069 2.84.138M419.508 513.75h-.086c-.004 0 .003-.004.02-.01l.21-.085c.123-.05.253-.095.39-.137.137-.043.318-.104.544-.184.226-.08.391-.14.496-.182.15-.06.731-.213 1.743-.461" style="fill:none;stroke:#ff21b3;stroke-width:1.55905;stroke-linecap:round;stroke-linejoin:round;stroke-miterlimit:10;stroke-dasharray:none;stroke-opacity:1" transform="matrix(.72727 0 0 .72727 -164.091 -249.184)"/><path d="m398.149 454.252-.05.104c-.002.005-.003.002-.003-.008l.003-.116c.002-.067.017-.197.045-.39.027-.193.064-.46.108-.805.045-.343.094-.882.146-1.616.053-.733.123-1.621.21-2.664.087-1.043.173-2.085.255-3.127.083-1.042.162-2.005.236-2.888.11-1.31.247-2.797.412-4.462M438.966 461.082c-.074.03-.075-.304-.002-1 .073-.695.157-1.374.253-2.037.095-.663.248-1.497.46-2.503.211-1.005.468-2.034.77-3.086.3-1.051.572-2.022.813-2.911.36-1.324.613-2.77.762-4.338" style="fill:none;stroke:#8e8e8e;stroke-width:1.37392;stroke-linecap:round;stroke-linejoin:round;stroke-miterlimit:10;stroke-dasharray:none;stroke-opacity:1" transform="matrix(.72727 0 0 .72727 -164.091 -249.184)"/><path d="M408.139 440.621c-.046.052-.09.251-.13.598l-.157 1.337a63.648 63.648 0 0 1-.261 1.897c-.109.72-.231 1.49-.368 2.312-.137.821-.267 1.607-.388 2.356-.122.748-.222 1.384-.301 1.907-.079.523-.127.933-.145 1.23-.017.296.057.496.222.599M411.58 445.498c-.04.069-.13.08-.274.037-.099-.03-.159-.09-.18-.177-.021-.087-.022-.24-.002-.459.02-.218.079-.479.176-.781.097-.303.256-.626.477-.968.222-.342.49-.672.802-.99.313-.32.599-.542.857-.667.258-.126.473-.151.645-.077.172.075.283.27.331.587.049.316.052.665.01 1.048-.04.383-.1.759-.177 1.129-.077.37-.165.72-.264 1.051a9.665 9.665 0 0 1-.536 1.414c-.066.134.04.155.318.062s.57-.153.877-.179a2.93 2.93 0 0 1 .92.068c.306.07.568.214.787.43.218.215.39.485.514.812.124.326.194.68.21 1.062.017.382-.014.76-.09 1.132-.078.372-.252.765-.523 1.18a5.03 5.03 0 0 1-1.038 1.137c-.421.345-.857.568-1.308.671-.646.148-1.353-.292-2.12-1.32M420.417 446.997c-.062.01-.144-.146-.246-.469a2.412 2.412 0 0 1-.1-.988c.035-.335.095-.643.179-.921.084-.279.209-.562.374-.85a3.42 3.42 0 0 1 .54-.725c.194-.194.39-.32.586-.374a.655.655 0 0 1 .548.076c.169.105.289.306.36.603.073.296.105.636.098 1.017-.007.382-.03.75-.069 1.105-.039.355-.077.666-.116.933-.038.267-.072.473-.102.616-.03.144-.053.235-.068.272a28.29 28.29 0 0 1-.02.055c.001-.004.023-.04.063-.112.041-.07.128-.162.26-.275.132-.113.291-.189.477-.228a1.31 1.31 0 0 1 .62.035c.228.063.452.208.672.436.22.227.409.512.567.854.157.341.269.71.334 1.107a4.829 4.829 0 0 1-.336 2.656 5.715 5.715 0 0 1-.825 1.355 5.03 5.03 0 0 1-1.17 1.074c-.428.279-.823.44-1.184.486-.515.064-.994-.475-1.437-1.617M428.414 450.263c-.055.043-.071-.24-.047-.847.023-.608.09-1.29.198-2.049.109-.758.183-1.28.223-1.567.04-.287.063-.642.073-1.063.009-.42-.01-.74-.057-.958-.046-.217-.105-.355-.175-.413-.07-.058-.131-.062-.182-.013-.05.05-.073.177-.066.382.006.205.07.48.19.826.122.345.285.698.491 1.057.206.359.496.686.868.98.373.296.778.53 1.217.701a6.34 6.34 0 0 0 1.367.366 4.74 4.74 0 0 0 1.327.028c.411-.053.758-.16 1.04-.318.283-.16.49-.344.62-.554.132-.21.182-.416.15-.618-.03-.203-.152-.378-.363-.527-.212-.148-.487-.227-.825-.236-.337-.01-.693.11-1.065.357s-.702.604-.988 1.071c-.286.466-.541 1.034-.766 1.701a25.96 25.96 0 0 0-.638 2.277c-.2.85-.391 1.707-.572 2.57a39.02 39.02 0 0 0-.406 2.217c-.141.953-.118 1.682.068 2.187" style="fill:none;stroke:#000;stroke-width:1.37392;stroke-linecap:round;stroke-linejoin:round;stroke-miterlimit:10;stroke-dasharray:none;stroke-opacity:1" transform="matrix(.72727 0 0 .72727 -164.091 -249.184)"/><path d="M399.777 437.74c.692.018 1.376.029 2.052.032.451.002.907-.007 1.367-.028.46-.021.994-.05 1.604-.086.61-.036 1.243-.064 1.9-.086.658-.021 1.352-.025 2.08-.011.729.013 1.475.04 2.24.078.765.04 1.54.095 2.324.169.784.074 1.58.163 2.39.267.809.104 2.16.293 4.052.567 1.892.274 3.316.481 4.271.623.955.142 1.867.286 2.735.432.868.147 1.725.316 2.571.51.846.192 1.693.404 2.538.634a43.9 43.9 0 0 1 2.505.761c.824.278 1.668.582 2.533.913 1.26.482 3.098 1.334 5.514 2.556M398.44 454.411a.181.181 0 0 0-.182.035c-.036.03-.014.078.066.143.08.065.235.138.464.22.229.081.49.157.785.226.295.07.618.14.969.209l1.19.24c.442.092.92.189 1.432.29.512.103 1.06.22 1.646.35.586.131 1.181.274 1.787.427a96.374 96.374 0 0 1 3.774 1.043c.644.193 1.323.385 2.038.578a46.61 46.61 0 0 0 4.66.998c.826.134 1.664.263 2.513.388.85.124 1.681.235 2.496.332.814.098 1.644.187 2.489.27.845.082 1.716.155 2.614.219.898.063 1.796.113 2.694.148.899.036 1.802.067 2.71.095.908.028 1.782.072 2.624.133.842.06 1.616.138 2.323.231" style="fill:none;stroke:#8e8e8e;stroke-width:1.37392;stroke-linecap:round;stroke-linejoin:round;stroke-miterlimit:10;stroke-dasharray:none;stroke-opacity:1" transform="matrix(.72727 0 0 .72727 -164.091 -249.184)"/><path d="M250.61 635.223c.172-.775.39-1.483.654-2.124s.506-1.148.724-1.52c.22-.372.469-.715.748-1.03.28-.314.595-.592.945-.833s.964-.547 1.841-.918c.878-.37 2.476-.889 4.793-1.555 2.317-.666 3.802-1.124 4.457-1.372.654-.25 1.25-.528 1.786-.836a6.735 6.735 0 0 0 1.454-1.118c.432-.438.82-.957 1.164-1.556.345-.6.591-1.12.74-1.56.15-.44.287-1.042.412-1.807.124-.765.203-1.588.235-2.467.032-.879.048-2.55.048-5.01 0-2.463.008-4.637.024-6.524.016-1.886.05-3.392.105-4.517.054-1.126.125-2.018.212-2.677.086-.66.203-1.308.348-1.946.146-.638.333-1.23.563-1.777a8.81 8.81 0 0 1 .763-1.451c.278-.42.586-.81.923-1.17.337-.36.827-.733 1.469-1.121.642-.388 1.191-.672 1.649-.853.457-.181 1.041-.355 1.752-.523a39.09 39.09 0 0 1 2.184-.45 54.813 54.813 0 0 1 2.258-.35 37.94 37.94 0 0 0 2.711-.484c1.049-.22 1.928-.463 2.637-.726.71-.263 1.267-.505 1.67-.726.404-.22.77-.469 1.097-.744.327-.275.678-.683 1.055-1.224a9.626 9.626 0 0 0 .99-1.847c.284-.69.523-1.426.716-2.205.194-.78.358-1.616.493-2.511s.255-1.975.361-3.242c.106-1.266.237-3.281.393-6.046.156-2.765.298-4.648.426-5.65.128-1.002.29-1.833.487-2.494.197-.66.425-1.242.682-1.744.258-.502.548-.941.87-1.317a6.962 6.962 0 0 1 1.078-1.014c.396-.3.828-.57 1.297-.81.469-.24.96-.437 1.475-.591.514-.154 1.383-.333 2.605-.537a117.7 117.7 0 0 1 3.215-.495c.92-.127 1.804-.264 2.652-.41.848-.148 1.66-.342 2.438-.582a6.624 6.624 0 0 0 2.1-1.077c.622-.478 1.15-1.112 1.583-1.901.433-.79.75-1.717.954-2.782.203-1.065.322-2.294.356-3.687.034-1.393.073-2.865.116-4.416.044-1.55.167-2.995.371-4.333.204-1.339.415-2.346.632-3.022.217-.676.457-1.26.718-1.752.261-.491.621-1.043 1.08-1.654a18.4 18.4 0 0 1 1.458-1.718 20.007 20.007 0 0 1 1.852-1.674c.721-.582 1.398-1.043 2.03-1.384a12.819 12.819 0 0 1 2.027-.872c.718-.24 1.86-.537 3.426-.894 1.567-.356 2.572-.614 3.018-.774.446-.16.946-.423 1.5-.786.556-.364 1.088-.893 1.596-1.587s.887-1.293 1.137-1.798c.25-.504.508-1.167.776-1.987.268-.82.485-1.568.65-2.243a49.46 49.46 0 0 0 .538-2.54c.192-1.018.364-2.08.514-3.184.15-1.104.306-2.444.468-4.019.162-1.575.345-3.134.549-4.68.204-1.544.495-3.024.875-4.44.38-1.416.736-2.502 1.069-3.259.333-.756.655-1.382.965-1.877.311-.495.753-1.065 1.328-1.708.574-.644 1.089-1.146 1.545-1.505.455-.359.932-.7 1.43-1.022a15.844 15.844 0 0 1 1.853-1.005 25.253 25.253 0 0 1 1.88-.808 55.723 55.723 0 0 1 2.47-.82 60.707 60.707 0 0 0 2.478-.819c.52-.191 1.453-.65 2.795-1.377 1.343-.727 2.263-1.313 2.761-1.756.499-.443 1.03-1.419 1.593-2.927a17.027 17.027 0 0 0 1.029-4.723 72.11 72.11 0 0 0 .184-5.317c0-1.905-.02-3.736-.06-5.495a70.027 70.027 0 0 1 .055-4.977c.076-1.559.303-2.922.681-4.089.379-1.167.893-2.114 1.544-2.841.65-.727 1.44-1.3 2.37-1.72.928-.421 1.917-.757 2.965-1.009a91.284 91.284 0 0 1 3.145-.697 30.989 30.989 0 0 0 2.97-.75 12.126 12.126 0 0 0 2.691-1.211c.864-.52 1.663-1.218 2.4-2.094.737-.875 1.394-1.962 1.972-3.26a31.06 31.06 0 0 0 1.515-4.257 57.07 57.07 0 0 0 1.13-4.89c.322-1.722.66-3.447 1.01-5.175a48.88 48.88 0 0 1 1.218-4.804c.46-1.475.999-2.798 1.615-3.969.617-1.17 1.335-2.187 2.155-3.05.82-.861 1.842-1.54 3.067-2.037 1.226-.496 2.604-.822 4.135-.978a84.978 84.978 0 0 1 4.36-.338 28.062 28.062 0 0 0 3.807-.432 12.126 12.126 0 0 0 3.173-1.044 9.025 9.025 0 0 0 2.55-1.898c.745-.789 1.388-1.782 1.927-2.978.54-1.197 1.01-2.559 1.411-4.087M287.06 634.83c1.007-.565 1.828-1.115 2.461-1.65.634-.536 1.062-.929 1.285-1.18.223-.25.578-.855 1.065-1.813s.888-2.082 1.202-3.374c.314-1.291.574-2.685.779-4.182.205-1.497.45-3.82.736-6.97s.55-5.462.792-6.937c.242-1.475.58-2.832 1.016-4.072.435-1.24 1-2.32 1.697-3.238a12.957 12.957 0 0 1 2.444-2.456 16.897 16.897 0 0 1 3.114-1.884c1.143-.538 2.243-1 3.301-1.385a47.319 47.319 0 0 1 3.26-1.055c1.115-.317 2.268-.65 3.457-1.002a24.84 24.84 0 0 0 3.476-1.316 14.955 14.955 0 0 0 3.059-1.888 12.117 12.117 0 0 0 2.418-2.64c.702-1.027 1.28-2.231 1.735-3.61.455-1.38.82-2.89 1.093-4.531.273-1.64.536-3.327.789-5.06a317.9 317.9 0 0 1 .815-5.27c.29-1.782.642-3.46 1.056-5.035a36.23 36.23 0 0 1 1.462-4.428 46.025 46.025 0 0 1 1.822-3.95 43.426 43.426 0 0 1 2.017-3.485 31.428 31.428 0 0 1 2.156-2.959 16.57 16.57 0 0 1 2.41-2.39 13.045 13.045 0 0 1 2.87-1.736c1.056-.47 2.195-.88 3.418-1.23a92.847 92.847 0 0 0 3.395-1.039c1.04-.342 1.957-.775 2.752-1.301a7.647 7.647 0 0 0 2.007-1.924c.544-.757.983-1.69 1.317-2.803.334-1.111.557-2.349.67-3.712.114-1.363.177-3.705.19-7.025.012-3.32.11-5.68.296-7.083.186-1.402.507-2.691.965-3.867a20.872 20.872 0 0 1 1.533-3.176c.565-.94 1.18-1.804 1.847-2.59.667-.786 1.205-1.369 1.613-1.748.409-.38.795-.69 1.158-.931.363-.24.922-.553 1.677-.937a54.268 54.268 0 0 1 2.323-1.113c.794-.357 1.582-.78 2.366-1.266a10.607 10.607 0 0 0 2.212-1.86 15.475 15.475 0 0 0 1.897-2.58 69.73 69.73 0 0 0 1.644-2.93 149.88 149.88 0 0 0 1.5-2.902c.476-.95.938-1.919 1.385-2.906.447-.987 1.092-2.606 1.935-4.857.844-2.25 1.546-3.934 2.106-5.05.56-1.114 1.368-2.172 2.421-3.173 1.054-1 2.312-1.884 3.774-2.65 2.11-1.107 4.395-4.265 6.856-9.475M419.962 426.49c-.168.269-.165.641.007 1.118l.276.763c.01.031.015.038.01.02l-.091-.429c-.058-.269-.204-.703-.438-1.302a14.246 14.246 0 0 1-.584-1.866 10.017 10.017 0 0 1-.276-1.684 3.48 3.48 0 0 1 .19-1.385c.157-.445.43-.944.819-1.495a8.84 8.84 0 0 1 1.399-1.544 13.931 13.931 0 0 1 1.872-1.37 15.713 15.713 0 0 1 2.48-1.218 69.362 69.362 0 0 1 2.98-1.098 12.811 12.811 0 0 0 2.95-1.462 9.191 9.191 0 0 0 2.407-2.357 13.29 13.29 0 0 0 1.636-3.11c.412-1.118.76-2.358 1.04-3.72.28-1.36.542-2.866.784-4.517M313.399 634.787c2.612-.41 4.469-.745 5.57-1.006 1.102-.26 2.046-.576 2.833-.946.786-.37 1.418-.867 1.896-1.489.477-.622.84-1.39 1.087-2.304.248-.914.39-2.026.43-3.338.038-1.312-.08-3.485-.354-6.518-.274-3.032-.433-5.297-.475-6.793a40.524 40.524 0 0 1 .07-4.083c.09-1.226.325-2.333.704-3.32.38-.986.789-1.794 1.226-2.425.437-.63 1.167-1.402 2.19-2.313 1.023-.91 2.034-1.666 3.033-2.264.998-.598 2.53-1.378 4.597-2.34 2.066-.96 3.587-1.716 4.565-2.266a14.385 14.385 0 0 0 2.67-1.927c.802-.734 1.49-1.55 2.062-2.446a12.67 12.67 0 0 0 1.383-2.977c.348-1.088.593-2.305.733-3.65.14-1.345.218-2.743.232-4.192a68.044 68.044 0 0 0-.097-4.344c-.078-1.447-.127-2.84-.147-4.181-.019-1.34.01-2.335.09-2.984.078-.649.2-1.207.367-1.674.167-.467.458-1.064.874-1.79s.902-1.39 1.46-1.996a19.043 19.043 0 0 1 1.52-1.495c.455-.392 1.16-.813 2.117-1.264.957-.45 1.891-.797 2.804-1.041.912-.245 1.82-.512 2.723-.803a14.98 14.98 0 0 0 2.547-1.08c.795-.43 1.588-1.011 2.378-1.744.791-.733 1.348-1.33 1.671-1.79.324-.46.668-1.071 1.034-1.834.365-.763.673-1.594.924-2.493.25-.9.423-2.401.52-4.504.096-2.103.272-3.502.527-4.197.255-.695.669-1.237 1.241-1.626.573-.389 1.293-.682 2.16-.88.867-.2 1.585-.365 2.153-.499a17.71 17.71 0 0 0 1.593-.449c.492-.166 1.181-.51 2.066-1.034 1.26-.745 2.044-5.005 2.352-12.782M395.908 497.376c-.371.275-.875-.134-1.511-1.228-.637-1.093-1.09-1.94-1.36-2.542-.27-.601-.445-1.104-.526-1.509-.08-.404-.045-.706.106-.906.151-.2.634-.367 1.448-.501a6.582 6.582 0 0 0 2.27-.814c.7-.409 1.241-.745 1.622-1.01.38-.264.709-.595.987-.994.277-.399.457-.91.538-1.536.082-.625.127-1.34.135-2.144a28.58 28.58 0 0 1 .091-2.126c.053-.612.174-1.103.365-1.47.272-.525 2.09-1.742 5.454-3.652M441.926 432.36c.096.2.016.445-.242.732-.175.195-.34.317-.496.366-.156.05-.332-.039-.529-.264-.196-.224-.404-.561-.623-1.01-.219-.447-.432-.98-.64-1.598a16.642 16.642 0 0 1-.521-1.953 12.541 12.541 0 0 1-.253-1.768c-.028-.495.076-.853.312-1.074.237-.222.693-.337 1.37-.347.676-.01 1.48.085 2.411.285.932.2 1.876.342 2.833.427.957.086 1.849.113 2.675.08.825-.031 1.566-.242 2.221-.63.656-.388 1.202-.974 1.638-1.758.437-.784.763-1.798.98-3.044a42.96 42.96 0 0 0 .497-4.094c.113-1.483.235-3.048.366-4.696.131-1.647.343-3.139.636-4.474.292-1.336.705-2.443 1.24-3.321.533-.878 1.186-1.58 1.958-2.107a13.985 13.985 0 0 1 2.492-1.347c.889-.372 1.954-.737 3.194-1.095M350.238 633.59a6.25 6.25 0 0 0 1.805-2.07c.46-.837.818-1.895 1.078-3.174.26-1.28.442-2.761.548-4.444.106-1.684.21-3.368.312-5.05.102-1.684.238-3.408.408-5.173.17-1.764.397-3.406.682-4.926.284-1.519.693-2.846 1.226-3.98a9.978 9.978 0 0 1 2.056-2.93 12.192 12.192 0 0 1 2.738-2.025c.987-.532 1.968-.999 2.942-1.4.975-.4 2.345-.936 4.112-1.607 1.767-.671 3.061-1.216 3.883-1.635.822-.42 1.507-.836 2.054-1.25.547-.415 1.116-1.084 1.709-2.01a9.382 9.382 0 0 0 1.248-2.91c.24-1.015.443-1.992.61-2.932.166-.94.392-2.07.677-3.387a63.29 63.29 0 0 1 .685-2.925c.172-.632.487-1.526.946-2.683.458-1.156.897-2.078 1.316-2.767a9.057 9.057 0 0 1 1.41-1.793c.52-.507 1.1-.992 1.736-1.456a55.378 55.378 0 0 1 1.927-1.343 38.085 38.085 0 0 0 1.848-1.308c.584-.44 1.137-.943 1.66-1.507a8.107 8.107 0 0 0 1.3-1.864c.343-.68.652-1.386.926-2.12.274-.735.484-1.557.631-2.467.147-.909.248-1.888.303-2.936.054-1.05.171-2.052.35-3.008.18-.956.45-1.754.814-2.394.363-.64.809-1.091 1.338-1.353a6.298 6.298 0 0 1 1.75-.553c.638-.107 1.267-.24 1.887-.398a6.031 6.031 0 0 0 1.702-.716c.734-.455 1.494-2.995 2.279-7.621M436.329 499.373c.055.33.024.614-.093.854-.08.164-.335-.151-.765-.945a16.358 16.358 0 0 1-1.133-2.667 16.876 16.876 0 0 1-.695-2.963c-.138-.99-.227-1.98-.266-2.968-.04-.988-.01-1.937.093-2.846.101-.91.37-1.689.805-2.337a3.86 3.86 0 0 1 1.735-1.43 7.226 7.226 0 0 1 2.368-.543c.856-.055 2.268-.086 4.236-.092 1.967-.006 3.305-.11 4.011-.31.707-.2 1.288-.556 1.744-1.068.456-.511.806-1.185 1.051-2.022.245-.837.4-1.656.465-2.456.064-.8.1-2.789.107-5.965.007-3.177.045-5.417.113-6.72.068-1.302.204-2.436.408-3.402.204-.966.49-1.784.858-2.454.368-.669.822-1.197 1.364-1.583.541-.386 1.22-.672 2.033-.856a16.845 16.845 0 0 1 2.556-.37c.889-.062 1.874-.158 2.954-.289 1.08-.13 1.82-.24 2.22-.329.399-.088.77-.197 1.112-.326.342-.13.656-.297.943-.502.286-.205.541-.465.766-.78.225-.316.406-.673.541-1.07.136-.398.249-.838.339-1.32.09-.482.166-1.007.228-1.575.062-.568.102-1.3.12-2.196.02-.896.057-1.915.113-3.057.056-1.141.14-2.113.252-2.914.113-.802.229-1.49.349-2.065.12-.575.297-1.22.531-1.933.234-.713.453-1.27.656-1.674a7.1 7.1 0 0 1 .718-1.142c.276-.358.664-.725 1.164-1.102.5-.376.954-.64 1.363-.79a7.272 7.272 0 0 1 1.34-.347c.484-.08 1.448-.178 2.89-.293 1.443-.116 2.53-.269 3.262-.458.731-.19 1.365-.458 1.901-.806.536-.348.954-.688 1.255-1.02.3-.334.584-.726.852-1.179.267-.452.563-1.13.888-2.032.324-.903.592-1.87.803-2.903.21-1.032.436-2.505.677-4.416.241-1.912.483-3.74.727-5.485.243-1.745.57-3.31.979-4.696.409-1.386.933-2.553 1.573-3.502.64-.95 1.376-1.697 2.21-2.243a10.089 10.089 0 0 1 2.552-1.22c.868-.267 2.292-.52 4.272-.76 1.98-.238 3.433-.497 4.357-.775M362.264 633.552a16.564 16.564 0 0 1 2.824-1.876c.98-.512 2.07-.974 3.271-1.385 1.202-.411 2.58-.73 4.138-.955a71.382 71.382 0 0 1 4.502-.514c1.444-.116 2.723-.306 3.837-.568a9.161 9.161 0 0 0 2.997-1.272c.884-.587 1.575-1.454 2.074-2.602.5-1.148.788-2.524.866-4.129.078-1.605.121-3.284.13-5.037.007-1.754.077-3.536.21-5.345.131-1.809.304-3.496.517-5.06.212-1.565.529-3.01.95-4.337a21.9 21.9 0 0 1 1.57-3.744c.626-1.169 1.317-2.184 2.072-3.046a10.9 10.9 0 0 1 2.521-2.14c.926-.566 2.046-.969 3.362-1.21a27.279 27.279 0 0 1 4.262-.417 94.739 94.739 0 0 0 4.155-.182c1.245-.085 2.32-.345 3.23-.779.908-.434 1.693-1.099 2.354-1.993.661-.895 1.185-2.045 1.57-3.449.386-1.404.724-2.86 1.016-4.368.292-1.509.619-2.923.979-4.245a72.51 72.51 0 0 1 1.172-3.875 65.381 65.381 0 0 1 1.391-3.778 21.959 21.959 0 0 1 1.696-3.387c.624-1.002 1.332-1.846 2.124-2.531a7.843 7.843 0 0 1 2.723-1.53c1.023-.335 2.157-.532 3.403-.59a521.1 521.1 0 0 1 3.611-.158c1.163-.046 2.154-.199 2.974-.457.82-.258 1.485-.64 1.992-1.144.506-.505.885-1.194 1.135-2.068.25-.873.453-2.413.606-4.617.154-2.205.327-3.794.519-4.768.192-.973.45-1.868.777-2.685.327-.818.72-1.585 1.177-2.302a8.683 8.683 0 0 1 1.61-1.883 7.566 7.566 0 0 1 2.155-1.305c.82-.333 2.108-.63 3.864-.89 1.756-.262 2.915-.564 3.478-.907.563-.343 1.01-.85 1.344-1.523.333-.673.536-1.508.61-2.505.073-.997.12-2.091.141-3.283.022-1.192.113-2.346.275-3.46.162-1.115.418-2.18.767-3.196.35-1.016.767-1.98 1.253-2.893a23.97 23.97 0 0 1 1.6-2.599 16.82 16.82 0 0 1 1.957-2.293 14.785 14.785 0 0 1 2.368-1.886c.856-.55 2.157-1.176 3.901-1.88 1.745-.702 2.984-1.315 3.718-1.84.734-.524 1.364-1.232 1.89-2.123.527-.891.876-1.967 1.049-3.227.172-1.26.267-2.71.284-4.35a174.9 174.9 0 0 0-.014-4.802c-.026-1.56.006-2.982.098-4.264.09-1.283.368-2.42.83-3.413a10.143 10.143 0 0 1 1.759-2.637 11.506 11.506 0 0 1 2.289-1.921 9.989 9.989 0 0 1 2.62-1.169c.93-.264 1.988-.449 3.17-.554a48.739 48.739 0 0 0 3.588-.454c1.21-.198 2.28-.565 3.212-1.102.93-.536 1.629-1.316 2.095-2.34.467-1.024.736-2.273.809-3.746.072-1.473.005-3.18-.201-5.121-.207-1.941-.406-3.86-.598-5.757a60.349 60.349 0 0 1-.317-5.379c-.019-1.689.116-3.27.405-4.744.29-1.474.635-2.83 1.037-4.067a31.253 31.253 0 0 1 1.301-3.373 12.634 12.634 0 0 1 1.683-2.728 10.143 10.143 0 0 1 2.422-2.127 23.894 23.894 0 0 1 3.056-1.65 15.154 15.154 0 0 0 3.035-1.822c.943-.728 1.662-1.673 2.155-2.835.494-1.162.792-2.599.895-4.311.104-1.713.048-3.685-.167-5.915-.215-2.231-.433-4.447-.654-6.649-.221-2.2-.337-4.183-.347-5.946-.01-1.764.183-3.251.581-4.464.398-1.212.93-2.192 1.594-2.94a6.467 6.467 0 0 1 2.472-1.711M409.422 636.037c.025-2.066 0-4.207-.078-6.423-.077-2.216-.14-4.378-.187-6.487-.048-2.11.006-4.14.16-6.09.155-1.952.433-3.796.834-5.535.4-1.738.972-3.304 1.717-4.699.744-1.394 1.685-2.575 2.823-3.54a15.957 15.957 0 0 1 3.87-2.41 68.803 68.803 0 0 1 4.215-1.716 150.158 150.158 0 0 0 4.168-1.604 97.617 97.617 0 0 0 4.146-1.775c1.353-.617 2.529-1.268 3.528-1.953.999-.684 1.84-1.474 2.525-2.369.685-.894 1.26-1.931 1.728-3.11.468-1.179.864-2.537 1.19-4.076.327-1.54.639-3.137.937-4.793.297-1.656.6-3.251.91-4.785.31-1.533.645-3.056 1.007-4.568a87.01 87.01 0 0 1 1.174-4.405c.421-1.425.913-2.682 1.473-3.77.561-1.087 1.23-1.997 2.004-2.729a7.768 7.768 0 0 1 2.633-1.648 12.676 12.676 0 0 1 3.193-.724 97.349 97.349 0 0 1 3.549-.288 18.776 18.776 0 0 0 3.386-.508c1.04-.261 1.924-.65 2.652-1.168a5.094 5.094 0 0 0 1.681-2.032c.392-.838.791-2.385 1.197-4.641.405-2.257.698-4.066.876-5.427.18-1.361.37-2.755.574-4.18.203-1.426.435-2.79.694-4.09.26-1.3.57-2.52.93-3.658.358-1.138.821-2.183 1.388-3.136a9.685 9.685 0 0 1 2.11-2.488c.841-.705 1.79-1.3 2.846-1.784a38.367 38.367 0 0 1 3.137-1.277c1.035-.367 1.943-.795 2.725-1.282a7.378 7.378 0 0 0 2.009-1.842c.557-.74 1.002-1.646 1.335-2.715.332-1.07.582-2.27.75-3.6a75.86 75.86 0 0 0 .395-4.009c.096-1.34.2-3.282.31-5.824.11-2.54.24-4.39.39-5.55.15-1.158.412-2.133.786-2.925.374-.792.86-1.414 1.456-1.865a9.206 9.206 0 0 1 2.078-1.164c.79-.323 1.583-.655 2.38-.994.798-.339 1.549-.759 2.253-1.259.704-.5 1.397-1.068 2.077-1.703a25.238 25.238 0 0 0 2.043-2.161 35.916 35.916 0 0 0 2.06-2.705 44.3 44.3 0 0 0 2.08-3.322 59.792 59.792 0 0 0 1.96-3.746 53.468 53.468 0 0 0 1.672-3.863c.724-1.873 1.34-5.425 1.846-10.654M434.624 637.96a32.566 32.566 0 0 1 2.939-2.172 16 16 0 0 1 3.223-1.593 92.49 92.49 0 0 1 3.59-1.234c1.208-.388 2.219-1.014 3.032-1.88.814-.864 1.3-2.145 1.462-3.84.161-1.695.083-3.631-.234-5.807a883.23 883.23 0 0 0-.96-6.421c-.323-2.105-.475-4-.455-5.685.019-1.685.242-3.164.669-4.437.427-1.274.98-2.425 1.662-3.454a12.91 12.91 0 0 1 2.399-2.716 9.903 9.903 0 0 1 3.19-1.807 26.172 26.172 0 0 1 3.89-1.016 68.052 68.052 0 0 1 3.84-.604c1.176-.148 2.22-.3 3.134-.46a7.504 7.504 0 0 0 2.486-.881c.744-.43 1.366-1.038 1.865-1.826.5-.788.88-1.786 1.144-2.995.264-1.208.422-2.65.474-4.323.052-1.673.08-3.425.086-5.254.005-1.83.054-3.56.146-5.192a32.53 32.53 0 0 1 .613-4.75c.317-1.534.783-2.89 1.4-4.066.616-1.177 1.354-2.13 2.214-2.858a8.515 8.515 0 0 1 2.932-1.62 15.666 15.666 0 0 1 3.561-.677c1.279-.101 2.547-.21 3.804-.327 1.257-.116 2.407-.36 3.45-.732 1.044-.371 1.925-.875 2.642-1.51.717-.635 1.277-1.469 1.68-2.503.402-1.034.65-2.286.745-3.757.094-1.472.147-3.76.157-6.866.01-3.106.035-5.316.075-6.63.04-1.315.215-2.437.524-3.367.31-.93.759-1.625 1.348-2.088.59-.462 1.74-.88 3.45-1.251 1.71-.373 3.008-.674 3.894-.905a27.62 27.62 0 0 0 2.618-.822 8.327 8.327 0 0 0 2.392-1.378c1.06-.866 2.621-3.157 4.684-6.873M474.14 642.835a74.077 74.077 0 0 1 4.397-2.634 120.01 120.01 0 0 1 4.285-2.259 176.326 176.326 0 0 0 3.919-2.02c1.23-.654 2.27-1.458 3.124-2.413.853-.954 1.442-2.138 1.767-3.551.325-1.413.49-3.108.497-5.083a71.284 71.284 0 0 0-.25-6.11 114.458 114.458 0 0 1-.345-6.212 54.735 54.735 0 0 1 .124-5.762c.14-1.798.43-3.378.871-4.741.442-1.363.99-2.585 1.644-3.667a12.393 12.393 0 0 1 2.316-2.822c.89-.8 1.963-1.432 3.22-1.897a27.796 27.796 0 0 1 3.911-1.124 27.264 27.264 0 0 0 3.722-1.047c1.133-.413 2.061-1.013 2.785-1.8.723-.786 1.255-1.77 1.595-2.954.34-1.184.547-2.56.621-4.127.074-1.567.086-4.025.038-7.371-.049-3.347-.055-5.712-.017-7.094.037-1.383.23-2.57.578-3.56.35-.989.833-1.74 1.453-2.252.62-.512 1.419-.853 2.399-1.023.98-.17 2.478-.265 4.496-.284 2.018-.018 3.456-.108 4.316-.268.86-.16 1.679-.46 2.457-.902.779-.441 1.44-1.082 1.982-1.921.543-.84.928-1.874 1.156-3.103a26.98 26.98 0 0 0 .415-4c.048-1.438.075-2.794.08-4.068.005-1.273.027-2.486.068-3.637.04-1.15.195-2.195.464-3.133.27-.939.69-1.708 1.262-2.31.571-.6 1.292-1.064 2.161-1.39.87-.326 1.86-.65 2.97-.975a32.074 32.074 0 0 0 3.445-1.233 14.278 14.278 0 0 0 3.334-1.978 9.518 9.518 0 0 0 2.489-2.95c.622-1.145.997-2.44 1.125-3.881.19-2.134-.023-4.504-.636-7.11M513.99 644.661a12.036 12.036 0 0 0 2.802-2.498 13.991 13.991 0 0 0 1.995-3.24c.52-1.176.958-2.467 1.316-3.874.357-1.407.647-2.912.87-4.515.224-1.602.427-3.288.609-5.057.182-1.769.42-3.487.716-5.154.295-1.667.71-3.194 1.247-4.581.537-1.387 1.177-2.59 1.921-3.609a7.81 7.81 0 0 1 2.763-2.375c1.098-.565 2.855-1.124 5.27-1.676 2.416-.553 4.147-1.049 5.193-1.487a14.426 14.426 0 0 0 3.043-1.757c.983-.732 1.821-1.674 2.516-2.824.694-1.15 1.21-2.527 1.547-4.132.337-1.605.608-3.245.813-4.92.205-1.676.405-3.295.6-4.859.193-1.563.44-3.128.739-4.693a26.126 26.126 0 0 1 1.229-4.399c.52-1.367 1.159-2.525 1.915-3.473a12.876 12.876 0 0 1 2.625-2.478 40.073 40.073 0 0 1 3.273-2.08 38.563 38.563 0 0 0 3.419-2.203 19.329 19.329 0 0 0 2.916-2.572 13.733 13.733 0 0 0 2.144-3.089 27.738 27.738 0 0 0 1.489-3.501 86.983 86.983 0 0 0 1.247-3.919c.415-1.41.79-2.922 1.122-4.537.332-1.615.655-3.149.968-4.6a28.068 28.068 0 0 1 1.153-3.99c.456-1.21 1.033-2.213 1.731-3.01a6.793 6.793 0 0 1 2.526-1.813c.985-.411 2.609-.732 4.87-.962 2.262-.23 3.914-.435 4.956-.617a20.21 20.21 0 0 0 2.994-.755c.954-.322 1.89-.7 2.81-1.132.92-.433 1.784-.93 2.595-1.489.81-.56 1.568-1.213 2.273-1.961.706-.748 1.373-1.644 2.002-2.69.912-1.514 1.811-4.278 2.696-8.29M603.084 560.673c.041.3.089.49.144.566.038.054.059-.019.063-.218.004-.199-.063-.584-.202-1.156a55.654 55.654 0 0 0-.506-1.915 28.016 28.016 0 0 1-.559-2.474 24.319 24.319 0 0 1-.354-2.85 22.106 22.106 0 0 1-.012-2.756c.054-.884.219-1.682.496-2.395.276-.713.62-1.33 1.03-1.85.411-.52.91-.959 1.494-1.32a9.853 9.853 0 0 1 1.914-.902c.691-.242 1.662-.466 2.913-.67 1.252-.206 2.154-.43 2.707-.673a5.114 5.114 0 0 0 1.53-1.053c.466-.458.94-1.012 1.42-1.66.48-.649.95-1.332 1.41-2.052.46-.719.91-1.47 1.352-2.256a71.46 71.46 0 0 0 1.349-2.519c.457-.893.943-1.863 1.459-2.908.753-1.527 2.017-3.557 3.79-6.09" style="fill:none;stroke:#239cff;stroke-width:1.55905;stroke-linecap:round;stroke-linejoin:round;stroke-miterlimit:10;stroke-dasharray:none;stroke-opacity:1" transform="matrix(.72727 0 0 .72727 -164.091 -249.184)"/><path d="m229.075 529.418.06-.233c.006-.018.013-.014.022.014l.064.2c.034.104.09.87.167 2.298.077 1.427.12 2.54.126 3.338.006.798-.007 1.53-.04 2.197-.033.666-.093 1.209-.18 1.627-.085.419-.18.697-.283.836-.102.138-.24.12-.411-.052-.172-.173-.409-.532-.71-1.077a8.756 8.756 0 0 1-.756-1.914 12.453 12.453 0 0 1-.4-2.105 7.189 7.189 0 0 1 .066-1.941 5.249 5.249 0 0 1 .622-1.73 4.471 4.471 0 0 1 1.217-1.362 3.8 3.8 0 0 1 1.702-.715c.63-.1 1.298-.124 2.004-.073.707.051 1.38.097 2.017.138.943.06 2.059.05 3.348-.025M239.756 529.412c-.13-.319-.24-.369-.328-.152-.064.158-.11.5-.14 1.023a16.64 16.64 0 0 0 .031 1.939c.05.769.166 1.534.347 2.296a10.1 10.1 0 0 0 .76 2.132c.326.66.726 1.149 1.202 1.467a1.78 1.78 0 0 0 1.552.235c.56-.162 1.08-.495 1.563-.999.482-.504.85-1.135 1.103-1.893.252-.758.423-1.488.51-2.19a10.5 10.5 0 0 0 .087-1.864 11.94 11.94 0 0 0-.329-2.261M255.938 529.218c.01-.808-.033-1.317-.126-1.527-.065-.146-.19-.265-.374-.357-.185-.092-.424-.11-.718-.054a2.913 2.913 0 0 0-.877.324c-.29.161-.552.392-.785.691-.232.3-.415.654-.546 1.063a6.035 6.035 0 0 0-.258 1.139 3 3 0 0 0 .016.92c.052.264.137.496.256.698.119.201.317.35.597.443.279.094.63.18 1.05.256.423.077.863.198 1.321.362.459.163.89.39 1.291.68.402.29.734.61.997.961.262.35.413.732.451 1.143.038.412-.073.849-.333 1.312-.26.463-.609.874-1.044 1.234-.436.36-.868.598-1.298.714-.62.168-1.261-.072-1.924-.72M265.88 524.5c.208.3.45 1.018.724 2.155.167.694.291 1.45.372 2.27.08.82.108 1.735.085 2.745-.035 1.488-.205 3.31-.51 5.465" style="fill:none;stroke:#ff21b3;stroke-width:1.49811;stroke-linecap:round;stroke-linejoin:round;stroke-miterlimit:10;stroke-dasharray:none;stroke-opacity:1" transform="matrix(.72727 0 0 .72727 -164.326 -333.391)"/><path d="M262.358 530.572c.357-.312 1.04-.535 2.048-.668 1.457-.192 4.326-.428 8.609-.707" style="fill:none;stroke:#ff21b3;stroke-width:1.49811;stroke-linecap:round;stroke-linejoin:round;stroke-miterlimit:10;stroke-dasharray:none;stroke-opacity:1" transform="matrix(.72727 0 0 .72727 -164.326 -333.391)"/><path d="M557.079 457.772c-.345.113-.409.6-.191 1.459.217.86.697 2.412 1.438 4.658a835.599 835.599 0 0 0 1.786 5.363 41.24 41.24 0 0 1 1.125 3.952c.3 1.306.483 2.464.547 3.477.063 1.012.038 1.874-.077 2.585-.115.711-.34 1.271-.673 1.68-.333.41-.803.668-1.41.776-.608.108-1.335.02-2.183-.263-.848-.283-1.675-.745-2.48-1.387-.804-.642-1.417-1.361-1.838-2.16-.422-.797-.564-1.613-.43-2.447.195-1.202 1.392-3.08 3.591-5.638M557.147 449.575l.056-.288M568.903 454.84c-.808-.67-1.396-1.011-1.764-1.024-.255-.01-.548.101-.878.331-.33.23-.625.55-.886.956-.26.407-.463.85-.607 1.328-.144.478-.166.901-.068 1.268.099.367.294.68.585.938.292.258.994.521 2.106.79 1.112.268 1.933.531 2.463.789.53.257.968.574 1.314.951.347.377.564.806.654 1.286.089.48-.05.995-.416 1.543-.366.549-.936 1.108-1.71 1.677-.775.57-1.564.929-2.368 1.078-1.177.218-2.197-.091-3.06-.927" style="fill:none;stroke:#ff21b3;stroke-width:1.53545;stroke-linecap:round;stroke-linejoin:round;stroke-miterlimit:10;stroke-dasharray:none;stroke-opacity:1" transform="matrix(.72727 0 0 .72727 -140.422 -240.844)"/><path d="M278.518 385.723c121.895-71.449 225.227-52.42 309.995 57.085" style="fill:none;stroke:#ff21b3;stroke-width:1.55905;stroke-linecap:round;stroke-linejoin:round;stroke-miterlimit:10;stroke-dasharray:none;stroke-opacity:1" transform="matrix(.72727 0 0 .72727 -164.091 -249.184)"/><path d="M576.908 441.998c.103.055.523.216 1.259.484.415.15 1.256.451 2.523.902 1.268.452 2.33.79 3.19 1.016 1.275.336 2.682.544 4.219.625" style="fill:none;stroke:#ff21b3;stroke-width:1.55905;stroke-linecap:round;stroke-linejoin:round;stroke-miterlimit:10;stroke-dasharray:none;stroke-opacity:1" transform="matrix(.72727 0 0 .72727 -163.482 -249.829)"/><path d="M589.83 444.262c.2-.205.385-.6.555-1.185.17-.584.27-1.04.304-1.366.033-.327.053-.882.06-1.665a19.344 19.344 0 0 0-.13-2.371c-.134-1.169-.396-2.762-.783-4.78" style="fill:none;stroke:#ff21b3;stroke-width:1.55905;stroke-linecap:round;stroke-linejoin:round;stroke-miterlimit:10;stroke-dasharray:none;stroke-opacity:1" transform="matrix(.72727 0 0 .72727 -164.389 -249.506)"/></svg>