<svg xmlns="http://www.w3.org/2000/svg" width="368.21" height="151.355"><path d="M181.356 373.69v.122c0 .003.004-.014.011-.052l.16-.785c.098-.487.184-1.105.259-1.855.074-.75.147-1.662.219-2.736a88.98 88.98 0 0 0 .157-3.288c.033-1.118.034-2.217.002-3.297a25.625 25.625 0 0 0-.284-3.146 293.868 293.868 0 0 1-.432-2.893c-.132-.91-.228-1.77-.29-2.582a30.866 30.866 0 0 1-.095-2.305c0-.726.065-1.368.197-1.926.132-.559.32-1.036.562-1.432.357-.581.958-1.147 1.804-1.698" style="fill:none;stroke:#f59a23;stroke-width:1.55905;stroke-linecap:round;stroke-linejoin:round;stroke-miterlimit:10;stroke-dasharray:none;stroke-opacity:1" transform="matrix(.72727 0 0 .72727 -129.036 -244.938)"/><path d="M178.204 363.001c.003-.202.111-.45.327-.744.215-.293.512-.684.891-1.173.38-.49.913-1.151 1.6-1.987 1.007-1.224 2.472-2.74 4.394-4.547M189.962 361.017a7.485 7.485 0 0 1-.464-1.733c-.068-.438-.14-.984-.213-1.64a30.13 30.13 0 0 1-.151-1.72 29.97 29.97 0 0 1-.028-2.641c.013-.33.065-.59.154-.782a.725.725 0 0 1 .4-.39c.176-.07.422-.104.736-.107.453-.003 1.337.065 2.652.204M200.584 353.593c.115-.163.146-.311.095-.443a.52.52 0 0 0-.19-.234 2.558 2.558 0 0 0-.841-.372 3.967 3.967 0 0 0-1.148-.094c-.163.012-.367.084-.613.218a2.277 2.277 0 0 0-.66.546c-.193.23-.363.525-.51.884a4.663 4.663 0 0 0-.302 1.227c-.055.459-.051.913.01 1.362.061.448.207.9.438 1.355.23.456.517.867.858 1.236.342.368.722.61 1.141.726.419.116.848.056 1.288-.18.439-.236.8-.537 1.082-.905.282-.368.552-.932.81-1.694a9.382 9.382 0 0 0 .479-2.164c.061-.68.042-1.247-.058-1.7-.1-.453-.297-.772-.59-.959-.422-.268-1.162-.272-2.221-.011M207.552 352.697c-.22.006-.34.18-.359.525-.013.242-.005.542.023.902.03.36.096.818.201 1.375a42.167 42.167 0 0 0 .746 3.23l.301 1.103.122.45.002.008-.007-.026-.21-.801a17.333 17.333 0 0 1-.306-1.365 9.14 9.14 0 0 1-.131-1.227 26.038 26.038 0 0 1-.021-1.196c.002-.381.081-.854.236-1.418.156-.564.347-1.012.575-1.342.228-.33.474-.58.74-.75.264-.171.534-.258.808-.262.274-.004.531.114.77.352.24.238.44.622.602 1.15.161.527.285 1.113.372 1.757.087.645.166 1.233.236 1.767.07.533.143.992.221 1.376.078.384.176.668.294.853.166.26.533.129 1.1-.392M219.774 346.583c-.226.73-.343 1.5-.353 2.312-.01.811-.017 1.62-.023 2.425-.005.805-.017 1.688-.035 2.648-.018.96-.028 1.834-.03 2.624-.003 1.196.115 2.267.355 3.21" style="fill:none;stroke:#f59a23;stroke-width:1.55905;stroke-linecap:round;stroke-linejoin:round;stroke-miterlimit:10;stroke-dasharray:none;stroke-opacity:1" transform="matrix(.72727 0 0 .72727 -129.036 -244.938)"/><path d="M216.091 351.956c-.018-.143.33-.291 1.04-.444.71-.154 1.393-.282 2.047-.384.958-.15 2.253-.31 3.883-.475M226.518 357.022a.743.743 0 0 0 .392-.173 3.74 3.74 0 0 0 .4-.361c.13-.134.263-.303.4-.507.137-.204.247-.397.332-.58.084-.184.144-.409.178-.674a2.033 2.033 0 0 0-.002-.657.654.654 0 0 0-.266-.411 1.187 1.187 0 0 0-.563-.194c-.235-.027-.49.022-.765.147s-.557.364-.845.717a7.407 7.407 0 0 0-.82 1.271 8.7 8.7 0 0 0-.645 1.658 8.087 8.087 0 0 0-.304 1.79c-.03.581.1 1.222.388 1.92.289.7.675 1.143 1.158 1.333.483.189 1.07.163 1.759-.079.994-.349 2.42-1.546 4.28-3.593M235.028 354.151c-.102-.102-.143.01-.124.333.02.324.111.984.275 1.98.163.996.327 2.016.491 3.06.165 1.044.26 1.632.287 1.762l.045.217c.003.013.004 0 .002-.04l-.021-.641a74.41 74.41 0 0 1-.03-1.486c-.007-.604.04-1.205.14-1.805.102-.6.275-1.243.519-1.93.244-.687.51-1.266.8-1.737.29-.47.553-.775.79-.915.235-.14.423-.129.562.035.139.163.226.5.262 1.01.036.512.055 1.089.059 1.732.004.643.034 1.36.092 2.148.057.788.166 1.482.327 2.082.16.6.353 1.023.576 1.269.223.245.459.363.707.352.248-.01.477-.193.687-.547.304-.515.592-1.424.864-2.729M248.262 353.27c-.112-.494-.406-.774-.88-.842a1.47 1.47 0 0 0-.887.127c-.263.132-.527.36-.791.688-.265.326-.503.756-.716 1.288a6.845 6.845 0 0 0-.43 1.759c-.075.64-.056 1.26.056 1.859.113.598.311 1.06.596 1.385.285.325.631.495 1.04.51.408.014.849-.159 1.324-.52a6.39 6.39 0 0 0 1.305-1.363 9.14 9.14 0 0 0 1.038-1.913 24.87 24.87 0 0 0 .832-2.431c.26-.895.506-1.824.74-2.788.234-.964.422-1.865.564-2.703.142-.839.236-1.587.281-2.245.046-.658.07-1.155.075-1.49.005-.337-.046-.572-.151-.707-.106-.135-.263.005-.473.42-.209.415-.419 1.058-.629 1.93-.21.873-.357 1.96-.44 3.262a48.15 48.15 0 0 0-.065 4.302c.04 1.566.207 2.979.498 4.24.424 1.834 1.625 3.093 3.604 3.776" style="fill:none;stroke:#f59a23;stroke-width:1.55905;stroke-linecap:round;stroke-linejoin:round;stroke-miterlimit:10;stroke-dasharray:none;stroke-opacity:1" transform="matrix(.72727 0 0 .72727 -129.036 -244.938)"/><path d="M349.415 361.012c.26-.852.48-1.557.66-2.115.121-.38.272-.828.452-1.343.18-.516.362-1.095.547-1.738.186-.643.357-1.297.512-1.962.156-.665.286-1.292.39-1.88.104-.589.168-1.115.192-1.58.024-.464.015-.788-.027-.972-.043-.184-.13-.232-.262-.144-.132.088-.262.28-.39.575a6.369 6.369 0 0 0-.264.693c-.048.166-.119.547-.212 1.143a14.578 14.578 0 0 0-.147 2.13c-.005.823.027 1.723.097 2.697s.157 1.941.261 2.9c.104.96.217 1.792.338 2.498.122.705.244 1.303.367 1.793.122.49.229.835.32 1.034.092.199.164.31.218.335.054.024.103-.092.148-.35.045-.259.087-.641.127-1.148.04-.508.113-1.05.217-1.626.105-.577.258-1.177.459-1.8.2-.623.424-1.147.67-1.571.246-.425.491-.709.737-.853.245-.144.496-.203.755-.177.259.025.523.154.792.386.27.231.528.553.775.965.247.412.458.864.633 1.356.175.492.286 1.003.335 1.534.048.53.027 1.059-.065 1.585a4.744 4.744 0 0 1-.51 1.47c-.36.656-1.231 1.11-2.617 1.362M364.844 358.937a1.593 1.593 0 0 0-.78-.468 3.992 3.992 0 0 0-.78-.157c-.193-.013-.412.038-.655.151-.244.114-.496.309-.754.585a5.078 5.078 0 0 0-.706.98 4.515 4.515 0 0 0-.462 1.164c-.096.4-.125.81-.085 1.23.039.42.142.787.31 1.103.167.316.466.635.898.959.432.323.861.488 1.288.494.427.006.844-.175 1.25-.54.405-.367.754-.84 1.047-1.42.292-.579.51-1.163.654-1.752.143-.588.242-1.143.296-1.666.054-.522.057-.9.009-1.133-.048-.233-.147-.337-.297-.312-.15.025-.304.215-.46.571-.157.356-.258.788-.304 1.297a4.58 4.58 0 0 0 .102 1.481c.114.48.31.924.586 1.334.404.597 1.14 1.083 2.208 1.456M374.168 358.007c-.28-.262-.497-.402-.649-.419-.105-.012-.249.012-.431.074-.182.061-.395.19-.64.385-.243.196-.528.504-.853.926a7.319 7.319 0 0 0-.84 1.391 4.677 4.677 0 0 0-.415 1.67c-.041.607.09 1.21.395 1.81.305.6.77.994 1.397 1.182.9.27 2.33-.293 4.29-1.689M379.009 359.54c.538-1.47.923-2.526 1.153-3.167.158-.442.283-.813.375-1.113.092-.3.21-.767.356-1.403.145-.635.239-1.166.28-1.591.042-.426.03-.793-.037-1.1-.067-.308-.183-.52-.349-.634a.714.714 0 0 0-.565-.108c-.211.041-.427.194-.646.46-.22.264-.428.606-.622 1.026-.195.42-.33.964-.407 1.633-.077.67-.112 1.435-.106 2.297.006.862.053 1.8.142 2.814a71.56 71.56 0 0 0 .312 2.905c.12.923.264 1.755.435 2.497.172.741.35 1.319.534 1.733.273.613.569.91.888.89" style="fill:none;stroke:#f59a23;stroke-width:1.55905;stroke-linecap:round;stroke-linejoin:round;stroke-miterlimit:10;stroke-dasharray:none;stroke-opacity:1" transform="matrix(.72727 0 0 .72727 -253.102 -162.545)"/><path d="M383.01 357.591c.056.219.014.536-.129.95-.092.269-.203.552-.334.85-.13.298-.295.632-.494 1.002-.198.37-.393.7-.584.989-.192.289-.47.622-.834 1-.365.377-.68.656-.946.835-.267.179-.47.288-.612.328-.14.04-.225.004-.253-.107-.027-.11.02-.3.14-.566.122-.267.283-.522.486-.766.202-.243.39-.404.565-.481.174-.078.319-.047.434.09.115.139.214.394.296.766.083.372.194.75.334 1.137.14.386.335.744.583 1.074.248.33.557.57.927.717.37.148.733.207 1.087.177s.708-.203 1.062-.52c.354-.316.657-.7.908-1.15a9.78 9.78 0 0 0 .863-2.023M390.255 361.353c.11.085.232.12.367.105.091-.01.192-.07.303-.176.111-.106.225-.238.343-.394a5.517 5.517 0 0 0 .748-1.425c.11-.311.197-.642.261-.991a7.66 7.66 0 0 0 .12-.98c.016-.305-.022-.538-.113-.701-.091-.163-.21-.262-.356-.296-.147-.034-.375-.004-.686.09a2.832 2.832 0 0 0-.85.42c-.257.185-.506.455-.748.81a7.831 7.831 0 0 0-.69 1.288c-.22.503-.4 1.03-.54 1.58a7.776 7.776 0 0 0-.247 1.602 3.005 3.005 0 0 0 .3 1.465c.223.458.515.832.877 1.12.363.289.78.474 1.25.556.47.082.968.003 1.496-.236.765-.347 1.695-1.227 2.789-2.64M398.82 361.29c-.026-.345.055-1.028.243-2.047.116-.624.214-1.137.295-1.54.081-.404.152-.82.213-1.25.061-.428.102-.818.122-1.17.02-.352.021-.588.006-.707-.016-.12-.069-.159-.159-.118-.09.041-.184.17-.281.386a3.3 3.3 0 0 0-.226.814 7.725 7.725 0 0 0-.089 1.141c-.005.435.007.973.037 1.612.03.64.077 1.295.142 1.964a64.49 64.49 0 0 0 .463 3.672c.097.63.147.885.148.768l.015-.884c.007-.471.022-.974.044-1.51.021-.536.09-1.113.207-1.732a13.77 13.77 0 0 1 .438-1.73c.175-.534.375-.987.6-1.359.226-.372.46-.676.704-.912.243-.236.454-.381.633-.435.18-.054.326.022.441.229.115.207.193.568.236 1.083.043.516.068 1.104.077 1.765.008.66.041 1.298.1 1.912.058.613.15 1.174.275 1.682.125.507.274.881.445 1.122.172.24.368.344.588.31.313-.046.903-.822 1.768-2.327M413.47 356.773c-.015-.278-.059-.488-.133-.632a1.063 1.063 0 0 0-.215-.281.874.874 0 0 0-.373-.2 1.723 1.723 0 0 0-.606-.033c-.25.022-.526.138-.829.348-.303.21-.607.515-.911.916-.305.4-.574.895-.808 1.483a7.745 7.745 0 0 0-.477 1.798 5.816 5.816 0 0 0-.007 1.691c.08.516.252.921.516 1.215.264.295.592.417.985.367.392-.05.824-.294 1.296-.732a9.535 9.535 0 0 0 1.363-1.61c.63-.918 1.48-2.844 2.55-5.78" style="fill:none;stroke:#f59a23;stroke-width:1.55905;stroke-linecap:round;stroke-linejoin:round;stroke-miterlimit:10;stroke-dasharray:none;stroke-opacity:1" transform="matrix(.72727 0 0 .72727 -253.102 -162.545)"/><path d="M416.838 347.67c-.096-.034-.263-.03-.502.012-.239.042-.503.28-.792.713-.29.433-.561 1.104-.816 2.013-.254.908-.427 1.956-.518 3.143a41.695 41.695 0 0 0-.111 3.727c.017 1.298.156 2.413.42 3.348.262.934.61 1.586 1.041 1.958.62.532 1.447.501 2.483-.092" style="fill:none;stroke:#f59a23;stroke-width:1.55905;stroke-linecap:round;stroke-linejoin:round;stroke-miterlimit:10;stroke-dasharray:none;stroke-opacity:1" transform="matrix(.72727 0 0 .72727 -253.102 -162.545)"/><path d="M309.223 434.881a7.289 7.289 0 0 0-.547-.207" style="fill:none;stroke:#fcfcfc;stroke-width:1.55905;stroke-linecap:round;stroke-linejoin:round;stroke-miterlimit:10;stroke-dasharray:none;stroke-opacity:1" transform="matrix(.72727 0 0 .72727 4.766 -259.417)"/><path d="m317.516 445.88-.11.084c-.007.006.035-.098.126-.31l.716-1.665c.386-.898 1.03-2.013 1.931-3.344s1.612-2.29 2.133-2.874a251.9 251.9 0 0 1 2.155-2.383c1.352-1.48 3.192-2.954 5.52-4.421" style="fill:none;stroke:#ff21b3;stroke-width:1.55905;stroke-linecap:round;stroke-linejoin:round;stroke-miterlimit:10;stroke-dasharray:none;stroke-opacity:1" transform="matrix(.72727 0 0 .72727 -95.73 -200.368)"/><path d="M447.856 441.834c-.365-1.354-1.09-3.02-2.176-4.997a37.317 37.317 0 0 0-2.237-3.593c-1.135-1.606-4.173-4.613-9.113-9.02" style="fill:none;stroke:#ff21b3;stroke-width:1.55905;stroke-linecap:round;stroke-linejoin:round;stroke-miterlimit:10;stroke-dasharray:none;stroke-opacity:1" transform="matrix(.72727 0 0 .72727 -71.93 -196.493)"/><path d="M389.987 387.088c-.23-2.325-.358-3.951-.384-4.878a78.907 78.907 0 0 1-.01-2.696c.014-1.688.33-4.148.943-7.382M389.656 339.225c-.14-4.626-.215-7.936-.225-9.928a404.064 404.064 0 0 1-.001-3.967c.009-1.844.423-4.87 1.242-9.075" style="fill:none;stroke:#ff21b3;stroke-width:1.55905;stroke-linecap:round;stroke-linejoin:round;stroke-miterlimit:10;stroke-dasharray:none;stroke-opacity:1" transform="matrix(.72727 0 0 .72727 -88.153 -200.508)"/><path d="M123.622 339.134c3.41-.234 5.9-.318 7.469-.253M146.347 338.583l2.7-.265M163.431 338.149c.943-.333 2.382-.434 4.317-.302M183.039 338.004c1.523-.31 2.633-.413 3.33-.31M199.172 338.239c1.535-.213 3.305-.345 5.309-.395M220.027 337.182l4.167.5M235.439 337.954c1.81-.372 3.525-.333 5.149.12M251.957 338.502a8.307 8.307 0 0 1 1.756-.383c.556-.057 1.455-.066 2.695-.027M269.387 337.606c.244-.16 1.05-.156 2.422.01M282.642 337.947c.786-.12 1.72-.193 2.804-.22 1.805-.045 2.866-.197 3.181-.457M300.742 337.28c1.369-.173 2.92-.22 4.653-.144M316.616 336.928c.371-.14 1.027-.204 1.967-.19.868.011 1.867.28 2.997.806M332.767 337.046c1.786-.182 3.994-.251 6.624-.21M353.058 336.717a44.65 44.65 0 0 1 5.162-.48M369.318 335.686c.822-.145 1.47-.245 1.942-.3.467-.055 1.354-.095 2.66-.12" style="fill:none;stroke:#ff0;stroke-width:1.55905;stroke-linecap:round;stroke-linejoin:round;stroke-miterlimit:10;stroke-dasharray:none;stroke-opacity:1" transform="matrix(.72727 0 0 .72727 -87.383 -204.356)"/><path d="m396.674 335.051 4.638.165M419.535 332.8a34.528 34.528 0 0 1 4.086-.292M437.372 332.505a8.72 8.72 0 0 1 1.732-.613c.565-.134 2.272-.236 5.122-.307M457.123 331.385l5.1.135M476.49 331.22c1.181.265 2.65.65 4.407 1.157M500.817 331.92c.617-.102 1.453-.16 2.509-.176 1.633-.024 2.942.057 3.927.244M520.64 331.285l4.803-.3M534.836 333.486l4.599.13" style="fill:none;stroke:#ff0;stroke-width:1.55905;stroke-linecap:round;stroke-linejoin:round;stroke-miterlimit:10;stroke-dasharray:none;stroke-opacity:1" transform="matrix(.72727 0 0 .72727 -82.303 -203.808)"/><path d="M374.219 329.332c-.128.495-.186 1.138-.174 1.929.011.791.056 1.59.134 2.393.078.805.155 1.682.231 2.63.077.95.158 1.894.244 2.836.085.941.167 1.778.244 2.511.077.733.135 1.34.174 1.82.039.481.06.885.064 1.213l.006.516c0 .017.002.012.004-.015l.081-.827c.052-.524.142-1.046.27-1.566.13-.52.296-1.036.501-1.548.205-.513.437-.984.694-1.413.258-.429.531-.795.82-1.099.288-.304.574-.524.856-.662.283-.138.542-.214.779-.228.237-.013.42.117.55.391.131.275.222.707.273 1.297.051.59.095 1.219.13 1.885.037.666.114 1.233.234 1.699.12.466.285.811.496 1.036.211.224.444.351.697.38.36.042.95-.633 1.77-2.026M387.682 329.717c.189 2.408.324 4.071.407 4.99.057.636.124 1.516.2 2.64.077 1.125.138 2.202.183 3.23.068 1.528.191 3.207.37 5.036" style="fill:none;stroke:#fcfcfc;stroke-width:1.55905;stroke-linecap:round;stroke-linejoin:round;stroke-miterlimit:10;stroke-dasharray:none;stroke-opacity:1" transform="matrix(.72727 0 0 .72727 -108.225 -234.65)"/><path d="M385.66 337.878a.427.427 0 0 1-.011-.506c.073-.119.24-.254.502-.404.26-.15.601-.264 1.02-.34.602-.11 2.158-.125 4.668-.047M394.148 338.925c.015.677.111 1.395.29 2.154.178.759.318 1.367.42 1.825.1.459.18.853.236 1.184.057.332.123.652.198.96.074.31.14.506.197.591.056.085.11-.367.163-1.357.053-.99.114-1.693.185-2.109.07-.415.167-.79.29-1.123.123-.334.237-.598.342-.794.104-.195.239-.375.403-.542.165-.166.324-.269.478-.308a.425.425 0 0 1 .415.107c.122.112.236.362.34.75.105.39.205.846.3 1.368.097.523.195 1.014.297 1.474.102.46.208.825.318 1.095.11.27.201.442.274.515.072.074.143.071.212-.008.069-.078.15-.286.241-.624.092-.338.208-.709.348-1.112a6.76 6.76 0 0 1 .553-1.196c.23-.393.46-.722.692-.986.231-.263.427-.435.588-.514.16-.08.284-.062.369.053.085.114.164.66.237 1.638.073.979.166 1.672.28 2.08.112.409.251.698.416.87.234.242.62.079 1.16-.49M409.716 329.21a48.107 48.107 0 0 0-.498 4.946 69.3 69.3 0 0 0-.075 3.552c.004 1.264.106 2.425.305 3.482.2 1.057.452 1.862.756 2.415.305.553.619.918.943 1.096.47.257.967.217 1.492-.121M421.917 338.54l-.143.063c-.01.004.017.01.08.015l.534.048c.416.038 2.112-.15 5.09-.566" style="fill:none;stroke:#fcfcfc;stroke-width:1.55905;stroke-linecap:round;stroke-linejoin:round;stroke-miterlimit:10;stroke-dasharray:none;stroke-opacity:1" transform="matrix(.72727 0 0 .72727 -108.225 -234.65)"/><path d="M425.501 333.98c-.302.815-.481 1.427-.537 1.837-.038.282-.066.706-.084 1.273-.027.82.215 2.187.724 4.1M437.613 339.872c-.029.507.08 1.355.324 2.542.245 1.188.665 2.233 1.261 3.137.596.903 1.034 1.67 1.314 2.298.28.63.507 1.333.682 2.11.175.779.294 1.503.356 2.173.063.67.06 1.242-.01 1.717-.07.475-.274.844-.613 1.107-.338.264-.763.413-1.273.447-.51.035-1.041-.112-1.592-.44-.551-.328-1.07-.824-1.556-1.487a7.029 7.029 0 0 1-1.069-2.1 7.34 7.34 0 0 1-.338-2.172c.001-.713.167-1.412.499-2.099.482-.998 1.492-2.373 3.03-4.125M439.183 331.792c-.128-.03-.195-.123-.201-.282l-.008-.211M446.855 338.279c.396-.213.693-.484.89-.816.134-.224.205-.378.215-.462.009-.085-.025-.154-.102-.209-.077-.054-.223-.088-.437-.102-.214-.014-.455.056-.723.21a2.826 2.826 0 0 0-.743.632 3.495 3.495 0 0 0-.786 1.777c-.037.292-.022.526.043.702.065.176.201.312.41.407.207.095.686.199 1.437.312.752.114 1.358.274 1.818.48.461.207.837.444 1.127.712.291.268.543.676.757 1.226.214.55.3 1.045.26 1.485-.04.44-.261.811-.664 1.116a3.31 3.31 0 0 1-1.439.607c-.811.146-1.612-.112-2.403-.773" style="fill:none;stroke:#fcfcfc;stroke-width:1.55905;stroke-linecap:round;stroke-linejoin:round;stroke-miterlimit:10;stroke-dasharray:none;stroke-opacity:1" transform="matrix(.72727 0 0 .72727 -108.225 -234.65)"/><path d="M312.23 550.978c.015-1.346.094-2.474.236-3.383.096-.618.214-1.296.354-2.035.14-.738.275-1.501.405-2.29.13-.789.26-1.638.389-2.549.129-.91.242-1.811.34-2.702.098-.892.171-1.713.219-2.464a35.8 35.8 0 0 0 .079-1.816c.005-.46-.024-.762-.085-.907-.06-.145-.164-.202-.31-.17-.145.032-.313.306-.504.825-.19.518-.353 1.268-.488 2.25-.135.983-.209 2.082-.222 3.296-.014 1.213.021 2.589.105 4.126a42.13 42.13 0 0 0 .484 4.498c.238 1.46.53 2.757.877 3.888.346 1.131.737 1.961 1.172 2.49.435.53.878.839 1.33.93.45.09.852-.04 1.206-.392.353-.352.601-.87.745-1.552.217-1.024.314-2.032.291-3.022M321.94 546.694c-.028.358-.018.874.03 1.548.045.616.332 2.309.863 5.077M322.208 540.538l-.048.258M328.657 538.962c-.095.238-.137.71-.126 1.416.007.438.045.998.114 1.68.07.683.136 1.493.197 2.431s.114 1.877.158 2.817c.044.94.103 1.78.176 2.52.074.74.145 1.37.214 1.891.068.521.133.907.193 1.159l.099.413c.006.024.009.014.01-.03l.014-.75c.009-.457.044-.916.106-1.378.063-.461.163-.877.302-1.246.138-.37.314-.692.527-.967.213-.274.45-.487.71-.639.26-.15.535-.245.822-.284.287-.038.568-.017.843.064.275.08.541.251.799.514.257.262.469.598.634 1.009a4.9 4.9 0 0 1 .319 1.383 5.789 5.789 0 0 1-.074 1.57 3.917 3.917 0 0 1-.597 1.483c-.302.454-.617.785-.946.992-.474.299-1.392.338-2.753.118M340.803 548.437l4.463-.589M351.582 542.849c-.073.7-.11 1.365-.111 1.995-.001.423.037.975.115 1.654.078.68.182 1.361.313 2.045.13.683.3 1.62.508 2.807.208 1.188.333 1.916.376 2.184l.069.43c.003.018.004.014.004-.013v-.63c.001-.395.009-.862.023-1.402.015-.54.077-1.138.187-1.792.11-.655.251-1.288.424-1.9.172-.612.366-1.152.583-1.62.216-.47.451-.827.705-1.074.254-.247.504-.394.753-.442.248-.047.457.041.627.266.17.225.298.595.386 1.111.087.516.184 1.334.291 2.455.107 1.121.2 1.992.282 2.612.081.62.203 1.154.365 1.6.162.447.367.727.613.841.348.161.904-.498 1.666-1.977M363.442 549.739c.573-.67.983-1.202 1.231-1.598.17-.27.31-.628.418-1.072.108-.443.165-.817.17-1.122a2.337 2.337 0 0 0-.132-.839 1.18 1.18 0 0 0-.418-.58 1.469 1.469 0 0 0-.642-.255 1.578 1.578 0 0 0-.733.067c-.247.08-.483.24-.707.48-.224.238-.443.582-.657 1.03-.215.447-.414.951-.599 1.511a7.885 7.885 0 0 0-.361 1.662c-.057.547 0 1.11.173 1.688.172.578.485 1.127.941 1.647.456.52.972.898 1.548 1.135a3.031 3.031 0 0 0 1.83.148c.925-.199 1.873-1.196 2.843-2.99M370.687 545.977c.023-.48-.007-.84-.092-1.08-.059-.164-.16-.14-.306.074a1.98 1.98 0 0 0-.304.742 8.69 8.69 0 0 0-.125 1.147c-.027.482-.031.971-.012 1.466.019.496.106 1.083.262 1.763.156.68.361 1.343.616 1.989.255.645.552 1.107.893 1.387.34.279.701.398 1.081.356.38-.04.735-.282 1.065-.724.33-.442.6-.985.81-1.63.211-.644.406-1.398.585-2.262.18-.863.333-1.513.463-1.952M379.243 546.231c.048.57.148 1.274.303 2.113.155.84.284 1.55.386 2.13.102.582.197 1.181.285 1.8l.139.978.006.04v-.001l-.018-.204c-.01-.129-.083-.457-.216-.986a52.353 52.353 0 0 1-.402-1.726 71.967 71.967 0 0 1-.35-1.707 16.48 16.48 0 0 1-.21-1.36 11.39 11.39 0 0 1-.066-.955 1.625 1.625 0 0 1 .096-.627c.069-.172.218-.32.447-.444.23-.125.514-.232.852-.322.488-.13 1.518-.216 3.091-.26M389.612 547.49c.164-.299.138-.537-.08-.715a2.043 2.043 0 0 0-.426-.278 1.266 1.266 0 0 0-.427-.11 1.806 1.806 0 0 0-.505.035 1.66 1.66 0 0 0-.558.234c-.19.12-.358.254-.507.405a2.844 2.844 0 0 0-.69 1.154c-.066.22-.115.564-.145 1.032-.03.467-.02.928.032 1.383.051.454.179.85.384 1.19.204.339.463.61.777.812.314.202.671.325 1.073.368.4.044.825-.017 1.273-.18.447-.165.882-.448 1.304-.85.421-.403.787-.831 1.098-1.286.31-.455.55-.886.72-1.292.171-.407.288-.785.35-1.135.062-.349.097-.648.103-.898.006-.25-.028-.43-.104-.54-.075-.11-.202-.102-.38.026-.178.127-.36.417-.546.868a5.324 5.324 0 0 0-.364 1.473 5.548 5.548 0 0 0 .034 1.51c.08.475.245.863.498 1.165.252.302.542.502.868.602.468.143 1.16-.133 2.075-.828M399.71 536.82c-.17-.174-.319-.103-.447.213s-.27.76-.423 1.33c-.154.571-.328 1.297-.521 2.177-.193.881-.33 1.942-.41 3.184a36.934 36.934 0 0 0-.042 3.873 18.89 18.89 0 0 0 .575 3.942c.33 1.288.715 2.215 1.155 2.783.44.568.937.795 1.488.682.789-.162 1.804-1.43 3.044-3.805M408.89 547.31a7.907 7.907 0 0 1 2.352-.438c.829-.031 1.366-.043 1.612-.037.35.01 1.778.202 4.282.577M423.125 544.487c-.11.22-.177.518-.2.897-.023.38.008.803.092 1.271.085.468.19.976.314 1.524.125.549.247 1.127.366 1.735.12.607.229 1.271.328 1.99l.161 1.173c.009.063.015.069.02.019l.085-.94c.053-.577.115-1.109.187-1.595s.177-.988.315-1.506a13.24 13.24 0 0 1 .54-1.594 7.798 7.798 0 0 1 .747-1.429c.275-.408.547-.686.814-.834.266-.148.482-.172.646-.07.165.1.279.39.342.869.064.478.11 1.007.138 1.587.028.579.062 1.15.103 1.716.04.564.114 1.118.22 1.66.105.54.244.996.416 1.366.171.369.362.618.571.748.296.183.747-.204 1.352-1.16M435.037 549.286c.42-.16.753-.37.995-.631.165-.177.309-.378.432-.601.123-.223.214-.462.273-.715a6.09 6.09 0 0 0 .13-.88c.029-.335.044-.653.047-.955.003-.303-.042-.553-.134-.752a.778.778 0 0 0-.394-.41 1.525 1.525 0 0 0-.616-.11c-.24.001-.499.101-.776.301-.278.2-.538.506-.782.92a6.24 6.24 0 0 0-.575 1.28c-.14.44-.237 1.098-.289 1.974-.052.876-.012 1.642.12 2.299.133.657.38 1.149.741 1.475.361.327.82.499 1.379.517.8.025 2.163-.794 4.09-2.457M444.027 537.797v-.608 1.855c0 1.127.056 2.72.168 4.781.112 2.061.214 3.52.305 4.377.136 1.282.302 2.603.496 3.965" style="fill:none;stroke:#fcfcfc;stroke-width:1.55905;stroke-linecap:round;stroke-linejoin:round;stroke-miterlimit:10;stroke-dasharray:none;stroke-opacity:1" transform="matrix(.72727 0 0 .72727 -164.455 -260.849)"/><path d="M441.666 543.861c.558.033 1.209.038 1.952.015.699-.021 2.327-.334 4.883-.938M449.015 551.372c.118-.313.241-1.117.368-2.412.076-.771.128-1.43.155-1.978.028-.548.043-.972.046-1.273.003-.3-.03-.466-.099-.496-.068-.03-.145.126-.23.468a7.96 7.96 0 0 0-.186 1.27c-.04.504-.045.993-.018 1.466.026.473.138.937.335 1.392.196.455.423.882.68 1.283.257.4.499.712.726.937.227.225.443.363.648.416.206.052.4.074.584.064a1.31 1.31 0 0 0 .553-.164.494.494 0 0 1 .536.018c.173.11.373.272.6.484.228.21.495.396.803.556.307.16.625.225.955.194.33-.03.63-.235.903-.614.272-.38.46-.842.563-1.388.103-.547.164-1.09.184-1.63.02-.539.01-1.044-.028-1.514s-.115-1.02-.232-1.65l-.31-1.676M463.232 547.056c.124-.185.194-.471.208-.859.014-.388-.013-.643-.082-.765a1.014 1.014 0 0 0-.31-.328 1.33 1.33 0 0 0-.479-.206 1.912 1.912 0 0 0-.591-.033c-.212.019-.428.145-.649.378-.22.233-.422.564-.606.995-.183.431-.323.9-.419 1.404a10.062 10.062 0 0 0-.17 1.572c-.017.542.02 1.098.111 1.667.09.57.276 1.056.555 1.46.279.403.64.66 1.082.769.443.11.933.081 1.47-.084.537-.166 1.025-.488 1.463-.967a4.194 4.194 0 0 0 .931-1.609c.184-.594.273-1.17.267-1.73-.005-.56-.124-1.032-.356-1.418-.232-.387-.479-.65-.74-.788-.381-.204-.745-.21-1.091-.019M470.147 546.225c-.115.484-.055 1.216.181 2.197.15.627.263 1.141.336 1.542.074.4.126.8.157 1.202.03.402.048.758.051 1.068l.005.492c0 .018-.002.013-.006-.016l-.107-.791c-.068-.5-.128-1.005-.179-1.516a26.84 26.84 0 0 1-.11-1.48 42.43 42.43 0 0 1-.035-1.719c-.002-.671.023-1.07.078-1.2.054-.128.419-.207 1.094-.238.675-.03 1.285-.011 1.83.058.799.101 1.808.347 3.028.737M479.441 549.03c.2-.402.41-.934.631-1.597.222-.664.41-1.353.567-2.068.157-.716.313-1.487.469-2.312.155-.826.293-1.653.416-2.482.122-.828.213-1.642.273-2.441.059-.8.08-1.457.062-1.975-.017-.517-.07-.871-.157-1.061-.087-.19-.215-.291-.385-.302-.17-.011-.313.175-.43.559-.116.383-.185.955-.206 1.717-.02.76-.017 1.65.012 2.664.029 1.015.09 2.154.186 3.418.095 1.263.183 2.508.263 3.733.08 1.226.159 2.362.236 3.408.077 1.047.173 1.91.287 2.592.115.68.36 1.297.734 1.848M485.16 545.004l.021-.311c0-.012.002.003.004.044l.028.57c.017.34-.033.741-.148 1.206-.116.464-.253.907-.412 1.33-.158.423-.33.832-.514 1.228a6.866 6.866 0 0 1-.489.907c-.141.21-.25.292-.324.247-.075-.044-.1-.217-.079-.517.023-.3.088-.53.197-.691.11-.16.22-.257.333-.29.112-.032.224.082.335.34.11.26.233.671.367 1.235.135.564.323 1.12.567 1.669.244.548.539.976.886 1.285.346.31.707.499 1.08.57.534.1 1.396-.473 2.587-1.718" style="fill:none;stroke:#fcfcfc;stroke-width:1.55905;stroke-linecap:round;stroke-linejoin:round;stroke-miterlimit:10;stroke-dasharray:none;stroke-opacity:1" transform="matrix(.72727 0 0 .72727 -164.455 -260.849)"/><path d="M310.675 590.265c-.04-.65.007-1.667.14-3.05.085-.871.157-1.682.217-2.433.059-.75.128-1.568.208-2.455a68.356 68.356 0 0 0 .264-5.162c.005-.7-.042-1.255-.142-1.665-.099-.41-.211-.68-.337-.813-.126-.132-.276-.124-.45.023s-.334.513-.482 1.097a15.553 15.553 0 0 0-.343 1.805c-.081.62-.135 1.096-.163 1.428-.027.333-.041.804-.044 1.415-.003.61.026 1.658.088 3.142a42.33 42.33 0 0 0 .446 4.572c.236 1.564.544 2.96.923 4.185.378 1.226.787 2.158 1.225 2.795.438.638.86 1.027 1.264 1.169.404.14.784.119 1.14-.067.356-.186.647-.553.875-1.103.332-.803.565-1.984.699-3.542M318.899 588.573v-.38l.013.104.234 2.09c.236 2.1.446 3.609.63 4.529M319.05 581.856l-.127.176M323.03 580.52c-.082.247-.116.602-.103 1.066.012.464.07.92.17 1.368.102.448.22 1.088.353 1.918.133.83.245 1.725.336 2.685.092.96.184 1.849.276 2.67.092.82.193 1.482.302 1.986.109.505.207.844.294 1.018.088.173.224-.041.408-.644.184-.602.375-1.093.573-1.472.197-.378.437-.69.72-.937.282-.245.568-.404.857-.474.29-.071.572-.052.847.056s.535.333.778.674.418.745.526 1.211c.108.466.151.915.131 1.346-.02.431-.165.853-.435 1.264a4.09 4.09 0 0 1-.943 1.025c-.359.272-.694.426-1.008.462-.445.05-.799-.338-1.06-1.165M335.108 589.062l3.51-.28M348.228 589.184c.02-.604.008-1.034-.037-1.291a3.19 3.19 0 0 0-.178-.605 2.07 2.07 0 0 0-.357-.6 1.096 1.096 0 0 0-.508-.35 1.706 1.706 0 0 0-.672-.05c-.258.026-.538.148-.839.367-.3.218-.586.527-.855.925-.27.398-.471.883-.605 1.454a7.413 7.413 0 0 0-.188 1.796c.008.627.14 1.229.394 1.807.254.577.564 1.006.928 1.287.364.28.777.381 1.237.302.46-.08.863-.3 1.208-.663.345-.362.743-.92 1.194-1.67.452-.751.827-1.433 1.125-2.047.3-.613.525-1.197.678-1.751.153-.555.25-1.021.288-1.4.039-.38.045-.656.018-.831-.027-.175-.103-.272-.23-.29-.125-.017-.252.093-.38.329-.13.236-.23.554-.305.954-.075.4-.116.85-.123 1.353a9.268 9.268 0 0 0 .148 1.682c.106.62.418 1.804.937 3.553.52 1.75.913 3.037 1.181 3.863.268.827.477 1.593.625 2.3.148.706.223 1.406.223 2.1 0 .694-.126 1.31-.38 1.849a3.015 3.015 0 0 1-1.087 1.27c-.471.307-1.016.457-1.633.45-.618-.007-1.185-.242-1.7-.705a3.796 3.796 0 0 1-1.09-1.674c-.306-.939.23-2.307 1.608-4.106M357.937 590.241c.382-.422.65-.822.805-1.2a6.37 6.37 0 0 0 .25-.737c.064-.234.119-.501.165-.802.046-.3.071-.57.076-.807.005-.239-.02-.45-.074-.636a.871.871 0 0 0-.285-.444c-.136-.111-.299-.184-.49-.218a1.336 1.336 0 0 0-.639.06c-.235.074-.487.272-.757.595-.27.322-.514.757-.733 1.305a6.644 6.644 0 0 0-.43 1.791 5.118 5.118 0 0 0 .178 1.947c.185.65.475 1.223.87 1.719.396.496.845.826 1.346.991.502.165.992.155 1.472-.03.694-.266 1.424-1.063 2.192-2.39M366.7 584.773c-.185.383-.274.954-.268 1.714.006.76.052 1.476.139 2.15a106.586 106.586 0 0 1 .442 4.153c.053.62.093 1.046.12 1.278l.044.37c.002.015.003-.007.003-.067l.005-1.521c.003-.955.035-1.73.097-2.323.061-.594.164-1.178.308-1.753.144-.574.315-1.102.515-1.583.199-.482.431-.866.698-1.151.266-.286.528-.429.787-.427.259 0 .466.14.622.418.157.277.303.803.44 1.578.137.774.229 1.508.275 2.2.047.692.098 1.365.156 2.02.057.655.127 1.23.21 1.727.084.496.192.83.323 1.002.132.172.289.233.47.182.26-.073.726-.75 1.402-2.035M377.892 590.24c.44-.425.748-.822.925-1.19.12-.25.233-.527.338-.829.104-.302.2-.641.286-1.016a6.18 6.18 0 0 0 .156-1c.018-.293-.023-.526-.122-.702a.619.619 0 0 0-.475-.313c-.216-.032-.447.015-.691.142-.245.127-.487.386-.727.777-.24.39-.442.87-.606 1.439a8.575 8.575 0 0 0-.305 1.862c-.04.672.012 1.296.155 1.872.142.575.383 1.038.722 1.388.338.35.728.56 1.17.634.441.073.907.021 1.397-.155.709-.255 1.573-1.031 2.592-2.329M386.986 576.18c0 1.347.037 2.76.11 4.24.074 1.481.113 2.78.117 3.896.004 1.116.014 2.192.03 3.226.021 1.518.06 3.493.115 5.923" style="fill:none;stroke:#fcfcfc;stroke-width:1.55905;stroke-linecap:round;stroke-linejoin:round;stroke-miterlimit:10;stroke-dasharray:none;stroke-opacity:1" transform="matrix(.72727 0 0 .72727 -8.418 -289.414)"/><path d="M384.11 584.771c-.26.236-.227.333.097.292.24-.031.565-.095.976-.191.41-.096.901-.188 1.473-.275.827-.126 2.349-.225 4.564-.296M393.602 585.564c.072 1.885.19 3.331.353 4.34.168 1.039.36 2.036.573 2.99M394.426 581.154l.357-.231M401.59 586.614c.102-.871.115-1.38.037-1.527-.054-.102-.172-.163-.355-.181-.183-.018-.421.083-.715.304-.294.22-.606.558-.936 1.013-.33.454-.623.996-.879 1.626a7.533 7.533 0 0 0-.503 1.972c-.08.685-.051 1.351.088 1.997.139.646.403 1.14.794 1.482.555.485 1.984-.075 4.289-1.68M408.865 587.805c1.536-.108 3.1-.304 4.693-.589M424.647 588.318c-.076-.29-.298-.716-.666-1.276-.231-.353-.444-.598-.639-.736a1.782 1.782 0 0 0-.68-.286 3.172 3.172 0 0 0-.83-.053c-.296.018-.609.144-.937.376a4.387 4.387 0 0 0-.923.904 4.81 4.81 0 0 0-.703 1.303 5.904 5.904 0 0 0-.337 1.608 9.755 9.755 0 0 0 .045 1.81c.072.634.227 1.198.466 1.694.24.495.54.87.903 1.127.363.256.754.416 1.175.481.42.066.874.047 1.362-.055.488-.103.979-.386 1.473-.85.495-.464.967-1.057 1.417-1.78.45-.724.824-1.513 1.122-2.37.3-.856.49-1.658.575-2.405.084-.748.111-1.286.082-1.615-.03-.329-.147-.479-.35-.45-.205.028-.432.282-.683.761-.25.48-.45 1.029-.598 1.646a9.562 9.562 0 0 0-.255 1.92 5.668 5.668 0 0 0 .287 1.969c.213.65.507 1.2.882 1.65.374.45.811.74 1.31.868.72.186 1.697-.18 2.93-1.097M433.011 591.232v.212h0l.001-.034.022-.786c.014-.498.06-1.093.14-1.786.08-.693.169-1.386.27-2.08.1-.692.239-1.59.418-2.69.178-1.1.295-2.033.351-2.796.056-.764.087-1.384.092-1.86.005-.475-.052-.783-.172-.923-.121-.14-.292-.056-.512.254-.22.31-.465.84-.734 1.595-.268.753-.49 1.603-.663 2.548a19.479 19.479 0 0 0-.297 3.082c-.025 1.11.035 2.181.18 3.215.144 1.033.377 1.925.7 2.675.322.75.652 1.344.99 1.78.34.437.691.723 1.057.86.365.135.735.103 1.11-.099.54-.288 1.198-1.328 1.975-3.12M441.43 588c.07-.597.062-.973-.026-1.13a.716.716 0 0 0-.297-.273 1.382 1.382 0 0 0-.503-.144 2.336 2.336 0 0 0-.697.045 1.97 1.97 0 0 0-.795.373 2.354 2.354 0 0 0-.667.81c-.18.343-.291.74-.333 1.19-.042.45-.01.916.095 1.399.104.483.307.933.61 1.35.302.418.653.748 1.053.99.4.241.811.35 1.235.329.424-.022.827-.269 1.208-.74.382-.47.714-1.057.999-1.757.284-.701.545-1.475.782-2.322.237-.848.451-1.645.643-2.391.193-.747.333-1.345.42-1.796.089-.451.134-.757.135-.918.001-.16-.078-.222-.239-.185-.161.037-.339.219-.532.546-.194.327-.366.745-.515 1.255a9.394 9.394 0 0 0-.318 1.776c-.062.675-.097 1.35-.103 2.025-.006.674.041 1.338.142 1.99.101.651.287 1.391.558 2.219.27.827.612 1.697 1.023 2.61.411.913.846 1.758 1.304 2.534.458.776.836 1.51 1.136 2.204.3.693.483 1.328.55 1.906.069.578-.001 1.1-.21 1.564-.21.466-.581.845-1.117 1.137a3.907 3.907 0 0 1-1.761.473c-.639.022-1.28-.139-1.92-.483-.924-.495-1.532-1.817-1.825-3.964M453.125 587.512c.051-.713.043-1.195-.025-1.446a1.303 1.303 0 0 0-.238-.473.913.913 0 0 0-.473-.302 2.837 2.837 0 0 0-.74-.1c-.29-.006-.6.076-.93.245-.33.17-.657.42-.982.752-.324.332-.626.761-.905 1.286a6.696 6.696 0 0 0-.62 1.698 7.77 7.77 0 0 0-.19 1.799 3.39 3.39 0 0 0 1.654 2.86c.506.304 1.077.498 1.713.583a3.246 3.246 0 0 0 1.867-.31c.609-.292 1.132-.76 1.57-1.405.438-.645.74-1.35.907-2.114.167-.764.216-1.48.148-2.15-.069-.668-.249-1.202-.54-1.6-.425-.582-1.081-.91-1.968-.984M459.925 588.013c.267.121.476.553.626 1.296.098.481.163 1.033.197 1.656.034.622.049 1.191.045 1.707-.004.517-.045.935-.123 1.256-.078.32-.171.516-.279.588-.107.071-.233-.074-.377-.436a9.693 9.693 0 0 1-.408-1.36 23.653 23.653 0 0 1-.313-1.568 11.236 11.236 0 0 1-.125-2.642c.03-.376.114-.694.255-.954.14-.26.326-.442.555-.544.23-.102.502-.151.817-.146a4.48 4.48 0 0 1 1.052.158c.563.147 1.438.318 2.625.514M468.432 587.822c.037 1.15.017 2.159-.061 3.027a47.873 47.873 0 0 1-.318 2.68M468.504 581.9l-.23.255M475.83 577.104c.011 1.37.005 2.74-.016 4.114a62.986 62.986 0 0 1-.116 2.897c-.063 1.016-.12 2.056-.172 3.12a295.482 295.482 0 0 0-.212 5.774" style="fill:none;stroke:#fcfcfc;stroke-width:1.55905;stroke-linecap:round;stroke-linejoin:round;stroke-miterlimit:10;stroke-dasharray:none;stroke-opacity:1" transform="matrix(.72727 0 0 .72727 -8.418 -289.414)"/><path d="M472.208 585.936c.334-.127.984-.225 1.948-.293.864-.062 2.392-.164 4.582-.307M483.699 578.218c-.103-.287-.23-.328-.38-.123-.11.15-.185.507-.226 1.074-.042.566-.065 1.17-.069 1.81-.004.641.044 1.41.146 2.305a227.319 227.319 0 0 0 .656 5.336c.142 1.056.26 1.88.353 2.474.094.594.161 1.074.201 1.44.04.367.063.637.067.811l.007.288c0 .018-.002.02-.007.002l-.08-.261a3.282 3.282 0 0 1-.103-.667c-.021-.286-.01-.698.035-1.235a4.666 4.666 0 0 1 .409-1.554c.227-.5.501-.947.823-1.344.322-.396.63-.668.925-.815.295-.147.545-.167.75-.059.205.108.354.382.445.824.09.441.158.98.201 1.614.043.635.089 1.101.137 1.397.048.297.188.756.422 1.378.233.622.481.995.744 1.12.262.124.545.108.848-.05.437-.226 1.004-.949 1.7-2.168M493.839 585.515c.066.44.105.926.115 1.458a8.8 8.8 0 0 0 .141 1.467c.084.445.189.93.313 1.452.125.523.272 1.244.442 2.163l.274 1.477.012.053-.003-.04-.142-1.284c-.088-.799-.112-1.5-.07-2.102a7.01 7.01 0 0 1 .39-1.837c.218-.622.442-1.156.673-1.603.23-.446.414-.735.553-.865.14-.13.254-.14.344-.03.09.111.178.38.265.807.087.427.208 1.142.363 2.145.155 1.003.266 1.701.335 2.096.069.394.133.691.195.892.06.201.178.14.35-.184.173-.323.385-.791.636-1.404.251-.613.547-1.207.887-1.783.34-.577.686-1.048 1.035-1.414.35-.366.634-.563.853-.592.22-.028.482.558.786 1.758.304 1.201.592 2.102.864 2.704.272.601.575 1.117.908 1.547.484.623 1.224.889 2.222.796" style="fill:none;stroke:#fcfcfc;stroke-width:1.55905;stroke-linecap:round;stroke-linejoin:round;stroke-miterlimit:10;stroke-dasharray:none;stroke-opacity:1" transform="matrix(.72727 0 0 .72727 -8.418 -289.414)"/><path d="M310.916 631.548c.237-2.489.438-4.386.605-5.693.114-.895.231-1.776.351-2.643.12-.867.217-1.713.29-2.54a33.76 33.76 0 0 0 .133-2.216c.015-.652-.012-1.106-.079-1.363-.067-.257-.185-.367-.353-.332-.168.036-.365.367-.59.994-.225.627-.395 1.468-.51 2.523-.115 1.055-.174 2.285-.179 3.69a42.409 42.409 0 0 0 .249 4.536c.17 1.618.39 3.073.66 4.365.271 1.293.609 2.35 1.012 3.172.404.822.838 1.355 1.3 1.6.463.243.917.289 1.364.137.447-.152.834-.552 1.164-1.2.48-.945.782-2.314.905-4.106M320.403 628.956c-.048.208-.031.627.048 1.256.115.906.413 2.855.895 5.847M321.526 623.186l-.254.126M327.426 621.442c-.108-.098-.192-.06-.25.115a2.54 2.54 0 0 0-.109.646c-.015.257-.011.625.01 1.104.023.48.216 1.699.58 3.656.364 1.958.641 3.407.832 4.347.191.94.369 1.738.533 2.394.164.657.276 1.067.337 1.23l.13.352c.027.07.049.022.066-.144l.087-.83c.04-.388.074-.82.1-1.299a5.96 5.96 0 0 1 .18-1.24c.095-.348.231-.628.409-.84.178-.21.403-.35.674-.418a1.93 1.93 0 0 1 .888.005c.32.071.64.26.956.568.317.307.568.699.753 1.175.186.477.304 1.016.353 1.618.05.602.003 1.218-.139 1.847a4.28 4.28 0 0 1-.742 1.65c-.5.668-1.317.636-2.45-.096M339.71 630.265h-.158a.225.225 0 0 1 .052-.013c.038-.01.287-.067.745-.174.458-.106 1.01-.162 1.653-.166.949-.007 2.083.134 3.403.423M355.291 626.036c-.263-.336-.553-.493-.868-.47-.218.016-.495.13-.832.34a5.39 5.39 0 0 0-.903.704c-.267.26-.51.555-.728.888a3.44 3.44 0 0 0-.464 1.023c-.09.348-.14.66-.15.934-.009.274.052.498.181.672.13.174.472.415 1.026.723.555.308 1.027.532 1.418.672s.794.258 1.21.357c.416.098.818.214 1.206.347.387.134.701.35.94.646.24.298.384.685.43 1.162.045.476-.072.996-.352 1.559a5.22 5.22 0 0 1-1.13 1.505c-.474.44-.954.741-1.44.9-.705.232-1.383.063-2.032-.506M361.44 629.009c.127.766.247 1.855.36 3.266a73.86 73.86 0 0 0 .353 3.516M363.022 623.086c-.058.012-.088.02-.093.02" style="fill:none;stroke:#fcfcfc;stroke-width:1.55905;stroke-linecap:round;stroke-linejoin:round;stroke-miterlimit:10;stroke-dasharray:none;stroke-opacity:1" transform="matrix(.72727 0 0 .72727 -75.044 -400.58)"/><path d="m369.206 628.829.024-.258v-.002.44c0 .267.012.61.036 1.028.023.418.092 1.185.206 2.3.114 1.116.198 1.961.252 2.538.053.576.102 1.045.146 1.406l.07.584c.003.028.006.022.01-.018l.06-.834c.036-.516.091-1.055.163-1.616a22.495 22.495 0 0 1 .727-3.453c.166-.566.338-1.062.516-1.488.178-.426.357-.741.536-.945.179-.205.339-.31.48-.315.141-.005.257.165.35.51.092.347.158.687.198 1.022.04.335.096.738.169 1.21.073.473.155.863.248 1.172.092.308.185.542.277.704.093.16.21.246.349.256.14.009.332-.163.578-.517.246-.354.52-.779.822-1.275.301-.496.586-.946.854-1.35.267-.404.484-.677.65-.818.167-.14.273-.114.32.08.048.193.026.857-.065 1.99a39.87 39.87 0 0 0-.145 2.67c-.006.646.065 1.166.211 1.561s.345.65.597.768c.252.117.548.165.889.146.492-.029 1.231-.348 2.216-.958" style="fill:none;stroke:#fcfcfc;stroke-width:1.55905;stroke-linecap:round;stroke-linejoin:round;stroke-miterlimit:10;stroke-dasharray:none;stroke-opacity:1" transform="matrix(.72727 0 0 .72727 -77.077 -400.376)"/><path d="M380.42 630.16c.025-.298-.015-.442-.119-.434-.074.006-.116.376-.128 1.109-.012.733.044 1.418.167 2.056.123.638.303 1.262.538 1.872.235.61.515 1.11.839 1.502.324.391.671.63 1.04.715.37.085.712-.022 1.026-.32.314-.299.56-.698.738-1.198.178-.5.288-1.051.33-1.655.06-.89.048-1.954-.038-3.192M390.04 632.24c0-.465.115-1.103.342-1.913.147-.519.314-1.202.503-2.048a64.74 64.74 0 0 0 .464-2.24c.12-.647.252-1.441.394-2.383.143-.94.24-1.743.292-2.407.053-.663.059-1.105.019-1.325-.04-.22-.163-.23-.368-.028-.205.2-.438.638-.697 1.311-.26.674-.472 1.433-.635 2.278-.164.845-.27 1.775-.316 2.79a66.085 66.085 0 0 0-.067 3.21c.002 1.125.104 2.197.305 3.217.202 1.02.462 1.87.781 2.55.32.68.68 1.122 1.081 1.329.57.293 1.388-.362 2.456-1.963M401.668 629.926c.122-.212.036-.406-.258-.583a2.433 2.433 0 0 0-.586-.265 2.45 2.45 0 0 0-.61-.085 1.512 1.512 0 0 0-.695.164c-.238.115-.465.31-.681.581-.216.273-.396.623-.54 1.051a5.79 5.79 0 0 0-.275 1.444 9.34 9.34 0 0 0 .019 1.576c.05.515.186.933.406 1.254.221.32.496.516.824.586.328.07.693-.003 1.096-.219.402-.216.801-.569 1.196-1.059a13.664 13.664 0 0 0 1.923-3.204c.24-.561.391-1.024.455-1.389.064-.364.037-.615-.08-.752-.117-.137-.285-.15-.505-.04-.22.11-.422.343-.605.7a4.553 4.553 0 0 0-.406 1.19 7.879 7.879 0 0 0-.143 1.41 5.426 5.426 0 0 0 .18 1.493c.13.49.367.863.71 1.12.342.257.765.37 1.269.342.503-.029 1.015-.264 1.534-.705.761-.647 1.537-1.672 2.326-3.075M409.24 626.954c.134-1.718.257-3.097.369-4.136.076-.709.133-1.333.171-1.873.039-.54.06-.944.064-1.214.004-.27-.06-.403-.19-.399-.13.004-.278.183-.445.537-.167.354-.313.833-.436 1.438-.124.604-.223 1.402-.297 2.394a39.092 39.092 0 0 0-.086 3.378c.016 1.261.136 2.432.36 3.512.33 1.585.98 3.57 1.949 5.958" style="fill:none;stroke:#fcfcfc;stroke-width:1.55905;stroke-linecap:round;stroke-linejoin:round;stroke-miterlimit:10;stroke-dasharray:none;stroke-opacity:1" transform="matrix(.72727 0 0 .72727 -75.044 -400.58)"/><path d="M405.315 627.597c1.134-.335 3.51-1.046 7.13-2.133M415.355 629.652c-.109 1.344-.047 3.222.187 5.634M417.496 623.39l-.157.208M424.838 629.386c.285-.397.304-.683.059-.858a2.656 2.656 0 0 0-.544-.3 3.203 3.203 0 0 0-1.793-.147c-.4.072-.778.27-1.133.592a3.046 3.046 0 0 0-.804 1.2 5.268 5.268 0 0 0-.311 1.633c-.027.61.028 1.25.164 1.918.137.668.37 1.302.7 1.9.328.598.72 1.05 1.175 1.356.455.306.925.474 1.411.504.486.03.945-.118 1.378-.446.433-.329.801-.813 1.105-1.454.304-.64.521-1.315.651-2.024.13-.71.207-1.277.229-1.703.022-.426-.098-.89-.358-1.395s-.55-.905-.867-1.202c-.468-.436-.976-.6-1.525-.493M430.294 629.907l.095-.832c.002-.02.005-.01.01.029l.097.858c.06.533.134 1.044.222 1.534s.172 1.055.251 1.697c.08.641.158 1.217.235 1.727.077.51.15.886.219 1.13.069.244.134.386.196.425.06.04.125-.035.193-.224.068-.19.14-.524.215-1.003.076-.48.186-1.036.332-1.67a9.834 9.834 0 0 1 .598-1.806c.254-.57.516-1.072.788-1.507.272-.435.51-.758.712-.97.203-.212.36-.317.474-.315.112.002.186.218.22.649.036.43.058.98.07 1.645.01.665.051 1.354.123 2.068.072.713.187 1.383.347 2.008.159.626.378 1.109.657 1.449.278.34.596.53.954.57.358.041.716-.136 1.076-.532.52-.57 1.175-1.866 1.965-3.888" style="fill:none;stroke:#fcfcfc;stroke-width:1.55905;stroke-linecap:round;stroke-linejoin:round;stroke-miterlimit:10;stroke-dasharray:none;stroke-opacity:1" transform="matrix(.72727 0 0 .72727 -75.044 -400.58)"/><path d="M312.306 672.708c.35-1.96.668-3.603.953-4.929.193-.9.368-1.804.523-2.714.156-.91.253-1.744.292-2.503.04-.76.06-1.408.065-1.946.004-.538-.08-1.015-.25-1.43-.17-.415-.367-.617-.592-.606-.226.012-.456.26-.693.747-.236.486-.44 1.135-.61 1.946-.17.81-.268 1.653-.292 2.526-.024.873.031 1.834.167 2.882.135 1.048.317 2.167.546 3.358.23 1.19.479 2.395.748 3.613.27 1.219.563 2.3.882 3.246.318.945.682 1.65 1.09 2.114.41.464.827.742 1.254.835.427.092.835-.037 1.223-.39.559-.505 1.06-1.906 1.501-4.202M321.85 670.965c.372 1.731.584 2.92.636 3.567.053.651-.002 1.605-.164 2.862M322.094 664.476l-.411 1.667M326.97 662.998c-.09.308-.12.728-.091 1.26.018.344.083.767.194 1.27.11.504.337 1.683.68 3.537.342 1.855.588 3.142.736 3.862.148.72.276 1.277.383 1.672.108.396.186.64.234.734.05.094.079.076.09-.054l.082-.976c.044-.52.124-1.018.241-1.493.117-.474.289-.893.516-1.257.227-.364.476-.626.745-.784a1.72 1.72 0 0 1 .884-.24c.32 0 .67.118 1.048.357.378.24.72.52 1.026.843.306.323.536.685.69 1.087.154.402.226.85.218 1.344-.008.494-.158 1.009-.45 1.543a5.283 5.283 0 0 1-1.141 1.424c-.679.602-1.643.77-2.892.503M340.35 671.298c.644.1 1.857-.099 3.64-.594M353.628 669.36c.204-.264.167-.77-.113-1.52-.184-.493-.374-.765-.57-.814-.196-.05-.442.059-.739.324a5.023 5.023 0 0 0-.835.99c-.26.396-.453.76-.58 1.092-.128.333-.214.73-.26 1.193-.045.461-.018.774.08.938.1.164.28.258.544.28.263.024.604.025 1.022.005.417-.02.912-.059 1.485-.114a9.426 9.426 0 0 1 1.638-.021c.52.04.936.212 1.25.515.315.303.511.724.588 1.262a4.763 4.763 0 0 1-.07 1.674 3.808 3.808 0 0 1-.675 1.518c-.327.436-.704.752-1.13.95-.626.29-1.353.347-2.179.172M360.28 670.143c0 .385.075.927.225 1.624.217 1.011.343 2.699.377 5.063M360.905 663.466c-.078-.28.043-.451.365-.513M366.757 668.655c.214 1.537.404 2.59.571 3.156.115.392.225.792.329 1.201.104.409.199.88.285 1.412a28 28 0 0 1 .203 1.474l.077.713c.003.026.004-.003.004-.09v-2.326c.001-1.466.063-2.488.186-3.068.123-.579.265-1.055.424-1.428.159-.373.292-.613.4-.72.109-.106.211-.111.307-.015.096.097.202.308.319.635.116.326.306.96.57 1.9.264.94.467 1.6.611 1.977.144.378.282.632.412.763.13.13.264.144.4.041.136-.102.388-.674.755-1.714s.689-1.867.964-2.479c.276-.612.527-1.106.754-1.483.227-.376.386-.606.478-.69.091-.084.138.576.14 1.979.002 1.403.034 2.403.096 3 .061.597.188 1.119.378 1.564.191.446.415.726.672.84.362.16.806-.34 1.331-1.502M380.432 669.89c-.065-.774-.115-1.135-.15-1.084l-.184.274c-.098.146-.197.616-.297 1.408-.1.792-.124 1.55-.072 2.276.051.724.234 1.396.547 2.015.313.618.684 1.032 1.114 1.24.43.21.867.24 1.31.09.444-.149.86-.511 1.25-1.087a10.38 10.38 0 0 0 1.026-1.956c.431-1.073.716-2.397.853-3.972M388.915 673.45c.136-.44.263-.955.38-1.546.078-.388.17-.955.278-1.702.107-.746.22-1.588.34-2.524.12-.936.22-1.885.3-2.847.081-.962.134-1.83.158-2.604.025-.775.015-1.339-.03-1.694-.045-.354-.138-.564-.28-.63-.142-.065-.306.05-.49.343-.185.294-.348.728-.49 1.304-.141.576-.226 1.323-.255 2.242-.029.92-.04 2.029-.037 3.329.004 1.3.092 2.642.26 4.026.17 1.384.42 2.626.755 3.725.334 1.099.728 1.927 1.184 2.484.456.557.895.886 1.317.988.598.144 1.446-1.43 2.544-4.724M399.18 671.433c.272-.309.27-.6-.004-.872-.193-.193-.346-.316-.457-.37a.969.969 0 0 0-.39-.088 1.59 1.59 0 0 0-.499.072 1.7 1.7 0 0 0-.58.33 2.59 2.59 0 0 0-.913 1.562 6.465 6.465 0 0 0-.105 1.234c0 .459.077.939.23 1.44.155.5.36.934.614 1.3.254.365.56.604.917.716.357.113.75.125 1.176.037.427-.087.855-.302 1.284-.642a7.35 7.35 0 0 0 1.259-1.322c.41-.54.805-1.192 1.185-1.954s.639-1.459.777-2.09c.137-.63.175-1.096.113-1.398-.063-.303-.212-.442-.448-.418-.237.025-.467.238-.692.642a4.83 4.83 0 0 0-.499 1.437c-.107.556-.17 1.138-.188 1.748-.018.61.034 1.241.155 1.893.121.653.315 1.246.58 1.782.267.535.582.922.948 1.16.517.338 1.428-.338 2.733-2.026M408.618 661.55v-.209l.002.04.027.762a36.12 36.12 0 0 1-.078 3.788 84.84 84.84 0 0 0-.197 5.271c-.004.892-.002 1.714.005 2.465.01 1.112.145 2.357.403 3.734" style="fill:none;stroke:#fcfcfc;stroke-width:1.55905;stroke-linecap:round;stroke-linejoin:round;stroke-miterlimit:10;stroke-dasharray:none;stroke-opacity:1" transform="matrix(.72727 0 0 .72727 -104.175 -391.205)"/><path d="M404.769 669.358c.023-.197.25-.356.68-.476.29-.08.748-.176 1.377-.284.905-.157 2.848-.47 5.827-.938M414.912 670.607c.175 1.386.347 3.547.514 6.482M416.445 664.195l-.235.562M423.301 670.465c.21-.273.316-.51.32-.71a1.009 1.009 0 0 0-.066-.39 1.824 1.824 0 0 0-.262-.432 1.79 1.79 0 0 0-.5-.434 1.855 1.855 0 0 0-.742-.24 2.024 2.024 0 0 0-.917.116c-.32.112-.624.365-.91.761a3.78 3.78 0 0 0-.61 1.38 6.743 6.743 0 0 0-.153 1.72c.019.622.171 1.299.457 2.03.287.73.644 1.359 1.074 1.886.429.527.903.86 1.422.998.52.138 1.033.056 1.54-.247a3.387 3.387 0 0 0 1.227-1.295c.311-.56.522-1.191.63-1.894.11-.703.146-1.428.11-2.175a11.02 11.02 0 0 0-.29-2.086c-.238-.968-.655-1.665-1.254-2.093M428.65 668.938c.015.425.155 1.103.419 2.033.264.93.458 1.693.584 2.288.125.595.244 1.196.356 1.802.112.605.209 1.08.289 1.425.08.345.127.499.142.463l.11-.272c.059-.145.114-.472.164-.983.05-.51.128-1.033.233-1.568.105-.535.251-1.071.44-1.61.187-.539.394-1.054.62-1.547a9.85 9.85 0 0 1 .694-1.286c.239-.365.44-.619.603-.762.163-.144.284-.135.362.027.077.162.14.864.189 2.106.048 1.242.145 2.228.293 2.958.147.73.356 1.37.627 1.92.27.55.58.934.93 1.15.349.218.71.236 1.084.057.374-.18.687-.57.94-1.173.366-.871.568-2.468.606-4.79M444.294 671.408c1.733-.285 2.978-.473 3.735-.563.77-.092 1.677-.247 2.72-.465M458.776 674.524c.085-.356.168-.86.248-1.513.052-.418.103-1.017.154-1.797.05-.78.097-1.647.14-2.603.043-.956.067-1.75.071-2.384.004-.634-.023-1.036-.083-1.207-.059-.17-.15-.08-.271.273-.122.352-.201.92-.237 1.7-.036.782.018 1.615.161 2.5.143.886.372 1.735.685 2.547.313.813.655 1.552 1.025 2.218.37.666.716 1.17 1.037 1.514.322.344.61.54.865.59.255.049.477-.077.665-.38.189-.302.324-.65.404-1.042.08-.394.125-.744.133-1.053.008-.308.004-.504-.012-.588-.015-.084-.028-.104-.038-.06l-.076.327c-.04.175 0 .371.122.589.122.218.327.449.615.694.287.244.638.483 1.053.715.415.232.847.383 1.296.453.449.07.884-.1 1.306-.51.422-.408.765-1.014 1.03-1.815.265-.802.423-1.651.473-2.546.05-.896-.011-1.62-.184-2.171-.173-.552-.382-.928-.63-1.13-.362-.295-.7-.366-1.016-.212M477.209 670.08a1.785 1.785 0 0 1-.536-.498 2.087 2.087 0 0 0-.366-.394 1.636 1.636 0 0 0-.525-.307 2.678 2.678 0 0 0-.664-.134 6.024 6.024 0 0 0-.794-.014c-.279.013-.56.124-.84.333-.282.21-.53.528-.742.957a4.747 4.747 0 0 0-.433 1.492 7.052 7.052 0 0 0-.033 1.649c.054.533.192 1.008.413 1.424.22.417.508.703.862.86.354.158.764.186 1.23.086.467-.1.938-.362 1.414-.788a9.836 9.836 0 0 0 1.33-1.465c.41-.55.734-1.115.975-1.693.24-.579.38-1.07.42-1.474.04-.405-.033-.657-.221-.76-.188-.1-.388-.076-.601.076-.213.151-.371.443-.476.874-.105.43-.155.933-.15 1.506.003.573.125 1.17.365 1.789.239.62.54 1.153.903 1.6.527.649 1.283.92 2.266.811M488.253 668.426c-.033-.172-.338-.3-.916-.384-.578-.085-1.058-.02-1.44.195a4.827 4.827 0 0 0-.94.665c-.245.23-.48.517-.706.864a4.29 4.29 0 0 0-.486.963c-.098.295-.153.55-.163.764-.01.215.047.383.169.505.122.122.312.212.571.27.259.059.57.106.935.142.365.035.765.11 1.2.222.435.112.836.258 1.204.438s.639.417.813.712c.175.295.228.65.16 1.064-.067.414-.297.8-.687 1.156-.391.357-.84.619-1.35.786-.746.246-1.66.289-2.742.128M492.17 668.861c.276 1.543.475 2.7.597 3.47.084.528.18 1.37.286 2.524.107 1.155.176 1.815.207 1.98l.064.343c.012.063.024-.038.036-.304l.067-1.441a14.264 14.264 0 0 1 .698-3.829c.196-.602.397-1.117.601-1.546.205-.428.398-.741.58-.939.181-.198.362-.31.541-.337.18-.026.355.063.527.268.172.206.325.511.458.916s.253.874.358 1.406c.106.533.199 1.06.278 1.584.08.523.165.95.256 1.277.091.329.188.532.29.611.1.08.226-.008.376-.26.15-.254.32-.64.513-1.158a23.44 23.44 0 0 1 .777-1.812c.326-.689.667-1.31 1.024-1.864.356-.554.668-.933.934-1.135.265-.202.458-.19.577.036.119.225.205 1.078.257 2.557.053 1.48.177 2.596.371 3.35.195.754.448 1.377.761 1.868.313.49.686.8 1.117.924.613.178 1.77-1.13 3.473-3.926" style="fill:none;stroke:#fcfcfc;stroke-width:1.55905;stroke-linecap:round;stroke-linejoin:round;stroke-miterlimit:10;stroke-dasharray:none;stroke-opacity:1" transform="matrix(.72727 0 0 .72727 -104.175 -391.205)"/><path d="m466.95 519.382-.31-.808-.005-.013.015.028.303.634c.187.39.45.869.786 1.433.337.565.684 1.086 1.04 1.564s.692.854 1.008 1.128c.316.274.599.443.848.508.25.064.485-.028.705-.277.22-.249.446-.86.679-1.832.233-.973.534-2.171.903-3.594s.78-2.684 1.23-3.782c.453-1.098 1.119-2.489 1.999-4.171" style="fill:none;stroke:#7ec636;stroke-width:1.55905;stroke-linecap:round;stroke-linejoin:round;stroke-miterlimit:10;stroke-dasharray:none;stroke-opacity:1" transform="matrix(.72727 0 0 .72727 -147.782 -248.378)"/><path d="M697.592 518.181c.074.48.467 1.333 1.178 2.563.711 1.23 1.163 1.952 1.354 2.165.192.213.366.35.521.408a.688.688 0 0 0 .504-.017c.18-.07.374-.304.58-.702.206-.398.448-.99.725-1.775.278-.786.634-1.741 1.068-2.866.433-1.125.943-2.417 1.529-3.877s1.186-2.966 1.801-4.52" style="fill:none;stroke:#7ec636;stroke-width:1.55905;stroke-linecap:round;stroke-linejoin:round;stroke-miterlimit:10;stroke-dasharray:none;stroke-opacity:1" transform="matrix(.72727 0 0 .72727 -146.494 -246.561)"/><path d="M569.637 461.217c-.08-.244-.095-.646-.045-1.206.05-.56.127-.964.23-1.209a3.47 3.47 0 0 1 .509-.808c.237-.295.458-.525.662-.69.205-.165.415-.267.63-.306.216-.039.394.056.537.285.142.228.228.554.258.975.03.422.009.899-.065 1.43a4.839 4.839 0 0 1-.426 1.454c-.211.437-.455.764-.732.98a1.752 1.752 0 0 1-.873.382c-.306.037-.599-.052-.877-.267-.279-.216-.508-.545-.686-.988a4.513 4.513 0 0 1-.319-1.373 2.3 2.3 0 0 1 .295-1.322 2.865 2.865 0 0 1 2.134-1.452 1.92 1.92 0 0 1 1.205.225c.366.205.64.525.82.96.18.435.286.938.318 1.508a4.24 4.24 0 0 1-.205 1.607c-.168.5-.397.867-.685 1.098a1.684 1.684 0 0 1-.962.38c-.353.024-.717-.103-1.09-.38-.375-.277-.696-.659-.966-1.145a4.004 4.004 0 0 1-.49-1.525c-.057-.53.009-1.02.198-1.472.19-.452.486-.84.89-1.165.403-.324.832-.521 1.285-.59.454-.07.865.045 1.235.347.37.301.637.723.801 1.265a6.51 6.51 0 0 1 .283 1.607c.023.528-.046.985-.209 1.369-.162.384-.406.655-.73.813-.325.158-.67.238-1.034.239-.364 0-.696-.137-.996-.415a2.38 2.38 0 0 1-.653-1.069 3.35 3.35 0 0 1-.167-1.204c.024-.367.176-.679.457-.934.28-.254.593-.425.937-.51.343-.085.653-.084.928.005.276.089.472.303.59.645.118.341.183.743.195 1.205.012.462-.076.87-.262 1.225-.187.355-.422.603-.705.745a1.479 1.479 0 0 1-.839.166c-.276-.03-.507-.18-.693-.446a2.032 2.032 0 0 1-.34-.948 2.15 2.15 0 0 1 .09-.976.962.962 0 0 1 .563-.594 2.66 2.66 0 0 1 .825-.195c.277-.02.5.068.67.261.17.194.281.455.336.782.054.328.061.652.023.972-.04.32-.133.56-.28.72a.86.86 0 0 1-.48.285c-.173.03-.411-.05-.716-.244-.304-.193-.481-.18-.53.036" style="fill:none;stroke:#007aff;stroke-width:1.55905;stroke-linecap:round;stroke-linejoin:round;stroke-miterlimit:10;stroke-dasharray:none;stroke-opacity:1" transform="matrix(.72727 0 0 .72727 -147.246 -245.909)"/><path d="M570.344 460.675c.247-.16.417-.396.509-.711.062-.212.103-.426.123-.643a2.1 2.1 0 0 0 0-.515c-.022-.127-.1-.2-.237-.221-.137-.02-.28.062-.428.25-.149.186-.26.424-.336.714-.075.29-.125.686-.15 1.188-.027.503.017.794.13.875.113.081.263.125.448.133.185.008.372-.003.563-.032.19-.03.352-.11.484-.24a.997.997 0 0 0 .264-.543 3.24 3.24 0 0 0 .048-.743c-.012-.263-.074-.469-.187-.616-.113-.148-.216-.236-.311-.265-.095-.03-.17.018-.225.143-.056.124-.094.452-.116.984-.022.532.16.728.546.59" style="fill:none;stroke:#007aff;stroke-width:1.55905;stroke-linecap:round;stroke-linejoin:round;stroke-miterlimit:10;stroke-dasharray:none;stroke-opacity:1" transform="matrix(.72727 0 0 .72727 -147.246 -245.909)"/><path d="M541.575 408.247c.248-.926.513-1.438.796-1.536a.99.99 0 0 1 .541-.049c.163.036.309.143.439.32.13.179.212.438.248.779.036.34-.004.698-.121 1.07-.117.374-.31.68-.579.922-.268.24-.567.376-.895.407-.328.03-.644-.05-.946-.243a2.06 2.06 0 0 1-.725-.814 2.74 2.74 0 0 1-.312-1.052c-.027-.352.042-.654.206-.907.164-.254.408-.46.733-.622.325-.16.67-.283 1.033-.367.364-.084.677-.119.939-.104.261.014.447.161.556.442.11.28.147.672.112 1.173a3.325 3.325 0 0 1-.361 1.336c-.206.389-.463.675-.77.857a1.86 1.86 0 0 1-.947.278c-.323.002-.622-.154-.895-.47a3.163 3.163 0 0 1-.621-1.151 5.276 5.276 0 0 1-.243-1.29c-.022-.407.076-.748.292-1.022.216-.275.53-.513.944-.713.413-.2.855-.348 1.325-.444.47-.096.876-.107 1.215-.033.34.075.587.31.741.71.155.397.24.865.255 1.402a3.837 3.837 0 0 1-.222 1.463c-.163.438-.392.772-.687 1.004a1.816 1.816 0 0 1-.983.393c-.361.031-.71-.087-1.048-.355a3.688 3.688 0 0 1-.884-1.053 4.368 4.368 0 0 1-.506-1.224c-.085-.382-.09-.694-.015-.934.074-.24.288-.445.641-.612a4.377 4.377 0 0 1 1.237-.357c.472-.07.901-.081 1.289-.035.387.046.656.184.807.415.15.23.212.646.185 1.247-.027.6-.152 1.067-.375 1.4-.223.334-.505.57-.844.709-.34.138-.684.207-1.034.206-.35 0-.655-.11-.917-.33a1.79 1.79 0 0 1-.554-.791 2.055 2.055 0 0 1-.112-.915c.034-.302.188-.562.462-.78.275-.217.543-.36.805-.426.261-.067.566-.063.915.013a.926.926 0 0 1 .711.6c.125.324.19.697.196 1.12.005.424-.04.755-.137.994-.134.331-.345.158-.633-.521" style="fill:none;stroke:#007aff;stroke-width:1.55905;stroke-linecap:round;stroke-linejoin:round;stroke-miterlimit:10;stroke-dasharray:none;stroke-opacity:1" transform="matrix(.72727 0 0 .72727 -146.807 -246.61)"/><path d="M569.637 461.217c-.08-.244-.095-.646-.045-1.206.05-.56.127-.964.23-1.209a3.47 3.47 0 0 1 .509-.808c.237-.295.458-.525.662-.69.205-.165.415-.267.63-.306.216-.039.394.056.537.285.142.228.228.554.258.975.03.422.009.899-.065 1.43a4.839 4.839 0 0 1-.426 1.454c-.211.437-.455.764-.732.98a1.752 1.752 0 0 1-.873.382c-.306.037-.599-.052-.877-.267-.279-.216-.508-.545-.686-.988a4.513 4.513 0 0 1-.319-1.373 2.3 2.3 0 0 1 .295-1.322 2.865 2.865 0 0 1 2.134-1.452 1.92 1.92 0 0 1 1.205.225c.366.205.64.525.82.96.18.435.286.938.318 1.508a4.24 4.24 0 0 1-.205 1.607c-.168.5-.397.867-.685 1.098a1.684 1.684 0 0 1-.962.38c-.353.024-.717-.103-1.09-.38-.375-.277-.696-.659-.966-1.145a4.004 4.004 0 0 1-.49-1.525c-.057-.53.009-1.02.198-1.472.19-.452.486-.84.89-1.165.403-.324.832-.521 1.285-.59.454-.07.865.045 1.235.347.37.301.637.723.801 1.265a6.51 6.51 0 0 1 .283 1.607c.023.528-.046.985-.209 1.369-.162.384-.406.655-.73.813-.325.158-.67.238-1.034.239-.364 0-.696-.137-.996-.415a2.38 2.38 0 0 1-.653-1.069 3.35 3.35 0 0 1-.167-1.204c.024-.367.176-.679.457-.934.28-.254.593-.425.937-.51.343-.085.653-.084.928.005.276.089.472.303.59.645.118.341.183.743.195 1.205.012.462-.076.87-.262 1.225-.187.355-.422.603-.705.745a1.479 1.479 0 0 1-.839.166c-.276-.03-.507-.18-.693-.446a2.032 2.032 0 0 1-.34-.948 2.15 2.15 0 0 1 .09-.976.962.962 0 0 1 .563-.594 2.66 2.66 0 0 1 .825-.195c.277-.02.5.068.67.261.17.194.281.455.336.782.054.328.061.652.023.972-.04.32-.133.56-.28.72a.86.86 0 0 1-.48.285c-.173.03-.411-.05-.716-.244-.304-.193-.481-.18-.53.036" style="fill:none;stroke:#007aff;stroke-width:1.55905;stroke-linecap:round;stroke-linejoin:round;stroke-miterlimit:10;stroke-dasharray:none;stroke-opacity:1" transform="matrix(.72727 0 0 .72727 -189.205 -331.495)"/><path d="M570.344 460.675c.247-.16.417-.396.509-.711.062-.212.103-.426.123-.643a2.1 2.1 0 0 0 0-.515c-.022-.127-.1-.2-.237-.221-.137-.02-.28.062-.428.25-.149.186-.26.424-.336.714-.075.29-.125.686-.15 1.188-.027.503.017.794.13.875.113.081.263.125.448.133.185.008.372-.003.563-.032.19-.03.352-.11.484-.24a.997.997 0 0 0 .264-.543 3.24 3.24 0 0 0 .048-.743c-.012-.263-.074-.469-.187-.616-.113-.148-.216-.236-.311-.265-.095-.03-.17.018-.225.143-.056.124-.094.452-.116.984-.022.532.16.728.546.59" style="fill:none;stroke:#007aff;stroke-width:1.55905;stroke-linecap:round;stroke-linejoin:round;stroke-miterlimit:10;stroke-dasharray:none;stroke-opacity:1" transform="matrix(.72727 0 0 .72727 -189.205 -331.495)"/><path d="M639.134 387.861c.752.243 2.095.052 4.03-.574M649.888 387.338c1.184.172 2.684.248 4.5.226M663.199 387.78c.958.131 1.89.202 2.8.212.607.007 1.096-.052 1.465-.176M676.534 387.443c.571.23 1.38.336 2.427.318 1.083-.02 1.84-.095 2.272-.226M690.288 387.772c2.04.215 3.67.075 4.889-.42M702.279 387.897c.4.16.936.246 1.61.256.634.01 1.729-.193 3.286-.61" style="fill:none;stroke:#ffff26;stroke-width:1.55905;stroke-linecap:round;stroke-linejoin:round;stroke-miterlimit:10;stroke-dasharray:none;stroke-opacity:1" transform="matrix(.72727 0 0 .72727 -146.666 -243.955)"/></svg>