<svg xmlns="http://www.w3.org/2000/svg" width="236.751" height="17.49"><path d="M204.652 236.865c-.052-.284.062-.74.34-1.37.176-.4.43-.977.76-1.734s.657-1.559.984-2.406a46.23 46.23 0 0 0 .862-2.423c.249-.77.406-1.397.472-1.883.066-.485.053-.817-.041-.994-.094-.177-.272-.22-.535-.127-.262.093-.523.29-.783.594a4.13 4.13 0 0 0-.65 1.058 4.425 4.425 0 0 0-.334 1.29c-.05.458-.044.903.015 1.335.06.431.195.832.408 1.202.213.37.5.715.86 1.037.362.32.822.62 1.381.895.56.275 1.154.53 1.784.764.63.234 1.216.477 1.756.73s.99.532 1.347.837c.358.305.581.655.672 1.049.09.394.04.812-.147 1.255-.188.442-.48.879-.875 1.31a7.01 7.01 0 0 1-1.321 1.123c-.703.462-1.5.452-2.39-.028M218.064 223.68c-.075-.092-.138-.04-.186.151-.049.193-.078.77-.088 1.734-.01.964-.01 1.899-.001 2.804.009.906.025 1.873.049 2.901.023 1.029.052 1.902.087 2.62.05 1.045.242 2.63.572 4.755" style="fill:none;stroke:#ff21b3;stroke-width:1.55905;stroke-linecap:round;stroke-linejoin:round;stroke-miterlimit:10;stroke-dasharray:none;stroke-opacity:1" transform="matrix(.72727 0 0 .72727 -148.257 -158.15)"/><path d="M213.136 229.482h-.11c-.011 0 .029-.035.12-.105l.512-.392c.25-.192.675-.4 1.273-.624a18.4 18.4 0 0 1 1.691-.548c.764-.204 2.197-.448 4.296-.73M221.768 231.27v-.102c0-.007.026.07.078.234l.396 1.238c.212.663.376 1.25.492 1.763.116.513.205 1.018.268 1.514.063.497.106.937.13 1.32l.04.633c.002.04 0 .052-.004.039l-.083-.22c-.05-.133-.137-.464-.261-.993-.125-.53-.25-1.14-.378-1.83a28.422 28.422 0 0 1-.285-1.87 19.461 19.461 0 0 1-.12-1.414 6.729 6.729 0 0 1 .004-.837c.017-.172.08-.27.186-.298.108-.027.306.026.597.157.29.131.661.284 1.113.457.452.173.927.296 1.428.368.724.105 1.852-.132 3.386-.71M231.673 230.888c0-.097-.058-.232-.173-.403-.115-.172-.208-.268-.279-.29-.07-.023-.146.01-.227.1-.08.09-.144.254-.188.493a5.54 5.54 0 0 0-.068.966c0 .405.062.919.186 1.542s.305 1.283.543 1.979c.238.696.531 1.295.881 1.797s.721.83 1.114.986c.393.155.776.142 1.151-.04.375-.18.678-.487.907-.918a5.07 5.07 0 0 0 .497-1.49c.102-.563.16-1.127.174-1.694.014-.566-.017-1.04-.093-1.423-.115-.576-.325-1.045-.629-1.406M241.632 230.513c.147-.112.242-.304.284-.577.028-.181.04-.327.035-.436a.391.391 0 0 0-.145-.285c-.092-.08-.237-.132-.435-.154-.198-.022-.443.047-.733.206-.291.159-.584.432-.879.82-.295.388-.538.883-.728 1.486a6.486 6.486 0 0 0-.3 1.857c-.01.635.102 1.179.335 1.633.233.453.548.804.943 1.052.396.247.802.395 1.218.442.415.048.84-.036 1.27-.252.432-.216.822-.505 1.168-.866.51-.532.955-1.263 1.334-2.195M248.385 221.153c-.365 1.406-.601 3.073-.707 5-.07 1.263-.127 2.424-.172 3.483-.046 1.058-.08 2.111-.103 3.16a33.32 33.32 0 0 0 .189 4.494" style="fill:none;stroke:#ff21b3;stroke-width:1.55905;stroke-linecap:round;stroke-linejoin:round;stroke-miterlimit:10;stroke-dasharray:none;stroke-opacity:1" transform="matrix(.72727 0 0 .72727 -148.257 -158.15)"/><path d="M244.606 229.143c-.136-.047-.038-.14.294-.278a9.13 9.13 0 0 1 1.272-.403c.742-.187 2.388-.565 4.939-1.136M264.661 224.843l.012-.544c0-.014.004-.002.01.035l.13.772c.08.477.209 1.228.384 2.253.175 1.024.306 1.902.392 2.633.087.73.146 1.622.177 2.673.032 1.052.046 1.8.045 2.245-.002.445-.03.712-.086.803-.055.091-.164-.05-.325-.422-.161-.373-.328-1.002-.5-1.888a87.34 87.34 0 0 0-.677-3.117 110.255 110.255 0 0 0-.894-3.557 72.566 72.566 0 0 1-.758-3.042 26.274 26.274 0 0 1-.386-2.031c-.07-.507-.11-.887-.122-1.14-.012-.252.04-.419.154-.5.114-.08.291-.108.532-.083.24.024.532.11.873.259.341.148.722.3 1.141.452.42.154.889.268 1.408.342.52.075 1.03.089 1.533.041.502-.048.923-.15 1.263-.306.51-.234.837-.535.981-.902" style="fill:none;stroke:#ff21b3;stroke-width:1.55905;stroke-linecap:round;stroke-linejoin:round;stroke-miterlimit:10;stroke-dasharray:none;stroke-opacity:1" transform="matrix(.72727 0 0 .72727 -148.257 -158.15)"/><path d="M265.09 228.23c1.163.078 2.44.094 3.833.048M273.856 230.62c.23-.468.36-.859.387-1.173.019-.215-.007-.388-.075-.52a.926.926 0 0 0-.347-.348c-.163-.101-.397-.161-.703-.18-.306-.018-.648.068-1.027.258-.38.19-.733.461-1.06.81-.328.35-.582.754-.761 1.21a3.86 3.86 0 0 0-.248 1.527 3.23 3.23 0 0 0 .444 1.565c.281.483.647.896 1.098 1.238.45.343.92.577 1.411.703.49.126.969.117 1.436-.027.466-.144.898-.414 1.294-.809.396-.395.68-.867.853-1.417a3.85 3.85 0 0 0 .168-1.61 3.14 3.14 0 0 0-.513-1.413c-.416-.617-1.041-1.137-1.877-1.558M283.509 229.247a7.451 7.451 0 0 0-1.02-.75 3.384 3.384 0 0 0-.825-.373 3.727 3.727 0 0 0-1.018-.137c-.388-.004-.762.127-1.122.394-.36.266-.663.663-.91 1.19-.247.528-.385 1.137-.414 1.828-.03.69.09 1.373.357 2.048.268.674.65 1.209 1.144 1.603a2.515 2.515 0 0 0 1.678.567 3.081 3.081 0 0 0 1.725-.577 4.4 4.4 0 0 0 1.282-1.395c.328-.56.54-1.17.637-1.832a6.6 6.6 0 0 0-.006-1.974 5.219 5.219 0 0 0-.606-1.789c-.449-.796-1.123-1.421-2.023-1.877" style="fill:none;stroke:#ff21b3;stroke-width:1.55905;stroke-linecap:round;stroke-linejoin:round;stroke-miterlimit:10;stroke-dasharray:none;stroke-opacity:1" transform="matrix(.72727 0 0 .72727 -148.257 -158.15)"/><path d="M300.574 231.318c.393.169.868.257 1.426.266.368.006 1.002-.023 1.902-.088l2.882-.202c1.488-.102 3.762-.17 6.821-.205" style="fill:none;stroke:#000;stroke-width:1.55905;stroke-linecap:round;stroke-linejoin:round;stroke-miterlimit:10;stroke-dasharray:none;stroke-opacity:1" transform="matrix(.72727 0 0 .72727 -148.257 -158.15)"/><path d="M311.134 236.925c.712-.308 1.267-.587 1.665-.838.271-.172.764-.47 1.477-.896a121.87 121.87 0 0 0 1.773-1.074 27.934 27.934 0 0 0 2.486-1.741c.34-.269.62-.513.837-.732.218-.22.376-.425.476-.617.1-.192.159-.378.179-.558.02-.18-.05-.36-.21-.538-.16-.178-.426-.361-.8-.55a24.789 24.789 0 0 0-1.436-.655 27.152 27.152 0 0 1-1.934-.925 25.591 25.591 0 0 1-1.943-1.12c-.868-.555-1.98-1.18-3.334-1.872" style="fill:none;stroke:#000;stroke-width:1.55905;stroke-linecap:round;stroke-linejoin:round;stroke-miterlimit:10;stroke-dasharray:none;stroke-opacity:1" transform="matrix(.72727 0 0 .72727 -148.257 -158.15)"/><path d="M336.549 227.901c.058-.44.06-.73.007-.868a1.853 1.853 0 0 0-.135-.278 2.816 2.816 0 0 0-.583-.67 1.491 1.491 0 0 0-.467-.267c-.174-.062-.388-.06-.643.004-.254.065-.538.26-.852.584a5.207 5.207 0 0 0-.853 1.227 6.54 6.54 0 0 0-.572 1.572 7.794 7.794 0 0 0-.188 1.74c0 .605.097 1.18.29 1.722.191.543.459 1.027.801 1.452.342.425.706.749 1.091.972.385.224.814.334 1.287.332.473-.002.95-.16 1.429-.472.48-.312.868-.713 1.166-1.203.298-.49.5-1.03.607-1.618a6.959 6.959 0 0 0 .126-1.575c-.023-.461-.208-1.02-.553-1.674-.346-.656-.725-1.169-1.139-1.54-.63-.568-1.223-.978-1.776-1.23M341.031 234.518c.36-.471.667-.837.922-1.097.174-.177.328-.325.461-.444.134-.118.295-.243.484-.373.275-.19.729-.409 1.36-.655" style="fill:none;stroke:#7ec636;stroke-width:1.46015;stroke-linecap:round;stroke-linejoin:round;stroke-miterlimit:10;stroke-dasharray:none;stroke-opacity:1" transform="matrix(.72727 0 0 .72727 -148.257 -158.15)"/><path d="M341.515 230.988c.528.293 1.217 1.336 2.065 3.13M351.53 227.641c-.014-.368-.057-.614-.128-.735a.886.886 0 0 0-.174-.216.787.787 0 0 0-.285-.149 1.173 1.173 0 0 0-.486-.024c-.2.023-.426.117-.678.281-.253.164-.517.412-.794.742-.276.33-.511.726-.706 1.187-.196.46-.325.983-.39 1.568a3.822 3.822 0 0 0 .187 1.694c.19.544.457 1.011.802 1.4.345.39.719.673 1.121.85a2.28 2.28 0 0 0 1.29.162c.457-.07.88-.253 1.269-.549.39-.296.706-.63.95-1.006.245-.375.415-.779.51-1.212.096-.433.103-.907.022-1.421-.082-.515-.313-1.02-.694-1.514a5.476 5.476 0 0 0-1.278-1.217c-.695-.468-1.43-.619-2.204-.453M359.02 226.654a1.465 1.465 0 0 0-.066-.417 1.318 1.318 0 0 0-.14-.27 1.32 1.32 0 0 0-.196-.247 1.715 1.715 0 0 0-.328-.216 1.841 1.841 0 0 0-.518-.185 2.345 2.345 0 0 0-.497-.055c-.143.002-.294.1-.452.294a1.4 1.4 0 0 0-.299.694c-.04.268-.026.564.04.887.067.323.149.632.246.928.097.296.189.562.275.797.087.236.17.435.248.6.078.163.19.173.335.029.145-.145.277-.258.396-.34.12-.082.266-.137.439-.163a2.26 2.26 0 0 1 .64.015c.255.036.536.138.845.307.308.168.598.397.868.684a3.244 3.244 0 0 1 .863 1.99c.02.335-.053.666-.217.993-.164.326-.44.615-.827.866-.387.251-.8.408-1.238.47a2.245 2.245 0 0 1-1.74-.445" style="fill:none;stroke:#7ec636;stroke-width:1.46015;stroke-linecap:round;stroke-linejoin:round;stroke-miterlimit:10;stroke-dasharray:none;stroke-opacity:1" transform="matrix(.72727 0 0 .72727 -148.257 -158.15)"/><path d="M379.712 227.872a7.28 7.28 0 0 0-.058-1.055c-.031-.262-.07-.48-.116-.656a1.483 1.483 0 0 0-.218-.479 1.116 1.116 0 0 0-.397-.346 1.455 1.455 0 0 0-.592-.156c-.23-.016-.498.052-.804.204-.306.153-.605.41-.897.77-.292.36-.553.792-.784 1.295a6.796 6.796 0 0 0-.51 1.734 7.178 7.178 0 0 0-.062 1.926c.066.631.233 1.24.5 1.825s.609 1.1 1.025 1.545c.416.445.872.754 1.37.928.497.173.957.206 1.382.098.424-.108.796-.374 1.114-.8.319-.427.551-.947.698-1.563a9.547 9.547 0 0 0 .242-2.014 9.5 9.5 0 0 0-.234-2.253 9.543 9.543 0 0 0-.685-2.056c-.427-.893-.999-1.557-1.716-1.991M384.125 234.2c.5-.723.95-1.238 1.345-1.543.271-.21.656-.485 1.154-.828a291.39 291.39 0 0 0 1.703-1.177" style="fill:none;stroke:#7ec636;stroke-width:1.47991;stroke-linecap:round;stroke-linejoin:round;stroke-miterlimit:10;stroke-dasharray:none;stroke-opacity:1" transform="matrix(.72727 0 0 .72727 -148.257 -158.15)"/><path d="M384.822 229.256a166.362 166.362 0 0 0 2.18 4.861M392.291 227.255l-.009-.585v-.005.019l-.001.567c0 .359.056.873.17 1.542.113.67.215 1.31.307 1.922.092.612.181 1.17.267 1.677.086.506.167.932.243 1.28l.122.555c.005.023.005.03 0 .02-.003-.011-.038-.094-.102-.248a26.654 26.654 0 0 1-.359-.968c-.175-.491-.372-1.09-.592-1.797a52.706 52.706 0 0 0-.675-2.033 68.276 68.276 0 0 1-.574-1.67 10.49 10.49 0 0 1-.322-1.171 6.659 6.659 0 0 1-.109-.668c-.01-.13.062-.22.216-.27.153-.05.39-.048.71.006.32.054.703.128 1.146.222.444.094.921.158 1.432.194.511.036.954.059 1.328.07a2.876 2.876 0 0 1 1.508.456" style="fill:none;stroke:#7ec636;stroke-width:1.47991;stroke-linecap:round;stroke-linejoin:round;stroke-miterlimit:10;stroke-dasharray:none;stroke-opacity:1" transform="matrix(.72727 0 0 .72727 -148.257 -158.15)"/><path d="M393.443 229.84c.006.093.166.14.479.143.452.004 1.356-.144 2.713-.444M400.012 225.924c.005.276.067.678.186 1.204.119.527.282 1.269.49 2.226.208.957.353 1.678.433 2.163.081.486.133.88.155 1.182.022.302.033.488.032.558l-.002.133c0 .02-.012.01-.034-.028l-.155-.263c-.08-.138-.207-.445-.379-.922a60.368 60.368 0 0 1-.569-1.67 52.53 52.53 0 0 1-.54-1.748 7.862 7.862 0 0 1-.285-1.35c-.038-.37-.025-.663.038-.88a.69.69 0 0 1 .412-.462c.212-.09.496-.142.851-.156a8.49 8.49 0 0 1 1.166.045c.422.043.815.082 1.18.116a7.979 7.979 0 0 1 1.537.287" style="fill:none;stroke:#7ec636;stroke-width:1.47991;stroke-linecap:round;stroke-linejoin:round;stroke-miterlimit:10;stroke-dasharray:none;stroke-opacity:1" transform="matrix(.72727 0 0 .72727 -148.257 -158.15)"/><path d="M401.688 229.956c.454-.04 1.461-.05 3.023-.033" style="fill:none;stroke:#7ec636;stroke-width:1.47991;stroke-linecap:round;stroke-linejoin:round;stroke-miterlimit:10;stroke-dasharray:none;stroke-opacity:1" transform="matrix(.72727 0 0 .72727 -148.257 -158.15)"/><path d="M416.46 228.207c2.394-.019 4.357-.008 5.89.031 1.042.028 2.06.048 3.052.063 1.466.022 3.2-.022 5.2-.133" style="fill:none;stroke:#000;stroke-width:1.55905;stroke-linecap:round;stroke-linejoin:round;stroke-miterlimit:10;stroke-dasharray:none;stroke-opacity:1" transform="matrix(.72727 0 0 .72727 -148.257 -158.15)"/><path d="M427.948 222.656h-.118.199c.122 0 .288.028.5.084.21.056.461.134.752.235.29.101.665.262 1.122.482.457.22.958.502 1.504.845.546.344 1.045.693 1.496 1.049.451.355.854.698 1.208 1.027.354.328.65.624.887.887.238.263.531.616.879 1.06.347.445.556.726.625.844.07.117.05.211-.06.282a4 4 0 0 1-.561.273c-.265.112-.635.275-1.11.489-.475.213-1.07.484-1.783.81-.714.327-1.535.693-2.463 1.099a100.556 100.556 0 0 1-5.03 2.006" style="fill:none;stroke:#000;stroke-width:1.55905;stroke-linecap:round;stroke-linejoin:round;stroke-miterlimit:10;stroke-dasharray:none;stroke-opacity:1" transform="matrix(.72727 0 0 .72727 -148.257 -158.15)"/><path d="M456.816 227.64c0-.723-.028-1.155-.081-1.297-.037-.099-.145-.21-.323-.336a1.543 1.543 0 0 0-.657-.248c-.26-.04-.573-.019-.94.064s-.741.27-1.123.56c-.383.29-.736.687-1.06 1.192a7.752 7.752 0 0 0-.814 1.737 6.767 6.767 0 0 0-.343 2.067c-.01.724.088 1.336.294 1.836.205.5.62 1.067 1.243 1.701.623.634 1.27 1.077 1.939 1.33.67.253 1.32.311 1.95.174.912-.199 1.868-1.014 2.868-2.446M462.682 229.375l-.058.31c-.002.012.003.005.016-.02l.191-.373c.114-.222.244-.54.39-.956.147-.415.306-.927.48-1.535.172-.609.335-1.257.487-1.944.153-.688.274-1.384.365-2.088.09-.703.145-1.372.166-2.006.021-.633.01-1.154-.037-1.562-.045-.408-.134-.686-.265-.835-.131-.148-.3-.17-.508-.065-.207.105-.432.392-.676.862-.243.47-.45 1.106-.621 1.906-.17.801-.3 1.747-.39 2.84a28.033 28.033 0 0 0-.062 3.383c.046 1.165.2 2.19.463 3.075.263.885.613 1.569 1.052 2.05.44.482.887.78 1.343.896.457.116.928.064 1.414-.154.701-.314 1.517-1.337 2.447-3.07M474.108 227.207c.12-.262.16-.516.117-.763a.898.898 0 0 0-.161-.402 1.966 1.966 0 0 0-.29-.297 1.35 1.35 0 0 0-.404-.232 1.902 1.902 0 0 0-.528-.107 1.3 1.3 0 0 0-.618.12c-.215.093-.428.264-.64.512-.212.247-.404.588-.576 1.02a5.6 5.6 0 0 0-.348 1.393 6.293 6.293 0 0 0 .007 1.538c.065.53.214 1.029.447 1.498.233.47.482.831.747 1.085.265.253.629.438 1.092.555.462.117.894.06 1.293-.17.4-.23.784-.597 1.153-1.1a8.41 8.41 0 0 0 .947-1.675c.263-.614.441-1.223.535-1.828a9.315 9.315 0 0 0 .125-1.628c-.01-.481-.092-.877-.244-1.186-.151-.31-.336-.508-.552-.595a.592.592 0 0 0-.615.089c-.193.146-.344.43-.454.854-.11.423-.175.94-.194 1.555-.019.614.03 1.257.147 1.93.116.671.303 1.285.56 1.84.258.554.567.963.926 1.225.515.376 1.196.302 2.04-.221M483.347 226.61c.124-.072.29-.366.496-.88.206-.516.32-.842.34-.98a.561.561 0 0 0-.068-.377c-.066-.113-.193-.191-.382-.234a1.333 1.333 0 0 0-.64.03 1.482 1.482 0 0 0-.646.371 2.107 2.107 0 0 0-.475.703 2.977 2.977 0 0 0-.13 1.948c.093.347.229.655.408.923.18.268.41.495.69.68.28.186.633.354 1.062.503.429.15.863.319 1.302.509.44.19.794.4 1.065.633.27.233.442.49.517.771.075.281.076.579.005.893-.072.314-.238.621-.5.923a3.024 3.024 0 0 1-.997.74c-.585.28-1.357.248-2.315-.098M491.504 225.355c0-.111-.052-.262-.155-.454-.103-.192-.223-.3-.36-.324-.137-.024-.333.015-.59.116a2.52 2.52 0 0 0-.755.488 2.92 2.92 0 0 0-.61.775c-.16.292-.262.598-.305.916a2.54 2.54 0 0 0 .023.89c.059.273.189.505.389.695.2.19.472.328.818.414.346.086.734.148 1.165.184.432.037.855.099 1.27.185.417.087.784.22 1.103.4.319.18.538.395.658.647.12.251.141.544.065.878-.075.335-.281.684-.618 1.047a5.327 5.327 0 0 1-1.156.938 3.368 3.368 0 0 1-2.11.476M508.905 231.582a1.157 1.157 0 0 0-.071-.417 52.57 52.57 0 0 1-.05-.11c-.005-.012-.008-.008-.01.012l-.004.192c-.003.108.017.319.061.633.044.313.12.676.227 1.089.107.412.228.879.361 1.4.133.522.242 1.009.327 1.462.085.452.144.764.178.934l.055.276c.003.013.004.015.004.007l.005-.18c.003-.112-.033-.485-.108-1.12a65.194 65.194 0 0 0-.35-2.446 26.524 26.524 0 0 0-.666-3.017 33.996 33.996 0 0 0-1.012-3.038c-.39-1.01-.742-1.927-1.058-2.754a87.613 87.613 0 0 1-.767-2.068 47.53 47.53 0 0 1-.488-1.444l-.206-.65c-.007-.021-.007-.027 0-.017l.206.293c.13.186.326.368.589.548.262.179.623.299 1.082.36.459.06 1.027.06 1.703-.001a8.369 8.369 0 0 0 2.104-.488c.726-.264 1.395-.55 2.007-.857.933-.468 1.591-.995 1.977-1.58" style="fill:none;stroke:#239cff;stroke-width:1.55905;stroke-linecap:round;stroke-linejoin:round;stroke-miterlimit:10;stroke-dasharray:none;stroke-opacity:1" transform="matrix(.72727 0 0 .72727 -148.257 -158.15)"/><path d="m509.267 229.546-.103.01a.406.406 0 0 1 .077-.05l.58-.344c.33-.195.8-.47 1.41-.822.9-.52 2.014-1.028 3.34-1.523M518.462 229.576c-.1-.13-.251-.277-.453-.443-.131-.108-.288-.228-.471-.361a4.3 4.3 0 0 0-.649-.38 3.673 3.673 0 0 0-.79-.277 2.458 2.458 0 0 0-.77-.063c-.234.022-.44.155-.618.399-.178.244-.3.596-.364 1.057-.066.46-.029 1.013.111 1.658a5.34 5.34 0 0 0 .76 1.808c.368.56.784.99 1.25 1.287.465.298.933.458 1.403.48a1.87 1.87 0 0 0 1.247-.376c.36-.271.632-.64.815-1.108a4.12 4.12 0 0 0 .278-1.49 3.412 3.412 0 0 0-.281-1.429 4.725 4.725 0 0 0-.611-1.04 3.65 3.65 0 0 0-.951-.862l-.137-.08M527.318 227.941a2.305 2.305 0 0 1-.336-.338 2.238 2.238 0 0 0-.266-.269 1.74 1.74 0 0 0-.49-.27 3.156 3.156 0 0 0-.775-.187 10.76 10.76 0 0 0-.927-.074 3.766 3.766 0 0 0-.962.088c-.318.071-.61.235-.876.491-.266.257-.481.646-.647 1.167-.165.522-.24 1.122-.225 1.801.015.679.172 1.348.471 2.007.3.66.676 1.184 1.13 1.575.453.391.97.634 1.552.728a2.946 2.946 0 0 0 1.667-.2 3.05 3.05 0 0 0 1.274-.984c.318-.429.527-.95.626-1.563.1-.614.096-1.248-.009-1.905a6.247 6.247 0 0 0-.584-1.832 13.601 13.601 0 0 0-.879-1.516 8.793 8.793 0 0 0-1.499-1.716" style="fill:none;stroke:#239cff;stroke-width:1.55905;stroke-linecap:round;stroke-linejoin:round;stroke-miterlimit:10;stroke-dasharray:none;stroke-opacity:1" transform="matrix(.72727 0 0 .72727 -148.257 -158.15)"/></svg>