<svg xmlns="http://www.w3.org/2000/svg" width="222.71" height="85.65"><path d="m146.912 420.362-22.241-34.135h45.693z" style="fill:#fff;fill-opacity:.1;fill-rule:nonzero;stroke:none" transform="matrix(1.33333 0 0 -1.33333 -165.661 571.207)"/><path d="m184.777 159.53-40.775 62.581h83.77l-42.995-62.58" style="fill:none;stroke:#fff;stroke-width:1.55905;stroke-linecap:round;stroke-linejoin:round;stroke-miterlimit:10;stroke-dasharray:none;stroke-opacity:1" transform="matrix(.72727 0 0 .72727 -104.162 -105.299)"/><path d="m226.354 406.685-33.103 21.31.244-44.153z" style="fill:#fff;fill-opacity:.1;fill-rule:nonzero;stroke:none" transform="matrix(1.33333 0 0 -1.33333 -165.661 571.207)"/><path d="m392.03 200.51-60.69-39.067.447 80.947 60.242-41.88" style="fill:none;stroke:#fff;stroke-width:1.50654;stroke-linecap:round;stroke-linejoin:round;stroke-miterlimit:10;stroke-dasharray:none;stroke-opacity:1" transform="matrix(.72727 0 0 .72727 -148.968 -116.866)"/><path d="m267.553 381.484 23.279 35.917-48.003-.116z" style="fill:#fff;fill-opacity:.1;fill-rule:nonzero;stroke:none" transform="matrix(1.33333 0 0 -1.33333 -165.661 571.207)"/><path d="m499.744 225.091 42.677-65.847-88.005.212 45.328 65.635" style="fill:none;stroke:#fff;stroke-width:1.63788;stroke-linecap:round;stroke-linejoin:round;stroke-miterlimit:10;stroke-dasharray:none;stroke-opacity:1" transform="matrix(.72727 0 0 .72727 -172.374 -101.142)"/><path d="M147.936 251.038c.116.366.215.781.297 1.247.054.307.105.72.154 1.238.05.518.08 1.114.094 1.789.013.674.016 1.327.009 1.958a27.46 27.46 0 0 1-.066 1.695c-.036.498-.079.878-.126 1.14-.047.261-.1.421-.157.48-.056.058-.132-.026-.225-.252-.093-.225-.184-.581-.273-1.068a26.337 26.337 0 0 1-.375-3.242c-.031-.57-.048-1.092-.05-1.563-.004-.472.023-.852.079-1.139.056-.287.142-.509.26-.666a.933.933 0 0 1 .451-.33 2.65 2.65 0 0 1 .716-.118 59.34 59.34 0 0 1 2.098-.025 50.277 50.277 0 0 0 3.275-.11M159.735 253.262c-.018-.256-.18-.496-.484-.72a2.067 2.067 0 0 0-.636-.32 4.358 4.358 0 0 0-.71-.145 8.06 8.06 0 0 0-.766-.057 1.765 1.765 0 0 0-.796.18c-.274.128-.54.344-.799.648a3.758 3.758 0 0 0-.643 1.15c-.17.462-.27.986-.304 1.571a4.127 4.127 0 0 0 .228 1.65c.185.513.436.95.754 1.309a2.95 2.95 0 0 0 1.082.79c.403.167.851.22 1.343.156a2.957 2.957 0 0 0 1.362-.542c.416-.298.747-.653.993-1.066.245-.412.414-.891.506-1.436a8.316 8.316 0 0 0 .123-1.564c-.01-.499-.108-.937-.293-1.314-.184-.377-.397-.674-.64-.892-.361-.325-.728-.477-1.1-.457M165.882 246.137c-.048.096-.127.47-.236 1.12-.11.652-.215 1.784-.315 3.398-.1 1.613-.163 2.82-.188 3.618-.025.798-.04 1.52-.042 2.168-.004.991.06 1.83.19 2.52" style="fill:none;stroke:#239cff;stroke-width:1.55905;stroke-linecap:round;stroke-linejoin:round;stroke-miterlimit:10;stroke-dasharray:none;stroke-opacity:1" transform="matrix(.72727 0 0 .72727 -99.475 -106.944)"/><path d="M162.357 250.194c.734-.179 1.321-.286 1.762-.323.301-.025.666-.041 1.096-.047.627-.01 1.504.082 2.631.275M169.772 259.292l-.16-.131M175.846 250.774c.356-.033.983-.073 1.879-.118.556-.029.987-.047 1.29-.056.453-.013.94 0 1.462.04M175.26 255.873h-.088a7.884 7.884 0 0 1 1.708-.424c.57-.084 1.75-.1 3.541-.044" style="fill:none;stroke:#239cff;stroke-width:1.55905;stroke-linecap:round;stroke-linejoin:round;stroke-miterlimit:10;stroke-dasharray:none;stroke-opacity:1" transform="matrix(.72727 0 0 .72727 -99.475 -106.944)"/><path d="M308.414 250.51c.124.374.231.8.32 1.278.06.314.118.738.175 1.27.057.532.096 1.144.118 1.838.022.693.034 1.364.034 2.013 0 .649-.015 1.23-.046 1.743-.032.513-.07.904-.116 1.174-.045.269-.097.434-.155.494-.058.061-.136-.024-.235-.255-.098-.23-.196-.596-.294-1.095a27.024 27.024 0 0 1-.426-3.328 34.455 34.455 0 0 1-.071-1.607c-.01-.485.014-.875.068-1.171.054-.296.14-.525.259-.688a.959.959 0 0 1 .46-.345c.188-.068.433-.111.734-.13.302-.019 1.02-.036 2.157-.051a51.505 51.505 0 0 0 3.365-.155M320.572 252.65c-.023-.264-.192-.509-.507-.734a2.127 2.127 0 0 0-.657-.323 4.482 4.482 0 0 0-.732-.14 8.297 8.297 0 0 0-.789-.048 1.815 1.815 0 0 0-.816.195c-.28.134-.55.36-.813.676-.262.316-.478.712-.646 1.19a5.591 5.591 0 0 0-.294 1.619 4.243 4.243 0 0 0 .255 1.692c.196.526.46.972.791 1.337s.705.631 1.122.799c.417.167.878.215 1.383.144.505-.071.97-.263 1.394-.574a3.62 3.62 0 0 0 1.007-1.108 4.25 4.25 0 0 0 .503-1.483 8.55 8.55 0 0 0 .106-1.61c-.016-.512-.122-.961-.317-1.347-.194-.385-.417-.688-.668-.909-.376-.329-.755-.481-1.138-.456M326.803 245.248c-.048.1-.125.485-.23 1.155-.104.67-.198 1.836-.28 3.496-.084 1.66-.133 2.901-.15 3.722-.015.821-.02 1.564-.015 2.23.008 1.018.083 1.881.226 2.587" style="fill:none;stroke:#239cff;stroke-width:1.60288;stroke-linecap:round;stroke-linejoin:round;stroke-miterlimit:10;stroke-dasharray:none;stroke-opacity:1" transform="matrix(.72727 0 0 .72727 -134.684 -105.209)"/><path d="M323.229 249.462c.752-.192 1.355-.31 1.808-.353.309-.03.684-.05 1.125-.062.645-.018 1.548.066 2.709.25M330.965 258.724l-.166-.133M337.103 249.892c.366-.039 1.01-.087 1.93-.145.572-.036 1.014-.06 1.327-.073.465-.02.966-.012 1.502.022M336.564 255.141l-.09.001a.27.27 0 0 1 .049-.016l.573-.18a8.113 8.113 0 0 1 1.128-.26c.585-.095 1.799-.125 3.64-.09" style="fill:none;stroke:#239cff;stroke-width:1.60288;stroke-linecap:round;stroke-linejoin:round;stroke-miterlimit:10;stroke-dasharray:none;stroke-opacity:1" transform="matrix(.72727 0 0 .72727 -134.684 -105.209)"/><path d="M147.936 251.038c.116.366.215.781.297 1.247.054.307.105.72.154 1.238.05.518.08 1.114.094 1.789.013.674.016 1.327.009 1.958a27.46 27.46 0 0 1-.066 1.695c-.036.498-.079.878-.126 1.14-.047.261-.1.421-.157.48-.056.058-.132-.026-.225-.252-.093-.225-.184-.581-.273-1.068a26.337 26.337 0 0 1-.375-3.242c-.031-.57-.048-1.092-.05-1.563-.004-.472.023-.852.079-1.139.056-.287.142-.509.26-.666a.933.933 0 0 1 .451-.33 2.65 2.65 0 0 1 .716-.118 59.34 59.34 0 0 1 2.098-.025 50.277 50.277 0 0 0 3.275-.11M159.735 253.262c-.018-.256-.18-.496-.484-.72a2.067 2.067 0 0 0-.636-.32 4.358 4.358 0 0 0-.71-.145 8.06 8.06 0 0 0-.766-.057 1.765 1.765 0 0 0-.796.18c-.274.128-.54.344-.799.648a3.758 3.758 0 0 0-.643 1.15c-.17.462-.27.986-.304 1.571a4.127 4.127 0 0 0 .228 1.65c.185.513.436.95.754 1.309a2.95 2.95 0 0 0 1.082.79c.403.167.851.22 1.343.156a2.957 2.957 0 0 0 1.362-.542c.416-.298.747-.653.993-1.066.245-.412.414-.891.506-1.436a8.316 8.316 0 0 0 .123-1.564c-.01-.499-.108-.937-.293-1.314-.184-.377-.397-.674-.64-.892-.361-.325-.728-.477-1.1-.457M165.882 246.137c-.048.096-.127.47-.236 1.12-.11.652-.215 1.784-.315 3.398-.1 1.613-.163 2.82-.188 3.618-.025.798-.04 1.52-.042 2.168-.004.991.06 1.83.19 2.52" style="fill:none;stroke:#239cff;stroke-width:1.55905;stroke-linecap:round;stroke-linejoin:round;stroke-miterlimit:10;stroke-dasharray:none;stroke-opacity:1" transform="matrix(.72727 0 0 .72727 57.39 -104.57)"/><path d="M162.357 250.194c.734-.179 1.321-.286 1.762-.323.301-.025.666-.041 1.096-.047.627-.01 1.504.082 2.631.275M169.772 259.292l-.16-.131M175.846 250.774c.356-.033.983-.073 1.879-.118.556-.029.987-.047 1.29-.056.453-.013.94 0 1.462.04M175.26 255.873h-.088a7.884 7.884 0 0 1 1.708-.424c.57-.084 1.75-.1 3.541-.044" style="fill:none;stroke:#239cff;stroke-width:1.55905;stroke-linecap:round;stroke-linejoin:round;stroke-miterlimit:10;stroke-dasharray:none;stroke-opacity:1" transform="matrix(.72727 0 0 .72727 57.39 -104.57)"/><path d="M195.015 247.7c.065-.214.095-.474.09-.783a1.845 1.845 0 0 0-.173-.798 5.33 5.33 0 0 0-.347-.603 2.46 2.46 0 0 0-.437-.49c-.171-.148-.402-.244-.694-.288-.29-.045-.68.033-1.169.233-.488.2-.976.528-1.465.982a7.142 7.142 0 0 0-1.293 1.64 8.258 8.258 0 0 0-.854 2.088 9.173 9.173 0 0 0-.287 2.394 7.42 7.42 0 0 0 .429 2.448c.28.788.683 1.498 1.21 2.13.527.632 1.098 1.122 1.715 1.47.617.347 1.225.509 1.825.483.6-.025 1.21-.333 1.828-.924a8.115 8.115 0 0 0 1.56-2.075 9.708 9.708 0 0 0 .92-2.52c.192-.888.268-1.688.227-2.4a3.623 3.623 0 0 0-.703-1.955c-.428-.591-1-1.135-1.717-1.632-1.053-.73-2.508-1.38-4.364-1.946M200.392 241.409c.207-.099.326-.226.356-.382a.625.625 0 0 0-.004-.288c-.023-.085-.086-.16-.188-.223a.741.741 0 0 0-.325-.112c-.115-.011-.278.047-.489.175-.21.129-.389.349-.535.661a3.466 3.466 0 0 0-.286 1.115c-.045.43-.017.887.084 1.368.1.481.287.878.562 1.19.274.313.592.508.955.585.362.077.731-.028 1.106-.315.376-.287.667-.715.874-1.283.207-.568.3-1.14.281-1.714-.027-.832-.58-1.616-1.66-2.353" style="fill:none;stroke:#ff21b3;stroke-width:1.55905;stroke-linecap:round;stroke-linejoin:round;stroke-miterlimit:10;stroke-dasharray:none;stroke-opacity:1" transform="matrix(.72727 0 0 .72727 -99.475 -106.944)"/><path d="M355.527 245.473c.09-.318.03-.64-.184-.963a1.825 1.825 0 0 0-.47-.504c-.17-.117-.38-.2-.632-.246a2.398 2.398 0 0 0-.872.02c-.33.062-.676.222-1.039.482a4.93 4.93 0 0 0-1.046 1.058c-.335.446-.584.988-.747 1.625a5.693 5.693 0 0 0-.15 1.959c.063.667.257 1.24.584 1.715.326.475.712.8 1.158.971.445.173.905.208 1.38.106.473-.101.958-.357 1.455-.766.497-.41.942-.887 1.336-1.432.395-.545.729-1.1 1.003-1.663.273-.563.499-1.125.676-1.685.177-.56.29-1.076.337-1.547.048-.47.057-.849.026-1.134-.03-.286-.097-.478-.2-.577a.341.341 0 0 0-.356-.088c-.136.04-.27.198-.404.47-.133.274-.241.666-.324 1.177-.083.512-.141 1.185-.174 2.02a69.34 69.34 0 0 0-.048 2.79c.001 1.026.022 2.105.063 3.235.04 1.131.072 2.25.096 3.355.023 1.106.051 2.069.083 2.888.05 1.278.182 2.249.394 2.912M364.94 246.306a3.21 3.21 0 0 0-.418-.867 1.331 1.331 0 0 0-.36-.374c-.12-.078-.292-.123-.514-.135-.222-.012-.483.063-.785.226-.301.163-.595.438-.88.823-.284.385-.518.894-.7 1.526-.183.632-.299 1.363-.347 2.195-.048.831-.032 1.755.047 2.771.08 1.016.251 1.937.514 2.763.263.825.574 1.471.934 1.938.36.467.75.798 1.171.995.42.198.854.296 1.3.296.447 0 .877-.126 1.29-.376.415-.25.742-.54.982-.87.24-.329.45-.862.63-1.599.18-.736.285-1.52.318-2.352.033-.832-.049-1.71-.246-2.638-.196-.926-.487-1.75-.87-2.471-.576-1.082-1.301-1.986-2.176-2.71M372.028 240.431c-.027-.354-.08-.633-.16-.835a.928.928 0 0 0-.23-.345c-.098-.091-.24-.149-.424-.172-.185-.023-.393.034-.626.171-.232.138-.445.34-.638.608-.194.267-.338.609-.432 1.025a5.243 5.243 0 0 0-.102 1.412c.025.525.157 1.004.394 1.436.237.432.547.728.93.886.383.158.786.166 1.209.022.422-.144.794-.421 1.116-.83a3.72 3.72 0 0 0 .68-1.363c.132-.499.184-.975.158-1.43-.038-.654-.578-1.355-1.62-2.1" style="fill:none;stroke:#ff21b3;stroke-width:1.55905;stroke-linecap:round;stroke-linejoin:round;stroke-miterlimit:10;stroke-dasharray:none;stroke-opacity:1" transform="matrix(.72727 0 0 .72727 -134.684 -105.209)"/><path d="m498.54 251.31-.154.267c-.005.01-.006.004-.001-.014l.066-.282c.04-.17.119-.463.238-.877.119-.413.247-.923.384-1.528s.27-1.273.398-2.002c.128-.729.233-1.454.316-2.175.082-.722.135-1.39.158-2.007.024-.616.036-1.07.039-1.36.002-.29-.027-.469-.086-.533-.06-.064-.138.002-.234.2-.095.199-.188.58-.277 1.143a17.006 17.006 0 0 0-.169 2.113c-.024.845-.032 2.462-.025 4.852.007 2.389.017 4.073.027 5.051.01.979.061 1.77.152 2.378.135.905.465 1.493.987 1.763M506.798 244.798c-.242-.667-.48-1.107-.712-1.319a1.128 1.128 0 0 0-.557-.28.97.97 0 0 0-.654.122c-.226.122-.417.356-.575.702-.157.345-.264.775-.319 1.29a6.514 6.514 0 0 0 .036 1.61c.079.56.25 1.083.512 1.568.263.485.584.929.965 1.332.38.404.809.798 1.286 1.182.477.385.914.78 1.311 1.188.398.408.701.836.91 1.286.21.45.334.901.375 1.355.041.454-.01.868-.157 1.244a2.075 2.075 0 0 1-.681.917 2.192 2.192 0 0 1-1.1.429c-.426.05-.844-.041-1.256-.271-.411-.23-.745-.589-1.002-1.076a4.363 4.363 0 0 1-.475-1.58 5.566 5.566 0 0 1 .087-1.722 5.9 5.9 0 0 1 .63-1.684 6.22 6.22 0 0 1 1.179-1.501c.485-.459.95-.863 1.398-1.213.448-.35.801-.74 1.06-1.17.26-.43.374-.89.346-1.382-.03-.492-.237-.933-.624-1.321-.387-.39-1.095-.794-2.124-1.216-1.03-.421-1.73-.73-2.102-.925M517.092 244.989c.055-.48.069-.814.042-1.004a.703.703 0 0 0-.104-.307c-.051-.073-.16-.163-.325-.27a1.71 1.71 0 0 0-.625-.23c-.25-.046-.548-.017-.892.088s-.713.37-1.107.795c-.394.425-.75 1.028-1.07 1.808-.318.78-.525 1.676-.622 2.687a10.853 10.853 0 0 0 .148 3.06c.195 1.03.494 1.93.898 2.702.404.771.843 1.313 1.317 1.625.473.313.956.397 1.448.253.491-.144.979-.502 1.462-1.075.484-.572.882-1.264 1.195-2.076.313-.811.52-1.642.62-2.491.101-.85.097-1.664-.013-2.442-.11-.778-.32-1.463-.63-2.054a6.95 6.95 0 0 0-1.925-2.28M523.631 240.19c.169-.033.308-.139.418-.318.075-.12.121-.249.139-.386a.921.921 0 0 0-.015-.36c-.028-.105-.124-.184-.287-.24-.164-.054-.378-.072-.644-.053-.265.019-.529.155-.79.407-.26.252-.457.583-.588.992-.13.41-.197.802-.2 1.176-.003.375.118.65.362.828.244.178.57.237.979.18.408-.058.765-.251 1.07-.581.306-.33.478-.676.519-1.038.057-.52-.28-1.02-1.014-1.496" style="fill:none;stroke:#ff21b3;stroke-width:1.55905;stroke-linecap:round;stroke-linejoin:round;stroke-miterlimit:10;stroke-dasharray:none;stroke-opacity:1" transform="matrix(.72727 0 0 .72727 -167.763 -103.396)"/></svg>