<svg xmlns="http://www.w3.org/2000/svg" width="115.134" height="137.906"><path d="M407.252 377.426c17.738 18.633 17.013 48.119-1.62 65.857-18.634 17.739-48.12 17.013-65.858-1.62-17.739-18.634-17.013-48.119 1.62-65.858 18.634-17.738 48.12-17.013 65.858 1.62z" style="fill:none;stroke:#f59a23;stroke-width:1.16541;stroke-linecap:butt;stroke-linejoin:miter;stroke-miterlimit:10;stroke-dasharray:none;stroke-opacity:1" transform="matrix(.72727 0 0 .72727 -208.27 -207.697)"/><path d="M373.444 475.978V346.795M309.391 410.212H440.47" style="fill:none;stroke:#fcfcfc;stroke-width:1.55905;stroke-linecap:round;stroke-linejoin:round;stroke-miterlimit:10;stroke-dasharray:none;stroke-opacity:1" transform="matrix(.72727 0 0 .72727 -208.77 -208.827)"/><path d="m369.117 345.083-.077.058c-.006.004-.002-.008.01-.038l.09-.222c.049-.118.135-.303.259-.553.123-.25.275-.545.454-.884a14.385 14.385 0 0 1 1.333-2.072c.245-.313.487-.586.727-.818.24-.233.475-.407.706-.524.232-.117.451-.166.658-.145.206.02.408.152.606.396.197.244.4.557.607.938.207.381.426.814.658 1.3.336.703.93 1.876 1.78 3.519M442.047 405.298c-.183-.164-.258-.171-.228-.021.023.108.077.233.163.374.086.14.197.3.334.476.136.178.29.38.459.61.17.229.33.48.483.752.152.273.282.568.391.887a5.085 5.085 0 0 1 .232 2.04 2.047 2.047 0 0 1-.29.886 3.334 3.334 0 0 1-.647.754c-.398.35-.92.721-1.565 1.11" style="fill:none;stroke:#fcfcfc;stroke-width:1.55905;stroke-linecap:round;stroke-linejoin:round;stroke-miterlimit:10;stroke-dasharray:none;stroke-opacity:1" transform="matrix(.72727 0 0 .72727 -208.27 -207.697)"/><path d="M376.253 352.123a9.7 9.7 0 0 1 1.1-1.256 17.88 17.88 0 0 1 1.123-1.003 78.324 78.324 0 0 0 2.085-1.797" style="fill:none;stroke:#007aff;stroke-width:1.55905;stroke-linecap:round;stroke-linejoin:round;stroke-miterlimit:10;stroke-dasharray:none;stroke-opacity:1" transform="matrix(.72727 0 0 .72727 -166.379 -169.729)"/><path d="M376.26 347.42a137.635 137.635 0 0 1 2.065 2.355c.478.562 1.238 1.522 2.28 2.879" style="fill:none;stroke:#007aff;stroke-width:1.55905;stroke-linecap:round;stroke-linejoin:round;stroke-miterlimit:10;stroke-dasharray:none;stroke-opacity:1" transform="matrix(.72727 0 0 .72727 -166.379 -169.729)"/><path d="M433.958 400.903a5.174 5.174 0 0 0-.298-.574.848.848 0 0 0-.184-.225.375.375 0 0 0-.189-.076c-.07-.008-.136.05-.2.173-.063.123-.105.303-.126.541a5.22 5.22 0 0 0 .01.865c.028.339.107.698.238 1.078.13.38.292.707.485.982s.418.461.674.56c.256.098.526.12.812.066.285-.054.544-.183.78-.387.234-.204.44-.44.618-.704.177-.264.318-.518.422-.763a3.405 3.405 0 0 0 .285-1.305c.004-.201.002-.378-.005-.53-.007-.151-.033-.256-.075-.313-.041-.056-.087-.086-.136-.088-.05-.002-.1.068-.154.212a3.417 3.417 0 0 0-.145.597c-.043.254-.078.562-.105.922-.027.36-.051.79-.072 1.291a81.924 81.924 0 0 0-.036 2.782 328.957 328.957 0 0 1-.015 3.118c-.008.725-.018 1.395-.03 2.009a89.824 89.824 0 0 1-.042 1.552c-.016.422-.032.786-.05 1.091-.024.455-.102.941-.231 1.46" style="fill:none;stroke:#7ec636;stroke-width:1.55905;stroke-linecap:round;stroke-linejoin:round;stroke-miterlimit:10;stroke-dasharray:none;stroke-opacity:1" transform="matrix(.72727 0 0 .72727 -249.382 -244.697)"/><path d="M372.02 407.307c.056.17.015.267-.122.292a.47.47 0 0 1-.296-.048 1.38 1.38 0 0 1-.317-.226 3.55 3.55 0 0 1-.297-.304c-.086-.1-.156-.201-.21-.301-.053-.1-.09-.238-.108-.412-.018-.174.008-.28.079-.317.07-.037.18-.06.326-.067.146-.007.317.002.512.028.195.026.381.083.558.171.177.089.336.194.478.316.141.122.259.25.352.382.093.132.155.263.187.392.032.13.046.253.042.371a.505.505 0 0 1-.148.33.963.963 0 0 1-.381.242 1.952 1.952 0 0 1-1.174.041 1.417 1.417 0 0 1-.554-.282 1.29 1.29 0 0 1-.342-.435 1.446 1.446 0 0 1-.136-.466.832.832 0 0 1 .048-.403.643.643 0 0 1 .27-.299c.132-.082.299-.137.5-.163.2-.027.415-.014.642.039.227.053.438.15.633.29.195.141.365.31.508.509.144.198.24.39.288.574.048.186.065.334.052.447-.014.112-.123.202-.328.27a1.157 1.157 0 0 1-.663.01 1.947 1.947 0 0 1-.703-.36 5.178 5.178 0 0 1-.595-.531c-.166-.175-.274-.319-.324-.43-.05-.111-.04-.184.035-.218.074-.034.203-.044.386-.029.184.016.372.062.564.138.191.077.349.155.473.234.124.08.231.198.323.357.091.158.141.307.15.447.013.198-.29.357-.91.478M371.23 406.536 352.6 368.885M367.777 394.637c-.136.009-.208-.062-.218-.213a.523.523 0 0 1 .07-.299 1.09 1.09 0 0 1 .256-.286c.118-.098.27-.202.458-.312.188-.11.41-.225.668-.345.257-.12.553-.233.887-.338a21.86 21.86 0 0 1 1.06-.303 12.369 12.369 0 0 1 2.451-.383c.464-.026.94-.041 1.428-.044a9.62 9.62 0 0 1 1.491.11c.507.077 1.013.18 1.518.31.505.13 1.003.305 1.495.524.491.218.996.484 1.513.799.518.314.995.687 1.431 1.12.437.433.86.927 1.268 1.48.408.555.79 1.163 1.146 1.826a15 15 0 0 1 .896 1.993c.241.666.435 1.38.582 2.14.148.76.245 1.444.293 2.05.07.898.098 1.932.083 3.101" style="fill:none;stroke:#ff21b3;stroke-width:1.55905;stroke-linecap:round;stroke-linejoin:round;stroke-miterlimit:10;stroke-dasharray:none;stroke-opacity:1" transform="matrix(.72727 0 0 .72727 -208.27 -207.697)"/><path d="M378.726 397.638c-.068.497-.129.888-.183 1.171a5.811 5.811 0 0 1-.584 1.604 7.24 7.24 0 0 1-.651 1.006c-.263.346-.53.653-.802.923s-.544.462-.817.58c-.272.116-.53.142-.773.077-.243-.065-.456-.216-.64-.455a2.214 2.214 0 0 1-.392-.847 4.008 4.008 0 0 1-.119-.921 1.927 1.927 0 0 1 .596-1.42c.18-.17.392-.27.636-.3.243-.03.523.04.84.213.316.173.715.407 1.198.702.483.296.992.618 1.528.966a55.52 55.52 0 0 0 1.671 1.042c.852.511 1.932.91 3.24 1.198M352.071 367.37c-.355.049-.596.019-.723-.091a1.382 1.382 0 0 1-.222-.24.763.763 0 0 1-.124-.284.974.974 0 0 1-.013-.334.615.615 0 0 1 .152-.325.817.817 0 0 1 .3-.224.567.567 0 0 1 .36-.03c.126.029.25.121.373.277.122.155.237.33.342.524.106.194.19.392.251.593.062.201.096.392.102.574.006.182-.027.345-.098.49a.867.867 0 0 1-.347.36c-.16.096-.34.152-.543.17a1.205 1.205 0 0 1-.563-.079.916.916 0 0 1-.412-.32 1.315 1.315 0 0 1-.213-.483 3.212 3.212 0 0 1-.073-.558 1.06 1.06 0 0 1 .114-.537.84.84 0 0 1 .762-.486.746.746 0 0 1 .463.166c.155.115.3.246.435.393.134.147.248.304.342.472.093.167.156.34.187.517.03.177.033.345.006.502a.482.482 0 0 1-.254.356c-.143.08-.319.125-.528.137a.954.954 0 0 1-.554-.126 1.056 1.056 0 0 1-.373-.36 1.35 1.35 0 0 1-.171-.393c-.038-.167.074-.403.333-.706" style="fill:none;stroke:#ff21b3;stroke-width:1.55905;stroke-linecap:round;stroke-linejoin:round;stroke-miterlimit:10;stroke-dasharray:none;stroke-opacity:1" transform="matrix(.72727 0 0 .72727 -208.27 -207.697)"/><path d="M351.432 296.857c.036.117 0 .397-.107.84-.065.268-.152.57-.26.906-.109.336-.24.684-.395 1.044-.154.36-.337.71-.548 1.052-.21.342-.439.633-.684.875-.246.241-.491.412-.736.512-.244.1-.47.12-.677.058-.207-.062-.363-.268-.469-.617a4.71 4.71 0 0 1-.186-1.149 5.34 5.34 0 0 1 .046-1.08c.049-.304.127-.533.233-.687a.664.664 0 0 1 .423-.286c.176-.037.412-.007.71.086a6.27 6.27 0 0 1 1.03.454c.39.208.816.422 1.279.642.671.32 1.812.706 3.42 1.156" style="fill:none;stroke:#ff21b3;stroke-width:1.55905;stroke-linecap:round;stroke-linejoin:round;stroke-miterlimit:10;stroke-dasharray:none;stroke-opacity:1" transform="matrix(.72727 0 0 .72727 -204.885 -208.289)"/><path d="M309.331 304.068a48.483 48.483 0 0 1 1.794-2.228c.413-.482.834-.949 1.265-1.4a15.123 15.123 0 0 1 2.154-1.855" style="fill:none;stroke:#fcfcfc;stroke-width:1.55905;stroke-linecap:round;stroke-linejoin:round;stroke-miterlimit:10;stroke-dasharray:none;stroke-opacity:1" transform="matrix(.72727 0 0 .72727 -204.885 -208.289)"/><path d="M309.56 298.843c.86.9 1.43 1.534 1.71 1.902.195.255.41.554.645.896.344.5.901 1.22 1.672 2.16M318.986 299.559c.48.124 1.195.167 2.143.13M318.67 302.221c-.029.087.024.148.157.184.135.037.866.022 2.193-.043M309.848 312.425c-.06-.025-.15.083-.272.324-.121.24-.188.46-.2.657-.012.198.01.406.069.624.058.219.136.454.236.705.099.251.232.523.398.814.166.292.379.525.637.698.259.174.547.261.864.262.318 0 .626-.112.925-.336.3-.225.568-.512.806-.86.238-.349.434-.687.589-1.014.155-.328.276-.63.363-.91.087-.28.14-.507.158-.682.017-.176.016-.287-.003-.335-.02-.047-.08-.042-.18.018-.099.059-.206.178-.321.358-.116.18-.217.41-.305.69-.088.28-.141.62-.159 1.022-.018.401.004.825.066 1.271.062.446.15.843.262 1.189.112.346.305.807.58 1.383.273.577.57 1.108.89 1.594.32.485.619.948.897 1.386.277.44.482.888.616 1.347.133.459.2.923.2 1.393.001.47-.09.928-.271 1.373a3.244 3.244 0 0 1-.752 1.128 2.102 2.102 0 0 1-1.13.571c-.434.074-.888-.005-1.36-.235-.68-.332-1.145-1.145-1.393-2.438M319.028 313.938c.48.025 1.334.041 2.563.05M318.737 316.83c-.164.118-.163.218.002.3.12.061.327.111.623.151.426.058 1.31.084 2.651.08" style="fill:none;stroke:#fcfcfc;stroke-width:1.55905;stroke-linecap:round;stroke-linejoin:round;stroke-miterlimit:10;stroke-dasharray:none;stroke-opacity:1" transform="matrix(.72727 0 0 .72727 -204.885 -208.289)"/><path d="M351.283 312.813c.022-.06 0-.074-.062-.041-.047.024-.087.152-.118.383-.032.23-.07.466-.117.705-.045.24-.125.514-.24.822-.113.308-.26.644-.439 1.007a7.739 7.739 0 0 1-.65 1.08 5.706 5.706 0 0 1-.805.918c-.281.255-.56.435-.836.541-.277.107-.51.125-.702.054-.19-.07-.322-.252-.393-.547a4.256 4.256 0 0 1-.105-.995c.001-.37.056-.725.166-1.069.11-.344.244-.651.405-.923.16-.271.33-.499.51-.683.18-.185.352-.3.516-.348.164-.048.326-.001.485.14.158.141.322.37.492.688.169.318.36.662.574 1.033.213.37.478.726.795 1.066.317.34.685.62 1.103.845.605.323 1.644.369 3.117.137" style="fill:none;stroke:#ff21b3;stroke-width:1.55905;stroke-linecap:round;stroke-linejoin:round;stroke-miterlimit:10;stroke-dasharray:none;stroke-opacity:1" transform="matrix(.72727 0 0 .72727 -204.885 -208.289)"/><path d="M308.705 294.863c-.075.02-.1-.2-.078-.66.023-.461.068-.92.136-1.377.067-.457.117-.904.15-1.341.032-.437.053-.974.06-1.609a7.694 7.694 0 0 0-.16-1.74c-.115-.525-.275-.936-.482-1.234-.206-.298-.43-.474-.671-.529-.242-.054-.485.066-.73.36-.245.295-.45.766-.615 1.413-.165.647-.265 1.443-.302 2.39a66.036 66.036 0 0 0-.023 3.48c.021 1.373.043 2.881.065 4.523.022 1.642.02 3.216-.008 4.724a73.207 73.207 0 0 1-.166 3.962c-.083 1.133-.158 2.14-.227 3.02-.068.88-.129 1.588-.18 2.123-.052.534-.096.893-.132 1.076-.035.184-.08.277-.133.28-.053.004-.123-.134-.208-.415-.086-.28-.15-.675-.195-1.184a16.115 16.115 0 0 1-.065-1.39c0-.417.058-.784.174-1.101.116-.317.27-.572.462-.764.192-.192.395-.318.61-.378a.643.643 0 0 1 .593.12c.182.14.31.503.384 1.088.073.586.11 1.339.107 2.26a44.676 44.676 0 0 1-.147 3.257c-.096 1.25-.194 2.63-.294 4.14a153.58 153.58 0 0 0-.3 9.435c0 1.411.091 2.602.272 3.57.18.97.43 1.693.748 2.171.318.478.76.76 1.324.848.805.125 2.169-.957 4.093-3.246" style="fill:none;stroke:#fcfcfc;stroke-width:1.55905;stroke-linecap:round;stroke-linejoin:round;stroke-miterlimit:10;stroke-dasharray:none;stroke-opacity:1" transform="matrix(.72727 0 0 .72727 -208.27 -207.697)"/><path d="M297.785 310.118a1.838 1.838 0 0 0-.616-.174c-.163-.021-.766.158-1.81.536-1.043.38-1.805.76-2.286 1.145-.481.384-.911.798-1.29 1.242-.379.444-.645.769-.798.974-.154.206-.544.998-1.171 2.377a30.783 30.783 0 0 0-1.516 4.02 26.789 26.789 0 0 0-.852 3.973 33.104 33.104 0 0 0-.294 4.18c-.012 1.439.1 2.927.34 4.464.238 1.538.58 3.056 1.025 4.554a39.93 39.93 0 0 0 1.592 4.396 30.86 30.86 0 0 0 2.061 3.997 26.281 26.281 0 0 0 2.433 3.355 14.803 14.803 0 0 0 2.823 2.562 18.95 18.95 0 0 0 3.232 1.792c1.135.492 2.32.855 3.557 1.089 1.236.234 2.515.355 3.837.364 1.322.008 2.207-.01 2.655-.054.447-.044 1.192-.161 2.234-.351a47.003 47.003 0 0 1 3.631-.493 34.826 34.826 0 0 1 4.253-.163c1.456.032 2.937.207 4.442.525a63.81 63.81 0 0 1 4.505 1.127c2.189.632 5.175 1.877 8.958 3.734" style="fill:none;stroke:#fcfcfc;stroke-width:1.55905;stroke-linecap:round;stroke-linejoin:round;stroke-miterlimit:10;stroke-dasharray:none;stroke-opacity:1" transform="matrix(.72727 0 0 .72727 -208.27 -207.697)"/><path d="M335.525 363.662c-.352-.248-.353-.418 0-.507a5.9 5.9 0 0 1 .95-.146c.375-.031.861-.048 1.456-.051.595-.003 1.208-.008 1.839-.014.63-.006 1.211-.038 1.74-.1.53-.06.903-.138 1.12-.234.215-.095.405-.377.57-.843.164-.466.181-1.044.053-1.732-.188-1.001-.673-2.544-1.456-4.629" style="fill:none;stroke:#fcfcfc;stroke-width:1.55905;stroke-linecap:round;stroke-linejoin:round;stroke-miterlimit:10;stroke-dasharray:none;stroke-opacity:1" transform="matrix(.72727 0 0 .72727 -208.27 -207.697)"/><path d="M333.03 300.334c-.048.008-.073-.026-.074-.103-.001-.077.02-.207.062-.39a18.711 18.711 0 0 0 .392-2.639c.021-.316.033-.573.036-.77a1.669 1.669 0 0 0-.032-.42c-.023-.081-.055-.13-.097-.145a.172.172 0 0 0-.13.005c-.043.018-.077.066-.102.144-.024.077-.039.167-.045.27a.724.724 0 0 0 .1.365c.072.14.178.294.317.464.14.17.314.362.523.576.21.215.452.454.727.716.276.263.538.54.786.83.25.291.439.592.57.902.13.31.208.622.235.937.026.315-.019.613-.135.893-.117.28-.282.506-.495.68-.214.173-.439.28-.675.32-.335.056-.642-.267-.918-.971M340.035 297.766c-.043.15-.055.303-.036.46.02.158.058.364.117.618.059.254.106.557.141.91.052.514.089 1.244.11 2.191M340.597 295.499l-.253-.034M343.898 297.377c-.038.102-.032.29.02.56.033.172.122.493.267.964.146.47.298 1.002.456 1.595.159.593.259.96.3 1.1.04.14.063.206.068.196l.038-.073c.02-.04.03-.343.032-.911.001-.569.032-1.017.091-1.347.06-.329.15-.639.272-.929.121-.29.26-.536.413-.737.154-.201.293-.327.418-.378.124-.05.226-.009.304.126.079.134.145.383.2.747.054.364.117.767.189 1.21.071.442.163.844.276 1.206.113.361.236.651.369.868.19.31.46.374.813.195" style="fill:none;stroke:#007aff;stroke-width:1.29921;stroke-linecap:round;stroke-linejoin:round;stroke-miterlimit:10;stroke-dasharray:none;stroke-opacity:1" transform="matrix(.72727 0 0 .72727 -208.27 -207.697)"/><path d="M335.748 312.021c-.014-.248-.052-.43-.113-.544a.527.527 0 0 0-.178-.194.64.64 0 0 0-.316-.088c-.133-.008-.3.028-.499.11s-.395.235-.587.46a3.374 3.374 0 0 0-.522.88c-.156.364-.27.82-.34 1.367a6.857 6.857 0 0 0-.01 1.68c.066.573.21 1.059.432 1.457.222.399.498.671.83.818.477.21 1.099.08 1.866-.39M340.627 312.948c.011-.35-.003-.586-.042-.708a.68.68 0 0 0-.139-.238.73.73 0 0 0-.257-.184 1.11 1.11 0 0 0-.364-.087 1.073 1.073 0 0 0-.455.076 1.275 1.275 0 0 0-.494.365 2.657 2.657 0 0 0-.437.718 4.05 4.05 0 0 0-.277 1.053 6.72 6.72 0 0 0-.048 1.285 4.1 4.1 0 0 0 .279 1.294c.162.41.363.745.605 1.004.242.26.49.425.742.493.253.07.498.048.736-.065s.445-.314.621-.603c.176-.29.295-.633.356-1.03.06-.398.08-.813.06-1.244a4.563 4.563 0 0 0-.228-1.234 5.03 5.03 0 0 0-.43-.979c-.234-.391-.52-.643-.855-.757M345.416 311.68a.412.412 0 0 0 .104-.266.354.354 0 0 0-.081-.217.577.577 0 0 0-.227-.18.704.704 0 0 0-.317-.063c-.117.003-.228.068-.336.198-.108.13-.197.303-.268.518-.07.216-.114.443-.13.684a3.55 3.55 0 0 0 .016.695c.028.223.087.424.176.602.09.177.217.336.382.477.165.14.363.266.595.377.232.11.473.218.722.321.249.104.465.207.648.31.184.104.319.227.404.37a.812.812 0 0 1 .09.524c-.025.207-.13.432-.314.675a4.038 4.038 0 0 1-.703.705c-.421.336-.934.59-1.538.76" style="fill:none;stroke:#7ec636;stroke-width:1.29921;stroke-linecap:round;stroke-linejoin:round;stroke-miterlimit:10;stroke-dasharray:none;stroke-opacity:1" transform="matrix(.72727 0 0 .72727 -208.27 -207.697)"/></svg>