<svg xmlns="http://www.w3.org/2000/svg" width="68.683" height="79.944"><path d="M394.661 391.673a46.284 46.284 0 0 1 3.531 9.037 46.28 46.28 0 0 1 1.575 9.574c.19 3.246.04 6.477-.45 9.691a46.277 46.277 0 0 1-2.456 9.387 46.282 46.282 0 0 1-4.353 8.67 46.276 46.276 0 0 1-6.06 7.577 46.28 46.28 0 0 1-7.504 6.151 46.291 46.291 0 0 1-8.619 4.456 46.29 46.29 0 0 1-9.357 2.567 46.283 46.283 0 0 1-9.685.565 46.276 46.276 0 0 1-9.592-1.46 46.284 46.284 0 0 1-9.079-3.423 46.286 46.286 0 0 1-8.168-5.236 46.285 46.285 0 0 1-6.902-6.82 46.284 46.284 0 0 1-5.332-8.105 46.284 46.284 0 0 1-3.531-9.037 46.286 46.286 0 0 1-1.575-9.574c-.19-3.246-.04-6.477.45-9.692a46.284 46.284 0 0 1 2.456-9.386 46.282 46.282 0 0 1 4.353-8.671 46.287 46.287 0 0 1 6.06-7.577 46.286 46.286 0 0 1 7.504-6.15 46.287 46.287 0 0 1 8.619-4.457 46.292 46.292 0 0 1 9.357-2.567 46.282 46.282 0 0 1 9.686-.565c3.248.15 6.445.638 9.591 1.46a46.286 46.286 0 0 1 9.079 3.424 46.29 46.29 0 0 1 8.168 5.236 46.285 46.285 0 0 1 6.902 6.82 46.285 46.285 0 0 1 5.332 8.105" style="fill:none;stroke:#f59a23;stroke-width:1.61761;stroke-linecap:round;stroke-linejoin:round;stroke-miterlimit:10;stroke-dasharray:none;stroke-opacity:1" transform="matrix(.72727 0 0 .72727 -222.703 -254.753)"/><path d="M286.618 418.85c-.117.053-.217.017-.3-.108-.057-.088-.098-.242-.123-.46a5.317 5.317 0 0 1-.039-.52.896.896 0 0 1 .072-.363.74.74 0 0 1 .19-.274.47.47 0 0 1 .246-.12c.086-.01.171.036.257.141.085.106.167.24.246.406a2.872 2.872 0 0 1 .269 1.108c.005.19-.021.374-.078.552a1.55 1.55 0 0 1-.264.495c-.12.152-.27.272-.448.36a1.738 1.738 0 0 1-.613.165c-.23.02-.481.008-.757-.039a2.05 2.05 0 0 1-.754-.284c-.228-.143-.391-.303-.491-.48-.1-.177-.16-.368-.183-.573a1.352 1.352 0 0 1 .086-.626c.079-.212.228-.422.447-.63.22-.209.469-.399.747-.57.279-.171.536-.298.772-.38.236-.083.44-.12.614-.112.174.008.32.1.44.275.12.176.214.398.283.668a5.467 5.467 0 0 1 .146 1.66 1.6 1.6 0 0 1-.194.687 1.21 1.21 0 0 1-.448.46 1.557 1.557 0 0 1-.644.199 1.337 1.337 0 0 1-.741-.157 1.583 1.583 0 0 1-.588-.487 1.343 1.343 0 0 1-.249-.63.926.926 0 0 1 .17-.643c.14-.206.319-.404.537-.596a6.41 6.41 0 0 1 .67-.516c.23-.154.44-.26.63-.321.19-.06.35-.065.484-.014.134.052.231.196.294.434.062.237.098.503.109.8.01.295-.017.57-.081.825a1.652 1.652 0 0 1-.333.663 1.423 1.423 0 0 1-.559.415 1.78 1.78 0 0 1-.678.132c-.237 0-.48-.083-.727-.25a2.051 2.051 0 0 1-.61-.642 1.665 1.665 0 0 1-.257-.797c-.013-.27.054-.516.2-.738.145-.223.327-.415.545-.576a3.3 3.3 0 0 1 .672-.389c.23-.097.439-.147.629-.148.19 0 .347.088.472.267.124.18.201.42.23.723.03.303.037.596.023.878a1.621 1.621 0 0 1-.174.705c-.103.187-.233.313-.39.377a.954.954 0 0 1-.521.05c-.19-.032-.39-.13-.596-.295a1.84 1.84 0 0 1-.475-.547 1.15 1.15 0 0 1-.158-.587c.005-.192.093-.366.265-.524.172-.157.366-.274.582-.351.217-.077.421-.114.614-.109a.58.58 0 0 1 .465.234c.117.151.19.327.218.53.028.202.04.386.034.553a.555.555 0 0 1-.162.398.705.705 0 0 1-.377.186 1.23 1.23 0 0 1-.453-.006.701.701 0 0 1-.369-.183.584.584 0 0 1-.171-.293.42.42 0 0 1 .069-.317.949.949 0 0 1 .319-.295c.144-.088.285-.149.422-.182a.634.634 0 0 1 .341-.005c.09.03.147.115.168.256.021.14.003.298-.056.471-.083.247-.387.359-.912.334M283.522 412.289c-.057.028-.113-.096-.167-.373a16.977 16.977 0 0 1-.175-1.414c-.064-.666-.101-1.2-.112-1.603-.011-.402-.005-.806.018-1.213.023-.406.081-.797.172-1.171a5.89 5.89 0 0 1 .365-1.058c.152-.331.329-.631.532-.9s.412-.487.628-.653c.216-.165.426-.277.63-.334.205-.057.4-.062.589-.014.188.047.37.182.547.407.177.224.362.518.556.883.193.365.397.79.612 1.274.215.484.422.999.623 1.544.2.545.374 1.092.52 1.64.146.547.255 1.037.327 1.47a5.995 5.995 0 0 1 0 1.962" style="fill:none;stroke:#7ec636;stroke-width:1.55905;stroke-linecap:round;stroke-linejoin:round;stroke-miterlimit:10;stroke-dasharray:none;stroke-opacity:1" transform="matrix(.72727 0 0 .72727 -174.664 -292.906)"/><path d="M283.643 409.014c1.667-.158 2.879-.37 3.635-.638" style="fill:none;stroke:#7ec636;stroke-width:1.55905;stroke-linecap:round;stroke-linejoin:round;stroke-miterlimit:10;stroke-dasharray:none;stroke-opacity:1" transform="matrix(.72727 0 0 .72727 -174.664 -292.906)"/></svg>