<svg xmlns="http://www.w3.org/2000/svg" width="307.079" height="307.079"><path d="M255.486 344.78c-.421.754-.8 1.85-1.135 3.29-.336 1.439-.555 3.114-.657 5.027a49.888 49.888 0 0 0 .042 5.88c.13 2.008.486 4.126 1.07 6.355.582 2.23 1.352 4.595 2.307 7.1a56.75 56.75 0 0 0 3.497 7.45c1.376 2.464 2.989 4.932 4.838 7.404a62.85 62.85 0 0 0 6.128 7.028 277.332 277.332 0 0 0 6.483 6.222c3.064 2.843 7.145 6.34 12.244 10.493" style="fill:none;stroke:#ffe2b7;stroke-width:2.59842;stroke-linecap:round;stroke-linejoin:round;stroke-miterlimit:10;stroke-dasharray:none;stroke-opacity:1" transform="matrix(.72727 0 0 .72727 -93.903 -141.054)"/><path d="M251.132 311.385c-.327.047-.775.073-1.343.075a34.186 34.186 0 0 1-1.673-.031 17.603 17.603 0 0 1-1.665-.154 41.146 41.146 0 0 1-1.838-.304 15.932 15.932 0 0 1-2.083-.545 13.92 13.92 0 0 1-2.064-.87 64.205 64.205 0 0 1-2.016-1.098 27.951 27.951 0 0 0-2.221-1.128c-1.147-.521-3.017-1.295-5.611-2.32M230.89 304.155c.923-.72 1.725-1.223 2.406-1.507.464-.194.918-.357 1.363-.489.446-.131 1.02-.261 1.724-.39.704-.13 1.456-.24 2.257-.333.802-.092 1.608-.189 2.419-.29.81-.1 1.59-.192 2.338-.274 1.095-.12 2.537-.476 4.326-1.066" style="fill:none;stroke:#636363;stroke-width:2.59842;stroke-linecap:round;stroke-linejoin:round;stroke-miterlimit:10;stroke-dasharray:none;stroke-opacity:1" transform="matrix(.72727 0 0 .72727 -93.903 -141.054)"/><path d="M248.032 297.991c-.287.017-.376-.132-.268-.447.108-.315.324-.68.647-1.096.323-.415.673-.813 1.048-1.194.376-.38 1.305-1.152 2.787-2.313 1.482-1.16 2.684-2.02 3.604-2.579a78.64 78.64 0 0 1 3.082-1.767 74.436 74.436 0 0 1 2.327-1.237 27.639 27.639 0 0 1 2.093-.93c.336-.134.716-.27 1.14-.407.426-.137 1.392-.409 2.9-.814a82.058 82.058 0 0 1 5.058-1.171 47.67 47.67 0 0 1 5.57-.788c1.848-.15 3.587-.122 5.218.083 1.63.205 3.214.545 4.751 1.02a52.79 52.79 0 0 1 4.692 1.708 41.745 41.745 0 0 1 4.686 2.31 32.052 32.052 0 0 1 4.453 3.09 33.519 33.519 0 0 1 4.051 3.968 65.46 65.46 0 0 1 3.671 4.668 93.01 93.01 0 0 1 3.412 5.11" style="fill:none;stroke:#ff9b56;stroke-width:2.59842;stroke-linecap:round;stroke-linejoin:round;stroke-miterlimit:10;stroke-dasharray:none;stroke-opacity:1" transform="matrix(.72727 0 0 .72727 -93.903 -141.054)"/><path d="M248.27 313.29c.013.36-.012.707-.074 1.04a4.206 4.206 0 0 1-.247.787c-.122.302-.258.62-.405.954-.148.333-.325.723-.532 1.168a36.97 36.97 0 0 1-.658 1.345c-.232.452-.456.89-.671 1.315a45.41 45.41 0 0 0-1.097 2.37M244.41 323.379c.752-.478 1.639-1.332 2.662-2.562M247.843 320.183c-.227.25-.392.504-.495.761-.07.174-.12.36-.152.556a7.819 7.819 0 0 0-.059.974c-.008.452.006.927.04 1.426.034.499.07.961.106 1.387.037.427.064.835.08 1.225.016.39.012.775-.01 1.153-.034.55-.29 1.356-.769 2.42M246.467 330.637c.218-.54.444-1.048.678-1.522.157-.318.321-.608.492-.872.252-.39.56-.847.923-1.372M248.802 326.895c-.071.661-.097 1.22-.077 1.679.013.311.055.652.124 1.022s.14.788.215 1.253c.075.464.136.935.184 1.414.048.478.104 1.134.167 1.967.101 1.326.118 2.286.05 2.88M249.534 337.932a2.24 2.24 0 0 1 .136-.723 4.55 4.55 0 0 1 .274-.584c.18-.334.603-.933 1.269-1.797M251.917 334.019a6.224 6.224 0 0 0-.133 1.257c0 .272.04.582.12.928.08.347.184.727.313 1.14.128.414.25.87.367 1.366.116.498.206.997.27 1.498.063.501.107.956.133 1.365.039.602.05 1.354.032 2.256" style="fill:none;stroke:#fdff85;stroke-width:2.59842;stroke-linecap:round;stroke-linejoin:round;stroke-miterlimit:10;stroke-dasharray:none;stroke-opacity:1" transform="matrix(.72727 0 0 .72727 -93.903 -141.054)"/><path d="M252.545 344.444c.024-.318.128-.633.313-.945a2.52 2.52 0 0 1 .42-.538c.23-.22.664-.432 1.304-.636" style="fill:none;stroke:#ffe2b7;stroke-width:2.59842;stroke-linecap:round;stroke-linejoin:round;stroke-miterlimit:10;stroke-dasharray:none;stroke-opacity:1" transform="matrix(.72727 0 0 .72727 -93.903 -141.054)"/><path d="M292.767 326.249c-.107.201-.566.525-1.375.97-.81.447-1.708.884-2.696 1.314-.989.429-1.766.76-2.332.99-.566.232-1.15.46-1.755.685-.604.225-1.214.458-1.83.701a24.72 24.72 0 0 0-1.808.798c-.59.29-1.22.619-1.89.989-.67.37-1.399.777-2.184 1.224-.786.446-1.53.9-2.233 1.361-.704.461-1.39.932-2.058 1.412-.668.48-1.433.984-2.294 1.512-1.24.76-3.937 2.263-8.088 4.51" style="fill:none;stroke:#fdff85;stroke-width:2.59842;stroke-linecap:round;stroke-linejoin:round;stroke-miterlimit:10;stroke-dasharray:none;stroke-opacity:1" transform="matrix(.72727 0 0 .72727 -93.903 -141.054)"/><path d="M272.937 300.074a4.134 4.134 0 0 1-.824-.152 4.539 4.539 0 0 0-.556-.127 1.268 1.268 0 0 0-.62.051c-.207.07-.42.233-.64.491-.22.259-.423.574-.611.945a4.415 4.415 0 0 0-.403 1.264 5.55 5.55 0 0 0-.023 1.556c.065.566.196 1.035.394 1.409.197.373.547.74 1.05 1.103.502.361.997.579 1.486.652.489.072 1.001-.001 1.537-.221a5.68 5.68 0 0 0 1.493-.905c.458-.383.833-.819 1.122-1.308.29-.489.467-.977.532-1.464.065-.486.014-.92-.153-1.302a3.296 3.296 0 0 0-.788-1.074 5.967 5.967 0 0 0-1.248-.886 4.958 4.958 0 0 0-1.342-.515c-.617-.127-1.31-.037-2.08.27" style="fill:none;stroke:#000;stroke-width:2.59842;stroke-linecap:round;stroke-linejoin:round;stroke-miterlimit:10;stroke-dasharray:none;stroke-opacity:1" transform="matrix(.72727 0 0 .72727 -93.903 -141.054)"/><path d="M457.035 381.37c1.55-.804 3.34-1.5 5.371-2.084 1.34-.386 3.275-.736 5.804-1.05a62.946 62.946 0 0 1 7.507-.487c3.653-.015 8.031.316 13.137.993M486.449 377.921c-1.475-.205-4.324-.756-8.548-1.652-4.224-.897-7.633-1.694-10.23-2.391-2.595-.697-5.767-1.473-9.516-2.327a156.188 156.188 0 0 0-11.004-2.107c-3.588-.55-7.048-1.09-10.38-1.62-3.332-.529-6.436-1.26-9.312-2.195-4.233-1.376-9.099-3.774-14.598-7.194M457.403 381.567c.173.143 1.429.415 3.765.817 2.336.403 4.444.705 6.324.908 1.88.202 3.67.437 5.367.704 1.698.267 3.597.648 5.696 1.14 3.046.716 7.731 2.658 14.056 5.825" style="fill:none;stroke:#ff9b56;stroke-width:2.59842;stroke-linecap:round;stroke-linejoin:round;stroke-miterlimit:10;stroke-dasharray:none;stroke-opacity:1" transform="matrix(.72727 0 0 .72727 -93.903 -141.054)"/><path d="M489.958 390.726c-.337-.08-1.733-.267-4.187-.563a226.669 226.669 0 0 0-6-.659c-1.546-.143-3.564-.31-6.055-.501a377.903 377.903 0 0 0-6.156-.432c-1.613-.097-4.145-.185-7.598-.266-3.452-.08-7.225-.139-11.318-.174-4.094-.036-8.454-.091-13.08-.166a538.713 538.713 0 0 1-14.9-.461c-7.683-.338-21.451-1.286-41.306-2.845" style="fill:none;stroke:#f59a23;stroke-width:2.59842;stroke-linecap:round;stroke-linejoin:round;stroke-miterlimit:10;stroke-dasharray:none;stroke-opacity:1" transform="matrix(.72727 0 0 .72727 -93.903 -141.054)"/><path d="M528.444 427.116c-.113.17-.713.114-1.8-.167-1.086-.28-2.432-.831-4.04-1.65a223.393 223.393 0 0 0-4.175-2.083 550.185 550.185 0 0 1-4.588-2.252 495.502 495.502 0 0 1-6.274-3.17c-2.3-1.18-4.712-2.31-7.237-3.389a590.085 590.085 0 0 1-8.128-3.55 347.394 347.394 0 0 0-8.842-3.787 134.48 134.48 0 0 1-9.126-4.18 364.293 364.293 0 0 1-9.09-4.729c-4.417-2.378-9.292-5.157-14.626-8.336M528.888 429.918c-.312.334-1.35.408-3.116.221-1.766-.186-3.231-.415-4.397-.687a56.857 56.857 0 0 1-3.08-.799c-.886-.26-2.538-.795-4.957-1.606a484.402 484.402 0 0 0-7.103-2.321 171.434 171.434 0 0 0-7.436-2.17 145.96 145.96 0 0 1-8.276-2.506 382.912 382.912 0 0 1-9.08-3.163 713.495 713.495 0 0 0-10.396-3.663c-3.757-1.294-7.62-2.61-11.592-3.948-5.776-1.946-14.846-4.919-27.21-8.918" style="fill:none;stroke:#ff9b56;stroke-width:2.59842;stroke-linecap:round;stroke-linejoin:round;stroke-miterlimit:10;stroke-dasharray:none;stroke-opacity:1" transform="matrix(.72727 0 0 .72727 -93.903 -141.054)"/><path d="M289.45 411.062c-.173.084-.203.238-.09.46.112.223.414.459.906.708.492.25.921.485 1.288.707.367.222 1.095.726 2.184 1.511 1.09.786 2.19 1.637 3.302 2.555 1.111.918 2.174 1.784 3.188 2.596 1.575 1.262 2.887 2.182 3.937 2.762M306.956 423.692c-.375-.903-.634-1.677-.78-2.32a9.315 9.315 0 0 0-.754-2.057M303.385 417.676c.083.37.31.664.682.878.372.215.961.453 1.768.714.807.26 1.872.538 3.195.833 1.323.294 2.8.632 4.43 1.015 1.631.382 3.29.836 4.979 1.362 2.439.76 7.002 2.427 13.69 5M332.665 426.863c-.184-.64-.509-1.44-.974-2.4a80.05 80.05 0 0 0-1.348-2.66M329.218 419.75c.556.152 1.523.238 2.902.257.862.012 1.927.03 3.194.052 1.266.022 2.676.094 4.228.216 1.552.122 3.062.288 4.53.499 1.47.21 2.807.393 4.014.55 1.815.234 3.575.471 5.278.711M354.3 422.902c-.82-2.02-2.105-3.811-3.857-5.372M350.097 416.303c.303.353.602.636.895.85.198.145.406.267.624.366.218.1.472.189.764.268.29.08.99.216 2.099.407 1.108.191 2.35.431 3.724.72 1.375.288 2.873.63 4.494 1.026 1.62.396 3.317.889 5.089 1.48 2.633.878 5.55 1.751 8.75 2.62M379.318 423.419a155.766 155.766 0 0 0-1.399-2.826c-.435-.855-1.13-2.26-2.085-4.214" style="fill:none;stroke:#ffe2b7;stroke-width:2.59842;stroke-linecap:round;stroke-linejoin:round;stroke-miterlimit:10;stroke-dasharray:none;stroke-opacity:1" transform="matrix(.72727 0 0 .72727 -93.903 -141.054)"/><path d="M374.155 412.742c.496.356.91.585 1.24.687.228.07.572.128 1.034.178.462.05 1.14.08 2.032.092.892.013 1.952.062 3.179.148 1.226.086 2.59.278 4.09.576 1.499.298 2.959.638 4.38 1.021 1.42.383 2.66.668 3.72.854 1.57.277 3.243.168 5.017-.327" style="fill:none;stroke:#ff9b56;stroke-width:2.59842;stroke-linecap:round;stroke-linejoin:round;stroke-miterlimit:10;stroke-dasharray:none;stroke-opacity:1" transform="matrix(.72727 0 0 .72727 -93.903 -141.054)"/><path d="M398.55 416.996c.293-.21.49-.68.59-1.41.065-.477.052-1.032-.042-1.666a10.338 10.338 0 0 0-.545-2.053c-.27-.734-.57-1.445-.9-2.134a28.213 28.213 0 0 0-.948-1.824c-.303-.528-.589-.942-.858-1.241-.27-.3-.513-.508-.728-.624l-.41-.222c-.057-.03-.027-.044.09-.04.117.002.395.011.833.024.438.014 1.123.107 2.056.279.933.172 2.036.363 3.308.57 1.272.209 2.65.397 4.135.567 2.16.246 5.522.746 10.089 1.501M415.335 408.376l.153.683c.005.024.01.014.014-.03l.065-.671c.04-.404-.006-.95-.134-1.639a22.762 22.762 0 0 0-.552-2.247c-.367-1.242-.752-2.263-1.156-3.064" style="fill:none;stroke:#ff9b56;stroke-width:2.59842;stroke-linecap:round;stroke-linejoin:round;stroke-miterlimit:10;stroke-dasharray:none;stroke-opacity:1" transform="matrix(.72727 0 0 .72727 -93.903 -141.054)"/><path d="M412.872 400.794c-.127.157-.068.394.176.71.168.217.56.422 1.178.613.617.192 1.49.336 2.62.434 1.13.098 2.597.218 4.405.361 1.808.143 3.917.374 6.33.693 2.412.319 4.823.698 7.23 1.14 2.409.44 4.704.887 6.888 1.34 3.257.677 6.703 1.126 10.34 1.348" style="fill:none;stroke:#ff9b56;stroke-width:2.59842;stroke-linecap:round;stroke-linejoin:round;stroke-miterlimit:10;stroke-dasharray:none;stroke-opacity:1" transform="matrix(.72727 0 0 .72727 -93.903 -141.054)"/><path d="M328.91 427.88c-.423-.144-.817-.165-1.181-.064-.247.068-.51.186-.79.355-.278.17-.552.36-.82.575-.266.214-.75.699-1.448 1.455-.699.756-1.485 1.786-2.36 3.09-.875 1.304-1.772 2.809-2.693 4.514-1.334 2.473-3.254 6.878-5.758 13.216M305.901 453.151l-1.202.293c-.022.005-.017.001.017-.014l.915-.403c.576-.255 1.15-.476 1.72-.663.57-.188 1.152-.33 1.746-.427a13.061 13.061 0 0 1 1.744-.17c.568-.016 1.103.007 1.603.069.501.062.946.138 1.336.23.389.09.727.162 1.014.213.286.052.498.102.633.15.136.05.217.078.242.087.025.01.03.014.012.016-.017 0-.072.006-.164.014-.093.008-.292-.024-.6-.094a14.945 14.945 0 0 0-2.998-.37c-.712-.022-1.743-.035-3.092-.037-1.349-.002-2.317-.006-2.904-.012-.587-.005-.956-.01-1.108-.01-.152-.002-.171.015-.058.051l.824.262c.436.138 1.045.231 1.828.279.783.047 1.701.045 2.754-.006 1.536-.075 3.703-.523 6.502-1.345M366.998 423.617c.172-.468.119-.602-.16-.403-.204.146-.541.488-1.012 1.028-.47.539-1.022 1.21-1.656 2.013a40.96 40.96 0 0 0-1.99 2.776c-.691 1.047-1.333 2.28-1.924 3.697a37.782 37.782 0 0 0-1.495 4.28c-.598 2.12-.962 4.659-1.09 7.618M351.261 444.982l-.523.153c-.017.005.023.006.118.004l1.563-.033c.947-.02 1.74.005 2.38.075.64.07 1.257.187 1.85.35.593.163 1.085.34 1.477.532.392.193.688.369.889.529.2.16.332.287.395.382.064.095.053.164-.032.208-.086.045-.599.074-1.54.087-.941.013-2.173.02-3.697.02-1.523 0-2.521-.036-2.996-.107-.475-.071-.82-.163-1.038-.276-.217-.113-.34-.21-.368-.292-.028-.08.136-.161.492-.24.357-.08.888-.151 1.596-.215 1.022-.093 3.012-.173 5.971-.24" style="fill:none;stroke:#000;stroke-width:2.59842;stroke-linecap:round;stroke-linejoin:round;stroke-miterlimit:10;stroke-dasharray:none;stroke-opacity:1" transform="matrix(.72727 0 0 .72727 -93.903 -141.054)"/><path d="M412.015 358.075c0-.599-.797-1.855-2.392-3.768a87.973 87.973 0 0 0-4.941-5.454c-1.7-1.723-2.98-2.95-3.842-3.68-.862-.732-2.205-1.812-4.029-3.24a64.579 64.579 0 0 0-5.953-4.126 411.165 411.165 0 0 0-6.824-4.11 89.451 89.451 0 0 0-7.018-3.748 453.175 453.175 0 0 0-6.696-3.117 127.44 127.44 0 0 0-6.347-2.695 48.543 48.543 0 0 0-5.858-1.901 93.917 93.917 0 0 0-5.542-1.217 312.213 312.213 0 0 1-5.902-1.172 151.365 151.365 0 0 1-6.343-1.462 91.015 91.015 0 0 1-6.419-1.882c-2.154-.718-4.413-1.617-6.775-2.7a133.566 133.566 0 0 1-7.076-3.5c-2.355-1.252-4.222-2.138-5.602-2.659-2.241-.845-3.746-1.218-4.515-1.118" style="fill:none;stroke:#ff9b56;stroke-width:2.59842;stroke-linecap:round;stroke-linejoin:round;stroke-miterlimit:10;stroke-dasharray:none;stroke-opacity:1" transform="matrix(.72727 0 0 .72727 -93.903 -141.054)"/><path d="M381.355 373.43c.195-.119.66-.128 1.394-.028.455.062 1.231.164 2.328.305 1.096.14 2.342.285 3.737.432 1.395.148 2.982.352 4.76.614 1.777.262 3.743.618 5.898 1.068 2.155.45 4.484.966 6.988 1.547 2.504.582 5.025 1.15 7.564 1.702 2.538.554 4.969.988 7.291 1.304 2.323.316 4.582.547 6.779.692a98.69 98.69 0 0 0 6.103.228c2.745.01 6.383-.216 10.912-.68M431.576 373.917c-3.174.075-5.437.063-6.789-.037a49.44 49.44 0 0 1-2.966-.316 86.324 86.324 0 0 1-3.929-.648c-1.573-.29-3.307-.653-5.202-1.091-1.895-.438-3.94-.958-6.135-1.56a615.249 615.249 0 0 1-6.174-1.723c-2.786-.795-7.399-2.345-13.837-4.652M382.525 355.697c.087.16.704.45 1.85.872 1.147.423 2.271.793 3.374 1.11 1.102.319 2.351.62 3.747.907 1.396.286 2.888.546 4.476.779 2.303.338 6.22.692 11.753 1.063" style="fill:none;stroke:#ffa511;stroke-width:2.59842;stroke-linecap:round;stroke-linejoin:round;stroke-miterlimit:10;stroke-dasharray:none;stroke-opacity:1" transform="matrix(.72727 0 0 .72727 -93.903 -141.054)"/><path d="M260.283 362.92a5.968 5.968 0 0 1 .017-1.663c.056-.35.13-.715.22-1.095.131-.553.296-1.481.495-2.786M261.675 355.599c.035.565.293 1.709.775 3.432.293 1.047.528 1.93.707 2.647.179.718.365 1.505.56 2.36.194.857.403 1.706.627 2.547.332 1.25.906 2.515 1.72 3.798M267.49 374.169c.618-.995 1.286-2.652 2.007-4.97M269.866 366.98c-.153.482-.24.995-.26 1.54-.013.362.054.858.2 1.488.148.63.405 1.397.774 2.3.369.904.801 1.828 1.297 2.773.496.944.948 1.884 1.357 2.82.593 1.356 1.564 3.677 2.912 6.963M279.133 388.74c-.05.309-.168.517-.35.625-.127.074-.185-.009-.176-.25.013-.343.55-1.89 1.614-4.645M280.436 380.978c-.018.39.033.817.154 1.285.122.467.297 1.01.527 1.63.23.619.516 1.302.856 2.048a47.5 47.5 0 0 0 1.25 2.514 95.14 95.14 0 0 0 1.685 3.026c.63 1.088 1.3 2.163 2.012 3.226a20.08 20.08 0 0 0 3.727 4.19M292.384 399.852c.872-1.537 1.405-2.534 1.597-2.991.194-.46.382-1.392.565-2.8M293.862 390.76c.19.657.545 1.48 1.067 2.466a23.61 23.61 0 0 0 1.307 2.142c.534.791 1.153 1.664 1.857 2.62 1.023 1.391 2.544 3.61 4.561 6.657M307.31 406.848c.288-1.916.612-3.543.973-4.88M308.006 398.276c.09.088.365.606.822 1.555.254.527.602 1.201 1.043 2.024.441.822.98 1.67 1.618 2.544a78.958 78.958 0 0 0 1.943 2.554c.95 1.195 2.696 3.654 5.24 7.377M320.226 413.123c.572-.612.995-1.121 1.269-1.528.268-.397.906-1.655 1.914-3.772M326.751 404.005c.34.454.767 1.09 1.282 1.905.33.524.704 1.148 1.12 1.871.6 1.045 2.006 2.9 4.22 5.566" style="fill:none;stroke:#ffe2b7;stroke-width:2.59842;stroke-linecap:round;stroke-linejoin:round;stroke-miterlimit:10;stroke-dasharray:none;stroke-opacity:1" transform="matrix(.72727 0 0 .72727 -93.903 -141.054)"/><path d="M268.587 355.971c-.301.078-.467.022-.496-.168a.909.909 0 0 1 .07-.466c.097-.25.79-1.006 2.083-2.266M272.82 352.434c-.162.642-.248 1.429-.259 2.36a9.535 9.535 0 0 0 .21 2c.148.724.36 1.419.635 2.085.4.964 1.199 2.625 2.398 4.982M279.233 370.527l-.063.302v.002l.001-.017.062-.447c.039-.282.138-.632.296-1.051.16-.42.31-.787.454-1.103.208-.457.552-1.385 1.032-2.787M281.673 364.22c-.012.727.03 1.338.124 1.833.065.336.189.785.372 1.347.182.563.41 1.211.683 1.946.396 1.069 1.097 2.724 2.1 4.965M288.036 378.413c.685-.898 1.557-1.923 2.614-3.074M291.725 371.992c-.182 1.358-.218 2.557-.107 3.6.075.704.24 1.547.495 2.528.255.98.54 1.958.855 2.932.461 1.424 1.358 3.238 2.69 5.44M299.216 389.098c.313.064.686-.246 1.12-.933.434-.687.81-1.318 1.126-1.894.469-.852.996-1.86 1.582-3.027M303.878 381.522c-.03.52.073 1.25.31 2.19.151.602.355 1.332.612 2.19.256.86.559 1.79.909 2.794.507 1.456 1.734 3.685 3.68 6.686M315.486 397.46c.474-.516 1.965-2.486 4.472-5.91M323.228 389.516c.478.774.985 1.764 1.522 2.97.35.785.734 1.577 1.15 2.376.608 1.162 1.779 2.868 3.514 5.12M333.446 401.529v.597c0 .051.038.019.114-.099l.5-.768c.256-.394.544-.797.865-1.21.473-.61 1.127-1.238 1.962-1.888M338.972 397.953c.45.032.894.29 1.33.774.29.322.574.816.851 1.483.277.667.556 1.447.838 2.341.283.894.572 1.742.868 2.545a83.4 83.4 0 0 0 1.617 4.018" style="fill:none;stroke:#ffce86;stroke-width:2.59842;stroke-linecap:round;stroke-linejoin:round;stroke-miterlimit:10;stroke-dasharray:none;stroke-opacity:1" transform="matrix(.72727 0 0 .72727 -93.903 -141.054)"/><path d="M282.155 350.182c-.58-.075-.947-.142-1.101-.2-.107-.042-.16-.202-.158-.482.002-.28.288-.752.858-1.417.571-.665 1.003-1.142 1.297-1.433.434-.427 1-.71 1.699-.846M285.615 347.606c.086.476.077 1.299-.027 2.469-.095 1.066.296 2.35 1.17 3.855M289.732 362.807l1.552-4.075M294.422 356.81c-.15.632-.242 1.412-.273 2.341-.02.606.003 1.346.07 2.22.099 1.265.813 3.23 2.144 5.892M301.805 373.894v.293c0 .013.042-.08.126-.277l1.822-4.3M306.538 363.938c-.01 1.36.043 2.447.16 3.262.08.556.216 1.173.408 1.85.193.676.443 1.38.752 2.113.448 1.063 1.447 2.621 2.997 4.674M316.966 380.978l-.193.26c-.007.008-.007.005-.002-.011l.081-.24c.049-.143.4-.643 1.055-1.5.994-1.301 1.805-2.543 2.435-3.727M322.94 373.589c.23.817.457 1.702.68 2.655.147.63.322 1.294.526 1.994.302 1.03.87 2.154 1.703 3.373M331.137 385.714c-.058.332-.016.504.125.518.1.01.352-.248.757-.774s.8-1.038 1.188-1.538c.568-.733 1.452-1.54 2.652-2.422M338.265 382.119c.269.737.504 1.632.704 2.683.132.688.31 1.44.534 2.257.225.818.522 1.543.892 2.176.543.928 1.46 1.668 2.753 2.22M348.84 394.844v.13c0 .013.019-.01.058-.064l.245-.342c.123-.173.235-.388.337-.644.145-.367.697-1.23 1.658-2.587M355.88 390.93c.457 2.246.907 4.025 1.351 5.335.445 1.315 1.226 2.812 2.343 4.49M365.69 405.952c.982-1.037 2.105-2.406 3.368-4.109M376.08 398.846c.222 1.004.41 2.065.562 3.182.1.741.188 1.48.261 2.218.109 1.097.433 2.192.972 3.285" style="fill:none;stroke:#ffb954;stroke-width:2.59842;stroke-linecap:round;stroke-linejoin:round;stroke-miterlimit:10;stroke-dasharray:none;stroke-opacity:1" transform="matrix(.72727 0 0 .72727 -93.903 -141.054)"/><path d="M305.74 328.165c2.148.897 3.905 1.824 5.27 2.78.927.648 1.902 1.45 2.926 2.405 1.024.955 2.307 2.176 3.85 3.662 2.293 2.21 4.88 4.53 7.762 6.962M330.615 340.264c.05.172.026.373-.074.604l-.127.294c-.018.043-.04-.017-.065-.18l-.17-1.115c-.088-.58-.12-1.28-.097-2.094.035-1.212.219-2.507.552-3.887M328.565 329.499c.216.377.689.87 1.418 1.481.462.386 1.09.87 1.884 1.453a46.57 46.57 0 0 0 2.785 1.872c1.062.666 2.25 1.4 3.564 2.2a28.415 28.415 0 0 1 3.808 2.795c1.226 1.062 2.214 2.1 2.966 3.117 1.129 1.528 1.843 3.103 2.143 4.724M356.824 341.187c-.218.457-.36.62-.429.491-.048-.092-.072-.243-.073-.452 0-.209.098-.858.294-1.946.303-1.684.49-3.061.56-4.131M355.546 332.557c.226.397.702 1.135 1.427 2.213.724 1.079 1.618 2.223 2.681 3.432a178.767 178.767 0 0 0 2.047 2.304 78.372 78.372 0 0 0 3.238 3.27 83.994 83.994 0 0 1 1.38 1.322c.301.298.604.614.908.949.305.334.887 1.004 1.745 2.01a77.854 77.854 0 0 0 1.963 2.234c.449.484.972.979 1.568 1.486a17.85 17.85 0 0 1 1.445 1.346M373.623 346.21v.175c0 .004 0 0 .003-.01l.044-.23c.04-.204-.153-2.649-.578-7.336M372.752 337.172c.103.319.358.671.765 1.057.408.386.825.8 1.254 1.242.428.442.922.985 1.48 1.629.559.643 1.41 1.678 2.553 3.105 1.69 2.11 3.27 4.77 4.738 7.98M299.733 349.325c.13-1.302.37-2.361.72-3.178.347-.807 1.096-1.92 2.246-3.34M304.403 339.568c-.145.621-.082 1.437.189 2.447.176.658.495 1.436.957 2.335.461.9 1.114 1.899 1.959 2.999.844 1.1 1.885 2.185 3.121 3.255a96.258 96.258 0 0 0 3.588 2.964 435.838 435.838 0 0 0 6.278 4.811M329.296 361.228a92.966 92.966 0 0 0 2.223-2.419c.418-.482 1.639-1.771 3.66-3.867M340.105 350.422c.37.435.886 1.223 1.549 2.364.415.715.915 1.546 1.5 2.493a71.427 71.427 0 0 0 1.939 2.96c.707 1.027 1.449 2.142 2.226 3.348 1.131 1.752 2.981 4.472 5.551 8.16M362.786 371.543c-.074 1.104-.021 1.688.157 1.75.126.045.326-.09.6-.404.273-.313.604-.792.992-1.437.564-.938 1.542-2.391 2.932-4.361" style="fill:none;stroke:#ffa511;stroke-width:2.59842;stroke-linecap:round;stroke-linejoin:round;stroke-miterlimit:10;stroke-dasharray:none;stroke-opacity:1" transform="matrix(.72727 0 0 .72727 -93.903 -141.054)"/><path d="M270.756 301.614c-.136-.068-.195-.036-.179.096.012.096.063.25.153.463.09.213.194.415.314.605s.25.372.388.547c.139.176.273.349.403.52.13.17.242.344.334.52.093.177.19.402.288.677.098.274.13.402.096.383l-.258-.145a1.532 1.532 0 0 1-.373-.294c-.111-.12-.27-.376-.479-.77-.208-.395-.35-.64-.426-.736a.646.646 0 0 0-.176-.173c-.042-.02-.066-.01-.073.027-.007.038.076.235.25.59.175.356.326.68.455.973.128.292.247.55.356.772.109.222.201.398.277.529l.12.21.003.003-.008-.02-.206-.445a31.752 31.752 0 0 1-.368-.83 12.291 12.291 0 0 0-.33-.716 3.022 3.022 0 0 0-.232-.406l-.094-.122" style="fill:none;stroke:#000;stroke-width:2.59842;stroke-linecap:round;stroke-linejoin:round;stroke-miterlimit:10;stroke-dasharray:none;stroke-opacity:1" transform="matrix(.72727 0 0 .72727 -93.903 -141.054)"/><path d="M319.36 539.254c.015-.168-.125-.444-.42-.829-.295-.384-.602-.625-.922-.724-.32-.099-.732-.127-1.24-.084-.507.042-1.056.274-1.649.693-.592.42-1.15 1.028-1.676 1.826s-.909 1.712-1.148 2.742a9.234 9.234 0 0 0-.173 3.168 8.315 8.315 0 0 0 1.031 3.133c.563 1.006 1.273 1.812 2.129 2.417.856.605 1.761.96 2.715 1.065 1.379.151 2.978-.632 4.8-2.35M328.663 545.783c.858-.779 1.366-1.35 1.524-1.715.11-.253.2-.56.27-.92.07-.359.117-.734.14-1.125a2.86 2.86 0 0 0-.11-1.036 1.15 1.15 0 0 0-.579-.683c-.29-.156-.677-.249-1.158-.279a5.037 5.037 0 0 0-1.541.16c-.546.138-1.054.425-1.522.862-.469.437-.89 1.03-1.264 1.778a8.175 8.175 0 0 0-.76 2.436 6.733 6.733 0 0 0 .089 2.559c.193.83.596 1.502 1.21 2.014.612.513 1.425.78 2.436.801 1.012.021 1.994-.238 2.948-.777 1.393-.787 2.783-2.297 4.172-4.53M338.127 543.577c.133-.047.255.022.366.207.112.185.266.513.462.983s.378 1.041.547 1.712c.168.67.286 1.332.356 1.985.069.653.11 1.164.124 1.533.014.37-.03.595-.131.676-.102.082-.296-.033-.582-.343-.286-.31-.606-.796-.96-1.457a22.391 22.391 0 0 1-.984-2.105 12.782 12.782 0 0 1-.656-2.025 7.766 7.766 0 0 1-.2-1.715 3.098 3.098 0 0 1 .37-1.484 4.12 4.12 0 0 1 1.06-1.24c.46-.373.99-.637 1.586-.792.86-.224 2.588-.337 5.183-.339M349.674 531.537v-.157 0l.002.031.046.683c.028.432.059 1.023.09 1.774.033.751.055 1.665.067 2.742.011 1.078.018 2.977.02 5.698 0 2.72.15 5.398.445 8.032" style="fill:none;stroke:#007aff;stroke-width:1.55905;stroke-linecap:round;stroke-linejoin:round;stroke-miterlimit:10;stroke-dasharray:none;stroke-opacity:1" transform="matrix(.72727 0 0 .72727 -164.344 -174.08)"/><path d="M345.92 542.966c.304.04.76.025 1.368-.045a19.18 19.18 0 0 0 1.505-.252c.617-.124 1.29-.322 2.019-.594 1.088-.405 2.188-.9 3.3-1.482M356.824 542.341c.142.579.237 1.25.285 2.014.069 1.107.093 3.067.073 5.88M357.936 534.725l-.372-.223M364.932 557.993c-.524-1.868-.912-3.28-1.164-4.235a79.154 79.154 0 0 1-.676-2.862c-.278-1.253-.538-2.49-.78-3.714a32.693 32.693 0 0 1-.513-3.576c-.1-1.161-.128-2.171-.086-3.029.043-.857.188-1.537.437-2.038.249-.5.546-.877.89-1.127.345-.25.723-.396 1.135-.435.411-.04.809.094 1.193.4.383.307.753.732 1.11 1.275.356.543.703 1.175 1.043 1.898a28.62 28.62 0 0 1 1.923 5.376" style="fill:none;stroke:#007aff;stroke-width:1.55905;stroke-linecap:round;stroke-linejoin:round;stroke-miterlimit:10;stroke-dasharray:none;stroke-opacity:1" transform="matrix(.72727 0 0 .72727 -164.344 -174.08)"/><path d="M359.622 546.51c1.25.182 2.993.087 5.228-.286M372.935 542.394c.103 1.329.164 2.372.182 3.13.018.747-.102 2.175-.36 4.281M373.71 535.764l-.297-1.087M383.23 544.565c.414-.012.747-.108.998-.29.17-.123.368-.328.593-.616.225-.287.423-.616.594-.985a4.37 4.37 0 0 0 .348-1.066c.06-.34.076-.662.045-.963a1.812 1.812 0 0 0-.362-.886 3.051 3.051 0 0 0-.783-.746 2.31 2.31 0 0 0-1.035-.375c-.379-.043-.777.09-1.193.397-.417.308-.795.785-1.134 1.431-.339.647-.614 1.395-.826 2.246-.212.85-.339 1.716-.381 2.595-.042.879.009 1.584.153 2.116s.557 1.022 1.239 1.47c.682.447 1.476.634 2.382.56 1.317-.109 2.981-.922 4.993-2.439M395.692 540.492c-.058-.649-.161-1.08-.308-1.292-.102-.147-.284-.257-.546-.33-.262-.074-.592-.086-.99-.034-.398.052-.829.243-1.291.575a5.088 5.088 0 0 0-1.24 1.303 6.478 6.478 0 0 0-.848 1.844 6.68 6.68 0 0 0-.286 1.965 2.919 2.919 0 0 0 1.78 2.685 3.34 3.34 0 0 0 1.618.25c.557-.051 1.06-.287 1.51-.708.448-.42.825-.975 1.13-1.663.305-.687.57-1.488.792-2.402.222-.914.43-1.844.624-2.79.193-.945.366-1.81.518-2.593.152-.784.296-1.894.43-3.33.135-1.436.223-2.399.265-2.888l.07-.815c.006-.053.001-.064-.012-.033l-.198.473c-.12.284-.268.89-.445 1.82-.178.929-.297 2.007-.359 3.234a89.408 89.408 0 0 0-.101 4.073 48.042 48.042 0 0 0 .158 4.214c.169 2.014.554 3.695 1.153 5.043M418.948 529.587c-.045-.139-.117-.095-.216.13-.098.224-.152.585-.162 1.083-.01.498.051 1.124.183 1.877.132.754.357 1.828.676 3.224.319 1.396.773 3.59 1.362 6.58.589 2.992.983 4.899 1.181 5.721.2.823.338 1.38.418 1.67.079.29.112.386.099.286l-.098-.746a29 29 0 0 0-.313-1.774 16.937 16.937 0 0 1-.304-2.274c-.046-.73-.022-1.363.072-1.895.093-.533.303-.96.63-1.28.328-.321.757-.568 1.287-.74a6.8 6.8 0 0 1 1.754-.308 5.718 5.718 0 0 1 1.854.203 3.784 3.784 0 0 1 1.588.901c.46.432.805.981 1.036 1.647.231.665.355 1.361.371 2.088a4.468 4.468 0 0 1-.474 2.101 4.236 4.236 0 0 1-1.449 1.657c-.634.43-1.34.7-2.115.81-1.138.161-2.368-.132-3.691-.88M433.758 542.174c.124 2.974.104 5.506-.06 7.595M434.821 533.617h-.815M438.943 541.157c.185.557.402 1.288.653 2.193.162.584.288 1.188.377 1.81.09.621.15 1.216.182 1.782.032.567.049.997.052 1.29l.005.518c0 .051-.008.057-.027.017l-.189-.402c-.107-.229-.264-.65-.47-1.263a20.564 20.564 0 0 1-.54-1.913 9.805 9.805 0 0 1-.264-1.771 3.757 3.757 0 0 1 .207-1.447c.16-.445.379-.845.655-1.2a2.977 2.977 0 0 1 2.042-1.16c.528-.05 1.297.08 2.308.388M450.343 541.949c.03-.862-.038-1.381-.202-1.556-.114-.123-.34-.234-.68-.334a2.431 2.431 0 0 0-.958-.1c-.3.033-.63.218-.986.556a4.011 4.011 0 0 0-.888 1.29 5.14 5.14 0 0 0-.421 1.752c-.046.645.05 1.29.29 1.934.24.643.577 1.15 1.01 1.518.432.368.911.593 1.437.674.75.116 1.905-.735 3.465-2.553M453.27 532.058a829.165 829.165 0 0 0-.268 5.125c-.03.63-.054 1.5-.073 2.608a158.495 158.495 0 0 0-.017 3.521c.01 1.852.264 3.699.762 5.541M480.853 542.933c.19-.139.22-.385.086-.74a1.782 1.782 0 0 0-.42-.645 3.196 3.196 0 0 0-.72-.519 3.293 3.293 0 0 0-1.04-.34c-.4-.068-.82-.057-1.262.032-.442.09-.858.312-1.25.67-.392.357-.723.847-.992 1.47-.27.622-.437 1.414-.5 2.373-.064.96-.014 1.859.149 2.696.163.838.427 1.517.793 2.039.365.52.808.848 1.326.982.519.133 1.075.036 1.668-.291.594-.328 1.173-.964 1.737-1.91.564-.946 1.07-2.078 1.52-3.396.45-1.319.857-2.641 1.221-3.968.365-1.327.662-2.623.89-3.89.229-1.268.384-2.317.466-3.149.083-.832.117-1.478.102-1.938-.014-.46-.082-.773-.202-.939-.12-.165-.26-.2-.421-.105-.16.095-.327.414-.498.958-.172.544-.332 1.3-.482 2.265-.15.967-.267 2.132-.35 3.497a72.582 72.582 0 0 0-.137 3.932c-.008 1.257.07 2.449.233 3.575.245 1.692.798 3.15 1.658 4.374M489.583 544.28c.78-.668 1.255-1.153 1.426-1.454.12-.209.205-.497.257-.865.053-.369.036-.669-.052-.9a1.6 1.6 0 0 0-.468-.639 1.761 1.761 0 0 0-.846-.386 1.908 1.908 0 0 0-.996.074c-.324.112-.729.438-1.213.976-.485.538-.83 1.101-1.034 1.69-.204.588-.312 1.249-.326 1.982-.013.734.106 1.504.358 2.311.252.807.598 1.459 1.037 1.955.44.496.951.813 1.537.952a3.276 3.276 0 0 0 1.802-.094c.616-.2 1.136-.623 1.56-1.265.622-.938 1.003-2.319 1.146-4.14M495.863 541.718c-.156-.204-.235-.38-.237-.527 0-.101.07-.094.213.024.143.117.32.386.534.805.214.419.473.969.777 1.649.304.68.65 1.39 1.037 2.134.386.742.791 1.385 1.214 1.927.423.542.834.91 1.233 1.106.398.196.751.24 1.058.132.308-.107.532-.481.675-1.122.142-.641.241-1.69.296-3.144.054-1.455.191-2.443.41-2.965M510.326 545.603c.532-.317.903-.648 1.112-.996.143-.237.248-.474.315-.713.066-.239.11-.515.13-.828a3.49 3.49 0 0 0-.086-.995 3.228 3.228 0 0 0-.475-1.066 3.4 3.4 0 0 0-.949-.942 2.775 2.775 0 0 0-1.274-.473c-.455-.05-.872.09-1.251.42-.38.33-.684.807-.914 1.433-.23.627-.376 1.387-.437 2.28a7.292 7.292 0 0 0 .265 2.565c.238.816.592 1.499 1.061 2.048.47.55 1.014.915 1.632 1.095.618.181 1.258.17 1.921-.035.663-.205 1.268-.626 1.817-1.262.81-.94 1.466-2.154 1.967-3.642M518.366 545.14c.246-1.007.636-2.452 1.17-4.333.341-1.199.631-2.388.872-3.568.24-1.18.428-2.319.564-3.417.135-1.098.214-2.028.234-2.79.02-.762-.046-1.308-.2-1.637-.153-.33-.378-.417-.674-.264-.297.153-.6.568-.911 1.243-.311.676-.598 1.5-.86 2.473-.26.973-.464 2.156-.61 3.55a34.999 34.999 0 0 0-.183 4.182c.022 1.393.212 2.694.57 3.903.36 1.208.834 2.173 1.426 2.894.591.72 1.206 1.176 1.845 1.368.64.191 1.228.248 1.765.17.765-.11 1.328-1.163 1.689-3.157M529.78 542.29c.15-.802.2-1.44.154-1.916-.032-.325-.138-.541-.318-.65a2.575 2.575 0 0 0-.699-.268c-.285-.072-.62-.1-1.005-.084-.385.015-.79.198-1.214.55-.425.35-.799.818-1.122 1.4a5.568 5.568 0 0 0-.637 1.953c-.1.718-.044 1.399.17 2.042.213.643.613 1.171 1.198 1.584a3.866 3.866 0 0 0 1.889.715c.673.063 1.322-.154 1.944-.652.623-.498 1.114-1.19 1.474-2.078.359-.887.571-1.753.637-2.6.066-.845-.047-1.552-.337-2.118-.414-.808-1.53-1.01-3.35-.608M537.116 544.292c.147 1.154.431 2.787.852 4.898.269 1.348.464 2.287.586 2.816.18.785.355 1.684.525 2.697" style="fill:none;stroke:#007aff;stroke-width:1.55905;stroke-linecap:round;stroke-linejoin:round;stroke-miterlimit:10;stroke-dasharray:none;stroke-opacity:1" transform="matrix(.72727 0 0 .72727 -164.344 -174.08)"/><path d="M537.31 546.949c-.563-.222-.954-.525-1.175-.91-.15-.263-.304-.667-.46-1.212a19.591 19.591 0 0 1-.413-1.756 11.923 11.923 0 0 1-.207-1.856c-.019-.612.075-1.2.28-1.766.207-.565.532-1.058.975-1.48.443-.42.998-.677 1.664-.77.667-.093 1.371.063 2.114.47a6.162 6.162 0 0 1 1.948 1.703c.557.73.937 1.447 1.14 2.151.205.704.27 1.411.194 2.12a3.066 3.066 0 0 1-.849 1.835c-.703.74-2.229 1-4.576.783M548.468 544.407c1.295-.96 2.012-1.65 2.15-2.069.096-.293.15-.513.16-.662.01-.148-.064-.352-.218-.612a3.053 3.053 0 0 0-.635-.74 3.652 3.652 0 0 0-.742-.518c-.226-.112-.525-.17-.897-.175-.372-.005-.72.175-1.046.538-.326.364-.624.88-.894 1.546s-.441 1.482-.513 2.446c-.073.964-.012 1.906.181 2.827.194.92.494 1.626.899 2.118s.884.795 1.437.911c.552.116 1.178-.016 1.878-.398.7-.381 1.382-.955 2.046-1.72a35.425 35.425 0 0 0 2.635-3.414M556.482 541.64c.88.726 1.504 1.676 1.872 2.848.247.786.416 1.503.507 2.153.091.65.15 1.297.174 1.94.025.645.016 1.151-.027 1.52-.043.368-.137.589-.283.662-.146.074-.334-.049-.563-.368-.23-.319-.478-.91-.745-1.772a15.422 15.422 0 0 1-.575-2.77c-.116-.983-.154-1.82-.113-2.512.04-.692.26-1.288.657-1.789.397-.5.905-.952 1.523-1.358.617-.405 1.28-.761 1.989-1.069 1.031-.448 2.624-.743 4.777-.883" style="fill:none;stroke:#007aff;stroke-width:1.55905;stroke-linecap:round;stroke-linejoin:round;stroke-miterlimit:10;stroke-dasharray:none;stroke-opacity:1" transform="matrix(.72727 0 0 .72727 -164.344 -174.08)"/><path d="M623.652 439.655c4.622 116.072-85.727 213.914-201.8 218.536-116.072 4.622-213.914-85.727-218.536-201.8-4.621-116.072 85.727-213.914 201.8-218.536 116.073-4.622 213.915 85.727 218.536 201.8z" style="fill:none;stroke:#fcfcfc;stroke-width:1.55905;stroke-linecap:butt;stroke-linejoin:miter;stroke-miterlimit:10;stroke-dasharray:none;stroke-opacity:1" transform="matrix(.72727 0 0 .72727 -147.176 -172.295)"/></svg>