<svg xmlns="http://www.w3.org/2000/svg" width="145.947" height="72.53"><path d="M388.799 179.107c5.433 26.426-11.584 52.254-38.01 57.687-26.427 5.434-52.254-11.584-57.687-38.01-5.434-26.426 11.584-52.254 38.01-57.687 26.426-5.434 52.253 11.584 57.687 38.01z" style="fill:none;stroke:#007aff;stroke-width:2.01275;stroke-linecap:butt;stroke-linejoin:miter;stroke-miterlimit:10;stroke-dasharray:none;stroke-opacity:1" transform="matrix(.72727 0 0 .72727 -211.699 -101.15)"/><path d="M489.659 180.454c5.008 20.533-7.577 41.238-28.11 46.247-20.533 5.008-41.238-7.577-46.246-28.11-5.009-20.532 7.576-41.238 28.109-46.246 20.533-5.009 41.238 7.576 46.246 28.11z" style="fill:none;stroke:#7ec636;stroke-width:2.01275;stroke-linecap:butt;stroke-linejoin:miter;stroke-miterlimit:10;stroke-dasharray:none;stroke-opacity:1" transform="matrix(.72727 0 0 .72727 -211.699 -101.15)"/><path d="M340.746 188.298c0-.136.183-.217.55-.245.366-.027.596.012.69.119.093.106.149.26.167.462.018.201.004.34-.042.415a.433.433 0 0 1-.232.172c-.109.04-.313.06-.613.059-.3 0-.513-.058-.638-.17a1.38 1.38 0 0 1-.315-.428 1.488 1.488 0 0 1-.15-.54 1.315 1.315 0 0 1 .053-.514c.05-.156.17-.262.358-.317a1.64 1.64 0 0 1 .642-.043c.24.027.46.11.661.25.201.139.357.296.468.473.11.176.176.329.195.458.019.13-.046.233-.195.31-.214.113-.637.169-1.269.168M343.086 188.575l43.516-.064" style="fill:none;stroke:#fcfcfc;stroke-width:2.01275;stroke-linecap:round;stroke-linejoin:round;stroke-miterlimit:10;stroke-dasharray:none;stroke-opacity:1" transform="matrix(.72727 0 0 .72727 -211.699 -101.15)"/><path d="M455.542 188.18c-.252.068-.4.032-.446-.109a.552.552 0 0 1-.035-.238.22.22 0 0 1 .104-.152c.06-.04.136-.07.228-.087a.863.863 0 0 1 .268-.009c.087.011.158.063.213.154a.719.719 0 0 1 .099.31.543.543 0 0 1-.085.34.885.885 0 0 1-.273.28.85.85 0 0 1-.368.136c-.13.016-.262.008-.395-.024a.73.73 0 0 1-.33-.169.511.511 0 0 1-.162-.248.61.61 0 0 1-.003-.269c.019-.094.096-.182.23-.264.136-.082.284-.14.447-.175.163-.034.302-.044.417-.031.115.013.202.07.261.17.06.1.094.209.104.325.01.117 0 .224-.028.321a.392.392 0 0 1-.203.232c-.105.058-.261.092-.468.103-.206.012-.347-.03-.424-.126a.486.486 0 0 1-.116-.301c0-.15.116-.228.352-.236M453.135 187.975l-35.349.052" style="fill:none;stroke:#fff;stroke-width:2.01275;stroke-linecap:round;stroke-linejoin:round;stroke-miterlimit:10;stroke-dasharray:none;stroke-opacity:1" transform="matrix(.72727 0 0 .72727 -211.699 -101.15)"/><path d="M326.348 214.712c-.007.189-.093.315-.259.38-.114.046-.2.027-.259-.055-.058-.081-.116-.231-.175-.45a13.072 13.072 0 0 1-.32-1.625 9.335 9.335 0 0 1-.072-.956c-.01-.333-.011-.642-.007-.928.004-.287.065-.665.185-1.133.12-.469.26-.872.42-1.21.161-.339.347-.642.56-.91.211-.267.428-.489.65-.664a2.19 2.19 0 0 1 .64-.368c.204-.07.405-.102.602-.094.197.007.399.09.604.249.206.158.417.37.633.634.217.264.434.605.651 1.024.218.418.412.897.582 1.436.17.54.312 1.066.425 1.58.113.512.21.986.294 1.42.124.645.191 1.355.202 2.13" style="fill:none;stroke:#ff21b3;stroke-width:1.55905;stroke-linecap:round;stroke-linejoin:round;stroke-miterlimit:10;stroke-dasharray:none;stroke-opacity:1" transform="matrix(.72727 0 0 .72727 -203.397 -124.536)"/><path d="M326.158 212.014c.865-.174 1.69-.311 2.475-.412.814-.104 1.477-.155 1.987-.15M439.495 207.472c-.207.164-.253.578-.139 1.241.076.438.154.973.235 1.605.08.633.164 1.425.248 2.377.085.952.143 1.57.175 1.852.032.283.062.48.089.595l.044.188c.003.011.004.01.004-.003v-.22c0-.134-.032-.362-.099-.682-.066-.32-.136-.68-.209-1.081-.073-.4-.128-.829-.165-1.285a19.3 19.3 0 0 1-.06-1.392 72.742 72.742 0 0 1 0-1.3c.005-.397.05-.739.138-1.028a3.181 3.181 0 0 1 .866-1.429c.204-.195.427-.339.668-.43.241-.091.498-.122.771-.093.273.03.521.154.745.371.223.218.39.474.503.768.112.295.191.586.236.874.045.288.07.561.074.82.005.258-.026.488-.092.69a1.145 1.145 0 0 1-.259.464.692.692 0 0 1-.408.193c-.165.023-.246-.019-.245-.123.002-.105.059-.196.17-.273.112-.078.257-.145.436-.2.179-.056.375-.09.589-.1.214-.011.43.03.647.125.217.095.423.223.617.386.194.164.377.344.55.542.172.198.32.412.441.642.122.23.218.471.288.724.07.253.113.533.13.84.017.308-.033.627-.151.959-.118.33-.333.669-.647 1.013a4.434 4.434 0 0 1-1.198.905 4.803 4.803 0 0 1-1.598.515c-.843.122-1.95-.161-3.323-.847M346.748 224.608c.116.533.242.997.377 1.393.09.267.16.497.21.69.049.192.092.433.13.72.037.289.063.608.077.959.014.35.014.65-.002.896-.015.247-.047.425-.095.533-.048.108-.106.167-.174.178-.067.01-.146-.056-.236-.201-.09-.145-.19-.35-.298-.618a10.589 10.589 0 0 1-.318-.918 17.961 17.961 0 0 1-.265-.972c-.073-.303-.13-.571-.17-.804a4.707 4.707 0 0 1-.073-.598 1.187 1.187 0 0 1 .048-.424.666.666 0 0 1 .249-.315c.126-.095.299-.176.517-.246.218-.069.482-.133.793-.194.311-.06.661-.13 1.05-.208.389-.079.767-.15 1.135-.215.538-.095 1.29-.142 2.259-.14M350.289 233.745v.198c0 .006-.004-.004-.01-.029l-.121-.426a9.264 9.264 0 0 1-.191-.83 11.57 11.57 0 0 1-.182-2.037c.004-.329.052-.62.144-.871.093-.252.202-.469.328-.65.125-.18.267-.325.426-.433.159-.108.334-.175.526-.202a.98.98 0 0 1 .575.099c.192.093.381.237.57.432.187.196.37.417.548.666.179.249.348.53.509.844.16.313.292.658.394 1.034.102.376.17.732.204 1.069.05.501.03 1.018-.06 1.55M350.487 232.075l2.456-.375M420.315 226.17c.075.17.154.41.239.724.084.314.153.553.206.719.053.166.125.416.216.751.091.336.161.676.21 1.021.05.346.078.663.087.953.009.29-.005.504-.04.643-.037.139-.096.203-.18.194-.083-.01-.176-.125-.28-.345a8.848 8.848 0 0 1-.317-.771 49.02 49.02 0 0 1-.31-.883c-.101-.295-.195-.598-.282-.91a5.3 5.3 0 0 1-.172-.887 3.726 3.726 0 0 1-.007-.755c.024-.224.102-.43.233-.618a2.04 2.04 0 0 1 .54-.515c.229-.154.494-.3.796-.439.301-.138.622-.26.96-.367a17.45 17.45 0 0 1 1.032-.29c.508-.127 1.255-.363 2.24-.706M424.077 229.244c.19.473.33.813.423 1.02.064.143.126.298.185.465.06.168.104.346.132.535.029.189.047.364.053.526.007.162.004.289-.009.381-.012.093-.037.148-.075.168-.038.019-.084-.002-.138-.064-.054-.061-.101-.174-.143-.34a6.1 6.1 0 0 1-.114-.615 8.455 8.455 0 0 1-.07-.788c-.014-.28-.02-.575-.022-.885a5.49 5.49 0 0 1 .078-.935c.053-.313.133-.579.24-.796a1.84 1.84 0 0 1 .362-.517c.134-.128.277-.22.43-.275.153-.056.3-.078.442-.067.14.01.276.073.407.187.13.113.247.26.349.441.102.18.175.366.219.557.044.191.07.376.077.554a1.99 1.99 0 0 1-.032.478.967.967 0 0 1-.118.326.413.413 0 0 1-.178.16c-.07.031-.105.028-.107-.007-.002-.036.023-.086.075-.15a.521.521 0 0 1 .241-.149 1.595 1.595 0 0 1 .793-.041c.147.029.297.088.45.177.155.089.304.194.45.316.144.122.26.274.347.455.087.18.137.382.149.602a1.23 1.23 0 0 1-.174.673 2.314 2.314 0 0 1-.58.655 3.122 3.122 0 0 1-.895.498c-.49.18-1.185.156-2.083-.07" style="fill:none;stroke:#ff21b3;stroke-width:1.55905;stroke-linecap:round;stroke-linejoin:round;stroke-miterlimit:10;stroke-dasharray:none;stroke-opacity:1" transform="matrix(.72727 0 0 .72727 -203.397 -124.536)"/></svg>